%TF.GenerationSoftware,KiCad,Pcbnew,8.0.8*%
%TF.CreationDate,2025-02-15T03:13:48-10:00*%
%TF.ProjectId,theguy,74686567-7579-42e6-9b69-6361645f7063,v1.0.0*%
%TF.SameCoordinates,Original*%
%TF.FileFunction,Paste,Bot*%
%TF.FilePolarity,Positive*%
%FSLAX46Y46*%
G04 Gerber Fmt 4.6, Leading zero omitted, Abs format (unit mm)*
G04 Created by KiCad (PCBNEW 8.0.8) date 2025-02-15 03:13:48*
%MOMM*%
%LPD*%
G01*
G04 APERTURE LIST*
G04 Aperture macros list*
%AMRotRect*
0 Rectangle, with rotation*
0 The origin of the aperture is its center*
0 $1 length*
0 $2 width*
0 $3 Rotation angle, in degrees counterclockwise*
0 Add horizontal line*
21,1,$1,$2,0,0,$3*%
G04 Aperture macros list end*
%ADD10R,0.900000X1.200000*%
%ADD11R,2.600000X1.000000*%
%ADD12RotRect,2.600000X1.000000X340.000000*%
%ADD13RotRect,0.900000X1.200000X340.000000*%
%ADD14R,2.600000X2.600000*%
%ADD15RotRect,2.600000X2.600000X340.000000*%
G04 APERTURE END LIST*
D10*
%TO.C,D3*%
X68350000Y-74000000D03*
X71650000Y-74000000D03*
%TD*%
%TO.C,D16*%
X140350000Y-57000000D03*
X143650000Y-57000000D03*
%TD*%
D11*
%TO.C,LED8*%
X103800000Y-88575000D03*
X103800000Y-86825000D03*
X108200000Y-86825000D03*
X108200000Y-88575000D03*
%TD*%
D10*
%TO.C,D11*%
X122350000Y-91000000D03*
X125650000Y-91000000D03*
%TD*%
%TO.C,D4*%
X68350000Y-57000000D03*
X71650000Y-57000000D03*
%TD*%
D12*
%TO.C,LED22*%
X167540313Y-129131345D03*
X168138848Y-127486883D03*
X172273495Y-128991771D03*
X171674960Y-130636233D03*
%TD*%
D11*
%TO.C,LED2*%
X67800000Y-88575000D03*
X67800000Y-86825000D03*
X72200000Y-86825000D03*
X72200000Y-88575000D03*
%TD*%
D10*
%TO.C,D13*%
X122350000Y-57000000D03*
X125650000Y-57000000D03*
%TD*%
D13*
%TO.C,D20*%
X164584854Y-112545254D03*
X167685840Y-113673920D03*
%TD*%
D14*
%TO.C,S7*%
X84725000Y-43050000D03*
X96275000Y-45250000D03*
%TD*%
D11*
%TO.C,LED16*%
X139800000Y-54575000D03*
X139800000Y-52825000D03*
X144200000Y-52825000D03*
X144200000Y-54575000D03*
%TD*%
D10*
%TO.C,D12*%
X122350000Y-74000000D03*
X125650000Y-74000000D03*
%TD*%
D15*
%TO.C,S20*%
X167829035Y-98880760D03*
X177930040Y-104898416D03*
%TD*%
D12*
%TO.C,LED21*%
X181811889Y-116234751D03*
X182410424Y-114590289D03*
X186545071Y-116095177D03*
X185946536Y-117739639D03*
%TD*%
D10*
%TO.C,D14*%
X140350000Y-91000000D03*
X143650000Y-91000000D03*
%TD*%
D11*
%TO.C,LED19*%
X157800000Y-54575000D03*
X157800000Y-52825000D03*
X162200000Y-52825000D03*
X162200000Y-54575000D03*
%TD*%
D14*
%TO.C,S12*%
X120725000Y-60050000D03*
X132275000Y-62250000D03*
%TD*%
%TO.C,S11*%
X120725000Y-77050000D03*
X132275000Y-79250000D03*
%TD*%
%TO.C,S4*%
X66725000Y-43050000D03*
X78275000Y-45250000D03*
%TD*%
D10*
%TO.C,D15*%
X140350000Y-74000000D03*
X143650000Y-74000000D03*
%TD*%
D14*
%TO.C,S15*%
X138725000Y-60050000D03*
X150275000Y-62250000D03*
%TD*%
D10*
%TO.C,D19*%
X158350000Y-57000000D03*
X161650000Y-57000000D03*
%TD*%
%TO.C,D10*%
X104350000Y-57000000D03*
X107650000Y-57000000D03*
%TD*%
D14*
%TO.C,S8*%
X102725000Y-77050000D03*
X114275000Y-79250000D03*
%TD*%
%TO.C,S5*%
X84725000Y-77050000D03*
X96275000Y-79250000D03*
%TD*%
D10*
%TO.C,D9*%
X104350000Y-74000000D03*
X107650000Y-74000000D03*
%TD*%
D11*
%TO.C,LED9*%
X103800000Y-71575000D03*
X103800000Y-69825000D03*
X108200000Y-69825000D03*
X108200000Y-71575000D03*
%TD*%
D14*
%TO.C,S17*%
X156725000Y-77050000D03*
X168275000Y-79250000D03*
%TD*%
D15*
%TO.C,S22*%
X170471926Y-117933715D03*
X180572931Y-123951371D03*
%TD*%
D11*
%TO.C,LED17*%
X157800000Y-88575000D03*
X157800000Y-86825000D03*
X162200000Y-86825000D03*
X162200000Y-88575000D03*
%TD*%
D14*
%TO.C,S19*%
X156725000Y-43050000D03*
X168275000Y-45250000D03*
%TD*%
D11*
%TO.C,LED7*%
X85800000Y-54575000D03*
X85800000Y-52825000D03*
X90200000Y-52825000D03*
X90200000Y-54575000D03*
%TD*%
%TO.C,LED4*%
X67800000Y-54575000D03*
X67800000Y-52825000D03*
X72200000Y-52825000D03*
X72200000Y-54575000D03*
%TD*%
D15*
%TO.C,S21*%
X184743502Y-105037122D03*
X194844507Y-111054778D03*
%TD*%
D11*
%TO.C,LED18*%
X157800000Y-71575000D03*
X157800000Y-69825000D03*
X162200000Y-69825000D03*
X162200000Y-71575000D03*
%TD*%
D14*
%TO.C,S3*%
X66725000Y-60050000D03*
X78275000Y-62250000D03*
%TD*%
%TO.C,S18*%
X156725000Y-60050000D03*
X168275000Y-62250000D03*
%TD*%
%TO.C,S1*%
X66725000Y-94050000D03*
X78275000Y-96250000D03*
%TD*%
%TO.C,S16*%
X138725000Y-43050000D03*
X150275000Y-45250000D03*
%TD*%
D10*
%TO.C,D8*%
X104350000Y-91000000D03*
X107650000Y-91000000D03*
%TD*%
D11*
%TO.C,LED13*%
X121800000Y-54575000D03*
X121800000Y-52825000D03*
X126200000Y-52825000D03*
X126200000Y-54575000D03*
%TD*%
D13*
%TO.C,D22*%
X167227745Y-131598210D03*
X170328731Y-132726876D03*
%TD*%
D14*
%TO.C,S9*%
X102725000Y-60050000D03*
X114275000Y-62250000D03*
%TD*%
D11*
%TO.C,LED11*%
X121800000Y-88575000D03*
X121800000Y-86825000D03*
X126200000Y-86825000D03*
X126200000Y-88575000D03*
%TD*%
%TO.C,LED6*%
X85800000Y-71575000D03*
X85800000Y-69825000D03*
X90200000Y-69825000D03*
X90200000Y-71575000D03*
%TD*%
D10*
%TO.C,D18*%
X158350000Y-74000000D03*
X161650000Y-74000000D03*
%TD*%
D13*
%TO.C,D21*%
X181499321Y-118701617D03*
X184600307Y-119830283D03*
%TD*%
D14*
%TO.C,S14*%
X138725000Y-77050000D03*
X150275000Y-79250000D03*
%TD*%
D10*
%TO.C,D17*%
X158350000Y-91000000D03*
X161650000Y-91000000D03*
%TD*%
%TO.C,D1*%
X68350000Y-108000000D03*
X71650000Y-108000000D03*
%TD*%
D14*
%TO.C,S13*%
X120725000Y-43050000D03*
X132275000Y-45250000D03*
%TD*%
%TO.C,S6*%
X84725000Y-60050000D03*
X96275000Y-62250000D03*
%TD*%
D11*
%TO.C,LED3*%
X67800000Y-71575000D03*
X67800000Y-69825000D03*
X72200000Y-69825000D03*
X72200000Y-71575000D03*
%TD*%
%TO.C,LED14*%
X139800000Y-88575000D03*
X139800000Y-86825000D03*
X144200000Y-86825000D03*
X144200000Y-88575000D03*
%TD*%
D10*
%TO.C,D6*%
X86350000Y-74000000D03*
X89650000Y-74000000D03*
%TD*%
D11*
%TO.C,LED5*%
X85800000Y-88575000D03*
X85800000Y-86825000D03*
X90200000Y-86825000D03*
X90200000Y-88575000D03*
%TD*%
D10*
%TO.C,D7*%
X86350000Y-57000000D03*
X89650000Y-57000000D03*
%TD*%
D11*
%TO.C,LED15*%
X139800000Y-71575000D03*
X139800000Y-69825000D03*
X144200000Y-69825000D03*
X144200000Y-71575000D03*
%TD*%
D10*
%TO.C,D5*%
X86350000Y-91000000D03*
X89650000Y-91000000D03*
%TD*%
D14*
%TO.C,S10*%
X102725000Y-43050000D03*
X114275000Y-45250000D03*
%TD*%
D10*
%TO.C,D2*%
X68350000Y-91000000D03*
X71650000Y-91000000D03*
%TD*%
D12*
%TO.C,LED20*%
X164897422Y-110078389D03*
X165495957Y-108433927D03*
X169630604Y-109938815D03*
X169032069Y-111583277D03*
%TD*%
D14*
%TO.C,S2*%
X66725000Y-77050000D03*
X78275000Y-79250000D03*
%TD*%
D11*
%TO.C,LED1*%
X67800000Y-105575000D03*
X67800000Y-103825000D03*
X72200000Y-103825000D03*
X72200000Y-105575000D03*
%TD*%
%TO.C,LED10*%
X103800000Y-54575000D03*
X103800000Y-52825000D03*
X108200000Y-52825000D03*
X108200000Y-54575000D03*
%TD*%
%TO.C,LED12*%
X121800000Y-71575000D03*
X121800000Y-69825000D03*
X126200000Y-69825000D03*
X126200000Y-71575000D03*
%TD*%
M02*
