%TF.GenerationSoftware,KiCad,Pcbnew,8.0.8*%
%TF.CreationDate,2025-02-15T03:13:47-10:00*%
%TF.ProjectId,theguy,74686567-7579-42e6-9b69-6361645f7063,v1.0.0*%
%TF.SameCoordinates,Original*%
%TF.FileFunction,Paste,Top*%
%TF.FilePolarity,Positive*%
%FSLAX46Y46*%
G04 Gerber Fmt 4.6, Leading zero omitted, Abs format (unit mm)*
G04 Created by KiCad (PCBNEW 8.0.8) date 2025-02-15 03:13:47*
%MOMM*%
%LPD*%
G01*
G04 APERTURE LIST*
G04 Aperture macros list*
%AMRotRect*
0 Rectangle, with rotation*
0 The origin of the aperture is its center*
0 $1 length*
0 $2 width*
0 $3 Rotation angle, in degrees counterclockwise*
0 Add horizontal line*
21,1,$1,$2,0,0,$3*%
G04 Aperture macros list end*
%ADD10RotRect,0.900000X0.900000X300.000000*%
%ADD11RotRect,0.900000X1.250000X300.000000*%
%ADD12R,0.900000X1.200000*%
%ADD13R,2.600000X1.000000*%
%ADD14RotRect,2.600000X1.000000X340.000000*%
%ADD15RotRect,0.900000X1.200000X340.000000*%
%ADD16R,1.000000X1.550000*%
G04 APERTURE END LIST*
D10*
%TO.C,T1*%
X190102628Y-94445706D03*
X188197372Y-95545706D03*
X193802628Y-100854294D03*
X191897372Y-101954294D03*
D11*
X190327997Y-101186057D03*
X188827997Y-98587981D03*
X188077997Y-97288943D03*
%TD*%
D12*
%TO.C,D3*%
X68350000Y-74000000D03*
X71650000Y-74000000D03*
%TD*%
%TO.C,D16*%
X140350000Y-57000000D03*
X143650000Y-57000000D03*
%TD*%
D13*
%TO.C,LED8*%
X103800000Y-86825000D03*
X103800000Y-88575000D03*
X108200000Y-88575000D03*
X108200000Y-86825000D03*
%TD*%
D12*
%TO.C,D11*%
X122350000Y-91000000D03*
X125650000Y-91000000D03*
%TD*%
%TO.C,D4*%
X68350000Y-57000000D03*
X71650000Y-57000000D03*
%TD*%
D14*
%TO.C,LED22*%
X168138848Y-127486883D03*
X167540313Y-129131345D03*
X171674960Y-130636233D03*
X172273495Y-128991771D03*
%TD*%
D13*
%TO.C,LED2*%
X67800000Y-86825000D03*
X67800000Y-88575000D03*
X72200000Y-88575000D03*
X72200000Y-86825000D03*
%TD*%
D12*
%TO.C,D13*%
X122350000Y-57000000D03*
X125650000Y-57000000D03*
%TD*%
D15*
%TO.C,D20*%
X164584854Y-112545254D03*
X167685840Y-113673920D03*
%TD*%
D13*
%TO.C,LED16*%
X139800000Y-52825000D03*
X139800000Y-54575000D03*
X144200000Y-54575000D03*
X144200000Y-52825000D03*
%TD*%
D12*
%TO.C,D12*%
X122350000Y-74000000D03*
X125650000Y-74000000D03*
%TD*%
D14*
%TO.C,LED21*%
X182410424Y-114590289D03*
X181811889Y-116234751D03*
X185946536Y-117739639D03*
X186545071Y-116095177D03*
%TD*%
D12*
%TO.C,D14*%
X140350000Y-91000000D03*
X143650000Y-91000000D03*
%TD*%
D13*
%TO.C,LED19*%
X157800000Y-52825000D03*
X157800000Y-54575000D03*
X162200000Y-54575000D03*
X162200000Y-52825000D03*
%TD*%
D12*
%TO.C,D15*%
X140350000Y-74000000D03*
X143650000Y-74000000D03*
%TD*%
%TO.C,D19*%
X158350000Y-57000000D03*
X161650000Y-57000000D03*
%TD*%
%TO.C,D10*%
X104350000Y-57000000D03*
X107650000Y-57000000D03*
%TD*%
%TO.C,D9*%
X104350000Y-74000000D03*
X107650000Y-74000000D03*
%TD*%
D13*
%TO.C,LED9*%
X103800000Y-69825000D03*
X103800000Y-71575000D03*
X108200000Y-71575000D03*
X108200000Y-69825000D03*
%TD*%
%TO.C,LED17*%
X157800000Y-86825000D03*
X157800000Y-88575000D03*
X162200000Y-88575000D03*
X162200000Y-86825000D03*
%TD*%
D16*
%TO.C,B1*%
X188850000Y-86075000D03*
X188850000Y-91325000D03*
X187150000Y-86075000D03*
X187150000Y-91325000D03*
%TD*%
D13*
%TO.C,LED7*%
X85800000Y-52825000D03*
X85800000Y-54575000D03*
X90200000Y-54575000D03*
X90200000Y-52825000D03*
%TD*%
%TO.C,LED4*%
X67800000Y-52825000D03*
X67800000Y-54575000D03*
X72200000Y-54575000D03*
X72200000Y-52825000D03*
%TD*%
%TO.C,LED18*%
X157800000Y-69825000D03*
X157800000Y-71575000D03*
X162200000Y-71575000D03*
X162200000Y-69825000D03*
%TD*%
D12*
%TO.C,D8*%
X104350000Y-91000000D03*
X107650000Y-91000000D03*
%TD*%
D13*
%TO.C,LED13*%
X121800000Y-52825000D03*
X121800000Y-54575000D03*
X126200000Y-54575000D03*
X126200000Y-52825000D03*
%TD*%
D15*
%TO.C,D22*%
X167227745Y-131598210D03*
X170328731Y-132726876D03*
%TD*%
D13*
%TO.C,LED11*%
X121800000Y-86825000D03*
X121800000Y-88575000D03*
X126200000Y-88575000D03*
X126200000Y-86825000D03*
%TD*%
%TO.C,LED6*%
X85800000Y-69825000D03*
X85800000Y-71575000D03*
X90200000Y-71575000D03*
X90200000Y-69825000D03*
%TD*%
D12*
%TO.C,D18*%
X158350000Y-74000000D03*
X161650000Y-74000000D03*
%TD*%
D15*
%TO.C,D21*%
X181499321Y-118701617D03*
X184600307Y-119830283D03*
%TD*%
D12*
%TO.C,D17*%
X158350000Y-91000000D03*
X161650000Y-91000000D03*
%TD*%
%TO.C,D1*%
X68350000Y-108000000D03*
X71650000Y-108000000D03*
%TD*%
D13*
%TO.C,LED3*%
X67800000Y-69825000D03*
X67800000Y-71575000D03*
X72200000Y-71575000D03*
X72200000Y-69825000D03*
%TD*%
%TO.C,LED14*%
X139800000Y-86825000D03*
X139800000Y-88575000D03*
X144200000Y-88575000D03*
X144200000Y-86825000D03*
%TD*%
D12*
%TO.C,D6*%
X86350000Y-74000000D03*
X89650000Y-74000000D03*
%TD*%
D13*
%TO.C,LED5*%
X85800000Y-86825000D03*
X85800000Y-88575000D03*
X90200000Y-88575000D03*
X90200000Y-86825000D03*
%TD*%
D12*
%TO.C,D7*%
X86350000Y-57000000D03*
X89650000Y-57000000D03*
%TD*%
D13*
%TO.C,LED15*%
X139800000Y-69825000D03*
X139800000Y-71575000D03*
X144200000Y-71575000D03*
X144200000Y-69825000D03*
%TD*%
D12*
%TO.C,D5*%
X86350000Y-91000000D03*
X89650000Y-91000000D03*
%TD*%
%TO.C,D2*%
X68350000Y-91000000D03*
X71650000Y-91000000D03*
%TD*%
D14*
%TO.C,LED20*%
X165495957Y-108433927D03*
X164897422Y-110078389D03*
X169032069Y-111583277D03*
X169630604Y-109938815D03*
%TD*%
D13*
%TO.C,LED1*%
X67800000Y-103825000D03*
X67800000Y-105575000D03*
X72200000Y-105575000D03*
X72200000Y-103825000D03*
%TD*%
%TO.C,LED10*%
X103800000Y-52825000D03*
X103800000Y-54575000D03*
X108200000Y-54575000D03*
X108200000Y-52825000D03*
%TD*%
%TO.C,LED12*%
X121800000Y-69825000D03*
X121800000Y-71575000D03*
X126200000Y-71575000D03*
X126200000Y-69825000D03*
%TD*%
M02*
