M48
; DRILL file {KiCad 8.0.8} date 2025-02-15T03:13:44-1000
; FORMAT={-:-/ absolute / inch / decimal}
; #@! TF.CreationDate,2025-02-15T03:13:44-10:00
; #@! TF.GenerationSoftware,Kicad,Pcbnew,8.0.8
; #@! TF.FileFunction,Plated,1,2,PTH
FMAT,2
INCH
; #@! TA.AperFunction,Plated,PTH,ViaDrill
T1C0.0157
; #@! TA.AperFunction,Plated,PTH,ComponentDrill
T2C0.0295
; #@! TA.AperFunction,Plated,PTH,ComponentDrill
T3C0.0390
; #@! TA.AperFunction,Plated,PTH,ComponentDrill
T4C0.0394
; #@! TA.AperFunction,Plated,PTH,ComponentDrill
T5C0.0430
%
G90
G05
T1
X2.5394Y-3.4872
X2.5787Y-2.1457
X2.5787Y-2.815
X2.5945Y-3.5157
X2.5945Y-4.0748
X2.5977Y-2.8495
X2.5994Y-2.1827
X2.8543Y-4.1998
X2.9171Y-2.1254
X2.9171Y-2.7947
X2.9171Y-3.464
X2.9171Y-4.1333
X2.9173Y-2.7531
X2.9173Y-3.4224
X2.9177Y-2.0857
X2.918Y-4.0938
X3.0315Y-4.1929
X3.2857Y-2.7734
X3.3012Y-3.4232
X3.3031Y-2.0866
X3.3031Y-2.1457
X3.3031Y-2.815
X3.3031Y-3.4843
X3.4646Y-3.5827
X3.4646Y-3.6811
X3.6257Y-2.1254
X3.6257Y-2.7947
X3.6257Y-3.464
X3.626Y-3.4224
X3.6264Y-2.0857
X3.6264Y-2.755
X3.9764Y-2.126
X3.9961Y-2.1624
X3.9961Y-2.7953
X4.0025Y-3.4345
X4.0118Y-2.8317
X4.0118Y-3.4843
X4.3344Y-2.1254
X4.3344Y-2.7947
X4.3344Y-3.464
X4.3346Y-2.7515
X4.335Y-3.4243
X4.3353Y-2.086
X4.7146Y-2.7579
X4.7146Y-3.4311
X4.7205Y-2.0863
X4.7205Y-2.1457
X4.7205Y-2.815
X4.7205Y-3.4843
X4.8622Y-1.811
X5.043Y-2.1254
X5.043Y-2.7947
X5.043Y-3.464
X5.0433Y-3.4224
X5.0437Y-2.755
X5.0437Y-2.0857
X5.4134Y-2.123
X5.4134Y-2.1624
X5.4134Y-2.7923
X5.4134Y-2.8317
X5.4134Y-3.501
X5.4315Y-3.4573
X5.6693Y-3.7205
X5.7517Y-2.1254
X5.7517Y-2.7947
X5.7517Y-3.464
X5.7523Y-3.4243
X5.7524Y-2.755
X5.7526Y-2.086
X5.7677Y-1.9882
X6.1284Y-2.096
X6.1285Y-2.7652
X6.1319Y-3.4311
X6.1378Y-2.1457
X6.1378Y-2.815
X6.1378Y-3.4843
X6.1417Y-1.8268
X6.3583Y-3.7598
X6.4212Y-4.3097
X6.437Y-4.252
X6.4604Y-2.1254
X6.4604Y-2.7947
X6.4604Y-3.464
X6.4606Y-2.0838
X6.461Y-3.4243
X6.461Y-2.755
X6.4764Y-3.7205
X6.5157Y-3.753
X6.5263Y-5.0568
X6.5312Y-2.1217
X6.5354Y-2.7559
X6.542Y-2.8609
X6.5477Y-4.9957
X6.5748Y-2.6772
X6.5945Y-2.9921
X6.6152Y-2.125
X6.6535Y-2.5591
X6.6821Y-2.5251
X6.7126Y-2.6772
X6.7126Y-3.0315
X6.7331Y-4.3897
X6.752Y-4.3504
X6.8022Y-2.9331
X6.811Y-2.9724
X6.8327Y-2.7923
X6.8366Y-5.1363
X6.8604Y-5.105
X7.0276Y-5.0984
X7.0866Y-4.5472
X7.1062Y-4.488
X7.3622Y-3.3071
X7.3981Y-4.6273
X7.4213Y-3.3071
X7.4272Y-4.6009
T2
X3.4646Y-3.8976
X3.4646Y-3.9764
T3
X2.6059Y-2.2441
X2.6059Y-2.9134
X2.6059Y-3.5827
X2.6059Y-4.252
X2.9059Y-2.2441
X2.9059Y-2.9134
X2.9059Y-3.5827
X2.9059Y-4.252
X3.3146Y-2.2441
X3.3146Y-2.9134
X3.3146Y-3.5827
X3.6146Y-2.2441
X3.6146Y-2.9134
X3.6146Y-3.5827
X4.0232Y-2.2441
X4.0232Y-2.9134
X4.0232Y-3.5827
X4.3232Y-2.2441
X4.3232Y-2.9134
X4.3232Y-3.5827
X4.7319Y-2.2441
X4.7319Y-2.9134
X4.7319Y-3.5827
X5.0319Y-2.2441
X5.0319Y-2.9134
X5.0319Y-3.5827
X5.4406Y-2.2441
X5.4406Y-2.9134
X5.4406Y-3.5827
X5.7406Y-2.2441
X5.7406Y-2.9134
X5.7406Y-3.5827
X6.1492Y-2.2441
X6.1492Y-2.9134
X6.1492Y-3.5827
X6.3998Y-4.4018
X6.4492Y-2.2441
X6.4492Y-2.9134
X6.4492Y-3.5827
X6.5039Y-5.1519
X6.6817Y-4.5044
X6.7858Y-5.2546
X7.0657Y-4.6442
X7.3476Y-4.7468
T4
X6.8787Y-2.9321
X6.9787Y-2.9321
X7.0787Y-2.9321
X7.1787Y-2.9321
X7.2787Y-2.9321
T5
X6.7787Y-1.7138
X6.7787Y-1.8138
X6.7787Y-1.9138
X6.7787Y-2.0138
X6.7787Y-2.1138
X6.7787Y-2.2138
X6.7787Y-2.3138
X6.7787Y-2.4138
X6.7787Y-2.5138
X6.7787Y-2.6138
X6.7787Y-2.7138
X6.7787Y-2.8138
X6.8787Y-2.6138
X6.9787Y-2.6138
X7.0787Y-2.6138
X7.3787Y-1.7138
X7.3787Y-1.8138
X7.3787Y-1.9138
X7.3787Y-2.0138
X7.3787Y-2.1138
X7.3787Y-2.2138
X7.3787Y-2.3138
X7.3787Y-2.4138
X7.3787Y-2.5138
X7.3787Y-2.6138
X7.3787Y-2.7138
X7.3787Y-2.8138
M30
