0
SECTION
2
HEADER
9
$INSUNITS
70
4
0
ENDSEC
0
SECTION
2
TABLES
0
TABLE
2
LTYPE
0
LTYPE
72
65
70
64
2
CONTINUOUS
3
______
73
0
40
0
0
ENDTAB
0
TABLE
2
LAYER
0
ENDTAB
0
ENDSEC
0
SECTION
2
ENTITIES
0
LINE
8
0
10
91.25
20
-108.25
11
108.75
21
-108.25
0
LINE
8
0
10
108.75
20
-108.25
11
108.75
21
-91.75
0
LINE
8
0
10
108.75
20
-91.75
11
91.25
21
-91.75
0
LINE
8
0
10
91.25
20
-91.75
11
91.25
21
-108.25
0
LINE
8
0
10
91.25
20
-91.25
11
108.75
21
-91.25
0
LINE
8
0
10
108.75
20
-91.25
11
108.75
21
-74.75
0
LINE
8
0
10
108.75
20
-74.75
11
91.25
21
-74.75
0
LINE
8
0
10
91.25
20
-74.75
11
91.25
21
-91.25
0
LINE
8
0
10
91.25
20
-74.25
11
108.75
21
-74.25
0
LINE
8
0
10
108.75
20
-74.25
11
108.75
21
-57.75
0
LINE
8
0
10
108.75
20
-57.75
11
91.25
21
-57.75
0
LINE
8
0
10
91.25
20
-57.75
11
91.25
21
-74.25
0
LINE
8
0
10
91.25
20
-57.25
11
108.75
21
-57.25
0
LINE
8
0
10
108.75
20
-57.25
11
108.75
21
-40.75
0
LINE
8
0
10
108.75
20
-40.75
11
91.25
21
-40.75
0
LINE
8
0
10
91.25
20
-40.75
11
91.25
21
-57.25
0
LINE
8
0
10
109.25
20
-91.25
11
126.75
21
-91.25
0
LINE
8
0
10
126.75
20
-91.25
11
126.75
21
-74.75
0
LINE
8
0
10
126.75
20
-74.75
11
109.25
21
-74.75
0
LINE
8
0
10
109.25
20
-74.75
11
109.25
21
-91.25
0
LINE
8
0
10
109.25
20
-74.25
11
126.75
21
-74.25
0
LINE
8
0
10
126.75
20
-74.25
11
126.75
21
-57.75
0
LINE
8
0
10
126.75
20
-57.75
11
109.25
21
-57.75
0
LINE
8
0
10
109.25
20
-57.75
11
109.25
21
-74.25
0
LINE
8
0
10
109.25
20
-57.25
11
126.75
21
-57.25
0
LINE
8
0
10
126.75
20
-57.25
11
126.75
21
-40.75
0
LINE
8
0
10
126.75
20
-40.75
11
109.25
21
-40.75
0
LINE
8
0
10
109.25
20
-40.75
11
109.25
21
-57.25
0
LINE
8
0
10
127.25
20
-91.25
11
144.75
21
-91.25
0
LINE
8
0
10
144.75
20
-91.25
11
144.75
21
-74.75
0
LINE
8
0
10
144.75
20
-74.75
11
127.25
21
-74.75
0
LINE
8
0
10
127.25
20
-74.75
11
127.25
21
-91.25
0
LINE
8
0
10
127.25
20
-74.25
11
144.75
21
-74.25
0
LINE
8
0
10
144.75
20
-74.25
11
144.75
21
-57.75
0
LINE
8
0
10
144.75
20
-57.75
11
127.25
21
-57.75
0
LINE
8
0
10
127.25
20
-57.75
11
127.25
21
-74.25
0
LINE
8
0
10
127.25
20
-57.25
11
144.75
21
-57.25
0
LINE
8
0
10
144.75
20
-57.25
11
144.75
21
-40.75
0
LINE
8
0
10
144.75
20
-40.75
11
127.25
21
-40.75
0
LINE
8
0
10
127.25
20
-40.75
11
127.25
21
-57.25
0
LINE
8
0
10
145.25
20
-91.25
11
162.75
21
-91.25
0
LINE
8
0
10
162.75
20
-91.25
11
162.75
21
-74.75
0
LINE
8
0
10
162.75
20
-74.75
11
145.25
21
-74.75
0
LINE
8
0
10
145.25
20
-74.75
11
145.25
21
-91.25
0
LINE
8
0
10
145.25
20
-74.25
11
162.75
21
-74.25
0
LINE
8
0
10
162.75
20
-74.25
11
162.75
21
-57.75
0
LINE
8
0
10
162.75
20
-57.75
11
145.25
21
-57.75
0
LINE
8
0
10
145.25
20
-57.75
11
145.25
21
-74.25
0
LINE
8
0
10
145.25
20
-57.25
11
162.75
21
-57.25
0
LINE
8
0
10
162.75
20
-57.25
11
162.75
21
-40.75
0
LINE
8
0
10
162.75
20
-40.75
11
145.25
21
-40.75
0
LINE
8
0
10
145.25
20
-40.75
11
145.25
21
-57.25
0
LINE
8
0
10
163.25
20
-91.25
11
180.75
21
-91.25
0
LINE
8
0
10
180.75
20
-91.25
11
180.75
21
-74.75
0
LINE
8
0
10
180.75
20
-74.75
11
163.25
21
-74.75
0
LINE
8
0
10
163.25
20
-74.75
11
163.25
21
-91.25
0
LINE
8
0
10
163.25
20
-74.25
11
180.75
21
-74.25
0
LINE
8
0
10
180.75
20
-74.25
11
180.75
21
-57.75
0
LINE
8
0
10
180.75
20
-57.75
11
163.25
21
-57.75
0
LINE
8
0
10
163.25
20
-57.75
11
163.25
21
-74.25
0
LINE
8
0
10
163.25
20
-57.25
11
180.75
21
-57.25
0
LINE
8
0
10
180.75
20
-57.25
11
180.75
21
-40.75
0
LINE
8
0
10
180.75
20
-40.75
11
163.25
21
-40.75
0
LINE
8
0
10
163.25
20
-40.75
11
163.25
21
-57.25
0
LINE
8
0
10
181.25
20
-91.25
11
198.75
21
-91.25
0
LINE
8
0
10
198.75
20
-91.25
11
198.75
21
-74.75
0
LINE
8
0
10
198.75
20
-74.75
11
181.25
21
-74.75
0
LINE
8
0
10
181.25
20
-74.75
11
181.25
21
-91.25
0
LINE
8
0
10
181.25
20
-74.25
11
198.75
21
-74.25
0
LINE
8
0
10
198.75
20
-74.25
11
198.75
21
-57.75
0
LINE
8
0
10
198.75
20
-57.75
11
181.25
21
-57.75
0
LINE
8
0
10
181.25
20
-57.75
11
181.25
21
-74.25
0
LINE
8
0
10
181.25
20
-57.25
11
198.75
21
-57.25
0
LINE
8
0
10
198.75
20
-57.25
11
198.75
21
-40.75
0
LINE
8
0
10
198.75
20
-40.75
11
181.25
21
-40.75
0
LINE
8
0
10
181.25
20
-40.75
11
181.25
21
-57.25
0
LINE
8
0
10
187.8275313
20
-110.3518344
11
204.2721521
21
-116.3371869
0
LINE
8
0
10
204.2721521
20
-116.3371869
11
209.9154845
21
-100.8322586
0
LINE
8
0
10
209.9154845
20
-100.8322586
11
193.4708637
21
-94.8469061
0
LINE
8
0
10
193.4708637
20
-94.8469061
11
187.8275313
21
-110.3518344
0
LINE
8
0
10
204.7419985
20
-116.508197
11
221.1866193
21
-122.4935495
0
LINE
8
0
10
221.1866193
20
-122.4935495
11
226.8299517
21
-106.9886212
0
LINE
8
0
10
226.8299517
20
-106.9886212
11
210.3853309
21
-101.0032687
0
LINE
8
0
10
210.3853309
20
-101.0032687
11
204.7419985
21
-116.508197
0
LINE
8
0
10
190.4704225
20
-129.4047902
11
206.9150433
21
-135.3901427
0
LINE
8
0
10
206.9150433
20
-135.3901427
11
212.5583757
21
-119.8852144
0
LINE
8
0
10
212.5583757
20
-119.8852144
11
196.1137549
21
-113.8998619
0
LINE
8
0
10
196.1137549
20
-113.8998619
11
190.4704225
21
-129.4047902
0
ENDSEC
0
EOF