0
SECTION
2
HEADER
9
$INSUNITS
70
4
0
ENDSEC
0
SECTION
2
TABLES
0
TABLE
2
LTYPE
0
LTYPE
72
65
70
64
2
CONTINUOUS
3
______
73
0
40
0
0
ENDTAB
0
TABLE
2
LAYER
0
ENDTAB
0
ENDSEC
0
SECTION
2
ENTITIES
0
LINE
8
0
10
60
20
-107.9282443
11
60
21
-41.5
0
LINE
8
0
10
62
20
-39.5
11
188
21
-39.5
0
LINE
8
0
10
190
20
-41.5
11
190
21
-91.935298
0
LINE
8
0
10
190.2953429
20
-92.9813115
11
197.9449617
21
-105.4476678
0
LINE
8
0
10
198.137959
20
-107.1252728
11
187.6405009
21
-138.6655119
0
LINE
8
0
10
185.2700535
20
-139.9772336
11
61.527207
21
-109.8715576
0
ARC
8
0
10
62
20
-41.5
40
2
50
90
51
180
0
ARC
8
0
10
188
20
-41.5
40
2
50
0
51
90
0
ARC
8
0
10
192
20
-91.935298
40
2
50
180
51
211.5341541
0
ARC
8
0
10
196.2403046
20
-106.4936813
40
2
50
341.5911382
51
31.5341541
0
ARC
8
0
10
185.7428465
20
-138.0339203
40
2
50
256.3260444
51
341.5911382
0
ARC
8
0
10
62
20
-107.9282443
40
2
50
180
51
256.3260444
0
LINE
8
0
10
61.25
20
-108.25
11
78.75
21
-108.25
0
LINE
8
0
10
78.75
20
-108.25
11
78.75
21
-91.75
0
LINE
8
0
10
78.75
20
-91.75
11
61.25
21
-91.75
0
LINE
8
0
10
61.25
20
-91.75
11
61.25
21
-108.25
0
LINE
8
0
10
61.25
20
-91.25
11
78.75
21
-91.25
0
LINE
8
0
10
78.75
20
-91.25
11
78.75
21
-74.75
0
LINE
8
0
10
78.75
20
-74.75
11
61.25
21
-74.75
0
LINE
8
0
10
61.25
20
-74.75
11
61.25
21
-91.25
0
LINE
8
0
10
61.25
20
-74.25
11
78.75
21
-74.25
0
LINE
8
0
10
78.75
20
-74.25
11
78.75
21
-57.75
0
LINE
8
0
10
78.75
20
-57.75
11
61.25
21
-57.75
0
LINE
8
0
10
61.25
20
-57.75
11
61.25
21
-74.25
0
LINE
8
0
10
61.25
20
-57.25
11
78.75
21
-57.25
0
LINE
8
0
10
78.75
20
-57.25
11
78.75
21
-40.75
0
LINE
8
0
10
78.75
20
-40.75
11
61.25
21
-40.75
0
LINE
8
0
10
61.25
20
-40.75
11
61.25
21
-57.25
0
LINE
8
0
10
79.25
20
-91.25
11
96.75
21
-91.25
0
LINE
8
0
10
96.75
20
-91.25
11
96.75
21
-74.75
0
LINE
8
0
10
96.75
20
-74.75
11
79.25
21
-74.75
0
LINE
8
0
10
79.25
20
-74.75
11
79.25
21
-91.25
0
LINE
8
0
10
79.25
20
-74.25
11
96.75
21
-74.25
0
LINE
8
0
10
96.75
20
-74.25
11
96.75
21
-57.75
0
LINE
8
0
10
96.75
20
-57.75
11
79.25
21
-57.75
0
LINE
8
0
10
79.25
20
-57.75
11
79.25
21
-74.25
0
LINE
8
0
10
79.25
20
-57.25
11
96.75
21
-57.25
0
LINE
8
0
10
96.75
20
-57.25
11
96.75
21
-40.75
0
LINE
8
0
10
96.75
20
-40.75
11
79.25
21
-40.75
0
LINE
8
0
10
79.25
20
-40.75
11
79.25
21
-57.25
0
LINE
8
0
10
97.25
20
-91.25
11
114.75
21
-91.25
0
LINE
8
0
10
114.75
20
-91.25
11
114.75
21
-74.75
0
LINE
8
0
10
114.75
20
-74.75
11
97.25
21
-74.75
0
LINE
8
0
10
97.25
20
-74.75
11
97.25
21
-91.25
0
LINE
8
0
10
97.25
20
-74.25
11
114.75
21
-74.25
0
LINE
8
0
10
114.75
20
-74.25
11
114.75
21
-57.75
0
LINE
8
0
10
114.75
20
-57.75
11
97.25
21
-57.75
0
LINE
8
0
10
97.25
20
-57.75
11
97.25
21
-74.25
0
LINE
8
0
10
97.25
20
-57.25
11
114.75
21
-57.25
0
LINE
8
0
10
114.75
20
-57.25
11
114.75
21
-40.75
0
LINE
8
0
10
114.75
20
-40.75
11
97.25
21
-40.75
0
LINE
8
0
10
97.25
20
-40.75
11
97.25
21
-57.25
0
LINE
8
0
10
115.25
20
-91.25
11
132.75
21
-91.25
0
LINE
8
0
10
132.75
20
-91.25
11
132.75
21
-74.75
0
LINE
8
0
10
132.75
20
-74.75
11
115.25
21
-74.75
0
LINE
8
0
10
115.25
20
-74.75
11
115.25
21
-91.25
0
LINE
8
0
10
115.25
20
-74.25
11
132.75
21
-74.25
0
LINE
8
0
10
132.75
20
-74.25
11
132.75
21
-57.75
0
LINE
8
0
10
132.75
20
-57.75
11
115.25
21
-57.75
0
LINE
8
0
10
115.25
20
-57.75
11
115.25
21
-74.25
0
LINE
8
0
10
115.25
20
-57.25
11
132.75
21
-57.25
0
LINE
8
0
10
132.75
20
-57.25
11
132.75
21
-40.75
0
LINE
8
0
10
132.75
20
-40.75
11
115.25
21
-40.75
0
LINE
8
0
10
115.25
20
-40.75
11
115.25
21
-57.25
0
LINE
8
0
10
133.25
20
-91.25
11
150.75
21
-91.25
0
LINE
8
0
10
150.75
20
-91.25
11
150.75
21
-74.75
0
LINE
8
0
10
150.75
20
-74.75
11
133.25
21
-74.75
0
LINE
8
0
10
133.25
20
-74.75
11
133.25
21
-91.25
0
LINE
8
0
10
133.25
20
-74.25
11
150.75
21
-74.25
0
LINE
8
0
10
150.75
20
-74.25
11
150.75
21
-57.75
0
LINE
8
0
10
150.75
20
-57.75
11
133.25
21
-57.75
0
LINE
8
0
10
133.25
20
-57.75
11
133.25
21
-74.25
0
LINE
8
0
10
133.25
20
-57.25
11
150.75
21
-57.25
0
LINE
8
0
10
150.75
20
-57.25
11
150.75
21
-40.75
0
LINE
8
0
10
150.75
20
-40.75
11
133.25
21
-40.75
0
LINE
8
0
10
133.25
20
-40.75
11
133.25
21
-57.25
0
LINE
8
0
10
151.25
20
-91.25
11
168.75
21
-91.25
0
LINE
8
0
10
168.75
20
-91.25
11
168.75
21
-74.75
0
LINE
8
0
10
168.75
20
-74.75
11
151.25
21
-74.75
0
LINE
8
0
10
151.25
20
-74.75
11
151.25
21
-91.25
0
LINE
8
0
10
151.25
20
-74.25
11
168.75
21
-74.25
0
LINE
8
0
10
168.75
20
-74.25
11
168.75
21
-57.75
0
LINE
8
0
10
168.75
20
-57.75
11
151.25
21
-57.75
0
LINE
8
0
10
151.25
20
-57.75
11
151.25
21
-74.25
0
LINE
8
0
10
151.25
20
-57.25
11
168.75
21
-57.25
0
LINE
8
0
10
168.75
20
-57.25
11
168.75
21
-40.75
0
LINE
8
0
10
168.75
20
-40.75
11
151.25
21
-40.75
0
LINE
8
0
10
151.25
20
-40.75
11
151.25
21
-57.25
0
LINE
8
0
10
157.8275313
20
-110.3518344
11
174.2721521
21
-116.3371869
0
LINE
8
0
10
174.2721521
20
-116.3371869
11
179.9154845
21
-100.8322586
0
LINE
8
0
10
179.9154845
20
-100.8322586
11
163.4708637
21
-94.8469061
0
LINE
8
0
10
163.4708637
20
-94.8469061
11
157.8275313
21
-110.3518344
0
LINE
8
0
10
174.7419985
20
-116.508197
11
191.1866193
21
-122.4935495
0
LINE
8
0
10
191.1866193
20
-122.4935495
11
196.8299517
21
-106.9886212
0
LINE
8
0
10
196.8299517
20
-106.9886212
11
180.3853309
21
-101.0032687
0
LINE
8
0
10
180.3853309
20
-101.0032687
11
174.7419985
21
-116.508197
0
LINE
8
0
10
160.4704225
20
-129.4047902
11
176.9150433
21
-135.3901427
0
LINE
8
0
10
176.9150433
20
-135.3901427
11
182.5583757
21
-119.8852144
0
LINE
8
0
10
182.5583757
20
-119.8852144
11
166.1137549
21
-113.8998619
0
LINE
8
0
10
166.1137549
20
-113.8998619
11
160.4704225
21
-129.4047902
0
ENDSEC
0
EOF