0
SECTION
2
HEADER
9
$INSUNITS
70
4
0
ENDSEC
0
SECTION
2
TABLES
0
TABLE
2
LTYPE
0
LTYPE
72
65
70
64
2
CONTINUOUS
3
______
73
0
40
0
0
ENDTAB
0
TABLE
2
LAYER
0
ENDTAB
0
ENDSEC
0
SECTION
2
ENTITIES
0
LINE
8
0
10
59
20
-108.9283199
11
59
21
-40.5
0
LINE
8
0
10
61
20
-38.5
11
169.75
21
-38.5
0
LINE
8
0
10
193
20
-83.4
11
193
21
-92.9839512
0
LINE
8
0
10
193.2496833
20
-93.9516244
11
199.3038148
21
-104.9022716
0
LINE
8
0
10
199.466238
20
-106.4542614
11
189.1479188
21
-140.230923
0
LINE
8
0
10
186.7622951
20
-141.5898976
11
60.5271162
21
-110.8716111
0
ARC
8
0
10
61
20
-40.5
40
2
50
90
51
180
0
ARC
8
0
10
195
20
-92.9839512
40
2
50
180
51
208.9362764
0
ARC
8
0
10
197.5534981
20
-105.8699448
40
2
50
343.0127859
51
28.9362764
0
ARC
8
0
10
187.2351789
20
-139.6466064
40
2
50
256.3233665
51
343.0127859
0
ARC
8
0
10
61
20
-108.9283199
40
2
50
180
51
256.3233665
0
LINE
8
0
10
63
20
-107
11
77
21
-107
0
LINE
8
0
10
77
20
-107
11
77
21
-93
0
LINE
8
0
10
77
20
-93
11
63
21
-93
0
LINE
8
0
10
63
20
-93
11
63
21
-107
0
LINE
8
0
10
63
20
-90
11
77
21
-90
0
LINE
8
0
10
77
20
-90
11
77
21
-76
0
LINE
8
0
10
77
20
-76
11
63
21
-76
0
LINE
8
0
10
63
20
-76
11
63
21
-90
0
LINE
8
0
10
63
20
-73
11
77
21
-73
0
LINE
8
0
10
77
20
-73
11
77
21
-59
0
LINE
8
0
10
77
20
-59
11
63
21
-59
0
LINE
8
0
10
63
20
-59
11
63
21
-73
0
LINE
8
0
10
63
20
-56
11
77
21
-56
0
LINE
8
0
10
77
20
-56
11
77
21
-42
0
LINE
8
0
10
77
20
-42
11
63
21
-42
0
LINE
8
0
10
63
20
-42
11
63
21
-56
0
LINE
8
0
10
81
20
-90
11
95
21
-90
0
LINE
8
0
10
95
20
-90
11
95
21
-76
0
LINE
8
0
10
95
20
-76
11
81
21
-76
0
LINE
8
0
10
81
20
-76
11
81
21
-90
0
LINE
8
0
10
81
20
-73
11
95
21
-73
0
LINE
8
0
10
95
20
-73
11
95
21
-59
0
LINE
8
0
10
95
20
-59
11
81
21
-59
0
LINE
8
0
10
81
20
-59
11
81
21
-73
0
LINE
8
0
10
81
20
-56
11
95
21
-56
0
LINE
8
0
10
95
20
-56
11
95
21
-42
0
LINE
8
0
10
95
20
-42
11
81
21
-42
0
LINE
8
0
10
81
20
-42
11
81
21
-56
0
LINE
8
0
10
99
20
-90
11
113
21
-90
0
LINE
8
0
10
113
20
-90
11
113
21
-76
0
LINE
8
0
10
113
20
-76
11
99
21
-76
0
LINE
8
0
10
99
20
-76
11
99
21
-90
0
LINE
8
0
10
99
20
-73
11
113
21
-73
0
LINE
8
0
10
113
20
-73
11
113
21
-59
0
LINE
8
0
10
113
20
-59
11
99
21
-59
0
LINE
8
0
10
99
20
-59
11
99
21
-73
0
LINE
8
0
10
99
20
-56
11
113
21
-56
0
LINE
8
0
10
113
20
-56
11
113
21
-42
0
LINE
8
0
10
113
20
-42
11
99
21
-42
0
LINE
8
0
10
99
20
-42
11
99
21
-56
0
LINE
8
0
10
117
20
-90
11
131
21
-90
0
LINE
8
0
10
131
20
-90
11
131
21
-76
0
LINE
8
0
10
131
20
-76
11
117
21
-76
0
LINE
8
0
10
117
20
-76
11
117
21
-90
0
LINE
8
0
10
117
20
-73
11
131
21
-73
0
LINE
8
0
10
131
20
-73
11
131
21
-59
0
LINE
8
0
10
131
20
-59
11
117
21
-59
0
LINE
8
0
10
117
20
-59
11
117
21
-73
0
LINE
8
0
10
117
20
-56
11
131
21
-56
0
LINE
8
0
10
131
20
-56
11
131
21
-42
0
LINE
8
0
10
131
20
-42
11
117
21
-42
0
LINE
8
0
10
117
20
-42
11
117
21
-56
0
LINE
8
0
10
135
20
-90
11
149
21
-90
0
LINE
8
0
10
149
20
-90
11
149
21
-76
0
LINE
8
0
10
149
20
-76
11
135
21
-76
0
LINE
8
0
10
135
20
-76
11
135
21
-90
0
LINE
8
0
10
135
20
-73
11
149
21
-73
0
LINE
8
0
10
149
20
-73
11
149
21
-59
0
LINE
8
0
10
149
20
-59
11
135
21
-59
0
LINE
8
0
10
135
20
-59
11
135
21
-73
0
LINE
8
0
10
135
20
-56
11
149
21
-56
0
LINE
8
0
10
149
20
-56
11
149
21
-42
0
LINE
8
0
10
149
20
-42
11
135
21
-42
0
LINE
8
0
10
135
20
-42
11
135
21
-56
0
LINE
8
0
10
153
20
-90
11
167
21
-90
0
LINE
8
0
10
167
20
-90
11
167
21
-76
0
LINE
8
0
10
167
20
-76
11
153
21
-76
0
LINE
8
0
10
153
20
-76
11
153
21
-90
0
LINE
8
0
10
153
20
-73
11
167
21
-73
0
LINE
8
0
10
167
20
-73
11
167
21
-59
0
LINE
8
0
10
167
20
-59
11
153
21
-59
0
LINE
8
0
10
153
20
-59
11
153
21
-73
0
LINE
8
0
10
153
20
-56
11
167
21
-56
0
LINE
8
0
10
167
20
-56
11
167
21
-42
0
LINE
8
0
10
167
20
-42
11
153
21
-42
0
LINE
8
0
10
153
20
-42
11
153
21
-56
0
LINE
8
0
10
159.8995186
20
-109.7757538
11
173.0552152
21
-114.5640358
0
LINE
8
0
10
173.0552152
20
-114.5640358
11
177.8434972
21
-101.4083392
0
LINE
8
0
10
177.8434972
20
-101.4083392
11
164.6878006
21
-96.6200572
0
LINE
8
0
10
164.6878006
20
-96.6200572
11
159.8995186
21
-109.7757538
0
LINE
8
0
10
176.8139858
20
-115.9321164
11
189.9696824
21
-120.7203984
0
LINE
8
0
10
189.9696824
20
-120.7203984
11
194.7579644
21
-107.5647018
0
LINE
8
0
10
194.7579644
20
-107.5647018
11
181.6022678
21
-102.7764198
0
LINE
8
0
10
181.6022678
20
-102.7764198
11
176.8139858
21
-115.9321164
0
LINE
8
0
10
162.5424098
20
-128.8287096
11
175.6981064
21
-133.6169916
0
LINE
8
0
10
175.6981064
20
-133.6169916
11
180.4863884
21
-120.461295
0
LINE
8
0
10
180.4863884
20
-120.461295
11
167.3306918
21
-115.673013
0
LINE
8
0
10
167.3306918
20
-115.673013
11
162.5424098
21
-128.8287096
0
LINE
8
0
10
169.75
20
-38.5
11
169.75
21
-83.4
0
LINE
8
0
10
169.75
20
-83.4
11
193
21
-83.4
0
ENDSEC
0
EOF