0
SECTION
2
HEADER
9
$INSUNITS
70
4
0
ENDSEC
0
SECTION
2
TABLES
0
TABLE
2
LTYPE
0
LTYPE
72
65
70
64
2
CONTINUOUS
3
______
73
0
40
0
0
ENDTAB
0
TABLE
2
LAYER
0
ENDTAB
0
ENDSEC
0
SECTION
2
ENTITIES
0
LINE
8
0
10
421
20
-108.9283199
11
421
21
-40.5
0
LINE
8
0
10
419
20
-38.5
11
310.25
21
-38.5
0
LINE
8
0
10
287
20
-83.4
11
287
21
-92.9839512
0
LINE
8
0
10
286.7503167
20
-93.9516244
11
280.6961852
21
-104.9022716
0
LINE
8
0
10
280.533762
20
-106.4542614
11
290.8520812
21
-140.230923
0
LINE
8
0
10
293.2377049
20
-141.5898976
11
419.4728838
21
-110.8716111
0
ARC
8
0
10
419
20
-40.5
40
2
50
0
51
90
0
ARC
8
0
10
285
20
-92.9839512
40
2
50
331.0637236
51
0
0
ARC
8
0
10
282.4465019
20
-105.8699448
40
2
50
151.0637236
51
196.9872141
0
ARC
8
0
10
292.7648211
20
-139.6466064
40
2
50
196.9872141
51
283.6766335
0
ARC
8
0
10
419
20
-108.9283199
40
2
50
283.6766335
51
0
0
LINE
8
0
10
403
20
-107
11
417
21
-107
0
LINE
8
0
10
417
20
-107
11
417
21
-93
0
LINE
8
0
10
417
20
-93
11
403
21
-93
0
LINE
8
0
10
403
20
-93
11
403
21
-107
0
LINE
8
0
10
403
20
-90
11
417
21
-90
0
LINE
8
0
10
417
20
-90
11
417
21
-76
0
LINE
8
0
10
417
20
-76
11
403
21
-76
0
LINE
8
0
10
403
20
-76
11
403
21
-90
0
LINE
8
0
10
403
20
-73
11
417
21
-73
0
LINE
8
0
10
417
20
-73
11
417
21
-59
0
LINE
8
0
10
417
20
-59
11
403
21
-59
0
LINE
8
0
10
403
20
-59
11
403
21
-73
0
LINE
8
0
10
403
20
-56
11
417
21
-56
0
LINE
8
0
10
417
20
-56
11
417
21
-42
0
LINE
8
0
10
417
20
-42
11
403
21
-42
0
LINE
8
0
10
403
20
-42
11
403
21
-56
0
LINE
8
0
10
385
20
-90
11
399
21
-90
0
LINE
8
0
10
399
20
-90
11
399
21
-76
0
LINE
8
0
10
399
20
-76
11
385
21
-76
0
LINE
8
0
10
385
20
-76
11
385
21
-90
0
LINE
8
0
10
385
20
-73
11
399
21
-73
0
LINE
8
0
10
399
20
-73
11
399
21
-59
0
LINE
8
0
10
399
20
-59
11
385
21
-59
0
LINE
8
0
10
385
20
-59
11
385
21
-73
0
LINE
8
0
10
385
20
-56
11
399
21
-56
0
LINE
8
0
10
399
20
-56
11
399
21
-42
0
LINE
8
0
10
399
20
-42
11
385
21
-42
0
LINE
8
0
10
385
20
-42
11
385
21
-56
0
LINE
8
0
10
367
20
-90
11
381
21
-90
0
LINE
8
0
10
381
20
-90
11
381
21
-76
0
LINE
8
0
10
381
20
-76
11
367
21
-76
0
LINE
8
0
10
367
20
-76
11
367
21
-90
0
LINE
8
0
10
367
20
-73
11
381
21
-73
0
LINE
8
0
10
381
20
-73
11
381
21
-59
0
LINE
8
0
10
381
20
-59
11
367
21
-59
0
LINE
8
0
10
367
20
-59
11
367
21
-73
0
LINE
8
0
10
367
20
-56
11
381
21
-56
0
LINE
8
0
10
381
20
-56
11
381
21
-42
0
LINE
8
0
10
381
20
-42
11
367
21
-42
0
LINE
8
0
10
367
20
-42
11
367
21
-56
0
LINE
8
0
10
349
20
-90
11
363
21
-90
0
LINE
8
0
10
363
20
-90
11
363
21
-76
0
LINE
8
0
10
363
20
-76
11
349
21
-76
0
LINE
8
0
10
349
20
-76
11
349
21
-90
0
LINE
8
0
10
349
20
-73
11
363
21
-73
0
LINE
8
0
10
363
20
-73
11
363
21
-59
0
LINE
8
0
10
363
20
-59
11
349
21
-59
0
LINE
8
0
10
349
20
-59
11
349
21
-73
0
LINE
8
0
10
349
20
-56
11
363
21
-56
0
LINE
8
0
10
363
20
-56
11
363
21
-42
0
LINE
8
0
10
363
20
-42
11
349
21
-42
0
LINE
8
0
10
349
20
-42
11
349
21
-56
0
LINE
8
0
10
331
20
-90
11
345
21
-90
0
LINE
8
0
10
345
20
-90
11
345
21
-76
0
LINE
8
0
10
345
20
-76
11
331
21
-76
0
LINE
8
0
10
331
20
-76
11
331
21
-90
0
LINE
8
0
10
331
20
-73
11
345
21
-73
0
LINE
8
0
10
345
20
-73
11
345
21
-59
0
LINE
8
0
10
345
20
-59
11
331
21
-59
0
LINE
8
0
10
331
20
-59
11
331
21
-73
0
LINE
8
0
10
331
20
-56
11
345
21
-56
0
LINE
8
0
10
345
20
-56
11
345
21
-42
0
LINE
8
0
10
345
20
-42
11
331
21
-42
0
LINE
8
0
10
331
20
-42
11
331
21
-56
0
LINE
8
0
10
313
20
-90
11
327
21
-90
0
LINE
8
0
10
327
20
-90
11
327
21
-76
0
LINE
8
0
10
327
20
-76
11
313
21
-76
0
LINE
8
0
10
313
20
-76
11
313
21
-90
0
LINE
8
0
10
313
20
-73
11
327
21
-73
0
LINE
8
0
10
327
20
-73
11
327
21
-59
0
LINE
8
0
10
327
20
-59
11
313
21
-59
0
LINE
8
0
10
313
20
-59
11
313
21
-73
0
LINE
8
0
10
313
20
-56
11
327
21
-56
0
LINE
8
0
10
327
20
-56
11
327
21
-42
0
LINE
8
0
10
327
20
-42
11
313
21
-42
0
LINE
8
0
10
313
20
-42
11
313
21
-56
0
LINE
8
0
10
306.9447848
20
-114.5640358
11
320.1004814
21
-109.7757538
0
LINE
8
0
10
320.1004814
20
-109.7757538
11
315.3121994
21
-96.6200572
0
LINE
8
0
10
315.3121994
20
-96.6200572
11
302.1565028
21
-101.4083392
0
LINE
8
0
10
302.1565028
20
-101.4083392
11
306.9447848
21
-114.5640358
0
LINE
8
0
10
290.0303176
20
-120.7203984
11
303.1860142
21
-115.9321164
0
LINE
8
0
10
303.1860142
20
-115.9321164
11
298.3977322
21
-102.7764198
0
LINE
8
0
10
298.3977322
20
-102.7764198
11
285.2420356
21
-107.5647018
0
LINE
8
0
10
285.2420356
20
-107.5647018
11
290.0303176
21
-120.7203984
0
LINE
8
0
10
304.3018936
20
-133.6169916
11
317.4575902
21
-128.8287096
0
LINE
8
0
10
317.4575902
20
-128.8287096
11
312.6693082
21
-115.673013
0
LINE
8
0
10
312.6693082
20
-115.673013
11
299.5136116
21
-120.461295
0
LINE
8
0
10
299.5136116
20
-120.461295
11
304.3018936
21
-133.6169916
0
LINE
8
0
10
310.25
20
-83.4
11
310.25
21
-38.5
0
LINE
8
0
10
287
20
-83.4
11
310.25
21
-83.4
0
ENDSEC
0
EOF