M48
; DRILL file {KiCad 8.0.8} date 2025-02-15T03:14:26-1000
; FORMAT={-:-/ absolute / inch / decimal}
; #@! TF.CreationDate,2025-02-15T03:14:26-10:00
; #@! TF.GenerationSoftware,Kicad,Pcbnew,8.0.8
; #@! TF.FileFunction,NonPlated,1,2,NPTH
FMAT,2
INCH
; #@! TA.AperFunction,NonPlated,NPTH,ComponentDrill
T1C0.0295
; #@! TA.AperFunction,NonPlated,NPTH,ComponentDrill
T2C0.0354
; #@! TA.AperFunction,NonPlated,NPTH,ComponentDrill
T3C0.0670
; #@! TA.AperFunction,NonPlated,NPTH,ComponentDrill
T4C0.1181
; #@! TA.AperFunction,NonPlated,NPTH,ComponentDrill
T5C0.1350
; #@! TA.AperFunction,NonPlated,NPTH,ComponentDrill
T6C0.1575
%
G90
G05
T1
X8.8829Y-3.8189
X8.9911Y-3.8189
T2
X8.7894Y-4.2441
X8.8484Y-4.1418
T3
X8.8207Y-4.8004
X9.2277Y-4.6523
X9.3826Y-5.3081
X9.4866Y-4.558
X9.7895Y-5.16
X9.8228Y-2.2559
X9.8228Y-2.9252
X9.8228Y-3.5945
X9.8936Y-4.4099
X10.2559Y-2.2559
X10.2559Y-2.9252
X10.2559Y-3.5945
X10.5315Y-2.2559
X10.5315Y-2.9252
X10.5315Y-3.5945
X10.9646Y-2.2559
X10.9646Y-2.9252
X10.9646Y-3.5945
X11.2402Y-2.2559
X11.2402Y-2.9252
X11.2402Y-3.5945
X11.6732Y-2.2559
X11.6732Y-2.9252
X11.6732Y-3.5945
X11.9488Y-2.2559
X11.9488Y-2.9252
X11.9488Y-3.5945
X12.3819Y-2.2559
X12.3819Y-2.9252
X12.3819Y-3.5945
X12.6575Y-2.2559
X12.6575Y-2.9252
X12.6575Y-3.5945
X13.0906Y-2.2559
X13.0906Y-2.9252
X13.0906Y-3.5945
X13.3661Y-2.2559
X13.3661Y-2.9252
X13.3661Y-3.5945
X13.3661Y-4.2638
X13.7992Y-2.2559
X13.7992Y-2.9252
X13.7992Y-3.5945
X13.7992Y-4.2638
T4
X8.9441Y-4.5062
X9.1587Y-4.5203
X9.5059Y-5.0139
X9.61Y-4.2638
X9.7205Y-5.028
X9.8246Y-4.2779
X10.0394Y-2.0217
X10.0394Y-2.6909
X10.0394Y-3.3602
X10.2362Y-2.1083
X10.2362Y-2.7776
X10.2362Y-3.4469
X10.748Y-2.0217
X10.748Y-2.6909
X10.748Y-3.3602
X10.9449Y-2.1083
X10.9449Y-2.7776
X10.9449Y-3.4469
X11.4567Y-2.0217
X11.4567Y-2.6909
X11.4567Y-3.3602
X11.6535Y-2.1083
X11.6535Y-2.7776
X11.6535Y-3.4469
X12.1654Y-2.0217
X12.1654Y-2.6909
X12.1654Y-3.3602
X12.3622Y-2.1083
X12.3622Y-2.7776
X12.3622Y-3.4469
X12.874Y-2.0217
X12.874Y-2.6909
X12.874Y-3.3602
X13.0709Y-2.1083
X13.0709Y-2.7776
X13.0709Y-3.4469
X13.5827Y-2.0217
X13.5827Y-2.6909
X13.5827Y-3.3602
X13.5827Y-4.0295
X13.7795Y-2.1083
X13.7795Y-2.7776
X13.7795Y-3.4469
X13.7795Y-4.1161
T5
X9.0242Y-4.7263
X9.586Y-5.2341
X9.6901Y-4.4839
X10.0394Y-2.2559
X10.0394Y-2.9252
X10.0394Y-3.5945
X10.748Y-2.2559
X10.748Y-2.9252
X10.748Y-3.5945
X11.4567Y-2.2559
X11.4567Y-2.9252
X11.4567Y-3.5945
X12.1654Y-2.2559
X12.1654Y-2.9252
X12.1654Y-3.5945
X12.874Y-2.2559
X12.874Y-2.9252
X12.874Y-3.5945
X13.5827Y-2.2559
X13.5827Y-2.9252
X13.5827Y-3.5945
X13.5827Y-4.2638
T6
X9.1119Y-5.658
X9.252Y-2.0787
X9.3307Y-3.9094
X11.811Y-3.2618
X11.811Y-4.9035
X13.189Y-2.5925
X13.8583Y-4.4606
M30
