%TF.GenerationSoftware,KiCad,Pcbnew,8.0.8*%
%TF.CreationDate,2025-02-15T03:14:28-10:00*%
%TF.ProjectId,theguy2,74686567-7579-4322-9e6b-696361645f70,v1.0.0*%
%TF.SameCoordinates,Original*%
%TF.FileFunction,Copper,L2,Bot*%
%TF.FilePolarity,Positive*%
%FSLAX46Y46*%
G04 Gerber Fmt 4.6, Leading zero omitted, Abs format (unit mm)*
G04 Created by KiCad (PCBNEW 8.0.8) date 2025-02-15 03:14:28*
%MOMM*%
%LPD*%
G01*
G04 APERTURE LIST*
G04 Aperture macros list*
%AMRotRect*
0 Rectangle, with rotation*
0 The origin of the aperture is its center*
0 $1 length*
0 $2 width*
0 $3 Rotation angle, in degrees counterclockwise*
0 Add horizontal line*
21,1,$1,$2,0,0,$3*%
G04 Aperture macros list end*
%TA.AperFunction,WasherPad*%
%ADD10C,1.000000*%
%TD*%
%TA.AperFunction,SMDPad,CuDef*%
%ADD11R,2.600000X2.600000*%
%TD*%
%TA.AperFunction,SMDPad,CuDef*%
%ADD12RotRect,2.600000X1.000000X20.000000*%
%TD*%
%TA.AperFunction,ComponentPad*%
%ADD13R,1.778000X1.778000*%
%TD*%
%TA.AperFunction,SMDPad,CuDef*%
%ADD14R,0.900000X1.200000*%
%TD*%
%TA.AperFunction,ComponentPad*%
%ADD15C,1.905000*%
%TD*%
%TA.AperFunction,SMDPad,CuDef*%
%ADD16R,2.600000X1.000000*%
%TD*%
%TA.AperFunction,ComponentPad*%
%ADD17RotRect,1.778000X1.778000X20.000000*%
%TD*%
%TA.AperFunction,SMDPad,CuDef*%
%ADD18RotRect,0.900000X1.200000X20.000000*%
%TD*%
%TA.AperFunction,SMDPad,CuDef*%
%ADD19RotRect,2.600000X2.600000X20.000000*%
%TD*%
%TA.AperFunction,ComponentPad*%
%ADD20R,1.700000X1.200000*%
%TD*%
%TA.AperFunction,ComponentPad*%
%ADD21O,1.700000X1.200000*%
%TD*%
%TA.AperFunction,ComponentPad*%
%ADD22O,1.700000X1.700000*%
%TD*%
%TA.AperFunction,ComponentPad*%
%ADD23R,1.700000X1.700000*%
%TD*%
%TA.AperFunction,ComponentPad*%
%ADD24C,1.752600*%
%TD*%
%TA.AperFunction,ViaPad*%
%ADD25C,0.800000*%
%TD*%
%TA.AperFunction,Conductor*%
%ADD26C,0.250000*%
%TD*%
G04 APERTURE END LIST*
D10*
%TO.P,T1,*%
%TO.N,*%
X223250000Y-107799038D03*
X224750000Y-105200962D03*
%TD*%
D11*
%TO.P,S20,1*%
%TO.N,P111*%
X251725000Y-85350000D03*
%TO.P,S20,2*%
%TO.N,mirror_inner_bottom*%
X263275000Y-87550000D03*
%TD*%
D12*
%TO.P,LED24,1*%
%TO.N,VCC*%
X229053464Y-126039639D03*
%TO.P,LED24,2*%
%TO.N,rgb_thumbs_layer_cluster*%
X228454929Y-124395177D03*
%TO.P,LED24,3*%
%TO.N,GND*%
X232589576Y-122890289D03*
%TO.P,LED24,4*%
%TO.N,rgb_thumbs_space_cluster*%
X233188111Y-124534751D03*
%TD*%
D13*
%TO.P,D13,1*%
%TO.N,P010*%
X305190000Y-65300000D03*
D14*
X307350000Y-65300000D03*
%TO.P,D13,2*%
%TO.N,mirror_ring_top*%
X310650000Y-65300000D03*
D15*
X312810000Y-65300000D03*
%TD*%
D16*
%TO.P,LED13,1*%
%TO.N,VCC*%
X306800000Y-62875000D03*
%TO.P,LED13,2*%
%TO.N,rgb_matrix_ring_home*%
X306800000Y-61125000D03*
%TO.P,LED13,3*%
%TO.N,GND*%
X311200000Y-61125000D03*
%TO.P,LED13,4*%
%TO.N,rgb_matrix_ring_top*%
X311200000Y-62875000D03*
%TD*%
%TO.P,LED21,1*%
%TO.N,VCC*%
X252800000Y-79875000D03*
%TO.P,LED21,2*%
%TO.N,rgb_matrix_inner_top*%
X252800000Y-78125000D03*
%TO.P,LED21,3*%
%TO.N,GND*%
X257200000Y-78125000D03*
%TO.P,LED21,4*%
%TO.N,rgb_matrix_inner_home*%
X257200000Y-79875000D03*
%TD*%
D17*
%TO.P,D24,1*%
%TO.N,P104*%
X228369957Y-128869047D03*
D18*
X230399693Y-128130283D03*
%TO.P,D24,2*%
%TO.N,mirror_space_cluster*%
X233500679Y-127001617D03*
D15*
X235530415Y-126262853D03*
%TD*%
D19*
%TO.P,S24,1*%
%TO.N,P111*%
X224101512Y-115577354D03*
%TO.P,S24,2*%
%TO.N,mirror_space_cluster*%
X235707406Y-113694345D03*
%TD*%
D13*
%TO.P,D9,1*%
%TO.N,P009*%
X323190000Y-82300000D03*
D14*
X325350000Y-82300000D03*
%TO.P,D9,2*%
%TO.N,mirror_pinky_home*%
X328650000Y-82300000D03*
D15*
X330810000Y-82300000D03*
%TD*%
D17*
%TO.P,D23,1*%
%TO.N,P104*%
X245284424Y-122712684D03*
D18*
X247314160Y-121973920D03*
%TO.P,D23,2*%
%TO.N,mirror_layer_cluster*%
X250415146Y-120845254D03*
D15*
X252444882Y-120106490D03*
%TD*%
D13*
%TO.P,D11,1*%
%TO.N,P104*%
X305190000Y-99300000D03*
D14*
X307350000Y-99300000D03*
%TO.P,D11,2*%
%TO.N,mirror_ring_bottom*%
X310650000Y-99300000D03*
D15*
X312810000Y-99300000D03*
%TD*%
D11*
%TO.P,S15,1*%
%TO.N,P115*%
X287725000Y-68350000D03*
%TO.P,S15,2*%
%TO.N,mirror_middle_home*%
X299275000Y-70550000D03*
%TD*%
D20*
%TO.P,JST1,1*%
%TO.N,pos*%
X327000000Y-107300000D03*
D21*
%TO.P,JST1,2*%
%TO.N,GND*%
X327000000Y-109300000D03*
%TD*%
D12*
%TO.P,LED25,1*%
%TO.N,VCC*%
X243325040Y-138936233D03*
%TO.P,LED25,2*%
%TO.N,rgb_matrix_inner_bottom*%
X242726505Y-137291771D03*
%TO.P,LED25,3*%
%TO.N,GND*%
X246861152Y-135786883D03*
%TO.P,LED25,4*%
%TO.N,P006*%
X247459687Y-137431345D03*
%TD*%
D11*
%TO.P,S8,1*%
%TO.N,P029*%
X323725000Y-85350000D03*
%TO.P,S8,2*%
%TO.N,mirror_pinky_bottom*%
X335275000Y-87550000D03*
%TD*%
D13*
%TO.P,D18,1*%
%TO.N,P009*%
X269190000Y-82300000D03*
D14*
X271350000Y-82300000D03*
%TO.P,D18,2*%
%TO.N,mirror_index_home*%
X274650000Y-82300000D03*
D15*
X276810000Y-82300000D03*
%TD*%
D13*
%TO.P,D21,1*%
%TO.N,P009*%
X251190000Y-82300000D03*
D14*
X253350000Y-82300000D03*
%TO.P,D21,2*%
%TO.N,mirror_inner_home*%
X256650000Y-82300000D03*
D15*
X258810000Y-82300000D03*
%TD*%
D11*
%TO.P,S19,1*%
%TO.N,P113*%
X269725000Y-51350000D03*
%TO.P,S19,2*%
%TO.N,mirror_index_top*%
X281275000Y-53550000D03*
%TD*%
D13*
%TO.P,D7,1*%
%TO.N,P010*%
X341190000Y-65300000D03*
D14*
X343350000Y-65300000D03*
%TO.P,D7,2*%
%TO.N,mirror_hell_top*%
X346650000Y-65300000D03*
D15*
X348810000Y-65300000D03*
%TD*%
D16*
%TO.P,LED4,1*%
%TO.N,VCC*%
X342800000Y-113875000D03*
%TO.P,LED4,2*%
%TO.N,N/C*%
X342800000Y-112125000D03*
%TO.P,LED4,3*%
%TO.N,GND*%
X347200000Y-112125000D03*
%TO.P,LED4,4*%
%TO.N,rgb_matrix_hell_last*%
X347200000Y-113875000D03*
%TD*%
D11*
%TO.P,S14,1*%
%TO.N,P115*%
X287725000Y-85350000D03*
%TO.P,S14,2*%
%TO.N,mirror_middle_bottom*%
X299275000Y-87550000D03*
%TD*%
D13*
%TO.P,D22,1*%
%TO.N,P010*%
X251190000Y-65300000D03*
D14*
X253350000Y-65300000D03*
%TO.P,D22,2*%
%TO.N,mirror_inner_top*%
X256650000Y-65300000D03*
D15*
X258810000Y-65300000D03*
%TD*%
D13*
%TO.P,D8,1*%
%TO.N,P104*%
X323190000Y-99300000D03*
D14*
X325350000Y-99300000D03*
%TO.P,D8,2*%
%TO.N,mirror_pinky_bottom*%
X328650000Y-99300000D03*
D15*
X330810000Y-99300000D03*
%TD*%
D12*
%TO.P,LED23,1*%
%TO.N,VCC*%
X245967931Y-119883277D03*
%TO.P,LED23,2*%
%TO.N,rgb_matrix_index_bottom*%
X245369396Y-118238815D03*
%TO.P,LED23,3*%
%TO.N,GND*%
X249504043Y-116733927D03*
%TO.P,LED23,4*%
%TO.N,rgb_thumbs_layer_cluster*%
X250102578Y-118378389D03*
%TD*%
D11*
%TO.P,S6,1*%
%TO.N,P031*%
X341725000Y-68350000D03*
%TO.P,S6,2*%
%TO.N,mirror_hell_home*%
X353275000Y-70550000D03*
%TD*%
%TO.P,S18,1*%
%TO.N,P113*%
X269725000Y-68350000D03*
%TO.P,S18,2*%
%TO.N,mirror_index_home*%
X281275000Y-70550000D03*
%TD*%
D16*
%TO.P,LED9,1*%
%TO.N,VCC*%
X324800000Y-79875000D03*
%TO.P,LED9,2*%
%TO.N,rgb_matrix_pinky_top*%
X324800000Y-78125000D03*
%TO.P,LED9,3*%
%TO.N,GND*%
X329200000Y-78125000D03*
%TO.P,LED9,4*%
%TO.N,rgb_matrix_pinky_home*%
X329200000Y-79875000D03*
%TD*%
D13*
%TO.P,D12,1*%
%TO.N,P009*%
X305190000Y-82300000D03*
D14*
X307350000Y-82300000D03*
%TO.P,D12,2*%
%TO.N,mirror_ring_home*%
X310650000Y-82300000D03*
D15*
X312810000Y-82300000D03*
%TD*%
D11*
%TO.P,S11,1*%
%TO.N,P002*%
X305725000Y-85350000D03*
%TO.P,S11,2*%
%TO.N,mirror_ring_bottom*%
X317275000Y-87550000D03*
%TD*%
%TO.P,S4,1*%
%TO.N,P031*%
X341725000Y-102350000D03*
%TO.P,S4,2*%
%TO.N,mirror_hell_last*%
X353275000Y-104550000D03*
%TD*%
D16*
%TO.P,LED20,1*%
%TO.N,VCC*%
X252800000Y-96875000D03*
%TO.P,LED20,2*%
%TO.N,rgb_matrix_inner_home*%
X252800000Y-95125000D03*
%TO.P,LED20,3*%
%TO.N,GND*%
X257200000Y-95125000D03*
%TO.P,LED20,4*%
%TO.N,rgb_matrix_inner_bottom*%
X257200000Y-96875000D03*
%TD*%
%TO.P,LED10,1*%
%TO.N,VCC*%
X324800000Y-62875000D03*
%TO.P,LED10,2*%
%TO.N,rgb_matrix_hell_top*%
X324800000Y-61125000D03*
%TO.P,LED10,3*%
%TO.N,GND*%
X329200000Y-61125000D03*
%TO.P,LED10,4*%
%TO.N,rgb_matrix_pinky_top*%
X329200000Y-62875000D03*
%TD*%
D13*
%TO.P,D10,1*%
%TO.N,P010*%
X323190000Y-65300000D03*
D14*
X325350000Y-65300000D03*
%TO.P,D10,2*%
%TO.N,mirror_pinky_top*%
X328650000Y-65300000D03*
D15*
X330810000Y-65300000D03*
%TD*%
D16*
%TO.P,LED19,1*%
%TO.N,VCC*%
X270800000Y-62875000D03*
%TO.P,LED19,2*%
%TO.N,rgb_matrix_index_home*%
X270800000Y-61125000D03*
%TO.P,LED19,3*%
%TO.N,GND*%
X275200000Y-61125000D03*
%TO.P,LED19,4*%
%TO.N,rgb_matrix_index_top*%
X275200000Y-62875000D03*
%TD*%
%TO.P,LED16,1*%
%TO.N,VCC*%
X288800000Y-62875000D03*
%TO.P,LED16,2*%
%TO.N,rgb_matrix_ring_top*%
X288800000Y-61125000D03*
%TO.P,LED16,3*%
%TO.N,GND*%
X293200000Y-61125000D03*
%TO.P,LED16,4*%
%TO.N,rgb_matrix_middle_top*%
X293200000Y-62875000D03*
%TD*%
%TO.P,LED11,1*%
%TO.N,VCC*%
X306800000Y-96875000D03*
%TO.P,LED11,2*%
%TO.N,rgb_matrix_pinky_bottom*%
X306800000Y-95125000D03*
%TO.P,LED11,3*%
%TO.N,GND*%
X311200000Y-95125000D03*
%TO.P,LED11,4*%
%TO.N,rgb_matrix_ring_bottom*%
X311200000Y-96875000D03*
%TD*%
%TO.P,LED8,1*%
%TO.N,VCC*%
X324800000Y-96875000D03*
%TO.P,LED8,2*%
%TO.N,rgb_matrix_pinky_home*%
X324800000Y-95125000D03*
%TO.P,LED8,3*%
%TO.N,GND*%
X329200000Y-95125000D03*
%TO.P,LED8,4*%
%TO.N,rgb_matrix_pinky_bottom*%
X329200000Y-96875000D03*
%TD*%
D11*
%TO.P,S17,1*%
%TO.N,P113*%
X269725000Y-85350000D03*
%TO.P,S17,2*%
%TO.N,mirror_index_bottom*%
X281275000Y-87550000D03*
%TD*%
D16*
%TO.P,LED5,1*%
%TO.N,VCC*%
X342800000Y-96875000D03*
%TO.P,LED5,2*%
%TO.N,rgb_matrix_hell_last*%
X342800000Y-95125000D03*
%TO.P,LED5,3*%
%TO.N,GND*%
X347200000Y-95125000D03*
%TO.P,LED5,4*%
%TO.N,rgb_matrix_hell_bottom*%
X347200000Y-96875000D03*
%TD*%
D11*
%TO.P,S13,1*%
%TO.N,P002*%
X305725000Y-51350000D03*
%TO.P,S13,2*%
%TO.N,mirror_ring_top*%
X317275000Y-53550000D03*
%TD*%
D13*
%TO.P,D16,1*%
%TO.N,P010*%
X287190000Y-65300000D03*
D14*
X289350000Y-65300000D03*
%TO.P,D16,2*%
%TO.N,mirror_middle_top*%
X292650000Y-65300000D03*
D15*
X294810000Y-65300000D03*
%TD*%
D16*
%TO.P,LED15,1*%
%TO.N,VCC*%
X288800000Y-79875000D03*
%TO.P,LED15,2*%
%TO.N,rgb_matrix_middle_top*%
X288800000Y-78125000D03*
%TO.P,LED15,3*%
%TO.N,GND*%
X293200000Y-78125000D03*
%TO.P,LED15,4*%
%TO.N,rgb_matrix_middle_home*%
X293200000Y-79875000D03*
%TD*%
D17*
%TO.P,D25,1*%
%TO.N,P106*%
X242641533Y-141765640D03*
D18*
X244671269Y-141026876D03*
%TO.P,D25,2*%
%TO.N,mirror_extra_cluster*%
X247772255Y-139898210D03*
D15*
X249801991Y-139159446D03*
%TD*%
D16*
%TO.P,LED7,1*%
%TO.N,VCC*%
X342800000Y-62875000D03*
%TO.P,LED7,2*%
%TO.N,rgb_matrix_hell_home*%
X342800000Y-61125000D03*
%TO.P,LED7,3*%
%TO.N,GND*%
X347200000Y-61125000D03*
%TO.P,LED7,4*%
%TO.N,rgb_matrix_hell_top*%
X347200000Y-62875000D03*
%TD*%
%TO.P,LED18,1*%
%TO.N,VCC*%
X270800000Y-79875000D03*
%TO.P,LED18,2*%
%TO.N,rgb_matrix_index_bottom*%
X270800000Y-78125000D03*
%TO.P,LED18,3*%
%TO.N,GND*%
X275200000Y-78125000D03*
%TO.P,LED18,4*%
%TO.N,rgb_matrix_index_home*%
X275200000Y-79875000D03*
%TD*%
D13*
%TO.P,D6,1*%
%TO.N,P009*%
X341190000Y-82300000D03*
D14*
X343350000Y-82300000D03*
%TO.P,D6,2*%
%TO.N,mirror_hell_home*%
X346650000Y-82300000D03*
D15*
X348810000Y-82300000D03*
%TD*%
D11*
%TO.P,S12,1*%
%TO.N,P002*%
X305725000Y-68350000D03*
%TO.P,S12,2*%
%TO.N,mirror_ring_home*%
X317275000Y-70550000D03*
%TD*%
D19*
%TO.P,S23,1*%
%TO.N,P113*%
X241015979Y-109420992D03*
%TO.P,S23,2*%
%TO.N,mirror_layer_cluster*%
X252621873Y-107537983D03*
%TD*%
D13*
%TO.P,D14,1*%
%TO.N,P104*%
X287190000Y-99300000D03*
D14*
X289350000Y-99300000D03*
%TO.P,D14,2*%
%TO.N,mirror_middle_bottom*%
X292650000Y-99300000D03*
D15*
X294810000Y-99300000D03*
%TD*%
D11*
%TO.P,S5,1*%
%TO.N,P031*%
X341725000Y-85350000D03*
%TO.P,S5,2*%
%TO.N,mirror_hell_bottom*%
X353275000Y-87550000D03*
%TD*%
%TO.P,S22,1*%
%TO.N,P111*%
X251725000Y-51350000D03*
%TO.P,S22,2*%
%TO.N,mirror_inner_top*%
X263275000Y-53550000D03*
%TD*%
D16*
%TO.P,LED22,1*%
%TO.N,VCC*%
X252800000Y-62875000D03*
%TO.P,LED22,2*%
%TO.N,rgb_matrix_index_top*%
X252800000Y-61125000D03*
%TO.P,LED22,3*%
%TO.N,GND*%
X257200000Y-61125000D03*
%TO.P,LED22,4*%
%TO.N,rgb_matrix_inner_top*%
X257200000Y-62875000D03*
%TD*%
D11*
%TO.P,S16,1*%
%TO.N,P115*%
X287725000Y-51350000D03*
%TO.P,S16,2*%
%TO.N,mirror_middle_top*%
X299275000Y-53550000D03*
%TD*%
%TO.P,S21,1*%
%TO.N,P111*%
X251725000Y-68350000D03*
%TO.P,S21,2*%
%TO.N,mirror_inner_home*%
X263275000Y-70550000D03*
%TD*%
D16*
%TO.P,LED6,1*%
%TO.N,VCC*%
X342800000Y-79875000D03*
%TO.P,LED6,2*%
%TO.N,rgb_matrix_hell_bottom*%
X342800000Y-78125000D03*
%TO.P,LED6,3*%
%TO.N,GND*%
X347200000Y-78125000D03*
%TO.P,LED6,4*%
%TO.N,rgb_matrix_hell_home*%
X347200000Y-79875000D03*
%TD*%
D13*
%TO.P,D5,1*%
%TO.N,P104*%
X341190000Y-99300000D03*
D14*
X343350000Y-99300000D03*
%TO.P,D5,2*%
%TO.N,mirror_hell_bottom*%
X346650000Y-99300000D03*
D15*
X348810000Y-99300000D03*
%TD*%
D11*
%TO.P,S9,1*%
%TO.N,P029*%
X323725000Y-68350000D03*
%TO.P,S9,2*%
%TO.N,mirror_pinky_home*%
X335275000Y-70550000D03*
%TD*%
%TO.P,S10,1*%
%TO.N,P029*%
X323725000Y-51350000D03*
%TO.P,S10,2*%
%TO.N,mirror_pinky_top*%
X335275000Y-53550000D03*
%TD*%
D16*
%TO.P,LED17,1*%
%TO.N,VCC*%
X270800000Y-96875000D03*
%TO.P,LED17,2*%
%TO.N,rgb_thumbs_space_cluster*%
X270800000Y-95125000D03*
%TO.P,LED17,3*%
%TO.N,GND*%
X275200000Y-95125000D03*
%TO.P,LED17,4*%
%TO.N,rgb_matrix_index_bottom*%
X275200000Y-96875000D03*
%TD*%
D13*
%TO.P,D19,1*%
%TO.N,P010*%
X269190000Y-65300000D03*
D14*
X271350000Y-65300000D03*
%TO.P,D19,2*%
%TO.N,mirror_index_top*%
X274650000Y-65300000D03*
D15*
X276810000Y-65300000D03*
%TD*%
D13*
%TO.P,D20,1*%
%TO.N,P104*%
X251190000Y-99300000D03*
D14*
X253350000Y-99300000D03*
%TO.P,D20,2*%
%TO.N,mirror_inner_bottom*%
X256650000Y-99300000D03*
D15*
X258810000Y-99300000D03*
%TD*%
D13*
%TO.P,D15,1*%
%TO.N,P009*%
X287190000Y-82300000D03*
D14*
X289350000Y-82300000D03*
%TO.P,D15,2*%
%TO.N,mirror_middle_home*%
X292650000Y-82300000D03*
D15*
X294810000Y-82300000D03*
%TD*%
D22*
%TO.P,niceView1,1*%
%TO.N,P022*%
X240280000Y-82775000D03*
D23*
%TO.P,niceView1,2*%
%TO.N,GND*%
X237740000Y-82775000D03*
D22*
%TO.P,niceView1,3*%
%TO.N,VCC*%
X235200000Y-82775000D03*
%TO.P,niceView1,4*%
%TO.N,P020*%
X232660000Y-82775000D03*
%TO.P,niceView1,5*%
%TO.N,P017*%
X230120000Y-82775000D03*
%TD*%
D13*
%TO.P,D4,1*%
%TO.N,P106*%
X341190000Y-116300000D03*
D14*
X343350000Y-116300000D03*
%TO.P,D4,2*%
%TO.N,mirror_hell_last*%
X346650000Y-116300000D03*
D15*
X348810000Y-116300000D03*
%TD*%
D11*
%TO.P,S7,1*%
%TO.N,P031*%
X341725000Y-51350000D03*
%TO.P,S7,2*%
%TO.N,mirror_hell_top*%
X353275000Y-53550000D03*
%TD*%
D24*
%TO.P,MCU1,1*%
%TO.N,P006*%
X242820000Y-51830000D03*
%TO.P,MCU1,2*%
%TO.N,P008*%
X242820000Y-54370000D03*
%TO.P,MCU1,3*%
%TO.N,GND*%
X242820000Y-56910000D03*
%TO.P,MCU1,4*%
X242820000Y-59450000D03*
%TO.P,MCU1,5*%
%TO.N,P017*%
X242820000Y-61990000D03*
%TO.P,MCU1,6*%
%TO.N,P020*%
X242820000Y-64530000D03*
%TO.P,MCU1,7*%
%TO.N,P022*%
X242820000Y-67070000D03*
%TO.P,MCU1,8*%
%TO.N,P024*%
X242820000Y-69610000D03*
%TO.P,MCU1,9*%
%TO.N,P100*%
X242820000Y-72150000D03*
%TO.P,MCU1,10*%
%TO.N,P011*%
X242820000Y-74690000D03*
%TO.P,MCU1,11*%
%TO.N,P104*%
X242820000Y-77230000D03*
%TO.P,MCU1,12*%
%TO.N,P106*%
X242820000Y-79770000D03*
%TO.P,MCU1,13*%
%TO.N,P009*%
X227580000Y-79770000D03*
%TO.P,MCU1,14*%
%TO.N,P010*%
X227580000Y-77230000D03*
%TO.P,MCU1,15*%
%TO.N,P111*%
X227580000Y-74690000D03*
%TO.P,MCU1,16*%
%TO.N,P113*%
X227580000Y-72150000D03*
%TO.P,MCU1,17*%
%TO.N,P115*%
X227580000Y-69610000D03*
%TO.P,MCU1,18*%
%TO.N,P002*%
X227580000Y-67070000D03*
%TO.P,MCU1,19*%
%TO.N,P029*%
X227580000Y-64530000D03*
%TO.P,MCU1,20*%
%TO.N,P031*%
X227580000Y-61990000D03*
%TO.P,MCU1,21*%
%TO.N,VCC*%
X227580000Y-59450000D03*
%TO.P,MCU1,22*%
%TO.N,RST*%
X227580000Y-56910000D03*
%TO.P,MCU1,23*%
%TO.N,GND*%
X227580000Y-54370000D03*
%TO.P,MCU1,24*%
%TO.N,RAW*%
X227580000Y-51830000D03*
%TO.P,MCU1,31*%
%TO.N,P101*%
X230120000Y-74690000D03*
%TO.P,MCU1,32*%
%TO.N,P102*%
X232660000Y-74690000D03*
%TO.P,MCU1,33*%
%TO.N,P107*%
X235200000Y-74690000D03*
%TD*%
D16*
%TO.P,LED14,1*%
%TO.N,VCC*%
X288800000Y-96875000D03*
%TO.P,LED14,2*%
%TO.N,rgb_matrix_middle_home*%
X288800000Y-95125000D03*
%TO.P,LED14,3*%
%TO.N,GND*%
X293200000Y-95125000D03*
%TO.P,LED14,4*%
%TO.N,rgb_matrix_middle_bottom*%
X293200000Y-96875000D03*
%TD*%
%TO.P,LED12,1*%
%TO.N,VCC*%
X306800000Y-79875000D03*
%TO.P,LED12,2*%
%TO.N,rgb_matrix_ring_bottom*%
X306800000Y-78125000D03*
%TO.P,LED12,3*%
%TO.N,GND*%
X311200000Y-78125000D03*
%TO.P,LED12,4*%
%TO.N,rgb_matrix_ring_home*%
X311200000Y-79875000D03*
%TD*%
D13*
%TO.P,D17,1*%
%TO.N,P104*%
X269190000Y-99300000D03*
D14*
X271350000Y-99300000D03*
%TO.P,D17,2*%
%TO.N,mirror_index_bottom*%
X274650000Y-99300000D03*
D15*
X276810000Y-99300000D03*
%TD*%
D19*
%TO.P,S25,1*%
%TO.N,P111*%
X238373088Y-128473947D03*
%TO.P,S25,2*%
%TO.N,mirror_extra_cluster*%
X249978982Y-126590938D03*
%TD*%
D25*
%TO.N,P113*%
X267150000Y-51350000D03*
%TO.N,P111*%
X247500000Y-52500000D03*
%TO.N,P031*%
X341500000Y-49000000D03*
%TO.N,P029*%
X323000000Y-48725000D03*
%TO.N,P002*%
X305500000Y-49500000D03*
%TO.N,P115*%
X285150000Y-51350000D03*
%TO.N,rgb_thumbs_layer_cluster*%
X251228574Y-115916806D03*
X227000000Y-127000000D03*
%TO.N,rgb_matrix_index_bottom*%
X277100002Y-95000000D03*
X267792892Y-80207108D03*
X242792892Y-120707108D03*
%TO.N,VCC*%
X246500000Y-102000000D03*
X340500000Y-113500000D03*
X245000000Y-84000000D03*
X242500000Y-112000000D03*
X250500000Y-96500000D03*
X268500000Y-96500000D03*
X250500000Y-79500000D03*
X268500000Y-62500000D03*
X232500000Y-129000000D03*
X339000000Y-95500000D03*
X340500000Y-96500000D03*
X304500000Y-79500000D03*
X268500000Y-79500000D03*
X242000000Y-84000000D03*
X243500000Y-120000000D03*
X304500000Y-62500000D03*
X286500000Y-62500000D03*
X250500000Y-62500000D03*
X339500000Y-101500000D03*
X286500000Y-79500000D03*
X322500000Y-79500000D03*
X240000000Y-105500000D03*
X304500000Y-96500000D03*
X340500000Y-62500000D03*
X241000000Y-139500000D03*
X340500000Y-79500000D03*
X322500000Y-62500000D03*
X243000000Y-118000000D03*
X286500000Y-96500000D03*
X322500000Y-96500000D03*
X249000000Y-101000000D03*
X226500000Y-126000000D03*
%TO.N,GND*%
X313000000Y-96000000D03*
X259000000Y-79000000D03*
X251512435Y-116983367D03*
X295000000Y-79000000D03*
X248225000Y-64000000D03*
X331000000Y-62000000D03*
X331000000Y-96000000D03*
X248836190Y-136013106D03*
X277000000Y-62000000D03*
X227000000Y-93000000D03*
X249700998Y-64500000D03*
X234574356Y-123012133D03*
X313000000Y-79000000D03*
X277000000Y-79000000D03*
X237740000Y-64530000D03*
X349000000Y-79000000D03*
X294978654Y-96013209D03*
X331000000Y-79000000D03*
X241000000Y-124000000D03*
X348000000Y-111000000D03*
X242500000Y-125000000D03*
X295000000Y-62000000D03*
X259000000Y-62000000D03*
X349000000Y-96000000D03*
X313000000Y-62000000D03*
X259000000Y-96000000D03*
X349000000Y-62000000D03*
X277000000Y-96000000D03*
%TO.N,rgb_thumbs_space_cluster*%
X231000000Y-113000000D03*
X267811250Y-97225000D03*
X252500000Y-104000000D03*
X256000000Y-104000000D03*
X234500000Y-122000000D03*
X266500000Y-101500000D03*
%TO.N,P006*%
X248585378Y-134968925D03*
%TO.N,rgb_matrix_inner_bottom*%
X240292892Y-140207108D03*
X259100002Y-95000000D03*
%TO.N,rgb_matrix_hell_last*%
X348000000Y-109500000D03*
X339792892Y-97207108D03*
%TO.N,rgb_matrix_hell_bottom*%
X349100002Y-94999997D03*
X339792892Y-80207108D03*
%TO.N,rgb_matrix_hell_home*%
X339792892Y-63207108D03*
X349116843Y-78006847D03*
%TO.N,rgb_matrix_hell_top*%
X321792892Y-63207108D03*
X349100002Y-60999997D03*
X334000000Y-59325000D03*
%TO.N,rgb_matrix_pinky_bottom*%
X303792892Y-97207108D03*
X331136640Y-95009377D03*
X325525000Y-93325000D03*
X311000000Y-93325000D03*
%TO.N,rgb_matrix_pinky_home*%
X331116843Y-78006847D03*
X321811250Y-97225000D03*
%TO.N,rgb_matrix_pinky_top*%
X321792892Y-80207108D03*
X331100002Y-61000000D03*
%TO.N,rgb_matrix_ring_bottom*%
X303792892Y-80207108D03*
X313100002Y-94999997D03*
%TO.N,rgb_matrix_ring_home*%
X303792892Y-63207108D03*
X313116843Y-78006847D03*
%TO.N,rgb_matrix_ring_top*%
X313116843Y-61006847D03*
X312500000Y-59325000D03*
X297500000Y-59325000D03*
X285811250Y-63225000D03*
%TO.N,rgb_matrix_middle_bottom*%
X295120103Y-95023261D03*
%TO.N,rgb_matrix_middle_home*%
X295116843Y-78006847D03*
X285792892Y-97207108D03*
%TO.N,rgb_matrix_middle_top*%
X295116843Y-61006847D03*
X285792891Y-80207109D03*
%TO.N,rgb_matrix_index_home*%
X277100002Y-77999997D03*
X267792892Y-63207108D03*
%TO.N,rgb_matrix_index_top*%
X276000000Y-59325000D03*
X277116843Y-61006847D03*
X249792892Y-63207108D03*
X262000000Y-59325000D03*
%TO.N,rgb_matrix_inner_home*%
X259100002Y-78000000D03*
X249792892Y-97207108D03*
%TO.N,rgb_matrix_inner_top*%
X259100002Y-61000000D03*
X249792892Y-80207108D03*
%TO.N,P009*%
X241500000Y-85000000D03*
X247487347Y-85012653D03*
X248342892Y-83500000D03*
%TO.N,P010*%
X248225000Y-66000000D03*
X240275000Y-66500000D03*
X246500000Y-66000000D03*
%TO.N,RAW*%
X224500000Y-107000000D03*
%TO.N,RST*%
X228000000Y-93000000D03*
%TD*%
D26*
%TO.N,P113*%
X266850000Y-85350000D02*
X266650000Y-85350000D01*
X263500000Y-105000000D02*
X244053540Y-105000000D01*
X266850000Y-68350000D02*
X269725000Y-68350000D01*
X265500000Y-103000000D02*
X263500000Y-105000000D01*
X266000000Y-86000000D02*
X266000000Y-86500000D01*
X266650000Y-85350000D02*
X266000000Y-86000000D01*
X266000000Y-84500000D02*
X266850000Y-85350000D01*
X241015979Y-108037561D02*
X241015979Y-109420992D01*
X266850000Y-85350000D02*
X269725000Y-85350000D01*
X266000000Y-86500000D02*
X265500000Y-87000000D01*
X265500000Y-87000000D02*
X265500000Y-103000000D01*
X244053540Y-105000000D02*
X241015979Y-108037561D01*
X266000000Y-67500000D02*
X266850000Y-68350000D01*
X266000000Y-52500000D02*
X266000000Y-67500000D01*
X269725000Y-51350000D02*
X267150000Y-51350000D01*
X267150000Y-51350000D02*
X266000000Y-52500000D01*
X266000000Y-69200000D02*
X266000000Y-84500000D01*
X266850000Y-68350000D02*
X266000000Y-69200000D01*
%TO.N,P111*%
X225325000Y-127954484D02*
X227870516Y-130500000D01*
X226795435Y-111500000D02*
X235363604Y-111500000D01*
X248650000Y-68150000D02*
X247500000Y-67000000D01*
X248650000Y-51350000D02*
X247500000Y-52500000D01*
X246500000Y-104000000D02*
X248000000Y-102500000D01*
X242863604Y-104000000D02*
X246500000Y-104000000D01*
X248000000Y-86200000D02*
X248850000Y-85350000D01*
X227870516Y-130500000D02*
X236347035Y-130500000D01*
X236347035Y-130500000D02*
X238373088Y-128473947D01*
X248850000Y-85350000D02*
X251725000Y-85350000D01*
X224101512Y-114193923D02*
X226795435Y-111500000D01*
X248000000Y-102500000D02*
X248000000Y-86200000D01*
X248650000Y-68350000D02*
X248850000Y-68350000D01*
X251725000Y-51350000D02*
X248650000Y-51350000D01*
X248850000Y-68350000D02*
X251725000Y-68350000D01*
X248850000Y-85350000D02*
X247500000Y-84000000D01*
X247500000Y-67000000D02*
X247500000Y-52500000D01*
X235363604Y-111500000D02*
X242863604Y-104000000D01*
X247500000Y-84000000D02*
X247500000Y-69500000D01*
X224101512Y-115577354D02*
X224101512Y-114193923D01*
X224101512Y-115577354D02*
X225325000Y-116800842D01*
X247500000Y-69500000D02*
X248650000Y-68350000D01*
X248650000Y-68350000D02*
X248650000Y-68150000D01*
X225325000Y-116800842D02*
X225325000Y-127954484D01*
%TO.N,P031*%
X338000000Y-69200000D02*
X338000000Y-84500000D01*
X338000000Y-52500000D02*
X338000000Y-67500000D01*
X338850000Y-68350000D02*
X341725000Y-68350000D01*
X338850000Y-85350000D02*
X341725000Y-85350000D01*
X341725000Y-51350000D02*
X339150000Y-51350000D01*
X339150000Y-51350000D02*
X338000000Y-52500000D01*
X341500000Y-51125000D02*
X341725000Y-51350000D01*
X338000000Y-86200000D02*
X338000000Y-101500000D01*
X338000000Y-101500000D02*
X338850000Y-102350000D01*
X338850000Y-68350000D02*
X338000000Y-69200000D01*
X338850000Y-85350000D02*
X338000000Y-86200000D01*
X341500000Y-49000000D02*
X341500000Y-51125000D01*
X338000000Y-67500000D02*
X338850000Y-68350000D01*
X338000000Y-84500000D02*
X338850000Y-85350000D01*
X338850000Y-102350000D02*
X341725000Y-102350000D01*
%TO.N,mirror_hell_last*%
X348810000Y-116300000D02*
X346650000Y-116300000D01*
X354425000Y-105700000D02*
X354425000Y-114304468D01*
X352429468Y-116300000D02*
X348810000Y-116300000D01*
X354425000Y-114304468D02*
X352429468Y-116300000D01*
X353275000Y-104550000D02*
X354425000Y-105700000D01*
%TO.N,mirror_hell_bottom*%
X353275000Y-87550000D02*
X353275000Y-94835000D01*
X353275000Y-94835000D02*
X348810000Y-99300000D01*
X346650000Y-99300000D02*
X348810000Y-99300000D01*
%TO.N,mirror_hell_home*%
X353275000Y-77835000D02*
X348810000Y-82300000D01*
X353275000Y-70550000D02*
X353275000Y-77835000D01*
X348810000Y-82300000D02*
X346650000Y-82300000D01*
%TO.N,mirror_hell_top*%
X353275000Y-60835000D02*
X348810000Y-65300000D01*
X353275000Y-53550000D02*
X353275000Y-60835000D01*
X348810000Y-65300000D02*
X346650000Y-65300000D01*
%TO.N,P029*%
X320850000Y-85350000D02*
X323725000Y-85350000D01*
X323000000Y-48725000D02*
X323725000Y-49450000D01*
X320000000Y-84500000D02*
X320850000Y-85350000D01*
X320000000Y-52500000D02*
X320000000Y-67500000D01*
X320000000Y-67500000D02*
X320850000Y-68350000D01*
X320850000Y-68350000D02*
X320000000Y-69200000D01*
X320000000Y-69200000D02*
X320000000Y-84500000D01*
X323725000Y-51350000D02*
X321150000Y-51350000D01*
X321150000Y-51350000D02*
X320000000Y-52500000D01*
X320850000Y-68350000D02*
X323725000Y-68350000D01*
X323725000Y-49450000D02*
X323725000Y-51350000D01*
%TO.N,mirror_pinky_bottom*%
X328650000Y-99300000D02*
X330810000Y-99300000D01*
X335275000Y-94835000D02*
X330810000Y-99300000D01*
X335275000Y-87550000D02*
X335275000Y-94835000D01*
%TO.N,mirror_pinky_home*%
X335275000Y-77835000D02*
X330810000Y-82300000D01*
X330810000Y-82300000D02*
X328650000Y-82300000D01*
X335275000Y-70550000D02*
X335275000Y-77835000D01*
%TO.N,mirror_pinky_top*%
X335275000Y-60835000D02*
X330810000Y-65300000D01*
X335275000Y-53550000D02*
X335275000Y-60835000D01*
X330810000Y-65300000D02*
X328650000Y-65300000D01*
%TO.N,P002*%
X302000000Y-69200000D02*
X302000000Y-80500000D01*
X305500000Y-51125000D02*
X305725000Y-51350000D01*
X305500000Y-49500000D02*
X305500000Y-51125000D01*
X302000000Y-52500000D02*
X302000000Y-67500000D01*
X303000000Y-81500000D02*
X303000000Y-84500000D01*
X302850000Y-68350000D02*
X305725000Y-68350000D01*
X302000000Y-67500000D02*
X302850000Y-68350000D01*
X303150000Y-51350000D02*
X302000000Y-52500000D01*
X305725000Y-51350000D02*
X303150000Y-51350000D01*
X302850000Y-68350000D02*
X302000000Y-69200000D01*
X303850000Y-85350000D02*
X305725000Y-85350000D01*
X302000000Y-80500000D02*
X303000000Y-81500000D01*
X303000000Y-84500000D02*
X303850000Y-85350000D01*
%TO.N,mirror_ring_bottom*%
X317275000Y-94835000D02*
X312810000Y-99300000D01*
X317275000Y-87550000D02*
X317275000Y-94835000D01*
X312810000Y-99300000D02*
X310650000Y-99300000D01*
%TO.N,mirror_ring_home*%
X317275000Y-77835000D02*
X312810000Y-82300000D01*
X310650000Y-82300000D02*
X312810000Y-82300000D01*
X317275000Y-70550000D02*
X317275000Y-77835000D01*
%TO.N,mirror_ring_top*%
X317275000Y-60835000D02*
X312810000Y-65300000D01*
X312810000Y-65300000D02*
X310650000Y-65300000D01*
X317275000Y-53550000D02*
X317275000Y-60835000D01*
%TO.N,P115*%
X284000000Y-69200000D02*
X284000000Y-84500000D01*
X284850000Y-85350000D02*
X287725000Y-85350000D01*
X284000000Y-84500000D02*
X284850000Y-85350000D01*
X285150000Y-51350000D02*
X284000000Y-52500000D01*
X287725000Y-51350000D02*
X285150000Y-51350000D01*
X284850000Y-68350000D02*
X287725000Y-68350000D01*
X286725000Y-51350000D02*
X287725000Y-51350000D01*
X284000000Y-52500000D02*
X284000000Y-67500000D01*
X284000000Y-67500000D02*
X284850000Y-68350000D01*
X284850000Y-68350000D02*
X284000000Y-69200000D01*
%TO.N,mirror_middle_bottom*%
X294810000Y-99300000D02*
X292650000Y-99300000D01*
X299275000Y-94835000D02*
X294810000Y-99300000D01*
X299275000Y-87550000D02*
X299275000Y-94835000D01*
%TO.N,mirror_middle_home*%
X292650000Y-82300000D02*
X294810000Y-82300000D01*
X299275000Y-77835000D02*
X294810000Y-82300000D01*
X299275000Y-70550000D02*
X299275000Y-77835000D01*
%TO.N,mirror_middle_top*%
X299275000Y-60835000D02*
X294810000Y-65300000D01*
X299275000Y-53550000D02*
X299275000Y-60835000D01*
X294810000Y-65300000D02*
X292650000Y-65300000D01*
%TO.N,mirror_index_bottom*%
X281275000Y-94835000D02*
X276810000Y-99300000D01*
X281275000Y-87550000D02*
X281275000Y-94835000D01*
X276810000Y-99300000D02*
X274650000Y-99300000D01*
%TO.N,mirror_index_home*%
X281275000Y-77835000D02*
X276810000Y-82300000D01*
X281275000Y-70550000D02*
X281275000Y-77835000D01*
X276810000Y-82300000D02*
X274650000Y-82300000D01*
%TO.N,mirror_index_top*%
X281275000Y-60835000D02*
X276810000Y-65300000D01*
X281275000Y-53550000D02*
X281275000Y-60835000D01*
X276810000Y-65300000D02*
X274650000Y-65300000D01*
%TO.N,mirror_inner_bottom*%
X263275000Y-87550000D02*
X263275000Y-94835000D01*
X258810000Y-99300000D02*
X256650000Y-99300000D01*
X263275000Y-94835000D02*
X258810000Y-99300000D01*
%TO.N,mirror_inner_home*%
X263275000Y-77835000D02*
X258810000Y-82300000D01*
X263275000Y-70550000D02*
X263275000Y-77835000D01*
X258810000Y-82300000D02*
X256650000Y-82300000D01*
%TO.N,mirror_inner_top*%
X263275000Y-53550000D02*
X263275000Y-60835000D01*
X263275000Y-60835000D02*
X258810000Y-65300000D01*
X258810000Y-65300000D02*
X256650000Y-65300000D01*
%TO.N,mirror_layer_cluster*%
X255500000Y-117051372D02*
X252444882Y-120106490D01*
X252621873Y-107537983D02*
X255500000Y-110416110D01*
X251153910Y-120106490D02*
X250415146Y-120845254D01*
X252444882Y-120106490D02*
X251153910Y-120106490D01*
X255500000Y-110416110D02*
X255500000Y-117051372D01*
%TO.N,mirror_space_cluster*%
X235530415Y-126262853D02*
X234239443Y-126262853D01*
X234239443Y-126262853D02*
X233500679Y-127001617D01*
X238500000Y-123293268D02*
X235530415Y-126262853D01*
X235707406Y-113694345D02*
X238500000Y-116486939D01*
X238500000Y-116486939D02*
X238500000Y-123293268D01*
%TO.N,mirror_extra_cluster*%
X253461437Y-135500000D02*
X249801991Y-139159446D01*
X248511019Y-139159446D02*
X247772255Y-139898210D01*
X253500000Y-130111956D02*
X253500000Y-135500000D01*
X253500000Y-135500000D02*
X253461437Y-135500000D01*
X249978982Y-126590938D02*
X253500000Y-130111956D01*
X249801991Y-139159446D02*
X248511019Y-139159446D01*
%TO.N,rgb_thumbs_layer_cluster*%
X251486009Y-118378389D02*
X252237435Y-117626963D01*
X226474695Y-127000000D02*
X225775000Y-126300305D01*
X252237435Y-117626963D02*
X252237435Y-116683062D01*
X225775000Y-126300305D02*
X225775000Y-125225000D01*
X250102578Y-118378389D02*
X251486009Y-118378389D01*
X227000000Y-127000000D02*
X226474695Y-127000000D01*
X252237435Y-116683062D02*
X251471179Y-115916806D01*
X251471179Y-115916806D02*
X251228574Y-115916806D01*
X225775000Y-125225000D02*
X226604823Y-124395177D01*
X226604823Y-124395177D02*
X228454929Y-124395177D01*
%TO.N,rgb_matrix_index_bottom*%
X275200000Y-97582843D02*
X275200000Y-96875000D01*
X275200000Y-96875000D02*
X277150305Y-96875000D01*
X244235880Y-118238815D02*
X245369396Y-118238815D01*
X242775000Y-119699695D02*
X244235880Y-118238815D01*
X250050829Y-105500000D02*
X266850000Y-105500000D01*
X267792892Y-80207108D02*
X267775000Y-80189216D01*
X245276717Y-117173092D02*
X246449809Y-116000000D01*
X246449809Y-116000000D02*
X246975538Y-116000000D01*
X266850000Y-105500000D02*
X274400000Y-97950000D01*
X276000000Y-85250000D02*
X276000000Y-93475000D01*
X267792892Y-80207108D02*
X268535784Y-80950000D01*
X268535784Y-80950000D02*
X271700000Y-80950000D01*
X248500000Y-114475538D02*
X248500000Y-110265369D01*
X245276717Y-118146136D02*
X245276717Y-117173092D01*
X277100002Y-94575002D02*
X277100002Y-95000000D01*
X247500000Y-108050829D02*
X250050829Y-105500000D01*
X271700000Y-80950000D02*
X276000000Y-85250000D01*
X247500000Y-109265369D02*
X247500000Y-108050829D01*
X274400000Y-97950000D02*
X274832843Y-97950000D01*
X277725000Y-96300305D02*
X277725000Y-95624998D01*
X242775000Y-120689216D02*
X242775000Y-119699695D01*
X242792892Y-120707108D02*
X242775000Y-120689216D01*
X267775000Y-78725000D02*
X268375000Y-78125000D01*
X246975538Y-116000000D02*
X248500000Y-114475538D01*
X276000000Y-93475000D02*
X277100002Y-94575002D01*
X248500000Y-110265369D02*
X247500000Y-109265369D01*
X277150305Y-96875000D02*
X277725000Y-96300305D01*
X245369396Y-118238815D02*
X245276717Y-118146136D01*
X274832843Y-97950000D02*
X275200000Y-97582843D01*
X268375000Y-78125000D02*
X270800000Y-78125000D01*
X267775000Y-80189216D02*
X267775000Y-78725000D01*
X277725000Y-95624998D02*
X277100002Y-95000000D01*
%TO.N,VCC*%
X243000000Y-112500000D02*
X242500000Y-112000000D01*
X306800000Y-62875000D02*
X304875000Y-62875000D01*
X304875000Y-79875000D02*
X304500000Y-79500000D01*
X243000000Y-118000000D02*
X243000000Y-112500000D01*
X288800000Y-96875000D02*
X286875000Y-96875000D01*
X324800000Y-96875000D02*
X322875000Y-96875000D01*
X342800000Y-62875000D02*
X340875000Y-62875000D01*
X229053464Y-126039639D02*
X226539639Y-126039639D01*
X232500000Y-129000000D02*
X232500000Y-128588254D01*
X340875000Y-113875000D02*
X340500000Y-113500000D01*
X243500000Y-102000000D02*
X246500000Y-102000000D01*
X340875000Y-79875000D02*
X340500000Y-79500000D01*
X288800000Y-79875000D02*
X286875000Y-79875000D01*
X339500000Y-101500000D02*
X339000000Y-101000000D01*
X229053464Y-126291688D02*
X229053464Y-126039639D01*
X230550500Y-126638754D02*
X229766150Y-126924234D01*
X249000000Y-101000000D02*
X249000000Y-99135784D01*
X304875000Y-96875000D02*
X304500000Y-96500000D01*
X339000000Y-101000000D02*
X339000000Y-95500000D01*
X250750000Y-96750000D02*
X250500000Y-96500000D01*
X286875000Y-62875000D02*
X286500000Y-62500000D01*
X288800000Y-62875000D02*
X286875000Y-62875000D01*
X342800000Y-96875000D02*
X340875000Y-96875000D01*
X250875000Y-62875000D02*
X250500000Y-62500000D01*
X228781300Y-60651300D02*
X228781300Y-76356300D01*
X243325040Y-138936233D02*
X241563767Y-138936233D01*
X270800000Y-96875000D02*
X268875000Y-96875000D01*
X270800000Y-79875000D02*
X268875000Y-79875000D01*
X227580000Y-59450000D02*
X228781300Y-60651300D01*
X270800000Y-62875000D02*
X268875000Y-62875000D01*
X245000000Y-84000000D02*
X242000000Y-84000000D01*
X249000000Y-99135784D02*
X250750000Y-97385784D01*
X252800000Y-62875000D02*
X250875000Y-62875000D01*
X322875000Y-62875000D02*
X322500000Y-62500000D01*
X228781300Y-76356300D02*
X235200000Y-82775000D01*
X226539639Y-126039639D02*
X226500000Y-126000000D01*
X340875000Y-96875000D02*
X340500000Y-96500000D01*
X241563767Y-138936233D02*
X241000000Y-139500000D01*
X232500000Y-128588254D02*
X230550500Y-126638754D01*
X268875000Y-79875000D02*
X268500000Y-79500000D01*
X324800000Y-62875000D02*
X322875000Y-62875000D01*
X250875000Y-96875000D02*
X250500000Y-96500000D01*
X304875000Y-62875000D02*
X304500000Y-62500000D01*
X229615988Y-126854212D02*
X229053464Y-126291688D01*
X245967931Y-119883277D02*
X243616723Y-119883277D01*
X306800000Y-96875000D02*
X304875000Y-96875000D01*
X240000000Y-105500000D02*
X243500000Y-102000000D01*
X268875000Y-96875000D02*
X268500000Y-96500000D01*
X250875000Y-79875000D02*
X250500000Y-79500000D01*
X252800000Y-96875000D02*
X250875000Y-96875000D01*
X342800000Y-79875000D02*
X340875000Y-79875000D01*
X250750000Y-97385784D02*
X250750000Y-96750000D01*
X286875000Y-79875000D02*
X286500000Y-79500000D01*
X252800000Y-79875000D02*
X250875000Y-79875000D01*
X243616723Y-119883277D02*
X243500000Y-120000000D01*
X322875000Y-79875000D02*
X322500000Y-79500000D01*
X342800000Y-113875000D02*
X340875000Y-113875000D01*
X322875000Y-96875000D02*
X322500000Y-96500000D01*
X306800000Y-79875000D02*
X304875000Y-79875000D01*
X229766150Y-126924234D02*
X229615988Y-126854212D01*
X340875000Y-62875000D02*
X340500000Y-62500000D01*
X286875000Y-96875000D02*
X286500000Y-96500000D01*
X268875000Y-62875000D02*
X268500000Y-62500000D01*
X324800000Y-79875000D02*
X322875000Y-79875000D01*
%TO.N,GND*%
X249753483Y-116983367D02*
X249504043Y-116733927D01*
X251512435Y-116983367D02*
X249753483Y-116983367D01*
X259000000Y-79000000D02*
X258075000Y-79000000D01*
X313000000Y-62000000D02*
X312075000Y-62000000D01*
X312075000Y-79000000D02*
X311200000Y-78125000D01*
X330075000Y-96000000D02*
X329200000Y-95125000D01*
X277000000Y-62000000D02*
X276075000Y-62000000D01*
X227580000Y-54370000D02*
X237740000Y-64530000D01*
X295000000Y-79000000D02*
X294075000Y-79000000D01*
X259000000Y-96000000D02*
X258075000Y-96000000D01*
X331000000Y-62000000D02*
X330075000Y-62000000D01*
X232711420Y-123012133D02*
X232589576Y-122890289D01*
X259000000Y-62000000D02*
X258075000Y-62000000D01*
X348075000Y-96000000D02*
X347200000Y-95125000D01*
X348075000Y-79000000D02*
X347200000Y-78125000D01*
X258075000Y-62000000D02*
X257200000Y-61125000D01*
X247087375Y-136013106D02*
X246861152Y-135786883D01*
X349000000Y-62000000D02*
X348075000Y-62000000D01*
X313000000Y-96000000D02*
X312075000Y-96000000D01*
X331000000Y-79000000D02*
X330075000Y-79000000D01*
X242820000Y-56910000D02*
X242820000Y-59450000D01*
X276075000Y-62000000D02*
X275200000Y-61125000D01*
X258075000Y-96000000D02*
X257200000Y-95125000D01*
X237740000Y-84760000D02*
X237740000Y-82775000D01*
X313000000Y-79000000D02*
X312075000Y-79000000D01*
X294075000Y-79000000D02*
X293200000Y-78125000D01*
X227699695Y-93725000D02*
X228775000Y-93725000D01*
X347200000Y-112125000D02*
X347200000Y-111800000D01*
X312075000Y-96000000D02*
X311200000Y-95125000D01*
X234574356Y-123012133D02*
X232711420Y-123012133D01*
X242500000Y-125000000D02*
X242000000Y-125000000D01*
X237740000Y-64530000D02*
X237740000Y-82775000D01*
X227000000Y-93025305D02*
X227699695Y-93725000D01*
X277000000Y-79000000D02*
X276075000Y-79000000D01*
X248225000Y-64000000D02*
X249200998Y-64000000D01*
X277000000Y-96000000D02*
X276075000Y-96000000D01*
X249200998Y-64000000D02*
X249700998Y-64500000D01*
X248836190Y-136013106D02*
X247087375Y-136013106D01*
X349000000Y-96000000D02*
X348075000Y-96000000D01*
X242000000Y-125000000D02*
X241000000Y-124000000D01*
X295000000Y-62000000D02*
X294075000Y-62000000D01*
X294088209Y-96013209D02*
X293200000Y-95125000D01*
X294978654Y-96013209D02*
X294088209Y-96013209D01*
X294075000Y-62000000D02*
X293200000Y-61125000D01*
X330075000Y-62000000D02*
X329200000Y-61125000D01*
X330075000Y-79000000D02*
X329200000Y-78125000D01*
X347200000Y-111800000D02*
X348000000Y-111000000D01*
X348075000Y-62000000D02*
X347200000Y-61125000D01*
X349000000Y-79000000D02*
X348075000Y-79000000D01*
X276075000Y-79000000D02*
X275200000Y-78125000D01*
X258075000Y-79000000D02*
X257200000Y-78125000D01*
X312075000Y-62000000D02*
X311200000Y-61125000D01*
X227000000Y-93000000D02*
X227000000Y-93025305D01*
X331000000Y-96000000D02*
X330075000Y-96000000D01*
X228775000Y-93725000D02*
X237740000Y-84760000D01*
X276075000Y-96000000D02*
X275200000Y-95125000D01*
%TO.N,rgb_thumbs_space_cluster*%
X267775000Y-96800305D02*
X267775000Y-96199695D01*
X235500000Y-123606293D02*
X235500000Y-122912472D01*
X267811250Y-97225000D02*
X267811250Y-96836555D01*
X235500000Y-122912472D02*
X234587528Y-122000000D01*
X267811250Y-96836555D02*
X267775000Y-96800305D01*
X234500000Y-122000000D02*
X230754913Y-118254913D01*
X252500000Y-104000000D02*
X256000000Y-104000000D01*
X267811250Y-100188750D02*
X267811250Y-97225000D01*
X234571542Y-124534751D02*
X235500000Y-123606293D01*
X230754913Y-118254913D02*
X230754913Y-113245087D01*
X267775000Y-96199695D02*
X268849695Y-95125000D01*
X234587528Y-122000000D02*
X234500000Y-122000000D01*
X233188111Y-124534751D02*
X234571542Y-124534751D01*
X266500000Y-101500000D02*
X267811250Y-100188750D01*
X230754913Y-113245087D02*
X231000000Y-113000000D01*
X268849695Y-95125000D02*
X270800000Y-95125000D01*
%TO.N,P006*%
X247459687Y-137431345D02*
X248843118Y-137431345D01*
X244216393Y-139984151D02*
X246065283Y-139984151D01*
X238915000Y-93955532D02*
X225575000Y-107295532D01*
X243899347Y-140301197D02*
X244216393Y-139984151D01*
X250000000Y-136274463D02*
X250000000Y-136151611D01*
X222000000Y-114776046D02*
X222000000Y-125500000D01*
X222000000Y-125500000D02*
X237500000Y-141000000D01*
X241276779Y-141000000D02*
X241975582Y-140301197D01*
X247849790Y-137821448D02*
X247459687Y-137431345D01*
X241975582Y-140301197D02*
X243899347Y-140301197D01*
X248817314Y-134968925D02*
X248585378Y-134968925D01*
X246065283Y-139984151D02*
X247849790Y-138199644D01*
X248843118Y-137431345D02*
X250000000Y-136274463D01*
X238915000Y-55735000D02*
X238915000Y-93955532D01*
X242820000Y-51830000D02*
X238915000Y-55735000D01*
X247849790Y-138199644D02*
X247849790Y-137821448D01*
X225575000Y-107295532D02*
X225575000Y-111201046D01*
X237500000Y-141000000D02*
X241276779Y-141000000D01*
X225575000Y-111201046D02*
X222000000Y-114776046D01*
X250000000Y-136151611D02*
X248817314Y-134968925D01*
%TO.N,rgb_matrix_inner_bottom*%
X243000000Y-104500000D02*
X249850000Y-104500000D01*
X240292892Y-140207108D02*
X240275000Y-140189216D01*
X256400000Y-97950000D02*
X256875000Y-97950000D01*
X238950000Y-117889521D02*
X238950000Y-108550000D01*
X256875000Y-97950000D02*
X257200000Y-97625000D01*
X240275000Y-140189216D02*
X240275000Y-138359845D01*
X259725000Y-96300305D02*
X259725000Y-95624998D01*
X241343074Y-137291771D02*
X242726505Y-137291771D01*
X240275000Y-138359845D02*
X241343074Y-137291771D01*
X238950000Y-108550000D02*
X243000000Y-104500000D01*
X243325581Y-122265102D02*
X238950000Y-117889521D01*
X241396101Y-130103899D02*
X243325581Y-128174419D01*
X259725000Y-95624998D02*
X259100002Y-95000000D01*
X257200000Y-97625000D02*
X257200000Y-96875000D01*
X259150305Y-96875000D02*
X259725000Y-96300305D01*
X242726505Y-137291771D02*
X241396101Y-135961367D01*
X257200000Y-96875000D02*
X259150305Y-96875000D01*
X241396101Y-135961367D02*
X241396101Y-130103899D01*
X243325581Y-128174419D02*
X243325581Y-122265102D01*
X249850000Y-104500000D02*
X256400000Y-97950000D01*
%TO.N,rgb_matrix_hell_last*%
X340671784Y-98086000D02*
X343836000Y-98086000D01*
X347200000Y-113875000D02*
X348000000Y-113875000D01*
X349000000Y-110500000D02*
X348000000Y-109500000D01*
X339500000Y-96474695D02*
X340849695Y-95125000D01*
X339792892Y-97207108D02*
X340671784Y-98086000D01*
X339792892Y-97207108D02*
X339500000Y-96914216D01*
X339500000Y-96914216D02*
X339500000Y-96474695D01*
X348000000Y-113875000D02*
X349000000Y-112875000D01*
X343836000Y-98086000D02*
X348000000Y-102250000D01*
X348000000Y-102250000D02*
X348000000Y-109500000D01*
X349000000Y-112875000D02*
X349000000Y-110500000D01*
X340849695Y-95125000D02*
X342800000Y-95125000D01*
%TO.N,rgb_matrix_hell_bottom*%
X348000000Y-93475000D02*
X349100002Y-94575002D01*
X349100002Y-94575002D02*
X349100002Y-94999997D01*
X339775000Y-80189216D02*
X339775000Y-78725000D01*
X339775000Y-78725000D02*
X340375000Y-78125000D01*
X343600000Y-80950000D02*
X348000000Y-85350000D01*
X339792892Y-80207108D02*
X339775000Y-80189216D01*
X347200000Y-96875000D02*
X349150305Y-96875000D01*
X339792892Y-80207108D02*
X340535784Y-80950000D01*
X348000000Y-85350000D02*
X348000000Y-93475000D01*
X350000003Y-96025302D02*
X350000003Y-95899998D01*
X340375000Y-78125000D02*
X342800000Y-78125000D01*
X340535784Y-80950000D02*
X343600000Y-80950000D01*
X350000003Y-95899998D02*
X349100002Y-94999997D01*
X349150305Y-96875000D02*
X350000003Y-96025302D01*
%TO.N,rgb_matrix_hell_home*%
X348000000Y-76475000D02*
X349116843Y-77591843D01*
X349116843Y-77591843D02*
X349116843Y-78006847D01*
X348000000Y-68250000D02*
X348000000Y-76475000D01*
X347200000Y-79875000D02*
X349150305Y-79875000D01*
X339775000Y-62199695D02*
X340849695Y-61125000D01*
X339792892Y-63207108D02*
X339775000Y-63189216D01*
X339775000Y-63189216D02*
X339775000Y-62199695D01*
X339792892Y-63207108D02*
X340671784Y-64086000D01*
X349150305Y-79875000D02*
X349725000Y-79300305D01*
X349725000Y-79300305D02*
X349725000Y-78615004D01*
X340671784Y-64086000D02*
X343836000Y-64086000D01*
X349725000Y-78615004D02*
X349116843Y-78006847D01*
X340849695Y-61125000D02*
X342800000Y-61125000D01*
X343836000Y-64086000D02*
X348000000Y-68250000D01*
%TO.N,rgb_matrix_hell_top*%
X325827657Y-59389500D02*
X333935500Y-59389500D01*
X321775000Y-62199695D02*
X322849695Y-61125000D01*
X321792892Y-63207108D02*
X321775000Y-63189216D01*
X349725000Y-61624995D02*
X349100002Y-60999997D01*
X333935500Y-59389500D02*
X334000000Y-59325000D01*
X347200000Y-62875000D02*
X349150305Y-62875000D01*
X349725000Y-62300305D02*
X349725000Y-61624995D01*
X324800000Y-61125000D02*
X324800000Y-60417157D01*
X321775000Y-63189216D02*
X321775000Y-62199695D01*
X322849695Y-61125000D02*
X324800000Y-61125000D01*
X349150305Y-62875000D02*
X349725000Y-62300305D01*
X324800000Y-60417157D02*
X325827657Y-59389500D01*
%TO.N,rgb_matrix_pinky_bottom*%
X306800000Y-94375000D02*
X307785500Y-93389500D01*
X303775000Y-96199695D02*
X304849695Y-95125000D01*
X307785500Y-93389500D02*
X310935500Y-93389500D01*
X325525000Y-93325000D02*
X325589500Y-93389500D01*
X331136640Y-94611640D02*
X331136640Y-95009377D01*
X304849695Y-95125000D02*
X306800000Y-95125000D01*
X332000000Y-96025305D02*
X332000000Y-95872737D01*
X303775000Y-97189216D02*
X303775000Y-96199695D01*
X331150305Y-96875000D02*
X332000000Y-96025305D01*
X329914500Y-93389500D02*
X331136640Y-94611640D01*
X303792892Y-97207108D02*
X303775000Y-97189216D01*
X310935500Y-93389500D02*
X311000000Y-93325000D01*
X329200000Y-96875000D02*
X331150305Y-96875000D01*
X325589500Y-93389500D02*
X329914500Y-93389500D01*
X332000000Y-95872737D02*
X331136640Y-95009377D01*
X306800000Y-95125000D02*
X306800000Y-94375000D01*
%TO.N,rgb_matrix_pinky_home*%
X328875000Y-80950000D02*
X329200000Y-80625000D01*
X329200000Y-79875000D02*
X331150305Y-79875000D01*
X331945502Y-79079803D02*
X331945502Y-78835506D01*
X328875000Y-84225000D02*
X327875000Y-83225000D01*
X321775000Y-97188750D02*
X321775000Y-95725000D01*
X322375000Y-95125000D02*
X324800000Y-95125000D01*
X328000000Y-80950000D02*
X328875000Y-80950000D01*
X324800000Y-95125000D02*
X324800000Y-90545001D01*
X328875000Y-86470001D02*
X328875000Y-84225000D01*
X321775000Y-95725000D02*
X322375000Y-95125000D01*
X324800000Y-90545001D02*
X328875000Y-86470001D01*
X331945502Y-78835506D02*
X331116843Y-78006847D01*
X321811250Y-97225000D02*
X321775000Y-97188750D01*
X329200000Y-80625000D02*
X329200000Y-79875000D01*
X327875000Y-81075000D02*
X328000000Y-80950000D01*
X331150305Y-79875000D02*
X331945502Y-79079803D01*
X327875000Y-83225000D02*
X327875000Y-81075000D01*
%TO.N,rgb_matrix_pinky_top*%
X328875000Y-69470001D02*
X324800000Y-73545001D01*
X329200000Y-62875000D02*
X329200000Y-63582843D01*
X329200000Y-62875000D02*
X331150305Y-62875000D01*
X321792892Y-80207108D02*
X321775000Y-80189216D01*
X331150305Y-62875000D02*
X332012653Y-62012652D01*
X322849695Y-78125000D02*
X324800000Y-78125000D01*
X321775000Y-80189216D02*
X321775000Y-79199695D01*
X328875000Y-67573350D02*
X328875000Y-69470001D01*
X327875000Y-64375000D02*
X327875000Y-66573350D01*
X321775000Y-79199695D02*
X322849695Y-78125000D01*
X324800000Y-73545001D02*
X324800000Y-78125000D01*
X332012653Y-61912651D02*
X331100002Y-61000000D01*
X328407843Y-64375000D02*
X327875000Y-64375000D01*
X327875000Y-66573350D02*
X328875000Y-67573350D01*
X332012653Y-62012652D02*
X332012653Y-61912651D01*
X329200000Y-63582843D02*
X328407843Y-64375000D01*
%TO.N,rgb_matrix_ring_bottom*%
X312000000Y-85350000D02*
X312000000Y-93475000D01*
X303792892Y-80207108D02*
X303775000Y-80189216D01*
X312000000Y-93475000D02*
X313100002Y-94575002D01*
X313923880Y-96101425D02*
X313923880Y-95823875D01*
X303775000Y-80189216D02*
X303775000Y-79199695D01*
X304671784Y-81086000D02*
X307736000Y-81086000D01*
X303792892Y-80207108D02*
X304671784Y-81086000D01*
X313150305Y-96875000D02*
X313923880Y-96101425D01*
X303775000Y-79199695D02*
X304849695Y-78125000D01*
X304849695Y-78125000D02*
X306800000Y-78125000D01*
X313100002Y-94575002D02*
X313100002Y-94999997D01*
X313923880Y-95823875D02*
X313100002Y-94999997D01*
X307736000Y-81086000D02*
X312000000Y-85350000D01*
X311200000Y-96875000D02*
X313150305Y-96875000D01*
%TO.N,rgb_matrix_ring_home*%
X304849695Y-61125000D02*
X306800000Y-61125000D01*
X311200000Y-79875000D02*
X313150305Y-79875000D01*
X312125000Y-68375000D02*
X312125000Y-76625000D01*
X304671784Y-64086000D02*
X307836000Y-64086000D01*
X313150305Y-79875000D02*
X313923880Y-79101425D01*
X313116843Y-77616843D02*
X313116843Y-78006847D01*
X303775000Y-63189216D02*
X303775000Y-62199695D01*
X303792892Y-63207108D02*
X304671784Y-64086000D01*
X303775000Y-62199695D02*
X304849695Y-61125000D01*
X307836000Y-64086000D02*
X312125000Y-68375000D01*
X313923880Y-78813884D02*
X313116843Y-78006847D01*
X303792892Y-63207108D02*
X303775000Y-63189216D01*
X312125000Y-76625000D02*
X313116843Y-77616843D01*
X313923880Y-79101425D02*
X313923880Y-78813884D01*
%TO.N,rgb_matrix_ring_top*%
X311200000Y-62875000D02*
X313150305Y-62875000D01*
X313725000Y-62300305D02*
X313725000Y-61615004D01*
X285775000Y-63188750D02*
X285775000Y-61725000D01*
X289785500Y-59389500D02*
X297435500Y-59389500D01*
X297435500Y-59389500D02*
X297500000Y-59325000D01*
X288800000Y-60375000D02*
X289785500Y-59389500D01*
X313725000Y-61615004D02*
X313116843Y-61006847D01*
X288800000Y-61125000D02*
X288800000Y-60375000D01*
X286375000Y-61125000D02*
X288800000Y-61125000D01*
X313116843Y-59941843D02*
X312500000Y-59325000D01*
X285811250Y-63225000D02*
X285775000Y-63188750D01*
X313150305Y-62875000D02*
X313725000Y-62300305D01*
X313116843Y-61006847D02*
X313116843Y-59941843D01*
X285775000Y-61725000D02*
X286375000Y-61125000D01*
%TO.N,rgb_matrix_middle_bottom*%
X296000000Y-95903158D02*
X295120103Y-95023261D01*
X293200000Y-96875000D02*
X295142168Y-96875000D01*
X296000000Y-96017168D02*
X296000000Y-95903158D01*
X295142168Y-96875000D02*
X296000000Y-96017168D01*
%TO.N,rgb_matrix_middle_home*%
X285775000Y-97189216D02*
X285775000Y-96199695D01*
X295995662Y-79029643D02*
X295995662Y-78885666D01*
X295150305Y-79875000D02*
X295995662Y-79029643D01*
X286849695Y-95125000D02*
X288800000Y-95125000D01*
X295995662Y-78885666D02*
X295116843Y-78006847D01*
X292050000Y-80950000D02*
X292875000Y-80950000D01*
X292875000Y-84375000D02*
X291875000Y-83375000D01*
X291875000Y-81125000D02*
X292050000Y-80950000D01*
X288800000Y-95125000D02*
X288800000Y-90545001D01*
X293200000Y-80625000D02*
X293200000Y-79875000D01*
X292875000Y-80950000D02*
X293200000Y-80625000D01*
X292875000Y-86470001D02*
X292875000Y-84375000D01*
X291875000Y-83375000D02*
X291875000Y-81125000D01*
X285775000Y-96199695D02*
X286849695Y-95125000D01*
X293200000Y-79875000D02*
X295150305Y-79875000D01*
X285792892Y-97207108D02*
X285775000Y-97189216D01*
X288800000Y-90545001D02*
X292875000Y-86470001D01*
%TO.N,rgb_matrix_middle_top*%
X288800000Y-73545001D02*
X292875000Y-69470001D01*
X293200000Y-62875000D02*
X295150305Y-62875000D01*
X285775000Y-79199695D02*
X286849695Y-78125000D01*
X292875000Y-67225000D02*
X291500000Y-65850000D01*
X292125000Y-63950000D02*
X292875000Y-63950000D01*
X296012655Y-61902659D02*
X295116843Y-61006847D01*
X293200000Y-63625000D02*
X293200000Y-62875000D01*
X288800000Y-78125000D02*
X288800000Y-73545001D01*
X291500000Y-65850000D02*
X291500000Y-64575000D01*
X285775000Y-80189218D02*
X285775000Y-79199695D01*
X292875000Y-69470001D02*
X292875000Y-67225000D01*
X286849695Y-78125000D02*
X288800000Y-78125000D01*
X292875000Y-63950000D02*
X293200000Y-63625000D01*
X285792891Y-80207109D02*
X285775000Y-80189218D01*
X291500000Y-64575000D02*
X292125000Y-63950000D01*
X295150305Y-62875000D02*
X296012655Y-62012650D01*
X296012655Y-62012650D02*
X296012655Y-61902659D01*
%TO.N,rgb_matrix_index_home*%
X275200000Y-79875000D02*
X277150305Y-79875000D01*
X276000000Y-68350000D02*
X276000000Y-76475000D01*
X267500000Y-62474695D02*
X268849695Y-61125000D01*
X267500000Y-62914216D02*
X267500000Y-62474695D01*
X277100002Y-77575002D02*
X277100002Y-77999997D01*
X267792892Y-63207108D02*
X267500000Y-62914216D01*
X268849695Y-61125000D02*
X270800000Y-61125000D01*
X277725000Y-78624995D02*
X277100002Y-77999997D01*
X276000000Y-76475000D02*
X277100002Y-77575002D01*
X271600000Y-63950000D02*
X276000000Y-68350000D01*
X277150305Y-79875000D02*
X277725000Y-79300305D01*
X268535784Y-63950000D02*
X271600000Y-63950000D01*
X267792892Y-63207108D02*
X268535784Y-63950000D01*
X277725000Y-79300305D02*
X277725000Y-78624995D01*
%TO.N,rgb_matrix_index_top*%
X275200000Y-62875000D02*
X277150305Y-62875000D01*
X277725000Y-62300305D02*
X277725000Y-61615004D01*
X277725000Y-61615004D02*
X277116843Y-61006847D01*
X252800000Y-61125000D02*
X252800000Y-60375000D01*
X250849695Y-61125000D02*
X252800000Y-61125000D01*
X277116843Y-61006847D02*
X277116843Y-60441843D01*
X252800000Y-60375000D02*
X253785500Y-59389500D01*
X261935500Y-59389500D02*
X262000000Y-59325000D01*
X277150305Y-62875000D02*
X277725000Y-62300305D01*
X249792892Y-63207108D02*
X249775000Y-63189216D01*
X249775000Y-62199695D02*
X250849695Y-61125000D01*
X253785500Y-59389500D02*
X261935500Y-59389500D01*
X277116843Y-60441843D02*
X276000000Y-59325000D01*
X249775000Y-63189216D02*
X249775000Y-62199695D01*
%TO.N,rgb_matrix_inner_home*%
X256875000Y-86126650D02*
X256875000Y-84375000D01*
X256875000Y-84375000D02*
X255875000Y-83375000D01*
X249775000Y-97189216D02*
X249775000Y-96199695D01*
X259725000Y-78624998D02*
X259100002Y-78000000D01*
X259725000Y-79300305D02*
X259725000Y-78624998D01*
X259150305Y-79875000D02*
X259725000Y-79300305D01*
X252800000Y-90201650D02*
X256875000Y-86126650D01*
X249792892Y-97207108D02*
X249775000Y-97189216D01*
X256875000Y-80950000D02*
X257200000Y-80625000D01*
X255875000Y-83375000D02*
X255875000Y-81200000D01*
X252800000Y-95125000D02*
X252800000Y-90201650D01*
X256125000Y-80950000D02*
X256875000Y-80950000D01*
X257200000Y-79875000D02*
X259150305Y-79875000D01*
X257200000Y-80625000D02*
X257200000Y-79875000D01*
X249775000Y-96199695D02*
X250849695Y-95125000D01*
X255875000Y-81200000D02*
X256125000Y-80950000D01*
X250849695Y-95125000D02*
X252800000Y-95125000D01*
%TO.N,rgb_matrix_inner_top*%
X252800000Y-78125000D02*
X252800000Y-73201650D01*
X259725000Y-61624998D02*
X259100002Y-61000000D01*
X249792892Y-80207108D02*
X249775000Y-80189216D01*
X256499695Y-64375000D02*
X257200000Y-63674695D01*
X250849695Y-78125000D02*
X252800000Y-78125000D01*
X249775000Y-79199695D02*
X250849695Y-78125000D01*
X249775000Y-80189216D02*
X249775000Y-79199695D01*
X259725000Y-62300305D02*
X259725000Y-61624998D01*
X255875000Y-66225000D02*
X255875000Y-64375000D01*
X256875000Y-69126650D02*
X256875000Y-67225000D01*
X257200000Y-63674695D02*
X257200000Y-62875000D01*
X255875000Y-64375000D02*
X256499695Y-64375000D01*
X259150305Y-62875000D02*
X259725000Y-62300305D01*
X256875000Y-67225000D02*
X255875000Y-66225000D01*
X252800000Y-73201650D02*
X256875000Y-69126650D01*
X257200000Y-62875000D02*
X259150305Y-62875000D01*
%TO.N,P104*%
X289350000Y-99300000D02*
X287190000Y-99300000D01*
X229108721Y-128130283D02*
X228369957Y-128869047D01*
X271350000Y-99300000D02*
X269190000Y-99300000D01*
X307350000Y-99300000D02*
X305190000Y-99300000D01*
X253350000Y-99300000D02*
X251190000Y-99300000D01*
X247314160Y-121973920D02*
X246023188Y-121973920D01*
X323190000Y-99300000D02*
X325350000Y-99300000D01*
X341190000Y-99300000D02*
X343350000Y-99300000D01*
X246023188Y-121973920D02*
X245284424Y-122712684D01*
X230399693Y-128130283D02*
X229108721Y-128130283D01*
%TO.N,P106*%
X274468095Y-116300000D02*
X341190000Y-116300000D01*
X249741219Y-141026876D02*
X274468095Y-116300000D01*
X244671269Y-141026876D02*
X249741219Y-141026876D01*
X343350000Y-116300000D02*
X341190000Y-116300000D01*
X243380297Y-141026876D02*
X242641533Y-141765640D01*
X244671269Y-141026876D02*
X243380297Y-141026876D01*
%TO.N,P009*%
X247474694Y-85000000D02*
X247487347Y-85012653D01*
X271350000Y-82300000D02*
X269190000Y-82300000D01*
X287190000Y-82300000D02*
X289350000Y-82300000D01*
X253350000Y-82300000D02*
X251190000Y-82300000D01*
X249542892Y-82300000D02*
X251190000Y-82300000D01*
X343350000Y-82300000D02*
X341190000Y-82300000D01*
X241500000Y-85000000D02*
X247474694Y-85000000D01*
X325350000Y-82300000D02*
X323190000Y-82300000D01*
X305190000Y-82300000D02*
X307350000Y-82300000D01*
X248342892Y-83500000D02*
X249542892Y-82300000D01*
%TO.N,P010*%
X253350000Y-65300000D02*
X251190000Y-65300000D01*
X325350000Y-65300000D02*
X323190000Y-65300000D01*
X307350000Y-65300000D02*
X305190000Y-65300000D01*
X248225000Y-66000000D02*
X248925000Y-65300000D01*
X248925000Y-65300000D02*
X251190000Y-65300000D01*
X240906300Y-65868700D02*
X246368700Y-65868700D01*
X289350000Y-65300000D02*
X287190000Y-65300000D01*
X246368700Y-65868700D02*
X246500000Y-66000000D01*
X343350000Y-65300000D02*
X341190000Y-65300000D01*
X240275000Y-66500000D02*
X240906300Y-65868700D01*
X271350000Y-65300000D02*
X269190000Y-65300000D01*
%TO.N,RAW*%
X226375000Y-96689340D02*
X226375000Y-105125000D01*
X226375000Y-105125000D02*
X224500000Y-107000000D01*
X225314340Y-54095660D02*
X225314340Y-95628680D01*
X225314340Y-95628680D02*
X226375000Y-96689340D01*
X227580000Y-51830000D02*
X225314340Y-54095660D01*
%TO.N,RST*%
X227580000Y-56910000D02*
X236500000Y-65830000D01*
X236500000Y-82000000D02*
X236500000Y-84500000D01*
X236500000Y-84500000D02*
X228000000Y-93000000D01*
X236500000Y-65830000D02*
X236500000Y-82000000D01*
%TO.N,P022*%
X240280000Y-69610000D02*
X242820000Y-67070000D01*
X240280000Y-82775000D02*
X240280000Y-69610000D01*
%TD*%
M02*
