%TF.GenerationSoftware,KiCad,Pcbnew,8.0.8*%
%TF.CreationDate,2025-02-15T03:14:28-10:00*%
%TF.ProjectId,theguy2,74686567-7579-4322-9e6b-696361645f70,v1.0.0*%
%TF.SameCoordinates,Original*%
%TF.FileFunction,Paste,Bot*%
%TF.FilePolarity,Positive*%
%FSLAX46Y46*%
G04 Gerber Fmt 4.6, Leading zero omitted, Abs format (unit mm)*
G04 Created by KiCad (PCBNEW 8.0.8) date 2025-02-15 03:14:28*
%MOMM*%
%LPD*%
G01*
G04 APERTURE LIST*
G04 Aperture macros list*
%AMRotRect*
0 Rectangle, with rotation*
0 The origin of the aperture is its center*
0 $1 length*
0 $2 width*
0 $3 Rotation angle, in degrees counterclockwise*
0 Add horizontal line*
21,1,$1,$2,0,0,$3*%
G04 Aperture macros list end*
%ADD10R,2.600000X2.600000*%
%ADD11RotRect,2.600000X1.000000X20.000000*%
%ADD12R,0.900000X1.200000*%
%ADD13R,2.600000X1.000000*%
%ADD14RotRect,0.900000X1.200000X20.000000*%
%ADD15RotRect,2.600000X2.600000X20.000000*%
G04 APERTURE END LIST*
D10*
%TO.C,S20*%
X251725000Y-85350000D03*
X263275000Y-87550000D03*
%TD*%
D11*
%TO.C,LED24*%
X229053464Y-126039639D03*
X228454929Y-124395177D03*
X232589576Y-122890289D03*
X233188111Y-124534751D03*
%TD*%
D12*
%TO.C,D13*%
X307350000Y-65300000D03*
X310650000Y-65300000D03*
%TD*%
D13*
%TO.C,LED13*%
X306800000Y-62875000D03*
X306800000Y-61125000D03*
X311200000Y-61125000D03*
X311200000Y-62875000D03*
%TD*%
%TO.C,LED21*%
X252800000Y-79875000D03*
X252800000Y-78125000D03*
X257200000Y-78125000D03*
X257200000Y-79875000D03*
%TD*%
D14*
%TO.C,D24*%
X230399693Y-128130283D03*
X233500679Y-127001617D03*
%TD*%
D15*
%TO.C,S24*%
X224101512Y-115577354D03*
X235707406Y-113694345D03*
%TD*%
D12*
%TO.C,D9*%
X325350000Y-82300000D03*
X328650000Y-82300000D03*
%TD*%
D14*
%TO.C,D23*%
X247314160Y-121973920D03*
X250415146Y-120845254D03*
%TD*%
D12*
%TO.C,D11*%
X307350000Y-99300000D03*
X310650000Y-99300000D03*
%TD*%
D10*
%TO.C,S15*%
X287725000Y-68350000D03*
X299275000Y-70550000D03*
%TD*%
D11*
%TO.C,LED25*%
X243325040Y-138936233D03*
X242726505Y-137291771D03*
X246861152Y-135786883D03*
X247459687Y-137431345D03*
%TD*%
D10*
%TO.C,S8*%
X323725000Y-85350000D03*
X335275000Y-87550000D03*
%TD*%
D12*
%TO.C,D18*%
X271350000Y-82300000D03*
X274650000Y-82300000D03*
%TD*%
%TO.C,D21*%
X253350000Y-82300000D03*
X256650000Y-82300000D03*
%TD*%
D10*
%TO.C,S19*%
X269725000Y-51350000D03*
X281275000Y-53550000D03*
%TD*%
D12*
%TO.C,D7*%
X343350000Y-65300000D03*
X346650000Y-65300000D03*
%TD*%
D13*
%TO.C,LED4*%
X342800000Y-113875000D03*
X342800000Y-112125000D03*
X347200000Y-112125000D03*
X347200000Y-113875000D03*
%TD*%
D10*
%TO.C,S14*%
X287725000Y-85350000D03*
X299275000Y-87550000D03*
%TD*%
D12*
%TO.C,D22*%
X253350000Y-65300000D03*
X256650000Y-65300000D03*
%TD*%
%TO.C,D8*%
X325350000Y-99300000D03*
X328650000Y-99300000D03*
%TD*%
D11*
%TO.C,LED23*%
X245967931Y-119883277D03*
X245369396Y-118238815D03*
X249504043Y-116733927D03*
X250102578Y-118378389D03*
%TD*%
D10*
%TO.C,S6*%
X341725000Y-68350000D03*
X353275000Y-70550000D03*
%TD*%
%TO.C,S18*%
X269725000Y-68350000D03*
X281275000Y-70550000D03*
%TD*%
D13*
%TO.C,LED9*%
X324800000Y-79875000D03*
X324800000Y-78125000D03*
X329200000Y-78125000D03*
X329200000Y-79875000D03*
%TD*%
D12*
%TO.C,D12*%
X307350000Y-82300000D03*
X310650000Y-82300000D03*
%TD*%
D10*
%TO.C,S11*%
X305725000Y-85350000D03*
X317275000Y-87550000D03*
%TD*%
%TO.C,S4*%
X341725000Y-102350000D03*
X353275000Y-104550000D03*
%TD*%
D13*
%TO.C,LED20*%
X252800000Y-96875000D03*
X252800000Y-95125000D03*
X257200000Y-95125000D03*
X257200000Y-96875000D03*
%TD*%
%TO.C,LED10*%
X324800000Y-62875000D03*
X324800000Y-61125000D03*
X329200000Y-61125000D03*
X329200000Y-62875000D03*
%TD*%
D12*
%TO.C,D10*%
X325350000Y-65300000D03*
X328650000Y-65300000D03*
%TD*%
D13*
%TO.C,LED19*%
X270800000Y-62875000D03*
X270800000Y-61125000D03*
X275200000Y-61125000D03*
X275200000Y-62875000D03*
%TD*%
%TO.C,LED16*%
X288800000Y-62875000D03*
X288800000Y-61125000D03*
X293200000Y-61125000D03*
X293200000Y-62875000D03*
%TD*%
%TO.C,LED11*%
X306800000Y-96875000D03*
X306800000Y-95125000D03*
X311200000Y-95125000D03*
X311200000Y-96875000D03*
%TD*%
%TO.C,LED8*%
X324800000Y-96875000D03*
X324800000Y-95125000D03*
X329200000Y-95125000D03*
X329200000Y-96875000D03*
%TD*%
D10*
%TO.C,S17*%
X269725000Y-85350000D03*
X281275000Y-87550000D03*
%TD*%
D13*
%TO.C,LED5*%
X342800000Y-96875000D03*
X342800000Y-95125000D03*
X347200000Y-95125000D03*
X347200000Y-96875000D03*
%TD*%
D10*
%TO.C,S13*%
X305725000Y-51350000D03*
X317275000Y-53550000D03*
%TD*%
D12*
%TO.C,D16*%
X289350000Y-65300000D03*
X292650000Y-65300000D03*
%TD*%
D13*
%TO.C,LED15*%
X288800000Y-79875000D03*
X288800000Y-78125000D03*
X293200000Y-78125000D03*
X293200000Y-79875000D03*
%TD*%
D14*
%TO.C,D25*%
X244671269Y-141026876D03*
X247772255Y-139898210D03*
%TD*%
D13*
%TO.C,LED7*%
X342800000Y-62875000D03*
X342800000Y-61125000D03*
X347200000Y-61125000D03*
X347200000Y-62875000D03*
%TD*%
%TO.C,LED18*%
X270800000Y-79875000D03*
X270800000Y-78125000D03*
X275200000Y-78125000D03*
X275200000Y-79875000D03*
%TD*%
D12*
%TO.C,D6*%
X343350000Y-82300000D03*
X346650000Y-82300000D03*
%TD*%
D10*
%TO.C,S12*%
X305725000Y-68350000D03*
X317275000Y-70550000D03*
%TD*%
D15*
%TO.C,S23*%
X241015979Y-109420992D03*
X252621873Y-107537983D03*
%TD*%
D12*
%TO.C,D14*%
X289350000Y-99300000D03*
X292650000Y-99300000D03*
%TD*%
D10*
%TO.C,S5*%
X341725000Y-85350000D03*
X353275000Y-87550000D03*
%TD*%
%TO.C,S22*%
X251725000Y-51350000D03*
X263275000Y-53550000D03*
%TD*%
D13*
%TO.C,LED22*%
X252800000Y-62875000D03*
X252800000Y-61125000D03*
X257200000Y-61125000D03*
X257200000Y-62875000D03*
%TD*%
D10*
%TO.C,S16*%
X287725000Y-51350000D03*
X299275000Y-53550000D03*
%TD*%
%TO.C,S21*%
X251725000Y-68350000D03*
X263275000Y-70550000D03*
%TD*%
D13*
%TO.C,LED6*%
X342800000Y-79875000D03*
X342800000Y-78125000D03*
X347200000Y-78125000D03*
X347200000Y-79875000D03*
%TD*%
D12*
%TO.C,D5*%
X343350000Y-99300000D03*
X346650000Y-99300000D03*
%TD*%
D10*
%TO.C,S9*%
X323725000Y-68350000D03*
X335275000Y-70550000D03*
%TD*%
%TO.C,S10*%
X323725000Y-51350000D03*
X335275000Y-53550000D03*
%TD*%
D13*
%TO.C,LED17*%
X270800000Y-96875000D03*
X270800000Y-95125000D03*
X275200000Y-95125000D03*
X275200000Y-96875000D03*
%TD*%
D12*
%TO.C,D19*%
X271350000Y-65300000D03*
X274650000Y-65300000D03*
%TD*%
%TO.C,D20*%
X253350000Y-99300000D03*
X256650000Y-99300000D03*
%TD*%
%TO.C,D15*%
X289350000Y-82300000D03*
X292650000Y-82300000D03*
%TD*%
%TO.C,D4*%
X343350000Y-116300000D03*
X346650000Y-116300000D03*
%TD*%
D10*
%TO.C,S7*%
X341725000Y-51350000D03*
X353275000Y-53550000D03*
%TD*%
D13*
%TO.C,LED14*%
X288800000Y-96875000D03*
X288800000Y-95125000D03*
X293200000Y-95125000D03*
X293200000Y-96875000D03*
%TD*%
%TO.C,LED12*%
X306800000Y-79875000D03*
X306800000Y-78125000D03*
X311200000Y-78125000D03*
X311200000Y-79875000D03*
%TD*%
D12*
%TO.C,D17*%
X271350000Y-99300000D03*
X274650000Y-99300000D03*
%TD*%
D15*
%TO.C,S25*%
X238373088Y-128473947D03*
X249978982Y-126590938D03*
%TD*%
M02*
