%TF.GenerationSoftware,KiCad,Pcbnew,8.0.8*%
%TF.CreationDate,2025-02-15T03:14:29-10:00*%
%TF.ProjectId,theguy2,74686567-7579-4322-9e6b-696361645f70,v1.0.0*%
%TF.SameCoordinates,Original*%
%TF.FileFunction,Legend,Bot*%
%TF.FilePolarity,Positive*%
%FSLAX46Y46*%
G04 Gerber Fmt 4.6, Leading zero omitted, Abs format (unit mm)*
G04 Created by KiCad (PCBNEW 8.0.8) date 2025-02-15 03:14:29*
%MOMM*%
%LPD*%
G01*
G04 APERTURE LIST*
%ADD10C,0.150000*%
%ADD11C,0.100000*%
%ADD12C,0.381000*%
%ADD13C,1.752600*%
G04 APERTURE END LIST*
D10*
X240566104Y-80441667D02*
X240604200Y-80403571D01*
X240604200Y-80403571D02*
X240642295Y-80289286D01*
X240642295Y-80289286D02*
X240642295Y-80213095D01*
X240642295Y-80213095D02*
X240604200Y-80098809D01*
X240604200Y-80098809D02*
X240528009Y-80022619D01*
X240528009Y-80022619D02*
X240451819Y-79984524D01*
X240451819Y-79984524D02*
X240299438Y-79946428D01*
X240299438Y-79946428D02*
X240185152Y-79946428D01*
X240185152Y-79946428D02*
X240032771Y-79984524D01*
X240032771Y-79984524D02*
X239956580Y-80022619D01*
X239956580Y-80022619D02*
X239880390Y-80098809D01*
X239880390Y-80098809D02*
X239842295Y-80213095D01*
X239842295Y-80213095D02*
X239842295Y-80289286D01*
X239842295Y-80289286D02*
X239880390Y-80403571D01*
X239880390Y-80403571D02*
X239918485Y-80441667D01*
X240604200Y-80746428D02*
X240642295Y-80860714D01*
X240642295Y-80860714D02*
X240642295Y-81051190D01*
X240642295Y-81051190D02*
X240604200Y-81127381D01*
X240604200Y-81127381D02*
X240566104Y-81165476D01*
X240566104Y-81165476D02*
X240489914Y-81203571D01*
X240489914Y-81203571D02*
X240413723Y-81203571D01*
X240413723Y-81203571D02*
X240337533Y-81165476D01*
X240337533Y-81165476D02*
X240299438Y-81127381D01*
X240299438Y-81127381D02*
X240261342Y-81051190D01*
X240261342Y-81051190D02*
X240223247Y-80898809D01*
X240223247Y-80898809D02*
X240185152Y-80822619D01*
X240185152Y-80822619D02*
X240147057Y-80784524D01*
X240147057Y-80784524D02*
X240070866Y-80746428D01*
X240070866Y-80746428D02*
X239994676Y-80746428D01*
X239994676Y-80746428D02*
X239918485Y-80784524D01*
X239918485Y-80784524D02*
X239880390Y-80822619D01*
X239880390Y-80822619D02*
X239842295Y-80898809D01*
X239842295Y-80898809D02*
X239842295Y-81089286D01*
X239842295Y-81089286D02*
X239880390Y-81203571D01*
X237340390Y-79965476D02*
X237302295Y-79889286D01*
X237302295Y-79889286D02*
X237302295Y-79775000D01*
X237302295Y-79775000D02*
X237340390Y-79660714D01*
X237340390Y-79660714D02*
X237416580Y-79584524D01*
X237416580Y-79584524D02*
X237492771Y-79546429D01*
X237492771Y-79546429D02*
X237645152Y-79508333D01*
X237645152Y-79508333D02*
X237759438Y-79508333D01*
X237759438Y-79508333D02*
X237911819Y-79546429D01*
X237911819Y-79546429D02*
X237988009Y-79584524D01*
X237988009Y-79584524D02*
X238064200Y-79660714D01*
X238064200Y-79660714D02*
X238102295Y-79775000D01*
X238102295Y-79775000D02*
X238102295Y-79851191D01*
X238102295Y-79851191D02*
X238064200Y-79965476D01*
X238064200Y-79965476D02*
X238026104Y-80003572D01*
X238026104Y-80003572D02*
X237759438Y-80003572D01*
X237759438Y-80003572D02*
X237759438Y-79851191D01*
X238102295Y-80346429D02*
X237302295Y-80346429D01*
X237302295Y-80346429D02*
X238102295Y-80803572D01*
X238102295Y-80803572D02*
X237302295Y-80803572D01*
X238102295Y-81184524D02*
X237302295Y-81184524D01*
X237302295Y-81184524D02*
X237302295Y-81375000D01*
X237302295Y-81375000D02*
X237340390Y-81489286D01*
X237340390Y-81489286D02*
X237416580Y-81565476D01*
X237416580Y-81565476D02*
X237492771Y-81603571D01*
X237492771Y-81603571D02*
X237645152Y-81641667D01*
X237645152Y-81641667D02*
X237759438Y-81641667D01*
X237759438Y-81641667D02*
X237911819Y-81603571D01*
X237911819Y-81603571D02*
X237988009Y-81565476D01*
X237988009Y-81565476D02*
X238064200Y-81489286D01*
X238064200Y-81489286D02*
X238102295Y-81375000D01*
X238102295Y-81375000D02*
X238102295Y-81184524D01*
X232984200Y-79622618D02*
X233022295Y-79736904D01*
X233022295Y-79736904D02*
X233022295Y-79927380D01*
X233022295Y-79927380D02*
X232984200Y-80003571D01*
X232984200Y-80003571D02*
X232946104Y-80041666D01*
X232946104Y-80041666D02*
X232869914Y-80079761D01*
X232869914Y-80079761D02*
X232793723Y-80079761D01*
X232793723Y-80079761D02*
X232717533Y-80041666D01*
X232717533Y-80041666D02*
X232679438Y-80003571D01*
X232679438Y-80003571D02*
X232641342Y-79927380D01*
X232641342Y-79927380D02*
X232603247Y-79774999D01*
X232603247Y-79774999D02*
X232565152Y-79698809D01*
X232565152Y-79698809D02*
X232527057Y-79660714D01*
X232527057Y-79660714D02*
X232450866Y-79622618D01*
X232450866Y-79622618D02*
X232374676Y-79622618D01*
X232374676Y-79622618D02*
X232298485Y-79660714D01*
X232298485Y-79660714D02*
X232260390Y-79698809D01*
X232260390Y-79698809D02*
X232222295Y-79774999D01*
X232222295Y-79774999D02*
X232222295Y-79965476D01*
X232222295Y-79965476D02*
X232260390Y-80079761D01*
X232946104Y-80879762D02*
X232984200Y-80841666D01*
X232984200Y-80841666D02*
X233022295Y-80727381D01*
X233022295Y-80727381D02*
X233022295Y-80651190D01*
X233022295Y-80651190D02*
X232984200Y-80536904D01*
X232984200Y-80536904D02*
X232908009Y-80460714D01*
X232908009Y-80460714D02*
X232831819Y-80422619D01*
X232831819Y-80422619D02*
X232679438Y-80384523D01*
X232679438Y-80384523D02*
X232565152Y-80384523D01*
X232565152Y-80384523D02*
X232412771Y-80422619D01*
X232412771Y-80422619D02*
X232336580Y-80460714D01*
X232336580Y-80460714D02*
X232260390Y-80536904D01*
X232260390Y-80536904D02*
X232222295Y-80651190D01*
X232222295Y-80651190D02*
X232222295Y-80727381D01*
X232222295Y-80727381D02*
X232260390Y-80841666D01*
X232260390Y-80841666D02*
X232298485Y-80879762D01*
X233022295Y-81603571D02*
X233022295Y-81222619D01*
X233022295Y-81222619D02*
X232222295Y-81222619D01*
X230444200Y-79603571D02*
X230482295Y-79717857D01*
X230482295Y-79717857D02*
X230482295Y-79908333D01*
X230482295Y-79908333D02*
X230444200Y-79984524D01*
X230444200Y-79984524D02*
X230406104Y-80022619D01*
X230406104Y-80022619D02*
X230329914Y-80060714D01*
X230329914Y-80060714D02*
X230253723Y-80060714D01*
X230253723Y-80060714D02*
X230177533Y-80022619D01*
X230177533Y-80022619D02*
X230139438Y-79984524D01*
X230139438Y-79984524D02*
X230101342Y-79908333D01*
X230101342Y-79908333D02*
X230063247Y-79755952D01*
X230063247Y-79755952D02*
X230025152Y-79679762D01*
X230025152Y-79679762D02*
X229987057Y-79641667D01*
X229987057Y-79641667D02*
X229910866Y-79603571D01*
X229910866Y-79603571D02*
X229834676Y-79603571D01*
X229834676Y-79603571D02*
X229758485Y-79641667D01*
X229758485Y-79641667D02*
X229720390Y-79679762D01*
X229720390Y-79679762D02*
X229682295Y-79755952D01*
X229682295Y-79755952D02*
X229682295Y-79946429D01*
X229682295Y-79946429D02*
X229720390Y-80060714D01*
X230482295Y-80403572D02*
X229682295Y-80403572D01*
X229682295Y-80403572D02*
X229682295Y-80594048D01*
X229682295Y-80594048D02*
X229720390Y-80708334D01*
X229720390Y-80708334D02*
X229796580Y-80784524D01*
X229796580Y-80784524D02*
X229872771Y-80822619D01*
X229872771Y-80822619D02*
X230025152Y-80860715D01*
X230025152Y-80860715D02*
X230139438Y-80860715D01*
X230139438Y-80860715D02*
X230291819Y-80822619D01*
X230291819Y-80822619D02*
X230368009Y-80784524D01*
X230368009Y-80784524D02*
X230444200Y-80708334D01*
X230444200Y-80708334D02*
X230482295Y-80594048D01*
X230482295Y-80594048D02*
X230482295Y-80403572D01*
X230253723Y-81165476D02*
X230253723Y-81546429D01*
X230482295Y-81089286D02*
X229682295Y-81355953D01*
X229682295Y-81355953D02*
X230482295Y-81622619D01*
X234762295Y-79508333D02*
X235562295Y-79775000D01*
X235562295Y-79775000D02*
X234762295Y-80041666D01*
X235486104Y-80765476D02*
X235524200Y-80727380D01*
X235524200Y-80727380D02*
X235562295Y-80613095D01*
X235562295Y-80613095D02*
X235562295Y-80536904D01*
X235562295Y-80536904D02*
X235524200Y-80422618D01*
X235524200Y-80422618D02*
X235448009Y-80346428D01*
X235448009Y-80346428D02*
X235371819Y-80308333D01*
X235371819Y-80308333D02*
X235219438Y-80270237D01*
X235219438Y-80270237D02*
X235105152Y-80270237D01*
X235105152Y-80270237D02*
X234952771Y-80308333D01*
X234952771Y-80308333D02*
X234876580Y-80346428D01*
X234876580Y-80346428D02*
X234800390Y-80422618D01*
X234800390Y-80422618D02*
X234762295Y-80536904D01*
X234762295Y-80536904D02*
X234762295Y-80613095D01*
X234762295Y-80613095D02*
X234800390Y-80727380D01*
X234800390Y-80727380D02*
X234838485Y-80765476D01*
X235486104Y-81565476D02*
X235524200Y-81527380D01*
X235524200Y-81527380D02*
X235562295Y-81413095D01*
X235562295Y-81413095D02*
X235562295Y-81336904D01*
X235562295Y-81336904D02*
X235524200Y-81222618D01*
X235524200Y-81222618D02*
X235448009Y-81146428D01*
X235448009Y-81146428D02*
X235371819Y-81108333D01*
X235371819Y-81108333D02*
X235219438Y-81070237D01*
X235219438Y-81070237D02*
X235105152Y-81070237D01*
X235105152Y-81070237D02*
X234952771Y-81108333D01*
X234952771Y-81108333D02*
X234876580Y-81146428D01*
X234876580Y-81146428D02*
X234800390Y-81222618D01*
X234800390Y-81222618D02*
X234762295Y-81336904D01*
X234762295Y-81336904D02*
X234762295Y-81413095D01*
X234762295Y-81413095D02*
X234800390Y-81527380D01*
X234800390Y-81527380D02*
X234838485Y-81565476D01*
X241537189Y-69172295D02*
X241460999Y-69172295D01*
X241460999Y-69172295D02*
X241384808Y-69210390D01*
X241384808Y-69210390D02*
X241346713Y-69248485D01*
X241346713Y-69248485D02*
X241308618Y-69324676D01*
X241308618Y-69324676D02*
X241270523Y-69477057D01*
X241270523Y-69477057D02*
X241270523Y-69667533D01*
X241270523Y-69667533D02*
X241308618Y-69819914D01*
X241308618Y-69819914D02*
X241346713Y-69896104D01*
X241346713Y-69896104D02*
X241384808Y-69934200D01*
X241384808Y-69934200D02*
X241460999Y-69972295D01*
X241460999Y-69972295D02*
X241537189Y-69972295D01*
X241537189Y-69972295D02*
X241613380Y-69934200D01*
X241613380Y-69934200D02*
X241651475Y-69896104D01*
X241651475Y-69896104D02*
X241689570Y-69819914D01*
X241689570Y-69819914D02*
X241727666Y-69667533D01*
X241727666Y-69667533D02*
X241727666Y-69477057D01*
X241727666Y-69477057D02*
X241689570Y-69324676D01*
X241689570Y-69324676D02*
X241651475Y-69248485D01*
X241651475Y-69248485D02*
X241613380Y-69210390D01*
X241613380Y-69210390D02*
X241537189Y-69172295D01*
X240965761Y-69248485D02*
X240927665Y-69210390D01*
X240927665Y-69210390D02*
X240851475Y-69172295D01*
X240851475Y-69172295D02*
X240660999Y-69172295D01*
X240660999Y-69172295D02*
X240584808Y-69210390D01*
X240584808Y-69210390D02*
X240546713Y-69248485D01*
X240546713Y-69248485D02*
X240508618Y-69324676D01*
X240508618Y-69324676D02*
X240508618Y-69400866D01*
X240508618Y-69400866D02*
X240546713Y-69515152D01*
X240546713Y-69515152D02*
X241003856Y-69972295D01*
X241003856Y-69972295D02*
X240508618Y-69972295D01*
X239822903Y-69438961D02*
X239822903Y-69972295D01*
X240013379Y-69134200D02*
X240203856Y-69705628D01*
X240203856Y-69705628D02*
X239708617Y-69705628D01*
X241270523Y-72512295D02*
X241727666Y-72512295D01*
X241499094Y-72512295D02*
X241499094Y-71712295D01*
X241499094Y-71712295D02*
X241575285Y-71826580D01*
X241575285Y-71826580D02*
X241651475Y-71902771D01*
X241651475Y-71902771D02*
X241727666Y-71940866D01*
X240775284Y-71712295D02*
X240699094Y-71712295D01*
X240699094Y-71712295D02*
X240622903Y-71750390D01*
X240622903Y-71750390D02*
X240584808Y-71788485D01*
X240584808Y-71788485D02*
X240546713Y-71864676D01*
X240546713Y-71864676D02*
X240508618Y-72017057D01*
X240508618Y-72017057D02*
X240508618Y-72207533D01*
X240508618Y-72207533D02*
X240546713Y-72359914D01*
X240546713Y-72359914D02*
X240584808Y-72436104D01*
X240584808Y-72436104D02*
X240622903Y-72474200D01*
X240622903Y-72474200D02*
X240699094Y-72512295D01*
X240699094Y-72512295D02*
X240775284Y-72512295D01*
X240775284Y-72512295D02*
X240851475Y-72474200D01*
X240851475Y-72474200D02*
X240889570Y-72436104D01*
X240889570Y-72436104D02*
X240927665Y-72359914D01*
X240927665Y-72359914D02*
X240965761Y-72207533D01*
X240965761Y-72207533D02*
X240965761Y-72017057D01*
X240965761Y-72017057D02*
X240927665Y-71864676D01*
X240927665Y-71864676D02*
X240889570Y-71788485D01*
X240889570Y-71788485D02*
X240851475Y-71750390D01*
X240851475Y-71750390D02*
X240775284Y-71712295D01*
X240013379Y-71712295D02*
X239937189Y-71712295D01*
X239937189Y-71712295D02*
X239860998Y-71750390D01*
X239860998Y-71750390D02*
X239822903Y-71788485D01*
X239822903Y-71788485D02*
X239784808Y-71864676D01*
X239784808Y-71864676D02*
X239746713Y-72017057D01*
X239746713Y-72017057D02*
X239746713Y-72207533D01*
X239746713Y-72207533D02*
X239784808Y-72359914D01*
X239784808Y-72359914D02*
X239822903Y-72436104D01*
X239822903Y-72436104D02*
X239860998Y-72474200D01*
X239860998Y-72474200D02*
X239937189Y-72512295D01*
X239937189Y-72512295D02*
X240013379Y-72512295D01*
X240013379Y-72512295D02*
X240089570Y-72474200D01*
X240089570Y-72474200D02*
X240127665Y-72436104D01*
X240127665Y-72436104D02*
X240165760Y-72359914D01*
X240165760Y-72359914D02*
X240203856Y-72207533D01*
X240203856Y-72207533D02*
X240203856Y-72017057D01*
X240203856Y-72017057D02*
X240165760Y-71864676D01*
X240165760Y-71864676D02*
X240127665Y-71788485D01*
X240127665Y-71788485D02*
X240089570Y-71750390D01*
X240089570Y-71750390D02*
X240013379Y-71712295D01*
X241270523Y-56510390D02*
X241346713Y-56472295D01*
X241346713Y-56472295D02*
X241460999Y-56472295D01*
X241460999Y-56472295D02*
X241575285Y-56510390D01*
X241575285Y-56510390D02*
X241651475Y-56586580D01*
X241651475Y-56586580D02*
X241689570Y-56662771D01*
X241689570Y-56662771D02*
X241727666Y-56815152D01*
X241727666Y-56815152D02*
X241727666Y-56929438D01*
X241727666Y-56929438D02*
X241689570Y-57081819D01*
X241689570Y-57081819D02*
X241651475Y-57158009D01*
X241651475Y-57158009D02*
X241575285Y-57234200D01*
X241575285Y-57234200D02*
X241460999Y-57272295D01*
X241460999Y-57272295D02*
X241384808Y-57272295D01*
X241384808Y-57272295D02*
X241270523Y-57234200D01*
X241270523Y-57234200D02*
X241232427Y-57196104D01*
X241232427Y-57196104D02*
X241232427Y-56929438D01*
X241232427Y-56929438D02*
X241384808Y-56929438D01*
X240889570Y-57272295D02*
X240889570Y-56472295D01*
X240889570Y-56472295D02*
X240432427Y-57272295D01*
X240432427Y-57272295D02*
X240432427Y-56472295D01*
X240051475Y-57272295D02*
X240051475Y-56472295D01*
X240051475Y-56472295D02*
X239860999Y-56472295D01*
X239860999Y-56472295D02*
X239746713Y-56510390D01*
X239746713Y-56510390D02*
X239670523Y-56586580D01*
X239670523Y-56586580D02*
X239632428Y-56662771D01*
X239632428Y-56662771D02*
X239594332Y-56815152D01*
X239594332Y-56815152D02*
X239594332Y-56929438D01*
X239594332Y-56929438D02*
X239632428Y-57081819D01*
X239632428Y-57081819D02*
X239670523Y-57158009D01*
X239670523Y-57158009D02*
X239746713Y-57234200D01*
X239746713Y-57234200D02*
X239860999Y-57272295D01*
X239860999Y-57272295D02*
X240051475Y-57272295D01*
X230462808Y-64092295D02*
X230386618Y-64092295D01*
X230386618Y-64092295D02*
X230310427Y-64130390D01*
X230310427Y-64130390D02*
X230272332Y-64168485D01*
X230272332Y-64168485D02*
X230234237Y-64244676D01*
X230234237Y-64244676D02*
X230196142Y-64397057D01*
X230196142Y-64397057D02*
X230196142Y-64587533D01*
X230196142Y-64587533D02*
X230234237Y-64739914D01*
X230234237Y-64739914D02*
X230272332Y-64816104D01*
X230272332Y-64816104D02*
X230310427Y-64854200D01*
X230310427Y-64854200D02*
X230386618Y-64892295D01*
X230386618Y-64892295D02*
X230462808Y-64892295D01*
X230462808Y-64892295D02*
X230538999Y-64854200D01*
X230538999Y-64854200D02*
X230577094Y-64816104D01*
X230577094Y-64816104D02*
X230615189Y-64739914D01*
X230615189Y-64739914D02*
X230653285Y-64587533D01*
X230653285Y-64587533D02*
X230653285Y-64397057D01*
X230653285Y-64397057D02*
X230615189Y-64244676D01*
X230615189Y-64244676D02*
X230577094Y-64168485D01*
X230577094Y-64168485D02*
X230538999Y-64130390D01*
X230538999Y-64130390D02*
X230462808Y-64092295D01*
X229891380Y-64168485D02*
X229853284Y-64130390D01*
X229853284Y-64130390D02*
X229777094Y-64092295D01*
X229777094Y-64092295D02*
X229586618Y-64092295D01*
X229586618Y-64092295D02*
X229510427Y-64130390D01*
X229510427Y-64130390D02*
X229472332Y-64168485D01*
X229472332Y-64168485D02*
X229434237Y-64244676D01*
X229434237Y-64244676D02*
X229434237Y-64320866D01*
X229434237Y-64320866D02*
X229472332Y-64435152D01*
X229472332Y-64435152D02*
X229929475Y-64892295D01*
X229929475Y-64892295D02*
X229434237Y-64892295D01*
X229053284Y-64892295D02*
X228900903Y-64892295D01*
X228900903Y-64892295D02*
X228824713Y-64854200D01*
X228824713Y-64854200D02*
X228786617Y-64816104D01*
X228786617Y-64816104D02*
X228710427Y-64701819D01*
X228710427Y-64701819D02*
X228672332Y-64549438D01*
X228672332Y-64549438D02*
X228672332Y-64244676D01*
X228672332Y-64244676D02*
X228710427Y-64168485D01*
X228710427Y-64168485D02*
X228748522Y-64130390D01*
X228748522Y-64130390D02*
X228824713Y-64092295D01*
X228824713Y-64092295D02*
X228977094Y-64092295D01*
X228977094Y-64092295D02*
X229053284Y-64130390D01*
X229053284Y-64130390D02*
X229091379Y-64168485D01*
X229091379Y-64168485D02*
X229129475Y-64244676D01*
X229129475Y-64244676D02*
X229129475Y-64435152D01*
X229129475Y-64435152D02*
X229091379Y-64511342D01*
X229091379Y-64511342D02*
X229053284Y-64549438D01*
X229053284Y-64549438D02*
X228977094Y-64587533D01*
X228977094Y-64587533D02*
X228824713Y-64587533D01*
X228824713Y-64587533D02*
X228748522Y-64549438D01*
X228748522Y-64549438D02*
X228710427Y-64511342D01*
X228710427Y-64511342D02*
X228672332Y-64435152D01*
X230196142Y-72512295D02*
X230653285Y-72512295D01*
X230424713Y-72512295D02*
X230424713Y-71712295D01*
X230424713Y-71712295D02*
X230500904Y-71826580D01*
X230500904Y-71826580D02*
X230577094Y-71902771D01*
X230577094Y-71902771D02*
X230653285Y-71940866D01*
X229434237Y-72512295D02*
X229891380Y-72512295D01*
X229662808Y-72512295D02*
X229662808Y-71712295D01*
X229662808Y-71712295D02*
X229738999Y-71826580D01*
X229738999Y-71826580D02*
X229815189Y-71902771D01*
X229815189Y-71902771D02*
X229891380Y-71940866D01*
X229167570Y-71712295D02*
X228672332Y-71712295D01*
X228672332Y-71712295D02*
X228938998Y-72017057D01*
X228938998Y-72017057D02*
X228824713Y-72017057D01*
X228824713Y-72017057D02*
X228748522Y-72055152D01*
X228748522Y-72055152D02*
X228710427Y-72093247D01*
X228710427Y-72093247D02*
X228672332Y-72169438D01*
X228672332Y-72169438D02*
X228672332Y-72359914D01*
X228672332Y-72359914D02*
X228710427Y-72436104D01*
X228710427Y-72436104D02*
X228748522Y-72474200D01*
X228748522Y-72474200D02*
X228824713Y-72512295D01*
X228824713Y-72512295D02*
X229053284Y-72512295D01*
X229053284Y-72512295D02*
X229129475Y-72474200D01*
X229129475Y-72474200D02*
X229167570Y-72436104D01*
X241537189Y-66662295D02*
X241460999Y-66662295D01*
X241460999Y-66662295D02*
X241384808Y-66700390D01*
X241384808Y-66700390D02*
X241346713Y-66738485D01*
X241346713Y-66738485D02*
X241308618Y-66814676D01*
X241308618Y-66814676D02*
X241270523Y-66967057D01*
X241270523Y-66967057D02*
X241270523Y-67157533D01*
X241270523Y-67157533D02*
X241308618Y-67309914D01*
X241308618Y-67309914D02*
X241346713Y-67386104D01*
X241346713Y-67386104D02*
X241384808Y-67424200D01*
X241384808Y-67424200D02*
X241460999Y-67462295D01*
X241460999Y-67462295D02*
X241537189Y-67462295D01*
X241537189Y-67462295D02*
X241613380Y-67424200D01*
X241613380Y-67424200D02*
X241651475Y-67386104D01*
X241651475Y-67386104D02*
X241689570Y-67309914D01*
X241689570Y-67309914D02*
X241727666Y-67157533D01*
X241727666Y-67157533D02*
X241727666Y-66967057D01*
X241727666Y-66967057D02*
X241689570Y-66814676D01*
X241689570Y-66814676D02*
X241651475Y-66738485D01*
X241651475Y-66738485D02*
X241613380Y-66700390D01*
X241613380Y-66700390D02*
X241537189Y-66662295D01*
X240965761Y-66738485D02*
X240927665Y-66700390D01*
X240927665Y-66700390D02*
X240851475Y-66662295D01*
X240851475Y-66662295D02*
X240660999Y-66662295D01*
X240660999Y-66662295D02*
X240584808Y-66700390D01*
X240584808Y-66700390D02*
X240546713Y-66738485D01*
X240546713Y-66738485D02*
X240508618Y-66814676D01*
X240508618Y-66814676D02*
X240508618Y-66890866D01*
X240508618Y-66890866D02*
X240546713Y-67005152D01*
X240546713Y-67005152D02*
X241003856Y-67462295D01*
X241003856Y-67462295D02*
X240508618Y-67462295D01*
X240203856Y-66738485D02*
X240165760Y-66700390D01*
X240165760Y-66700390D02*
X240089570Y-66662295D01*
X240089570Y-66662295D02*
X239899094Y-66662295D01*
X239899094Y-66662295D02*
X239822903Y-66700390D01*
X239822903Y-66700390D02*
X239784808Y-66738485D01*
X239784808Y-66738485D02*
X239746713Y-66814676D01*
X239746713Y-66814676D02*
X239746713Y-66890866D01*
X239746713Y-66890866D02*
X239784808Y-67005152D01*
X239784808Y-67005152D02*
X240241951Y-67462295D01*
X240241951Y-67462295D02*
X239746713Y-67462295D01*
X230196142Y-75052295D02*
X230653285Y-75052295D01*
X230424713Y-75052295D02*
X230424713Y-74252295D01*
X230424713Y-74252295D02*
X230500904Y-74366580D01*
X230500904Y-74366580D02*
X230577094Y-74442771D01*
X230577094Y-74442771D02*
X230653285Y-74480866D01*
X229434237Y-75052295D02*
X229891380Y-75052295D01*
X229662808Y-75052295D02*
X229662808Y-74252295D01*
X229662808Y-74252295D02*
X229738999Y-74366580D01*
X229738999Y-74366580D02*
X229815189Y-74442771D01*
X229815189Y-74442771D02*
X229891380Y-74480866D01*
X228672332Y-75052295D02*
X229129475Y-75052295D01*
X228900903Y-75052295D02*
X228900903Y-74252295D01*
X228900903Y-74252295D02*
X228977094Y-74366580D01*
X228977094Y-74366580D02*
X229053284Y-74442771D01*
X229053284Y-74442771D02*
X229129475Y-74480866D01*
X241270523Y-77592295D02*
X241727666Y-77592295D01*
X241499094Y-77592295D02*
X241499094Y-76792295D01*
X241499094Y-76792295D02*
X241575285Y-76906580D01*
X241575285Y-76906580D02*
X241651475Y-76982771D01*
X241651475Y-76982771D02*
X241727666Y-77020866D01*
X240775284Y-76792295D02*
X240699094Y-76792295D01*
X240699094Y-76792295D02*
X240622903Y-76830390D01*
X240622903Y-76830390D02*
X240584808Y-76868485D01*
X240584808Y-76868485D02*
X240546713Y-76944676D01*
X240546713Y-76944676D02*
X240508618Y-77097057D01*
X240508618Y-77097057D02*
X240508618Y-77287533D01*
X240508618Y-77287533D02*
X240546713Y-77439914D01*
X240546713Y-77439914D02*
X240584808Y-77516104D01*
X240584808Y-77516104D02*
X240622903Y-77554200D01*
X240622903Y-77554200D02*
X240699094Y-77592295D01*
X240699094Y-77592295D02*
X240775284Y-77592295D01*
X240775284Y-77592295D02*
X240851475Y-77554200D01*
X240851475Y-77554200D02*
X240889570Y-77516104D01*
X240889570Y-77516104D02*
X240927665Y-77439914D01*
X240927665Y-77439914D02*
X240965761Y-77287533D01*
X240965761Y-77287533D02*
X240965761Y-77097057D01*
X240965761Y-77097057D02*
X240927665Y-76944676D01*
X240927665Y-76944676D02*
X240889570Y-76868485D01*
X240889570Y-76868485D02*
X240851475Y-76830390D01*
X240851475Y-76830390D02*
X240775284Y-76792295D01*
X239822903Y-77058961D02*
X239822903Y-77592295D01*
X240013379Y-76754200D02*
X240203856Y-77325628D01*
X240203856Y-77325628D02*
X239708617Y-77325628D01*
X230729475Y-59012295D02*
X230462808Y-59812295D01*
X230462808Y-59812295D02*
X230196142Y-59012295D01*
X229472332Y-59736104D02*
X229510428Y-59774200D01*
X229510428Y-59774200D02*
X229624713Y-59812295D01*
X229624713Y-59812295D02*
X229700904Y-59812295D01*
X229700904Y-59812295D02*
X229815190Y-59774200D01*
X229815190Y-59774200D02*
X229891380Y-59698009D01*
X229891380Y-59698009D02*
X229929475Y-59621819D01*
X229929475Y-59621819D02*
X229967571Y-59469438D01*
X229967571Y-59469438D02*
X229967571Y-59355152D01*
X229967571Y-59355152D02*
X229929475Y-59202771D01*
X229929475Y-59202771D02*
X229891380Y-59126580D01*
X229891380Y-59126580D02*
X229815190Y-59050390D01*
X229815190Y-59050390D02*
X229700904Y-59012295D01*
X229700904Y-59012295D02*
X229624713Y-59012295D01*
X229624713Y-59012295D02*
X229510428Y-59050390D01*
X229510428Y-59050390D02*
X229472332Y-59088485D01*
X228672332Y-59736104D02*
X228710428Y-59774200D01*
X228710428Y-59774200D02*
X228824713Y-59812295D01*
X228824713Y-59812295D02*
X228900904Y-59812295D01*
X228900904Y-59812295D02*
X229015190Y-59774200D01*
X229015190Y-59774200D02*
X229091380Y-59698009D01*
X229091380Y-59698009D02*
X229129475Y-59621819D01*
X229129475Y-59621819D02*
X229167571Y-59469438D01*
X229167571Y-59469438D02*
X229167571Y-59355152D01*
X229167571Y-59355152D02*
X229129475Y-59202771D01*
X229129475Y-59202771D02*
X229091380Y-59126580D01*
X229091380Y-59126580D02*
X229015190Y-59050390D01*
X229015190Y-59050390D02*
X228900904Y-59012295D01*
X228900904Y-59012295D02*
X228824713Y-59012295D01*
X228824713Y-59012295D02*
X228710428Y-59050390D01*
X228710428Y-59050390D02*
X228672332Y-59088485D01*
X241537189Y-53862295D02*
X241460999Y-53862295D01*
X241460999Y-53862295D02*
X241384808Y-53900390D01*
X241384808Y-53900390D02*
X241346713Y-53938485D01*
X241346713Y-53938485D02*
X241308618Y-54014676D01*
X241308618Y-54014676D02*
X241270523Y-54167057D01*
X241270523Y-54167057D02*
X241270523Y-54357533D01*
X241270523Y-54357533D02*
X241308618Y-54509914D01*
X241308618Y-54509914D02*
X241346713Y-54586104D01*
X241346713Y-54586104D02*
X241384808Y-54624200D01*
X241384808Y-54624200D02*
X241460999Y-54662295D01*
X241460999Y-54662295D02*
X241537189Y-54662295D01*
X241537189Y-54662295D02*
X241613380Y-54624200D01*
X241613380Y-54624200D02*
X241651475Y-54586104D01*
X241651475Y-54586104D02*
X241689570Y-54509914D01*
X241689570Y-54509914D02*
X241727666Y-54357533D01*
X241727666Y-54357533D02*
X241727666Y-54167057D01*
X241727666Y-54167057D02*
X241689570Y-54014676D01*
X241689570Y-54014676D02*
X241651475Y-53938485D01*
X241651475Y-53938485D02*
X241613380Y-53900390D01*
X241613380Y-53900390D02*
X241537189Y-53862295D01*
X240775284Y-53862295D02*
X240699094Y-53862295D01*
X240699094Y-53862295D02*
X240622903Y-53900390D01*
X240622903Y-53900390D02*
X240584808Y-53938485D01*
X240584808Y-53938485D02*
X240546713Y-54014676D01*
X240546713Y-54014676D02*
X240508618Y-54167057D01*
X240508618Y-54167057D02*
X240508618Y-54357533D01*
X240508618Y-54357533D02*
X240546713Y-54509914D01*
X240546713Y-54509914D02*
X240584808Y-54586104D01*
X240584808Y-54586104D02*
X240622903Y-54624200D01*
X240622903Y-54624200D02*
X240699094Y-54662295D01*
X240699094Y-54662295D02*
X240775284Y-54662295D01*
X240775284Y-54662295D02*
X240851475Y-54624200D01*
X240851475Y-54624200D02*
X240889570Y-54586104D01*
X240889570Y-54586104D02*
X240927665Y-54509914D01*
X240927665Y-54509914D02*
X240965761Y-54357533D01*
X240965761Y-54357533D02*
X240965761Y-54167057D01*
X240965761Y-54167057D02*
X240927665Y-54014676D01*
X240927665Y-54014676D02*
X240889570Y-53938485D01*
X240889570Y-53938485D02*
X240851475Y-53900390D01*
X240851475Y-53900390D02*
X240775284Y-53862295D01*
X240051475Y-54205152D02*
X240127665Y-54167057D01*
X240127665Y-54167057D02*
X240165760Y-54128961D01*
X240165760Y-54128961D02*
X240203856Y-54052771D01*
X240203856Y-54052771D02*
X240203856Y-54014676D01*
X240203856Y-54014676D02*
X240165760Y-53938485D01*
X240165760Y-53938485D02*
X240127665Y-53900390D01*
X240127665Y-53900390D02*
X240051475Y-53862295D01*
X240051475Y-53862295D02*
X239899094Y-53862295D01*
X239899094Y-53862295D02*
X239822903Y-53900390D01*
X239822903Y-53900390D02*
X239784808Y-53938485D01*
X239784808Y-53938485D02*
X239746713Y-54014676D01*
X239746713Y-54014676D02*
X239746713Y-54052771D01*
X239746713Y-54052771D02*
X239784808Y-54128961D01*
X239784808Y-54128961D02*
X239822903Y-54167057D01*
X239822903Y-54167057D02*
X239899094Y-54205152D01*
X239899094Y-54205152D02*
X240051475Y-54205152D01*
X240051475Y-54205152D02*
X240127665Y-54243247D01*
X240127665Y-54243247D02*
X240165760Y-54281342D01*
X240165760Y-54281342D02*
X240203856Y-54357533D01*
X240203856Y-54357533D02*
X240203856Y-54509914D01*
X240203856Y-54509914D02*
X240165760Y-54586104D01*
X240165760Y-54586104D02*
X240127665Y-54624200D01*
X240127665Y-54624200D02*
X240051475Y-54662295D01*
X240051475Y-54662295D02*
X239899094Y-54662295D01*
X239899094Y-54662295D02*
X239822903Y-54624200D01*
X239822903Y-54624200D02*
X239784808Y-54586104D01*
X239784808Y-54586104D02*
X239746713Y-54509914D01*
X239746713Y-54509914D02*
X239746713Y-54357533D01*
X239746713Y-54357533D02*
X239784808Y-54281342D01*
X239784808Y-54281342D02*
X239822903Y-54243247D01*
X239822903Y-54243247D02*
X239899094Y-54205152D01*
X241537189Y-61562295D02*
X241460999Y-61562295D01*
X241460999Y-61562295D02*
X241384808Y-61600390D01*
X241384808Y-61600390D02*
X241346713Y-61638485D01*
X241346713Y-61638485D02*
X241308618Y-61714676D01*
X241308618Y-61714676D02*
X241270523Y-61867057D01*
X241270523Y-61867057D02*
X241270523Y-62057533D01*
X241270523Y-62057533D02*
X241308618Y-62209914D01*
X241308618Y-62209914D02*
X241346713Y-62286104D01*
X241346713Y-62286104D02*
X241384808Y-62324200D01*
X241384808Y-62324200D02*
X241460999Y-62362295D01*
X241460999Y-62362295D02*
X241537189Y-62362295D01*
X241537189Y-62362295D02*
X241613380Y-62324200D01*
X241613380Y-62324200D02*
X241651475Y-62286104D01*
X241651475Y-62286104D02*
X241689570Y-62209914D01*
X241689570Y-62209914D02*
X241727666Y-62057533D01*
X241727666Y-62057533D02*
X241727666Y-61867057D01*
X241727666Y-61867057D02*
X241689570Y-61714676D01*
X241689570Y-61714676D02*
X241651475Y-61638485D01*
X241651475Y-61638485D02*
X241613380Y-61600390D01*
X241613380Y-61600390D02*
X241537189Y-61562295D01*
X240508618Y-62362295D02*
X240965761Y-62362295D01*
X240737189Y-62362295D02*
X240737189Y-61562295D01*
X240737189Y-61562295D02*
X240813380Y-61676580D01*
X240813380Y-61676580D02*
X240889570Y-61752771D01*
X240889570Y-61752771D02*
X240965761Y-61790866D01*
X240241951Y-61562295D02*
X239708617Y-61562295D01*
X239708617Y-61562295D02*
X240051475Y-62362295D01*
X230354856Y-53970390D02*
X230431046Y-53932295D01*
X230431046Y-53932295D02*
X230545332Y-53932295D01*
X230545332Y-53932295D02*
X230659618Y-53970390D01*
X230659618Y-53970390D02*
X230735808Y-54046580D01*
X230735808Y-54046580D02*
X230773903Y-54122771D01*
X230773903Y-54122771D02*
X230811999Y-54275152D01*
X230811999Y-54275152D02*
X230811999Y-54389438D01*
X230811999Y-54389438D02*
X230773903Y-54541819D01*
X230773903Y-54541819D02*
X230735808Y-54618009D01*
X230735808Y-54618009D02*
X230659618Y-54694200D01*
X230659618Y-54694200D02*
X230545332Y-54732295D01*
X230545332Y-54732295D02*
X230469141Y-54732295D01*
X230469141Y-54732295D02*
X230354856Y-54694200D01*
X230354856Y-54694200D02*
X230316760Y-54656104D01*
X230316760Y-54656104D02*
X230316760Y-54389438D01*
X230316760Y-54389438D02*
X230469141Y-54389438D01*
X229973903Y-54732295D02*
X229973903Y-53932295D01*
X229973903Y-53932295D02*
X229516760Y-54732295D01*
X229516760Y-54732295D02*
X229516760Y-53932295D01*
X229135808Y-54732295D02*
X229135808Y-53932295D01*
X229135808Y-53932295D02*
X228945332Y-53932295D01*
X228945332Y-53932295D02*
X228831046Y-53970390D01*
X228831046Y-53970390D02*
X228754856Y-54046580D01*
X228754856Y-54046580D02*
X228716761Y-54122771D01*
X228716761Y-54122771D02*
X228678665Y-54275152D01*
X228678665Y-54275152D02*
X228678665Y-54389438D01*
X228678665Y-54389438D02*
X228716761Y-54541819D01*
X228716761Y-54541819D02*
X228754856Y-54618009D01*
X228754856Y-54618009D02*
X228831046Y-54694200D01*
X228831046Y-54694200D02*
X228945332Y-54732295D01*
X228945332Y-54732295D02*
X229135808Y-54732295D01*
X230196142Y-69972295D02*
X230653285Y-69972295D01*
X230424713Y-69972295D02*
X230424713Y-69172295D01*
X230424713Y-69172295D02*
X230500904Y-69286580D01*
X230500904Y-69286580D02*
X230577094Y-69362771D01*
X230577094Y-69362771D02*
X230653285Y-69400866D01*
X229434237Y-69972295D02*
X229891380Y-69972295D01*
X229662808Y-69972295D02*
X229662808Y-69172295D01*
X229662808Y-69172295D02*
X229738999Y-69286580D01*
X229738999Y-69286580D02*
X229815189Y-69362771D01*
X229815189Y-69362771D02*
X229891380Y-69400866D01*
X228710427Y-69172295D02*
X229091379Y-69172295D01*
X229091379Y-69172295D02*
X229129475Y-69553247D01*
X229129475Y-69553247D02*
X229091379Y-69515152D01*
X229091379Y-69515152D02*
X229015189Y-69477057D01*
X229015189Y-69477057D02*
X228824713Y-69477057D01*
X228824713Y-69477057D02*
X228748522Y-69515152D01*
X228748522Y-69515152D02*
X228710427Y-69553247D01*
X228710427Y-69553247D02*
X228672332Y-69629438D01*
X228672332Y-69629438D02*
X228672332Y-69819914D01*
X228672332Y-69819914D02*
X228710427Y-69896104D01*
X228710427Y-69896104D02*
X228748522Y-69934200D01*
X228748522Y-69934200D02*
X228824713Y-69972295D01*
X228824713Y-69972295D02*
X229015189Y-69972295D01*
X229015189Y-69972295D02*
X229091379Y-69934200D01*
X229091379Y-69934200D02*
X229129475Y-69896104D01*
X230462808Y-76792295D02*
X230386618Y-76792295D01*
X230386618Y-76792295D02*
X230310427Y-76830390D01*
X230310427Y-76830390D02*
X230272332Y-76868485D01*
X230272332Y-76868485D02*
X230234237Y-76944676D01*
X230234237Y-76944676D02*
X230196142Y-77097057D01*
X230196142Y-77097057D02*
X230196142Y-77287533D01*
X230196142Y-77287533D02*
X230234237Y-77439914D01*
X230234237Y-77439914D02*
X230272332Y-77516104D01*
X230272332Y-77516104D02*
X230310427Y-77554200D01*
X230310427Y-77554200D02*
X230386618Y-77592295D01*
X230386618Y-77592295D02*
X230462808Y-77592295D01*
X230462808Y-77592295D02*
X230538999Y-77554200D01*
X230538999Y-77554200D02*
X230577094Y-77516104D01*
X230577094Y-77516104D02*
X230615189Y-77439914D01*
X230615189Y-77439914D02*
X230653285Y-77287533D01*
X230653285Y-77287533D02*
X230653285Y-77097057D01*
X230653285Y-77097057D02*
X230615189Y-76944676D01*
X230615189Y-76944676D02*
X230577094Y-76868485D01*
X230577094Y-76868485D02*
X230538999Y-76830390D01*
X230538999Y-76830390D02*
X230462808Y-76792295D01*
X229434237Y-77592295D02*
X229891380Y-77592295D01*
X229662808Y-77592295D02*
X229662808Y-76792295D01*
X229662808Y-76792295D02*
X229738999Y-76906580D01*
X229738999Y-76906580D02*
X229815189Y-76982771D01*
X229815189Y-76982771D02*
X229891380Y-77020866D01*
X228938998Y-76792295D02*
X228862808Y-76792295D01*
X228862808Y-76792295D02*
X228786617Y-76830390D01*
X228786617Y-76830390D02*
X228748522Y-76868485D01*
X228748522Y-76868485D02*
X228710427Y-76944676D01*
X228710427Y-76944676D02*
X228672332Y-77097057D01*
X228672332Y-77097057D02*
X228672332Y-77287533D01*
X228672332Y-77287533D02*
X228710427Y-77439914D01*
X228710427Y-77439914D02*
X228748522Y-77516104D01*
X228748522Y-77516104D02*
X228786617Y-77554200D01*
X228786617Y-77554200D02*
X228862808Y-77592295D01*
X228862808Y-77592295D02*
X228938998Y-77592295D01*
X228938998Y-77592295D02*
X229015189Y-77554200D01*
X229015189Y-77554200D02*
X229053284Y-77516104D01*
X229053284Y-77516104D02*
X229091379Y-77439914D01*
X229091379Y-77439914D02*
X229129475Y-77287533D01*
X229129475Y-77287533D02*
X229129475Y-77097057D01*
X229129475Y-77097057D02*
X229091379Y-76944676D01*
X229091379Y-76944676D02*
X229053284Y-76868485D01*
X229053284Y-76868485D02*
X229015189Y-76830390D01*
X229015189Y-76830390D02*
X228938998Y-76792295D01*
X230462808Y-61552295D02*
X230386618Y-61552295D01*
X230386618Y-61552295D02*
X230310427Y-61590390D01*
X230310427Y-61590390D02*
X230272332Y-61628485D01*
X230272332Y-61628485D02*
X230234237Y-61704676D01*
X230234237Y-61704676D02*
X230196142Y-61857057D01*
X230196142Y-61857057D02*
X230196142Y-62047533D01*
X230196142Y-62047533D02*
X230234237Y-62199914D01*
X230234237Y-62199914D02*
X230272332Y-62276104D01*
X230272332Y-62276104D02*
X230310427Y-62314200D01*
X230310427Y-62314200D02*
X230386618Y-62352295D01*
X230386618Y-62352295D02*
X230462808Y-62352295D01*
X230462808Y-62352295D02*
X230538999Y-62314200D01*
X230538999Y-62314200D02*
X230577094Y-62276104D01*
X230577094Y-62276104D02*
X230615189Y-62199914D01*
X230615189Y-62199914D02*
X230653285Y-62047533D01*
X230653285Y-62047533D02*
X230653285Y-61857057D01*
X230653285Y-61857057D02*
X230615189Y-61704676D01*
X230615189Y-61704676D02*
X230577094Y-61628485D01*
X230577094Y-61628485D02*
X230538999Y-61590390D01*
X230538999Y-61590390D02*
X230462808Y-61552295D01*
X229929475Y-61552295D02*
X229434237Y-61552295D01*
X229434237Y-61552295D02*
X229700903Y-61857057D01*
X229700903Y-61857057D02*
X229586618Y-61857057D01*
X229586618Y-61857057D02*
X229510427Y-61895152D01*
X229510427Y-61895152D02*
X229472332Y-61933247D01*
X229472332Y-61933247D02*
X229434237Y-62009438D01*
X229434237Y-62009438D02*
X229434237Y-62199914D01*
X229434237Y-62199914D02*
X229472332Y-62276104D01*
X229472332Y-62276104D02*
X229510427Y-62314200D01*
X229510427Y-62314200D02*
X229586618Y-62352295D01*
X229586618Y-62352295D02*
X229815189Y-62352295D01*
X229815189Y-62352295D02*
X229891380Y-62314200D01*
X229891380Y-62314200D02*
X229929475Y-62276104D01*
X228672332Y-62352295D02*
X229129475Y-62352295D01*
X228900903Y-62352295D02*
X228900903Y-61552295D01*
X228900903Y-61552295D02*
X228977094Y-61666580D01*
X228977094Y-61666580D02*
X229053284Y-61742771D01*
X229053284Y-61742771D02*
X229129475Y-61780866D01*
X241537189Y-64162295D02*
X241460999Y-64162295D01*
X241460999Y-64162295D02*
X241384808Y-64200390D01*
X241384808Y-64200390D02*
X241346713Y-64238485D01*
X241346713Y-64238485D02*
X241308618Y-64314676D01*
X241308618Y-64314676D02*
X241270523Y-64467057D01*
X241270523Y-64467057D02*
X241270523Y-64657533D01*
X241270523Y-64657533D02*
X241308618Y-64809914D01*
X241308618Y-64809914D02*
X241346713Y-64886104D01*
X241346713Y-64886104D02*
X241384808Y-64924200D01*
X241384808Y-64924200D02*
X241460999Y-64962295D01*
X241460999Y-64962295D02*
X241537189Y-64962295D01*
X241537189Y-64962295D02*
X241613380Y-64924200D01*
X241613380Y-64924200D02*
X241651475Y-64886104D01*
X241651475Y-64886104D02*
X241689570Y-64809914D01*
X241689570Y-64809914D02*
X241727666Y-64657533D01*
X241727666Y-64657533D02*
X241727666Y-64467057D01*
X241727666Y-64467057D02*
X241689570Y-64314676D01*
X241689570Y-64314676D02*
X241651475Y-64238485D01*
X241651475Y-64238485D02*
X241613380Y-64200390D01*
X241613380Y-64200390D02*
X241537189Y-64162295D01*
X240965761Y-64238485D02*
X240927665Y-64200390D01*
X240927665Y-64200390D02*
X240851475Y-64162295D01*
X240851475Y-64162295D02*
X240660999Y-64162295D01*
X240660999Y-64162295D02*
X240584808Y-64200390D01*
X240584808Y-64200390D02*
X240546713Y-64238485D01*
X240546713Y-64238485D02*
X240508618Y-64314676D01*
X240508618Y-64314676D02*
X240508618Y-64390866D01*
X240508618Y-64390866D02*
X240546713Y-64505152D01*
X240546713Y-64505152D02*
X241003856Y-64962295D01*
X241003856Y-64962295D02*
X240508618Y-64962295D01*
X240013379Y-64162295D02*
X239937189Y-64162295D01*
X239937189Y-64162295D02*
X239860998Y-64200390D01*
X239860998Y-64200390D02*
X239822903Y-64238485D01*
X239822903Y-64238485D02*
X239784808Y-64314676D01*
X239784808Y-64314676D02*
X239746713Y-64467057D01*
X239746713Y-64467057D02*
X239746713Y-64657533D01*
X239746713Y-64657533D02*
X239784808Y-64809914D01*
X239784808Y-64809914D02*
X239822903Y-64886104D01*
X239822903Y-64886104D02*
X239860998Y-64924200D01*
X239860998Y-64924200D02*
X239937189Y-64962295D01*
X239937189Y-64962295D02*
X240013379Y-64962295D01*
X240013379Y-64962295D02*
X240089570Y-64924200D01*
X240089570Y-64924200D02*
X240127665Y-64886104D01*
X240127665Y-64886104D02*
X240165760Y-64809914D01*
X240165760Y-64809914D02*
X240203856Y-64657533D01*
X240203856Y-64657533D02*
X240203856Y-64467057D01*
X240203856Y-64467057D02*
X240165760Y-64314676D01*
X240165760Y-64314676D02*
X240127665Y-64238485D01*
X240127665Y-64238485D02*
X240089570Y-64200390D01*
X240089570Y-64200390D02*
X240013379Y-64162295D01*
X241270523Y-59050390D02*
X241346713Y-59012295D01*
X241346713Y-59012295D02*
X241460999Y-59012295D01*
X241460999Y-59012295D02*
X241575285Y-59050390D01*
X241575285Y-59050390D02*
X241651475Y-59126580D01*
X241651475Y-59126580D02*
X241689570Y-59202771D01*
X241689570Y-59202771D02*
X241727666Y-59355152D01*
X241727666Y-59355152D02*
X241727666Y-59469438D01*
X241727666Y-59469438D02*
X241689570Y-59621819D01*
X241689570Y-59621819D02*
X241651475Y-59698009D01*
X241651475Y-59698009D02*
X241575285Y-59774200D01*
X241575285Y-59774200D02*
X241460999Y-59812295D01*
X241460999Y-59812295D02*
X241384808Y-59812295D01*
X241384808Y-59812295D02*
X241270523Y-59774200D01*
X241270523Y-59774200D02*
X241232427Y-59736104D01*
X241232427Y-59736104D02*
X241232427Y-59469438D01*
X241232427Y-59469438D02*
X241384808Y-59469438D01*
X240889570Y-59812295D02*
X240889570Y-59012295D01*
X240889570Y-59012295D02*
X240432427Y-59812295D01*
X240432427Y-59812295D02*
X240432427Y-59012295D01*
X240051475Y-59812295D02*
X240051475Y-59012295D01*
X240051475Y-59012295D02*
X239860999Y-59012295D01*
X239860999Y-59012295D02*
X239746713Y-59050390D01*
X239746713Y-59050390D02*
X239670523Y-59126580D01*
X239670523Y-59126580D02*
X239632428Y-59202771D01*
X239632428Y-59202771D02*
X239594332Y-59355152D01*
X239594332Y-59355152D02*
X239594332Y-59469438D01*
X239594332Y-59469438D02*
X239632428Y-59621819D01*
X239632428Y-59621819D02*
X239670523Y-59698009D01*
X239670523Y-59698009D02*
X239746713Y-59774200D01*
X239746713Y-59774200D02*
X239860999Y-59812295D01*
X239860999Y-59812295D02*
X240051475Y-59812295D01*
X241537189Y-51392295D02*
X241460999Y-51392295D01*
X241460999Y-51392295D02*
X241384808Y-51430390D01*
X241384808Y-51430390D02*
X241346713Y-51468485D01*
X241346713Y-51468485D02*
X241308618Y-51544676D01*
X241308618Y-51544676D02*
X241270523Y-51697057D01*
X241270523Y-51697057D02*
X241270523Y-51887533D01*
X241270523Y-51887533D02*
X241308618Y-52039914D01*
X241308618Y-52039914D02*
X241346713Y-52116104D01*
X241346713Y-52116104D02*
X241384808Y-52154200D01*
X241384808Y-52154200D02*
X241460999Y-52192295D01*
X241460999Y-52192295D02*
X241537189Y-52192295D01*
X241537189Y-52192295D02*
X241613380Y-52154200D01*
X241613380Y-52154200D02*
X241651475Y-52116104D01*
X241651475Y-52116104D02*
X241689570Y-52039914D01*
X241689570Y-52039914D02*
X241727666Y-51887533D01*
X241727666Y-51887533D02*
X241727666Y-51697057D01*
X241727666Y-51697057D02*
X241689570Y-51544676D01*
X241689570Y-51544676D02*
X241651475Y-51468485D01*
X241651475Y-51468485D02*
X241613380Y-51430390D01*
X241613380Y-51430390D02*
X241537189Y-51392295D01*
X240775284Y-51392295D02*
X240699094Y-51392295D01*
X240699094Y-51392295D02*
X240622903Y-51430390D01*
X240622903Y-51430390D02*
X240584808Y-51468485D01*
X240584808Y-51468485D02*
X240546713Y-51544676D01*
X240546713Y-51544676D02*
X240508618Y-51697057D01*
X240508618Y-51697057D02*
X240508618Y-51887533D01*
X240508618Y-51887533D02*
X240546713Y-52039914D01*
X240546713Y-52039914D02*
X240584808Y-52116104D01*
X240584808Y-52116104D02*
X240622903Y-52154200D01*
X240622903Y-52154200D02*
X240699094Y-52192295D01*
X240699094Y-52192295D02*
X240775284Y-52192295D01*
X240775284Y-52192295D02*
X240851475Y-52154200D01*
X240851475Y-52154200D02*
X240889570Y-52116104D01*
X240889570Y-52116104D02*
X240927665Y-52039914D01*
X240927665Y-52039914D02*
X240965761Y-51887533D01*
X240965761Y-51887533D02*
X240965761Y-51697057D01*
X240965761Y-51697057D02*
X240927665Y-51544676D01*
X240927665Y-51544676D02*
X240889570Y-51468485D01*
X240889570Y-51468485D02*
X240851475Y-51430390D01*
X240851475Y-51430390D02*
X240775284Y-51392295D01*
X239822903Y-51392295D02*
X239975284Y-51392295D01*
X239975284Y-51392295D02*
X240051475Y-51430390D01*
X240051475Y-51430390D02*
X240089570Y-51468485D01*
X240089570Y-51468485D02*
X240165760Y-51582771D01*
X240165760Y-51582771D02*
X240203856Y-51735152D01*
X240203856Y-51735152D02*
X240203856Y-52039914D01*
X240203856Y-52039914D02*
X240165760Y-52116104D01*
X240165760Y-52116104D02*
X240127665Y-52154200D01*
X240127665Y-52154200D02*
X240051475Y-52192295D01*
X240051475Y-52192295D02*
X239899094Y-52192295D01*
X239899094Y-52192295D02*
X239822903Y-52154200D01*
X239822903Y-52154200D02*
X239784808Y-52116104D01*
X239784808Y-52116104D02*
X239746713Y-52039914D01*
X239746713Y-52039914D02*
X239746713Y-51849438D01*
X239746713Y-51849438D02*
X239784808Y-51773247D01*
X239784808Y-51773247D02*
X239822903Y-51735152D01*
X239822903Y-51735152D02*
X239899094Y-51697057D01*
X239899094Y-51697057D02*
X240051475Y-51697057D01*
X240051475Y-51697057D02*
X240127665Y-51735152D01*
X240127665Y-51735152D02*
X240165760Y-51773247D01*
X240165760Y-51773247D02*
X240203856Y-51849438D01*
X230050094Y-57272295D02*
X230316761Y-56891342D01*
X230507237Y-57272295D02*
X230507237Y-56472295D01*
X230507237Y-56472295D02*
X230202475Y-56472295D01*
X230202475Y-56472295D02*
X230126285Y-56510390D01*
X230126285Y-56510390D02*
X230088190Y-56548485D01*
X230088190Y-56548485D02*
X230050094Y-56624676D01*
X230050094Y-56624676D02*
X230050094Y-56738961D01*
X230050094Y-56738961D02*
X230088190Y-56815152D01*
X230088190Y-56815152D02*
X230126285Y-56853247D01*
X230126285Y-56853247D02*
X230202475Y-56891342D01*
X230202475Y-56891342D02*
X230507237Y-56891342D01*
X229745333Y-57234200D02*
X229631047Y-57272295D01*
X229631047Y-57272295D02*
X229440571Y-57272295D01*
X229440571Y-57272295D02*
X229364380Y-57234200D01*
X229364380Y-57234200D02*
X229326285Y-57196104D01*
X229326285Y-57196104D02*
X229288190Y-57119914D01*
X229288190Y-57119914D02*
X229288190Y-57043723D01*
X229288190Y-57043723D02*
X229326285Y-56967533D01*
X229326285Y-56967533D02*
X229364380Y-56929438D01*
X229364380Y-56929438D02*
X229440571Y-56891342D01*
X229440571Y-56891342D02*
X229592952Y-56853247D01*
X229592952Y-56853247D02*
X229669142Y-56815152D01*
X229669142Y-56815152D02*
X229707237Y-56777057D01*
X229707237Y-56777057D02*
X229745333Y-56700866D01*
X229745333Y-56700866D02*
X229745333Y-56624676D01*
X229745333Y-56624676D02*
X229707237Y-56548485D01*
X229707237Y-56548485D02*
X229669142Y-56510390D01*
X229669142Y-56510390D02*
X229592952Y-56472295D01*
X229592952Y-56472295D02*
X229402475Y-56472295D01*
X229402475Y-56472295D02*
X229288190Y-56510390D01*
X229059618Y-56472295D02*
X228602475Y-56472295D01*
X228831047Y-57272295D02*
X228831047Y-56472295D01*
X230278665Y-52192295D02*
X230545332Y-51811342D01*
X230735808Y-52192295D02*
X230735808Y-51392295D01*
X230735808Y-51392295D02*
X230431046Y-51392295D01*
X230431046Y-51392295D02*
X230354856Y-51430390D01*
X230354856Y-51430390D02*
X230316761Y-51468485D01*
X230316761Y-51468485D02*
X230278665Y-51544676D01*
X230278665Y-51544676D02*
X230278665Y-51658961D01*
X230278665Y-51658961D02*
X230316761Y-51735152D01*
X230316761Y-51735152D02*
X230354856Y-51773247D01*
X230354856Y-51773247D02*
X230431046Y-51811342D01*
X230431046Y-51811342D02*
X230735808Y-51811342D01*
X229973904Y-51963723D02*
X229592951Y-51963723D01*
X230050094Y-52192295D02*
X229783427Y-51392295D01*
X229783427Y-51392295D02*
X229516761Y-52192295D01*
X229326285Y-51392295D02*
X229135809Y-52192295D01*
X229135809Y-52192295D02*
X228983428Y-51620866D01*
X228983428Y-51620866D02*
X228831047Y-52192295D01*
X228831047Y-52192295D02*
X228640571Y-51392295D01*
X230462808Y-66632295D02*
X230386618Y-66632295D01*
X230386618Y-66632295D02*
X230310427Y-66670390D01*
X230310427Y-66670390D02*
X230272332Y-66708485D01*
X230272332Y-66708485D02*
X230234237Y-66784676D01*
X230234237Y-66784676D02*
X230196142Y-66937057D01*
X230196142Y-66937057D02*
X230196142Y-67127533D01*
X230196142Y-67127533D02*
X230234237Y-67279914D01*
X230234237Y-67279914D02*
X230272332Y-67356104D01*
X230272332Y-67356104D02*
X230310427Y-67394200D01*
X230310427Y-67394200D02*
X230386618Y-67432295D01*
X230386618Y-67432295D02*
X230462808Y-67432295D01*
X230462808Y-67432295D02*
X230538999Y-67394200D01*
X230538999Y-67394200D02*
X230577094Y-67356104D01*
X230577094Y-67356104D02*
X230615189Y-67279914D01*
X230615189Y-67279914D02*
X230653285Y-67127533D01*
X230653285Y-67127533D02*
X230653285Y-66937057D01*
X230653285Y-66937057D02*
X230615189Y-66784676D01*
X230615189Y-66784676D02*
X230577094Y-66708485D01*
X230577094Y-66708485D02*
X230538999Y-66670390D01*
X230538999Y-66670390D02*
X230462808Y-66632295D01*
X229700903Y-66632295D02*
X229624713Y-66632295D01*
X229624713Y-66632295D02*
X229548522Y-66670390D01*
X229548522Y-66670390D02*
X229510427Y-66708485D01*
X229510427Y-66708485D02*
X229472332Y-66784676D01*
X229472332Y-66784676D02*
X229434237Y-66937057D01*
X229434237Y-66937057D02*
X229434237Y-67127533D01*
X229434237Y-67127533D02*
X229472332Y-67279914D01*
X229472332Y-67279914D02*
X229510427Y-67356104D01*
X229510427Y-67356104D02*
X229548522Y-67394200D01*
X229548522Y-67394200D02*
X229624713Y-67432295D01*
X229624713Y-67432295D02*
X229700903Y-67432295D01*
X229700903Y-67432295D02*
X229777094Y-67394200D01*
X229777094Y-67394200D02*
X229815189Y-67356104D01*
X229815189Y-67356104D02*
X229853284Y-67279914D01*
X229853284Y-67279914D02*
X229891380Y-67127533D01*
X229891380Y-67127533D02*
X229891380Y-66937057D01*
X229891380Y-66937057D02*
X229853284Y-66784676D01*
X229853284Y-66784676D02*
X229815189Y-66708485D01*
X229815189Y-66708485D02*
X229777094Y-66670390D01*
X229777094Y-66670390D02*
X229700903Y-66632295D01*
X229129475Y-66708485D02*
X229091379Y-66670390D01*
X229091379Y-66670390D02*
X229015189Y-66632295D01*
X229015189Y-66632295D02*
X228824713Y-66632295D01*
X228824713Y-66632295D02*
X228748522Y-66670390D01*
X228748522Y-66670390D02*
X228710427Y-66708485D01*
X228710427Y-66708485D02*
X228672332Y-66784676D01*
X228672332Y-66784676D02*
X228672332Y-66860866D01*
X228672332Y-66860866D02*
X228710427Y-66975152D01*
X228710427Y-66975152D02*
X229167570Y-67432295D01*
X229167570Y-67432295D02*
X228672332Y-67432295D01*
D11*
%TO.C,LED24*%
X234750869Y-122103642D02*
X234452033Y-122744499D01*
X234110013Y-121804806D01*
X234750869Y-122103642D01*
G36*
X234750869Y-122103642D02*
G01*
X234452033Y-122744499D01*
X234110013Y-121804806D01*
X234750869Y-122103642D01*
G37*
%TO.C,D13*%
X308250000Y-65300000D02*
X308650000Y-65300000D01*
X308650000Y-65300000D02*
X308650000Y-64750000D01*
X308650000Y-65300000D02*
X308650000Y-65850000D01*
X308650000Y-65300000D02*
X309250000Y-64900000D01*
X309250000Y-64900000D02*
X309250000Y-65700000D01*
X309250000Y-65300000D02*
X309750000Y-65300000D01*
X309250000Y-65700000D02*
X308650000Y-65300000D01*
%TO.C,LED13*%
X313500000Y-61125000D02*
X313000000Y-61625000D01*
X313000000Y-60625000D01*
X313500000Y-61125000D01*
G36*
X313500000Y-61125000D02*
G01*
X313000000Y-61625000D01*
X313000000Y-60625000D01*
X313500000Y-61125000D01*
G37*
%TO.C,LED21*%
X259500000Y-78125000D02*
X259000000Y-78625000D01*
X259000000Y-77625000D01*
X259500000Y-78125000D01*
G36*
X259500000Y-78125000D02*
G01*
X259000000Y-78625000D01*
X259000000Y-77625000D01*
X259500000Y-78125000D01*
G37*
%TO.C,D24*%
X231245417Y-127822465D02*
X231621294Y-127685657D01*
X231621294Y-127685657D02*
X231433183Y-127168826D01*
X231621294Y-127685657D02*
X231809405Y-128202488D01*
X231621294Y-127685657D02*
X232048301Y-127104568D01*
X232048301Y-127104568D02*
X232321917Y-127856322D01*
X232185109Y-127480445D02*
X232654955Y-127309435D01*
X232321917Y-127856322D02*
X231621294Y-127685657D01*
%TO.C,D9*%
X326250000Y-82300000D02*
X326650000Y-82300000D01*
X326650000Y-82300000D02*
X326650000Y-81750000D01*
X326650000Y-82300000D02*
X326650000Y-82850000D01*
X326650000Y-82300000D02*
X327250000Y-81900000D01*
X327250000Y-81900000D02*
X327250000Y-82700000D01*
X327250000Y-82300000D02*
X327750000Y-82300000D01*
X327250000Y-82700000D02*
X326650000Y-82300000D01*
%TO.C,D23*%
X248159884Y-121666102D02*
X248535761Y-121529294D01*
X248535761Y-121529294D02*
X248347650Y-121012463D01*
X248535761Y-121529294D02*
X248723872Y-122046125D01*
X248535761Y-121529294D02*
X248962768Y-120948205D01*
X248962768Y-120948205D02*
X249236384Y-121699959D01*
X249099576Y-121324082D02*
X249569422Y-121153072D01*
X249236384Y-121699959D02*
X248535761Y-121529294D01*
%TO.C,D11*%
X308250000Y-99300000D02*
X308650000Y-99300000D01*
X308650000Y-99300000D02*
X308650000Y-98750000D01*
X308650000Y-99300000D02*
X308650000Y-99850000D01*
X308650000Y-99300000D02*
X309250000Y-98900000D01*
X309250000Y-98900000D02*
X309250000Y-99700000D01*
X309250000Y-99300000D02*
X309750000Y-99300000D01*
X309250000Y-99700000D02*
X308650000Y-99300000D01*
%TO.C,LED25*%
X249022445Y-135000236D02*
X248723609Y-135641093D01*
X248381589Y-134701400D01*
X249022445Y-135000236D01*
G36*
X249022445Y-135000236D02*
G01*
X248723609Y-135641093D01*
X248381589Y-134701400D01*
X249022445Y-135000236D01*
G37*
%TO.C,D18*%
X272250000Y-82300000D02*
X272650000Y-82300000D01*
X272650000Y-82300000D02*
X272650000Y-81750000D01*
X272650000Y-82300000D02*
X272650000Y-82850000D01*
X272650000Y-82300000D02*
X273250000Y-81900000D01*
X273250000Y-81900000D02*
X273250000Y-82700000D01*
X273250000Y-82300000D02*
X273750000Y-82300000D01*
X273250000Y-82700000D02*
X272650000Y-82300000D01*
%TO.C,D21*%
X254250000Y-82300000D02*
X254650000Y-82300000D01*
X254650000Y-82300000D02*
X254650000Y-81750000D01*
X254650000Y-82300000D02*
X254650000Y-82850000D01*
X254650000Y-82300000D02*
X255250000Y-81900000D01*
X255250000Y-81900000D02*
X255250000Y-82700000D01*
X255250000Y-82300000D02*
X255750000Y-82300000D01*
X255250000Y-82700000D02*
X254650000Y-82300000D01*
%TO.C,D7*%
X344250000Y-65300000D02*
X344650000Y-65300000D01*
X344650000Y-65300000D02*
X344650000Y-64750000D01*
X344650000Y-65300000D02*
X344650000Y-65850000D01*
X344650000Y-65300000D02*
X345250000Y-64900000D01*
X345250000Y-64900000D02*
X345250000Y-65700000D01*
X345250000Y-65300000D02*
X345750000Y-65300000D01*
X345250000Y-65700000D02*
X344650000Y-65300000D01*
%TO.C,LED4*%
X349500000Y-112125000D02*
X349000000Y-112625000D01*
X349000000Y-111625000D01*
X349500000Y-112125000D01*
G36*
X349500000Y-112125000D02*
G01*
X349000000Y-112625000D01*
X349000000Y-111625000D01*
X349500000Y-112125000D01*
G37*
%TO.C,D22*%
X254250000Y-65300000D02*
X254650000Y-65300000D01*
X254650000Y-65300000D02*
X254650000Y-64750000D01*
X254650000Y-65300000D02*
X254650000Y-65850000D01*
X254650000Y-65300000D02*
X255250000Y-64900000D01*
X255250000Y-64900000D02*
X255250000Y-65700000D01*
X255250000Y-65300000D02*
X255750000Y-65300000D01*
X255250000Y-65700000D02*
X254650000Y-65300000D01*
%TO.C,D8*%
X326250000Y-99300000D02*
X326650000Y-99300000D01*
X326650000Y-99300000D02*
X326650000Y-98750000D01*
X326650000Y-99300000D02*
X326650000Y-99850000D01*
X326650000Y-99300000D02*
X327250000Y-98900000D01*
X327250000Y-98900000D02*
X327250000Y-99700000D01*
X327250000Y-99300000D02*
X327750000Y-99300000D01*
X327250000Y-99700000D02*
X326650000Y-99300000D01*
%TO.C,LED23*%
X251665336Y-115947280D02*
X251366500Y-116588137D01*
X251024480Y-115648444D01*
X251665336Y-115947280D01*
G36*
X251665336Y-115947280D02*
G01*
X251366500Y-116588137D01*
X251024480Y-115648444D01*
X251665336Y-115947280D01*
G37*
%TO.C,LED9*%
X331500000Y-78125000D02*
X331000000Y-78625000D01*
X331000000Y-77625000D01*
X331500000Y-78125000D01*
G36*
X331500000Y-78125000D02*
G01*
X331000000Y-78625000D01*
X331000000Y-77625000D01*
X331500000Y-78125000D01*
G37*
%TO.C,D12*%
X308250000Y-82300000D02*
X308650000Y-82300000D01*
X308650000Y-82300000D02*
X308650000Y-81750000D01*
X308650000Y-82300000D02*
X308650000Y-82850000D01*
X308650000Y-82300000D02*
X309250000Y-81900000D01*
X309250000Y-81900000D02*
X309250000Y-82700000D01*
X309250000Y-82300000D02*
X309750000Y-82300000D01*
X309250000Y-82700000D02*
X308650000Y-82300000D01*
%TO.C,LED20*%
X259500000Y-95125000D02*
X259000000Y-95625000D01*
X259000000Y-94625000D01*
X259500000Y-95125000D01*
G36*
X259500000Y-95125000D02*
G01*
X259000000Y-95625000D01*
X259000000Y-94625000D01*
X259500000Y-95125000D01*
G37*
%TO.C,LED10*%
X331500000Y-61125000D02*
X331000000Y-61625000D01*
X331000000Y-60625000D01*
X331500000Y-61125000D01*
G36*
X331500000Y-61125000D02*
G01*
X331000000Y-61625000D01*
X331000000Y-60625000D01*
X331500000Y-61125000D01*
G37*
%TO.C,D10*%
X326250000Y-65300000D02*
X326650000Y-65300000D01*
X326650000Y-65300000D02*
X326650000Y-64750000D01*
X326650000Y-65300000D02*
X326650000Y-65850000D01*
X326650000Y-65300000D02*
X327250000Y-64900000D01*
X327250000Y-64900000D02*
X327250000Y-65700000D01*
X327250000Y-65300000D02*
X327750000Y-65300000D01*
X327250000Y-65700000D02*
X326650000Y-65300000D01*
%TO.C,LED19*%
X277500000Y-61125000D02*
X277000000Y-61625000D01*
X277000000Y-60625000D01*
X277500000Y-61125000D01*
G36*
X277500000Y-61125000D02*
G01*
X277000000Y-61625000D01*
X277000000Y-60625000D01*
X277500000Y-61125000D01*
G37*
%TO.C,LED16*%
X295500000Y-61125000D02*
X295000000Y-61625000D01*
X295000000Y-60625000D01*
X295500000Y-61125000D01*
G36*
X295500000Y-61125000D02*
G01*
X295000000Y-61625000D01*
X295000000Y-60625000D01*
X295500000Y-61125000D01*
G37*
%TO.C,LED11*%
X313500000Y-95125000D02*
X313000000Y-95625000D01*
X313000000Y-94625000D01*
X313500000Y-95125000D01*
G36*
X313500000Y-95125000D02*
G01*
X313000000Y-95625000D01*
X313000000Y-94625000D01*
X313500000Y-95125000D01*
G37*
%TO.C,LED8*%
X331500000Y-95125000D02*
X331000000Y-95625000D01*
X331000000Y-94625000D01*
X331500000Y-95125000D01*
G36*
X331500000Y-95125000D02*
G01*
X331000000Y-95625000D01*
X331000000Y-94625000D01*
X331500000Y-95125000D01*
G37*
%TO.C,LED5*%
X349500000Y-95125000D02*
X349000000Y-95625000D01*
X349000000Y-94625000D01*
X349500000Y-95125000D01*
G36*
X349500000Y-95125000D02*
G01*
X349000000Y-95625000D01*
X349000000Y-94625000D01*
X349500000Y-95125000D01*
G37*
%TO.C,D16*%
X290250000Y-65300000D02*
X290650000Y-65300000D01*
X290650000Y-65300000D02*
X290650000Y-64750000D01*
X290650000Y-65300000D02*
X290650000Y-65850000D01*
X290650000Y-65300000D02*
X291250000Y-64900000D01*
X291250000Y-64900000D02*
X291250000Y-65700000D01*
X291250000Y-65300000D02*
X291750000Y-65300000D01*
X291250000Y-65700000D02*
X290650000Y-65300000D01*
%TO.C,LED15*%
X295500000Y-78125000D02*
X295000000Y-78625000D01*
X295000000Y-77625000D01*
X295500000Y-78125000D01*
G36*
X295500000Y-78125000D02*
G01*
X295000000Y-78625000D01*
X295000000Y-77625000D01*
X295500000Y-78125000D01*
G37*
%TO.C,D25*%
X245516993Y-140719058D02*
X245892870Y-140582250D01*
X245892870Y-140582250D02*
X245704759Y-140065419D01*
X245892870Y-140582250D02*
X246080981Y-141099081D01*
X245892870Y-140582250D02*
X246319877Y-140001161D01*
X246319877Y-140001161D02*
X246593493Y-140752915D01*
X246456685Y-140377038D02*
X246926531Y-140206028D01*
X246593493Y-140752915D02*
X245892870Y-140582250D01*
%TO.C,LED7*%
X349500000Y-61125000D02*
X349000000Y-61625000D01*
X349000000Y-60625000D01*
X349500000Y-61125000D01*
G36*
X349500000Y-61125000D02*
G01*
X349000000Y-61625000D01*
X349000000Y-60625000D01*
X349500000Y-61125000D01*
G37*
%TO.C,LED18*%
X277500000Y-78125000D02*
X277000000Y-78625000D01*
X277000000Y-77625000D01*
X277500000Y-78125000D01*
G36*
X277500000Y-78125000D02*
G01*
X277000000Y-78625000D01*
X277000000Y-77625000D01*
X277500000Y-78125000D01*
G37*
%TO.C,D6*%
X344250000Y-82300000D02*
X344650000Y-82300000D01*
X344650000Y-82300000D02*
X344650000Y-81750000D01*
X344650000Y-82300000D02*
X344650000Y-82850000D01*
X344650000Y-82300000D02*
X345250000Y-81900000D01*
X345250000Y-81900000D02*
X345250000Y-82700000D01*
X345250000Y-82300000D02*
X345750000Y-82300000D01*
X345250000Y-82700000D02*
X344650000Y-82300000D01*
%TO.C,D14*%
X290250000Y-99300000D02*
X290650000Y-99300000D01*
X290650000Y-99300000D02*
X290650000Y-98750000D01*
X290650000Y-99300000D02*
X290650000Y-99850000D01*
X290650000Y-99300000D02*
X291250000Y-98900000D01*
X291250000Y-98900000D02*
X291250000Y-99700000D01*
X291250000Y-99300000D02*
X291750000Y-99300000D01*
X291250000Y-99700000D02*
X290650000Y-99300000D01*
%TO.C,LED22*%
X259500000Y-61125000D02*
X259000000Y-61625000D01*
X259000000Y-60625000D01*
X259500000Y-61125000D01*
G36*
X259500000Y-61125000D02*
G01*
X259000000Y-61625000D01*
X259000000Y-60625000D01*
X259500000Y-61125000D01*
G37*
%TO.C,LED6*%
X349500000Y-78125000D02*
X349000000Y-78625000D01*
X349000000Y-77625000D01*
X349500000Y-78125000D01*
G36*
X349500000Y-78125000D02*
G01*
X349000000Y-78625000D01*
X349000000Y-77625000D01*
X349500000Y-78125000D01*
G37*
%TO.C,D5*%
X344250000Y-99300000D02*
X344650000Y-99300000D01*
X344650000Y-99300000D02*
X344650000Y-98750000D01*
X344650000Y-99300000D02*
X344650000Y-99850000D01*
X344650000Y-99300000D02*
X345250000Y-98900000D01*
X345250000Y-98900000D02*
X345250000Y-99700000D01*
X345250000Y-99300000D02*
X345750000Y-99300000D01*
X345250000Y-99700000D02*
X344650000Y-99300000D01*
%TO.C,LED17*%
X277500000Y-95125000D02*
X277000000Y-95625000D01*
X277000000Y-94625000D01*
X277500000Y-95125000D01*
G36*
X277500000Y-95125000D02*
G01*
X277000000Y-95625000D01*
X277000000Y-94625000D01*
X277500000Y-95125000D01*
G37*
%TO.C,D19*%
X272250000Y-65300000D02*
X272650000Y-65300000D01*
X272650000Y-65300000D02*
X272650000Y-64750000D01*
X272650000Y-65300000D02*
X272650000Y-65850000D01*
X272650000Y-65300000D02*
X273250000Y-64900000D01*
X273250000Y-64900000D02*
X273250000Y-65700000D01*
X273250000Y-65300000D02*
X273750000Y-65300000D01*
X273250000Y-65700000D02*
X272650000Y-65300000D01*
%TO.C,D20*%
X254250000Y-99300000D02*
X254650000Y-99300000D01*
X254650000Y-99300000D02*
X254650000Y-98750000D01*
X254650000Y-99300000D02*
X254650000Y-99850000D01*
X254650000Y-99300000D02*
X255250000Y-98900000D01*
X255250000Y-98900000D02*
X255250000Y-99700000D01*
X255250000Y-99300000D02*
X255750000Y-99300000D01*
X255250000Y-99700000D02*
X254650000Y-99300000D01*
%TO.C,D15*%
X290250000Y-82300000D02*
X290650000Y-82300000D01*
X290650000Y-82300000D02*
X290650000Y-81750000D01*
X290650000Y-82300000D02*
X290650000Y-82850000D01*
X290650000Y-82300000D02*
X291250000Y-81900000D01*
X291250000Y-81900000D02*
X291250000Y-82700000D01*
X291250000Y-82300000D02*
X291750000Y-82300000D01*
X291250000Y-82700000D02*
X290650000Y-82300000D01*
%TO.C,D4*%
X344250000Y-116300000D02*
X344650000Y-116300000D01*
X344650000Y-116300000D02*
X344650000Y-115750000D01*
X344650000Y-116300000D02*
X344650000Y-116850000D01*
X344650000Y-116300000D02*
X345250000Y-115900000D01*
X345250000Y-115900000D02*
X345250000Y-116700000D01*
X345250000Y-116300000D02*
X345750000Y-116300000D01*
X345250000Y-116700000D02*
X344650000Y-116300000D01*
D12*
%TO.C,MCU1*%
X226310000Y-48020000D02*
X226310000Y-81040000D01*
X226310000Y-81040000D02*
X244090000Y-81040000D01*
X244090000Y-48020000D02*
X226310000Y-48020000D01*
X244090000Y-81040000D02*
X244090000Y-48020000D01*
D11*
%TO.C,LED14*%
X295500000Y-95125000D02*
X295000000Y-95625000D01*
X295000000Y-94625000D01*
X295500000Y-95125000D01*
G36*
X295500000Y-95125000D02*
G01*
X295000000Y-95625000D01*
X295000000Y-94625000D01*
X295500000Y-95125000D01*
G37*
%TO.C,LED12*%
X313500000Y-78125000D02*
X313000000Y-78625000D01*
X313000000Y-77625000D01*
X313500000Y-78125000D01*
G36*
X313500000Y-78125000D02*
G01*
X313000000Y-78625000D01*
X313000000Y-77625000D01*
X313500000Y-78125000D01*
G37*
%TO.C,D17*%
X272250000Y-99300000D02*
X272650000Y-99300000D01*
X272650000Y-99300000D02*
X272650000Y-98750000D01*
X272650000Y-99300000D02*
X272650000Y-99850000D01*
X272650000Y-99300000D02*
X273250000Y-98900000D01*
X273250000Y-98900000D02*
X273250000Y-99700000D01*
X273250000Y-99300000D02*
X273750000Y-99300000D01*
X273250000Y-99700000D02*
X272650000Y-99300000D01*
%TD*%
D13*
%TO.C,MCU1*%
X242820000Y-51830000D03*
X242820000Y-54370000D03*
X242820000Y-56910000D03*
X242820000Y-59450000D03*
X242820000Y-61990000D03*
X242820000Y-64530000D03*
X242820000Y-67070000D03*
X242820000Y-69610000D03*
X242820000Y-72150000D03*
X242820000Y-74690000D03*
X242820000Y-77230000D03*
X242820000Y-79770000D03*
X227580000Y-79770000D03*
X227580000Y-77230000D03*
X227580000Y-74690000D03*
X227580000Y-72150000D03*
X227580000Y-69610000D03*
X227580000Y-67070000D03*
X227580000Y-64530000D03*
X227580000Y-61990000D03*
X227580000Y-59450000D03*
X227580000Y-56910000D03*
X227580000Y-54370000D03*
X227580000Y-51830000D03*
X230120000Y-74690000D03*
X232660000Y-74690000D03*
X235200000Y-74690000D03*
%TD*%
M02*
