M48
; DRILL file {KiCad 8.0.8} date 2025-02-15T03:14:26-1000
; FORMAT={-:-/ absolute / inch / decimal}
; #@! TF.CreationDate,2025-02-15T03:14:26-10:00
; #@! TF.GenerationSoftware,Kicad,Pcbnew,8.0.8
; #@! TF.FileFunction,Plated,1,2,PTH
FMAT,2
INCH
; #@! TA.AperFunction,Plated,PTH,ViaDrill
T1C0.0157
; #@! TA.AperFunction,Plated,PTH,ComponentDrill
T2C0.0295
; #@! TA.AperFunction,Plated,PTH,ComponentDrill
T3C0.0390
; #@! TA.AperFunction,Plated,PTH,ComponentDrill
T4C0.0394
; #@! TA.AperFunction,Plated,PTH,ComponentDrill
T5C0.0430
%
G90
G05
T1
X8.8386Y-4.2126
X8.9173Y-4.9606
X8.937Y-3.6614
X8.937Y-5.0
X8.9764Y-3.6614
X9.0945Y-4.4488
X9.1535Y-5.0787
X9.2323Y-4.8031
X9.2352Y-4.843
X9.3598Y-2.5406
X9.4488Y-4.1535
X9.4596Y-2.6181
X9.4604Y-5.52
X9.4882Y-4.8819
X9.4882Y-5.4921
X9.5079Y-3.3465
X9.5276Y-3.3071
X9.5472Y-4.4094
X9.5472Y-4.9213
X9.5588Y-4.7522
X9.5669Y-4.6457
X9.5866Y-4.7244
X9.6457Y-3.3071
X9.7047Y-2.5984
X9.7047Y-4.0157
X9.7436Y-3.347
X9.7441Y-2.0669
X9.7726Y-2.5197
X9.7726Y-2.5984
X9.7773Y-3.2874
X9.7868Y-5.3137
X9.7967Y-5.3548
X9.8031Y-3.9764
X9.8307Y-2.5394
X9.8344Y-2.4885
X9.8344Y-3.1578
X9.8344Y-3.8271
X9.8622Y-2.4606
X9.8622Y-3.1299
X9.8622Y-3.7992
X9.8909Y-4.5637
X9.9021Y-4.6056
X9.9409Y-4.0945
X10.0787Y-4.0945
X10.1969Y-2.4409
X10.1969Y-3.1102
X10.1969Y-3.7795
X10.2008Y-2.4016
X10.2008Y-3.0709
X10.2008Y-3.7402
X10.315Y-2.3356
X10.4921Y-3.9961
X10.5177Y-2.0217
X10.543Y-2.4885
X10.543Y-3.1578
X10.5437Y-3.8278
X10.5709Y-2.4606
X10.5709Y-3.1299
X10.5709Y-3.7992
X10.8661Y-2.3356
X10.9055Y-2.4409
X10.9055Y-3.1102
X10.9055Y-3.7795
X10.9094Y-3.0709
X10.9094Y-3.7402
X10.9101Y-2.4018
X11.2264Y-2.0217
X11.2517Y-3.1578
X11.2517Y-3.8271
X11.2524Y-2.4892
X11.2795Y-2.4606
X11.2795Y-3.1299
X11.2795Y-3.7992
X11.6133Y-3.78
X11.6142Y-2.4409
X11.6142Y-3.1102
X11.6188Y-2.4018
X11.6188Y-3.0711
X11.6189Y-3.7411
X11.7126Y-2.3356
X11.9604Y-2.4885
X11.9604Y-3.1578
X11.9604Y-3.8271
X11.9882Y-2.4606
X11.9882Y-3.1299
X11.9882Y-3.7992
X12.0276Y-1.9488
X12.2441Y-3.6742
X12.3031Y-2.3356
X12.3228Y-2.4409
X12.3228Y-3.1102
X12.3228Y-3.7795
X12.3268Y-3.7402
X12.3274Y-2.4018
X12.3274Y-3.0711
X12.669Y-2.4885
X12.669Y-3.1578
X12.6697Y-3.8278
X12.6969Y-2.4606
X12.6969Y-3.1299
X12.6969Y-3.7992
X12.7165Y-1.9183
X12.8159Y-3.6742
X13.0315Y-2.4409
X13.0315Y-3.1102
X13.0315Y-3.7795
X13.0354Y-2.4016
X13.0361Y-3.0711
X13.0369Y-3.7405
X13.1496Y-2.3356
X13.3465Y-3.7598
X13.3661Y-3.9961
X13.3777Y-2.4885
X13.3777Y-3.1578
X13.3777Y-3.8271
X13.4055Y-2.4606
X13.4055Y-3.1299
X13.4055Y-3.7992
X13.4055Y-4.4685
X13.4449Y-1.9291
X13.7008Y-4.311
X13.7008Y-4.3701
X13.7402Y-2.4409
X13.7402Y-3.1102
X13.7402Y-3.7795
X13.7441Y-2.4016
X13.7441Y-3.7402
X13.7448Y-3.0711
T2
X12.874Y-4.2244
X12.874Y-4.3031
T3
X8.9909Y-5.0736
X9.2729Y-4.971
X9.5528Y-5.5813
X9.6569Y-4.8312
X9.8347Y-5.4787
X9.8894Y-2.5709
X9.8894Y-3.2402
X9.8894Y-3.9094
X9.9388Y-4.7286
X10.1894Y-2.5709
X10.1894Y-3.2402
X10.1894Y-3.9094
X10.598Y-2.5709
X10.598Y-3.2402
X10.598Y-3.9094
X10.898Y-2.5709
X10.898Y-3.2402
X10.898Y-3.9094
X11.3067Y-2.5709
X11.3067Y-3.2402
X11.3067Y-3.9094
X11.6067Y-2.5709
X11.6067Y-3.2402
X11.6067Y-3.9094
X12.0154Y-2.5709
X12.0154Y-3.2402
X12.0154Y-3.9094
X12.3154Y-2.5709
X12.3154Y-3.2402
X12.3154Y-3.9094
X12.724Y-2.5709
X12.724Y-3.2402
X12.724Y-3.9094
X13.024Y-2.5709
X13.024Y-3.2402
X13.024Y-3.9094
X13.4327Y-2.5709
X13.4327Y-3.2402
X13.4327Y-3.9094
X13.4327Y-4.5787
X13.7327Y-2.5709
X13.7327Y-3.2402
X13.7327Y-3.9094
X13.7327Y-4.5787
T4
X9.0598Y-3.2589
X9.1598Y-3.2589
X9.2598Y-3.2589
X9.3598Y-3.2589
X9.4598Y-3.2589
T5
X8.9598Y-2.0406
X8.9598Y-2.1406
X8.9598Y-2.2406
X8.9598Y-2.3406
X8.9598Y-2.4406
X8.9598Y-2.5406
X8.9598Y-2.6406
X8.9598Y-2.7406
X8.9598Y-2.8406
X8.9598Y-2.9406
X8.9598Y-3.0406
X8.9598Y-3.1406
X9.0598Y-2.9406
X9.1598Y-2.9406
X9.2598Y-2.9406
X9.5598Y-2.0406
X9.5598Y-2.1406
X9.5598Y-2.2406
X9.5598Y-2.3406
X9.5598Y-2.4406
X9.5598Y-2.5406
X9.5598Y-2.6406
X9.5598Y-2.7406
X9.5598Y-2.8406
X9.5598Y-2.9406
X9.5598Y-3.0406
X9.5598Y-3.1406
M30
