%TF.GenerationSoftware,KiCad,Pcbnew,8.0.8*%
%TF.CreationDate,2025-02-15T03:14:29-10:00*%
%TF.ProjectId,theguy2,74686567-7579-4322-9e6b-696361645f70,v1.0.0*%
%TF.SameCoordinates,Original*%
%TF.FileFunction,Legend,Top*%
%TF.FilePolarity,Positive*%
%FSLAX46Y46*%
G04 Gerber Fmt 4.6, Leading zero omitted, Abs format (unit mm)*
G04 Created by KiCad (PCBNEW 8.0.8) date 2025-02-15 03:14:29*
%MOMM*%
%LPD*%
G01*
G04 APERTURE LIST*
%ADD10C,0.400000*%
%ADD11C,0.150000*%
%ADD12C,0.300000*%
%ADD13C,0.100000*%
%ADD14C,0.120000*%
%ADD15C,0.381000*%
%ADD16C,4.000000*%
%ADD17C,1.752600*%
G04 APERTURE END LIST*
D10*
X307239347Y-103904438D02*
X307239347Y-101904438D01*
X307239347Y-101904438D02*
X308001252Y-101904438D01*
X308001252Y-101904438D02*
X308191728Y-101999676D01*
X308191728Y-101999676D02*
X308286966Y-102094914D01*
X308286966Y-102094914D02*
X308382204Y-102285390D01*
X308382204Y-102285390D02*
X308382204Y-102571104D01*
X308382204Y-102571104D02*
X308286966Y-102761580D01*
X308286966Y-102761580D02*
X308191728Y-102856819D01*
X308191728Y-102856819D02*
X308001252Y-102952057D01*
X308001252Y-102952057D02*
X307239347Y-102952057D01*
X310096490Y-103904438D02*
X310096490Y-102856819D01*
X310096490Y-102856819D02*
X310001252Y-102666342D01*
X310001252Y-102666342D02*
X309810776Y-102571104D01*
X309810776Y-102571104D02*
X309429823Y-102571104D01*
X309429823Y-102571104D02*
X309239347Y-102666342D01*
X310096490Y-103809200D02*
X309906014Y-103904438D01*
X309906014Y-103904438D02*
X309429823Y-103904438D01*
X309429823Y-103904438D02*
X309239347Y-103809200D01*
X309239347Y-103809200D02*
X309144109Y-103618723D01*
X309144109Y-103618723D02*
X309144109Y-103428247D01*
X309144109Y-103428247D02*
X309239347Y-103237771D01*
X309239347Y-103237771D02*
X309429823Y-103142533D01*
X309429823Y-103142533D02*
X309906014Y-103142533D01*
X309906014Y-103142533D02*
X310096490Y-103047295D01*
X311048871Y-103904438D02*
X311048871Y-102571104D01*
X311048871Y-101904438D02*
X310953633Y-101999676D01*
X310953633Y-101999676D02*
X311048871Y-102094914D01*
X311048871Y-102094914D02*
X311144109Y-101999676D01*
X311144109Y-101999676D02*
X311048871Y-101904438D01*
X311048871Y-101904438D02*
X311048871Y-102094914D01*
X312001252Y-102571104D02*
X312001252Y-103904438D01*
X312001252Y-102761580D02*
X312096490Y-102666342D01*
X312096490Y-102666342D02*
X312286966Y-102571104D01*
X312286966Y-102571104D02*
X312572681Y-102571104D01*
X312572681Y-102571104D02*
X312763157Y-102666342D01*
X312763157Y-102666342D02*
X312858395Y-102856819D01*
X312858395Y-102856819D02*
X312858395Y-103904438D01*
X315429824Y-103904438D02*
X315334586Y-103904438D01*
X315334586Y-103904438D02*
X315144109Y-103809200D01*
X315144109Y-103809200D02*
X314858395Y-103523485D01*
X314858395Y-103523485D02*
X314382205Y-102952057D01*
X314382205Y-102952057D02*
X314191728Y-102666342D01*
X314191728Y-102666342D02*
X314096490Y-102380628D01*
X314096490Y-102380628D02*
X314096490Y-102190152D01*
X314096490Y-102190152D02*
X314191728Y-101999676D01*
X314191728Y-101999676D02*
X314382205Y-101904438D01*
X314382205Y-101904438D02*
X314477443Y-101904438D01*
X314477443Y-101904438D02*
X314667919Y-101999676D01*
X314667919Y-101999676D02*
X314763157Y-102190152D01*
X314763157Y-102190152D02*
X314763157Y-102285390D01*
X314763157Y-102285390D02*
X314667919Y-102475866D01*
X314667919Y-102475866D02*
X314572681Y-102571104D01*
X314572681Y-102571104D02*
X314001252Y-102952057D01*
X314001252Y-102952057D02*
X313906014Y-103047295D01*
X313906014Y-103047295D02*
X313810776Y-103237771D01*
X313810776Y-103237771D02*
X313810776Y-103523485D01*
X313810776Y-103523485D02*
X313906014Y-103713961D01*
X313906014Y-103713961D02*
X314001252Y-103809200D01*
X314001252Y-103809200D02*
X314191728Y-103904438D01*
X314191728Y-103904438D02*
X314477443Y-103904438D01*
X314477443Y-103904438D02*
X314667919Y-103809200D01*
X314667919Y-103809200D02*
X314763157Y-103713961D01*
X314763157Y-103713961D02*
X315048871Y-103333009D01*
X315048871Y-103333009D02*
X315144109Y-103047295D01*
X315144109Y-103047295D02*
X315144109Y-102856819D01*
X316191728Y-103809200D02*
X316477442Y-103904438D01*
X316477442Y-103904438D02*
X316953633Y-103904438D01*
X316953633Y-103904438D02*
X317144109Y-103809200D01*
X317144109Y-103809200D02*
X317239347Y-103713961D01*
X317239347Y-103713961D02*
X317334585Y-103523485D01*
X317334585Y-103523485D02*
X317334585Y-103333009D01*
X317334585Y-103333009D02*
X317239347Y-103142533D01*
X317239347Y-103142533D02*
X317144109Y-103047295D01*
X317144109Y-103047295D02*
X316953633Y-102952057D01*
X316953633Y-102952057D02*
X316572680Y-102856819D01*
X316572680Y-102856819D02*
X316382204Y-102761580D01*
X316382204Y-102761580D02*
X316286966Y-102666342D01*
X316286966Y-102666342D02*
X316191728Y-102475866D01*
X316191728Y-102475866D02*
X316191728Y-102285390D01*
X316191728Y-102285390D02*
X316286966Y-102094914D01*
X316286966Y-102094914D02*
X316382204Y-101999676D01*
X316382204Y-101999676D02*
X316572680Y-101904438D01*
X316572680Y-101904438D02*
X317048871Y-101904438D01*
X317048871Y-101904438D02*
X317334585Y-101999676D01*
X319048871Y-102571104D02*
X319048871Y-103904438D01*
X318191728Y-102571104D02*
X318191728Y-103618723D01*
X318191728Y-103618723D02*
X318286966Y-103809200D01*
X318286966Y-103809200D02*
X318477442Y-103904438D01*
X318477442Y-103904438D02*
X318763157Y-103904438D01*
X318763157Y-103904438D02*
X318953633Y-103809200D01*
X318953633Y-103809200D02*
X319048871Y-103713961D01*
X319715538Y-102571104D02*
X320477442Y-102571104D01*
X320001252Y-103904438D02*
X320001252Y-102190152D01*
X320001252Y-102190152D02*
X320096490Y-101999676D01*
X320096490Y-101999676D02*
X320286966Y-101904438D01*
X320286966Y-101904438D02*
X320477442Y-101904438D01*
X320858395Y-102571104D02*
X321620299Y-102571104D01*
X321144109Y-103904438D02*
X321144109Y-102190152D01*
X321144109Y-102190152D02*
X321239347Y-101999676D01*
X321239347Y-101999676D02*
X321429823Y-101904438D01*
X321429823Y-101904438D02*
X321620299Y-101904438D01*
X323048871Y-103809200D02*
X322858395Y-103904438D01*
X322858395Y-103904438D02*
X322477442Y-103904438D01*
X322477442Y-103904438D02*
X322286966Y-103809200D01*
X322286966Y-103809200D02*
X322191728Y-103618723D01*
X322191728Y-103618723D02*
X322191728Y-102856819D01*
X322191728Y-102856819D02*
X322286966Y-102666342D01*
X322286966Y-102666342D02*
X322477442Y-102571104D01*
X322477442Y-102571104D02*
X322858395Y-102571104D01*
X322858395Y-102571104D02*
X323048871Y-102666342D01*
X323048871Y-102666342D02*
X323144109Y-102856819D01*
X323144109Y-102856819D02*
X323144109Y-103047295D01*
X323144109Y-103047295D02*
X322191728Y-103237771D01*
X324001252Y-103904438D02*
X324001252Y-102571104D01*
X324001252Y-102952057D02*
X324096490Y-102761580D01*
X324096490Y-102761580D02*
X324191728Y-102666342D01*
X324191728Y-102666342D02*
X324382204Y-102571104D01*
X324382204Y-102571104D02*
X324572681Y-102571104D01*
X325239347Y-103904438D02*
X325239347Y-102571104D01*
X325239347Y-101904438D02*
X325144109Y-101999676D01*
X325144109Y-101999676D02*
X325239347Y-102094914D01*
X325239347Y-102094914D02*
X325334585Y-101999676D01*
X325334585Y-101999676D02*
X325239347Y-101904438D01*
X325239347Y-101904438D02*
X325239347Y-102094914D01*
X326191728Y-102571104D02*
X326191728Y-103904438D01*
X326191728Y-102761580D02*
X326286966Y-102666342D01*
X326286966Y-102666342D02*
X326477442Y-102571104D01*
X326477442Y-102571104D02*
X326763157Y-102571104D01*
X326763157Y-102571104D02*
X326953633Y-102666342D01*
X326953633Y-102666342D02*
X327048871Y-102856819D01*
X327048871Y-102856819D02*
X327048871Y-103904438D01*
X328858395Y-102571104D02*
X328858395Y-104190152D01*
X328858395Y-104190152D02*
X328763157Y-104380628D01*
X328763157Y-104380628D02*
X328667919Y-104475866D01*
X328667919Y-104475866D02*
X328477442Y-104571104D01*
X328477442Y-104571104D02*
X328191728Y-104571104D01*
X328191728Y-104571104D02*
X328001252Y-104475866D01*
X328858395Y-103809200D02*
X328667919Y-103904438D01*
X328667919Y-103904438D02*
X328286966Y-103904438D01*
X328286966Y-103904438D02*
X328096490Y-103809200D01*
X328096490Y-103809200D02*
X328001252Y-103713961D01*
X328001252Y-103713961D02*
X327906014Y-103523485D01*
X327906014Y-103523485D02*
X327906014Y-102952057D01*
X327906014Y-102952057D02*
X328001252Y-102761580D01*
X328001252Y-102761580D02*
X328096490Y-102666342D01*
X328096490Y-102666342D02*
X328286966Y-102571104D01*
X328286966Y-102571104D02*
X328667919Y-102571104D01*
X328667919Y-102571104D02*
X328858395Y-102666342D01*
D11*
X230444200Y-81546428D02*
X230482295Y-81432142D01*
X230482295Y-81432142D02*
X230482295Y-81241666D01*
X230482295Y-81241666D02*
X230444200Y-81165475D01*
X230444200Y-81165475D02*
X230406104Y-81127380D01*
X230406104Y-81127380D02*
X230329914Y-81089285D01*
X230329914Y-81089285D02*
X230253723Y-81089285D01*
X230253723Y-81089285D02*
X230177533Y-81127380D01*
X230177533Y-81127380D02*
X230139438Y-81165475D01*
X230139438Y-81165475D02*
X230101342Y-81241666D01*
X230101342Y-81241666D02*
X230063247Y-81394047D01*
X230063247Y-81394047D02*
X230025152Y-81470237D01*
X230025152Y-81470237D02*
X229987057Y-81508332D01*
X229987057Y-81508332D02*
X229910866Y-81546428D01*
X229910866Y-81546428D02*
X229834676Y-81546428D01*
X229834676Y-81546428D02*
X229758485Y-81508332D01*
X229758485Y-81508332D02*
X229720390Y-81470237D01*
X229720390Y-81470237D02*
X229682295Y-81394047D01*
X229682295Y-81394047D02*
X229682295Y-81203570D01*
X229682295Y-81203570D02*
X229720390Y-81089285D01*
X230482295Y-80746427D02*
X229682295Y-80746427D01*
X229682295Y-80746427D02*
X229682295Y-80555951D01*
X229682295Y-80555951D02*
X229720390Y-80441665D01*
X229720390Y-80441665D02*
X229796580Y-80365475D01*
X229796580Y-80365475D02*
X229872771Y-80327380D01*
X229872771Y-80327380D02*
X230025152Y-80289284D01*
X230025152Y-80289284D02*
X230139438Y-80289284D01*
X230139438Y-80289284D02*
X230291819Y-80327380D01*
X230291819Y-80327380D02*
X230368009Y-80365475D01*
X230368009Y-80365475D02*
X230444200Y-80441665D01*
X230444200Y-80441665D02*
X230482295Y-80555951D01*
X230482295Y-80555951D02*
X230482295Y-80746427D01*
X230253723Y-79984523D02*
X230253723Y-79603570D01*
X230482295Y-80060713D02*
X229682295Y-79794046D01*
X229682295Y-79794046D02*
X230482295Y-79527380D01*
X240566104Y-80708332D02*
X240604200Y-80746428D01*
X240604200Y-80746428D02*
X240642295Y-80860713D01*
X240642295Y-80860713D02*
X240642295Y-80936904D01*
X240642295Y-80936904D02*
X240604200Y-81051190D01*
X240604200Y-81051190D02*
X240528009Y-81127380D01*
X240528009Y-81127380D02*
X240451819Y-81165475D01*
X240451819Y-81165475D02*
X240299438Y-81203571D01*
X240299438Y-81203571D02*
X240185152Y-81203571D01*
X240185152Y-81203571D02*
X240032771Y-81165475D01*
X240032771Y-81165475D02*
X239956580Y-81127380D01*
X239956580Y-81127380D02*
X239880390Y-81051190D01*
X239880390Y-81051190D02*
X239842295Y-80936904D01*
X239842295Y-80936904D02*
X239842295Y-80860713D01*
X239842295Y-80860713D02*
X239880390Y-80746428D01*
X239880390Y-80746428D02*
X239918485Y-80708332D01*
X240604200Y-80403571D02*
X240642295Y-80289285D01*
X240642295Y-80289285D02*
X240642295Y-80098809D01*
X240642295Y-80098809D02*
X240604200Y-80022618D01*
X240604200Y-80022618D02*
X240566104Y-79984523D01*
X240566104Y-79984523D02*
X240489914Y-79946428D01*
X240489914Y-79946428D02*
X240413723Y-79946428D01*
X240413723Y-79946428D02*
X240337533Y-79984523D01*
X240337533Y-79984523D02*
X240299438Y-80022618D01*
X240299438Y-80022618D02*
X240261342Y-80098809D01*
X240261342Y-80098809D02*
X240223247Y-80251190D01*
X240223247Y-80251190D02*
X240185152Y-80327380D01*
X240185152Y-80327380D02*
X240147057Y-80365475D01*
X240147057Y-80365475D02*
X240070866Y-80403571D01*
X240070866Y-80403571D02*
X239994676Y-80403571D01*
X239994676Y-80403571D02*
X239918485Y-80365475D01*
X239918485Y-80365475D02*
X239880390Y-80327380D01*
X239880390Y-80327380D02*
X239842295Y-80251190D01*
X239842295Y-80251190D02*
X239842295Y-80060713D01*
X239842295Y-80060713D02*
X239880390Y-79946428D01*
X234762295Y-81641666D02*
X235562295Y-81374999D01*
X235562295Y-81374999D02*
X234762295Y-81108333D01*
X235486104Y-80384523D02*
X235524200Y-80422619D01*
X235524200Y-80422619D02*
X235562295Y-80536904D01*
X235562295Y-80536904D02*
X235562295Y-80613095D01*
X235562295Y-80613095D02*
X235524200Y-80727381D01*
X235524200Y-80727381D02*
X235448009Y-80803571D01*
X235448009Y-80803571D02*
X235371819Y-80841666D01*
X235371819Y-80841666D02*
X235219438Y-80879762D01*
X235219438Y-80879762D02*
X235105152Y-80879762D01*
X235105152Y-80879762D02*
X234952771Y-80841666D01*
X234952771Y-80841666D02*
X234876580Y-80803571D01*
X234876580Y-80803571D02*
X234800390Y-80727381D01*
X234800390Y-80727381D02*
X234762295Y-80613095D01*
X234762295Y-80613095D02*
X234762295Y-80536904D01*
X234762295Y-80536904D02*
X234800390Y-80422619D01*
X234800390Y-80422619D02*
X234838485Y-80384523D01*
X235486104Y-79584523D02*
X235524200Y-79622619D01*
X235524200Y-79622619D02*
X235562295Y-79736904D01*
X235562295Y-79736904D02*
X235562295Y-79813095D01*
X235562295Y-79813095D02*
X235524200Y-79927381D01*
X235524200Y-79927381D02*
X235448009Y-80003571D01*
X235448009Y-80003571D02*
X235371819Y-80041666D01*
X235371819Y-80041666D02*
X235219438Y-80079762D01*
X235219438Y-80079762D02*
X235105152Y-80079762D01*
X235105152Y-80079762D02*
X234952771Y-80041666D01*
X234952771Y-80041666D02*
X234876580Y-80003571D01*
X234876580Y-80003571D02*
X234800390Y-79927381D01*
X234800390Y-79927381D02*
X234762295Y-79813095D01*
X234762295Y-79813095D02*
X234762295Y-79736904D01*
X234762295Y-79736904D02*
X234800390Y-79622619D01*
X234800390Y-79622619D02*
X234838485Y-79584523D01*
X237340390Y-81184523D02*
X237302295Y-81260713D01*
X237302295Y-81260713D02*
X237302295Y-81374999D01*
X237302295Y-81374999D02*
X237340390Y-81489285D01*
X237340390Y-81489285D02*
X237416580Y-81565475D01*
X237416580Y-81565475D02*
X237492771Y-81603570D01*
X237492771Y-81603570D02*
X237645152Y-81641666D01*
X237645152Y-81641666D02*
X237759438Y-81641666D01*
X237759438Y-81641666D02*
X237911819Y-81603570D01*
X237911819Y-81603570D02*
X237988009Y-81565475D01*
X237988009Y-81565475D02*
X238064200Y-81489285D01*
X238064200Y-81489285D02*
X238102295Y-81374999D01*
X238102295Y-81374999D02*
X238102295Y-81298808D01*
X238102295Y-81298808D02*
X238064200Y-81184523D01*
X238064200Y-81184523D02*
X238026104Y-81146427D01*
X238026104Y-81146427D02*
X237759438Y-81146427D01*
X237759438Y-81146427D02*
X237759438Y-81298808D01*
X238102295Y-80803570D02*
X237302295Y-80803570D01*
X237302295Y-80803570D02*
X238102295Y-80346427D01*
X238102295Y-80346427D02*
X237302295Y-80346427D01*
X238102295Y-79965475D02*
X237302295Y-79965475D01*
X237302295Y-79965475D02*
X237302295Y-79774999D01*
X237302295Y-79774999D02*
X237340390Y-79660713D01*
X237340390Y-79660713D02*
X237416580Y-79584523D01*
X237416580Y-79584523D02*
X237492771Y-79546428D01*
X237492771Y-79546428D02*
X237645152Y-79508332D01*
X237645152Y-79508332D02*
X237759438Y-79508332D01*
X237759438Y-79508332D02*
X237911819Y-79546428D01*
X237911819Y-79546428D02*
X237988009Y-79584523D01*
X237988009Y-79584523D02*
X238064200Y-79660713D01*
X238064200Y-79660713D02*
X238102295Y-79774999D01*
X238102295Y-79774999D02*
X238102295Y-79965475D01*
X232984200Y-81527381D02*
X233022295Y-81413095D01*
X233022295Y-81413095D02*
X233022295Y-81222619D01*
X233022295Y-81222619D02*
X232984200Y-81146428D01*
X232984200Y-81146428D02*
X232946104Y-81108333D01*
X232946104Y-81108333D02*
X232869914Y-81070238D01*
X232869914Y-81070238D02*
X232793723Y-81070238D01*
X232793723Y-81070238D02*
X232717533Y-81108333D01*
X232717533Y-81108333D02*
X232679438Y-81146428D01*
X232679438Y-81146428D02*
X232641342Y-81222619D01*
X232641342Y-81222619D02*
X232603247Y-81375000D01*
X232603247Y-81375000D02*
X232565152Y-81451190D01*
X232565152Y-81451190D02*
X232527057Y-81489285D01*
X232527057Y-81489285D02*
X232450866Y-81527381D01*
X232450866Y-81527381D02*
X232374676Y-81527381D01*
X232374676Y-81527381D02*
X232298485Y-81489285D01*
X232298485Y-81489285D02*
X232260390Y-81451190D01*
X232260390Y-81451190D02*
X232222295Y-81375000D01*
X232222295Y-81375000D02*
X232222295Y-81184523D01*
X232222295Y-81184523D02*
X232260390Y-81070238D01*
X232946104Y-80270237D02*
X232984200Y-80308333D01*
X232984200Y-80308333D02*
X233022295Y-80422618D01*
X233022295Y-80422618D02*
X233022295Y-80498809D01*
X233022295Y-80498809D02*
X232984200Y-80613095D01*
X232984200Y-80613095D02*
X232908009Y-80689285D01*
X232908009Y-80689285D02*
X232831819Y-80727380D01*
X232831819Y-80727380D02*
X232679438Y-80765476D01*
X232679438Y-80765476D02*
X232565152Y-80765476D01*
X232565152Y-80765476D02*
X232412771Y-80727380D01*
X232412771Y-80727380D02*
X232336580Y-80689285D01*
X232336580Y-80689285D02*
X232260390Y-80613095D01*
X232260390Y-80613095D02*
X232222295Y-80498809D01*
X232222295Y-80498809D02*
X232222295Y-80422618D01*
X232222295Y-80422618D02*
X232260390Y-80308333D01*
X232260390Y-80308333D02*
X232298485Y-80270237D01*
X233022295Y-79546428D02*
X233022295Y-79927380D01*
X233022295Y-79927380D02*
X232222295Y-79927380D01*
D12*
X230521428Y-76753328D02*
X230521428Y-77753328D01*
X230521428Y-76896185D02*
X230592857Y-76824757D01*
X230592857Y-76824757D02*
X230735714Y-76753328D01*
X230735714Y-76753328D02*
X230950000Y-76753328D01*
X230950000Y-76753328D02*
X231092857Y-76824757D01*
X231092857Y-76824757D02*
X231164286Y-76967614D01*
X231164286Y-76967614D02*
X231164286Y-77753328D01*
X231878571Y-77753328D02*
X231878571Y-76753328D01*
X231878571Y-76253328D02*
X231807143Y-76324757D01*
X231807143Y-76324757D02*
X231878571Y-76396185D01*
X231878571Y-76396185D02*
X231950000Y-76324757D01*
X231950000Y-76324757D02*
X231878571Y-76253328D01*
X231878571Y-76253328D02*
X231878571Y-76396185D01*
X233235715Y-77681900D02*
X233092857Y-77753328D01*
X233092857Y-77753328D02*
X232807143Y-77753328D01*
X232807143Y-77753328D02*
X232664286Y-77681900D01*
X232664286Y-77681900D02*
X232592857Y-77610471D01*
X232592857Y-77610471D02*
X232521429Y-77467614D01*
X232521429Y-77467614D02*
X232521429Y-77039042D01*
X232521429Y-77039042D02*
X232592857Y-76896185D01*
X232592857Y-76896185D02*
X232664286Y-76824757D01*
X232664286Y-76824757D02*
X232807143Y-76753328D01*
X232807143Y-76753328D02*
X233092857Y-76753328D01*
X233092857Y-76753328D02*
X233235715Y-76824757D01*
X234450000Y-77681900D02*
X234307143Y-77753328D01*
X234307143Y-77753328D02*
X234021429Y-77753328D01*
X234021429Y-77753328D02*
X233878571Y-77681900D01*
X233878571Y-77681900D02*
X233807143Y-77539042D01*
X233807143Y-77539042D02*
X233807143Y-76967614D01*
X233807143Y-76967614D02*
X233878571Y-76824757D01*
X233878571Y-76824757D02*
X234021429Y-76753328D01*
X234021429Y-76753328D02*
X234307143Y-76753328D01*
X234307143Y-76753328D02*
X234450000Y-76824757D01*
X234450000Y-76824757D02*
X234521429Y-76967614D01*
X234521429Y-76967614D02*
X234521429Y-77110471D01*
X234521429Y-77110471D02*
X233807143Y-77253328D01*
X235164285Y-77610471D02*
X235235714Y-77681900D01*
X235235714Y-77681900D02*
X235164285Y-77753328D01*
X235164285Y-77753328D02*
X235092857Y-77681900D01*
X235092857Y-77681900D02*
X235164285Y-77610471D01*
X235164285Y-77610471D02*
X235164285Y-77753328D01*
X235164285Y-77181900D02*
X235092857Y-76324757D01*
X235092857Y-76324757D02*
X235164285Y-76253328D01*
X235164285Y-76253328D02*
X235235714Y-76324757D01*
X235235714Y-76324757D02*
X235164285Y-77181900D01*
X235164285Y-77181900D02*
X235164285Y-76253328D01*
X235735714Y-76753328D02*
X236092857Y-77753328D01*
X236092857Y-77753328D02*
X236450000Y-76753328D01*
X237021428Y-77753328D02*
X237021428Y-76753328D01*
X237021428Y-76253328D02*
X236950000Y-76324757D01*
X236950000Y-76324757D02*
X237021428Y-76396185D01*
X237021428Y-76396185D02*
X237092857Y-76324757D01*
X237092857Y-76324757D02*
X237021428Y-76253328D01*
X237021428Y-76253328D02*
X237021428Y-76396185D01*
X238307143Y-77681900D02*
X238164286Y-77753328D01*
X238164286Y-77753328D02*
X237878572Y-77753328D01*
X237878572Y-77753328D02*
X237735714Y-77681900D01*
X237735714Y-77681900D02*
X237664286Y-77539042D01*
X237664286Y-77539042D02*
X237664286Y-76967614D01*
X237664286Y-76967614D02*
X237735714Y-76824757D01*
X237735714Y-76824757D02*
X237878572Y-76753328D01*
X237878572Y-76753328D02*
X238164286Y-76753328D01*
X238164286Y-76753328D02*
X238307143Y-76824757D01*
X238307143Y-76824757D02*
X238378572Y-76967614D01*
X238378572Y-76967614D02*
X238378572Y-77110471D01*
X238378572Y-77110471D02*
X237664286Y-77253328D01*
X238878571Y-76753328D02*
X239164286Y-77753328D01*
X239164286Y-77753328D02*
X239450000Y-77039042D01*
X239450000Y-77039042D02*
X239735714Y-77753328D01*
X239735714Y-77753328D02*
X240021428Y-76753328D01*
D11*
X229129475Y-75052295D02*
X228672332Y-75052295D01*
X228900904Y-75052295D02*
X228900904Y-74252295D01*
X228900904Y-74252295D02*
X228824713Y-74366580D01*
X228824713Y-74366580D02*
X228748523Y-74442771D01*
X228748523Y-74442771D02*
X228672332Y-74480866D01*
X229891380Y-75052295D02*
X229434237Y-75052295D01*
X229662809Y-75052295D02*
X229662809Y-74252295D01*
X229662809Y-74252295D02*
X229586618Y-74366580D01*
X229586618Y-74366580D02*
X229510428Y-74442771D01*
X229510428Y-74442771D02*
X229434237Y-74480866D01*
X230653285Y-75052295D02*
X230196142Y-75052295D01*
X230424714Y-75052295D02*
X230424714Y-74252295D01*
X230424714Y-74252295D02*
X230348523Y-74366580D01*
X230348523Y-74366580D02*
X230272333Y-74442771D01*
X230272333Y-74442771D02*
X230196142Y-74480866D01*
X228862809Y-66632295D02*
X228938999Y-66632295D01*
X228938999Y-66632295D02*
X229015190Y-66670390D01*
X229015190Y-66670390D02*
X229053285Y-66708485D01*
X229053285Y-66708485D02*
X229091380Y-66784676D01*
X229091380Y-66784676D02*
X229129475Y-66937057D01*
X229129475Y-66937057D02*
X229129475Y-67127533D01*
X229129475Y-67127533D02*
X229091380Y-67279914D01*
X229091380Y-67279914D02*
X229053285Y-67356104D01*
X229053285Y-67356104D02*
X229015190Y-67394200D01*
X229015190Y-67394200D02*
X228938999Y-67432295D01*
X228938999Y-67432295D02*
X228862809Y-67432295D01*
X228862809Y-67432295D02*
X228786618Y-67394200D01*
X228786618Y-67394200D02*
X228748523Y-67356104D01*
X228748523Y-67356104D02*
X228710428Y-67279914D01*
X228710428Y-67279914D02*
X228672332Y-67127533D01*
X228672332Y-67127533D02*
X228672332Y-66937057D01*
X228672332Y-66937057D02*
X228710428Y-66784676D01*
X228710428Y-66784676D02*
X228748523Y-66708485D01*
X228748523Y-66708485D02*
X228786618Y-66670390D01*
X228786618Y-66670390D02*
X228862809Y-66632295D01*
X229624714Y-66632295D02*
X229700904Y-66632295D01*
X229700904Y-66632295D02*
X229777095Y-66670390D01*
X229777095Y-66670390D02*
X229815190Y-66708485D01*
X229815190Y-66708485D02*
X229853285Y-66784676D01*
X229853285Y-66784676D02*
X229891380Y-66937057D01*
X229891380Y-66937057D02*
X229891380Y-67127533D01*
X229891380Y-67127533D02*
X229853285Y-67279914D01*
X229853285Y-67279914D02*
X229815190Y-67356104D01*
X229815190Y-67356104D02*
X229777095Y-67394200D01*
X229777095Y-67394200D02*
X229700904Y-67432295D01*
X229700904Y-67432295D02*
X229624714Y-67432295D01*
X229624714Y-67432295D02*
X229548523Y-67394200D01*
X229548523Y-67394200D02*
X229510428Y-67356104D01*
X229510428Y-67356104D02*
X229472333Y-67279914D01*
X229472333Y-67279914D02*
X229434237Y-67127533D01*
X229434237Y-67127533D02*
X229434237Y-66937057D01*
X229434237Y-66937057D02*
X229472333Y-66784676D01*
X229472333Y-66784676D02*
X229510428Y-66708485D01*
X229510428Y-66708485D02*
X229548523Y-66670390D01*
X229548523Y-66670390D02*
X229624714Y-66632295D01*
X230196142Y-66708485D02*
X230234238Y-66670390D01*
X230234238Y-66670390D02*
X230310428Y-66632295D01*
X230310428Y-66632295D02*
X230500904Y-66632295D01*
X230500904Y-66632295D02*
X230577095Y-66670390D01*
X230577095Y-66670390D02*
X230615190Y-66708485D01*
X230615190Y-66708485D02*
X230653285Y-66784676D01*
X230653285Y-66784676D02*
X230653285Y-66860866D01*
X230653285Y-66860866D02*
X230615190Y-66975152D01*
X230615190Y-66975152D02*
X230158047Y-67432295D01*
X230158047Y-67432295D02*
X230653285Y-67432295D01*
X228862809Y-64092295D02*
X228938999Y-64092295D01*
X228938999Y-64092295D02*
X229015190Y-64130390D01*
X229015190Y-64130390D02*
X229053285Y-64168485D01*
X229053285Y-64168485D02*
X229091380Y-64244676D01*
X229091380Y-64244676D02*
X229129475Y-64397057D01*
X229129475Y-64397057D02*
X229129475Y-64587533D01*
X229129475Y-64587533D02*
X229091380Y-64739914D01*
X229091380Y-64739914D02*
X229053285Y-64816104D01*
X229053285Y-64816104D02*
X229015190Y-64854200D01*
X229015190Y-64854200D02*
X228938999Y-64892295D01*
X228938999Y-64892295D02*
X228862809Y-64892295D01*
X228862809Y-64892295D02*
X228786618Y-64854200D01*
X228786618Y-64854200D02*
X228748523Y-64816104D01*
X228748523Y-64816104D02*
X228710428Y-64739914D01*
X228710428Y-64739914D02*
X228672332Y-64587533D01*
X228672332Y-64587533D02*
X228672332Y-64397057D01*
X228672332Y-64397057D02*
X228710428Y-64244676D01*
X228710428Y-64244676D02*
X228748523Y-64168485D01*
X228748523Y-64168485D02*
X228786618Y-64130390D01*
X228786618Y-64130390D02*
X228862809Y-64092295D01*
X229434237Y-64168485D02*
X229472333Y-64130390D01*
X229472333Y-64130390D02*
X229548523Y-64092295D01*
X229548523Y-64092295D02*
X229738999Y-64092295D01*
X229738999Y-64092295D02*
X229815190Y-64130390D01*
X229815190Y-64130390D02*
X229853285Y-64168485D01*
X229853285Y-64168485D02*
X229891380Y-64244676D01*
X229891380Y-64244676D02*
X229891380Y-64320866D01*
X229891380Y-64320866D02*
X229853285Y-64435152D01*
X229853285Y-64435152D02*
X229396142Y-64892295D01*
X229396142Y-64892295D02*
X229891380Y-64892295D01*
X230272333Y-64892295D02*
X230424714Y-64892295D01*
X230424714Y-64892295D02*
X230500904Y-64854200D01*
X230500904Y-64854200D02*
X230539000Y-64816104D01*
X230539000Y-64816104D02*
X230615190Y-64701819D01*
X230615190Y-64701819D02*
X230653285Y-64549438D01*
X230653285Y-64549438D02*
X230653285Y-64244676D01*
X230653285Y-64244676D02*
X230615190Y-64168485D01*
X230615190Y-64168485D02*
X230577095Y-64130390D01*
X230577095Y-64130390D02*
X230500904Y-64092295D01*
X230500904Y-64092295D02*
X230348523Y-64092295D01*
X230348523Y-64092295D02*
X230272333Y-64130390D01*
X230272333Y-64130390D02*
X230234238Y-64168485D01*
X230234238Y-64168485D02*
X230196142Y-64244676D01*
X230196142Y-64244676D02*
X230196142Y-64435152D01*
X230196142Y-64435152D02*
X230234238Y-64511342D01*
X230234238Y-64511342D02*
X230272333Y-64549438D01*
X230272333Y-64549438D02*
X230348523Y-64587533D01*
X230348523Y-64587533D02*
X230500904Y-64587533D01*
X230500904Y-64587533D02*
X230577095Y-64549438D01*
X230577095Y-64549438D02*
X230615190Y-64511342D01*
X230615190Y-64511342D02*
X230653285Y-64435152D01*
X228596142Y-59012295D02*
X228862809Y-59812295D01*
X228862809Y-59812295D02*
X229129475Y-59012295D01*
X229853285Y-59736104D02*
X229815189Y-59774200D01*
X229815189Y-59774200D02*
X229700904Y-59812295D01*
X229700904Y-59812295D02*
X229624713Y-59812295D01*
X229624713Y-59812295D02*
X229510427Y-59774200D01*
X229510427Y-59774200D02*
X229434237Y-59698009D01*
X229434237Y-59698009D02*
X229396142Y-59621819D01*
X229396142Y-59621819D02*
X229358046Y-59469438D01*
X229358046Y-59469438D02*
X229358046Y-59355152D01*
X229358046Y-59355152D02*
X229396142Y-59202771D01*
X229396142Y-59202771D02*
X229434237Y-59126580D01*
X229434237Y-59126580D02*
X229510427Y-59050390D01*
X229510427Y-59050390D02*
X229624713Y-59012295D01*
X229624713Y-59012295D02*
X229700904Y-59012295D01*
X229700904Y-59012295D02*
X229815189Y-59050390D01*
X229815189Y-59050390D02*
X229853285Y-59088485D01*
X230653285Y-59736104D02*
X230615189Y-59774200D01*
X230615189Y-59774200D02*
X230500904Y-59812295D01*
X230500904Y-59812295D02*
X230424713Y-59812295D01*
X230424713Y-59812295D02*
X230310427Y-59774200D01*
X230310427Y-59774200D02*
X230234237Y-59698009D01*
X230234237Y-59698009D02*
X230196142Y-59621819D01*
X230196142Y-59621819D02*
X230158046Y-59469438D01*
X230158046Y-59469438D02*
X230158046Y-59355152D01*
X230158046Y-59355152D02*
X230196142Y-59202771D01*
X230196142Y-59202771D02*
X230234237Y-59126580D01*
X230234237Y-59126580D02*
X230310427Y-59050390D01*
X230310427Y-59050390D02*
X230424713Y-59012295D01*
X230424713Y-59012295D02*
X230500904Y-59012295D01*
X230500904Y-59012295D02*
X230615189Y-59050390D01*
X230615189Y-59050390D02*
X230653285Y-59088485D01*
X229129475Y-69972295D02*
X228672332Y-69972295D01*
X228900904Y-69972295D02*
X228900904Y-69172295D01*
X228900904Y-69172295D02*
X228824713Y-69286580D01*
X228824713Y-69286580D02*
X228748523Y-69362771D01*
X228748523Y-69362771D02*
X228672332Y-69400866D01*
X229891380Y-69972295D02*
X229434237Y-69972295D01*
X229662809Y-69972295D02*
X229662809Y-69172295D01*
X229662809Y-69172295D02*
X229586618Y-69286580D01*
X229586618Y-69286580D02*
X229510428Y-69362771D01*
X229510428Y-69362771D02*
X229434237Y-69400866D01*
X230615190Y-69172295D02*
X230234238Y-69172295D01*
X230234238Y-69172295D02*
X230196142Y-69553247D01*
X230196142Y-69553247D02*
X230234238Y-69515152D01*
X230234238Y-69515152D02*
X230310428Y-69477057D01*
X230310428Y-69477057D02*
X230500904Y-69477057D01*
X230500904Y-69477057D02*
X230577095Y-69515152D01*
X230577095Y-69515152D02*
X230615190Y-69553247D01*
X230615190Y-69553247D02*
X230653285Y-69629438D01*
X230653285Y-69629438D02*
X230653285Y-69819914D01*
X230653285Y-69819914D02*
X230615190Y-69896104D01*
X230615190Y-69896104D02*
X230577095Y-69934200D01*
X230577095Y-69934200D02*
X230500904Y-69972295D01*
X230500904Y-69972295D02*
X230310428Y-69972295D01*
X230310428Y-69972295D02*
X230234238Y-69934200D01*
X230234238Y-69934200D02*
X230196142Y-69896104D01*
X229173905Y-57272295D02*
X228907238Y-56891342D01*
X228716762Y-57272295D02*
X228716762Y-56472295D01*
X228716762Y-56472295D02*
X229021524Y-56472295D01*
X229021524Y-56472295D02*
X229097714Y-56510390D01*
X229097714Y-56510390D02*
X229135809Y-56548485D01*
X229135809Y-56548485D02*
X229173905Y-56624676D01*
X229173905Y-56624676D02*
X229173905Y-56738961D01*
X229173905Y-56738961D02*
X229135809Y-56815152D01*
X229135809Y-56815152D02*
X229097714Y-56853247D01*
X229097714Y-56853247D02*
X229021524Y-56891342D01*
X229021524Y-56891342D02*
X228716762Y-56891342D01*
X229478666Y-57234200D02*
X229592952Y-57272295D01*
X229592952Y-57272295D02*
X229783428Y-57272295D01*
X229783428Y-57272295D02*
X229859619Y-57234200D01*
X229859619Y-57234200D02*
X229897714Y-57196104D01*
X229897714Y-57196104D02*
X229935809Y-57119914D01*
X229935809Y-57119914D02*
X229935809Y-57043723D01*
X229935809Y-57043723D02*
X229897714Y-56967533D01*
X229897714Y-56967533D02*
X229859619Y-56929438D01*
X229859619Y-56929438D02*
X229783428Y-56891342D01*
X229783428Y-56891342D02*
X229631047Y-56853247D01*
X229631047Y-56853247D02*
X229554857Y-56815152D01*
X229554857Y-56815152D02*
X229516762Y-56777057D01*
X229516762Y-56777057D02*
X229478666Y-56700866D01*
X229478666Y-56700866D02*
X229478666Y-56624676D01*
X229478666Y-56624676D02*
X229516762Y-56548485D01*
X229516762Y-56548485D02*
X229554857Y-56510390D01*
X229554857Y-56510390D02*
X229631047Y-56472295D01*
X229631047Y-56472295D02*
X229821524Y-56472295D01*
X229821524Y-56472295D02*
X229935809Y-56510390D01*
X230164381Y-56472295D02*
X230621524Y-56472295D01*
X230392952Y-57272295D02*
X230392952Y-56472295D01*
X229173904Y-52192295D02*
X228907237Y-51811342D01*
X228716761Y-52192295D02*
X228716761Y-51392295D01*
X228716761Y-51392295D02*
X229021523Y-51392295D01*
X229021523Y-51392295D02*
X229097713Y-51430390D01*
X229097713Y-51430390D02*
X229135808Y-51468485D01*
X229135808Y-51468485D02*
X229173904Y-51544676D01*
X229173904Y-51544676D02*
X229173904Y-51658961D01*
X229173904Y-51658961D02*
X229135808Y-51735152D01*
X229135808Y-51735152D02*
X229097713Y-51773247D01*
X229097713Y-51773247D02*
X229021523Y-51811342D01*
X229021523Y-51811342D02*
X228716761Y-51811342D01*
X229478665Y-51963723D02*
X229859618Y-51963723D01*
X229402475Y-52192295D02*
X229669142Y-51392295D01*
X229669142Y-51392295D02*
X229935808Y-52192295D01*
X230126284Y-51392295D02*
X230316760Y-52192295D01*
X230316760Y-52192295D02*
X230469141Y-51620866D01*
X230469141Y-51620866D02*
X230621522Y-52192295D01*
X230621522Y-52192295D02*
X230811999Y-51392295D01*
X239937190Y-69172295D02*
X240013380Y-69172295D01*
X240013380Y-69172295D02*
X240089571Y-69210390D01*
X240089571Y-69210390D02*
X240127666Y-69248485D01*
X240127666Y-69248485D02*
X240165761Y-69324676D01*
X240165761Y-69324676D02*
X240203856Y-69477057D01*
X240203856Y-69477057D02*
X240203856Y-69667533D01*
X240203856Y-69667533D02*
X240165761Y-69819914D01*
X240165761Y-69819914D02*
X240127666Y-69896104D01*
X240127666Y-69896104D02*
X240089571Y-69934200D01*
X240089571Y-69934200D02*
X240013380Y-69972295D01*
X240013380Y-69972295D02*
X239937190Y-69972295D01*
X239937190Y-69972295D02*
X239860999Y-69934200D01*
X239860999Y-69934200D02*
X239822904Y-69896104D01*
X239822904Y-69896104D02*
X239784809Y-69819914D01*
X239784809Y-69819914D02*
X239746713Y-69667533D01*
X239746713Y-69667533D02*
X239746713Y-69477057D01*
X239746713Y-69477057D02*
X239784809Y-69324676D01*
X239784809Y-69324676D02*
X239822904Y-69248485D01*
X239822904Y-69248485D02*
X239860999Y-69210390D01*
X239860999Y-69210390D02*
X239937190Y-69172295D01*
X240508618Y-69248485D02*
X240546714Y-69210390D01*
X240546714Y-69210390D02*
X240622904Y-69172295D01*
X240622904Y-69172295D02*
X240813380Y-69172295D01*
X240813380Y-69172295D02*
X240889571Y-69210390D01*
X240889571Y-69210390D02*
X240927666Y-69248485D01*
X240927666Y-69248485D02*
X240965761Y-69324676D01*
X240965761Y-69324676D02*
X240965761Y-69400866D01*
X240965761Y-69400866D02*
X240927666Y-69515152D01*
X240927666Y-69515152D02*
X240470523Y-69972295D01*
X240470523Y-69972295D02*
X240965761Y-69972295D01*
X241651476Y-69438961D02*
X241651476Y-69972295D01*
X241461000Y-69134200D02*
X241270523Y-69705628D01*
X241270523Y-69705628D02*
X241765762Y-69705628D01*
X239937190Y-64162295D02*
X240013380Y-64162295D01*
X240013380Y-64162295D02*
X240089571Y-64200390D01*
X240089571Y-64200390D02*
X240127666Y-64238485D01*
X240127666Y-64238485D02*
X240165761Y-64314676D01*
X240165761Y-64314676D02*
X240203856Y-64467057D01*
X240203856Y-64467057D02*
X240203856Y-64657533D01*
X240203856Y-64657533D02*
X240165761Y-64809914D01*
X240165761Y-64809914D02*
X240127666Y-64886104D01*
X240127666Y-64886104D02*
X240089571Y-64924200D01*
X240089571Y-64924200D02*
X240013380Y-64962295D01*
X240013380Y-64962295D02*
X239937190Y-64962295D01*
X239937190Y-64962295D02*
X239860999Y-64924200D01*
X239860999Y-64924200D02*
X239822904Y-64886104D01*
X239822904Y-64886104D02*
X239784809Y-64809914D01*
X239784809Y-64809914D02*
X239746713Y-64657533D01*
X239746713Y-64657533D02*
X239746713Y-64467057D01*
X239746713Y-64467057D02*
X239784809Y-64314676D01*
X239784809Y-64314676D02*
X239822904Y-64238485D01*
X239822904Y-64238485D02*
X239860999Y-64200390D01*
X239860999Y-64200390D02*
X239937190Y-64162295D01*
X240508618Y-64238485D02*
X240546714Y-64200390D01*
X240546714Y-64200390D02*
X240622904Y-64162295D01*
X240622904Y-64162295D02*
X240813380Y-64162295D01*
X240813380Y-64162295D02*
X240889571Y-64200390D01*
X240889571Y-64200390D02*
X240927666Y-64238485D01*
X240927666Y-64238485D02*
X240965761Y-64314676D01*
X240965761Y-64314676D02*
X240965761Y-64390866D01*
X240965761Y-64390866D02*
X240927666Y-64505152D01*
X240927666Y-64505152D02*
X240470523Y-64962295D01*
X240470523Y-64962295D02*
X240965761Y-64962295D01*
X241461000Y-64162295D02*
X241537190Y-64162295D01*
X241537190Y-64162295D02*
X241613381Y-64200390D01*
X241613381Y-64200390D02*
X241651476Y-64238485D01*
X241651476Y-64238485D02*
X241689571Y-64314676D01*
X241689571Y-64314676D02*
X241727666Y-64467057D01*
X241727666Y-64467057D02*
X241727666Y-64657533D01*
X241727666Y-64657533D02*
X241689571Y-64809914D01*
X241689571Y-64809914D02*
X241651476Y-64886104D01*
X241651476Y-64886104D02*
X241613381Y-64924200D01*
X241613381Y-64924200D02*
X241537190Y-64962295D01*
X241537190Y-64962295D02*
X241461000Y-64962295D01*
X241461000Y-64962295D02*
X241384809Y-64924200D01*
X241384809Y-64924200D02*
X241346714Y-64886104D01*
X241346714Y-64886104D02*
X241308619Y-64809914D01*
X241308619Y-64809914D02*
X241270523Y-64657533D01*
X241270523Y-64657533D02*
X241270523Y-64467057D01*
X241270523Y-64467057D02*
X241308619Y-64314676D01*
X241308619Y-64314676D02*
X241346714Y-64238485D01*
X241346714Y-64238485D02*
X241384809Y-64200390D01*
X241384809Y-64200390D02*
X241461000Y-64162295D01*
X240051476Y-59050390D02*
X239975286Y-59012295D01*
X239975286Y-59012295D02*
X239861000Y-59012295D01*
X239861000Y-59012295D02*
X239746714Y-59050390D01*
X239746714Y-59050390D02*
X239670524Y-59126580D01*
X239670524Y-59126580D02*
X239632429Y-59202771D01*
X239632429Y-59202771D02*
X239594333Y-59355152D01*
X239594333Y-59355152D02*
X239594333Y-59469438D01*
X239594333Y-59469438D02*
X239632429Y-59621819D01*
X239632429Y-59621819D02*
X239670524Y-59698009D01*
X239670524Y-59698009D02*
X239746714Y-59774200D01*
X239746714Y-59774200D02*
X239861000Y-59812295D01*
X239861000Y-59812295D02*
X239937191Y-59812295D01*
X239937191Y-59812295D02*
X240051476Y-59774200D01*
X240051476Y-59774200D02*
X240089572Y-59736104D01*
X240089572Y-59736104D02*
X240089572Y-59469438D01*
X240089572Y-59469438D02*
X239937191Y-59469438D01*
X240432429Y-59812295D02*
X240432429Y-59012295D01*
X240432429Y-59012295D02*
X240889572Y-59812295D01*
X240889572Y-59812295D02*
X240889572Y-59012295D01*
X241270524Y-59812295D02*
X241270524Y-59012295D01*
X241270524Y-59012295D02*
X241461000Y-59012295D01*
X241461000Y-59012295D02*
X241575286Y-59050390D01*
X241575286Y-59050390D02*
X241651476Y-59126580D01*
X241651476Y-59126580D02*
X241689571Y-59202771D01*
X241689571Y-59202771D02*
X241727667Y-59355152D01*
X241727667Y-59355152D02*
X241727667Y-59469438D01*
X241727667Y-59469438D02*
X241689571Y-59621819D01*
X241689571Y-59621819D02*
X241651476Y-59698009D01*
X241651476Y-59698009D02*
X241575286Y-59774200D01*
X241575286Y-59774200D02*
X241461000Y-59812295D01*
X241461000Y-59812295D02*
X241270524Y-59812295D01*
X240203856Y-77592295D02*
X239746713Y-77592295D01*
X239975285Y-77592295D02*
X239975285Y-76792295D01*
X239975285Y-76792295D02*
X239899094Y-76906580D01*
X239899094Y-76906580D02*
X239822904Y-76982771D01*
X239822904Y-76982771D02*
X239746713Y-77020866D01*
X240699095Y-76792295D02*
X240775285Y-76792295D01*
X240775285Y-76792295D02*
X240851476Y-76830390D01*
X240851476Y-76830390D02*
X240889571Y-76868485D01*
X240889571Y-76868485D02*
X240927666Y-76944676D01*
X240927666Y-76944676D02*
X240965761Y-77097057D01*
X240965761Y-77097057D02*
X240965761Y-77287533D01*
X240965761Y-77287533D02*
X240927666Y-77439914D01*
X240927666Y-77439914D02*
X240889571Y-77516104D01*
X240889571Y-77516104D02*
X240851476Y-77554200D01*
X240851476Y-77554200D02*
X240775285Y-77592295D01*
X240775285Y-77592295D02*
X240699095Y-77592295D01*
X240699095Y-77592295D02*
X240622904Y-77554200D01*
X240622904Y-77554200D02*
X240584809Y-77516104D01*
X240584809Y-77516104D02*
X240546714Y-77439914D01*
X240546714Y-77439914D02*
X240508618Y-77287533D01*
X240508618Y-77287533D02*
X240508618Y-77097057D01*
X240508618Y-77097057D02*
X240546714Y-76944676D01*
X240546714Y-76944676D02*
X240584809Y-76868485D01*
X240584809Y-76868485D02*
X240622904Y-76830390D01*
X240622904Y-76830390D02*
X240699095Y-76792295D01*
X241651476Y-77058961D02*
X241651476Y-77592295D01*
X241461000Y-76754200D02*
X241270523Y-77325628D01*
X241270523Y-77325628D02*
X241765762Y-77325628D01*
X229129475Y-72512295D02*
X228672332Y-72512295D01*
X228900904Y-72512295D02*
X228900904Y-71712295D01*
X228900904Y-71712295D02*
X228824713Y-71826580D01*
X228824713Y-71826580D02*
X228748523Y-71902771D01*
X228748523Y-71902771D02*
X228672332Y-71940866D01*
X229891380Y-72512295D02*
X229434237Y-72512295D01*
X229662809Y-72512295D02*
X229662809Y-71712295D01*
X229662809Y-71712295D02*
X229586618Y-71826580D01*
X229586618Y-71826580D02*
X229510428Y-71902771D01*
X229510428Y-71902771D02*
X229434237Y-71940866D01*
X230158047Y-71712295D02*
X230653285Y-71712295D01*
X230653285Y-71712295D02*
X230386619Y-72017057D01*
X230386619Y-72017057D02*
X230500904Y-72017057D01*
X230500904Y-72017057D02*
X230577095Y-72055152D01*
X230577095Y-72055152D02*
X230615190Y-72093247D01*
X230615190Y-72093247D02*
X230653285Y-72169438D01*
X230653285Y-72169438D02*
X230653285Y-72359914D01*
X230653285Y-72359914D02*
X230615190Y-72436104D01*
X230615190Y-72436104D02*
X230577095Y-72474200D01*
X230577095Y-72474200D02*
X230500904Y-72512295D01*
X230500904Y-72512295D02*
X230272333Y-72512295D01*
X230272333Y-72512295D02*
X230196142Y-72474200D01*
X230196142Y-72474200D02*
X230158047Y-72436104D01*
X240203856Y-72512295D02*
X239746713Y-72512295D01*
X239975285Y-72512295D02*
X239975285Y-71712295D01*
X239975285Y-71712295D02*
X239899094Y-71826580D01*
X239899094Y-71826580D02*
X239822904Y-71902771D01*
X239822904Y-71902771D02*
X239746713Y-71940866D01*
X240699095Y-71712295D02*
X240775285Y-71712295D01*
X240775285Y-71712295D02*
X240851476Y-71750390D01*
X240851476Y-71750390D02*
X240889571Y-71788485D01*
X240889571Y-71788485D02*
X240927666Y-71864676D01*
X240927666Y-71864676D02*
X240965761Y-72017057D01*
X240965761Y-72017057D02*
X240965761Y-72207533D01*
X240965761Y-72207533D02*
X240927666Y-72359914D01*
X240927666Y-72359914D02*
X240889571Y-72436104D01*
X240889571Y-72436104D02*
X240851476Y-72474200D01*
X240851476Y-72474200D02*
X240775285Y-72512295D01*
X240775285Y-72512295D02*
X240699095Y-72512295D01*
X240699095Y-72512295D02*
X240622904Y-72474200D01*
X240622904Y-72474200D02*
X240584809Y-72436104D01*
X240584809Y-72436104D02*
X240546714Y-72359914D01*
X240546714Y-72359914D02*
X240508618Y-72207533D01*
X240508618Y-72207533D02*
X240508618Y-72017057D01*
X240508618Y-72017057D02*
X240546714Y-71864676D01*
X240546714Y-71864676D02*
X240584809Y-71788485D01*
X240584809Y-71788485D02*
X240622904Y-71750390D01*
X240622904Y-71750390D02*
X240699095Y-71712295D01*
X241461000Y-71712295D02*
X241537190Y-71712295D01*
X241537190Y-71712295D02*
X241613381Y-71750390D01*
X241613381Y-71750390D02*
X241651476Y-71788485D01*
X241651476Y-71788485D02*
X241689571Y-71864676D01*
X241689571Y-71864676D02*
X241727666Y-72017057D01*
X241727666Y-72017057D02*
X241727666Y-72207533D01*
X241727666Y-72207533D02*
X241689571Y-72359914D01*
X241689571Y-72359914D02*
X241651476Y-72436104D01*
X241651476Y-72436104D02*
X241613381Y-72474200D01*
X241613381Y-72474200D02*
X241537190Y-72512295D01*
X241537190Y-72512295D02*
X241461000Y-72512295D01*
X241461000Y-72512295D02*
X241384809Y-72474200D01*
X241384809Y-72474200D02*
X241346714Y-72436104D01*
X241346714Y-72436104D02*
X241308619Y-72359914D01*
X241308619Y-72359914D02*
X241270523Y-72207533D01*
X241270523Y-72207533D02*
X241270523Y-72017057D01*
X241270523Y-72017057D02*
X241308619Y-71864676D01*
X241308619Y-71864676D02*
X241346714Y-71788485D01*
X241346714Y-71788485D02*
X241384809Y-71750390D01*
X241384809Y-71750390D02*
X241461000Y-71712295D01*
D12*
X229910285Y-78940328D02*
X229910285Y-79940328D01*
X229910285Y-79083185D02*
X229981714Y-79011757D01*
X229981714Y-79011757D02*
X230124571Y-78940328D01*
X230124571Y-78940328D02*
X230338857Y-78940328D01*
X230338857Y-78940328D02*
X230481714Y-79011757D01*
X230481714Y-79011757D02*
X230553143Y-79154614D01*
X230553143Y-79154614D02*
X230553143Y-79940328D01*
X231267428Y-79940328D02*
X231267428Y-78940328D01*
X231267428Y-78440328D02*
X231196000Y-78511757D01*
X231196000Y-78511757D02*
X231267428Y-78583185D01*
X231267428Y-78583185D02*
X231338857Y-78511757D01*
X231338857Y-78511757D02*
X231267428Y-78440328D01*
X231267428Y-78440328D02*
X231267428Y-78583185D01*
X232624572Y-79868900D02*
X232481714Y-79940328D01*
X232481714Y-79940328D02*
X232196000Y-79940328D01*
X232196000Y-79940328D02*
X232053143Y-79868900D01*
X232053143Y-79868900D02*
X231981714Y-79797471D01*
X231981714Y-79797471D02*
X231910286Y-79654614D01*
X231910286Y-79654614D02*
X231910286Y-79226042D01*
X231910286Y-79226042D02*
X231981714Y-79083185D01*
X231981714Y-79083185D02*
X232053143Y-79011757D01*
X232053143Y-79011757D02*
X232196000Y-78940328D01*
X232196000Y-78940328D02*
X232481714Y-78940328D01*
X232481714Y-78940328D02*
X232624572Y-79011757D01*
X233838857Y-79868900D02*
X233696000Y-79940328D01*
X233696000Y-79940328D02*
X233410286Y-79940328D01*
X233410286Y-79940328D02*
X233267428Y-79868900D01*
X233267428Y-79868900D02*
X233196000Y-79726042D01*
X233196000Y-79726042D02*
X233196000Y-79154614D01*
X233196000Y-79154614D02*
X233267428Y-79011757D01*
X233267428Y-79011757D02*
X233410286Y-78940328D01*
X233410286Y-78940328D02*
X233696000Y-78940328D01*
X233696000Y-78940328D02*
X233838857Y-79011757D01*
X233838857Y-79011757D02*
X233910286Y-79154614D01*
X233910286Y-79154614D02*
X233910286Y-79297471D01*
X233910286Y-79297471D02*
X233196000Y-79440328D01*
X234553142Y-79797471D02*
X234624571Y-79868900D01*
X234624571Y-79868900D02*
X234553142Y-79940328D01*
X234553142Y-79940328D02*
X234481714Y-79868900D01*
X234481714Y-79868900D02*
X234553142Y-79797471D01*
X234553142Y-79797471D02*
X234553142Y-79940328D01*
X234553142Y-79368900D02*
X234481714Y-78511757D01*
X234481714Y-78511757D02*
X234553142Y-78440328D01*
X234553142Y-78440328D02*
X234624571Y-78511757D01*
X234624571Y-78511757D02*
X234553142Y-79368900D01*
X234553142Y-79368900D02*
X234553142Y-78440328D01*
X235267428Y-78940328D02*
X235267428Y-79940328D01*
X235267428Y-79083185D02*
X235338857Y-79011757D01*
X235338857Y-79011757D02*
X235481714Y-78940328D01*
X235481714Y-78940328D02*
X235696000Y-78940328D01*
X235696000Y-78940328D02*
X235838857Y-79011757D01*
X235838857Y-79011757D02*
X235910286Y-79154614D01*
X235910286Y-79154614D02*
X235910286Y-79940328D01*
X237267429Y-79940328D02*
X237267429Y-79154614D01*
X237267429Y-79154614D02*
X237196000Y-79011757D01*
X237196000Y-79011757D02*
X237053143Y-78940328D01*
X237053143Y-78940328D02*
X236767429Y-78940328D01*
X236767429Y-78940328D02*
X236624571Y-79011757D01*
X237267429Y-79868900D02*
X237124571Y-79940328D01*
X237124571Y-79940328D02*
X236767429Y-79940328D01*
X236767429Y-79940328D02*
X236624571Y-79868900D01*
X236624571Y-79868900D02*
X236553143Y-79726042D01*
X236553143Y-79726042D02*
X236553143Y-79583185D01*
X236553143Y-79583185D02*
X236624571Y-79440328D01*
X236624571Y-79440328D02*
X236767429Y-79368900D01*
X236767429Y-79368900D02*
X237124571Y-79368900D01*
X237124571Y-79368900D02*
X237267429Y-79297471D01*
X237981714Y-78940328D02*
X237981714Y-79940328D01*
X237981714Y-79083185D02*
X238053143Y-79011757D01*
X238053143Y-79011757D02*
X238196000Y-78940328D01*
X238196000Y-78940328D02*
X238410286Y-78940328D01*
X238410286Y-78940328D02*
X238553143Y-79011757D01*
X238553143Y-79011757D02*
X238624572Y-79154614D01*
X238624572Y-79154614D02*
X238624572Y-79940328D01*
X239553143Y-79940328D02*
X239410286Y-79868900D01*
X239410286Y-79868900D02*
X239338857Y-79797471D01*
X239338857Y-79797471D02*
X239267429Y-79654614D01*
X239267429Y-79654614D02*
X239267429Y-79226042D01*
X239267429Y-79226042D02*
X239338857Y-79083185D01*
X239338857Y-79083185D02*
X239410286Y-79011757D01*
X239410286Y-79011757D02*
X239553143Y-78940328D01*
X239553143Y-78940328D02*
X239767429Y-78940328D01*
X239767429Y-78940328D02*
X239910286Y-79011757D01*
X239910286Y-79011757D02*
X239981715Y-79083185D01*
X239981715Y-79083185D02*
X240053143Y-79226042D01*
X240053143Y-79226042D02*
X240053143Y-79654614D01*
X240053143Y-79654614D02*
X239981715Y-79797471D01*
X239981715Y-79797471D02*
X239910286Y-79868900D01*
X239910286Y-79868900D02*
X239767429Y-79940328D01*
X239767429Y-79940328D02*
X239553143Y-79940328D01*
D11*
X239937190Y-51392295D02*
X240013380Y-51392295D01*
X240013380Y-51392295D02*
X240089571Y-51430390D01*
X240089571Y-51430390D02*
X240127666Y-51468485D01*
X240127666Y-51468485D02*
X240165761Y-51544676D01*
X240165761Y-51544676D02*
X240203856Y-51697057D01*
X240203856Y-51697057D02*
X240203856Y-51887533D01*
X240203856Y-51887533D02*
X240165761Y-52039914D01*
X240165761Y-52039914D02*
X240127666Y-52116104D01*
X240127666Y-52116104D02*
X240089571Y-52154200D01*
X240089571Y-52154200D02*
X240013380Y-52192295D01*
X240013380Y-52192295D02*
X239937190Y-52192295D01*
X239937190Y-52192295D02*
X239860999Y-52154200D01*
X239860999Y-52154200D02*
X239822904Y-52116104D01*
X239822904Y-52116104D02*
X239784809Y-52039914D01*
X239784809Y-52039914D02*
X239746713Y-51887533D01*
X239746713Y-51887533D02*
X239746713Y-51697057D01*
X239746713Y-51697057D02*
X239784809Y-51544676D01*
X239784809Y-51544676D02*
X239822904Y-51468485D01*
X239822904Y-51468485D02*
X239860999Y-51430390D01*
X239860999Y-51430390D02*
X239937190Y-51392295D01*
X240699095Y-51392295D02*
X240775285Y-51392295D01*
X240775285Y-51392295D02*
X240851476Y-51430390D01*
X240851476Y-51430390D02*
X240889571Y-51468485D01*
X240889571Y-51468485D02*
X240927666Y-51544676D01*
X240927666Y-51544676D02*
X240965761Y-51697057D01*
X240965761Y-51697057D02*
X240965761Y-51887533D01*
X240965761Y-51887533D02*
X240927666Y-52039914D01*
X240927666Y-52039914D02*
X240889571Y-52116104D01*
X240889571Y-52116104D02*
X240851476Y-52154200D01*
X240851476Y-52154200D02*
X240775285Y-52192295D01*
X240775285Y-52192295D02*
X240699095Y-52192295D01*
X240699095Y-52192295D02*
X240622904Y-52154200D01*
X240622904Y-52154200D02*
X240584809Y-52116104D01*
X240584809Y-52116104D02*
X240546714Y-52039914D01*
X240546714Y-52039914D02*
X240508618Y-51887533D01*
X240508618Y-51887533D02*
X240508618Y-51697057D01*
X240508618Y-51697057D02*
X240546714Y-51544676D01*
X240546714Y-51544676D02*
X240584809Y-51468485D01*
X240584809Y-51468485D02*
X240622904Y-51430390D01*
X240622904Y-51430390D02*
X240699095Y-51392295D01*
X241651476Y-51392295D02*
X241499095Y-51392295D01*
X241499095Y-51392295D02*
X241422904Y-51430390D01*
X241422904Y-51430390D02*
X241384809Y-51468485D01*
X241384809Y-51468485D02*
X241308619Y-51582771D01*
X241308619Y-51582771D02*
X241270523Y-51735152D01*
X241270523Y-51735152D02*
X241270523Y-52039914D01*
X241270523Y-52039914D02*
X241308619Y-52116104D01*
X241308619Y-52116104D02*
X241346714Y-52154200D01*
X241346714Y-52154200D02*
X241422904Y-52192295D01*
X241422904Y-52192295D02*
X241575285Y-52192295D01*
X241575285Y-52192295D02*
X241651476Y-52154200D01*
X241651476Y-52154200D02*
X241689571Y-52116104D01*
X241689571Y-52116104D02*
X241727666Y-52039914D01*
X241727666Y-52039914D02*
X241727666Y-51849438D01*
X241727666Y-51849438D02*
X241689571Y-51773247D01*
X241689571Y-51773247D02*
X241651476Y-51735152D01*
X241651476Y-51735152D02*
X241575285Y-51697057D01*
X241575285Y-51697057D02*
X241422904Y-51697057D01*
X241422904Y-51697057D02*
X241346714Y-51735152D01*
X241346714Y-51735152D02*
X241308619Y-51773247D01*
X241308619Y-51773247D02*
X241270523Y-51849438D01*
X239937190Y-61562295D02*
X240013380Y-61562295D01*
X240013380Y-61562295D02*
X240089571Y-61600390D01*
X240089571Y-61600390D02*
X240127666Y-61638485D01*
X240127666Y-61638485D02*
X240165761Y-61714676D01*
X240165761Y-61714676D02*
X240203856Y-61867057D01*
X240203856Y-61867057D02*
X240203856Y-62057533D01*
X240203856Y-62057533D02*
X240165761Y-62209914D01*
X240165761Y-62209914D02*
X240127666Y-62286104D01*
X240127666Y-62286104D02*
X240089571Y-62324200D01*
X240089571Y-62324200D02*
X240013380Y-62362295D01*
X240013380Y-62362295D02*
X239937190Y-62362295D01*
X239937190Y-62362295D02*
X239860999Y-62324200D01*
X239860999Y-62324200D02*
X239822904Y-62286104D01*
X239822904Y-62286104D02*
X239784809Y-62209914D01*
X239784809Y-62209914D02*
X239746713Y-62057533D01*
X239746713Y-62057533D02*
X239746713Y-61867057D01*
X239746713Y-61867057D02*
X239784809Y-61714676D01*
X239784809Y-61714676D02*
X239822904Y-61638485D01*
X239822904Y-61638485D02*
X239860999Y-61600390D01*
X239860999Y-61600390D02*
X239937190Y-61562295D01*
X240965761Y-62362295D02*
X240508618Y-62362295D01*
X240737190Y-62362295D02*
X240737190Y-61562295D01*
X240737190Y-61562295D02*
X240660999Y-61676580D01*
X240660999Y-61676580D02*
X240584809Y-61752771D01*
X240584809Y-61752771D02*
X240508618Y-61790866D01*
X241232428Y-61562295D02*
X241765762Y-61562295D01*
X241765762Y-61562295D02*
X241422904Y-62362295D01*
X228862809Y-76792295D02*
X228938999Y-76792295D01*
X228938999Y-76792295D02*
X229015190Y-76830390D01*
X229015190Y-76830390D02*
X229053285Y-76868485D01*
X229053285Y-76868485D02*
X229091380Y-76944676D01*
X229091380Y-76944676D02*
X229129475Y-77097057D01*
X229129475Y-77097057D02*
X229129475Y-77287533D01*
X229129475Y-77287533D02*
X229091380Y-77439914D01*
X229091380Y-77439914D02*
X229053285Y-77516104D01*
X229053285Y-77516104D02*
X229015190Y-77554200D01*
X229015190Y-77554200D02*
X228938999Y-77592295D01*
X228938999Y-77592295D02*
X228862809Y-77592295D01*
X228862809Y-77592295D02*
X228786618Y-77554200D01*
X228786618Y-77554200D02*
X228748523Y-77516104D01*
X228748523Y-77516104D02*
X228710428Y-77439914D01*
X228710428Y-77439914D02*
X228672332Y-77287533D01*
X228672332Y-77287533D02*
X228672332Y-77097057D01*
X228672332Y-77097057D02*
X228710428Y-76944676D01*
X228710428Y-76944676D02*
X228748523Y-76868485D01*
X228748523Y-76868485D02*
X228786618Y-76830390D01*
X228786618Y-76830390D02*
X228862809Y-76792295D01*
X229891380Y-77592295D02*
X229434237Y-77592295D01*
X229662809Y-77592295D02*
X229662809Y-76792295D01*
X229662809Y-76792295D02*
X229586618Y-76906580D01*
X229586618Y-76906580D02*
X229510428Y-76982771D01*
X229510428Y-76982771D02*
X229434237Y-77020866D01*
X230386619Y-76792295D02*
X230462809Y-76792295D01*
X230462809Y-76792295D02*
X230539000Y-76830390D01*
X230539000Y-76830390D02*
X230577095Y-76868485D01*
X230577095Y-76868485D02*
X230615190Y-76944676D01*
X230615190Y-76944676D02*
X230653285Y-77097057D01*
X230653285Y-77097057D02*
X230653285Y-77287533D01*
X230653285Y-77287533D02*
X230615190Y-77439914D01*
X230615190Y-77439914D02*
X230577095Y-77516104D01*
X230577095Y-77516104D02*
X230539000Y-77554200D01*
X230539000Y-77554200D02*
X230462809Y-77592295D01*
X230462809Y-77592295D02*
X230386619Y-77592295D01*
X230386619Y-77592295D02*
X230310428Y-77554200D01*
X230310428Y-77554200D02*
X230272333Y-77516104D01*
X230272333Y-77516104D02*
X230234238Y-77439914D01*
X230234238Y-77439914D02*
X230196142Y-77287533D01*
X230196142Y-77287533D02*
X230196142Y-77097057D01*
X230196142Y-77097057D02*
X230234238Y-76944676D01*
X230234238Y-76944676D02*
X230272333Y-76868485D01*
X230272333Y-76868485D02*
X230310428Y-76830390D01*
X230310428Y-76830390D02*
X230386619Y-76792295D01*
X239937190Y-66662295D02*
X240013380Y-66662295D01*
X240013380Y-66662295D02*
X240089571Y-66700390D01*
X240089571Y-66700390D02*
X240127666Y-66738485D01*
X240127666Y-66738485D02*
X240165761Y-66814676D01*
X240165761Y-66814676D02*
X240203856Y-66967057D01*
X240203856Y-66967057D02*
X240203856Y-67157533D01*
X240203856Y-67157533D02*
X240165761Y-67309914D01*
X240165761Y-67309914D02*
X240127666Y-67386104D01*
X240127666Y-67386104D02*
X240089571Y-67424200D01*
X240089571Y-67424200D02*
X240013380Y-67462295D01*
X240013380Y-67462295D02*
X239937190Y-67462295D01*
X239937190Y-67462295D02*
X239860999Y-67424200D01*
X239860999Y-67424200D02*
X239822904Y-67386104D01*
X239822904Y-67386104D02*
X239784809Y-67309914D01*
X239784809Y-67309914D02*
X239746713Y-67157533D01*
X239746713Y-67157533D02*
X239746713Y-66967057D01*
X239746713Y-66967057D02*
X239784809Y-66814676D01*
X239784809Y-66814676D02*
X239822904Y-66738485D01*
X239822904Y-66738485D02*
X239860999Y-66700390D01*
X239860999Y-66700390D02*
X239937190Y-66662295D01*
X240508618Y-66738485D02*
X240546714Y-66700390D01*
X240546714Y-66700390D02*
X240622904Y-66662295D01*
X240622904Y-66662295D02*
X240813380Y-66662295D01*
X240813380Y-66662295D02*
X240889571Y-66700390D01*
X240889571Y-66700390D02*
X240927666Y-66738485D01*
X240927666Y-66738485D02*
X240965761Y-66814676D01*
X240965761Y-66814676D02*
X240965761Y-66890866D01*
X240965761Y-66890866D02*
X240927666Y-67005152D01*
X240927666Y-67005152D02*
X240470523Y-67462295D01*
X240470523Y-67462295D02*
X240965761Y-67462295D01*
X241270523Y-66738485D02*
X241308619Y-66700390D01*
X241308619Y-66700390D02*
X241384809Y-66662295D01*
X241384809Y-66662295D02*
X241575285Y-66662295D01*
X241575285Y-66662295D02*
X241651476Y-66700390D01*
X241651476Y-66700390D02*
X241689571Y-66738485D01*
X241689571Y-66738485D02*
X241727666Y-66814676D01*
X241727666Y-66814676D02*
X241727666Y-66890866D01*
X241727666Y-66890866D02*
X241689571Y-67005152D01*
X241689571Y-67005152D02*
X241232428Y-67462295D01*
X241232428Y-67462295D02*
X241727666Y-67462295D01*
X228862809Y-61552295D02*
X228938999Y-61552295D01*
X228938999Y-61552295D02*
X229015190Y-61590390D01*
X229015190Y-61590390D02*
X229053285Y-61628485D01*
X229053285Y-61628485D02*
X229091380Y-61704676D01*
X229091380Y-61704676D02*
X229129475Y-61857057D01*
X229129475Y-61857057D02*
X229129475Y-62047533D01*
X229129475Y-62047533D02*
X229091380Y-62199914D01*
X229091380Y-62199914D02*
X229053285Y-62276104D01*
X229053285Y-62276104D02*
X229015190Y-62314200D01*
X229015190Y-62314200D02*
X228938999Y-62352295D01*
X228938999Y-62352295D02*
X228862809Y-62352295D01*
X228862809Y-62352295D02*
X228786618Y-62314200D01*
X228786618Y-62314200D02*
X228748523Y-62276104D01*
X228748523Y-62276104D02*
X228710428Y-62199914D01*
X228710428Y-62199914D02*
X228672332Y-62047533D01*
X228672332Y-62047533D02*
X228672332Y-61857057D01*
X228672332Y-61857057D02*
X228710428Y-61704676D01*
X228710428Y-61704676D02*
X228748523Y-61628485D01*
X228748523Y-61628485D02*
X228786618Y-61590390D01*
X228786618Y-61590390D02*
X228862809Y-61552295D01*
X229396142Y-61552295D02*
X229891380Y-61552295D01*
X229891380Y-61552295D02*
X229624714Y-61857057D01*
X229624714Y-61857057D02*
X229738999Y-61857057D01*
X229738999Y-61857057D02*
X229815190Y-61895152D01*
X229815190Y-61895152D02*
X229853285Y-61933247D01*
X229853285Y-61933247D02*
X229891380Y-62009438D01*
X229891380Y-62009438D02*
X229891380Y-62199914D01*
X229891380Y-62199914D02*
X229853285Y-62276104D01*
X229853285Y-62276104D02*
X229815190Y-62314200D01*
X229815190Y-62314200D02*
X229738999Y-62352295D01*
X229738999Y-62352295D02*
X229510428Y-62352295D01*
X229510428Y-62352295D02*
X229434237Y-62314200D01*
X229434237Y-62314200D02*
X229396142Y-62276104D01*
X230653285Y-62352295D02*
X230196142Y-62352295D01*
X230424714Y-62352295D02*
X230424714Y-61552295D01*
X230424714Y-61552295D02*
X230348523Y-61666580D01*
X230348523Y-61666580D02*
X230272333Y-61742771D01*
X230272333Y-61742771D02*
X230196142Y-61780866D01*
X229135809Y-53970390D02*
X229059619Y-53932295D01*
X229059619Y-53932295D02*
X228945333Y-53932295D01*
X228945333Y-53932295D02*
X228831047Y-53970390D01*
X228831047Y-53970390D02*
X228754857Y-54046580D01*
X228754857Y-54046580D02*
X228716762Y-54122771D01*
X228716762Y-54122771D02*
X228678666Y-54275152D01*
X228678666Y-54275152D02*
X228678666Y-54389438D01*
X228678666Y-54389438D02*
X228716762Y-54541819D01*
X228716762Y-54541819D02*
X228754857Y-54618009D01*
X228754857Y-54618009D02*
X228831047Y-54694200D01*
X228831047Y-54694200D02*
X228945333Y-54732295D01*
X228945333Y-54732295D02*
X229021524Y-54732295D01*
X229021524Y-54732295D02*
X229135809Y-54694200D01*
X229135809Y-54694200D02*
X229173905Y-54656104D01*
X229173905Y-54656104D02*
X229173905Y-54389438D01*
X229173905Y-54389438D02*
X229021524Y-54389438D01*
X229516762Y-54732295D02*
X229516762Y-53932295D01*
X229516762Y-53932295D02*
X229973905Y-54732295D01*
X229973905Y-54732295D02*
X229973905Y-53932295D01*
X230354857Y-54732295D02*
X230354857Y-53932295D01*
X230354857Y-53932295D02*
X230545333Y-53932295D01*
X230545333Y-53932295D02*
X230659619Y-53970390D01*
X230659619Y-53970390D02*
X230735809Y-54046580D01*
X230735809Y-54046580D02*
X230773904Y-54122771D01*
X230773904Y-54122771D02*
X230812000Y-54275152D01*
X230812000Y-54275152D02*
X230812000Y-54389438D01*
X230812000Y-54389438D02*
X230773904Y-54541819D01*
X230773904Y-54541819D02*
X230735809Y-54618009D01*
X230735809Y-54618009D02*
X230659619Y-54694200D01*
X230659619Y-54694200D02*
X230545333Y-54732295D01*
X230545333Y-54732295D02*
X230354857Y-54732295D01*
X239937190Y-53862295D02*
X240013380Y-53862295D01*
X240013380Y-53862295D02*
X240089571Y-53900390D01*
X240089571Y-53900390D02*
X240127666Y-53938485D01*
X240127666Y-53938485D02*
X240165761Y-54014676D01*
X240165761Y-54014676D02*
X240203856Y-54167057D01*
X240203856Y-54167057D02*
X240203856Y-54357533D01*
X240203856Y-54357533D02*
X240165761Y-54509914D01*
X240165761Y-54509914D02*
X240127666Y-54586104D01*
X240127666Y-54586104D02*
X240089571Y-54624200D01*
X240089571Y-54624200D02*
X240013380Y-54662295D01*
X240013380Y-54662295D02*
X239937190Y-54662295D01*
X239937190Y-54662295D02*
X239860999Y-54624200D01*
X239860999Y-54624200D02*
X239822904Y-54586104D01*
X239822904Y-54586104D02*
X239784809Y-54509914D01*
X239784809Y-54509914D02*
X239746713Y-54357533D01*
X239746713Y-54357533D02*
X239746713Y-54167057D01*
X239746713Y-54167057D02*
X239784809Y-54014676D01*
X239784809Y-54014676D02*
X239822904Y-53938485D01*
X239822904Y-53938485D02*
X239860999Y-53900390D01*
X239860999Y-53900390D02*
X239937190Y-53862295D01*
X240699095Y-53862295D02*
X240775285Y-53862295D01*
X240775285Y-53862295D02*
X240851476Y-53900390D01*
X240851476Y-53900390D02*
X240889571Y-53938485D01*
X240889571Y-53938485D02*
X240927666Y-54014676D01*
X240927666Y-54014676D02*
X240965761Y-54167057D01*
X240965761Y-54167057D02*
X240965761Y-54357533D01*
X240965761Y-54357533D02*
X240927666Y-54509914D01*
X240927666Y-54509914D02*
X240889571Y-54586104D01*
X240889571Y-54586104D02*
X240851476Y-54624200D01*
X240851476Y-54624200D02*
X240775285Y-54662295D01*
X240775285Y-54662295D02*
X240699095Y-54662295D01*
X240699095Y-54662295D02*
X240622904Y-54624200D01*
X240622904Y-54624200D02*
X240584809Y-54586104D01*
X240584809Y-54586104D02*
X240546714Y-54509914D01*
X240546714Y-54509914D02*
X240508618Y-54357533D01*
X240508618Y-54357533D02*
X240508618Y-54167057D01*
X240508618Y-54167057D02*
X240546714Y-54014676D01*
X240546714Y-54014676D02*
X240584809Y-53938485D01*
X240584809Y-53938485D02*
X240622904Y-53900390D01*
X240622904Y-53900390D02*
X240699095Y-53862295D01*
X241422904Y-54205152D02*
X241346714Y-54167057D01*
X241346714Y-54167057D02*
X241308619Y-54128961D01*
X241308619Y-54128961D02*
X241270523Y-54052771D01*
X241270523Y-54052771D02*
X241270523Y-54014676D01*
X241270523Y-54014676D02*
X241308619Y-53938485D01*
X241308619Y-53938485D02*
X241346714Y-53900390D01*
X241346714Y-53900390D02*
X241422904Y-53862295D01*
X241422904Y-53862295D02*
X241575285Y-53862295D01*
X241575285Y-53862295D02*
X241651476Y-53900390D01*
X241651476Y-53900390D02*
X241689571Y-53938485D01*
X241689571Y-53938485D02*
X241727666Y-54014676D01*
X241727666Y-54014676D02*
X241727666Y-54052771D01*
X241727666Y-54052771D02*
X241689571Y-54128961D01*
X241689571Y-54128961D02*
X241651476Y-54167057D01*
X241651476Y-54167057D02*
X241575285Y-54205152D01*
X241575285Y-54205152D02*
X241422904Y-54205152D01*
X241422904Y-54205152D02*
X241346714Y-54243247D01*
X241346714Y-54243247D02*
X241308619Y-54281342D01*
X241308619Y-54281342D02*
X241270523Y-54357533D01*
X241270523Y-54357533D02*
X241270523Y-54509914D01*
X241270523Y-54509914D02*
X241308619Y-54586104D01*
X241308619Y-54586104D02*
X241346714Y-54624200D01*
X241346714Y-54624200D02*
X241422904Y-54662295D01*
X241422904Y-54662295D02*
X241575285Y-54662295D01*
X241575285Y-54662295D02*
X241651476Y-54624200D01*
X241651476Y-54624200D02*
X241689571Y-54586104D01*
X241689571Y-54586104D02*
X241727666Y-54509914D01*
X241727666Y-54509914D02*
X241727666Y-54357533D01*
X241727666Y-54357533D02*
X241689571Y-54281342D01*
X241689571Y-54281342D02*
X241651476Y-54243247D01*
X241651476Y-54243247D02*
X241575285Y-54205152D01*
X240051476Y-56510390D02*
X239975286Y-56472295D01*
X239975286Y-56472295D02*
X239861000Y-56472295D01*
X239861000Y-56472295D02*
X239746714Y-56510390D01*
X239746714Y-56510390D02*
X239670524Y-56586580D01*
X239670524Y-56586580D02*
X239632429Y-56662771D01*
X239632429Y-56662771D02*
X239594333Y-56815152D01*
X239594333Y-56815152D02*
X239594333Y-56929438D01*
X239594333Y-56929438D02*
X239632429Y-57081819D01*
X239632429Y-57081819D02*
X239670524Y-57158009D01*
X239670524Y-57158009D02*
X239746714Y-57234200D01*
X239746714Y-57234200D02*
X239861000Y-57272295D01*
X239861000Y-57272295D02*
X239937191Y-57272295D01*
X239937191Y-57272295D02*
X240051476Y-57234200D01*
X240051476Y-57234200D02*
X240089572Y-57196104D01*
X240089572Y-57196104D02*
X240089572Y-56929438D01*
X240089572Y-56929438D02*
X239937191Y-56929438D01*
X240432429Y-57272295D02*
X240432429Y-56472295D01*
X240432429Y-56472295D02*
X240889572Y-57272295D01*
X240889572Y-57272295D02*
X240889572Y-56472295D01*
X241270524Y-57272295D02*
X241270524Y-56472295D01*
X241270524Y-56472295D02*
X241461000Y-56472295D01*
X241461000Y-56472295D02*
X241575286Y-56510390D01*
X241575286Y-56510390D02*
X241651476Y-56586580D01*
X241651476Y-56586580D02*
X241689571Y-56662771D01*
X241689571Y-56662771D02*
X241727667Y-56815152D01*
X241727667Y-56815152D02*
X241727667Y-56929438D01*
X241727667Y-56929438D02*
X241689571Y-57081819D01*
X241689571Y-57081819D02*
X241651476Y-57158009D01*
X241651476Y-57158009D02*
X241575286Y-57234200D01*
X241575286Y-57234200D02*
X241461000Y-57272295D01*
X241461000Y-57272295D02*
X241270524Y-57272295D01*
%TO.C,T1*%
X221180866Y-108682884D02*
X223649038Y-110107884D01*
X222830866Y-105825000D02*
X221180866Y-108682884D01*
X222830866Y-105825000D02*
X224480866Y-102967116D01*
X223649038Y-110107884D02*
X226949038Y-104392116D01*
X223805866Y-104136250D02*
X221855866Y-107513750D01*
X226949038Y-104392116D02*
X224480866Y-102967116D01*
D13*
%TO.C,LED24*%
X235349404Y-123748103D02*
X235050568Y-124388961D01*
X234708548Y-123449268D01*
X235349404Y-123748103D01*
G36*
X235349404Y-123748103D02*
G01*
X235050568Y-124388961D01*
X234708548Y-123449268D01*
X235349404Y-123748103D01*
G37*
%TO.C,D13*%
X308250000Y-65300000D02*
X308650000Y-65300000D01*
X308650000Y-65300000D02*
X308650000Y-64750000D01*
X308650000Y-65300000D02*
X308650000Y-65850000D01*
X308650000Y-65300000D02*
X309250000Y-64900000D01*
X309250000Y-64900000D02*
X309250000Y-65700000D01*
X309250000Y-65300000D02*
X309750000Y-65300000D01*
X309250000Y-65700000D02*
X308650000Y-65300000D01*
%TO.C,LED13*%
X313500000Y-62875000D02*
X313000000Y-63375000D01*
X313000000Y-62375000D01*
X313500000Y-62875000D01*
G36*
X313500000Y-62875000D02*
G01*
X313000000Y-63375000D01*
X313000000Y-62375000D01*
X313500000Y-62875000D01*
G37*
%TO.C,LED21*%
X259500000Y-79875000D02*
X259000000Y-80375000D01*
X259000000Y-79375000D01*
X259500000Y-79875000D01*
G36*
X259500000Y-79875000D02*
G01*
X259000000Y-80375000D01*
X259000000Y-79375000D01*
X259500000Y-79875000D01*
G37*
%TO.C,D24*%
X231245417Y-127822465D02*
X231621294Y-127685657D01*
X231621294Y-127685657D02*
X231433183Y-127168826D01*
X231621294Y-127685657D02*
X231809405Y-128202488D01*
X231621294Y-127685657D02*
X232048301Y-127104568D01*
X232048301Y-127104568D02*
X232321917Y-127856322D01*
X232185109Y-127480445D02*
X232654955Y-127309435D01*
X232321917Y-127856322D02*
X231621294Y-127685657D01*
%TO.C,D9*%
X326250000Y-82300000D02*
X326650000Y-82300000D01*
X326650000Y-82300000D02*
X326650000Y-81750000D01*
X326650000Y-82300000D02*
X326650000Y-82850000D01*
X326650000Y-82300000D02*
X327250000Y-81900000D01*
X327250000Y-81900000D02*
X327250000Y-82700000D01*
X327250000Y-82300000D02*
X327750000Y-82300000D01*
X327250000Y-82700000D02*
X326650000Y-82300000D01*
%TO.C,D23*%
X248159884Y-121666102D02*
X248535761Y-121529294D01*
X248535761Y-121529294D02*
X248347650Y-121012463D01*
X248535761Y-121529294D02*
X248723872Y-122046125D01*
X248535761Y-121529294D02*
X248962768Y-120948205D01*
X248962768Y-120948205D02*
X249236384Y-121699959D01*
X249099576Y-121324082D02*
X249569422Y-121153072D01*
X249236384Y-121699959D02*
X248535761Y-121529294D01*
%TO.C,D11*%
X308250000Y-99300000D02*
X308650000Y-99300000D01*
X308650000Y-99300000D02*
X308650000Y-98750000D01*
X308650000Y-99300000D02*
X308650000Y-99850000D01*
X308650000Y-99300000D02*
X309250000Y-98900000D01*
X309250000Y-98900000D02*
X309250000Y-99700000D01*
X309250000Y-99300000D02*
X309750000Y-99300000D01*
X309250000Y-99700000D02*
X308650000Y-99300000D01*
D11*
%TO.C,JST1*%
X320750000Y-105350000D02*
X320750000Y-111250000D01*
X320750000Y-111250000D02*
X328350000Y-111250000D01*
X325250000Y-107050000D02*
X325250000Y-107550000D01*
X325500000Y-107300000D02*
X325000000Y-107300000D01*
X326750000Y-106050000D02*
X328350000Y-106050000D01*
X326750000Y-110550000D02*
X326750000Y-106050000D01*
X328350000Y-105350000D02*
X320750000Y-105350000D01*
X328350000Y-106050000D02*
X328350000Y-105350000D01*
X328350000Y-110550000D02*
X326750000Y-110550000D01*
X328350000Y-111250000D02*
X328350000Y-110550000D01*
D13*
%TO.C,LED25*%
X249620980Y-136644697D02*
X249322144Y-137285555D01*
X248980124Y-136345862D01*
X249620980Y-136644697D01*
G36*
X249620980Y-136644697D02*
G01*
X249322144Y-137285555D01*
X248980124Y-136345862D01*
X249620980Y-136644697D01*
G37*
%TO.C,D18*%
X272250000Y-82300000D02*
X272650000Y-82300000D01*
X272650000Y-82300000D02*
X272650000Y-81750000D01*
X272650000Y-82300000D02*
X272650000Y-82850000D01*
X272650000Y-82300000D02*
X273250000Y-81900000D01*
X273250000Y-81900000D02*
X273250000Y-82700000D01*
X273250000Y-82300000D02*
X273750000Y-82300000D01*
X273250000Y-82700000D02*
X272650000Y-82300000D01*
%TO.C,D21*%
X254250000Y-82300000D02*
X254650000Y-82300000D01*
X254650000Y-82300000D02*
X254650000Y-81750000D01*
X254650000Y-82300000D02*
X254650000Y-82850000D01*
X254650000Y-82300000D02*
X255250000Y-81900000D01*
X255250000Y-81900000D02*
X255250000Y-82700000D01*
X255250000Y-82300000D02*
X255750000Y-82300000D01*
X255250000Y-82700000D02*
X254650000Y-82300000D01*
%TO.C,D7*%
X344250000Y-65300000D02*
X344650000Y-65300000D01*
X344650000Y-65300000D02*
X344650000Y-64750000D01*
X344650000Y-65300000D02*
X344650000Y-65850000D01*
X344650000Y-65300000D02*
X345250000Y-64900000D01*
X345250000Y-64900000D02*
X345250000Y-65700000D01*
X345250000Y-65300000D02*
X345750000Y-65300000D01*
X345250000Y-65700000D02*
X344650000Y-65300000D01*
%TO.C,LED4*%
X349500000Y-113875000D02*
X349000000Y-114375000D01*
X349000000Y-113375000D01*
X349500000Y-113875000D01*
G36*
X349500000Y-113875000D02*
G01*
X349000000Y-114375000D01*
X349000000Y-113375000D01*
X349500000Y-113875000D01*
G37*
%TO.C,D22*%
X254250000Y-65300000D02*
X254650000Y-65300000D01*
X254650000Y-65300000D02*
X254650000Y-64750000D01*
X254650000Y-65300000D02*
X254650000Y-65850000D01*
X254650000Y-65300000D02*
X255250000Y-64900000D01*
X255250000Y-64900000D02*
X255250000Y-65700000D01*
X255250000Y-65300000D02*
X255750000Y-65300000D01*
X255250000Y-65700000D02*
X254650000Y-65300000D01*
%TO.C,D8*%
X326250000Y-99300000D02*
X326650000Y-99300000D01*
X326650000Y-99300000D02*
X326650000Y-98750000D01*
X326650000Y-99300000D02*
X326650000Y-99850000D01*
X326650000Y-99300000D02*
X327250000Y-98900000D01*
X327250000Y-98900000D02*
X327250000Y-99700000D01*
X327250000Y-99300000D02*
X327750000Y-99300000D01*
X327250000Y-99700000D02*
X326650000Y-99300000D01*
%TO.C,LED23*%
X252263871Y-117591741D02*
X251965035Y-118232599D01*
X251623015Y-117292906D01*
X252263871Y-117591741D01*
G36*
X252263871Y-117591741D02*
G01*
X251965035Y-118232599D01*
X251623015Y-117292906D01*
X252263871Y-117591741D01*
G37*
D14*
%TO.C,B1*%
X225150000Y-94650000D02*
X225150000Y-95575000D01*
X225150000Y-98425000D02*
X225150000Y-99350000D01*
X227275000Y-94550000D02*
X226725000Y-94550000D01*
X227275000Y-99450000D02*
X226725000Y-99450000D01*
X228850000Y-94650000D02*
X228850000Y-99350000D01*
D13*
%TO.C,LED9*%
X331500000Y-79875000D02*
X331000000Y-80375000D01*
X331000000Y-79375000D01*
X331500000Y-79875000D01*
G36*
X331500000Y-79875000D02*
G01*
X331000000Y-80375000D01*
X331000000Y-79375000D01*
X331500000Y-79875000D01*
G37*
%TO.C,D12*%
X308250000Y-82300000D02*
X308650000Y-82300000D01*
X308650000Y-82300000D02*
X308650000Y-81750000D01*
X308650000Y-82300000D02*
X308650000Y-82850000D01*
X308650000Y-82300000D02*
X309250000Y-81900000D01*
X309250000Y-81900000D02*
X309250000Y-82700000D01*
X309250000Y-82300000D02*
X309750000Y-82300000D01*
X309250000Y-82700000D02*
X308650000Y-82300000D01*
%TO.C,LED20*%
X259500000Y-96875000D02*
X259000000Y-97375000D01*
X259000000Y-96375000D01*
X259500000Y-96875000D01*
G36*
X259500000Y-96875000D02*
G01*
X259000000Y-97375000D01*
X259000000Y-96375000D01*
X259500000Y-96875000D01*
G37*
%TO.C,LED10*%
X331500000Y-62875000D02*
X331000000Y-63375000D01*
X331000000Y-62375000D01*
X331500000Y-62875000D01*
G36*
X331500000Y-62875000D02*
G01*
X331000000Y-63375000D01*
X331000000Y-62375000D01*
X331500000Y-62875000D01*
G37*
%TO.C,D10*%
X326250000Y-65300000D02*
X326650000Y-65300000D01*
X326650000Y-65300000D02*
X326650000Y-64750000D01*
X326650000Y-65300000D02*
X326650000Y-65850000D01*
X326650000Y-65300000D02*
X327250000Y-64900000D01*
X327250000Y-64900000D02*
X327250000Y-65700000D01*
X327250000Y-65300000D02*
X327750000Y-65300000D01*
X327250000Y-65700000D02*
X326650000Y-65300000D01*
%TO.C,LED19*%
X277500000Y-62875000D02*
X277000000Y-63375000D01*
X277000000Y-62375000D01*
X277500000Y-62875000D01*
G36*
X277500000Y-62875000D02*
G01*
X277000000Y-63375000D01*
X277000000Y-62375000D01*
X277500000Y-62875000D01*
G37*
%TO.C,LED16*%
X295500000Y-62875000D02*
X295000000Y-63375000D01*
X295000000Y-62375000D01*
X295500000Y-62875000D01*
G36*
X295500000Y-62875000D02*
G01*
X295000000Y-63375000D01*
X295000000Y-62375000D01*
X295500000Y-62875000D01*
G37*
%TO.C,LED11*%
X313500000Y-96875000D02*
X313000000Y-97375000D01*
X313000000Y-96375000D01*
X313500000Y-96875000D01*
G36*
X313500000Y-96875000D02*
G01*
X313000000Y-97375000D01*
X313000000Y-96375000D01*
X313500000Y-96875000D01*
G37*
%TO.C,LED8*%
X331500000Y-96875000D02*
X331000000Y-97375000D01*
X331000000Y-96375000D01*
X331500000Y-96875000D01*
G36*
X331500000Y-96875000D02*
G01*
X331000000Y-97375000D01*
X331000000Y-96375000D01*
X331500000Y-96875000D01*
G37*
%TO.C,LED5*%
X349500000Y-96875000D02*
X349000000Y-97375000D01*
X349000000Y-96375000D01*
X349500000Y-96875000D01*
G36*
X349500000Y-96875000D02*
G01*
X349000000Y-97375000D01*
X349000000Y-96375000D01*
X349500000Y-96875000D01*
G37*
%TO.C,D16*%
X290250000Y-65300000D02*
X290650000Y-65300000D01*
X290650000Y-65300000D02*
X290650000Y-64750000D01*
X290650000Y-65300000D02*
X290650000Y-65850000D01*
X290650000Y-65300000D02*
X291250000Y-64900000D01*
X291250000Y-64900000D02*
X291250000Y-65700000D01*
X291250000Y-65300000D02*
X291750000Y-65300000D01*
X291250000Y-65700000D02*
X290650000Y-65300000D01*
%TO.C,LED15*%
X295500000Y-79875000D02*
X295000000Y-80375000D01*
X295000000Y-79375000D01*
X295500000Y-79875000D01*
G36*
X295500000Y-79875000D02*
G01*
X295000000Y-80375000D01*
X295000000Y-79375000D01*
X295500000Y-79875000D01*
G37*
%TO.C,D25*%
X245516993Y-140719058D02*
X245892870Y-140582250D01*
X245892870Y-140582250D02*
X245704759Y-140065419D01*
X245892870Y-140582250D02*
X246080981Y-141099081D01*
X245892870Y-140582250D02*
X246319877Y-140001161D01*
X246319877Y-140001161D02*
X246593493Y-140752915D01*
X246456685Y-140377038D02*
X246926531Y-140206028D01*
X246593493Y-140752915D02*
X245892870Y-140582250D01*
%TO.C,LED7*%
X349500000Y-62875000D02*
X349000000Y-63375000D01*
X349000000Y-62375000D01*
X349500000Y-62875000D01*
G36*
X349500000Y-62875000D02*
G01*
X349000000Y-63375000D01*
X349000000Y-62375000D01*
X349500000Y-62875000D01*
G37*
%TO.C,LED18*%
X277500000Y-79875000D02*
X277000000Y-80375000D01*
X277000000Y-79375000D01*
X277500000Y-79875000D01*
G36*
X277500000Y-79875000D02*
G01*
X277000000Y-80375000D01*
X277000000Y-79375000D01*
X277500000Y-79875000D01*
G37*
%TO.C,D6*%
X344250000Y-82300000D02*
X344650000Y-82300000D01*
X344650000Y-82300000D02*
X344650000Y-81750000D01*
X344650000Y-82300000D02*
X344650000Y-82850000D01*
X344650000Y-82300000D02*
X345250000Y-81900000D01*
X345250000Y-81900000D02*
X345250000Y-82700000D01*
X345250000Y-82300000D02*
X345750000Y-82300000D01*
X345250000Y-82700000D02*
X344650000Y-82300000D01*
%TO.C,D14*%
X290250000Y-99300000D02*
X290650000Y-99300000D01*
X290650000Y-99300000D02*
X290650000Y-98750000D01*
X290650000Y-99300000D02*
X290650000Y-99850000D01*
X290650000Y-99300000D02*
X291250000Y-98900000D01*
X291250000Y-98900000D02*
X291250000Y-99700000D01*
X291250000Y-99300000D02*
X291750000Y-99300000D01*
X291250000Y-99700000D02*
X290650000Y-99300000D01*
%TO.C,LED22*%
X259500000Y-62875000D02*
X259000000Y-63375000D01*
X259000000Y-62375000D01*
X259500000Y-62875000D01*
G36*
X259500000Y-62875000D02*
G01*
X259000000Y-63375000D01*
X259000000Y-62375000D01*
X259500000Y-62875000D01*
G37*
%TO.C,LED6*%
X349500000Y-79875000D02*
X349000000Y-80375000D01*
X349000000Y-79375000D01*
X349500000Y-79875000D01*
G36*
X349500000Y-79875000D02*
G01*
X349000000Y-80375000D01*
X349000000Y-79375000D01*
X349500000Y-79875000D01*
G37*
%TO.C,D5*%
X344250000Y-99300000D02*
X344650000Y-99300000D01*
X344650000Y-99300000D02*
X344650000Y-98750000D01*
X344650000Y-99300000D02*
X344650000Y-99850000D01*
X344650000Y-99300000D02*
X345250000Y-98900000D01*
X345250000Y-98900000D02*
X345250000Y-99700000D01*
X345250000Y-99300000D02*
X345750000Y-99300000D01*
X345250000Y-99700000D02*
X344650000Y-99300000D01*
%TO.C,LED17*%
X277500000Y-96875000D02*
X277000000Y-97375000D01*
X277000000Y-96375000D01*
X277500000Y-96875000D01*
G36*
X277500000Y-96875000D02*
G01*
X277000000Y-97375000D01*
X277000000Y-96375000D01*
X277500000Y-96875000D01*
G37*
%TO.C,D19*%
X272250000Y-65300000D02*
X272650000Y-65300000D01*
X272650000Y-65300000D02*
X272650000Y-64750000D01*
X272650000Y-65300000D02*
X272650000Y-65850000D01*
X272650000Y-65300000D02*
X273250000Y-64900000D01*
X273250000Y-64900000D02*
X273250000Y-65700000D01*
X273250000Y-65300000D02*
X273750000Y-65300000D01*
X273250000Y-65700000D02*
X272650000Y-65300000D01*
%TO.C,D20*%
X254250000Y-99300000D02*
X254650000Y-99300000D01*
X254650000Y-99300000D02*
X254650000Y-98750000D01*
X254650000Y-99300000D02*
X254650000Y-99850000D01*
X254650000Y-99300000D02*
X255250000Y-98900000D01*
X255250000Y-98900000D02*
X255250000Y-99700000D01*
X255250000Y-99300000D02*
X255750000Y-99300000D01*
X255250000Y-99700000D02*
X254650000Y-99300000D01*
%TO.C,D15*%
X290250000Y-82300000D02*
X290650000Y-82300000D01*
X290650000Y-82300000D02*
X290650000Y-81750000D01*
X290650000Y-82300000D02*
X290650000Y-82850000D01*
X290650000Y-82300000D02*
X291250000Y-81900000D01*
X291250000Y-81900000D02*
X291250000Y-82700000D01*
X291250000Y-82300000D02*
X291750000Y-82300000D01*
X291250000Y-82700000D02*
X290650000Y-82300000D01*
D15*
%TO.C,niceView1*%
X228200000Y-48075000D02*
X242200000Y-48075000D01*
X228200000Y-84075000D02*
X228200000Y-48075000D01*
X242200000Y-48075000D02*
X242200000Y-84075000D01*
X242200000Y-84075000D02*
X228200000Y-84075000D01*
D13*
%TO.C,D4*%
X344250000Y-116300000D02*
X344650000Y-116300000D01*
X344650000Y-116300000D02*
X344650000Y-115750000D01*
X344650000Y-116300000D02*
X344650000Y-116850000D01*
X344650000Y-116300000D02*
X345250000Y-115900000D01*
X345250000Y-115900000D02*
X345250000Y-116700000D01*
X345250000Y-116300000D02*
X345750000Y-116300000D01*
X345250000Y-116700000D02*
X344650000Y-116300000D01*
D15*
%TO.C,MCU1*%
X226310000Y-48020000D02*
X226310000Y-81040000D01*
X226310000Y-81040000D02*
X244090000Y-81040000D01*
X244090000Y-48020000D02*
X226310000Y-48020000D01*
X244090000Y-81040000D02*
X244090000Y-48020000D01*
D13*
%TO.C,LED14*%
X295500000Y-96875000D02*
X295000000Y-97375000D01*
X295000000Y-96375000D01*
X295500000Y-96875000D01*
G36*
X295500000Y-96875000D02*
G01*
X295000000Y-97375000D01*
X295000000Y-96375000D01*
X295500000Y-96875000D01*
G37*
%TO.C,LED12*%
X313500000Y-79875000D02*
X313000000Y-80375000D01*
X313000000Y-79375000D01*
X313500000Y-79875000D01*
G36*
X313500000Y-79875000D02*
G01*
X313000000Y-80375000D01*
X313000000Y-79375000D01*
X313500000Y-79875000D01*
G37*
%TO.C,D17*%
X272250000Y-99300000D02*
X272650000Y-99300000D01*
X272650000Y-99300000D02*
X272650000Y-98750000D01*
X272650000Y-99300000D02*
X272650000Y-99850000D01*
X272650000Y-99300000D02*
X273250000Y-98900000D01*
X273250000Y-98900000D02*
X273250000Y-99700000D01*
X273250000Y-99300000D02*
X273750000Y-99300000D01*
X273250000Y-99700000D02*
X272650000Y-99300000D01*
%TD*%
D16*
%TO.C,*%
X352000000Y-113300000D03*
%TD*%
%TO.C,*%
X300000000Y-124550000D03*
%TD*%
%TO.C,*%
X231442332Y-143713460D03*
%TD*%
%TO.C,*%
X235000000Y-52800000D03*
%TD*%
%TO.C,*%
X300000000Y-82850000D03*
%TD*%
%TO.C,*%
X335000000Y-65850000D03*
%TD*%
D17*
%TO.C,MCU1*%
X242820000Y-51830000D03*
X242820000Y-54370000D03*
X242820000Y-56910000D03*
X242820000Y-59450000D03*
X242820000Y-61990000D03*
X242820000Y-64530000D03*
X242820000Y-67070000D03*
X242820000Y-69610000D03*
X242820000Y-72150000D03*
X242820000Y-74690000D03*
X242820000Y-77230000D03*
X242820000Y-79770000D03*
X227580000Y-79770000D03*
X227580000Y-77230000D03*
X227580000Y-74690000D03*
X227580000Y-72150000D03*
X227580000Y-69610000D03*
X227580000Y-67070000D03*
X227580000Y-64530000D03*
X227580000Y-61990000D03*
X227580000Y-59450000D03*
X227580000Y-56910000D03*
X227580000Y-54370000D03*
X227580000Y-51830000D03*
X230120000Y-74690000D03*
X232660000Y-74690000D03*
X235200000Y-74690000D03*
%TD*%
D16*
%TO.C,*%
X237000000Y-99300000D03*
%TD*%
M02*
