0
SECTION
2
HEADER
9
$INSUNITS
70
4
0
ENDSEC
0
SECTION
2
TABLES
0
TABLE
2
LTYPE
0
LTYPE
72
65
70
64
2
CONTINUOUS
3
______
73
0
40
0
0
ENDTAB
0
TABLE
2
LAYER
0
ENDTAB
0
ENDSEC
0
SECTION
2
ENTITIES
0
LINE
8
0
10
61.25
20
-108.25
11
78.75
21
-108.25
0
LINE
8
0
10
78.75
20
-108.25
11
78.75
21
-91.75
0
LINE
8
0
10
78.75
20
-91.75
11
61.25
21
-91.75
0
LINE
8
0
10
61.25
20
-91.75
11
61.25
21
-108.25
0
LINE
8
0
10
61.25
20
-91.25
11
78.75
21
-91.25
0
LINE
8
0
10
78.75
20
-91.25
11
78.75
21
-74.75
0
LINE
8
0
10
78.75
20
-74.75
11
61.25
21
-74.75
0
LINE
8
0
10
61.25
20
-74.75
11
61.25
21
-91.25
0
LINE
8
0
10
61.25
20
-74.25
11
78.75
21
-74.25
0
LINE
8
0
10
78.75
20
-74.25
11
78.75
21
-57.75
0
LINE
8
0
10
78.75
20
-57.75
11
61.25
21
-57.75
0
LINE
8
0
10
61.25
20
-57.75
11
61.25
21
-74.25
0
LINE
8
0
10
61.25
20
-57.25
11
78.75
21
-57.25
0
LINE
8
0
10
78.75
20
-57.25
11
78.75
21
-40.75
0
LINE
8
0
10
78.75
20
-40.75
11
61.25
21
-40.75
0
LINE
8
0
10
61.25
20
-40.75
11
61.25
21
-57.25
0
LINE
8
0
10
79.25
20
-91.25
11
96.75
21
-91.25
0
LINE
8
0
10
96.75
20
-91.25
11
96.75
21
-74.75
0
LINE
8
0
10
96.75
20
-74.75
11
79.25
21
-74.75
0
LINE
8
0
10
79.25
20
-74.75
11
79.25
21
-91.25
0
LINE
8
0
10
79.25
20
-74.25
11
96.75
21
-74.25
0
LINE
8
0
10
96.75
20
-74.25
11
96.75
21
-57.75
0
LINE
8
0
10
96.75
20
-57.75
11
79.25
21
-57.75
0
LINE
8
0
10
79.25
20
-57.75
11
79.25
21
-74.25
0
LINE
8
0
10
79.25
20
-57.25
11
96.75
21
-57.25
0
LINE
8
0
10
96.75
20
-57.25
11
96.75
21
-40.75
0
LINE
8
0
10
96.75
20
-40.75
11
79.25
21
-40.75
0
LINE
8
0
10
79.25
20
-40.75
11
79.25
21
-57.25
0
LINE
8
0
10
97.25
20
-91.25
11
114.75
21
-91.25
0
LINE
8
0
10
114.75
20
-91.25
11
114.75
21
-74.75
0
LINE
8
0
10
114.75
20
-74.75
11
97.25
21
-74.75
0
LINE
8
0
10
97.25
20
-74.75
11
97.25
21
-91.25
0
LINE
8
0
10
97.25
20
-74.25
11
114.75
21
-74.25
0
LINE
8
0
10
114.75
20
-74.25
11
114.75
21
-57.75
0
LINE
8
0
10
114.75
20
-57.75
11
97.25
21
-57.75
0
LINE
8
0
10
97.25
20
-57.75
11
97.25
21
-74.25
0
LINE
8
0
10
97.25
20
-57.25
11
114.75
21
-57.25
0
LINE
8
0
10
114.75
20
-57.25
11
114.75
21
-40.75
0
LINE
8
0
10
114.75
20
-40.75
11
97.25
21
-40.75
0
LINE
8
0
10
97.25
20
-40.75
11
97.25
21
-57.25
0
LINE
8
0
10
115.25
20
-91.25
11
132.75
21
-91.25
0
LINE
8
0
10
132.75
20
-91.25
11
132.75
21
-74.75
0
LINE
8
0
10
132.75
20
-74.75
11
115.25
21
-74.75
0
LINE
8
0
10
115.25
20
-74.75
11
115.25
21
-91.25
0
LINE
8
0
10
115.25
20
-74.25
11
132.75
21
-74.25
0
LINE
8
0
10
132.75
20
-74.25
11
132.75
21
-57.75
0
LINE
8
0
10
132.75
20
-57.75
11
115.25
21
-57.75
0
LINE
8
0
10
115.25
20
-57.75
11
115.25
21
-74.25
0
LINE
8
0
10
115.25
20
-57.25
11
132.75
21
-57.25
0
LINE
8
0
10
132.75
20
-57.25
11
132.75
21
-40.75
0
LINE
8
0
10
132.75
20
-40.75
11
115.25
21
-40.75
0
LINE
8
0
10
115.25
20
-40.75
11
115.25
21
-57.25
0
LINE
8
0
10
133.25
20
-91.25
11
150.75
21
-91.25
0
LINE
8
0
10
150.75
20
-91.25
11
150.75
21
-74.75
0
LINE
8
0
10
150.75
20
-74.75
11
133.25
21
-74.75
0
LINE
8
0
10
133.25
20
-74.75
11
133.25
21
-91.25
0
LINE
8
0
10
133.25
20
-74.25
11
150.75
21
-74.25
0
LINE
8
0
10
150.75
20
-74.25
11
150.75
21
-57.75
0
LINE
8
0
10
150.75
20
-57.75
11
133.25
21
-57.75
0
LINE
8
0
10
133.25
20
-57.75
11
133.25
21
-74.25
0
LINE
8
0
10
133.25
20
-57.25
11
150.75
21
-57.25
0
LINE
8
0
10
150.75
20
-57.25
11
150.75
21
-40.75
0
LINE
8
0
10
150.75
20
-40.75
11
133.25
21
-40.75
0
LINE
8
0
10
133.25
20
-40.75
11
133.25
21
-57.25
0
LINE
8
0
10
151.25
20
-91.25
11
168.75
21
-91.25
0
LINE
8
0
10
168.75
20
-91.25
11
168.75
21
-74.75
0
LINE
8
0
10
168.75
20
-74.75
11
151.25
21
-74.75
0
LINE
8
0
10
151.25
20
-74.75
11
151.25
21
-91.25
0
LINE
8
0
10
151.25
20
-74.25
11
168.75
21
-74.25
0
LINE
8
0
10
168.75
20
-74.25
11
168.75
21
-57.75
0
LINE
8
0
10
168.75
20
-57.75
11
151.25
21
-57.75
0
LINE
8
0
10
151.25
20
-57.75
11
151.25
21
-74.25
0
LINE
8
0
10
151.25
20
-57.25
11
168.75
21
-57.25
0
LINE
8
0
10
168.75
20
-57.25
11
168.75
21
-40.75
0
LINE
8
0
10
168.75
20
-40.75
11
151.25
21
-40.75
0
LINE
8
0
10
151.25
20
-40.75
11
151.25
21
-57.25
0
LINE
8
0
10
157.8275313
20
-110.3518344
11
174.2721521
21
-116.3371869
0
LINE
8
0
10
174.2721521
20
-116.3371869
11
179.9154845
21
-100.8322586
0
LINE
8
0
10
179.9154845
20
-100.8322586
11
163.4708637
21
-94.8469061
0
LINE
8
0
10
163.4708637
20
-94.8469061
11
157.8275313
21
-110.3518344
0
LINE
8
0
10
174.7419985
20
-116.508197
11
191.1866193
21
-122.4935495
0
LINE
8
0
10
191.1866193
20
-122.4935495
11
196.8299517
21
-106.9886212
0
LINE
8
0
10
196.8299517
20
-106.9886212
11
180.3853309
21
-101.0032687
0
LINE
8
0
10
180.3853309
20
-101.0032687
11
174.7419985
21
-116.508197
0
LINE
8
0
10
160.4704225
20
-129.4047902
11
176.9150433
21
-135.3901427
0
LINE
8
0
10
176.9150433
20
-135.3901427
11
182.5583757
21
-119.8852144
0
LINE
8
0
10
182.5583757
20
-119.8852144
11
166.1137549
21
-113.8998619
0
LINE
8
0
10
166.1137549
20
-113.8998619
11
160.4704225
21
-129.4047902
0
LINE
8
0
10
401.25
20
-108.25
11
418.75
21
-108.25
0
LINE
8
0
10
418.75
20
-108.25
11
418.75
21
-91.75
0
LINE
8
0
10
418.75
20
-91.75
11
401.25
21
-91.75
0
LINE
8
0
10
401.25
20
-91.75
11
401.25
21
-108.25
0
LINE
8
0
10
401.25
20
-91.25
11
418.75
21
-91.25
0
LINE
8
0
10
418.75
20
-91.25
11
418.75
21
-74.75
0
LINE
8
0
10
418.75
20
-74.75
11
401.25
21
-74.75
0
LINE
8
0
10
401.25
20
-74.75
11
401.25
21
-91.25
0
LINE
8
0
10
401.25
20
-74.25
11
418.75
21
-74.25
0
LINE
8
0
10
418.75
20
-74.25
11
418.75
21
-57.75
0
LINE
8
0
10
418.75
20
-57.75
11
401.25
21
-57.75
0
LINE
8
0
10
401.25
20
-57.75
11
401.25
21
-74.25
0
LINE
8
0
10
401.25
20
-57.25
11
418.75
21
-57.25
0
LINE
8
0
10
418.75
20
-57.25
11
418.75
21
-40.75
0
LINE
8
0
10
418.75
20
-40.75
11
401.25
21
-40.75
0
LINE
8
0
10
401.25
20
-40.75
11
401.25
21
-57.25
0
LINE
8
0
10
383.25
20
-91.25
11
400.75
21
-91.25
0
LINE
8
0
10
400.75
20
-91.25
11
400.75
21
-74.75
0
LINE
8
0
10
400.75
20
-74.75
11
383.25
21
-74.75
0
LINE
8
0
10
383.25
20
-74.75
11
383.25
21
-91.25
0
LINE
8
0
10
383.25
20
-74.25
11
400.75
21
-74.25
0
LINE
8
0
10
400.75
20
-74.25
11
400.75
21
-57.75
0
LINE
8
0
10
400.75
20
-57.75
11
383.25
21
-57.75
0
LINE
8
0
10
383.25
20
-57.75
11
383.25
21
-74.25
0
LINE
8
0
10
383.25
20
-57.25
11
400.75
21
-57.25
0
LINE
8
0
10
400.75
20
-57.25
11
400.75
21
-40.75
0
LINE
8
0
10
400.75
20
-40.75
11
383.25
21
-40.75
0
LINE
8
0
10
383.25
20
-40.75
11
383.25
21
-57.25
0
LINE
8
0
10
365.25
20
-91.25
11
382.75
21
-91.25
0
LINE
8
0
10
382.75
20
-91.25
11
382.75
21
-74.75
0
LINE
8
0
10
382.75
20
-74.75
11
365.25
21
-74.75
0
LINE
8
0
10
365.25
20
-74.75
11
365.25
21
-91.25
0
LINE
8
0
10
365.25
20
-74.25
11
382.75
21
-74.25
0
LINE
8
0
10
382.75
20
-74.25
11
382.75
21
-57.75
0
LINE
8
0
10
382.75
20
-57.75
11
365.25
21
-57.75
0
LINE
8
0
10
365.25
20
-57.75
11
365.25
21
-74.25
0
LINE
8
0
10
365.25
20
-57.25
11
382.75
21
-57.25
0
LINE
8
0
10
382.75
20
-57.25
11
382.75
21
-40.75
0
LINE
8
0
10
382.75
20
-40.75
11
365.25
21
-40.75
0
LINE
8
0
10
365.25
20
-40.75
11
365.25
21
-57.25
0
LINE
8
0
10
347.25
20
-91.25
11
364.75
21
-91.25
0
LINE
8
0
10
364.75
20
-91.25
11
364.75
21
-74.75
0
LINE
8
0
10
364.75
20
-74.75
11
347.25
21
-74.75
0
LINE
8
0
10
347.25
20
-74.75
11
347.25
21
-91.25
0
LINE
8
0
10
347.25
20
-74.25
11
364.75
21
-74.25
0
LINE
8
0
10
364.75
20
-74.25
11
364.75
21
-57.75
0
LINE
8
0
10
364.75
20
-57.75
11
347.25
21
-57.75
0
LINE
8
0
10
347.25
20
-57.75
11
347.25
21
-74.25
0
LINE
8
0
10
347.25
20
-57.25
11
364.75
21
-57.25
0
LINE
8
0
10
364.75
20
-57.25
11
364.75
21
-40.75
0
LINE
8
0
10
364.75
20
-40.75
11
347.25
21
-40.75
0
LINE
8
0
10
347.25
20
-40.75
11
347.25
21
-57.25
0
LINE
8
0
10
329.25
20
-91.25
11
346.75
21
-91.25
0
LINE
8
0
10
346.75
20
-91.25
11
346.75
21
-74.75
0
LINE
8
0
10
346.75
20
-74.75
11
329.25
21
-74.75
0
LINE
8
0
10
329.25
20
-74.75
11
329.25
21
-91.25
0
LINE
8
0
10
329.25
20
-74.25
11
346.75
21
-74.25
0
LINE
8
0
10
346.75
20
-74.25
11
346.75
21
-57.75
0
LINE
8
0
10
346.75
20
-57.75
11
329.25
21
-57.75
0
LINE
8
0
10
329.25
20
-57.75
11
329.25
21
-74.25
0
LINE
8
0
10
329.25
20
-57.25
11
346.75
21
-57.25
0
LINE
8
0
10
346.75
20
-57.25
11
346.75
21
-40.75
0
LINE
8
0
10
346.75
20
-40.75
11
329.25
21
-40.75
0
LINE
8
0
10
329.25
20
-40.75
11
329.25
21
-57.25
0
LINE
8
0
10
311.25
20
-91.25
11
328.75
21
-91.25
0
LINE
8
0
10
328.75
20
-91.25
11
328.75
21
-74.75
0
LINE
8
0
10
328.75
20
-74.75
11
311.25
21
-74.75
0
LINE
8
0
10
311.25
20
-74.75
11
311.25
21
-91.25
0
LINE
8
0
10
311.25
20
-74.25
11
328.75
21
-74.25
0
LINE
8
0
10
328.75
20
-74.25
11
328.75
21
-57.75
0
LINE
8
0
10
328.75
20
-57.75
11
311.25
21
-57.75
0
LINE
8
0
10
311.25
20
-57.75
11
311.25
21
-74.25
0
LINE
8
0
10
311.25
20
-57.25
11
328.75
21
-57.25
0
LINE
8
0
10
328.75
20
-57.25
11
328.75
21
-40.75
0
LINE
8
0
10
328.75
20
-40.75
11
311.25
21
-40.75
0
LINE
8
0
10
311.25
20
-40.75
11
311.25
21
-57.25
0
LINE
8
0
10
305.7278479
20
-116.3371869
11
322.1724687
21
-110.3518344
0
LINE
8
0
10
322.1724687
20
-110.3518344
11
316.5291363
21
-94.8469061
0
LINE
8
0
10
316.5291363
20
-94.8469061
11
300.0845155
21
-100.8322586
0
LINE
8
0
10
300.0845155
20
-100.8322586
11
305.7278479
21
-116.3371869
0
LINE
8
0
10
288.8133807
20
-122.4935495
11
305.2580015
21
-116.508197
0
LINE
8
0
10
305.2580015
20
-116.508197
11
299.6146691
21
-101.0032687
0
LINE
8
0
10
299.6146691
20
-101.0032687
11
283.1700483
21
-106.9886212
0
LINE
8
0
10
283.1700483
20
-106.9886212
11
288.8133807
21
-122.4935495
0
LINE
8
0
10
303.0849567
20
-135.3901427
11
319.5295775
21
-129.4047902
0
LINE
8
0
10
319.5295775
20
-129.4047902
11
313.8862451
21
-113.8998619
0
LINE
8
0
10
313.8862451
20
-113.8998619
11
297.4416243
21
-119.8852144
0
LINE
8
0
10
297.4416243
20
-119.8852144
11
303.0849567
21
-135.3901427
0
ENDSEC
0
EOF