0
SECTION
2
HEADER
9
$INSUNITS
70
4
0
ENDSEC
0
SECTION
2
TABLES
0
TABLE
2
LTYPE
0
LTYPE
72
65
70
64
2
CONTINUOUS
3
______
73
0
40
0
0
ENDTAB
0
TABLE
2
LAYER
0
ENDTAB
0
ENDSEC
0
SECTION
2
ENTITIES
0
LINE
8
0
10
89
20
-108.9283199
11
89
21
-40.5
0
LINE
8
0
10
91
20
-38.5
11
221
21
-38.5
0
LINE
8
0
10
223
20
-40.5
11
223
21
-92.9839512
0
LINE
8
0
10
223.2496833
20
-93.9516244
11
229.3038148
21
-104.9022716
0
LINE
8
0
10
229.466238
20
-106.4542614
11
219.1479188
21
-140.230923
0
LINE
8
0
10
216.7622951
20
-141.5898976
11
90.5271162
21
-110.8716111
0
ARC
8
0
10
91
20
-40.5
40
2
50
90
51
180
0
ARC
8
0
10
221
20
-40.5
40
2
50
0
51
90
0
ARC
8
0
10
225
20
-92.9839512
40
2
50
180
51
208.9362764
0
ARC
8
0
10
227.5534981
20
-105.8699448
40
2
50
343.0127859
51
28.9362764
0
ARC
8
0
10
217.2351789
20
-139.6466064
40
2
50
256.3233665
51
343.0127859
0
ARC
8
0
10
91
20
-108.9283199
40
2
50
180
51
256.3233665
0
LINE
8
0
10
91.25
20
-108.25
11
108.75
21
-108.25
0
LINE
8
0
10
108.75
20
-108.25
11
108.75
21
-91.75
0
LINE
8
0
10
108.75
20
-91.75
11
91.25
21
-91.75
0
LINE
8
0
10
91.25
20
-91.75
11
91.25
21
-108.25
0
LINE
8
0
10
91.25
20
-91.25
11
108.75
21
-91.25
0
LINE
8
0
10
108.75
20
-91.25
11
108.75
21
-74.75
0
LINE
8
0
10
108.75
20
-74.75
11
91.25
21
-74.75
0
LINE
8
0
10
91.25
20
-74.75
11
91.25
21
-91.25
0
LINE
8
0
10
91.25
20
-74.25
11
108.75
21
-74.25
0
LINE
8
0
10
108.75
20
-74.25
11
108.75
21
-57.75
0
LINE
8
0
10
108.75
20
-57.75
11
91.25
21
-57.75
0
LINE
8
0
10
91.25
20
-57.75
11
91.25
21
-74.25
0
LINE
8
0
10
91.25
20
-57.25
11
108.75
21
-57.25
0
LINE
8
0
10
108.75
20
-57.25
11
108.75
21
-40.75
0
LINE
8
0
10
108.75
20
-40.75
11
91.25
21
-40.75
0
LINE
8
0
10
91.25
20
-40.75
11
91.25
21
-57.25
0
LINE
8
0
10
109.25
20
-91.25
11
126.75
21
-91.25
0
LINE
8
0
10
126.75
20
-91.25
11
126.75
21
-74.75
0
LINE
8
0
10
126.75
20
-74.75
11
109.25
21
-74.75
0
LINE
8
0
10
109.25
20
-74.75
11
109.25
21
-91.25
0
LINE
8
0
10
109.25
20
-74.25
11
126.75
21
-74.25
0
LINE
8
0
10
126.75
20
-74.25
11
126.75
21
-57.75
0
LINE
8
0
10
126.75
20
-57.75
11
109.25
21
-57.75
0
LINE
8
0
10
109.25
20
-57.75
11
109.25
21
-74.25
0
LINE
8
0
10
109.25
20
-57.25
11
126.75
21
-57.25
0
LINE
8
0
10
126.75
20
-57.25
11
126.75
21
-40.75
0
LINE
8
0
10
126.75
20
-40.75
11
109.25
21
-40.75
0
LINE
8
0
10
109.25
20
-40.75
11
109.25
21
-57.25
0
LINE
8
0
10
127.25
20
-91.25
11
144.75
21
-91.25
0
LINE
8
0
10
144.75
20
-91.25
11
144.75
21
-74.75
0
LINE
8
0
10
144.75
20
-74.75
11
127.25
21
-74.75
0
LINE
8
0
10
127.25
20
-74.75
11
127.25
21
-91.25
0
LINE
8
0
10
127.25
20
-74.25
11
144.75
21
-74.25
0
LINE
8
0
10
144.75
20
-74.25
11
144.75
21
-57.75
0
LINE
8
0
10
144.75
20
-57.75
11
127.25
21
-57.75
0
LINE
8
0
10
127.25
20
-57.75
11
127.25
21
-74.25
0
LINE
8
0
10
127.25
20
-57.25
11
144.75
21
-57.25
0
LINE
8
0
10
144.75
20
-57.25
11
144.75
21
-40.75
0
LINE
8
0
10
144.75
20
-40.75
11
127.25
21
-40.75
0
LINE
8
0
10
127.25
20
-40.75
11
127.25
21
-57.25
0
LINE
8
0
10
145.25
20
-91.25
11
162.75
21
-91.25
0
LINE
8
0
10
162.75
20
-91.25
11
162.75
21
-74.75
0
LINE
8
0
10
162.75
20
-74.75
11
145.25
21
-74.75
0
LINE
8
0
10
145.25
20
-74.75
11
145.25
21
-91.25
0
LINE
8
0
10
145.25
20
-74.25
11
162.75
21
-74.25
0
LINE
8
0
10
162.75
20
-74.25
11
162.75
21
-57.75
0
LINE
8
0
10
162.75
20
-57.75
11
145.25
21
-57.75
0
LINE
8
0
10
145.25
20
-57.75
11
145.25
21
-74.25
0
LINE
8
0
10
145.25
20
-57.25
11
162.75
21
-57.25
0
LINE
8
0
10
162.75
20
-57.25
11
162.75
21
-40.75
0
LINE
8
0
10
162.75
20
-40.75
11
145.25
21
-40.75
0
LINE
8
0
10
145.25
20
-40.75
11
145.25
21
-57.25
0
LINE
8
0
10
163.25
20
-91.25
11
180.75
21
-91.25
0
LINE
8
0
10
180.75
20
-91.25
11
180.75
21
-74.75
0
LINE
8
0
10
180.75
20
-74.75
11
163.25
21
-74.75
0
LINE
8
0
10
163.25
20
-74.75
11
163.25
21
-91.25
0
LINE
8
0
10
163.25
20
-74.25
11
180.75
21
-74.25
0
LINE
8
0
10
180.75
20
-74.25
11
180.75
21
-57.75
0
LINE
8
0
10
180.75
20
-57.75
11
163.25
21
-57.75
0
LINE
8
0
10
163.25
20
-57.75
11
163.25
21
-74.25
0
LINE
8
0
10
163.25
20
-57.25
11
180.75
21
-57.25
0
LINE
8
0
10
180.75
20
-57.25
11
180.75
21
-40.75
0
LINE
8
0
10
180.75
20
-40.75
11
163.25
21
-40.75
0
LINE
8
0
10
163.25
20
-40.75
11
163.25
21
-57.25
0
LINE
8
0
10
181.25
20
-91.25
11
198.75
21
-91.25
0
LINE
8
0
10
198.75
20
-91.25
11
198.75
21
-74.75
0
LINE
8
0
10
198.75
20
-74.75
11
181.25
21
-74.75
0
LINE
8
0
10
181.25
20
-74.75
11
181.25
21
-91.25
0
LINE
8
0
10
181.25
20
-74.25
11
198.75
21
-74.25
0
LINE
8
0
10
198.75
20
-74.25
11
198.75
21
-57.75
0
LINE
8
0
10
198.75
20
-57.75
11
181.25
21
-57.75
0
LINE
8
0
10
181.25
20
-57.75
11
181.25
21
-74.25
0
LINE
8
0
10
181.25
20
-57.25
11
198.75
21
-57.25
0
LINE
8
0
10
198.75
20
-57.25
11
198.75
21
-40.75
0
LINE
8
0
10
198.75
20
-40.75
11
181.25
21
-40.75
0
LINE
8
0
10
181.25
20
-40.75
11
181.25
21
-57.25
0
LINE
8
0
10
187.8275313
20
-110.3518344
11
204.2721521
21
-116.3371869
0
LINE
8
0
10
204.2721521
20
-116.3371869
11
209.9154845
21
-100.8322586
0
LINE
8
0
10
209.9154845
20
-100.8322586
11
193.4708637
21
-94.8469061
0
LINE
8
0
10
193.4708637
20
-94.8469061
11
187.8275313
21
-110.3518344
0
LINE
8
0
10
204.7419985
20
-116.508197
11
221.1866193
21
-122.4935495
0
LINE
8
0
10
221.1866193
20
-122.4935495
11
226.8299517
21
-106.9886212
0
LINE
8
0
10
226.8299517
20
-106.9886212
11
210.3853309
21
-101.0032687
0
LINE
8
0
10
210.3853309
20
-101.0032687
11
204.7419985
21
-116.508197
0
LINE
8
0
10
190.4704225
20
-129.4047902
11
206.9150433
21
-135.3901427
0
LINE
8
0
10
206.9150433
20
-135.3901427
11
212.5583757
21
-119.8852144
0
LINE
8
0
10
212.5583757
20
-119.8852144
11
196.1137549
21
-113.8998619
0
LINE
8
0
10
196.1137549
20
-113.8998619
11
190.4704225
21
-129.4047902
0
ENDSEC
0
EOF