%TF.GenerationSoftware,KiCad,Pcbnew,8.0.5*%
%TF.CreationDate,2024-09-15T18:22:07-04:00*%
%TF.ProjectId,theguy2,74686567-7579-4322-9e6b-696361645f70,v1.0.0*%
%TF.SameCoordinates,Original*%
%TF.FileFunction,Legend,Bot*%
%TF.FilePolarity,Positive*%
%FSLAX46Y46*%
G04 Gerber Fmt 4.6, Leading zero omitted, Abs format (unit mm)*
G04 Created by KiCad (PCBNEW 8.0.5) date 2024-09-15 18:22:07*
%MOMM*%
%LPD*%
G01*
G04 APERTURE LIST*
%ADD10C,0.150000*%
%ADD11C,0.100000*%
%ADD12C,0.381000*%
%ADD13C,1.752600*%
G04 APERTURE END LIST*
D10*
X183971142Y-72702295D02*
X184428285Y-72702295D01*
X184199713Y-72702295D02*
X184199713Y-71902295D01*
X184199713Y-71902295D02*
X184275904Y-72016580D01*
X184275904Y-72016580D02*
X184352094Y-72092771D01*
X184352094Y-72092771D02*
X184428285Y-72130866D01*
X183209237Y-72702295D02*
X183666380Y-72702295D01*
X183437808Y-72702295D02*
X183437808Y-71902295D01*
X183437808Y-71902295D02*
X183513999Y-72016580D01*
X183513999Y-72016580D02*
X183590189Y-72092771D01*
X183590189Y-72092771D02*
X183666380Y-72130866D01*
X182447332Y-72702295D02*
X182904475Y-72702295D01*
X182675903Y-72702295D02*
X182675903Y-71902295D01*
X182675903Y-71902295D02*
X182752094Y-72016580D01*
X182752094Y-72016580D02*
X182828284Y-72092771D01*
X182828284Y-72092771D02*
X182904475Y-72130866D01*
X195312189Y-64312295D02*
X195235999Y-64312295D01*
X195235999Y-64312295D02*
X195159808Y-64350390D01*
X195159808Y-64350390D02*
X195121713Y-64388485D01*
X195121713Y-64388485D02*
X195083618Y-64464676D01*
X195083618Y-64464676D02*
X195045523Y-64617057D01*
X195045523Y-64617057D02*
X195045523Y-64807533D01*
X195045523Y-64807533D02*
X195083618Y-64959914D01*
X195083618Y-64959914D02*
X195121713Y-65036104D01*
X195121713Y-65036104D02*
X195159808Y-65074200D01*
X195159808Y-65074200D02*
X195235999Y-65112295D01*
X195235999Y-65112295D02*
X195312189Y-65112295D01*
X195312189Y-65112295D02*
X195388380Y-65074200D01*
X195388380Y-65074200D02*
X195426475Y-65036104D01*
X195426475Y-65036104D02*
X195464570Y-64959914D01*
X195464570Y-64959914D02*
X195502666Y-64807533D01*
X195502666Y-64807533D02*
X195502666Y-64617057D01*
X195502666Y-64617057D02*
X195464570Y-64464676D01*
X195464570Y-64464676D02*
X195426475Y-64388485D01*
X195426475Y-64388485D02*
X195388380Y-64350390D01*
X195388380Y-64350390D02*
X195312189Y-64312295D01*
X194740761Y-64388485D02*
X194702665Y-64350390D01*
X194702665Y-64350390D02*
X194626475Y-64312295D01*
X194626475Y-64312295D02*
X194435999Y-64312295D01*
X194435999Y-64312295D02*
X194359808Y-64350390D01*
X194359808Y-64350390D02*
X194321713Y-64388485D01*
X194321713Y-64388485D02*
X194283618Y-64464676D01*
X194283618Y-64464676D02*
X194283618Y-64540866D01*
X194283618Y-64540866D02*
X194321713Y-64655152D01*
X194321713Y-64655152D02*
X194778856Y-65112295D01*
X194778856Y-65112295D02*
X194283618Y-65112295D01*
X193978856Y-64388485D02*
X193940760Y-64350390D01*
X193940760Y-64350390D02*
X193864570Y-64312295D01*
X193864570Y-64312295D02*
X193674094Y-64312295D01*
X193674094Y-64312295D02*
X193597903Y-64350390D01*
X193597903Y-64350390D02*
X193559808Y-64388485D01*
X193559808Y-64388485D02*
X193521713Y-64464676D01*
X193521713Y-64464676D02*
X193521713Y-64540866D01*
X193521713Y-64540866D02*
X193559808Y-64655152D01*
X193559808Y-64655152D02*
X194016951Y-65112295D01*
X194016951Y-65112295D02*
X193521713Y-65112295D01*
X195045523Y-75242295D02*
X195502666Y-75242295D01*
X195274094Y-75242295D02*
X195274094Y-74442295D01*
X195274094Y-74442295D02*
X195350285Y-74556580D01*
X195350285Y-74556580D02*
X195426475Y-74632771D01*
X195426475Y-74632771D02*
X195502666Y-74670866D01*
X194550284Y-74442295D02*
X194474094Y-74442295D01*
X194474094Y-74442295D02*
X194397903Y-74480390D01*
X194397903Y-74480390D02*
X194359808Y-74518485D01*
X194359808Y-74518485D02*
X194321713Y-74594676D01*
X194321713Y-74594676D02*
X194283618Y-74747057D01*
X194283618Y-74747057D02*
X194283618Y-74937533D01*
X194283618Y-74937533D02*
X194321713Y-75089914D01*
X194321713Y-75089914D02*
X194359808Y-75166104D01*
X194359808Y-75166104D02*
X194397903Y-75204200D01*
X194397903Y-75204200D02*
X194474094Y-75242295D01*
X194474094Y-75242295D02*
X194550284Y-75242295D01*
X194550284Y-75242295D02*
X194626475Y-75204200D01*
X194626475Y-75204200D02*
X194664570Y-75166104D01*
X194664570Y-75166104D02*
X194702665Y-75089914D01*
X194702665Y-75089914D02*
X194740761Y-74937533D01*
X194740761Y-74937533D02*
X194740761Y-74747057D01*
X194740761Y-74747057D02*
X194702665Y-74594676D01*
X194702665Y-74594676D02*
X194664570Y-74518485D01*
X194664570Y-74518485D02*
X194626475Y-74480390D01*
X194626475Y-74480390D02*
X194550284Y-74442295D01*
X193597903Y-74708961D02*
X193597903Y-75242295D01*
X193788379Y-74404200D02*
X193978856Y-74975628D01*
X193978856Y-74975628D02*
X193483617Y-74975628D01*
X195045523Y-70162295D02*
X195502666Y-70162295D01*
X195274094Y-70162295D02*
X195274094Y-69362295D01*
X195274094Y-69362295D02*
X195350285Y-69476580D01*
X195350285Y-69476580D02*
X195426475Y-69552771D01*
X195426475Y-69552771D02*
X195502666Y-69590866D01*
X194550284Y-69362295D02*
X194474094Y-69362295D01*
X194474094Y-69362295D02*
X194397903Y-69400390D01*
X194397903Y-69400390D02*
X194359808Y-69438485D01*
X194359808Y-69438485D02*
X194321713Y-69514676D01*
X194321713Y-69514676D02*
X194283618Y-69667057D01*
X194283618Y-69667057D02*
X194283618Y-69857533D01*
X194283618Y-69857533D02*
X194321713Y-70009914D01*
X194321713Y-70009914D02*
X194359808Y-70086104D01*
X194359808Y-70086104D02*
X194397903Y-70124200D01*
X194397903Y-70124200D02*
X194474094Y-70162295D01*
X194474094Y-70162295D02*
X194550284Y-70162295D01*
X194550284Y-70162295D02*
X194626475Y-70124200D01*
X194626475Y-70124200D02*
X194664570Y-70086104D01*
X194664570Y-70086104D02*
X194702665Y-70009914D01*
X194702665Y-70009914D02*
X194740761Y-69857533D01*
X194740761Y-69857533D02*
X194740761Y-69667057D01*
X194740761Y-69667057D02*
X194702665Y-69514676D01*
X194702665Y-69514676D02*
X194664570Y-69438485D01*
X194664570Y-69438485D02*
X194626475Y-69400390D01*
X194626475Y-69400390D02*
X194550284Y-69362295D01*
X193788379Y-69362295D02*
X193712189Y-69362295D01*
X193712189Y-69362295D02*
X193635998Y-69400390D01*
X193635998Y-69400390D02*
X193597903Y-69438485D01*
X193597903Y-69438485D02*
X193559808Y-69514676D01*
X193559808Y-69514676D02*
X193521713Y-69667057D01*
X193521713Y-69667057D02*
X193521713Y-69857533D01*
X193521713Y-69857533D02*
X193559808Y-70009914D01*
X193559808Y-70009914D02*
X193597903Y-70086104D01*
X193597903Y-70086104D02*
X193635998Y-70124200D01*
X193635998Y-70124200D02*
X193712189Y-70162295D01*
X193712189Y-70162295D02*
X193788379Y-70162295D01*
X193788379Y-70162295D02*
X193864570Y-70124200D01*
X193864570Y-70124200D02*
X193902665Y-70086104D01*
X193902665Y-70086104D02*
X193940760Y-70009914D01*
X193940760Y-70009914D02*
X193978856Y-69857533D01*
X193978856Y-69857533D02*
X193978856Y-69667057D01*
X193978856Y-69667057D02*
X193940760Y-69514676D01*
X193940760Y-69514676D02*
X193902665Y-69438485D01*
X193902665Y-69438485D02*
X193864570Y-69400390D01*
X193864570Y-69400390D02*
X193788379Y-69362295D01*
X195312189Y-61812295D02*
X195235999Y-61812295D01*
X195235999Y-61812295D02*
X195159808Y-61850390D01*
X195159808Y-61850390D02*
X195121713Y-61888485D01*
X195121713Y-61888485D02*
X195083618Y-61964676D01*
X195083618Y-61964676D02*
X195045523Y-62117057D01*
X195045523Y-62117057D02*
X195045523Y-62307533D01*
X195045523Y-62307533D02*
X195083618Y-62459914D01*
X195083618Y-62459914D02*
X195121713Y-62536104D01*
X195121713Y-62536104D02*
X195159808Y-62574200D01*
X195159808Y-62574200D02*
X195235999Y-62612295D01*
X195235999Y-62612295D02*
X195312189Y-62612295D01*
X195312189Y-62612295D02*
X195388380Y-62574200D01*
X195388380Y-62574200D02*
X195426475Y-62536104D01*
X195426475Y-62536104D02*
X195464570Y-62459914D01*
X195464570Y-62459914D02*
X195502666Y-62307533D01*
X195502666Y-62307533D02*
X195502666Y-62117057D01*
X195502666Y-62117057D02*
X195464570Y-61964676D01*
X195464570Y-61964676D02*
X195426475Y-61888485D01*
X195426475Y-61888485D02*
X195388380Y-61850390D01*
X195388380Y-61850390D02*
X195312189Y-61812295D01*
X194740761Y-61888485D02*
X194702665Y-61850390D01*
X194702665Y-61850390D02*
X194626475Y-61812295D01*
X194626475Y-61812295D02*
X194435999Y-61812295D01*
X194435999Y-61812295D02*
X194359808Y-61850390D01*
X194359808Y-61850390D02*
X194321713Y-61888485D01*
X194321713Y-61888485D02*
X194283618Y-61964676D01*
X194283618Y-61964676D02*
X194283618Y-62040866D01*
X194283618Y-62040866D02*
X194321713Y-62155152D01*
X194321713Y-62155152D02*
X194778856Y-62612295D01*
X194778856Y-62612295D02*
X194283618Y-62612295D01*
X193788379Y-61812295D02*
X193712189Y-61812295D01*
X193712189Y-61812295D02*
X193635998Y-61850390D01*
X193635998Y-61850390D02*
X193597903Y-61888485D01*
X193597903Y-61888485D02*
X193559808Y-61964676D01*
X193559808Y-61964676D02*
X193521713Y-62117057D01*
X193521713Y-62117057D02*
X193521713Y-62307533D01*
X193521713Y-62307533D02*
X193559808Y-62459914D01*
X193559808Y-62459914D02*
X193597903Y-62536104D01*
X193597903Y-62536104D02*
X193635998Y-62574200D01*
X193635998Y-62574200D02*
X193712189Y-62612295D01*
X193712189Y-62612295D02*
X193788379Y-62612295D01*
X193788379Y-62612295D02*
X193864570Y-62574200D01*
X193864570Y-62574200D02*
X193902665Y-62536104D01*
X193902665Y-62536104D02*
X193940760Y-62459914D01*
X193940760Y-62459914D02*
X193978856Y-62307533D01*
X193978856Y-62307533D02*
X193978856Y-62117057D01*
X193978856Y-62117057D02*
X193940760Y-61964676D01*
X193940760Y-61964676D02*
X193902665Y-61888485D01*
X193902665Y-61888485D02*
X193864570Y-61850390D01*
X193864570Y-61850390D02*
X193788379Y-61812295D01*
X195312189Y-59212295D02*
X195235999Y-59212295D01*
X195235999Y-59212295D02*
X195159808Y-59250390D01*
X195159808Y-59250390D02*
X195121713Y-59288485D01*
X195121713Y-59288485D02*
X195083618Y-59364676D01*
X195083618Y-59364676D02*
X195045523Y-59517057D01*
X195045523Y-59517057D02*
X195045523Y-59707533D01*
X195045523Y-59707533D02*
X195083618Y-59859914D01*
X195083618Y-59859914D02*
X195121713Y-59936104D01*
X195121713Y-59936104D02*
X195159808Y-59974200D01*
X195159808Y-59974200D02*
X195235999Y-60012295D01*
X195235999Y-60012295D02*
X195312189Y-60012295D01*
X195312189Y-60012295D02*
X195388380Y-59974200D01*
X195388380Y-59974200D02*
X195426475Y-59936104D01*
X195426475Y-59936104D02*
X195464570Y-59859914D01*
X195464570Y-59859914D02*
X195502666Y-59707533D01*
X195502666Y-59707533D02*
X195502666Y-59517057D01*
X195502666Y-59517057D02*
X195464570Y-59364676D01*
X195464570Y-59364676D02*
X195426475Y-59288485D01*
X195426475Y-59288485D02*
X195388380Y-59250390D01*
X195388380Y-59250390D02*
X195312189Y-59212295D01*
X194283618Y-60012295D02*
X194740761Y-60012295D01*
X194512189Y-60012295D02*
X194512189Y-59212295D01*
X194512189Y-59212295D02*
X194588380Y-59326580D01*
X194588380Y-59326580D02*
X194664570Y-59402771D01*
X194664570Y-59402771D02*
X194740761Y-59440866D01*
X194016951Y-59212295D02*
X193483617Y-59212295D01*
X193483617Y-59212295D02*
X193826475Y-60012295D01*
X195312189Y-66822295D02*
X195235999Y-66822295D01*
X195235999Y-66822295D02*
X195159808Y-66860390D01*
X195159808Y-66860390D02*
X195121713Y-66898485D01*
X195121713Y-66898485D02*
X195083618Y-66974676D01*
X195083618Y-66974676D02*
X195045523Y-67127057D01*
X195045523Y-67127057D02*
X195045523Y-67317533D01*
X195045523Y-67317533D02*
X195083618Y-67469914D01*
X195083618Y-67469914D02*
X195121713Y-67546104D01*
X195121713Y-67546104D02*
X195159808Y-67584200D01*
X195159808Y-67584200D02*
X195235999Y-67622295D01*
X195235999Y-67622295D02*
X195312189Y-67622295D01*
X195312189Y-67622295D02*
X195388380Y-67584200D01*
X195388380Y-67584200D02*
X195426475Y-67546104D01*
X195426475Y-67546104D02*
X195464570Y-67469914D01*
X195464570Y-67469914D02*
X195502666Y-67317533D01*
X195502666Y-67317533D02*
X195502666Y-67127057D01*
X195502666Y-67127057D02*
X195464570Y-66974676D01*
X195464570Y-66974676D02*
X195426475Y-66898485D01*
X195426475Y-66898485D02*
X195388380Y-66860390D01*
X195388380Y-66860390D02*
X195312189Y-66822295D01*
X194740761Y-66898485D02*
X194702665Y-66860390D01*
X194702665Y-66860390D02*
X194626475Y-66822295D01*
X194626475Y-66822295D02*
X194435999Y-66822295D01*
X194435999Y-66822295D02*
X194359808Y-66860390D01*
X194359808Y-66860390D02*
X194321713Y-66898485D01*
X194321713Y-66898485D02*
X194283618Y-66974676D01*
X194283618Y-66974676D02*
X194283618Y-67050866D01*
X194283618Y-67050866D02*
X194321713Y-67165152D01*
X194321713Y-67165152D02*
X194778856Y-67622295D01*
X194778856Y-67622295D02*
X194283618Y-67622295D01*
X193597903Y-67088961D02*
X193597903Y-67622295D01*
X193788379Y-66784200D02*
X193978856Y-67355628D01*
X193978856Y-67355628D02*
X193483617Y-67355628D01*
X183971142Y-67622295D02*
X184428285Y-67622295D01*
X184199713Y-67622295D02*
X184199713Y-66822295D01*
X184199713Y-66822295D02*
X184275904Y-66936580D01*
X184275904Y-66936580D02*
X184352094Y-67012771D01*
X184352094Y-67012771D02*
X184428285Y-67050866D01*
X183209237Y-67622295D02*
X183666380Y-67622295D01*
X183437808Y-67622295D02*
X183437808Y-66822295D01*
X183437808Y-66822295D02*
X183513999Y-66936580D01*
X183513999Y-66936580D02*
X183590189Y-67012771D01*
X183590189Y-67012771D02*
X183666380Y-67050866D01*
X182485427Y-66822295D02*
X182866379Y-66822295D01*
X182866379Y-66822295D02*
X182904475Y-67203247D01*
X182904475Y-67203247D02*
X182866379Y-67165152D01*
X182866379Y-67165152D02*
X182790189Y-67127057D01*
X182790189Y-67127057D02*
X182599713Y-67127057D01*
X182599713Y-67127057D02*
X182523522Y-67165152D01*
X182523522Y-67165152D02*
X182485427Y-67203247D01*
X182485427Y-67203247D02*
X182447332Y-67279438D01*
X182447332Y-67279438D02*
X182447332Y-67469914D01*
X182447332Y-67469914D02*
X182485427Y-67546104D01*
X182485427Y-67546104D02*
X182523522Y-67584200D01*
X182523522Y-67584200D02*
X182599713Y-67622295D01*
X182599713Y-67622295D02*
X182790189Y-67622295D01*
X182790189Y-67622295D02*
X182866379Y-67584200D01*
X182866379Y-67584200D02*
X182904475Y-67546104D01*
X195045523Y-56700390D02*
X195121713Y-56662295D01*
X195121713Y-56662295D02*
X195235999Y-56662295D01*
X195235999Y-56662295D02*
X195350285Y-56700390D01*
X195350285Y-56700390D02*
X195426475Y-56776580D01*
X195426475Y-56776580D02*
X195464570Y-56852771D01*
X195464570Y-56852771D02*
X195502666Y-57005152D01*
X195502666Y-57005152D02*
X195502666Y-57119438D01*
X195502666Y-57119438D02*
X195464570Y-57271819D01*
X195464570Y-57271819D02*
X195426475Y-57348009D01*
X195426475Y-57348009D02*
X195350285Y-57424200D01*
X195350285Y-57424200D02*
X195235999Y-57462295D01*
X195235999Y-57462295D02*
X195159808Y-57462295D01*
X195159808Y-57462295D02*
X195045523Y-57424200D01*
X195045523Y-57424200D02*
X195007427Y-57386104D01*
X195007427Y-57386104D02*
X195007427Y-57119438D01*
X195007427Y-57119438D02*
X195159808Y-57119438D01*
X194664570Y-57462295D02*
X194664570Y-56662295D01*
X194664570Y-56662295D02*
X194207427Y-57462295D01*
X194207427Y-57462295D02*
X194207427Y-56662295D01*
X193826475Y-57462295D02*
X193826475Y-56662295D01*
X193826475Y-56662295D02*
X193635999Y-56662295D01*
X193635999Y-56662295D02*
X193521713Y-56700390D01*
X193521713Y-56700390D02*
X193445523Y-56776580D01*
X193445523Y-56776580D02*
X193407428Y-56852771D01*
X193407428Y-56852771D02*
X193369332Y-57005152D01*
X193369332Y-57005152D02*
X193369332Y-57119438D01*
X193369332Y-57119438D02*
X193407428Y-57271819D01*
X193407428Y-57271819D02*
X193445523Y-57348009D01*
X193445523Y-57348009D02*
X193521713Y-57424200D01*
X193521713Y-57424200D02*
X193635999Y-57462295D01*
X193635999Y-57462295D02*
X193826475Y-57462295D01*
X184237808Y-64282295D02*
X184161618Y-64282295D01*
X184161618Y-64282295D02*
X184085427Y-64320390D01*
X184085427Y-64320390D02*
X184047332Y-64358485D01*
X184047332Y-64358485D02*
X184009237Y-64434676D01*
X184009237Y-64434676D02*
X183971142Y-64587057D01*
X183971142Y-64587057D02*
X183971142Y-64777533D01*
X183971142Y-64777533D02*
X184009237Y-64929914D01*
X184009237Y-64929914D02*
X184047332Y-65006104D01*
X184047332Y-65006104D02*
X184085427Y-65044200D01*
X184085427Y-65044200D02*
X184161618Y-65082295D01*
X184161618Y-65082295D02*
X184237808Y-65082295D01*
X184237808Y-65082295D02*
X184313999Y-65044200D01*
X184313999Y-65044200D02*
X184352094Y-65006104D01*
X184352094Y-65006104D02*
X184390189Y-64929914D01*
X184390189Y-64929914D02*
X184428285Y-64777533D01*
X184428285Y-64777533D02*
X184428285Y-64587057D01*
X184428285Y-64587057D02*
X184390189Y-64434676D01*
X184390189Y-64434676D02*
X184352094Y-64358485D01*
X184352094Y-64358485D02*
X184313999Y-64320390D01*
X184313999Y-64320390D02*
X184237808Y-64282295D01*
X183475903Y-64282295D02*
X183399713Y-64282295D01*
X183399713Y-64282295D02*
X183323522Y-64320390D01*
X183323522Y-64320390D02*
X183285427Y-64358485D01*
X183285427Y-64358485D02*
X183247332Y-64434676D01*
X183247332Y-64434676D02*
X183209237Y-64587057D01*
X183209237Y-64587057D02*
X183209237Y-64777533D01*
X183209237Y-64777533D02*
X183247332Y-64929914D01*
X183247332Y-64929914D02*
X183285427Y-65006104D01*
X183285427Y-65006104D02*
X183323522Y-65044200D01*
X183323522Y-65044200D02*
X183399713Y-65082295D01*
X183399713Y-65082295D02*
X183475903Y-65082295D01*
X183475903Y-65082295D02*
X183552094Y-65044200D01*
X183552094Y-65044200D02*
X183590189Y-65006104D01*
X183590189Y-65006104D02*
X183628284Y-64929914D01*
X183628284Y-64929914D02*
X183666380Y-64777533D01*
X183666380Y-64777533D02*
X183666380Y-64587057D01*
X183666380Y-64587057D02*
X183628284Y-64434676D01*
X183628284Y-64434676D02*
X183590189Y-64358485D01*
X183590189Y-64358485D02*
X183552094Y-64320390D01*
X183552094Y-64320390D02*
X183475903Y-64282295D01*
X182904475Y-64358485D02*
X182866379Y-64320390D01*
X182866379Y-64320390D02*
X182790189Y-64282295D01*
X182790189Y-64282295D02*
X182599713Y-64282295D01*
X182599713Y-64282295D02*
X182523522Y-64320390D01*
X182523522Y-64320390D02*
X182485427Y-64358485D01*
X182485427Y-64358485D02*
X182447332Y-64434676D01*
X182447332Y-64434676D02*
X182447332Y-64510866D01*
X182447332Y-64510866D02*
X182485427Y-64625152D01*
X182485427Y-64625152D02*
X182942570Y-65082295D01*
X182942570Y-65082295D02*
X182447332Y-65082295D01*
X183825094Y-54922295D02*
X184091761Y-54541342D01*
X184282237Y-54922295D02*
X184282237Y-54122295D01*
X184282237Y-54122295D02*
X183977475Y-54122295D01*
X183977475Y-54122295D02*
X183901285Y-54160390D01*
X183901285Y-54160390D02*
X183863190Y-54198485D01*
X183863190Y-54198485D02*
X183825094Y-54274676D01*
X183825094Y-54274676D02*
X183825094Y-54388961D01*
X183825094Y-54388961D02*
X183863190Y-54465152D01*
X183863190Y-54465152D02*
X183901285Y-54503247D01*
X183901285Y-54503247D02*
X183977475Y-54541342D01*
X183977475Y-54541342D02*
X184282237Y-54541342D01*
X183520333Y-54884200D02*
X183406047Y-54922295D01*
X183406047Y-54922295D02*
X183215571Y-54922295D01*
X183215571Y-54922295D02*
X183139380Y-54884200D01*
X183139380Y-54884200D02*
X183101285Y-54846104D01*
X183101285Y-54846104D02*
X183063190Y-54769914D01*
X183063190Y-54769914D02*
X183063190Y-54693723D01*
X183063190Y-54693723D02*
X183101285Y-54617533D01*
X183101285Y-54617533D02*
X183139380Y-54579438D01*
X183139380Y-54579438D02*
X183215571Y-54541342D01*
X183215571Y-54541342D02*
X183367952Y-54503247D01*
X183367952Y-54503247D02*
X183444142Y-54465152D01*
X183444142Y-54465152D02*
X183482237Y-54427057D01*
X183482237Y-54427057D02*
X183520333Y-54350866D01*
X183520333Y-54350866D02*
X183520333Y-54274676D01*
X183520333Y-54274676D02*
X183482237Y-54198485D01*
X183482237Y-54198485D02*
X183444142Y-54160390D01*
X183444142Y-54160390D02*
X183367952Y-54122295D01*
X183367952Y-54122295D02*
X183177475Y-54122295D01*
X183177475Y-54122295D02*
X183063190Y-54160390D01*
X182834618Y-54122295D02*
X182377475Y-54122295D01*
X182606047Y-54922295D02*
X182606047Y-54122295D01*
X195312189Y-51512295D02*
X195235999Y-51512295D01*
X195235999Y-51512295D02*
X195159808Y-51550390D01*
X195159808Y-51550390D02*
X195121713Y-51588485D01*
X195121713Y-51588485D02*
X195083618Y-51664676D01*
X195083618Y-51664676D02*
X195045523Y-51817057D01*
X195045523Y-51817057D02*
X195045523Y-52007533D01*
X195045523Y-52007533D02*
X195083618Y-52159914D01*
X195083618Y-52159914D02*
X195121713Y-52236104D01*
X195121713Y-52236104D02*
X195159808Y-52274200D01*
X195159808Y-52274200D02*
X195235999Y-52312295D01*
X195235999Y-52312295D02*
X195312189Y-52312295D01*
X195312189Y-52312295D02*
X195388380Y-52274200D01*
X195388380Y-52274200D02*
X195426475Y-52236104D01*
X195426475Y-52236104D02*
X195464570Y-52159914D01*
X195464570Y-52159914D02*
X195502666Y-52007533D01*
X195502666Y-52007533D02*
X195502666Y-51817057D01*
X195502666Y-51817057D02*
X195464570Y-51664676D01*
X195464570Y-51664676D02*
X195426475Y-51588485D01*
X195426475Y-51588485D02*
X195388380Y-51550390D01*
X195388380Y-51550390D02*
X195312189Y-51512295D01*
X194550284Y-51512295D02*
X194474094Y-51512295D01*
X194474094Y-51512295D02*
X194397903Y-51550390D01*
X194397903Y-51550390D02*
X194359808Y-51588485D01*
X194359808Y-51588485D02*
X194321713Y-51664676D01*
X194321713Y-51664676D02*
X194283618Y-51817057D01*
X194283618Y-51817057D02*
X194283618Y-52007533D01*
X194283618Y-52007533D02*
X194321713Y-52159914D01*
X194321713Y-52159914D02*
X194359808Y-52236104D01*
X194359808Y-52236104D02*
X194397903Y-52274200D01*
X194397903Y-52274200D02*
X194474094Y-52312295D01*
X194474094Y-52312295D02*
X194550284Y-52312295D01*
X194550284Y-52312295D02*
X194626475Y-52274200D01*
X194626475Y-52274200D02*
X194664570Y-52236104D01*
X194664570Y-52236104D02*
X194702665Y-52159914D01*
X194702665Y-52159914D02*
X194740761Y-52007533D01*
X194740761Y-52007533D02*
X194740761Y-51817057D01*
X194740761Y-51817057D02*
X194702665Y-51664676D01*
X194702665Y-51664676D02*
X194664570Y-51588485D01*
X194664570Y-51588485D02*
X194626475Y-51550390D01*
X194626475Y-51550390D02*
X194550284Y-51512295D01*
X193826475Y-51855152D02*
X193902665Y-51817057D01*
X193902665Y-51817057D02*
X193940760Y-51778961D01*
X193940760Y-51778961D02*
X193978856Y-51702771D01*
X193978856Y-51702771D02*
X193978856Y-51664676D01*
X193978856Y-51664676D02*
X193940760Y-51588485D01*
X193940760Y-51588485D02*
X193902665Y-51550390D01*
X193902665Y-51550390D02*
X193826475Y-51512295D01*
X193826475Y-51512295D02*
X193674094Y-51512295D01*
X193674094Y-51512295D02*
X193597903Y-51550390D01*
X193597903Y-51550390D02*
X193559808Y-51588485D01*
X193559808Y-51588485D02*
X193521713Y-51664676D01*
X193521713Y-51664676D02*
X193521713Y-51702771D01*
X193521713Y-51702771D02*
X193559808Y-51778961D01*
X193559808Y-51778961D02*
X193597903Y-51817057D01*
X193597903Y-51817057D02*
X193674094Y-51855152D01*
X193674094Y-51855152D02*
X193826475Y-51855152D01*
X193826475Y-51855152D02*
X193902665Y-51893247D01*
X193902665Y-51893247D02*
X193940760Y-51931342D01*
X193940760Y-51931342D02*
X193978856Y-52007533D01*
X193978856Y-52007533D02*
X193978856Y-52159914D01*
X193978856Y-52159914D02*
X193940760Y-52236104D01*
X193940760Y-52236104D02*
X193902665Y-52274200D01*
X193902665Y-52274200D02*
X193826475Y-52312295D01*
X193826475Y-52312295D02*
X193674094Y-52312295D01*
X193674094Y-52312295D02*
X193597903Y-52274200D01*
X193597903Y-52274200D02*
X193559808Y-52236104D01*
X193559808Y-52236104D02*
X193521713Y-52159914D01*
X193521713Y-52159914D02*
X193521713Y-52007533D01*
X193521713Y-52007533D02*
X193559808Y-51931342D01*
X193559808Y-51931342D02*
X193597903Y-51893247D01*
X193597903Y-51893247D02*
X193674094Y-51855152D01*
X195045523Y-54160390D02*
X195121713Y-54122295D01*
X195121713Y-54122295D02*
X195235999Y-54122295D01*
X195235999Y-54122295D02*
X195350285Y-54160390D01*
X195350285Y-54160390D02*
X195426475Y-54236580D01*
X195426475Y-54236580D02*
X195464570Y-54312771D01*
X195464570Y-54312771D02*
X195502666Y-54465152D01*
X195502666Y-54465152D02*
X195502666Y-54579438D01*
X195502666Y-54579438D02*
X195464570Y-54731819D01*
X195464570Y-54731819D02*
X195426475Y-54808009D01*
X195426475Y-54808009D02*
X195350285Y-54884200D01*
X195350285Y-54884200D02*
X195235999Y-54922295D01*
X195235999Y-54922295D02*
X195159808Y-54922295D01*
X195159808Y-54922295D02*
X195045523Y-54884200D01*
X195045523Y-54884200D02*
X195007427Y-54846104D01*
X195007427Y-54846104D02*
X195007427Y-54579438D01*
X195007427Y-54579438D02*
X195159808Y-54579438D01*
X194664570Y-54922295D02*
X194664570Y-54122295D01*
X194664570Y-54122295D02*
X194207427Y-54922295D01*
X194207427Y-54922295D02*
X194207427Y-54122295D01*
X193826475Y-54922295D02*
X193826475Y-54122295D01*
X193826475Y-54122295D02*
X193635999Y-54122295D01*
X193635999Y-54122295D02*
X193521713Y-54160390D01*
X193521713Y-54160390D02*
X193445523Y-54236580D01*
X193445523Y-54236580D02*
X193407428Y-54312771D01*
X193407428Y-54312771D02*
X193369332Y-54465152D01*
X193369332Y-54465152D02*
X193369332Y-54579438D01*
X193369332Y-54579438D02*
X193407428Y-54731819D01*
X193407428Y-54731819D02*
X193445523Y-54808009D01*
X193445523Y-54808009D02*
X193521713Y-54884200D01*
X193521713Y-54884200D02*
X193635999Y-54922295D01*
X193635999Y-54922295D02*
X193826475Y-54922295D01*
X183971142Y-70162295D02*
X184428285Y-70162295D01*
X184199713Y-70162295D02*
X184199713Y-69362295D01*
X184199713Y-69362295D02*
X184275904Y-69476580D01*
X184275904Y-69476580D02*
X184352094Y-69552771D01*
X184352094Y-69552771D02*
X184428285Y-69590866D01*
X183209237Y-70162295D02*
X183666380Y-70162295D01*
X183437808Y-70162295D02*
X183437808Y-69362295D01*
X183437808Y-69362295D02*
X183513999Y-69476580D01*
X183513999Y-69476580D02*
X183590189Y-69552771D01*
X183590189Y-69552771D02*
X183666380Y-69590866D01*
X182942570Y-69362295D02*
X182447332Y-69362295D01*
X182447332Y-69362295D02*
X182713998Y-69667057D01*
X182713998Y-69667057D02*
X182599713Y-69667057D01*
X182599713Y-69667057D02*
X182523522Y-69705152D01*
X182523522Y-69705152D02*
X182485427Y-69743247D01*
X182485427Y-69743247D02*
X182447332Y-69819438D01*
X182447332Y-69819438D02*
X182447332Y-70009914D01*
X182447332Y-70009914D02*
X182485427Y-70086104D01*
X182485427Y-70086104D02*
X182523522Y-70124200D01*
X182523522Y-70124200D02*
X182599713Y-70162295D01*
X182599713Y-70162295D02*
X182828284Y-70162295D01*
X182828284Y-70162295D02*
X182904475Y-70124200D01*
X182904475Y-70124200D02*
X182942570Y-70086104D01*
X195312189Y-49042295D02*
X195235999Y-49042295D01*
X195235999Y-49042295D02*
X195159808Y-49080390D01*
X195159808Y-49080390D02*
X195121713Y-49118485D01*
X195121713Y-49118485D02*
X195083618Y-49194676D01*
X195083618Y-49194676D02*
X195045523Y-49347057D01*
X195045523Y-49347057D02*
X195045523Y-49537533D01*
X195045523Y-49537533D02*
X195083618Y-49689914D01*
X195083618Y-49689914D02*
X195121713Y-49766104D01*
X195121713Y-49766104D02*
X195159808Y-49804200D01*
X195159808Y-49804200D02*
X195235999Y-49842295D01*
X195235999Y-49842295D02*
X195312189Y-49842295D01*
X195312189Y-49842295D02*
X195388380Y-49804200D01*
X195388380Y-49804200D02*
X195426475Y-49766104D01*
X195426475Y-49766104D02*
X195464570Y-49689914D01*
X195464570Y-49689914D02*
X195502666Y-49537533D01*
X195502666Y-49537533D02*
X195502666Y-49347057D01*
X195502666Y-49347057D02*
X195464570Y-49194676D01*
X195464570Y-49194676D02*
X195426475Y-49118485D01*
X195426475Y-49118485D02*
X195388380Y-49080390D01*
X195388380Y-49080390D02*
X195312189Y-49042295D01*
X194550284Y-49042295D02*
X194474094Y-49042295D01*
X194474094Y-49042295D02*
X194397903Y-49080390D01*
X194397903Y-49080390D02*
X194359808Y-49118485D01*
X194359808Y-49118485D02*
X194321713Y-49194676D01*
X194321713Y-49194676D02*
X194283618Y-49347057D01*
X194283618Y-49347057D02*
X194283618Y-49537533D01*
X194283618Y-49537533D02*
X194321713Y-49689914D01*
X194321713Y-49689914D02*
X194359808Y-49766104D01*
X194359808Y-49766104D02*
X194397903Y-49804200D01*
X194397903Y-49804200D02*
X194474094Y-49842295D01*
X194474094Y-49842295D02*
X194550284Y-49842295D01*
X194550284Y-49842295D02*
X194626475Y-49804200D01*
X194626475Y-49804200D02*
X194664570Y-49766104D01*
X194664570Y-49766104D02*
X194702665Y-49689914D01*
X194702665Y-49689914D02*
X194740761Y-49537533D01*
X194740761Y-49537533D02*
X194740761Y-49347057D01*
X194740761Y-49347057D02*
X194702665Y-49194676D01*
X194702665Y-49194676D02*
X194664570Y-49118485D01*
X194664570Y-49118485D02*
X194626475Y-49080390D01*
X194626475Y-49080390D02*
X194550284Y-49042295D01*
X193597903Y-49042295D02*
X193750284Y-49042295D01*
X193750284Y-49042295D02*
X193826475Y-49080390D01*
X193826475Y-49080390D02*
X193864570Y-49118485D01*
X193864570Y-49118485D02*
X193940760Y-49232771D01*
X193940760Y-49232771D02*
X193978856Y-49385152D01*
X193978856Y-49385152D02*
X193978856Y-49689914D01*
X193978856Y-49689914D02*
X193940760Y-49766104D01*
X193940760Y-49766104D02*
X193902665Y-49804200D01*
X193902665Y-49804200D02*
X193826475Y-49842295D01*
X193826475Y-49842295D02*
X193674094Y-49842295D01*
X193674094Y-49842295D02*
X193597903Y-49804200D01*
X193597903Y-49804200D02*
X193559808Y-49766104D01*
X193559808Y-49766104D02*
X193521713Y-49689914D01*
X193521713Y-49689914D02*
X193521713Y-49499438D01*
X193521713Y-49499438D02*
X193559808Y-49423247D01*
X193559808Y-49423247D02*
X193597903Y-49385152D01*
X193597903Y-49385152D02*
X193674094Y-49347057D01*
X193674094Y-49347057D02*
X193826475Y-49347057D01*
X193826475Y-49347057D02*
X193902665Y-49385152D01*
X193902665Y-49385152D02*
X193940760Y-49423247D01*
X193940760Y-49423247D02*
X193978856Y-49499438D01*
X184237808Y-74442295D02*
X184161618Y-74442295D01*
X184161618Y-74442295D02*
X184085427Y-74480390D01*
X184085427Y-74480390D02*
X184047332Y-74518485D01*
X184047332Y-74518485D02*
X184009237Y-74594676D01*
X184009237Y-74594676D02*
X183971142Y-74747057D01*
X183971142Y-74747057D02*
X183971142Y-74937533D01*
X183971142Y-74937533D02*
X184009237Y-75089914D01*
X184009237Y-75089914D02*
X184047332Y-75166104D01*
X184047332Y-75166104D02*
X184085427Y-75204200D01*
X184085427Y-75204200D02*
X184161618Y-75242295D01*
X184161618Y-75242295D02*
X184237808Y-75242295D01*
X184237808Y-75242295D02*
X184313999Y-75204200D01*
X184313999Y-75204200D02*
X184352094Y-75166104D01*
X184352094Y-75166104D02*
X184390189Y-75089914D01*
X184390189Y-75089914D02*
X184428285Y-74937533D01*
X184428285Y-74937533D02*
X184428285Y-74747057D01*
X184428285Y-74747057D02*
X184390189Y-74594676D01*
X184390189Y-74594676D02*
X184352094Y-74518485D01*
X184352094Y-74518485D02*
X184313999Y-74480390D01*
X184313999Y-74480390D02*
X184237808Y-74442295D01*
X183209237Y-75242295D02*
X183666380Y-75242295D01*
X183437808Y-75242295D02*
X183437808Y-74442295D01*
X183437808Y-74442295D02*
X183513999Y-74556580D01*
X183513999Y-74556580D02*
X183590189Y-74632771D01*
X183590189Y-74632771D02*
X183666380Y-74670866D01*
X182713998Y-74442295D02*
X182637808Y-74442295D01*
X182637808Y-74442295D02*
X182561617Y-74480390D01*
X182561617Y-74480390D02*
X182523522Y-74518485D01*
X182523522Y-74518485D02*
X182485427Y-74594676D01*
X182485427Y-74594676D02*
X182447332Y-74747057D01*
X182447332Y-74747057D02*
X182447332Y-74937533D01*
X182447332Y-74937533D02*
X182485427Y-75089914D01*
X182485427Y-75089914D02*
X182523522Y-75166104D01*
X182523522Y-75166104D02*
X182561617Y-75204200D01*
X182561617Y-75204200D02*
X182637808Y-75242295D01*
X182637808Y-75242295D02*
X182713998Y-75242295D01*
X182713998Y-75242295D02*
X182790189Y-75204200D01*
X182790189Y-75204200D02*
X182828284Y-75166104D01*
X182828284Y-75166104D02*
X182866379Y-75089914D01*
X182866379Y-75089914D02*
X182904475Y-74937533D01*
X182904475Y-74937533D02*
X182904475Y-74747057D01*
X182904475Y-74747057D02*
X182866379Y-74594676D01*
X182866379Y-74594676D02*
X182828284Y-74518485D01*
X182828284Y-74518485D02*
X182790189Y-74480390D01*
X182790189Y-74480390D02*
X182713998Y-74442295D01*
X184237808Y-61742295D02*
X184161618Y-61742295D01*
X184161618Y-61742295D02*
X184085427Y-61780390D01*
X184085427Y-61780390D02*
X184047332Y-61818485D01*
X184047332Y-61818485D02*
X184009237Y-61894676D01*
X184009237Y-61894676D02*
X183971142Y-62047057D01*
X183971142Y-62047057D02*
X183971142Y-62237533D01*
X183971142Y-62237533D02*
X184009237Y-62389914D01*
X184009237Y-62389914D02*
X184047332Y-62466104D01*
X184047332Y-62466104D02*
X184085427Y-62504200D01*
X184085427Y-62504200D02*
X184161618Y-62542295D01*
X184161618Y-62542295D02*
X184237808Y-62542295D01*
X184237808Y-62542295D02*
X184313999Y-62504200D01*
X184313999Y-62504200D02*
X184352094Y-62466104D01*
X184352094Y-62466104D02*
X184390189Y-62389914D01*
X184390189Y-62389914D02*
X184428285Y-62237533D01*
X184428285Y-62237533D02*
X184428285Y-62047057D01*
X184428285Y-62047057D02*
X184390189Y-61894676D01*
X184390189Y-61894676D02*
X184352094Y-61818485D01*
X184352094Y-61818485D02*
X184313999Y-61780390D01*
X184313999Y-61780390D02*
X184237808Y-61742295D01*
X183666380Y-61818485D02*
X183628284Y-61780390D01*
X183628284Y-61780390D02*
X183552094Y-61742295D01*
X183552094Y-61742295D02*
X183361618Y-61742295D01*
X183361618Y-61742295D02*
X183285427Y-61780390D01*
X183285427Y-61780390D02*
X183247332Y-61818485D01*
X183247332Y-61818485D02*
X183209237Y-61894676D01*
X183209237Y-61894676D02*
X183209237Y-61970866D01*
X183209237Y-61970866D02*
X183247332Y-62085152D01*
X183247332Y-62085152D02*
X183704475Y-62542295D01*
X183704475Y-62542295D02*
X183209237Y-62542295D01*
X182828284Y-62542295D02*
X182675903Y-62542295D01*
X182675903Y-62542295D02*
X182599713Y-62504200D01*
X182599713Y-62504200D02*
X182561617Y-62466104D01*
X182561617Y-62466104D02*
X182485427Y-62351819D01*
X182485427Y-62351819D02*
X182447332Y-62199438D01*
X182447332Y-62199438D02*
X182447332Y-61894676D01*
X182447332Y-61894676D02*
X182485427Y-61818485D01*
X182485427Y-61818485D02*
X182523522Y-61780390D01*
X182523522Y-61780390D02*
X182599713Y-61742295D01*
X182599713Y-61742295D02*
X182752094Y-61742295D01*
X182752094Y-61742295D02*
X182828284Y-61780390D01*
X182828284Y-61780390D02*
X182866379Y-61818485D01*
X182866379Y-61818485D02*
X182904475Y-61894676D01*
X182904475Y-61894676D02*
X182904475Y-62085152D01*
X182904475Y-62085152D02*
X182866379Y-62161342D01*
X182866379Y-62161342D02*
X182828284Y-62199438D01*
X182828284Y-62199438D02*
X182752094Y-62237533D01*
X182752094Y-62237533D02*
X182599713Y-62237533D01*
X182599713Y-62237533D02*
X182523522Y-62199438D01*
X182523522Y-62199438D02*
X182485427Y-62161342D01*
X182485427Y-62161342D02*
X182447332Y-62085152D01*
X184053665Y-49842295D02*
X184320332Y-49461342D01*
X184510808Y-49842295D02*
X184510808Y-49042295D01*
X184510808Y-49042295D02*
X184206046Y-49042295D01*
X184206046Y-49042295D02*
X184129856Y-49080390D01*
X184129856Y-49080390D02*
X184091761Y-49118485D01*
X184091761Y-49118485D02*
X184053665Y-49194676D01*
X184053665Y-49194676D02*
X184053665Y-49308961D01*
X184053665Y-49308961D02*
X184091761Y-49385152D01*
X184091761Y-49385152D02*
X184129856Y-49423247D01*
X184129856Y-49423247D02*
X184206046Y-49461342D01*
X184206046Y-49461342D02*
X184510808Y-49461342D01*
X183748904Y-49613723D02*
X183367951Y-49613723D01*
X183825094Y-49842295D02*
X183558427Y-49042295D01*
X183558427Y-49042295D02*
X183291761Y-49842295D01*
X183101285Y-49042295D02*
X182910809Y-49842295D01*
X182910809Y-49842295D02*
X182758428Y-49270866D01*
X182758428Y-49270866D02*
X182606047Y-49842295D01*
X182606047Y-49842295D02*
X182415571Y-49042295D01*
X184129856Y-51620390D02*
X184206046Y-51582295D01*
X184206046Y-51582295D02*
X184320332Y-51582295D01*
X184320332Y-51582295D02*
X184434618Y-51620390D01*
X184434618Y-51620390D02*
X184510808Y-51696580D01*
X184510808Y-51696580D02*
X184548903Y-51772771D01*
X184548903Y-51772771D02*
X184586999Y-51925152D01*
X184586999Y-51925152D02*
X184586999Y-52039438D01*
X184586999Y-52039438D02*
X184548903Y-52191819D01*
X184548903Y-52191819D02*
X184510808Y-52268009D01*
X184510808Y-52268009D02*
X184434618Y-52344200D01*
X184434618Y-52344200D02*
X184320332Y-52382295D01*
X184320332Y-52382295D02*
X184244141Y-52382295D01*
X184244141Y-52382295D02*
X184129856Y-52344200D01*
X184129856Y-52344200D02*
X184091760Y-52306104D01*
X184091760Y-52306104D02*
X184091760Y-52039438D01*
X184091760Y-52039438D02*
X184244141Y-52039438D01*
X183748903Y-52382295D02*
X183748903Y-51582295D01*
X183748903Y-51582295D02*
X183291760Y-52382295D01*
X183291760Y-52382295D02*
X183291760Y-51582295D01*
X182910808Y-52382295D02*
X182910808Y-51582295D01*
X182910808Y-51582295D02*
X182720332Y-51582295D01*
X182720332Y-51582295D02*
X182606046Y-51620390D01*
X182606046Y-51620390D02*
X182529856Y-51696580D01*
X182529856Y-51696580D02*
X182491761Y-51772771D01*
X182491761Y-51772771D02*
X182453665Y-51925152D01*
X182453665Y-51925152D02*
X182453665Y-52039438D01*
X182453665Y-52039438D02*
X182491761Y-52191819D01*
X182491761Y-52191819D02*
X182529856Y-52268009D01*
X182529856Y-52268009D02*
X182606046Y-52344200D01*
X182606046Y-52344200D02*
X182720332Y-52382295D01*
X182720332Y-52382295D02*
X182910808Y-52382295D01*
X184237808Y-59202295D02*
X184161618Y-59202295D01*
X184161618Y-59202295D02*
X184085427Y-59240390D01*
X184085427Y-59240390D02*
X184047332Y-59278485D01*
X184047332Y-59278485D02*
X184009237Y-59354676D01*
X184009237Y-59354676D02*
X183971142Y-59507057D01*
X183971142Y-59507057D02*
X183971142Y-59697533D01*
X183971142Y-59697533D02*
X184009237Y-59849914D01*
X184009237Y-59849914D02*
X184047332Y-59926104D01*
X184047332Y-59926104D02*
X184085427Y-59964200D01*
X184085427Y-59964200D02*
X184161618Y-60002295D01*
X184161618Y-60002295D02*
X184237808Y-60002295D01*
X184237808Y-60002295D02*
X184313999Y-59964200D01*
X184313999Y-59964200D02*
X184352094Y-59926104D01*
X184352094Y-59926104D02*
X184390189Y-59849914D01*
X184390189Y-59849914D02*
X184428285Y-59697533D01*
X184428285Y-59697533D02*
X184428285Y-59507057D01*
X184428285Y-59507057D02*
X184390189Y-59354676D01*
X184390189Y-59354676D02*
X184352094Y-59278485D01*
X184352094Y-59278485D02*
X184313999Y-59240390D01*
X184313999Y-59240390D02*
X184237808Y-59202295D01*
X183704475Y-59202295D02*
X183209237Y-59202295D01*
X183209237Y-59202295D02*
X183475903Y-59507057D01*
X183475903Y-59507057D02*
X183361618Y-59507057D01*
X183361618Y-59507057D02*
X183285427Y-59545152D01*
X183285427Y-59545152D02*
X183247332Y-59583247D01*
X183247332Y-59583247D02*
X183209237Y-59659438D01*
X183209237Y-59659438D02*
X183209237Y-59849914D01*
X183209237Y-59849914D02*
X183247332Y-59926104D01*
X183247332Y-59926104D02*
X183285427Y-59964200D01*
X183285427Y-59964200D02*
X183361618Y-60002295D01*
X183361618Y-60002295D02*
X183590189Y-60002295D01*
X183590189Y-60002295D02*
X183666380Y-59964200D01*
X183666380Y-59964200D02*
X183704475Y-59926104D01*
X182447332Y-60002295D02*
X182904475Y-60002295D01*
X182675903Y-60002295D02*
X182675903Y-59202295D01*
X182675903Y-59202295D02*
X182752094Y-59316580D01*
X182752094Y-59316580D02*
X182828284Y-59392771D01*
X182828284Y-59392771D02*
X182904475Y-59430866D01*
X184504475Y-56662295D02*
X184237808Y-57462295D01*
X184237808Y-57462295D02*
X183971142Y-56662295D01*
X183247332Y-57386104D02*
X183285428Y-57424200D01*
X183285428Y-57424200D02*
X183399713Y-57462295D01*
X183399713Y-57462295D02*
X183475904Y-57462295D01*
X183475904Y-57462295D02*
X183590190Y-57424200D01*
X183590190Y-57424200D02*
X183666380Y-57348009D01*
X183666380Y-57348009D02*
X183704475Y-57271819D01*
X183704475Y-57271819D02*
X183742571Y-57119438D01*
X183742571Y-57119438D02*
X183742571Y-57005152D01*
X183742571Y-57005152D02*
X183704475Y-56852771D01*
X183704475Y-56852771D02*
X183666380Y-56776580D01*
X183666380Y-56776580D02*
X183590190Y-56700390D01*
X183590190Y-56700390D02*
X183475904Y-56662295D01*
X183475904Y-56662295D02*
X183399713Y-56662295D01*
X183399713Y-56662295D02*
X183285428Y-56700390D01*
X183285428Y-56700390D02*
X183247332Y-56738485D01*
X182447332Y-57386104D02*
X182485428Y-57424200D01*
X182485428Y-57424200D02*
X182599713Y-57462295D01*
X182599713Y-57462295D02*
X182675904Y-57462295D01*
X182675904Y-57462295D02*
X182790190Y-57424200D01*
X182790190Y-57424200D02*
X182866380Y-57348009D01*
X182866380Y-57348009D02*
X182904475Y-57271819D01*
X182904475Y-57271819D02*
X182942571Y-57119438D01*
X182942571Y-57119438D02*
X182942571Y-57005152D01*
X182942571Y-57005152D02*
X182904475Y-56852771D01*
X182904475Y-56852771D02*
X182866380Y-56776580D01*
X182866380Y-56776580D02*
X182790190Y-56700390D01*
X182790190Y-56700390D02*
X182675904Y-56662295D01*
X182675904Y-56662295D02*
X182599713Y-56662295D01*
X182599713Y-56662295D02*
X182485428Y-56700390D01*
X182485428Y-56700390D02*
X182447332Y-56738485D01*
X184219200Y-77253571D02*
X184257295Y-77367857D01*
X184257295Y-77367857D02*
X184257295Y-77558333D01*
X184257295Y-77558333D02*
X184219200Y-77634524D01*
X184219200Y-77634524D02*
X184181104Y-77672619D01*
X184181104Y-77672619D02*
X184104914Y-77710714D01*
X184104914Y-77710714D02*
X184028723Y-77710714D01*
X184028723Y-77710714D02*
X183952533Y-77672619D01*
X183952533Y-77672619D02*
X183914438Y-77634524D01*
X183914438Y-77634524D02*
X183876342Y-77558333D01*
X183876342Y-77558333D02*
X183838247Y-77405952D01*
X183838247Y-77405952D02*
X183800152Y-77329762D01*
X183800152Y-77329762D02*
X183762057Y-77291667D01*
X183762057Y-77291667D02*
X183685866Y-77253571D01*
X183685866Y-77253571D02*
X183609676Y-77253571D01*
X183609676Y-77253571D02*
X183533485Y-77291667D01*
X183533485Y-77291667D02*
X183495390Y-77329762D01*
X183495390Y-77329762D02*
X183457295Y-77405952D01*
X183457295Y-77405952D02*
X183457295Y-77596429D01*
X183457295Y-77596429D02*
X183495390Y-77710714D01*
X184257295Y-78053572D02*
X183457295Y-78053572D01*
X183457295Y-78053572D02*
X183457295Y-78244048D01*
X183457295Y-78244048D02*
X183495390Y-78358334D01*
X183495390Y-78358334D02*
X183571580Y-78434524D01*
X183571580Y-78434524D02*
X183647771Y-78472619D01*
X183647771Y-78472619D02*
X183800152Y-78510715D01*
X183800152Y-78510715D02*
X183914438Y-78510715D01*
X183914438Y-78510715D02*
X184066819Y-78472619D01*
X184066819Y-78472619D02*
X184143009Y-78434524D01*
X184143009Y-78434524D02*
X184219200Y-78358334D01*
X184219200Y-78358334D02*
X184257295Y-78244048D01*
X184257295Y-78244048D02*
X184257295Y-78053572D01*
X184028723Y-78815476D02*
X184028723Y-79196429D01*
X184257295Y-78739286D02*
X183457295Y-79005953D01*
X183457295Y-79005953D02*
X184257295Y-79272619D01*
X188537295Y-77158333D02*
X189337295Y-77425000D01*
X189337295Y-77425000D02*
X188537295Y-77691666D01*
X189261104Y-78415476D02*
X189299200Y-78377380D01*
X189299200Y-78377380D02*
X189337295Y-78263095D01*
X189337295Y-78263095D02*
X189337295Y-78186904D01*
X189337295Y-78186904D02*
X189299200Y-78072618D01*
X189299200Y-78072618D02*
X189223009Y-77996428D01*
X189223009Y-77996428D02*
X189146819Y-77958333D01*
X189146819Y-77958333D02*
X188994438Y-77920237D01*
X188994438Y-77920237D02*
X188880152Y-77920237D01*
X188880152Y-77920237D02*
X188727771Y-77958333D01*
X188727771Y-77958333D02*
X188651580Y-77996428D01*
X188651580Y-77996428D02*
X188575390Y-78072618D01*
X188575390Y-78072618D02*
X188537295Y-78186904D01*
X188537295Y-78186904D02*
X188537295Y-78263095D01*
X188537295Y-78263095D02*
X188575390Y-78377380D01*
X188575390Y-78377380D02*
X188613485Y-78415476D01*
X189261104Y-79215476D02*
X189299200Y-79177380D01*
X189299200Y-79177380D02*
X189337295Y-79063095D01*
X189337295Y-79063095D02*
X189337295Y-78986904D01*
X189337295Y-78986904D02*
X189299200Y-78872618D01*
X189299200Y-78872618D02*
X189223009Y-78796428D01*
X189223009Y-78796428D02*
X189146819Y-78758333D01*
X189146819Y-78758333D02*
X188994438Y-78720237D01*
X188994438Y-78720237D02*
X188880152Y-78720237D01*
X188880152Y-78720237D02*
X188727771Y-78758333D01*
X188727771Y-78758333D02*
X188651580Y-78796428D01*
X188651580Y-78796428D02*
X188575390Y-78872618D01*
X188575390Y-78872618D02*
X188537295Y-78986904D01*
X188537295Y-78986904D02*
X188537295Y-79063095D01*
X188537295Y-79063095D02*
X188575390Y-79177380D01*
X188575390Y-79177380D02*
X188613485Y-79215476D01*
X194341104Y-78091667D02*
X194379200Y-78053571D01*
X194379200Y-78053571D02*
X194417295Y-77939286D01*
X194417295Y-77939286D02*
X194417295Y-77863095D01*
X194417295Y-77863095D02*
X194379200Y-77748809D01*
X194379200Y-77748809D02*
X194303009Y-77672619D01*
X194303009Y-77672619D02*
X194226819Y-77634524D01*
X194226819Y-77634524D02*
X194074438Y-77596428D01*
X194074438Y-77596428D02*
X193960152Y-77596428D01*
X193960152Y-77596428D02*
X193807771Y-77634524D01*
X193807771Y-77634524D02*
X193731580Y-77672619D01*
X193731580Y-77672619D02*
X193655390Y-77748809D01*
X193655390Y-77748809D02*
X193617295Y-77863095D01*
X193617295Y-77863095D02*
X193617295Y-77939286D01*
X193617295Y-77939286D02*
X193655390Y-78053571D01*
X193655390Y-78053571D02*
X193693485Y-78091667D01*
X194379200Y-78396428D02*
X194417295Y-78510714D01*
X194417295Y-78510714D02*
X194417295Y-78701190D01*
X194417295Y-78701190D02*
X194379200Y-78777381D01*
X194379200Y-78777381D02*
X194341104Y-78815476D01*
X194341104Y-78815476D02*
X194264914Y-78853571D01*
X194264914Y-78853571D02*
X194188723Y-78853571D01*
X194188723Y-78853571D02*
X194112533Y-78815476D01*
X194112533Y-78815476D02*
X194074438Y-78777381D01*
X194074438Y-78777381D02*
X194036342Y-78701190D01*
X194036342Y-78701190D02*
X193998247Y-78548809D01*
X193998247Y-78548809D02*
X193960152Y-78472619D01*
X193960152Y-78472619D02*
X193922057Y-78434524D01*
X193922057Y-78434524D02*
X193845866Y-78396428D01*
X193845866Y-78396428D02*
X193769676Y-78396428D01*
X193769676Y-78396428D02*
X193693485Y-78434524D01*
X193693485Y-78434524D02*
X193655390Y-78472619D01*
X193655390Y-78472619D02*
X193617295Y-78548809D01*
X193617295Y-78548809D02*
X193617295Y-78739286D01*
X193617295Y-78739286D02*
X193655390Y-78853571D01*
X186759200Y-77272618D02*
X186797295Y-77386904D01*
X186797295Y-77386904D02*
X186797295Y-77577380D01*
X186797295Y-77577380D02*
X186759200Y-77653571D01*
X186759200Y-77653571D02*
X186721104Y-77691666D01*
X186721104Y-77691666D02*
X186644914Y-77729761D01*
X186644914Y-77729761D02*
X186568723Y-77729761D01*
X186568723Y-77729761D02*
X186492533Y-77691666D01*
X186492533Y-77691666D02*
X186454438Y-77653571D01*
X186454438Y-77653571D02*
X186416342Y-77577380D01*
X186416342Y-77577380D02*
X186378247Y-77424999D01*
X186378247Y-77424999D02*
X186340152Y-77348809D01*
X186340152Y-77348809D02*
X186302057Y-77310714D01*
X186302057Y-77310714D02*
X186225866Y-77272618D01*
X186225866Y-77272618D02*
X186149676Y-77272618D01*
X186149676Y-77272618D02*
X186073485Y-77310714D01*
X186073485Y-77310714D02*
X186035390Y-77348809D01*
X186035390Y-77348809D02*
X185997295Y-77424999D01*
X185997295Y-77424999D02*
X185997295Y-77615476D01*
X185997295Y-77615476D02*
X186035390Y-77729761D01*
X186721104Y-78529762D02*
X186759200Y-78491666D01*
X186759200Y-78491666D02*
X186797295Y-78377381D01*
X186797295Y-78377381D02*
X186797295Y-78301190D01*
X186797295Y-78301190D02*
X186759200Y-78186904D01*
X186759200Y-78186904D02*
X186683009Y-78110714D01*
X186683009Y-78110714D02*
X186606819Y-78072619D01*
X186606819Y-78072619D02*
X186454438Y-78034523D01*
X186454438Y-78034523D02*
X186340152Y-78034523D01*
X186340152Y-78034523D02*
X186187771Y-78072619D01*
X186187771Y-78072619D02*
X186111580Y-78110714D01*
X186111580Y-78110714D02*
X186035390Y-78186904D01*
X186035390Y-78186904D02*
X185997295Y-78301190D01*
X185997295Y-78301190D02*
X185997295Y-78377381D01*
X185997295Y-78377381D02*
X186035390Y-78491666D01*
X186035390Y-78491666D02*
X186073485Y-78529762D01*
X186797295Y-79253571D02*
X186797295Y-78872619D01*
X186797295Y-78872619D02*
X185997295Y-78872619D01*
X191115390Y-77615476D02*
X191077295Y-77539286D01*
X191077295Y-77539286D02*
X191077295Y-77425000D01*
X191077295Y-77425000D02*
X191115390Y-77310714D01*
X191115390Y-77310714D02*
X191191580Y-77234524D01*
X191191580Y-77234524D02*
X191267771Y-77196429D01*
X191267771Y-77196429D02*
X191420152Y-77158333D01*
X191420152Y-77158333D02*
X191534438Y-77158333D01*
X191534438Y-77158333D02*
X191686819Y-77196429D01*
X191686819Y-77196429D02*
X191763009Y-77234524D01*
X191763009Y-77234524D02*
X191839200Y-77310714D01*
X191839200Y-77310714D02*
X191877295Y-77425000D01*
X191877295Y-77425000D02*
X191877295Y-77501191D01*
X191877295Y-77501191D02*
X191839200Y-77615476D01*
X191839200Y-77615476D02*
X191801104Y-77653572D01*
X191801104Y-77653572D02*
X191534438Y-77653572D01*
X191534438Y-77653572D02*
X191534438Y-77501191D01*
X191877295Y-77996429D02*
X191077295Y-77996429D01*
X191077295Y-77996429D02*
X191877295Y-78453572D01*
X191877295Y-78453572D02*
X191077295Y-78453572D01*
X191877295Y-78834524D02*
X191077295Y-78834524D01*
X191077295Y-78834524D02*
X191077295Y-79025000D01*
X191077295Y-79025000D02*
X191115390Y-79139286D01*
X191115390Y-79139286D02*
X191191580Y-79215476D01*
X191191580Y-79215476D02*
X191267771Y-79253571D01*
X191267771Y-79253571D02*
X191420152Y-79291667D01*
X191420152Y-79291667D02*
X191534438Y-79291667D01*
X191534438Y-79291667D02*
X191686819Y-79253571D01*
X191686819Y-79253571D02*
X191763009Y-79215476D01*
X191763009Y-79215476D02*
X191839200Y-79139286D01*
X191839200Y-79139286D02*
X191877295Y-79025000D01*
X191877295Y-79025000D02*
X191877295Y-78834524D01*
D11*
%TO.C,LED4*%
X303275000Y-110075000D02*
X302775000Y-110575000D01*
X302775000Y-109575000D01*
X303275000Y-110075000D01*
G36*
X303275000Y-110075000D02*
G01*
X302775000Y-110575000D01*
X302775000Y-109575000D01*
X303275000Y-110075000D01*
G37*
%TO.C,LED8*%
X285275000Y-93075000D02*
X284775000Y-93575000D01*
X284775000Y-92575000D01*
X285275000Y-93075000D01*
G36*
X285275000Y-93075000D02*
G01*
X284775000Y-93575000D01*
X284775000Y-92575000D01*
X285275000Y-93075000D01*
G37*
D12*
%TO.C,MCU1*%
X180085000Y-45670000D02*
X180085000Y-78690000D01*
X180085000Y-78690000D02*
X197865000Y-78690000D01*
X197865000Y-45670000D02*
X180085000Y-45670000D01*
X197865000Y-78690000D02*
X197865000Y-45670000D01*
D11*
%TO.C,LED17*%
X231275000Y-93075000D02*
X230775000Y-93575000D01*
X230775000Y-92575000D01*
X231275000Y-93075000D01*
G36*
X231275000Y-93075000D02*
G01*
X230775000Y-93575000D01*
X230775000Y-92575000D01*
X231275000Y-93075000D01*
G37*
%TO.C,D6*%
X298025000Y-79950000D02*
X298425000Y-79950000D01*
X298425000Y-79950000D02*
X298425000Y-79400000D01*
X298425000Y-79950000D02*
X298425000Y-80500000D01*
X298425000Y-79950000D02*
X299025000Y-79550000D01*
X299025000Y-79550000D02*
X299025000Y-80350000D01*
X299025000Y-79950000D02*
X299525000Y-79950000D01*
X299025000Y-80350000D02*
X298425000Y-79950000D01*
%TO.C,LED6*%
X303275000Y-76075000D02*
X302775000Y-76575000D01*
X302775000Y-75575000D01*
X303275000Y-76075000D01*
G36*
X303275000Y-76075000D02*
G01*
X302775000Y-76575000D01*
X302775000Y-75575000D01*
X303275000Y-76075000D01*
G37*
%TO.C,LED10*%
X285275000Y-59075000D02*
X284775000Y-59575000D01*
X284775000Y-58575000D01*
X285275000Y-59075000D01*
G36*
X285275000Y-59075000D02*
G01*
X284775000Y-59575000D01*
X284775000Y-58575000D01*
X285275000Y-59075000D01*
G37*
%TO.C,LED5*%
X303275000Y-93075000D02*
X302775000Y-93575000D01*
X302775000Y-92575000D01*
X303275000Y-93075000D01*
G36*
X303275000Y-93075000D02*
G01*
X302775000Y-93575000D01*
X302775000Y-92575000D01*
X303275000Y-93075000D01*
G37*
%TO.C,D11*%
X262025000Y-96950000D02*
X262425000Y-96950000D01*
X262425000Y-96950000D02*
X262425000Y-96400000D01*
X262425000Y-96950000D02*
X262425000Y-97500000D01*
X262425000Y-96950000D02*
X263025000Y-96550000D01*
X263025000Y-96550000D02*
X263025000Y-97350000D01*
X263025000Y-96950000D02*
X263525000Y-96950000D01*
X263025000Y-97350000D02*
X262425000Y-96950000D01*
%TO.C,LED15*%
X249275000Y-76075000D02*
X248775000Y-76575000D01*
X248775000Y-75575000D01*
X249275000Y-76075000D01*
G36*
X249275000Y-76075000D02*
G01*
X248775000Y-76575000D01*
X248775000Y-75575000D01*
X249275000Y-76075000D01*
G37*
%TO.C,D7*%
X298025000Y-62950000D02*
X298425000Y-62950000D01*
X298425000Y-62950000D02*
X298425000Y-62400000D01*
X298425000Y-62950000D02*
X298425000Y-63500000D01*
X298425000Y-62950000D02*
X299025000Y-62550000D01*
X299025000Y-62550000D02*
X299025000Y-63350000D01*
X299025000Y-62950000D02*
X299525000Y-62950000D01*
X299025000Y-63350000D02*
X298425000Y-62950000D01*
%TO.C,D12*%
X262025000Y-79950000D02*
X262425000Y-79950000D01*
X262425000Y-79950000D02*
X262425000Y-79400000D01*
X262425000Y-79950000D02*
X262425000Y-80500000D01*
X262425000Y-79950000D02*
X263025000Y-79550000D01*
X263025000Y-79550000D02*
X263025000Y-80350000D01*
X263025000Y-79950000D02*
X263525000Y-79950000D01*
X263025000Y-80350000D02*
X262425000Y-79950000D01*
%TO.C,LED14*%
X249275000Y-93075000D02*
X248775000Y-93575000D01*
X248775000Y-92575000D01*
X249275000Y-93075000D01*
G36*
X249275000Y-93075000D02*
G01*
X248775000Y-93575000D01*
X248775000Y-92575000D01*
X249275000Y-93075000D01*
G37*
%TO.C,D8*%
X280025000Y-96950000D02*
X280425000Y-96950000D01*
X280425000Y-96950000D02*
X280425000Y-96400000D01*
X280425000Y-96950000D02*
X280425000Y-97500000D01*
X280425000Y-96950000D02*
X281025000Y-96550000D01*
X281025000Y-96550000D02*
X281025000Y-97350000D01*
X281025000Y-96950000D02*
X281525000Y-96950000D01*
X281025000Y-97350000D02*
X280425000Y-96950000D01*
%TO.C,D13*%
X262025000Y-62950000D02*
X262425000Y-62950000D01*
X262425000Y-62950000D02*
X262425000Y-62400000D01*
X262425000Y-62950000D02*
X262425000Y-63500000D01*
X262425000Y-62950000D02*
X263025000Y-62550000D01*
X263025000Y-62550000D02*
X263025000Y-63350000D01*
X263025000Y-62950000D02*
X263525000Y-62950000D01*
X263025000Y-63350000D02*
X262425000Y-62950000D01*
%TO.C,D19*%
X226025000Y-62950000D02*
X226425000Y-62950000D01*
X226425000Y-62950000D02*
X226425000Y-62400000D01*
X226425000Y-62950000D02*
X226425000Y-63500000D01*
X226425000Y-62950000D02*
X227025000Y-62550000D01*
X227025000Y-62550000D02*
X227025000Y-63350000D01*
X227025000Y-62950000D02*
X227525000Y-62950000D01*
X227025000Y-63350000D02*
X226425000Y-62950000D01*
%TO.C,LED18*%
X231275000Y-76075000D02*
X230775000Y-76575000D01*
X230775000Y-75575000D01*
X231275000Y-76075000D01*
G36*
X231275000Y-76075000D02*
G01*
X230775000Y-76575000D01*
X230775000Y-75575000D01*
X231275000Y-76075000D01*
G37*
%TO.C,D17*%
X226025000Y-96950000D02*
X226425000Y-96950000D01*
X226425000Y-96950000D02*
X226425000Y-96400000D01*
X226425000Y-96950000D02*
X226425000Y-97500000D01*
X226425000Y-96950000D02*
X227025000Y-96550000D01*
X227025000Y-96550000D02*
X227025000Y-97350000D01*
X227025000Y-96950000D02*
X227525000Y-96950000D01*
X227025000Y-97350000D02*
X226425000Y-96950000D01*
%TO.C,LED21*%
X213275000Y-76075000D02*
X212775000Y-76575000D01*
X212775000Y-75575000D01*
X213275000Y-76075000D01*
G36*
X213275000Y-76075000D02*
G01*
X212775000Y-76575000D01*
X212775000Y-75575000D01*
X213275000Y-76075000D01*
G37*
%TO.C,D5*%
X298025000Y-96950000D02*
X298425000Y-96950000D01*
X298425000Y-96950000D02*
X298425000Y-96400000D01*
X298425000Y-96950000D02*
X298425000Y-97500000D01*
X298425000Y-96950000D02*
X299025000Y-96550000D01*
X299025000Y-96550000D02*
X299025000Y-97350000D01*
X299025000Y-96950000D02*
X299525000Y-96950000D01*
X299025000Y-97350000D02*
X298425000Y-96950000D01*
%TO.C,D20*%
X208025000Y-96950000D02*
X208425000Y-96950000D01*
X208425000Y-96950000D02*
X208425000Y-96400000D01*
X208425000Y-96950000D02*
X208425000Y-97500000D01*
X208425000Y-96950000D02*
X209025000Y-96550000D01*
X209025000Y-96550000D02*
X209025000Y-97350000D01*
X209025000Y-96950000D02*
X209525000Y-96950000D01*
X209025000Y-97350000D02*
X208425000Y-96950000D01*
%TO.C,LED19*%
X231275000Y-59075000D02*
X230775000Y-59575000D01*
X230775000Y-58575000D01*
X231275000Y-59075000D01*
G36*
X231275000Y-59075000D02*
G01*
X230775000Y-59575000D01*
X230775000Y-58575000D01*
X231275000Y-59075000D01*
G37*
%TO.C,D10*%
X280025000Y-62950000D02*
X280425000Y-62950000D01*
X280425000Y-62950000D02*
X280425000Y-62400000D01*
X280425000Y-62950000D02*
X280425000Y-63500000D01*
X280425000Y-62950000D02*
X281025000Y-62550000D01*
X281025000Y-62550000D02*
X281025000Y-63350000D01*
X281025000Y-62950000D02*
X281525000Y-62950000D01*
X281025000Y-63350000D02*
X280425000Y-62950000D01*
%TO.C,D25*%
X199291993Y-138369058D02*
X199667870Y-138232250D01*
X199667870Y-138232250D02*
X199479759Y-137715419D01*
X199667870Y-138232250D02*
X199855981Y-138749081D01*
X199667870Y-138232250D02*
X200094877Y-137651161D01*
X200094877Y-137651161D02*
X200368493Y-138402915D01*
X200231685Y-138027038D02*
X200701531Y-137856028D01*
X200368493Y-138402915D02*
X199667870Y-138232250D01*
%TO.C,LED9*%
X285275000Y-76075000D02*
X284775000Y-76575000D01*
X284775000Y-75575000D01*
X285275000Y-76075000D01*
G36*
X285275000Y-76075000D02*
G01*
X284775000Y-76575000D01*
X284775000Y-75575000D01*
X285275000Y-76075000D01*
G37*
%TO.C,LED22*%
X213275000Y-59075000D02*
X212775000Y-59575000D01*
X212775000Y-58575000D01*
X213275000Y-59075000D01*
G36*
X213275000Y-59075000D02*
G01*
X212775000Y-59575000D01*
X212775000Y-58575000D01*
X213275000Y-59075000D01*
G37*
%TO.C,D4*%
X298025000Y-113950000D02*
X298425000Y-113950000D01*
X298425000Y-113950000D02*
X298425000Y-113400000D01*
X298425000Y-113950000D02*
X298425000Y-114500000D01*
X298425000Y-113950000D02*
X299025000Y-113550000D01*
X299025000Y-113550000D02*
X299025000Y-114350000D01*
X299025000Y-113950000D02*
X299525000Y-113950000D01*
X299025000Y-114350000D02*
X298425000Y-113950000D01*
%TO.C,D15*%
X244025000Y-79950000D02*
X244425000Y-79950000D01*
X244425000Y-79950000D02*
X244425000Y-79400000D01*
X244425000Y-79950000D02*
X244425000Y-80500000D01*
X244425000Y-79950000D02*
X245025000Y-79550000D01*
X245025000Y-79550000D02*
X245025000Y-80350000D01*
X245025000Y-79950000D02*
X245525000Y-79950000D01*
X245025000Y-80350000D02*
X244425000Y-79950000D01*
%TO.C,D18*%
X226025000Y-79950000D02*
X226425000Y-79950000D01*
X226425000Y-79950000D02*
X226425000Y-79400000D01*
X226425000Y-79950000D02*
X226425000Y-80500000D01*
X226425000Y-79950000D02*
X227025000Y-79550000D01*
X227025000Y-79550000D02*
X227025000Y-80350000D01*
X227025000Y-79950000D02*
X227525000Y-79950000D01*
X227025000Y-80350000D02*
X226425000Y-79950000D01*
%TO.C,D21*%
X208025000Y-79950000D02*
X208425000Y-79950000D01*
X208425000Y-79950000D02*
X208425000Y-79400000D01*
X208425000Y-79950000D02*
X208425000Y-80500000D01*
X208425000Y-79950000D02*
X209025000Y-79550000D01*
X209025000Y-79550000D02*
X209025000Y-80350000D01*
X209025000Y-79950000D02*
X209525000Y-79950000D01*
X209025000Y-80350000D02*
X208425000Y-79950000D01*
%TO.C,D23*%
X201934884Y-119316102D02*
X202310761Y-119179294D01*
X202310761Y-119179294D02*
X202122650Y-118662463D01*
X202310761Y-119179294D02*
X202498872Y-119696125D01*
X202310761Y-119179294D02*
X202737768Y-118598205D01*
X202737768Y-118598205D02*
X203011384Y-119349959D01*
X202874576Y-118974082D02*
X203344422Y-118803072D01*
X203011384Y-119349959D02*
X202310761Y-119179294D01*
%TO.C,LED13*%
X267275000Y-59075000D02*
X266775000Y-59575000D01*
X266775000Y-58575000D01*
X267275000Y-59075000D01*
G36*
X267275000Y-59075000D02*
G01*
X266775000Y-59575000D01*
X266775000Y-58575000D01*
X267275000Y-59075000D01*
G37*
%TO.C,D14*%
X244025000Y-96950000D02*
X244425000Y-96950000D01*
X244425000Y-96950000D02*
X244425000Y-96400000D01*
X244425000Y-96950000D02*
X244425000Y-97500000D01*
X244425000Y-96950000D02*
X245025000Y-96550000D01*
X245025000Y-96550000D02*
X245025000Y-97350000D01*
X245025000Y-96950000D02*
X245525000Y-96950000D01*
X245025000Y-97350000D02*
X244425000Y-96950000D01*
%TO.C,D16*%
X244025000Y-62950000D02*
X244425000Y-62950000D01*
X244425000Y-62950000D02*
X244425000Y-62400000D01*
X244425000Y-62950000D02*
X244425000Y-63500000D01*
X244425000Y-62950000D02*
X245025000Y-62550000D01*
X245025000Y-62550000D02*
X245025000Y-63350000D01*
X245025000Y-62950000D02*
X245525000Y-62950000D01*
X245025000Y-63350000D02*
X244425000Y-62950000D01*
%TO.C,LED11*%
X267275000Y-93075000D02*
X266775000Y-93575000D01*
X266775000Y-92575000D01*
X267275000Y-93075000D01*
G36*
X267275000Y-93075000D02*
G01*
X266775000Y-93575000D01*
X266775000Y-92575000D01*
X267275000Y-93075000D01*
G37*
%TO.C,LED24*%
X188628475Y-120035550D02*
X188329639Y-120676407D01*
X187987619Y-119736714D01*
X188628475Y-120035550D01*
G36*
X188628475Y-120035550D02*
G01*
X188329639Y-120676407D01*
X187987619Y-119736714D01*
X188628475Y-120035550D01*
G37*
%TO.C,LED23*%
X205542942Y-113879188D02*
X205244106Y-114520045D01*
X204902086Y-113580352D01*
X205542942Y-113879188D01*
G36*
X205542942Y-113879188D02*
G01*
X205244106Y-114520045D01*
X204902086Y-113580352D01*
X205542942Y-113879188D01*
G37*
%TO.C,LED12*%
X267275000Y-76075000D02*
X266775000Y-76575000D01*
X266775000Y-75575000D01*
X267275000Y-76075000D01*
G36*
X267275000Y-76075000D02*
G01*
X266775000Y-76575000D01*
X266775000Y-75575000D01*
X267275000Y-76075000D01*
G37*
%TO.C,LED20*%
X213275000Y-93075000D02*
X212775000Y-93575000D01*
X212775000Y-92575000D01*
X213275000Y-93075000D01*
G36*
X213275000Y-93075000D02*
G01*
X212775000Y-93575000D01*
X212775000Y-92575000D01*
X213275000Y-93075000D01*
G37*
%TO.C,D22*%
X208025000Y-62950000D02*
X208425000Y-62950000D01*
X208425000Y-62950000D02*
X208425000Y-62400000D01*
X208425000Y-62950000D02*
X208425000Y-63500000D01*
X208425000Y-62950000D02*
X209025000Y-62550000D01*
X209025000Y-62550000D02*
X209025000Y-63350000D01*
X209025000Y-62950000D02*
X209525000Y-62950000D01*
X209025000Y-63350000D02*
X208425000Y-62950000D01*
%TO.C,LED25*%
X202900051Y-132932143D02*
X202601215Y-133573000D01*
X202259195Y-132633307D01*
X202900051Y-132932143D01*
G36*
X202900051Y-132932143D02*
G01*
X202601215Y-133573000D01*
X202259195Y-132633307D01*
X202900051Y-132932143D01*
G37*
%TO.C,D24*%
X185020417Y-125472465D02*
X185396294Y-125335657D01*
X185396294Y-125335657D02*
X185208183Y-124818826D01*
X185396294Y-125335657D02*
X185584405Y-125852488D01*
X185396294Y-125335657D02*
X185823301Y-124754568D01*
X185823301Y-124754568D02*
X186096917Y-125506322D01*
X185960109Y-125130445D02*
X186429955Y-124959435D01*
X186096917Y-125506322D02*
X185396294Y-125335657D01*
%TO.C,LED7*%
X303275000Y-59075000D02*
X302775000Y-59575000D01*
X302775000Y-58575000D01*
X303275000Y-59075000D01*
G36*
X303275000Y-59075000D02*
G01*
X302775000Y-59575000D01*
X302775000Y-58575000D01*
X303275000Y-59075000D01*
G37*
%TO.C,D9*%
X280025000Y-79950000D02*
X280425000Y-79950000D01*
X280425000Y-79950000D02*
X280425000Y-79400000D01*
X280425000Y-79950000D02*
X280425000Y-80500000D01*
X280425000Y-79950000D02*
X281025000Y-79550000D01*
X281025000Y-79550000D02*
X281025000Y-80350000D01*
X281025000Y-79950000D02*
X281525000Y-79950000D01*
X281025000Y-80350000D02*
X280425000Y-79950000D01*
%TO.C,LED16*%
X249275000Y-59075000D02*
X248775000Y-59575000D01*
X248775000Y-58575000D01*
X249275000Y-59075000D01*
G36*
X249275000Y-59075000D02*
G01*
X248775000Y-59575000D01*
X248775000Y-58575000D01*
X249275000Y-59075000D01*
G37*
%TD*%
D13*
%TO.C,MCU1*%
X196595000Y-49480000D03*
X196595000Y-52020000D03*
X196595000Y-54560000D03*
X196595000Y-57100000D03*
X196595000Y-59640000D03*
X196595000Y-62180000D03*
X196595000Y-64720000D03*
X196595000Y-67260000D03*
X196595000Y-69800000D03*
X196595000Y-72340000D03*
X196595000Y-74880000D03*
X196595000Y-77420000D03*
X181355000Y-77420000D03*
X181355000Y-74880000D03*
X181355000Y-72340000D03*
X181355000Y-69800000D03*
X181355000Y-67260000D03*
X181355000Y-64720000D03*
X181355000Y-62180000D03*
X181355000Y-59640000D03*
X181355000Y-57100000D03*
X181355000Y-54560000D03*
X181355000Y-52020000D03*
X181355000Y-49480000D03*
X183895000Y-72340000D03*
X186435000Y-72340000D03*
X188975000Y-72340000D03*
%TD*%
M02*
