M48
; DRILL file {KiCad 8.0.5} date 2024-09-15T18:22:02-0400
; FORMAT={-:-/ absolute / inch / decimal}
; #@! TF.CreationDate,2024-09-15T18:22:02-04:00
; #@! TF.GenerationSoftware,Kicad,Pcbnew,8.0.5
; #@! TF.FileFunction,NonPlated,1,2,NPTH
FMAT,2
INCH
; #@! TA.AperFunction,NonPlated,NPTH,ComponentDrill
T1C0.0295
; #@! TA.AperFunction,NonPlated,NPTH,ComponentDrill
T2C0.0354
; #@! TA.AperFunction,NonPlated,NPTH,ComponentDrill
T3C0.0670
; #@! TA.AperFunction,NonPlated,NPTH,ComponentDrill
T4C0.1181
; #@! TA.AperFunction,NonPlated,NPTH,ComponentDrill
T5C0.1350
; #@! TA.AperFunction,NonPlated,NPTH,ComponentDrill
T6C0.1575
%
G90
G05
T1
X7.063Y-3.7264
X7.1713Y-3.7264
T2
X6.9695Y-4.1515
X7.0285Y-4.0493
T3
X7.0008Y-4.7079
X7.4078Y-4.5597
X7.5627Y-5.2156
X7.6667Y-4.4655
X7.9696Y-5.0675
X8.003Y-2.1634
X8.003Y-2.8327
X8.003Y-3.502
X8.0737Y-4.3174
X8.436Y-2.1634
X8.436Y-2.8327
X8.436Y-3.502
X8.7116Y-2.1634
X8.7116Y-2.8327
X8.7116Y-3.502
X9.1447Y-2.1634
X9.1447Y-2.8327
X9.1447Y-3.502
X9.4203Y-2.1634
X9.4203Y-2.8327
X9.4203Y-3.502
X9.8533Y-2.1634
X9.8533Y-2.8327
X9.8533Y-3.502
X10.1289Y-2.1634
X10.1289Y-2.8327
X10.1289Y-3.502
X10.562Y-2.1634
X10.562Y-2.8327
X10.562Y-3.502
X10.8376Y-2.1634
X10.8376Y-2.8327
X10.8376Y-3.502
X11.2707Y-2.1634
X11.2707Y-2.8327
X11.2707Y-3.502
X11.5463Y-2.1634
X11.5463Y-2.8327
X11.5463Y-3.502
X11.5463Y-4.1713
X11.9793Y-2.1634
X11.9793Y-2.8327
X11.9793Y-3.502
X11.9793Y-4.1713
T4
X7.1242Y-4.4137
X7.3388Y-4.4277
X7.686Y-4.9214
X7.7901Y-4.1713
X7.9006Y-4.9355
X8.0047Y-4.1854
X8.2195Y-1.9291
X8.2195Y-2.5984
X8.2195Y-3.2677
X8.4163Y-2.0157
X8.4163Y-2.685
X8.4163Y-3.3543
X8.9281Y-1.9291
X8.9281Y-2.5984
X8.9281Y-3.2677
X9.125Y-2.0157
X9.125Y-2.685
X9.125Y-3.3543
X9.6368Y-1.9291
X9.6368Y-2.5984
X9.6368Y-3.2677
X9.8337Y-2.0157
X9.8337Y-2.685
X9.8337Y-3.3543
X10.3455Y-1.9291
X10.3455Y-2.5984
X10.3455Y-3.2677
X10.5423Y-2.0157
X10.5423Y-2.685
X10.5423Y-3.3543
X11.0541Y-1.9291
X11.0541Y-2.5984
X11.0541Y-3.2677
X11.251Y-2.0157
X11.251Y-2.685
X11.251Y-3.3543
X11.7628Y-1.9291
X11.7628Y-2.5984
X11.7628Y-3.2677
X11.7628Y-3.937
X11.9596Y-2.0157
X11.9596Y-2.685
X11.9596Y-3.3543
X11.9596Y-4.0236
T5
X7.2043Y-4.6338
X7.7662Y-5.1415
X7.8702Y-4.3914
X8.2195Y-2.1634
X8.2195Y-2.8327
X8.2195Y-3.502
X8.9281Y-2.1634
X8.9281Y-2.8327
X8.9281Y-3.502
X9.6368Y-2.1634
X9.6368Y-2.8327
X9.6368Y-3.502
X10.3455Y-2.1634
X10.3455Y-2.8327
X10.3455Y-3.502
X11.0541Y-2.1634
X11.0541Y-2.8327
X11.0541Y-3.502
X11.7628Y-2.1634
X11.7628Y-2.8327
X11.7628Y-3.502
X11.7628Y-4.1713
T6
X7.292Y-5.5655
X7.4321Y-1.9862
X7.5108Y-3.8169
X9.9911Y-3.1693
X9.9911Y-4.811
X11.3691Y-2.5
X12.0384Y-4.3681
M30
