%TF.GenerationSoftware,KiCad,Pcbnew,8.0.5*%
%TF.CreationDate,2024-09-15T18:22:06-04:00*%
%TF.ProjectId,theguy2,74686567-7579-4322-9e6b-696361645f70,v1.0.0*%
%TF.SameCoordinates,Original*%
%TF.FileFunction,Copper,L1,Top*%
%TF.FilePolarity,Positive*%
%FSLAX46Y46*%
G04 Gerber Fmt 4.6, Leading zero omitted, Abs format (unit mm)*
G04 Created by KiCad (PCBNEW 8.0.5) date 2024-09-15 18:22:06*
%MOMM*%
%LPD*%
G01*
G04 APERTURE LIST*
G04 Aperture macros list*
%AMRotRect*
0 Rectangle, with rotation*
0 The origin of the aperture is its center*
0 $1 length*
0 $2 width*
0 $3 Rotation angle, in degrees counterclockwise*
0 Add horizontal line*
21,1,$1,$2,0,0,$3*%
G04 Aperture macros list end*
%TA.AperFunction,SMDPad,CuDef*%
%ADD10RotRect,0.900000X0.900000X60.000000*%
%TD*%
%TA.AperFunction,WasherPad*%
%ADD11C,1.000000*%
%TD*%
%TA.AperFunction,SMDPad,CuDef*%
%ADD12RotRect,0.900000X1.250000X60.000000*%
%TD*%
%TA.AperFunction,SMDPad,CuDef*%
%ADD13R,2.600000X1.000000*%
%TD*%
%TA.AperFunction,ComponentPad*%
%ADD14C,1.752600*%
%TD*%
%TA.AperFunction,ComponentPad*%
%ADD15R,1.778000X1.778000*%
%TD*%
%TA.AperFunction,SMDPad,CuDef*%
%ADD16R,0.900000X1.200000*%
%TD*%
%TA.AperFunction,ComponentPad*%
%ADD17C,1.905000*%
%TD*%
%TA.AperFunction,ComponentPad*%
%ADD18RotRect,1.778000X1.778000X20.000000*%
%TD*%
%TA.AperFunction,SMDPad,CuDef*%
%ADD19RotRect,0.900000X1.200000X20.000000*%
%TD*%
%TA.AperFunction,ComponentPad*%
%ADD20R,1.700000X1.200000*%
%TD*%
%TA.AperFunction,ComponentPad*%
%ADD21O,1.700000X1.200000*%
%TD*%
%TA.AperFunction,SMDPad,CuDef*%
%ADD22R,1.000000X1.550000*%
%TD*%
%TA.AperFunction,ComponentPad*%
%ADD23O,1.700000X1.700000*%
%TD*%
%TA.AperFunction,ComponentPad*%
%ADD24R,1.700000X1.700000*%
%TD*%
%TA.AperFunction,SMDPad,CuDef*%
%ADD25RotRect,2.600000X1.000000X20.000000*%
%TD*%
%TA.AperFunction,ViaPad*%
%ADD26C,0.800000*%
%TD*%
%TA.AperFunction,Conductor*%
%ADD27C,0.250000*%
%TD*%
G04 APERTURE END LIST*
D10*
%TO.P,T1,*%
%TO.N,*%
X174972372Y-106804294D03*
X176877628Y-107904294D03*
D11*
X177025000Y-105449038D03*
X178525000Y-102850962D03*
D10*
X178672372Y-100395706D03*
X180577628Y-101495706D03*
D12*
%TO.P,T1,1*%
%TO.N,pos*%
X180697003Y-103238943D03*
%TO.P,T1,2*%
%TO.N,RAW*%
X179197003Y-105837019D03*
%TO.P,T1,3*%
%TO.N,N/C*%
X178447003Y-107136057D03*
%TD*%
D13*
%TO.P,LED4,1*%
%TO.N,VCC*%
X296575000Y-110075000D03*
%TO.P,LED4,2*%
%TO.N,N/C*%
X296575000Y-111825000D03*
%TO.P,LED4,3*%
%TO.N,GND*%
X300975000Y-111825000D03*
%TO.P,LED4,4*%
%TO.N,N/C*%
X300975000Y-110075000D03*
%TD*%
%TO.P,LED8,1*%
%TO.N,VCC*%
X278575000Y-93075000D03*
%TO.P,LED8,2*%
%TO.N,N/C*%
X278575000Y-94825000D03*
%TO.P,LED8,3*%
%TO.N,GND*%
X282975000Y-94825000D03*
%TO.P,LED8,4*%
%TO.N,N/C*%
X282975000Y-93075000D03*
%TD*%
D14*
%TO.P,MCU1,1*%
%TO.N,P006*%
X196595000Y-49480000D03*
%TO.P,MCU1,2*%
%TO.N,P008*%
X196595000Y-52020000D03*
%TO.P,MCU1,3*%
%TO.N,GND*%
X196595000Y-54560000D03*
%TO.P,MCU1,4*%
X196595000Y-57100000D03*
%TO.P,MCU1,5*%
%TO.N,P017*%
X196595000Y-59640000D03*
%TO.P,MCU1,6*%
%TO.N,P020*%
X196595000Y-62180000D03*
%TO.P,MCU1,7*%
%TO.N,P022*%
X196595000Y-64720000D03*
%TO.P,MCU1,8*%
%TO.N,P024*%
X196595000Y-67260000D03*
%TO.P,MCU1,9*%
%TO.N,P100*%
X196595000Y-69800000D03*
%TO.P,MCU1,10*%
%TO.N,P011*%
X196595000Y-72340000D03*
%TO.P,MCU1,11*%
%TO.N,P104*%
X196595000Y-74880000D03*
%TO.P,MCU1,12*%
%TO.N,P106*%
X196595000Y-77420000D03*
%TO.P,MCU1,13*%
%TO.N,P009*%
X181355000Y-77420000D03*
%TO.P,MCU1,14*%
%TO.N,P010*%
X181355000Y-74880000D03*
%TO.P,MCU1,15*%
%TO.N,P111*%
X181355000Y-72340000D03*
%TO.P,MCU1,16*%
%TO.N,P113*%
X181355000Y-69800000D03*
%TO.P,MCU1,17*%
%TO.N,P115*%
X181355000Y-67260000D03*
%TO.P,MCU1,18*%
%TO.N,P002*%
X181355000Y-64720000D03*
%TO.P,MCU1,19*%
%TO.N,P029*%
X181355000Y-62180000D03*
%TO.P,MCU1,20*%
%TO.N,P031*%
X181355000Y-59640000D03*
%TO.P,MCU1,21*%
%TO.N,VCC*%
X181355000Y-57100000D03*
%TO.P,MCU1,22*%
%TO.N,RST*%
X181355000Y-54560000D03*
%TO.P,MCU1,23*%
%TO.N,GND*%
X181355000Y-52020000D03*
%TO.P,MCU1,24*%
%TO.N,RAW*%
X181355000Y-49480000D03*
%TO.P,MCU1,31*%
%TO.N,P101*%
X183895000Y-72340000D03*
%TO.P,MCU1,32*%
%TO.N,P102*%
X186435000Y-72340000D03*
%TO.P,MCU1,33*%
%TO.N,P107*%
X188975000Y-72340000D03*
%TD*%
D13*
%TO.P,LED17,1*%
%TO.N,VCC*%
X224575000Y-93075000D03*
%TO.P,LED17,2*%
%TO.N,N/C*%
X224575000Y-94825000D03*
%TO.P,LED17,3*%
%TO.N,GND*%
X228975000Y-94825000D03*
%TO.P,LED17,4*%
%TO.N,N/C*%
X228975000Y-93075000D03*
%TD*%
D15*
%TO.P,D6,1*%
%TO.N,P106*%
X294965000Y-79950000D03*
D16*
X297125000Y-79950000D03*
%TO.P,D6,2*%
%TO.N,mirror_hell_home*%
X300425000Y-79950000D03*
D17*
X302585000Y-79950000D03*
%TD*%
D13*
%TO.P,LED6,1*%
%TO.N,VCC*%
X296575000Y-76075000D03*
%TO.P,LED6,2*%
%TO.N,N/C*%
X296575000Y-77825000D03*
%TO.P,LED6,3*%
%TO.N,GND*%
X300975000Y-77825000D03*
%TO.P,LED6,4*%
%TO.N,N/C*%
X300975000Y-76075000D03*
%TD*%
%TO.P,LED10,1*%
%TO.N,VCC*%
X278575000Y-59075000D03*
%TO.P,LED10,2*%
%TO.N,N/C*%
X278575000Y-60825000D03*
%TO.P,LED10,3*%
%TO.N,GND*%
X282975000Y-60825000D03*
%TO.P,LED10,4*%
%TO.N,N/C*%
X282975000Y-59075000D03*
%TD*%
%TO.P,LED5,1*%
%TO.N,VCC*%
X296575000Y-93075000D03*
%TO.P,LED5,2*%
%TO.N,N/C*%
X296575000Y-94825000D03*
%TO.P,LED5,3*%
%TO.N,GND*%
X300975000Y-94825000D03*
%TO.P,LED5,4*%
%TO.N,N/C*%
X300975000Y-93075000D03*
%TD*%
D15*
%TO.P,D11,1*%
%TO.N,P009*%
X258965000Y-96950000D03*
D16*
X261125000Y-96950000D03*
%TO.P,D11,2*%
%TO.N,mirror_ring_bottom*%
X264425000Y-96950000D03*
D17*
X266585000Y-96950000D03*
%TD*%
D13*
%TO.P,LED15,1*%
%TO.N,VCC*%
X242575000Y-76075000D03*
%TO.P,LED15,2*%
%TO.N,N/C*%
X242575000Y-77825000D03*
%TO.P,LED15,3*%
%TO.N,GND*%
X246975000Y-77825000D03*
%TO.P,LED15,4*%
%TO.N,N/C*%
X246975000Y-76075000D03*
%TD*%
D15*
%TO.P,D7,1*%
%TO.N,P104*%
X294965000Y-62950000D03*
D16*
X297125000Y-62950000D03*
%TO.P,D7,2*%
%TO.N,mirror_hell_top*%
X300425000Y-62950000D03*
D17*
X302585000Y-62950000D03*
%TD*%
D15*
%TO.P,D12,1*%
%TO.N,P106*%
X258965000Y-79950000D03*
D16*
X261125000Y-79950000D03*
%TO.P,D12,2*%
%TO.N,mirror_ring_home*%
X264425000Y-79950000D03*
D17*
X266585000Y-79950000D03*
%TD*%
D13*
%TO.P,LED14,1*%
%TO.N,VCC*%
X242575000Y-93075000D03*
%TO.P,LED14,2*%
%TO.N,N/C*%
X242575000Y-94825000D03*
%TO.P,LED14,3*%
%TO.N,GND*%
X246975000Y-94825000D03*
%TO.P,LED14,4*%
%TO.N,N/C*%
X246975000Y-93075000D03*
%TD*%
D15*
%TO.P,D8,1*%
%TO.N,P009*%
X276965000Y-96950000D03*
D16*
X279125000Y-96950000D03*
%TO.P,D8,2*%
%TO.N,mirror_pinky_bottom*%
X282425000Y-96950000D03*
D17*
X284585000Y-96950000D03*
%TD*%
D15*
%TO.P,D13,1*%
%TO.N,P104*%
X258965000Y-62950000D03*
D16*
X261125000Y-62950000D03*
%TO.P,D13,2*%
%TO.N,mirror_ring_top*%
X264425000Y-62950000D03*
D17*
X266585000Y-62950000D03*
%TD*%
D15*
%TO.P,D19,1*%
%TO.N,P104*%
X222965000Y-62950000D03*
D16*
X225125000Y-62950000D03*
%TO.P,D19,2*%
%TO.N,mirror_index_top*%
X228425000Y-62950000D03*
D17*
X230585000Y-62950000D03*
%TD*%
D13*
%TO.P,LED18,1*%
%TO.N,VCC*%
X224575000Y-76075000D03*
%TO.P,LED18,2*%
%TO.N,N/C*%
X224575000Y-77825000D03*
%TO.P,LED18,3*%
%TO.N,GND*%
X228975000Y-77825000D03*
%TO.P,LED18,4*%
%TO.N,N/C*%
X228975000Y-76075000D03*
%TD*%
D15*
%TO.P,D17,1*%
%TO.N,P009*%
X222965000Y-96950000D03*
D16*
X225125000Y-96950000D03*
%TO.P,D17,2*%
%TO.N,mirror_index_bottom*%
X228425000Y-96950000D03*
D17*
X230585000Y-96950000D03*
%TD*%
D13*
%TO.P,LED21,1*%
%TO.N,VCC*%
X206575000Y-76075000D03*
%TO.P,LED21,2*%
%TO.N,N/C*%
X206575000Y-77825000D03*
%TO.P,LED21,3*%
%TO.N,GND*%
X210975000Y-77825000D03*
%TO.P,LED21,4*%
%TO.N,N/C*%
X210975000Y-76075000D03*
%TD*%
D15*
%TO.P,D5,1*%
%TO.N,P009*%
X294965000Y-96950000D03*
D16*
X297125000Y-96950000D03*
%TO.P,D5,2*%
%TO.N,mirror_hell_bottom*%
X300425000Y-96950000D03*
D17*
X302585000Y-96950000D03*
%TD*%
D15*
%TO.P,D20,1*%
%TO.N,P009*%
X204965000Y-96950000D03*
D16*
X207125000Y-96950000D03*
%TO.P,D20,2*%
%TO.N,mirror_inner_bottom*%
X210425000Y-96950000D03*
D17*
X212585000Y-96950000D03*
%TD*%
D13*
%TO.P,LED19,1*%
%TO.N,VCC*%
X224575000Y-59075000D03*
%TO.P,LED19,2*%
%TO.N,N/C*%
X224575000Y-60825000D03*
%TO.P,LED19,3*%
%TO.N,GND*%
X228975000Y-60825000D03*
%TO.P,LED19,4*%
%TO.N,N/C*%
X228975000Y-59075000D03*
%TD*%
D15*
%TO.P,D10,1*%
%TO.N,P104*%
X276965000Y-62950000D03*
D16*
X279125000Y-62950000D03*
%TO.P,D10,2*%
%TO.N,mirror_pinky_top*%
X282425000Y-62950000D03*
D17*
X284585000Y-62950000D03*
%TD*%
D18*
%TO.P,D25,1*%
%TO.N,P011*%
X196416533Y-139415640D03*
D19*
X198446269Y-138676876D03*
%TO.P,D25,2*%
%TO.N,mirror_extra_cluster*%
X201547255Y-137548210D03*
D17*
X203576991Y-136809446D03*
%TD*%
D13*
%TO.P,LED9,1*%
%TO.N,VCC*%
X278575000Y-76075000D03*
%TO.P,LED9,2*%
%TO.N,N/C*%
X278575000Y-77825000D03*
%TO.P,LED9,3*%
%TO.N,GND*%
X282975000Y-77825000D03*
%TO.P,LED9,4*%
%TO.N,N/C*%
X282975000Y-76075000D03*
%TD*%
D20*
%TO.P,JST1,1*%
%TO.N,pos*%
X280775000Y-104950000D03*
D21*
%TO.P,JST1,2*%
%TO.N,GND*%
X280775000Y-106950000D03*
%TD*%
D13*
%TO.P,LED22,1*%
%TO.N,VCC*%
X206575000Y-59075000D03*
%TO.P,LED22,2*%
%TO.N,N/C*%
X206575000Y-60825000D03*
%TO.P,LED22,3*%
%TO.N,GND*%
X210975000Y-60825000D03*
%TO.P,LED22,4*%
%TO.N,N/C*%
X210975000Y-59075000D03*
%TD*%
D15*
%TO.P,D4,1*%
%TO.N,P010*%
X294965000Y-113950000D03*
D16*
X297125000Y-113950000D03*
%TO.P,D4,2*%
%TO.N,mirror_hell_last*%
X300425000Y-113950000D03*
D17*
X302585000Y-113950000D03*
%TD*%
D15*
%TO.P,D15,1*%
%TO.N,P106*%
X240965000Y-79950000D03*
D16*
X243125000Y-79950000D03*
%TO.P,D15,2*%
%TO.N,mirror_middle_home*%
X246425000Y-79950000D03*
D17*
X248585000Y-79950000D03*
%TD*%
D15*
%TO.P,D18,1*%
%TO.N,P106*%
X222965000Y-79950000D03*
D16*
X225125000Y-79950000D03*
%TO.P,D18,2*%
%TO.N,mirror_index_home*%
X228425000Y-79950000D03*
D17*
X230585000Y-79950000D03*
%TD*%
D22*
%TO.P,B1,1*%
%TO.N,GND*%
X179925000Y-97275000D03*
X179925000Y-92025000D03*
%TO.P,B1,2*%
%TO.N,RST*%
X181625000Y-97275000D03*
X181625000Y-92025000D03*
%TD*%
D15*
%TO.P,D21,1*%
%TO.N,P106*%
X204965000Y-79950000D03*
D16*
X207125000Y-79950000D03*
%TO.P,D21,2*%
%TO.N,mirror_inner_home*%
X210425000Y-79950000D03*
D17*
X212585000Y-79950000D03*
%TD*%
D18*
%TO.P,D23,1*%
%TO.N,P010*%
X199059424Y-120362684D03*
D19*
X201089160Y-119623920D03*
%TO.P,D23,2*%
%TO.N,mirror_layer_cluster*%
X204190146Y-118495254D03*
D17*
X206219882Y-117756490D03*
%TD*%
D13*
%TO.P,LED13,1*%
%TO.N,VCC*%
X260575000Y-59075000D03*
%TO.P,LED13,2*%
%TO.N,N/C*%
X260575000Y-60825000D03*
%TO.P,LED13,3*%
%TO.N,GND*%
X264975000Y-60825000D03*
%TO.P,LED13,4*%
%TO.N,N/C*%
X264975000Y-59075000D03*
%TD*%
D23*
%TO.P,niceView1,1*%
%TO.N,P006*%
X194055000Y-80425000D03*
D24*
%TO.P,niceView1,2*%
%TO.N,GND*%
X191515000Y-80425000D03*
D23*
%TO.P,niceView1,3*%
%TO.N,VCC*%
X188975000Y-80425000D03*
%TO.P,niceView1,4*%
%TO.N,P020*%
X186435000Y-80425000D03*
%TO.P,niceView1,5*%
%TO.N,P017*%
X183895000Y-80425000D03*
%TD*%
D15*
%TO.P,D14,1*%
%TO.N,P009*%
X240965000Y-96950000D03*
D16*
X243125000Y-96950000D03*
%TO.P,D14,2*%
%TO.N,mirror_middle_bottom*%
X246425000Y-96950000D03*
D17*
X248585000Y-96950000D03*
%TD*%
D15*
%TO.P,D16,1*%
%TO.N,P104*%
X240965000Y-62950000D03*
D16*
X243125000Y-62950000D03*
%TO.P,D16,2*%
%TO.N,mirror_middle_top*%
X246425000Y-62950000D03*
D17*
X248585000Y-62950000D03*
%TD*%
D13*
%TO.P,LED11,1*%
%TO.N,VCC*%
X260575000Y-93075000D03*
%TO.P,LED11,2*%
%TO.N,N/C*%
X260575000Y-94825000D03*
%TO.P,LED11,3*%
%TO.N,GND*%
X264975000Y-94825000D03*
%TO.P,LED11,4*%
%TO.N,N/C*%
X264975000Y-93075000D03*
%TD*%
D25*
%TO.P,LED24,1*%
%TO.N,VCC*%
X182332535Y-122327085D03*
%TO.P,LED24,2*%
%TO.N,N/C*%
X182931070Y-123971547D03*
%TO.P,LED24,3*%
%TO.N,GND*%
X187065717Y-122466659D03*
%TO.P,LED24,4*%
%TO.N,N/C*%
X186467182Y-120822197D03*
%TD*%
%TO.P,LED23,1*%
%TO.N,VCC*%
X199247002Y-116170723D03*
%TO.P,LED23,2*%
%TO.N,N/C*%
X199845537Y-117815185D03*
%TO.P,LED23,3*%
%TO.N,GND*%
X203980184Y-116310297D03*
%TO.P,LED23,4*%
%TO.N,N/C*%
X203381649Y-114665835D03*
%TD*%
D13*
%TO.P,LED12,1*%
%TO.N,VCC*%
X260575000Y-76075000D03*
%TO.P,LED12,2*%
%TO.N,N/C*%
X260575000Y-77825000D03*
%TO.P,LED12,3*%
%TO.N,GND*%
X264975000Y-77825000D03*
%TO.P,LED12,4*%
%TO.N,N/C*%
X264975000Y-76075000D03*
%TD*%
%TO.P,LED20,1*%
%TO.N,VCC*%
X206575000Y-93075000D03*
%TO.P,LED20,2*%
%TO.N,N/C*%
X206575000Y-94825000D03*
%TO.P,LED20,3*%
%TO.N,GND*%
X210975000Y-94825000D03*
%TO.P,LED20,4*%
%TO.N,N/C*%
X210975000Y-93075000D03*
%TD*%
D15*
%TO.P,D22,1*%
%TO.N,P104*%
X204965000Y-62950000D03*
D16*
X207125000Y-62950000D03*
%TO.P,D22,2*%
%TO.N,mirror_inner_top*%
X210425000Y-62950000D03*
D17*
X212585000Y-62950000D03*
%TD*%
D25*
%TO.P,LED25,1*%
%TO.N,VCC*%
X196604111Y-135223678D03*
%TO.P,LED25,2*%
%TO.N,N/C*%
X197202646Y-136868140D03*
%TO.P,LED25,3*%
%TO.N,GND*%
X201337293Y-135363252D03*
%TO.P,LED25,4*%
%TO.N,N/C*%
X200738758Y-133718790D03*
%TD*%
D18*
%TO.P,D24,1*%
%TO.N,P010*%
X182144957Y-126519047D03*
D19*
X184174693Y-125780283D03*
%TO.P,D24,2*%
%TO.N,mirror_space_cluster*%
X187275679Y-124651617D03*
D17*
X189305415Y-123912853D03*
%TD*%
D13*
%TO.P,LED7,1*%
%TO.N,VCC*%
X296575000Y-59075000D03*
%TO.P,LED7,2*%
%TO.N,N/C*%
X296575000Y-60825000D03*
%TO.P,LED7,3*%
%TO.N,GND*%
X300975000Y-60825000D03*
%TO.P,LED7,4*%
%TO.N,N/C*%
X300975000Y-59075000D03*
%TD*%
D15*
%TO.P,D9,1*%
%TO.N,P106*%
X276965000Y-79950000D03*
D16*
X279125000Y-79950000D03*
%TO.P,D9,2*%
%TO.N,mirror_pinky_home*%
X282425000Y-79950000D03*
D17*
X284585000Y-79950000D03*
%TD*%
D13*
%TO.P,LED16,1*%
%TO.N,VCC*%
X242575000Y-59075000D03*
%TO.P,LED16,2*%
%TO.N,N/C*%
X242575000Y-60825000D03*
%TO.P,LED16,3*%
%TO.N,GND*%
X246975000Y-60825000D03*
%TO.P,LED16,4*%
%TO.N,N/C*%
X246975000Y-59075000D03*
%TD*%
D26*
%TO.N,P113*%
X220000000Y-48000000D03*
%TO.N,P111*%
X202000000Y-48000000D03*
%TO.N,VCC*%
X276500000Y-75000000D03*
X184000000Y-55500000D03*
X204000000Y-59500000D03*
X222500000Y-75000000D03*
X294500000Y-75000000D03*
X203500000Y-120500000D03*
X258500000Y-58000000D03*
X294500000Y-58000000D03*
X294000000Y-110500000D03*
X194000000Y-136500000D03*
X204000000Y-93500000D03*
X276500000Y-92000000D03*
X258500000Y-75000000D03*
X197000000Y-117500000D03*
X180000000Y-123500000D03*
X222500000Y-92000000D03*
X204000000Y-76500000D03*
X240000000Y-92000000D03*
X240500000Y-58000000D03*
X294000000Y-92000000D03*
X276500000Y-58000000D03*
X240000000Y-75000000D03*
X222500000Y-58000000D03*
X258500000Y-92000000D03*
%TO.N,GND*%
X231500000Y-94825000D03*
X303500000Y-77500000D03*
X285500000Y-94825000D03*
X181500000Y-100000000D03*
X303500000Y-94500000D03*
X267500000Y-94825000D03*
X178000000Y-122500000D03*
X231500000Y-60825000D03*
X188500000Y-121000000D03*
X205500000Y-115000000D03*
X213500000Y-94825000D03*
X213500000Y-77825000D03*
X267500000Y-77825000D03*
X303500000Y-60500000D03*
X213500000Y-60825000D03*
X285500000Y-77825000D03*
X249500000Y-60825000D03*
X180000000Y-89500000D03*
X194000000Y-118500000D03*
X174325000Y-121000000D03*
X249500000Y-77825000D03*
X267500000Y-60825000D03*
X285500000Y-60825000D03*
X303000000Y-111000000D03*
X249500000Y-94825000D03*
X202715521Y-133946133D03*
X231500000Y-77825000D03*
%TO.N,P010*%
X190000000Y-103000000D03*
%TO.N,P011*%
X186000000Y-101500000D03*
%TO.N,P009*%
X184000000Y-89500000D03*
X182512653Y-87987347D03*
%TO.N,P106*%
X203000000Y-80000000D03*
%TO.N,P104*%
X202500000Y-63000000D03*
%TO.N,RAW*%
X178000000Y-104500000D03*
%TO.N,RST*%
X181000000Y-89000000D03*
%TD*%
D27*
%TO.N,P113*%
X182556300Y-68598700D02*
X182556300Y-46443700D01*
X182556300Y-46443700D02*
X183350000Y-45650000D01*
X217650000Y-45650000D02*
X220000000Y-48000000D01*
X183350000Y-45650000D02*
X184500000Y-45650000D01*
X181355000Y-69800000D02*
X182556300Y-68598700D01*
X184500000Y-45650000D02*
X217650000Y-45650000D01*
%TO.N,P111*%
X181355000Y-72340000D02*
X183006300Y-70688700D01*
X200100000Y-46100000D02*
X202000000Y-48000000D01*
X183900000Y-46100000D02*
X184000000Y-46100000D01*
X183006300Y-70688700D02*
X183006300Y-68412304D01*
X183006300Y-68412304D02*
X183006300Y-46993700D01*
X183006300Y-46993700D02*
X183900000Y-46100000D01*
X184000000Y-46100000D02*
X200100000Y-46100000D01*
%TO.N,mirror_hell_last*%
X302585000Y-113950000D02*
X300425000Y-113950000D01*
%TO.N,mirror_hell_bottom*%
X300425000Y-96950000D02*
X302585000Y-96950000D01*
%TO.N,mirror_hell_home*%
X302585000Y-79950000D02*
X300425000Y-79950000D01*
%TO.N,mirror_hell_top*%
X300425000Y-62950000D02*
X302585000Y-62950000D01*
%TO.N,mirror_pinky_bottom*%
X282425000Y-96950000D02*
X284585000Y-96950000D01*
%TO.N,mirror_pinky_home*%
X284585000Y-79950000D02*
X282425000Y-79950000D01*
%TO.N,mirror_pinky_top*%
X284585000Y-62950000D02*
X282425000Y-62950000D01*
%TO.N,mirror_ring_bottom*%
X264425000Y-96950000D02*
X266585000Y-96950000D01*
%TO.N,mirror_ring_home*%
X264425000Y-79950000D02*
X266585000Y-79950000D01*
%TO.N,mirror_ring_top*%
X264425000Y-62950000D02*
X266585000Y-62950000D01*
%TO.N,mirror_middle_bottom*%
X246425000Y-96950000D02*
X248585000Y-96950000D01*
%TO.N,mirror_middle_home*%
X248585000Y-79950000D02*
X246425000Y-79950000D01*
%TO.N,mirror_middle_top*%
X246425000Y-62950000D02*
X248585000Y-62950000D01*
%TO.N,mirror_index_bottom*%
X228425000Y-96950000D02*
X230585000Y-96950000D01*
%TO.N,mirror_index_home*%
X228425000Y-79950000D02*
X230585000Y-79950000D01*
%TO.N,mirror_index_top*%
X228425000Y-62950000D02*
X230585000Y-62950000D01*
%TO.N,mirror_inner_bottom*%
X210425000Y-96950000D02*
X212585000Y-96950000D01*
%TO.N,mirror_inner_home*%
X212585000Y-79950000D02*
X210425000Y-79950000D01*
%TO.N,mirror_inner_top*%
X210425000Y-62950000D02*
X212585000Y-62950000D01*
%TO.N,mirror_layer_cluster*%
X206219882Y-117756490D02*
X204928910Y-117756490D01*
X204928910Y-117756490D02*
X204190146Y-118495254D01*
%TO.N,mirror_space_cluster*%
X188014443Y-123912853D02*
X187275679Y-124651617D01*
X189305415Y-123912853D02*
X188014443Y-123912853D01*
%TO.N,mirror_extra_cluster*%
X203576991Y-136809446D02*
X202286019Y-136809446D01*
X202286019Y-136809446D02*
X201547255Y-137548210D01*
%TO.N,VCC*%
X278575000Y-76075000D02*
X278575000Y-75325000D01*
X259500000Y-75000000D02*
X260575000Y-76075000D01*
X276500000Y-75000000D02*
X277500000Y-75000000D01*
X295500000Y-92000000D02*
X296575000Y-93075000D01*
X224900000Y-58000000D02*
X240500000Y-58000000D01*
X224900000Y-75000000D02*
X240000000Y-75000000D01*
X185452469Y-120047531D02*
X188000000Y-117500000D01*
X203751000Y-87692316D02*
X204500900Y-88442216D01*
X209050000Y-126050000D02*
X203500000Y-120500000D01*
X260575000Y-58325000D02*
X260900000Y-58000000D01*
X224942157Y-92000000D02*
X240000000Y-92000000D01*
X206575000Y-93075000D02*
X206575000Y-92325000D01*
X204000000Y-59500000D02*
X204425000Y-59075000D01*
X180153700Y-72837595D02*
X180857405Y-73541300D01*
X242575000Y-58325000D02*
X242900000Y-58000000D01*
X278575000Y-92325000D02*
X278900000Y-92000000D01*
X204500900Y-75999100D02*
X204000000Y-76500000D01*
X197917725Y-117500000D02*
X199247002Y-116170723D01*
X294500000Y-58000000D02*
X295500000Y-58000000D01*
X222500000Y-75000000D02*
X223500000Y-75000000D01*
X242575000Y-92325000D02*
X242900000Y-92000000D01*
X242900000Y-75000000D02*
X258500000Y-75000000D01*
X277500000Y-75000000D02*
X278575000Y-76075000D01*
X180857405Y-73541300D02*
X182041300Y-73541300D01*
X180000000Y-123500000D02*
X180000000Y-128500000D01*
X258500000Y-58000000D02*
X259500000Y-58000000D01*
X224575000Y-58325000D02*
X224900000Y-58000000D01*
X278575000Y-59075000D02*
X278575000Y-58325000D01*
X203751000Y-77249000D02*
X203751000Y-87692316D01*
X260900000Y-58000000D02*
X276500000Y-58000000D01*
X204000000Y-59500000D02*
X201000000Y-56500000D01*
X204500900Y-92999100D02*
X204000000Y-93500000D01*
X242900000Y-92000000D02*
X258500000Y-92000000D01*
X206900000Y-92000000D02*
X222500000Y-92000000D01*
X181159620Y-123500000D02*
X182332535Y-122327085D01*
X260900000Y-92000000D02*
X276500000Y-92000000D01*
X291000000Y-113500000D02*
X290000000Y-113500000D01*
X181355000Y-57100000D02*
X180153700Y-58301300D01*
X204425000Y-76075000D02*
X206575000Y-76075000D01*
X206575000Y-59075000D02*
X206575000Y-58325000D01*
X242575000Y-59075000D02*
X242575000Y-58325000D01*
X260575000Y-76075000D02*
X260575000Y-75325000D01*
X204425000Y-93075000D02*
X206575000Y-93075000D01*
X294000000Y-110500000D02*
X291000000Y-113500000D01*
X206575000Y-92325000D02*
X206900000Y-92000000D01*
X241500000Y-75000000D02*
X242575000Y-76075000D01*
X260575000Y-93075000D02*
X260575000Y-92325000D01*
X241500000Y-92000000D02*
X242575000Y-93075000D01*
X195327789Y-136500000D02*
X196604111Y-135223678D01*
X183453687Y-120047531D02*
X185452469Y-120047531D01*
X259500000Y-58000000D02*
X260575000Y-59075000D01*
X188000000Y-136500000D02*
X194000000Y-136500000D01*
X204000000Y-77000000D02*
X203751000Y-77249000D01*
X223500000Y-75000000D02*
X224575000Y-76075000D01*
X278900000Y-58000000D02*
X294500000Y-58000000D01*
X188000000Y-117500000D02*
X197000000Y-117500000D01*
X277500000Y-92000000D02*
X278575000Y-93075000D01*
X199050000Y-46550000D02*
X186550000Y-46550000D01*
X181942432Y-121558786D02*
X183453687Y-120047531D01*
X295500000Y-75000000D02*
X296575000Y-76075000D01*
X224575000Y-59075000D02*
X224575000Y-58325000D01*
X204000000Y-93500000D02*
X204425000Y-93075000D01*
X240500000Y-58000000D02*
X241500000Y-58000000D01*
X182720000Y-80911701D02*
X183408299Y-81600000D01*
X204000000Y-76500000D02*
X204425000Y-76075000D01*
X180000000Y-128500000D02*
X188000000Y-136500000D01*
X206900000Y-75000000D02*
X222500000Y-75000000D01*
X204000000Y-59500000D02*
X204000000Y-60000000D01*
X278575000Y-58325000D02*
X278900000Y-58000000D01*
X260575000Y-92325000D02*
X260900000Y-92000000D01*
X206575000Y-58325000D02*
X206900000Y-58000000D01*
X194000000Y-136500000D02*
X195327789Y-136500000D01*
X242575000Y-75325000D02*
X242900000Y-75000000D01*
X294000000Y-92000000D02*
X295500000Y-92000000D01*
X276500000Y-92000000D02*
X277500000Y-92000000D01*
X180153700Y-58301300D02*
X180153700Y-72837595D01*
X197000000Y-117500000D02*
X197917725Y-117500000D01*
X277500000Y-58000000D02*
X278575000Y-59075000D01*
X180000000Y-123500000D02*
X181159620Y-123500000D01*
X204000000Y-60000000D02*
X203751000Y-60249000D01*
X242575000Y-93075000D02*
X242575000Y-92325000D01*
X295500000Y-58000000D02*
X296575000Y-59075000D01*
X244313604Y-126050000D02*
X241500000Y-126050000D01*
X204000000Y-76500000D02*
X204000000Y-77000000D01*
X222500000Y-92000000D02*
X223500000Y-92000000D01*
X224575000Y-76075000D02*
X224575000Y-75325000D01*
X223500000Y-58000000D02*
X224575000Y-59075000D01*
X260575000Y-75325000D02*
X260900000Y-75000000D01*
X278575000Y-93075000D02*
X278575000Y-92325000D01*
X276500000Y-58000000D02*
X277500000Y-58000000D01*
X294425000Y-110075000D02*
X296575000Y-110075000D01*
X294000000Y-110500000D02*
X294425000Y-110075000D01*
X294500000Y-75000000D02*
X295500000Y-75000000D01*
X203751000Y-70692316D02*
X204500900Y-71442216D01*
X223500000Y-92000000D02*
X224575000Y-93075000D01*
X258500000Y-113500000D02*
X256863604Y-113500000D01*
X201000000Y-48500000D02*
X199050000Y-46550000D01*
X240000000Y-92000000D02*
X241500000Y-92000000D01*
X290000000Y-113500000D02*
X258500000Y-113500000D01*
X204500900Y-71442216D02*
X204500900Y-75999100D01*
X241500000Y-126050000D02*
X209050000Y-126050000D01*
X224575000Y-92367157D02*
X224942157Y-92000000D01*
X187800000Y-81600000D02*
X188975000Y-80425000D01*
X256863604Y-113500000D02*
X248931802Y-121431802D01*
X222500000Y-58000000D02*
X223500000Y-58000000D01*
X278575000Y-75325000D02*
X278900000Y-75000000D01*
X258500000Y-75000000D02*
X259500000Y-75000000D01*
X181942432Y-121936982D02*
X181942432Y-121558786D01*
X182720000Y-74220000D02*
X182720000Y-80911701D01*
X224575000Y-75325000D02*
X224900000Y-75000000D01*
X278900000Y-92000000D02*
X294000000Y-92000000D01*
X260900000Y-75000000D02*
X276500000Y-75000000D01*
X258500000Y-92000000D02*
X259500000Y-92000000D01*
X241500000Y-58000000D02*
X242575000Y-59075000D01*
X182041300Y-73541300D02*
X182720000Y-74220000D01*
X259500000Y-92000000D02*
X260575000Y-93075000D01*
X206575000Y-75325000D02*
X206900000Y-75000000D01*
X242575000Y-76075000D02*
X242575000Y-75325000D01*
X248931802Y-121431802D02*
X244313604Y-126050000D01*
X182332535Y-122327085D02*
X181942432Y-121936982D01*
X240000000Y-75000000D02*
X241500000Y-75000000D01*
X278900000Y-75000000D02*
X294500000Y-75000000D01*
X201000000Y-56500000D02*
X201000000Y-48500000D01*
X204500900Y-88442216D02*
X204500900Y-92999100D01*
X206575000Y-76075000D02*
X206575000Y-75325000D01*
X184000000Y-49100000D02*
X184000000Y-55500000D01*
X186550000Y-46550000D02*
X184000000Y-49100000D01*
X183408299Y-81600000D02*
X187800000Y-81600000D01*
X206900000Y-58000000D02*
X222500000Y-58000000D01*
X204425000Y-59075000D02*
X206575000Y-59075000D01*
X260575000Y-59075000D02*
X260575000Y-58325000D01*
X203751000Y-60249000D02*
X203751000Y-70692316D01*
X224575000Y-93075000D02*
X224575000Y-92367157D01*
X242900000Y-58000000D02*
X258500000Y-58000000D01*
%TO.N,GND*%
X264975000Y-77825000D02*
X267500000Y-77825000D01*
X179925000Y-92025000D02*
X180150000Y-92250000D01*
X294500000Y-95736000D02*
X294586000Y-95650000D01*
X303500000Y-94500000D02*
X303175000Y-94825000D01*
X242179000Y-95736000D02*
X242443000Y-96000000D01*
X303000000Y-111000000D02*
X301800000Y-111000000D01*
X192000000Y-120500000D02*
X194000000Y-118500000D01*
X246975000Y-60825000D02*
X249500000Y-60825000D01*
X228975000Y-77825000D02*
X231500000Y-77825000D01*
X264975000Y-94825000D02*
X267500000Y-94825000D01*
X300975000Y-78575000D02*
X300975000Y-77825000D01*
X222500000Y-78736000D02*
X224179000Y-78736000D01*
X228975000Y-78575000D02*
X228975000Y-77825000D01*
X285500000Y-60825000D02*
X293589000Y-60825000D01*
X228975000Y-95575000D02*
X228975000Y-94825000D01*
X280775000Y-110225000D02*
X280775000Y-106950000D01*
X293589000Y-77825000D02*
X294500000Y-78736000D01*
X276500000Y-95736000D02*
X278778157Y-95736000D01*
X222500000Y-95736000D02*
X224179000Y-95736000D01*
X303000000Y-111000000D02*
X303000000Y-108958684D01*
X260179000Y-61736000D02*
X260343000Y-61900000D01*
X260343000Y-61900000D02*
X264650000Y-61900000D01*
X209500000Y-124000000D02*
X211000000Y-125500000D01*
X303500000Y-60500000D02*
X303000000Y-60500000D01*
X257589000Y-94825000D02*
X258500000Y-95736000D01*
X179925000Y-98425000D02*
X181500000Y-100000000D01*
X188500000Y-121000000D02*
X189000000Y-120500000D01*
X242343000Y-78900000D02*
X246650000Y-78900000D01*
X205500000Y-115000000D02*
X208000000Y-115000000D01*
X242179000Y-61736000D02*
X242443000Y-62000000D01*
X275589000Y-77825000D02*
X276500000Y-78736000D01*
X244227208Y-125500000D02*
X256727208Y-113000000D01*
X260942157Y-95900000D02*
X264650000Y-95900000D01*
X282975000Y-60825000D02*
X285500000Y-60825000D01*
X267500000Y-94825000D02*
X275589000Y-94825000D01*
X282975000Y-95575000D02*
X282975000Y-94825000D01*
X305650000Y-75350000D02*
X305650000Y-62650000D01*
X246975000Y-77825000D02*
X249500000Y-77825000D01*
X294500000Y-78736000D02*
X296179000Y-78736000D01*
X222500000Y-61736000D02*
X224179000Y-61736000D01*
X205500000Y-115000000D02*
X205290481Y-115000000D01*
X278778157Y-95736000D02*
X278942157Y-95900000D01*
X260778157Y-95736000D02*
X260942157Y-95900000D01*
X282975000Y-94825000D02*
X285500000Y-94825000D01*
X228975000Y-94825000D02*
X231500000Y-94825000D01*
X303175000Y-77825000D02*
X300975000Y-77825000D01*
X300650000Y-95900000D02*
X300975000Y-95575000D01*
X228975000Y-60825000D02*
X231500000Y-60825000D01*
X282975000Y-77825000D02*
X285500000Y-77825000D01*
X210975000Y-94825000D02*
X213500000Y-94825000D01*
X239589000Y-60825000D02*
X240500000Y-61736000D01*
X179925000Y-92025000D02*
X179925000Y-89575000D01*
X210975000Y-60825000D02*
X213500000Y-60825000D01*
X210975000Y-77825000D02*
X213500000Y-77825000D01*
X278343000Y-78900000D02*
X282650000Y-78900000D01*
X285500000Y-94825000D02*
X293589000Y-94825000D01*
X228650000Y-95900000D02*
X228975000Y-95575000D01*
X249500000Y-60825000D02*
X257589000Y-60825000D01*
X303500000Y-77500000D02*
X305650000Y-75350000D01*
X303175000Y-94825000D02*
X300975000Y-94825000D01*
X180150000Y-92250000D02*
X180150000Y-97050000D01*
X285500000Y-77825000D02*
X293589000Y-77825000D01*
X246507843Y-62000000D02*
X246975000Y-61532843D01*
X174325000Y-121000000D02*
X176500000Y-121000000D01*
X293589000Y-94825000D02*
X294500000Y-95736000D01*
X188500000Y-121000000D02*
X188500000Y-121032376D01*
X189000000Y-120500000D02*
X192000000Y-120500000D01*
X302350000Y-109000000D02*
X303000000Y-109650000D01*
X275589000Y-60825000D02*
X276500000Y-61736000D01*
X213500000Y-77825000D02*
X221589000Y-77825000D01*
X282975000Y-78575000D02*
X282975000Y-77825000D01*
X264975000Y-61575000D02*
X264975000Y-60825000D01*
X228650000Y-78900000D02*
X228975000Y-78575000D01*
X296343000Y-78900000D02*
X300650000Y-78900000D01*
X303000000Y-109650000D02*
X303000000Y-111000000D01*
X258500000Y-78736000D02*
X260778157Y-78736000D01*
X221589000Y-77825000D02*
X222500000Y-78736000D01*
X213500000Y-60825000D02*
X221589000Y-60825000D01*
X282650000Y-78900000D02*
X282975000Y-78575000D01*
X305650000Y-96650000D02*
X303500000Y-94500000D01*
X246550000Y-96000000D02*
X246975000Y-95575000D01*
X303000000Y-60500000D02*
X302675000Y-60825000D01*
X179925000Y-89575000D02*
X180000000Y-89500000D01*
X301800000Y-111000000D02*
X300975000Y-111825000D01*
X246975000Y-61532843D02*
X246975000Y-60825000D01*
X294586000Y-95650000D02*
X296692157Y-95650000D01*
X260778157Y-78736000D02*
X260942157Y-78900000D01*
X305650000Y-92350000D02*
X305650000Y-79650000D01*
X264650000Y-95900000D02*
X264975000Y-95575000D01*
X293589000Y-60825000D02*
X294500000Y-61736000D01*
X209500000Y-116500000D02*
X209500000Y-124000000D01*
X246975000Y-94825000D02*
X249500000Y-94825000D01*
X296942157Y-61900000D02*
X300650000Y-61900000D01*
X296942157Y-95900000D02*
X300650000Y-95900000D01*
X305650000Y-106308684D02*
X305650000Y-96650000D01*
X249500000Y-94825000D02*
X257589000Y-94825000D01*
X296179000Y-78736000D02*
X296343000Y-78900000D01*
X300650000Y-78900000D02*
X300975000Y-78575000D01*
X294500000Y-61736000D02*
X296778157Y-61736000D01*
X276500000Y-61736000D02*
X278179000Y-61736000D01*
X228975000Y-61575000D02*
X228975000Y-60825000D01*
X305650000Y-62650000D02*
X303500000Y-60500000D01*
X300975000Y-95575000D02*
X300975000Y-94825000D01*
X242179000Y-78736000D02*
X242343000Y-78900000D01*
X264975000Y-78575000D02*
X264975000Y-77825000D01*
X213500000Y-94825000D02*
X221589000Y-94825000D01*
X278443000Y-62000000D02*
X282550000Y-62000000D01*
X300975000Y-61575000D02*
X300975000Y-60825000D01*
X278942157Y-95900000D02*
X282650000Y-95900000D01*
X224343000Y-95900000D02*
X228650000Y-95900000D01*
X267500000Y-60825000D02*
X275589000Y-60825000D01*
X202715521Y-133946133D02*
X202715521Y-133985024D01*
X202715521Y-133985024D02*
X201337293Y-135363252D01*
X278000000Y-113000000D02*
X280775000Y-110225000D01*
X278179000Y-61736000D02*
X278443000Y-62000000D01*
X258500000Y-95736000D02*
X260778157Y-95736000D01*
X208000000Y-115000000D02*
X209500000Y-116500000D01*
X224343000Y-61900000D02*
X228650000Y-61900000D01*
X249500000Y-77825000D02*
X257589000Y-77825000D01*
X231500000Y-77825000D02*
X239589000Y-77825000D01*
X240500000Y-95736000D02*
X242179000Y-95736000D01*
X211000000Y-125500000D02*
X244227208Y-125500000D01*
X303500000Y-77500000D02*
X303175000Y-77825000D01*
X282650000Y-95900000D02*
X282975000Y-95575000D01*
X242443000Y-62000000D02*
X246507843Y-62000000D01*
X224343000Y-78900000D02*
X228650000Y-78900000D01*
X256727208Y-113000000D02*
X278000000Y-113000000D01*
X258500000Y-61736000D02*
X260179000Y-61736000D01*
X303500000Y-94500000D02*
X305650000Y-92350000D01*
X188500000Y-121032376D02*
X187065717Y-122466659D01*
X264650000Y-78900000D02*
X264975000Y-78575000D01*
X264975000Y-60825000D02*
X267500000Y-60825000D01*
X305650000Y-79650000D02*
X303500000Y-77500000D01*
X296692157Y-95650000D02*
X296942157Y-95900000D01*
X282825000Y-109000000D02*
X302350000Y-109000000D01*
X242443000Y-96000000D02*
X246550000Y-96000000D01*
X257589000Y-77825000D02*
X258500000Y-78736000D01*
X275589000Y-94825000D02*
X276500000Y-95736000D01*
X267500000Y-77825000D02*
X275589000Y-77825000D01*
X224179000Y-78736000D02*
X224343000Y-78900000D01*
X246975000Y-95575000D02*
X246975000Y-94825000D01*
X239589000Y-94825000D02*
X240500000Y-95736000D01*
X264975000Y-95575000D02*
X264975000Y-94825000D01*
X278179000Y-78736000D02*
X278343000Y-78900000D01*
X224179000Y-61736000D02*
X224343000Y-61900000D01*
X224179000Y-95736000D02*
X224343000Y-95900000D01*
X240500000Y-61736000D02*
X242179000Y-61736000D01*
X300650000Y-61900000D02*
X300975000Y-61575000D01*
X246975000Y-78575000D02*
X246975000Y-77825000D01*
X257589000Y-60825000D02*
X258500000Y-61736000D01*
X302675000Y-60825000D02*
X300975000Y-60825000D01*
X221589000Y-94825000D02*
X222500000Y-95736000D01*
X246650000Y-78900000D02*
X246975000Y-78575000D01*
X240500000Y-78736000D02*
X242179000Y-78736000D01*
X303000000Y-108958684D02*
X305650000Y-106308684D01*
X264650000Y-61900000D02*
X264975000Y-61575000D01*
X231500000Y-94825000D02*
X239589000Y-94825000D01*
X239589000Y-77825000D02*
X240500000Y-78736000D01*
X180150000Y-97050000D02*
X179925000Y-97275000D01*
X276500000Y-78736000D02*
X278179000Y-78736000D01*
X221589000Y-60825000D02*
X222500000Y-61736000D01*
X205290481Y-115000000D02*
X203980184Y-116310297D01*
X280775000Y-106950000D02*
X282825000Y-109000000D01*
X228650000Y-61900000D02*
X228975000Y-61575000D01*
X282550000Y-62000000D02*
X282975000Y-61575000D01*
X231500000Y-60825000D02*
X239589000Y-60825000D01*
X179925000Y-97275000D02*
X179925000Y-98425000D01*
X296778157Y-61736000D02*
X296942157Y-61900000D01*
X282975000Y-61575000D02*
X282975000Y-60825000D01*
X176500000Y-121000000D02*
X178000000Y-122500000D01*
X260942157Y-78900000D02*
X264650000Y-78900000D01*
%TO.N,P010*%
X201089160Y-119623920D02*
X207965240Y-126500000D01*
X180153700Y-76081300D02*
X181355000Y-74880000D01*
X257050000Y-113950000D02*
X294965000Y-113950000D01*
X197215078Y-120362684D02*
X199059424Y-120362684D01*
X183000000Y-89500000D02*
X180153700Y-86653700D01*
X297125000Y-113950000D02*
X294965000Y-113950000D01*
X184174693Y-125780283D02*
X191797479Y-125780283D01*
X191797479Y-125780283D02*
X197215078Y-120362684D01*
X182883721Y-125780283D02*
X182144957Y-126519047D01*
X201089160Y-119623920D02*
X199798188Y-119623920D01*
X190000000Y-103000000D02*
X189788943Y-102788943D01*
X207965240Y-126500000D02*
X244500000Y-126500000D01*
X180153700Y-86653700D02*
X180153700Y-76081300D01*
X189788943Y-102788943D02*
X183788943Y-102788943D01*
X183788943Y-102788943D02*
X183000000Y-102000000D01*
X199798188Y-119623920D02*
X199059424Y-120362684D01*
X184174693Y-125780283D02*
X182883721Y-125780283D01*
X244500000Y-126500000D02*
X257050000Y-113950000D01*
X183000000Y-102000000D02*
X183000000Y-89500000D01*
%TO.N,P011*%
X195393700Y-73541300D02*
X196595000Y-72340000D01*
X198446269Y-138676876D02*
X197155297Y-138676876D01*
X186000000Y-101500000D02*
X186000000Y-97000000D01*
X186000000Y-97000000D02*
X195393700Y-87606300D01*
X195393700Y-87606300D02*
X195393700Y-73541300D01*
X197155297Y-138676876D02*
X196416533Y-139415640D01*
%TO.N,P009*%
X279125000Y-96950000D02*
X280402500Y-98227500D01*
X208402500Y-98227500D02*
X221687500Y-98227500D01*
X275687500Y-98227500D02*
X276965000Y-96950000D01*
X207125000Y-96950000D02*
X208402500Y-98227500D01*
X258965000Y-96950000D02*
X261125000Y-96950000D01*
X240965000Y-96950000D02*
X243125000Y-96950000D01*
X221687500Y-98227500D02*
X222965000Y-96950000D01*
X261125000Y-96950000D02*
X262402500Y-98227500D01*
X204965000Y-96950000D02*
X207125000Y-96950000D01*
X182512653Y-88012653D02*
X184000000Y-89500000D01*
X244402500Y-98227500D02*
X257687500Y-98227500D01*
X257687500Y-98227500D02*
X258965000Y-96950000D01*
X276965000Y-96950000D02*
X279125000Y-96950000D01*
X226402500Y-98227500D02*
X239687500Y-98227500D01*
X225125000Y-96950000D02*
X226402500Y-98227500D01*
X239687500Y-98227500D02*
X240965000Y-96950000D01*
X280402500Y-98227500D02*
X293687500Y-98227500D01*
X294965000Y-96950000D02*
X297125000Y-96950000D01*
X293687500Y-98227500D02*
X294965000Y-96950000D01*
X262402500Y-98227500D02*
X275687500Y-98227500D01*
X243125000Y-96950000D02*
X244402500Y-98227500D01*
X222965000Y-96950000D02*
X225125000Y-96950000D01*
X182512653Y-87987347D02*
X182512653Y-88012653D01*
%TO.N,P106*%
X243125000Y-79950000D02*
X244050000Y-80875000D01*
X225125000Y-79950000D02*
X226725000Y-79950000D01*
X249753342Y-82925000D02*
X255990000Y-82925000D01*
X265703342Y-80875000D02*
X266328342Y-81500000D01*
X255990000Y-82925000D02*
X258965000Y-79950000D01*
X226725000Y-79950000D02*
X228275000Y-81500000D01*
X258965000Y-79950000D02*
X261125000Y-79950000D01*
X221415000Y-81500000D02*
X222965000Y-79950000D01*
X293687500Y-81227500D02*
X294965000Y-79950000D01*
X243125000Y-79950000D02*
X240965000Y-79950000D01*
X239415000Y-81500000D02*
X240965000Y-79950000D01*
X210000000Y-81500000D02*
X221415000Y-81500000D01*
X266328342Y-81500000D02*
X275415000Y-81500000D01*
X203000000Y-80000000D02*
X200420000Y-77420000D01*
X207125000Y-79950000D02*
X208450000Y-79950000D01*
X275415000Y-81500000D02*
X276965000Y-79950000D01*
X207125000Y-79950000D02*
X204965000Y-79950000D01*
X208450000Y-79950000D02*
X210000000Y-81500000D01*
X222965000Y-79950000D02*
X225125000Y-79950000D01*
X200420000Y-77420000D02*
X196595000Y-77420000D01*
X262050000Y-80875000D02*
X265703342Y-80875000D01*
X280725000Y-79950000D02*
X282002500Y-81227500D01*
X279125000Y-79950000D02*
X276965000Y-79950000D01*
X247703342Y-80875000D02*
X249753342Y-82925000D01*
X228275000Y-81500000D02*
X239415000Y-81500000D01*
X244050000Y-80875000D02*
X247703342Y-80875000D01*
X261125000Y-79950000D02*
X262050000Y-80875000D01*
X279125000Y-79950000D02*
X280725000Y-79950000D01*
X282002500Y-81227500D02*
X293687500Y-81227500D01*
X297125000Y-79950000D02*
X294965000Y-79950000D01*
%TO.N,P104*%
X279125000Y-62950000D02*
X276965000Y-62950000D01*
X291990000Y-65925000D02*
X294965000Y-62950000D01*
X262050000Y-63875000D02*
X265375000Y-63875000D01*
X197796300Y-67703700D02*
X197796300Y-73678700D01*
X246275000Y-64500000D02*
X257415000Y-64500000D01*
X243125000Y-62950000D02*
X244725000Y-62950000D01*
X275687500Y-64227500D02*
X276965000Y-62950000D01*
X226376650Y-62950000D02*
X227926650Y-64500000D01*
X202500000Y-63000000D02*
X197796300Y-67703700D01*
X265375000Y-63875000D02*
X265727500Y-64227500D01*
X197796300Y-73678700D02*
X196595000Y-74880000D01*
X204965000Y-62950000D02*
X207125000Y-62950000D01*
X279125000Y-62950000D02*
X280725000Y-62950000D01*
X239415000Y-64500000D02*
X240965000Y-62950000D01*
X222965000Y-62950000D02*
X225125000Y-62950000D01*
X257415000Y-64500000D02*
X258965000Y-62950000D01*
X227926650Y-64500000D02*
X239415000Y-64500000D01*
X265727500Y-64227500D02*
X275687500Y-64227500D01*
X283700000Y-65925000D02*
X291990000Y-65925000D01*
X221415000Y-64500000D02*
X222965000Y-62950000D01*
X225125000Y-62950000D02*
X226376650Y-62950000D01*
X294965000Y-62950000D02*
X297125000Y-62950000D01*
X240965000Y-62950000D02*
X243125000Y-62950000D01*
X244725000Y-62950000D02*
X246275000Y-64500000D01*
X258965000Y-62950000D02*
X261125000Y-62950000D01*
X209926650Y-64500000D02*
X221415000Y-64500000D01*
X207125000Y-62950000D02*
X208376650Y-62950000D01*
X261125000Y-62950000D02*
X262050000Y-63875000D01*
X208376650Y-62950000D02*
X209926650Y-64500000D01*
X280725000Y-62950000D02*
X283700000Y-65925000D01*
%TO.N,RAW*%
X179197003Y-105697003D02*
X178000000Y-104500000D01*
X179197003Y-105837019D02*
X179197003Y-105697003D01*
%TO.N,RST*%
X181625000Y-89625000D02*
X181000000Y-89000000D01*
X181625000Y-97275000D02*
X181400000Y-97050000D01*
X181625000Y-92025000D02*
X181625000Y-89625000D01*
X181400000Y-92250000D02*
X181625000Y-92025000D01*
X181400000Y-97050000D02*
X181400000Y-92250000D01*
%TO.N,P017*%
X194493700Y-78506300D02*
X194493700Y-61741300D01*
X183895000Y-80425000D02*
X185520000Y-78800000D01*
X194200000Y-78800000D02*
X194493700Y-78506300D01*
X194493700Y-61741300D02*
X196595000Y-59640000D01*
X185520000Y-78800000D02*
X194200000Y-78800000D01*
%TO.N,P020*%
X194943700Y-63831300D02*
X196595000Y-62180000D01*
X194943700Y-79056300D02*
X194943700Y-63831300D01*
X187610000Y-79250000D02*
X194750000Y-79250000D01*
X186435000Y-80425000D02*
X187610000Y-79250000D01*
X194750000Y-79250000D02*
X194943700Y-79056300D01*
%TO.N,pos*%
X279000000Y-110500000D02*
X277000000Y-112500000D01*
X188645389Y-103238943D02*
X180697003Y-103238943D01*
X279000000Y-106000000D02*
X279000000Y-110500000D01*
X256590812Y-112500000D02*
X244040812Y-125050000D01*
X280050000Y-104950000D02*
X279000000Y-106000000D01*
X210000000Y-123863604D02*
X210000000Y-116363604D01*
X280775000Y-104950000D02*
X280050000Y-104950000D01*
X194858993Y-109452547D02*
X188645389Y-103238943D01*
X277000000Y-112500000D02*
X256590812Y-112500000D01*
X203088943Y-109452547D02*
X194858993Y-109452547D01*
X210000000Y-116363604D02*
X203088943Y-109452547D01*
X244040812Y-125050000D02*
X211186396Y-125050000D01*
X211186396Y-125050000D02*
X210000000Y-123863604D01*
%TD*%
M02*
