%TF.GenerationSoftware,KiCad,Pcbnew,8.0.5*%
%TF.CreationDate,2024-09-15T18:22:07-04:00*%
%TF.ProjectId,theguy2,74686567-7579-4322-9e6b-696361645f70,v1.0.0*%
%TF.SameCoordinates,Original*%
%TF.FileFunction,Soldermask,Top*%
%TF.FilePolarity,Negative*%
%FSLAX46Y46*%
G04 Gerber Fmt 4.6, Leading zero omitted, Abs format (unit mm)*
G04 Created by KiCad (PCBNEW 8.0.5) date 2024-09-15 18:22:07*
%MOMM*%
%LPD*%
G01*
G04 APERTURE LIST*
G04 Aperture macros list*
%AMRoundRect*
0 Rectangle with rounded corners*
0 $1 Rounding radius*
0 $2 $3 $4 $5 $6 $7 $8 $9 X,Y pos of 4 corners*
0 Add a 4 corners polygon primitive as box body*
4,1,4,$2,$3,$4,$5,$6,$7,$8,$9,$2,$3,0*
0 Add four circle primitives for the rounded corners*
1,1,$1+$1,$2,$3*
1,1,$1+$1,$4,$5*
1,1,$1+$1,$6,$7*
1,1,$1+$1,$8,$9*
0 Add four rect primitives between the rounded corners*
20,1,$1+$1,$2,$3,$4,$5,0*
20,1,$1+$1,$4,$5,$6,$7,0*
20,1,$1+$1,$6,$7,$8,$9,0*
20,1,$1+$1,$8,$9,$2,$3,0*%
G04 Aperture macros list end*
%ADD10RoundRect,0.050000X0.164711X-0.614711X0.614711X0.164711X-0.164711X0.614711X-0.614711X-0.164711X0*%
%ADD11C,1.100000*%
%ADD12RoundRect,0.050000X0.316266X-0.702211X0.766266X0.077211X-0.316266X0.702211X-0.766266X-0.077211X0*%
%ADD13RoundRect,0.050000X-1.300000X-0.500000X1.300000X-0.500000X1.300000X0.500000X-1.300000X0.500000X0*%
%ADD14C,1.801800*%
%ADD15C,3.100000*%
%ADD16C,3.529000*%
%ADD17C,4.100000*%
%ADD18C,1.852600*%
%ADD19RoundRect,0.050000X-0.889000X-0.889000X0.889000X-0.889000X0.889000X0.889000X-0.889000X0.889000X0*%
%ADD20RoundRect,0.050000X-0.450000X-0.600000X0.450000X-0.600000X0.450000X0.600000X-0.450000X0.600000X0*%
%ADD21C,2.005000*%
%ADD22RoundRect,0.050000X-0.531331X-1.139443X1.139443X-0.531331X0.531331X1.139443X-1.139443X0.531331X0*%
%ADD23RoundRect,0.050000X-0.217650X-0.717725X0.628074X-0.409907X0.217650X0.717725X-0.628074X0.409907X0*%
%ADD24RoundRect,0.050000X-0.850000X0.600000X-0.850000X-0.600000X0.850000X-0.600000X0.850000X0.600000X0*%
%ADD25O,1.800000X1.300000*%
%ADD26C,0.850000*%
%ADD27RoundRect,0.050000X0.500000X-0.775000X0.500000X0.775000X-0.500000X0.775000X-0.500000X-0.775000X0*%
%ADD28O,1.800000X1.800000*%
%ADD29RoundRect,0.050000X-0.850000X-0.850000X0.850000X-0.850000X0.850000X0.850000X-0.850000X0.850000X0*%
%ADD30RoundRect,0.050000X-1.050590X-0.914472X1.392610X-0.025220X1.050590X0.914472X-1.392610X0.025220X0*%
G04 APERTURE END LIST*
D10*
%TO.C,T1*%
X174972372Y-106804294D03*
X176877628Y-107904294D03*
D11*
X177025000Y-105449038D03*
X178525000Y-102850962D03*
D10*
X178672372Y-100395706D03*
X180577628Y-101495706D03*
D12*
X180697003Y-103238943D03*
X179197003Y-105837019D03*
X178447003Y-107136057D03*
%TD*%
D13*
%TO.C,LED4*%
X296575000Y-110075000D03*
X296575000Y-111825000D03*
X300975000Y-111825000D03*
X300975000Y-110075000D03*
%TD*%
%TO.C,LED8*%
X278575000Y-93075000D03*
X278575000Y-94825000D03*
X282975000Y-94825000D03*
X282975000Y-93075000D03*
%TD*%
D14*
%TO.C,S17*%
X221275000Y-88950000D03*
D15*
X226775000Y-83000000D03*
D16*
X226775000Y-88950000D03*
D15*
X231775000Y-85200000D03*
D14*
X232275000Y-88950000D03*
%TD*%
D17*
%TO.C,*%
X253775000Y-122200000D03*
%TD*%
D14*
%TO.C,S14*%
X239275000Y-88950000D03*
D15*
X244775000Y-83000000D03*
D16*
X244775000Y-88950000D03*
D15*
X249775000Y-85200000D03*
D14*
X250275000Y-88950000D03*
%TD*%
D17*
%TO.C,*%
X288775000Y-63500000D03*
%TD*%
D18*
%TO.C,MCU1*%
X196595000Y-49480000D03*
X196595000Y-52020000D03*
X196595000Y-54560000D03*
X196595000Y-57100000D03*
X196595000Y-59640000D03*
X196595000Y-62180000D03*
X196595000Y-64720000D03*
X196595000Y-67260000D03*
X196595000Y-69800000D03*
X196595000Y-72340000D03*
X196595000Y-74880000D03*
X196595000Y-77420000D03*
X181355000Y-77420000D03*
X181355000Y-74880000D03*
X181355000Y-72340000D03*
X181355000Y-69800000D03*
X181355000Y-67260000D03*
X181355000Y-64720000D03*
X181355000Y-62180000D03*
X181355000Y-59640000D03*
X181355000Y-57100000D03*
X181355000Y-54560000D03*
X181355000Y-52020000D03*
X181355000Y-49480000D03*
X183895000Y-72340000D03*
X186435000Y-72340000D03*
X188975000Y-72340000D03*
%TD*%
D13*
%TO.C,LED17*%
X224575000Y-93075000D03*
X224575000Y-94825000D03*
X228975000Y-94825000D03*
X228975000Y-93075000D03*
%TD*%
D19*
%TO.C,D6*%
X294965000Y-79950000D03*
D20*
X297125000Y-79950000D03*
X300425000Y-79950000D03*
D21*
X302585000Y-79950000D03*
%TD*%
D13*
%TO.C,LED6*%
X296575000Y-76075000D03*
X296575000Y-77825000D03*
X300975000Y-77825000D03*
X300975000Y-76075000D03*
%TD*%
D14*
%TO.C,S11*%
X257275000Y-88950000D03*
D15*
X262775000Y-83000000D03*
D16*
X262775000Y-88950000D03*
D15*
X267775000Y-85200000D03*
D14*
X268275000Y-88950000D03*
%TD*%
%TO.C,S13*%
X257275000Y-54950000D03*
D15*
X262775000Y-49000000D03*
D16*
X262775000Y-54950000D03*
D15*
X267775000Y-51200000D03*
D14*
X268275000Y-54950000D03*
%TD*%
D13*
%TO.C,LED10*%
X278575000Y-59075000D03*
X278575000Y-60825000D03*
X282975000Y-60825000D03*
X282975000Y-59075000D03*
%TD*%
%TO.C,LED5*%
X296575000Y-93075000D03*
X296575000Y-94825000D03*
X300975000Y-94825000D03*
X300975000Y-93075000D03*
%TD*%
D19*
%TO.C,D11*%
X258965000Y-96950000D03*
D20*
X261125000Y-96950000D03*
X264425000Y-96950000D03*
D21*
X266585000Y-96950000D03*
%TD*%
D13*
%TO.C,LED15*%
X242575000Y-76075000D03*
X242575000Y-77825000D03*
X246975000Y-77825000D03*
X246975000Y-76075000D03*
%TD*%
D19*
%TO.C,D7*%
X294965000Y-62950000D03*
D20*
X297125000Y-62950000D03*
X300425000Y-62950000D03*
D21*
X302585000Y-62950000D03*
%TD*%
D14*
%TO.C,S23*%
X194735183Y-113423158D03*
D15*
X197868472Y-105950876D03*
D16*
X199903492Y-111542047D03*
D15*
X203319380Y-106308099D03*
D14*
X205071801Y-109660936D03*
%TD*%
D19*
%TO.C,D12*%
X258965000Y-79950000D03*
D20*
X261125000Y-79950000D03*
X264425000Y-79950000D03*
D21*
X266585000Y-79950000D03*
%TD*%
D17*
%TO.C,*%
X185217332Y-141363460D03*
%TD*%
D13*
%TO.C,LED14*%
X242575000Y-93075000D03*
X242575000Y-94825000D03*
X246975000Y-94825000D03*
X246975000Y-93075000D03*
%TD*%
D19*
%TO.C,D8*%
X276965000Y-96950000D03*
D20*
X279125000Y-96950000D03*
X282425000Y-96950000D03*
D21*
X284585000Y-96950000D03*
%TD*%
D19*
%TO.C,D13*%
X258965000Y-62950000D03*
D20*
X261125000Y-62950000D03*
X264425000Y-62950000D03*
D21*
X266585000Y-62950000D03*
%TD*%
D19*
%TO.C,D19*%
X222965000Y-62950000D03*
D20*
X225125000Y-62950000D03*
X228425000Y-62950000D03*
D21*
X230585000Y-62950000D03*
%TD*%
D13*
%TO.C,LED18*%
X224575000Y-76075000D03*
X224575000Y-77825000D03*
X228975000Y-77825000D03*
X228975000Y-76075000D03*
%TD*%
D14*
%TO.C,S15*%
X239275000Y-71950000D03*
D15*
X244775000Y-66000000D03*
D16*
X244775000Y-71950000D03*
D15*
X249775000Y-68200000D03*
D14*
X250275000Y-71950000D03*
%TD*%
D19*
%TO.C,D17*%
X222965000Y-96950000D03*
D20*
X225125000Y-96950000D03*
X228425000Y-96950000D03*
D21*
X230585000Y-96950000D03*
%TD*%
D17*
%TO.C,*%
X305775000Y-110950000D03*
%TD*%
D13*
%TO.C,LED21*%
X206575000Y-76075000D03*
X206575000Y-77825000D03*
X210975000Y-77825000D03*
X210975000Y-76075000D03*
%TD*%
D19*
%TO.C,D5*%
X294965000Y-96950000D03*
D20*
X297125000Y-96950000D03*
X300425000Y-96950000D03*
D21*
X302585000Y-96950000D03*
%TD*%
D14*
%TO.C,S20*%
X203275000Y-88950000D03*
D15*
X208775000Y-83000000D03*
D16*
X208775000Y-88950000D03*
D15*
X213775000Y-85200000D03*
D14*
X214275000Y-88950000D03*
%TD*%
D19*
%TO.C,D20*%
X204965000Y-96950000D03*
D20*
X207125000Y-96950000D03*
X210425000Y-96950000D03*
D21*
X212585000Y-96950000D03*
%TD*%
D13*
%TO.C,LED19*%
X224575000Y-59075000D03*
X224575000Y-60825000D03*
X228975000Y-60825000D03*
X228975000Y-59075000D03*
%TD*%
D19*
%TO.C,D10*%
X276965000Y-62950000D03*
D20*
X279125000Y-62950000D03*
X282425000Y-62950000D03*
D21*
X284585000Y-62950000D03*
%TD*%
D14*
%TO.C,S16*%
X239275000Y-54950000D03*
D15*
X244775000Y-49000000D03*
D16*
X244775000Y-54950000D03*
D15*
X249775000Y-51200000D03*
D14*
X250275000Y-54950000D03*
%TD*%
D22*
%TO.C,D25*%
X196416533Y-139415640D03*
D23*
X198446269Y-138676876D03*
X201547255Y-137548210D03*
D21*
X203576991Y-136809446D03*
%TD*%
D14*
%TO.C,S24*%
X177820716Y-119579520D03*
D15*
X180954005Y-112107238D03*
D16*
X182989025Y-117698409D03*
D15*
X186404913Y-112464461D03*
D14*
X188157334Y-115817298D03*
%TD*%
D13*
%TO.C,LED9*%
X278575000Y-76075000D03*
X278575000Y-77825000D03*
X282975000Y-77825000D03*
X282975000Y-76075000D03*
%TD*%
D24*
%TO.C,JST1*%
X280775000Y-104950000D03*
D25*
X280775000Y-106950000D03*
%TD*%
D14*
%TO.C,S8*%
X275275000Y-88950000D03*
D15*
X280775000Y-83000000D03*
D16*
X280775000Y-88950000D03*
D15*
X285775000Y-85200000D03*
D14*
X286275000Y-88950000D03*
%TD*%
D13*
%TO.C,LED22*%
X206575000Y-59075000D03*
X206575000Y-60825000D03*
X210975000Y-60825000D03*
X210975000Y-59075000D03*
%TD*%
D14*
%TO.C,S7*%
X293275000Y-54950000D03*
D15*
X298775000Y-49000000D03*
D16*
X298775000Y-54950000D03*
D15*
X303775000Y-51200000D03*
D14*
X304275000Y-54950000D03*
%TD*%
D19*
%TO.C,D4*%
X294965000Y-113950000D03*
D20*
X297125000Y-113950000D03*
X300425000Y-113950000D03*
D21*
X302585000Y-113950000D03*
%TD*%
D14*
%TO.C,S21*%
X203275000Y-71950000D03*
D15*
X208775000Y-66000000D03*
D16*
X208775000Y-71950000D03*
D15*
X213775000Y-68200000D03*
D14*
X214275000Y-71950000D03*
%TD*%
D19*
%TO.C,D15*%
X240965000Y-79950000D03*
D20*
X243125000Y-79950000D03*
X246425000Y-79950000D03*
D21*
X248585000Y-79950000D03*
%TD*%
D14*
%TO.C,S25*%
X192092292Y-132476113D03*
D15*
X195225581Y-125003831D03*
D16*
X197260601Y-130595002D03*
D15*
X200676489Y-125361054D03*
D14*
X202428910Y-128713891D03*
%TD*%
%TO.C,S6*%
X293275000Y-71950000D03*
D15*
X298775000Y-66000000D03*
D16*
X298775000Y-71950000D03*
D15*
X303775000Y-68200000D03*
D14*
X304275000Y-71950000D03*
%TD*%
D19*
%TO.C,D18*%
X222965000Y-79950000D03*
D20*
X225125000Y-79950000D03*
X228425000Y-79950000D03*
D21*
X230585000Y-79950000D03*
%TD*%
D26*
%TO.C,B1*%
X179400000Y-94650000D03*
X182150000Y-94650000D03*
D27*
X179925000Y-97275000D03*
X179925000Y-92025000D03*
X181625000Y-97275000D03*
X181625000Y-92025000D03*
%TD*%
D19*
%TO.C,D21*%
X204965000Y-79950000D03*
D20*
X207125000Y-79950000D03*
X210425000Y-79950000D03*
D21*
X212585000Y-79950000D03*
%TD*%
D14*
%TO.C,S10*%
X275275000Y-54950000D03*
D15*
X280775000Y-49000000D03*
D16*
X280775000Y-54950000D03*
D15*
X285775000Y-51200000D03*
D14*
X286275000Y-54950000D03*
%TD*%
%TO.C,S5*%
X293275000Y-88950000D03*
D15*
X298775000Y-83000000D03*
D16*
X298775000Y-88950000D03*
D15*
X303775000Y-85200000D03*
D14*
X304275000Y-88950000D03*
%TD*%
D22*
%TO.C,D23*%
X199059424Y-120362684D03*
D23*
X201089160Y-119623920D03*
X204190146Y-118495254D03*
D21*
X206219882Y-117756490D03*
%TD*%
D13*
%TO.C,LED13*%
X260575000Y-59075000D03*
X260575000Y-60825000D03*
X264975000Y-60825000D03*
X264975000Y-59075000D03*
%TD*%
D28*
%TO.C,niceView1*%
X194055000Y-80425000D03*
D29*
X191515000Y-80425000D03*
D28*
X188975000Y-80425000D03*
X186435000Y-80425000D03*
X183895000Y-80425000D03*
%TD*%
D17*
%TO.C,*%
X188775000Y-50450000D03*
%TD*%
D19*
%TO.C,D14*%
X240965000Y-96950000D03*
D20*
X243125000Y-96950000D03*
X246425000Y-96950000D03*
D21*
X248585000Y-96950000D03*
%TD*%
D19*
%TO.C,D16*%
X240965000Y-62950000D03*
D20*
X243125000Y-62950000D03*
X246425000Y-62950000D03*
D21*
X248585000Y-62950000D03*
%TD*%
D17*
%TO.C,*%
X190775000Y-96950000D03*
%TD*%
D13*
%TO.C,LED11*%
X260575000Y-93075000D03*
X260575000Y-94825000D03*
X264975000Y-94825000D03*
X264975000Y-93075000D03*
%TD*%
D30*
%TO.C,LED24*%
X182332535Y-122327085D03*
X182931070Y-123971547D03*
X187065717Y-122466659D03*
X186467182Y-120822197D03*
%TD*%
D14*
%TO.C,S22*%
X203275000Y-54950000D03*
D15*
X208775000Y-49000000D03*
D16*
X208775000Y-54950000D03*
D15*
X213775000Y-51200000D03*
D14*
X214275000Y-54950000D03*
%TD*%
D30*
%TO.C,LED23*%
X199247002Y-116170723D03*
X199845537Y-117815185D03*
X203980184Y-116310297D03*
X203381649Y-114665835D03*
%TD*%
D13*
%TO.C,LED12*%
X260575000Y-76075000D03*
X260575000Y-77825000D03*
X264975000Y-77825000D03*
X264975000Y-76075000D03*
%TD*%
%TO.C,LED20*%
X206575000Y-93075000D03*
X206575000Y-94825000D03*
X210975000Y-94825000D03*
X210975000Y-93075000D03*
%TD*%
D14*
%TO.C,S18*%
X221275000Y-71950000D03*
D15*
X226775000Y-66000000D03*
D16*
X226775000Y-71950000D03*
D15*
X231775000Y-68200000D03*
D14*
X232275000Y-71950000D03*
%TD*%
%TO.C,S4*%
X293275000Y-105950000D03*
D15*
X298775000Y-100000000D03*
D16*
X298775000Y-105950000D03*
D15*
X303775000Y-102200000D03*
D14*
X304275000Y-105950000D03*
%TD*%
D19*
%TO.C,D22*%
X204965000Y-62950000D03*
D20*
X207125000Y-62950000D03*
X210425000Y-62950000D03*
D21*
X212585000Y-62950000D03*
%TD*%
D30*
%TO.C,LED25*%
X196604111Y-135223678D03*
X197202646Y-136868140D03*
X201337293Y-135363252D03*
X200738758Y-133718790D03*
%TD*%
D17*
%TO.C,*%
X253775000Y-80500000D03*
%TD*%
D22*
%TO.C,D24*%
X182144957Y-126519047D03*
D23*
X184174693Y-125780283D03*
X187275679Y-124651617D03*
D21*
X189305415Y-123912853D03*
%TD*%
D13*
%TO.C,LED7*%
X296575000Y-59075000D03*
X296575000Y-60825000D03*
X300975000Y-60825000D03*
X300975000Y-59075000D03*
%TD*%
D14*
%TO.C,S9*%
X275275000Y-71950000D03*
D15*
X280775000Y-66000000D03*
D16*
X280775000Y-71950000D03*
D15*
X285775000Y-68200000D03*
D14*
X286275000Y-71950000D03*
%TD*%
D19*
%TO.C,D9*%
X276965000Y-79950000D03*
D20*
X279125000Y-79950000D03*
X282425000Y-79950000D03*
D21*
X284585000Y-79950000D03*
%TD*%
D13*
%TO.C,LED16*%
X242575000Y-59075000D03*
X242575000Y-60825000D03*
X246975000Y-60825000D03*
X246975000Y-59075000D03*
%TD*%
D14*
%TO.C,S12*%
X257275000Y-71950000D03*
D15*
X262775000Y-66000000D03*
D16*
X262775000Y-71950000D03*
D15*
X267775000Y-68200000D03*
D14*
X268275000Y-71950000D03*
%TD*%
%TO.C,S19*%
X221275000Y-54950000D03*
D15*
X226775000Y-49000000D03*
D16*
X226775000Y-54950000D03*
D15*
X231775000Y-51200000D03*
D14*
X232275000Y-54950000D03*
%TD*%
M02*
