%TF.GenerationSoftware,KiCad,Pcbnew,8.0.5*%
%TF.CreationDate,2024-09-15T18:22:06-04:00*%
%TF.ProjectId,theguy2,74686567-7579-4322-9e6b-696361645f70,v1.0.0*%
%TF.SameCoordinates,Original*%
%TF.FileFunction,Copper,L2,Bot*%
%TF.FilePolarity,Positive*%
%FSLAX46Y46*%
G04 Gerber Fmt 4.6, Leading zero omitted, Abs format (unit mm)*
G04 Created by KiCad (PCBNEW 8.0.5) date 2024-09-15 18:22:06*
%MOMM*%
%LPD*%
G01*
G04 APERTURE LIST*
G04 Aperture macros list*
%AMRotRect*
0 Rectangle, with rotation*
0 The origin of the aperture is its center*
0 $1 length*
0 $2 width*
0 $3 Rotation angle, in degrees counterclockwise*
0 Add horizontal line*
21,1,$1,$2,0,0,$3*%
G04 Aperture macros list end*
%TA.AperFunction,WasherPad*%
%ADD10C,1.000000*%
%TD*%
%TA.AperFunction,SMDPad,CuDef*%
%ADD11R,2.600000X1.000000*%
%TD*%
%TA.AperFunction,SMDPad,CuDef*%
%ADD12R,2.600000X2.600000*%
%TD*%
%TA.AperFunction,ComponentPad*%
%ADD13C,1.752600*%
%TD*%
%TA.AperFunction,ComponentPad*%
%ADD14R,1.778000X1.778000*%
%TD*%
%TA.AperFunction,SMDPad,CuDef*%
%ADD15R,0.900000X1.200000*%
%TD*%
%TA.AperFunction,ComponentPad*%
%ADD16C,1.905000*%
%TD*%
%TA.AperFunction,SMDPad,CuDef*%
%ADD17RotRect,2.600000X2.600000X20.000000*%
%TD*%
%TA.AperFunction,ComponentPad*%
%ADD18RotRect,1.778000X1.778000X20.000000*%
%TD*%
%TA.AperFunction,SMDPad,CuDef*%
%ADD19RotRect,0.900000X1.200000X20.000000*%
%TD*%
%TA.AperFunction,ComponentPad*%
%ADD20R,1.700000X1.200000*%
%TD*%
%TA.AperFunction,ComponentPad*%
%ADD21O,1.700000X1.200000*%
%TD*%
%TA.AperFunction,ComponentPad*%
%ADD22O,1.700000X1.700000*%
%TD*%
%TA.AperFunction,ComponentPad*%
%ADD23R,1.700000X1.700000*%
%TD*%
%TA.AperFunction,SMDPad,CuDef*%
%ADD24RotRect,2.600000X1.000000X20.000000*%
%TD*%
%TA.AperFunction,ViaPad*%
%ADD25C,0.800000*%
%TD*%
%TA.AperFunction,Conductor*%
%ADD26C,0.250000*%
%TD*%
G04 APERTURE END LIST*
D10*
%TO.P,T1,*%
%TO.N,*%
X177025000Y-105449038D03*
X178525000Y-102850962D03*
%TD*%
D11*
%TO.P,LED4,1*%
%TO.N,VCC*%
X296575000Y-111825000D03*
%TO.P,LED4,2*%
%TO.N,N/C*%
X296575000Y-110075000D03*
%TO.P,LED4,3*%
%TO.N,GND*%
X300975000Y-110075000D03*
%TO.P,LED4,4*%
%TO.N,N/C*%
X300975000Y-111825000D03*
%TD*%
%TO.P,LED8,1*%
%TO.N,VCC*%
X278575000Y-94825000D03*
%TO.P,LED8,2*%
%TO.N,N/C*%
X278575000Y-93075000D03*
%TO.P,LED8,3*%
%TO.N,GND*%
X282975000Y-93075000D03*
%TO.P,LED8,4*%
%TO.N,N/C*%
X282975000Y-94825000D03*
%TD*%
D12*
%TO.P,S17,1*%
%TO.N,P113*%
X223500000Y-83000000D03*
%TO.P,S17,2*%
%TO.N,mirror_index_bottom*%
X235050000Y-85200000D03*
%TD*%
%TO.P,S14,1*%
%TO.N,P115*%
X241500000Y-83000000D03*
%TO.P,S14,2*%
%TO.N,mirror_middle_bottom*%
X253050000Y-85200000D03*
%TD*%
D13*
%TO.P,MCU1,1*%
%TO.N,P006*%
X196595000Y-49480000D03*
%TO.P,MCU1,2*%
%TO.N,P008*%
X196595000Y-52020000D03*
%TO.P,MCU1,3*%
%TO.N,GND*%
X196595000Y-54560000D03*
%TO.P,MCU1,4*%
X196595000Y-57100000D03*
%TO.P,MCU1,5*%
%TO.N,P017*%
X196595000Y-59640000D03*
%TO.P,MCU1,6*%
%TO.N,P020*%
X196595000Y-62180000D03*
%TO.P,MCU1,7*%
%TO.N,P022*%
X196595000Y-64720000D03*
%TO.P,MCU1,8*%
%TO.N,P024*%
X196595000Y-67260000D03*
%TO.P,MCU1,9*%
%TO.N,P100*%
X196595000Y-69800000D03*
%TO.P,MCU1,10*%
%TO.N,P011*%
X196595000Y-72340000D03*
%TO.P,MCU1,11*%
%TO.N,P104*%
X196595000Y-74880000D03*
%TO.P,MCU1,12*%
%TO.N,P106*%
X196595000Y-77420000D03*
%TO.P,MCU1,13*%
%TO.N,P009*%
X181355000Y-77420000D03*
%TO.P,MCU1,14*%
%TO.N,P010*%
X181355000Y-74880000D03*
%TO.P,MCU1,15*%
%TO.N,P111*%
X181355000Y-72340000D03*
%TO.P,MCU1,16*%
%TO.N,P113*%
X181355000Y-69800000D03*
%TO.P,MCU1,17*%
%TO.N,P115*%
X181355000Y-67260000D03*
%TO.P,MCU1,18*%
%TO.N,P002*%
X181355000Y-64720000D03*
%TO.P,MCU1,19*%
%TO.N,P029*%
X181355000Y-62180000D03*
%TO.P,MCU1,20*%
%TO.N,P031*%
X181355000Y-59640000D03*
%TO.P,MCU1,21*%
%TO.N,VCC*%
X181355000Y-57100000D03*
%TO.P,MCU1,22*%
%TO.N,RST*%
X181355000Y-54560000D03*
%TO.P,MCU1,23*%
%TO.N,GND*%
X181355000Y-52020000D03*
%TO.P,MCU1,24*%
%TO.N,RAW*%
X181355000Y-49480000D03*
%TO.P,MCU1,31*%
%TO.N,P101*%
X183895000Y-72340000D03*
%TO.P,MCU1,32*%
%TO.N,P102*%
X186435000Y-72340000D03*
%TO.P,MCU1,33*%
%TO.N,P107*%
X188975000Y-72340000D03*
%TD*%
D11*
%TO.P,LED17,1*%
%TO.N,VCC*%
X224575000Y-94825000D03*
%TO.P,LED17,2*%
%TO.N,N/C*%
X224575000Y-93075000D03*
%TO.P,LED17,3*%
%TO.N,GND*%
X228975000Y-93075000D03*
%TO.P,LED17,4*%
%TO.N,N/C*%
X228975000Y-94825000D03*
%TD*%
D14*
%TO.P,D6,1*%
%TO.N,P106*%
X294965000Y-79950000D03*
D15*
X297125000Y-79950000D03*
%TO.P,D6,2*%
%TO.N,mirror_hell_home*%
X300425000Y-79950000D03*
D16*
X302585000Y-79950000D03*
%TD*%
D11*
%TO.P,LED6,1*%
%TO.N,VCC*%
X296575000Y-77825000D03*
%TO.P,LED6,2*%
%TO.N,N/C*%
X296575000Y-76075000D03*
%TO.P,LED6,3*%
%TO.N,GND*%
X300975000Y-76075000D03*
%TO.P,LED6,4*%
%TO.N,N/C*%
X300975000Y-77825000D03*
%TD*%
D12*
%TO.P,S11,1*%
%TO.N,P002*%
X259500000Y-83000000D03*
%TO.P,S11,2*%
%TO.N,mirror_ring_bottom*%
X271050000Y-85200000D03*
%TD*%
%TO.P,S13,1*%
%TO.N,P002*%
X259500000Y-49000000D03*
%TO.P,S13,2*%
%TO.N,mirror_ring_top*%
X271050000Y-51200000D03*
%TD*%
D11*
%TO.P,LED10,1*%
%TO.N,VCC*%
X278575000Y-60825000D03*
%TO.P,LED10,2*%
%TO.N,N/C*%
X278575000Y-59075000D03*
%TO.P,LED10,3*%
%TO.N,GND*%
X282975000Y-59075000D03*
%TO.P,LED10,4*%
%TO.N,N/C*%
X282975000Y-60825000D03*
%TD*%
%TO.P,LED5,1*%
%TO.N,VCC*%
X296575000Y-94825000D03*
%TO.P,LED5,2*%
%TO.N,N/C*%
X296575000Y-93075000D03*
%TO.P,LED5,3*%
%TO.N,GND*%
X300975000Y-93075000D03*
%TO.P,LED5,4*%
%TO.N,N/C*%
X300975000Y-94825000D03*
%TD*%
D14*
%TO.P,D11,1*%
%TO.N,P009*%
X258965000Y-96950000D03*
D15*
X261125000Y-96950000D03*
%TO.P,D11,2*%
%TO.N,mirror_ring_bottom*%
X264425000Y-96950000D03*
D16*
X266585000Y-96950000D03*
%TD*%
D11*
%TO.P,LED15,1*%
%TO.N,VCC*%
X242575000Y-77825000D03*
%TO.P,LED15,2*%
%TO.N,N/C*%
X242575000Y-76075000D03*
%TO.P,LED15,3*%
%TO.N,GND*%
X246975000Y-76075000D03*
%TO.P,LED15,4*%
%TO.N,N/C*%
X246975000Y-77825000D03*
%TD*%
D14*
%TO.P,D7,1*%
%TO.N,P104*%
X294965000Y-62950000D03*
D15*
X297125000Y-62950000D03*
%TO.P,D7,2*%
%TO.N,mirror_hell_top*%
X300425000Y-62950000D03*
D16*
X302585000Y-62950000D03*
%TD*%
D17*
%TO.P,S23,1*%
%TO.N,P113*%
X194790979Y-107070992D03*
%TO.P,S23,2*%
%TO.N,mirror_layer_cluster*%
X206396873Y-105187983D03*
%TD*%
D14*
%TO.P,D12,1*%
%TO.N,P106*%
X258965000Y-79950000D03*
D15*
X261125000Y-79950000D03*
%TO.P,D12,2*%
%TO.N,mirror_ring_home*%
X264425000Y-79950000D03*
D16*
X266585000Y-79950000D03*
%TD*%
D11*
%TO.P,LED14,1*%
%TO.N,VCC*%
X242575000Y-94825000D03*
%TO.P,LED14,2*%
%TO.N,N/C*%
X242575000Y-93075000D03*
%TO.P,LED14,3*%
%TO.N,GND*%
X246975000Y-93075000D03*
%TO.P,LED14,4*%
%TO.N,N/C*%
X246975000Y-94825000D03*
%TD*%
D14*
%TO.P,D8,1*%
%TO.N,P009*%
X276965000Y-96950000D03*
D15*
X279125000Y-96950000D03*
%TO.P,D8,2*%
%TO.N,mirror_pinky_bottom*%
X282425000Y-96950000D03*
D16*
X284585000Y-96950000D03*
%TD*%
D14*
%TO.P,D13,1*%
%TO.N,P104*%
X258965000Y-62950000D03*
D15*
X261125000Y-62950000D03*
%TO.P,D13,2*%
%TO.N,mirror_ring_top*%
X264425000Y-62950000D03*
D16*
X266585000Y-62950000D03*
%TD*%
D14*
%TO.P,D19,1*%
%TO.N,P104*%
X222965000Y-62950000D03*
D15*
X225125000Y-62950000D03*
%TO.P,D19,2*%
%TO.N,mirror_index_top*%
X228425000Y-62950000D03*
D16*
X230585000Y-62950000D03*
%TD*%
D11*
%TO.P,LED18,1*%
%TO.N,VCC*%
X224575000Y-77825000D03*
%TO.P,LED18,2*%
%TO.N,N/C*%
X224575000Y-76075000D03*
%TO.P,LED18,3*%
%TO.N,GND*%
X228975000Y-76075000D03*
%TO.P,LED18,4*%
%TO.N,N/C*%
X228975000Y-77825000D03*
%TD*%
D12*
%TO.P,S15,1*%
%TO.N,P115*%
X241500000Y-66000000D03*
%TO.P,S15,2*%
%TO.N,mirror_middle_home*%
X253050000Y-68200000D03*
%TD*%
D14*
%TO.P,D17,1*%
%TO.N,P009*%
X222965000Y-96950000D03*
D15*
X225125000Y-96950000D03*
%TO.P,D17,2*%
%TO.N,mirror_index_bottom*%
X228425000Y-96950000D03*
D16*
X230585000Y-96950000D03*
%TD*%
D11*
%TO.P,LED21,1*%
%TO.N,VCC*%
X206575000Y-77825000D03*
%TO.P,LED21,2*%
%TO.N,N/C*%
X206575000Y-76075000D03*
%TO.P,LED21,3*%
%TO.N,GND*%
X210975000Y-76075000D03*
%TO.P,LED21,4*%
%TO.N,N/C*%
X210975000Y-77825000D03*
%TD*%
D14*
%TO.P,D5,1*%
%TO.N,P009*%
X294965000Y-96950000D03*
D15*
X297125000Y-96950000D03*
%TO.P,D5,2*%
%TO.N,mirror_hell_bottom*%
X300425000Y-96950000D03*
D16*
X302585000Y-96950000D03*
%TD*%
D12*
%TO.P,S20,1*%
%TO.N,P111*%
X205500000Y-83000000D03*
%TO.P,S20,2*%
%TO.N,mirror_inner_bottom*%
X217050000Y-85200000D03*
%TD*%
D14*
%TO.P,D20,1*%
%TO.N,P009*%
X204965000Y-96950000D03*
D15*
X207125000Y-96950000D03*
%TO.P,D20,2*%
%TO.N,mirror_inner_bottom*%
X210425000Y-96950000D03*
D16*
X212585000Y-96950000D03*
%TD*%
D11*
%TO.P,LED19,1*%
%TO.N,VCC*%
X224575000Y-60825000D03*
%TO.P,LED19,2*%
%TO.N,N/C*%
X224575000Y-59075000D03*
%TO.P,LED19,3*%
%TO.N,GND*%
X228975000Y-59075000D03*
%TO.P,LED19,4*%
%TO.N,N/C*%
X228975000Y-60825000D03*
%TD*%
D14*
%TO.P,D10,1*%
%TO.N,P104*%
X276965000Y-62950000D03*
D15*
X279125000Y-62950000D03*
%TO.P,D10,2*%
%TO.N,mirror_pinky_top*%
X282425000Y-62950000D03*
D16*
X284585000Y-62950000D03*
%TD*%
D12*
%TO.P,S16,1*%
%TO.N,P115*%
X241500000Y-49000000D03*
%TO.P,S16,2*%
%TO.N,mirror_middle_top*%
X253050000Y-51200000D03*
%TD*%
D18*
%TO.P,D25,1*%
%TO.N,P011*%
X196416533Y-139415640D03*
D19*
X198446269Y-138676876D03*
%TO.P,D25,2*%
%TO.N,mirror_extra_cluster*%
X201547255Y-137548210D03*
D16*
X203576991Y-136809446D03*
%TD*%
D17*
%TO.P,S24,1*%
%TO.N,P111*%
X177876512Y-113227354D03*
%TO.P,S24,2*%
%TO.N,mirror_space_cluster*%
X189482406Y-111344345D03*
%TD*%
D11*
%TO.P,LED9,1*%
%TO.N,VCC*%
X278575000Y-77825000D03*
%TO.P,LED9,2*%
%TO.N,N/C*%
X278575000Y-76075000D03*
%TO.P,LED9,3*%
%TO.N,GND*%
X282975000Y-76075000D03*
%TO.P,LED9,4*%
%TO.N,N/C*%
X282975000Y-77825000D03*
%TD*%
D20*
%TO.P,JST1,1*%
%TO.N,pos*%
X280775000Y-104950000D03*
D21*
%TO.P,JST1,2*%
%TO.N,GND*%
X280775000Y-106950000D03*
%TD*%
D12*
%TO.P,S8,1*%
%TO.N,P029*%
X277500000Y-83000000D03*
%TO.P,S8,2*%
%TO.N,mirror_pinky_bottom*%
X289050000Y-85200000D03*
%TD*%
D11*
%TO.P,LED22,1*%
%TO.N,VCC*%
X206575000Y-60825000D03*
%TO.P,LED22,2*%
%TO.N,N/C*%
X206575000Y-59075000D03*
%TO.P,LED22,3*%
%TO.N,GND*%
X210975000Y-59075000D03*
%TO.P,LED22,4*%
%TO.N,N/C*%
X210975000Y-60825000D03*
%TD*%
D12*
%TO.P,S7,1*%
%TO.N,P031*%
X295500000Y-49000000D03*
%TO.P,S7,2*%
%TO.N,mirror_hell_top*%
X307050000Y-51200000D03*
%TD*%
D14*
%TO.P,D4,1*%
%TO.N,P010*%
X294965000Y-113950000D03*
D15*
X297125000Y-113950000D03*
%TO.P,D4,2*%
%TO.N,mirror_hell_last*%
X300425000Y-113950000D03*
D16*
X302585000Y-113950000D03*
%TD*%
D12*
%TO.P,S21,1*%
%TO.N,P111*%
X205500000Y-66000000D03*
%TO.P,S21,2*%
%TO.N,mirror_inner_home*%
X217050000Y-68200000D03*
%TD*%
D14*
%TO.P,D15,1*%
%TO.N,P106*%
X240965000Y-79950000D03*
D15*
X243125000Y-79950000D03*
%TO.P,D15,2*%
%TO.N,mirror_middle_home*%
X246425000Y-79950000D03*
D16*
X248585000Y-79950000D03*
%TD*%
D17*
%TO.P,S25,1*%
%TO.N,P111*%
X192148088Y-126123947D03*
%TO.P,S25,2*%
%TO.N,mirror_extra_cluster*%
X203753982Y-124240938D03*
%TD*%
D12*
%TO.P,S6,1*%
%TO.N,P031*%
X295500000Y-66000000D03*
%TO.P,S6,2*%
%TO.N,mirror_hell_home*%
X307050000Y-68200000D03*
%TD*%
D14*
%TO.P,D18,1*%
%TO.N,P106*%
X222965000Y-79950000D03*
D15*
X225125000Y-79950000D03*
%TO.P,D18,2*%
%TO.N,mirror_index_home*%
X228425000Y-79950000D03*
D16*
X230585000Y-79950000D03*
%TD*%
D14*
%TO.P,D21,1*%
%TO.N,P106*%
X204965000Y-79950000D03*
D15*
X207125000Y-79950000D03*
%TO.P,D21,2*%
%TO.N,mirror_inner_home*%
X210425000Y-79950000D03*
D16*
X212585000Y-79950000D03*
%TD*%
D12*
%TO.P,S10,1*%
%TO.N,P029*%
X277500000Y-49000000D03*
%TO.P,S10,2*%
%TO.N,mirror_pinky_top*%
X289050000Y-51200000D03*
%TD*%
%TO.P,S5,1*%
%TO.N,P031*%
X295500000Y-83000000D03*
%TO.P,S5,2*%
%TO.N,mirror_hell_bottom*%
X307050000Y-85200000D03*
%TD*%
D18*
%TO.P,D23,1*%
%TO.N,P010*%
X199059424Y-120362684D03*
D19*
X201089160Y-119623920D03*
%TO.P,D23,2*%
%TO.N,mirror_layer_cluster*%
X204190146Y-118495254D03*
D16*
X206219882Y-117756490D03*
%TD*%
D11*
%TO.P,LED13,1*%
%TO.N,VCC*%
X260575000Y-60825000D03*
%TO.P,LED13,2*%
%TO.N,N/C*%
X260575000Y-59075000D03*
%TO.P,LED13,3*%
%TO.N,GND*%
X264975000Y-59075000D03*
%TO.P,LED13,4*%
%TO.N,N/C*%
X264975000Y-60825000D03*
%TD*%
D22*
%TO.P,niceView1,1*%
%TO.N,P006*%
X194055000Y-80425000D03*
D23*
%TO.P,niceView1,2*%
%TO.N,GND*%
X191515000Y-80425000D03*
D22*
%TO.P,niceView1,3*%
%TO.N,VCC*%
X188975000Y-80425000D03*
%TO.P,niceView1,4*%
%TO.N,P020*%
X186435000Y-80425000D03*
%TO.P,niceView1,5*%
%TO.N,P017*%
X183895000Y-80425000D03*
%TD*%
D14*
%TO.P,D14,1*%
%TO.N,P009*%
X240965000Y-96950000D03*
D15*
X243125000Y-96950000D03*
%TO.P,D14,2*%
%TO.N,mirror_middle_bottom*%
X246425000Y-96950000D03*
D16*
X248585000Y-96950000D03*
%TD*%
D14*
%TO.P,D16,1*%
%TO.N,P104*%
X240965000Y-62950000D03*
D15*
X243125000Y-62950000D03*
%TO.P,D16,2*%
%TO.N,mirror_middle_top*%
X246425000Y-62950000D03*
D16*
X248585000Y-62950000D03*
%TD*%
D11*
%TO.P,LED11,1*%
%TO.N,VCC*%
X260575000Y-94825000D03*
%TO.P,LED11,2*%
%TO.N,N/C*%
X260575000Y-93075000D03*
%TO.P,LED11,3*%
%TO.N,GND*%
X264975000Y-93075000D03*
%TO.P,LED11,4*%
%TO.N,N/C*%
X264975000Y-94825000D03*
%TD*%
D24*
%TO.P,LED24,1*%
%TO.N,VCC*%
X182931070Y-123971547D03*
%TO.P,LED24,2*%
%TO.N,N/C*%
X182332535Y-122327085D03*
%TO.P,LED24,3*%
%TO.N,GND*%
X186467182Y-120822197D03*
%TO.P,LED24,4*%
%TO.N,N/C*%
X187065717Y-122466659D03*
%TD*%
D12*
%TO.P,S22,1*%
%TO.N,P111*%
X205500000Y-49000000D03*
%TO.P,S22,2*%
%TO.N,mirror_inner_top*%
X217050000Y-51200000D03*
%TD*%
D24*
%TO.P,LED23,1*%
%TO.N,VCC*%
X199845537Y-117815185D03*
%TO.P,LED23,2*%
%TO.N,N/C*%
X199247002Y-116170723D03*
%TO.P,LED23,3*%
%TO.N,GND*%
X203381649Y-114665835D03*
%TO.P,LED23,4*%
%TO.N,N/C*%
X203980184Y-116310297D03*
%TD*%
D11*
%TO.P,LED12,1*%
%TO.N,VCC*%
X260575000Y-77825000D03*
%TO.P,LED12,2*%
%TO.N,N/C*%
X260575000Y-76075000D03*
%TO.P,LED12,3*%
%TO.N,GND*%
X264975000Y-76075000D03*
%TO.P,LED12,4*%
%TO.N,N/C*%
X264975000Y-77825000D03*
%TD*%
%TO.P,LED20,1*%
%TO.N,VCC*%
X206575000Y-94825000D03*
%TO.P,LED20,2*%
%TO.N,N/C*%
X206575000Y-93075000D03*
%TO.P,LED20,3*%
%TO.N,GND*%
X210975000Y-93075000D03*
%TO.P,LED20,4*%
%TO.N,N/C*%
X210975000Y-94825000D03*
%TD*%
D12*
%TO.P,S18,1*%
%TO.N,P113*%
X223500000Y-66000000D03*
%TO.P,S18,2*%
%TO.N,mirror_index_home*%
X235050000Y-68200000D03*
%TD*%
%TO.P,S4,1*%
%TO.N,P031*%
X295500000Y-100000000D03*
%TO.P,S4,2*%
%TO.N,mirror_hell_last*%
X307050000Y-102200000D03*
%TD*%
D14*
%TO.P,D22,1*%
%TO.N,P104*%
X204965000Y-62950000D03*
D15*
X207125000Y-62950000D03*
%TO.P,D22,2*%
%TO.N,mirror_inner_top*%
X210425000Y-62950000D03*
D16*
X212585000Y-62950000D03*
%TD*%
D24*
%TO.P,LED25,1*%
%TO.N,VCC*%
X197202646Y-136868140D03*
%TO.P,LED25,2*%
%TO.N,N/C*%
X196604111Y-135223678D03*
%TO.P,LED25,3*%
%TO.N,GND*%
X200738758Y-133718790D03*
%TO.P,LED25,4*%
%TO.N,N/C*%
X201337293Y-135363252D03*
%TD*%
D18*
%TO.P,D24,1*%
%TO.N,P010*%
X182144957Y-126519047D03*
D19*
X184174693Y-125780283D03*
%TO.P,D24,2*%
%TO.N,mirror_space_cluster*%
X187275679Y-124651617D03*
D16*
X189305415Y-123912853D03*
%TD*%
D11*
%TO.P,LED7,1*%
%TO.N,VCC*%
X296575000Y-60825000D03*
%TO.P,LED7,2*%
%TO.N,N/C*%
X296575000Y-59075000D03*
%TO.P,LED7,3*%
%TO.N,GND*%
X300975000Y-59075000D03*
%TO.P,LED7,4*%
%TO.N,N/C*%
X300975000Y-60825000D03*
%TD*%
D12*
%TO.P,S9,1*%
%TO.N,P029*%
X277500000Y-66000000D03*
%TO.P,S9,2*%
%TO.N,mirror_pinky_home*%
X289050000Y-68200000D03*
%TD*%
D14*
%TO.P,D9,1*%
%TO.N,P106*%
X276965000Y-79950000D03*
D15*
X279125000Y-79950000D03*
%TO.P,D9,2*%
%TO.N,mirror_pinky_home*%
X282425000Y-79950000D03*
D16*
X284585000Y-79950000D03*
%TD*%
D11*
%TO.P,LED16,1*%
%TO.N,VCC*%
X242575000Y-60825000D03*
%TO.P,LED16,2*%
%TO.N,N/C*%
X242575000Y-59075000D03*
%TO.P,LED16,3*%
%TO.N,GND*%
X246975000Y-59075000D03*
%TO.P,LED16,4*%
%TO.N,N/C*%
X246975000Y-60825000D03*
%TD*%
D12*
%TO.P,S12,1*%
%TO.N,P002*%
X259500000Y-66000000D03*
%TO.P,S12,2*%
%TO.N,mirror_ring_home*%
X271050000Y-68200000D03*
%TD*%
%TO.P,S19,1*%
%TO.N,P113*%
X223500000Y-49000000D03*
%TO.P,S19,2*%
%TO.N,mirror_index_top*%
X235050000Y-51200000D03*
%TD*%
D25*
%TO.N,P113*%
X220000000Y-48000000D03*
%TO.N,P111*%
X202000000Y-48000000D03*
%TO.N,VCC*%
X276500000Y-75000000D03*
X184000000Y-55500000D03*
X204000000Y-59500000D03*
X222500000Y-75000000D03*
X294500000Y-75000000D03*
X203500000Y-120500000D03*
X258500000Y-58000000D03*
X294500000Y-58000000D03*
X294000000Y-110500000D03*
X194000000Y-136500000D03*
X204000000Y-93500000D03*
X276500000Y-92000000D03*
X258500000Y-75000000D03*
X197000000Y-117500000D03*
X180000000Y-123500000D03*
X222500000Y-92000000D03*
X204000000Y-76500000D03*
X240000000Y-92000000D03*
X240500000Y-58000000D03*
X294000000Y-92000000D03*
X276500000Y-58000000D03*
X240000000Y-75000000D03*
X222500000Y-58000000D03*
X258500000Y-92000000D03*
%TO.N,GND*%
X231500000Y-94825000D03*
X303500000Y-77500000D03*
X285500000Y-94825000D03*
X181500000Y-100000000D03*
X303500000Y-94500000D03*
X267500000Y-94825000D03*
X178000000Y-122500000D03*
X231500000Y-60825000D03*
X188500000Y-121000000D03*
X205500000Y-115000000D03*
X213500000Y-94825000D03*
X213500000Y-77825000D03*
X267500000Y-77825000D03*
X303500000Y-60500000D03*
X213500000Y-60825000D03*
X285500000Y-77825000D03*
X249500000Y-60825000D03*
X180000000Y-89500000D03*
X194000000Y-118500000D03*
X174325000Y-121000000D03*
X249500000Y-77825000D03*
X267500000Y-60825000D03*
X285500000Y-60825000D03*
X303000000Y-111000000D03*
X249500000Y-94825000D03*
X202715521Y-133946133D03*
X231500000Y-77825000D03*
%TO.N,P010*%
X190000000Y-103000000D03*
%TO.N,P011*%
X186000000Y-101500000D03*
%TO.N,P009*%
X184000000Y-89500000D03*
X182512653Y-87987347D03*
%TO.N,P106*%
X203000000Y-80000000D03*
%TO.N,P104*%
X202500000Y-63000000D03*
%TO.N,RAW*%
X178000000Y-104500000D03*
%TO.N,RST*%
X181000000Y-89000000D03*
%TD*%
D26*
%TO.N,P113*%
X221000000Y-90958684D02*
X223500000Y-88458684D01*
X194790979Y-105687561D02*
X197978540Y-102500000D01*
X219500000Y-82000000D02*
X220500000Y-83000000D01*
X219500000Y-53000000D02*
X219500000Y-65000000D01*
X219500000Y-65000000D02*
X220500000Y-66000000D01*
X223500000Y-49000000D02*
X219500000Y-53000000D01*
X220500000Y-66000000D02*
X223500000Y-66000000D01*
X223500000Y-66000000D02*
X219500000Y-70000000D01*
X221000000Y-97500000D02*
X221000000Y-90958684D01*
X194790979Y-107070992D02*
X194790979Y-105687561D01*
X216000000Y-102500000D02*
X221000000Y-97500000D01*
X220500000Y-83000000D02*
X223500000Y-83000000D01*
X223500000Y-88458684D02*
X223500000Y-83000000D01*
X197978540Y-102500000D02*
X216000000Y-102500000D01*
X221000000Y-49000000D02*
X223500000Y-49000000D01*
X219500000Y-70000000D02*
X219500000Y-82000000D01*
X220000000Y-48000000D02*
X221000000Y-49000000D01*
%TO.N,P111*%
X205500000Y-66000000D02*
X201500000Y-70000000D01*
X205500000Y-49000000D02*
X201500000Y-53000000D01*
X175500000Y-115603866D02*
X175500000Y-123500000D01*
X215863604Y-102000000D02*
X219500000Y-98363604D01*
X175500000Y-123500000D02*
X182500000Y-130500000D01*
X187720435Y-102000000D02*
X215863604Y-102000000D01*
X202500000Y-66000000D02*
X205500000Y-66000000D01*
X201500000Y-65000000D02*
X202500000Y-66000000D01*
X187772035Y-130500000D02*
X192148088Y-126123947D01*
X177876512Y-111843923D02*
X187720435Y-102000000D01*
X217600000Y-82500000D02*
X213000000Y-82500000D01*
X202000000Y-48000000D02*
X203000000Y-49000000D01*
X201500000Y-53000000D02*
X201500000Y-65000000D01*
X182500000Y-130500000D02*
X187772035Y-130500000D01*
X177876512Y-113227354D02*
X175500000Y-115603866D01*
X203000000Y-49000000D02*
X205500000Y-49000000D01*
X219500000Y-84400000D02*
X217600000Y-82500000D01*
X202500000Y-83000000D02*
X205500000Y-83000000D01*
X201500000Y-82000000D02*
X202500000Y-83000000D01*
X213000000Y-82500000D02*
X210000000Y-85500000D01*
X201500000Y-70000000D02*
X201500000Y-82000000D01*
X177876512Y-113227354D02*
X177876512Y-111843923D01*
X208000000Y-85500000D02*
X205500000Y-83000000D01*
X210000000Y-85500000D02*
X208000000Y-85500000D01*
X219500000Y-98363604D02*
X219500000Y-84400000D01*
%TO.N,P031*%
X295500000Y-49000000D02*
X292000000Y-52500000D01*
X185000000Y-58500000D02*
X185000000Y-47500000D01*
X291500000Y-87000000D02*
X291500000Y-98500000D01*
X291500000Y-81500000D02*
X293000000Y-83000000D01*
X292000000Y-65000000D02*
X293000000Y-66000000D01*
X293000000Y-100000000D02*
X295500000Y-100000000D01*
X291500000Y-98500000D02*
X293000000Y-100000000D01*
X291500000Y-70000000D02*
X291500000Y-81500000D01*
X293000000Y-66000000D02*
X295500000Y-66000000D01*
X185000000Y-47500000D02*
X186850000Y-45650000D01*
X295500000Y-66000000D02*
X291500000Y-70000000D01*
X186850000Y-45650000D02*
X292150000Y-45650000D01*
X295500000Y-83000000D02*
X291500000Y-87000000D01*
X292000000Y-52500000D02*
X292000000Y-65000000D01*
X183860000Y-59640000D02*
X185000000Y-58500000D01*
X292150000Y-45650000D02*
X295500000Y-49000000D01*
X293000000Y-83000000D02*
X295500000Y-83000000D01*
X181355000Y-59640000D02*
X183860000Y-59640000D01*
%TO.N,mirror_hell_last*%
X308200000Y-112300000D02*
X306550000Y-113950000D01*
X300425000Y-113950000D02*
X302585000Y-113950000D01*
X307050000Y-102200000D02*
X308200000Y-103350000D01*
X308200000Y-103350000D02*
X308200000Y-112300000D01*
X306550000Y-113950000D02*
X302585000Y-113950000D01*
%TO.N,mirror_hell_bottom*%
X302585000Y-96950000D02*
X300425000Y-96950000D01*
X307050000Y-85200000D02*
X307050000Y-92485000D01*
X307050000Y-92485000D02*
X302585000Y-96950000D01*
%TO.N,mirror_hell_home*%
X307050000Y-75485000D02*
X302585000Y-79950000D01*
X300425000Y-79950000D02*
X302585000Y-79950000D01*
X307050000Y-68200000D02*
X307050000Y-75485000D01*
%TO.N,mirror_hell_top*%
X302585000Y-62950000D02*
X300425000Y-62950000D01*
X307050000Y-58485000D02*
X302585000Y-62950000D01*
X307050000Y-51200000D02*
X307050000Y-58485000D01*
%TO.N,P029*%
X277500000Y-66000000D02*
X274000000Y-69500000D01*
X274000000Y-69500000D02*
X274000000Y-82500000D01*
X277500000Y-49000000D02*
X273500000Y-53000000D01*
X181355000Y-62180000D02*
X182594275Y-62180000D01*
X273500000Y-65000000D02*
X274500000Y-66000000D01*
X274500000Y-83000000D02*
X277500000Y-83000000D01*
X185500000Y-59274275D02*
X185500000Y-48000000D01*
X274500000Y-66000000D02*
X277500000Y-66000000D01*
X187400000Y-46100000D02*
X274600000Y-46100000D01*
X185500000Y-48000000D02*
X187400000Y-46100000D01*
X273500000Y-53000000D02*
X273500000Y-65000000D01*
X274600000Y-46100000D02*
X277500000Y-49000000D01*
X182594275Y-62180000D02*
X185500000Y-59274275D01*
X274000000Y-82500000D02*
X274500000Y-83000000D01*
%TO.N,mirror_pinky_bottom*%
X284585000Y-96950000D02*
X282425000Y-96950000D01*
X289050000Y-92485000D02*
X284585000Y-96950000D01*
X289050000Y-85200000D02*
X289050000Y-92485000D01*
%TO.N,mirror_pinky_home*%
X289050000Y-75485000D02*
X284585000Y-79950000D01*
X282425000Y-79950000D02*
X284585000Y-79950000D01*
X289050000Y-68200000D02*
X289050000Y-75485000D01*
%TO.N,mirror_pinky_top*%
X289050000Y-58485000D02*
X284585000Y-62950000D01*
X289050000Y-51200000D02*
X289050000Y-58485000D01*
X282425000Y-62950000D02*
X284585000Y-62950000D01*
%TO.N,P002*%
X255500000Y-77500000D02*
X256500000Y-78500000D01*
X255500000Y-70000000D02*
X255500000Y-77500000D01*
X255500000Y-65000000D02*
X256500000Y-66000000D01*
X185950000Y-60125000D02*
X181355000Y-64720000D01*
X256500000Y-82500000D02*
X257000000Y-83000000D01*
X257000000Y-83000000D02*
X259500000Y-83000000D01*
X259500000Y-49000000D02*
X255500000Y-53000000D01*
X259500000Y-66000000D02*
X255500000Y-70000000D01*
X258600000Y-46550000D02*
X187586396Y-46550000D01*
X256500000Y-66000000D02*
X259500000Y-66000000D01*
X185950000Y-48186396D02*
X185950000Y-60125000D01*
X259500000Y-47450000D02*
X258600000Y-46550000D01*
X255500000Y-53000000D02*
X255500000Y-65000000D01*
X259500000Y-49000000D02*
X259500000Y-47450000D01*
X256500000Y-78500000D02*
X256500000Y-82500000D01*
X187586396Y-46550000D02*
X185950000Y-48186396D01*
%TO.N,mirror_ring_bottom*%
X271050000Y-92485000D02*
X266585000Y-96950000D01*
X266585000Y-96950000D02*
X264425000Y-96950000D01*
X271050000Y-85200000D02*
X271050000Y-92485000D01*
%TO.N,mirror_ring_home*%
X271050000Y-75485000D02*
X266585000Y-79950000D01*
X264425000Y-79950000D02*
X266585000Y-79950000D01*
X271050000Y-68200000D02*
X271050000Y-75485000D01*
%TO.N,mirror_ring_top*%
X271050000Y-58485000D02*
X266585000Y-62950000D01*
X271050000Y-51200000D02*
X271050000Y-58485000D01*
X264425000Y-62950000D02*
X266585000Y-62950000D01*
%TO.N,P115*%
X189654468Y-53000000D02*
X187000000Y-53000000D01*
X238500000Y-66000000D02*
X241500000Y-66000000D01*
X186400000Y-62215000D02*
X181355000Y-67260000D01*
X237500000Y-70000000D02*
X237500000Y-82000000D01*
X241500000Y-66000000D02*
X237500000Y-70000000D01*
X237500000Y-65000000D02*
X238500000Y-66000000D01*
X237500000Y-82000000D02*
X238500000Y-83000000D01*
X241500000Y-49000000D02*
X239500000Y-47000000D01*
X237500000Y-53000000D02*
X237500000Y-65000000D01*
X241500000Y-49000000D02*
X237500000Y-53000000D01*
X186400000Y-53600000D02*
X186400000Y-62215000D01*
X239500000Y-47000000D02*
X194000000Y-47000000D01*
X191500000Y-51154468D02*
X189654468Y-53000000D01*
X191500000Y-49500000D02*
X191500000Y-51154468D01*
X238500000Y-83000000D02*
X241500000Y-83000000D01*
X187000000Y-53000000D02*
X186400000Y-53600000D01*
X194000000Y-47000000D02*
X191500000Y-49500000D01*
%TO.N,mirror_middle_bottom*%
X248585000Y-96950000D02*
X246425000Y-96950000D01*
X253050000Y-85200000D02*
X253050000Y-92485000D01*
X253050000Y-92485000D02*
X248585000Y-96950000D01*
%TO.N,mirror_middle_home*%
X253050000Y-75485000D02*
X248585000Y-79950000D01*
X246425000Y-79950000D02*
X248585000Y-79950000D01*
X253050000Y-68200000D02*
X253050000Y-75485000D01*
%TO.N,mirror_middle_top*%
X248585000Y-62950000D02*
X246425000Y-62950000D01*
X253050000Y-51200000D02*
X253050000Y-58485000D01*
X253050000Y-58485000D02*
X248585000Y-62950000D01*
%TO.N,mirror_index_bottom*%
X235050000Y-85200000D02*
X235050000Y-92485000D01*
X235050000Y-92485000D02*
X230585000Y-96950000D01*
X230585000Y-96950000D02*
X228425000Y-96950000D01*
%TO.N,mirror_index_home*%
X235050000Y-68200000D02*
X235050000Y-75485000D01*
X230585000Y-79950000D02*
X228425000Y-79950000D01*
X235050000Y-75485000D02*
X230585000Y-79950000D01*
%TO.N,mirror_index_top*%
X235050000Y-58485000D02*
X230585000Y-62950000D01*
X230585000Y-62950000D02*
X228425000Y-62950000D01*
X235050000Y-51200000D02*
X235050000Y-58485000D01*
%TO.N,mirror_inner_bottom*%
X217050000Y-85200000D02*
X217050000Y-92485000D01*
X212585000Y-96950000D02*
X210425000Y-96950000D01*
X217050000Y-92485000D02*
X212585000Y-96950000D01*
%TO.N,mirror_inner_home*%
X217050000Y-68200000D02*
X217050000Y-75485000D01*
X210425000Y-79950000D02*
X212585000Y-79950000D01*
X217050000Y-75485000D02*
X212585000Y-79950000D01*
%TO.N,mirror_inner_top*%
X212585000Y-62950000D02*
X210425000Y-62950000D01*
X217050000Y-58485000D02*
X212585000Y-62950000D01*
X217050000Y-51200000D02*
X217050000Y-58485000D01*
%TO.N,mirror_layer_cluster*%
X206396873Y-105187983D02*
X206396873Y-117579499D01*
X206396873Y-117579499D02*
X206219882Y-117756490D01*
X206219882Y-117756490D02*
X204928910Y-117756490D01*
X204928910Y-117756490D02*
X204190146Y-118495254D01*
%TO.N,mirror_space_cluster*%
X189482406Y-123735862D02*
X189305415Y-123912853D01*
X189482406Y-111344345D02*
X189482406Y-123735862D01*
X189305415Y-123912853D02*
X188014443Y-123912853D01*
X188014443Y-123912853D02*
X187275679Y-124651617D01*
%TO.N,mirror_extra_cluster*%
X203753982Y-136632455D02*
X203576991Y-136809446D01*
X203753982Y-124240938D02*
X203753982Y-136632455D01*
X203576991Y-136809446D02*
X202286019Y-136809446D01*
X202286019Y-136809446D02*
X201547255Y-137548210D01*
%TO.N,VCC*%
X223775000Y-60825000D02*
X222500000Y-59550000D01*
X259775000Y-94825000D02*
X258500000Y-93550000D01*
X205325000Y-77825000D02*
X204000000Y-76500000D01*
X241775000Y-77825000D02*
X240000000Y-76050000D01*
X294500000Y-59550000D02*
X294500000Y-58000000D01*
X241775000Y-94825000D02*
X240000000Y-93050000D01*
X242575000Y-94825000D02*
X241775000Y-94825000D01*
X276500000Y-76550000D02*
X276500000Y-75000000D01*
X260575000Y-77825000D02*
X259775000Y-77825000D01*
X222500000Y-59550000D02*
X222500000Y-58000000D01*
X299500000Y-103000000D02*
X301000000Y-101500000D01*
X299000000Y-96500000D02*
X298400000Y-95900000D01*
X242575000Y-60825000D02*
X241775000Y-60825000D01*
X203500000Y-120500000D02*
X201500000Y-122500000D01*
X258500000Y-59550000D02*
X258500000Y-58000000D01*
X299000000Y-97225000D02*
X299000000Y-96500000D01*
X259775000Y-77825000D02*
X258500000Y-76550000D01*
X242575000Y-77825000D02*
X241775000Y-77825000D01*
X277775000Y-94825000D02*
X276500000Y-93550000D01*
X201500000Y-122500000D02*
X197500000Y-122500000D01*
X294000000Y-110500000D02*
X294000000Y-108000000D01*
X240000000Y-93050000D02*
X240000000Y-92000000D01*
X276500000Y-93550000D02*
X276500000Y-92000000D01*
X194368140Y-136868140D02*
X194000000Y-136500000D01*
X295775000Y-60825000D02*
X294500000Y-59550000D01*
X278575000Y-60825000D02*
X277775000Y-60825000D01*
X224575000Y-60825000D02*
X223775000Y-60825000D01*
X296575000Y-60825000D02*
X295775000Y-60825000D01*
X196000000Y-118500000D02*
X197000000Y-117500000D01*
X224575000Y-94825000D02*
X223875000Y-94825000D01*
X258500000Y-93550000D02*
X258500000Y-92000000D01*
X259775000Y-60825000D02*
X258500000Y-59550000D01*
X240000000Y-76050000D02*
X240000000Y-75000000D01*
X222500000Y-76550000D02*
X222500000Y-75000000D01*
X197500000Y-122500000D02*
X196000000Y-121000000D01*
X206575000Y-94825000D02*
X205325000Y-94825000D01*
X301000000Y-99000000D02*
X300000000Y-98000000D01*
X298400000Y-95900000D02*
X296900000Y-95900000D01*
X296575000Y-94825000D02*
X295775000Y-94825000D01*
X296575000Y-77825000D02*
X295875000Y-77825000D01*
X240500000Y-59550000D02*
X240500000Y-58000000D01*
X199845537Y-117815185D02*
X197315185Y-117815185D01*
X223875000Y-94825000D02*
X222500000Y-93450000D01*
X182931070Y-123971547D02*
X180471547Y-123971547D01*
X278575000Y-77825000D02*
X277775000Y-77825000D01*
X295875000Y-77825000D02*
X294500000Y-76450000D01*
X295775000Y-94825000D02*
X294000000Y-93050000D01*
X296575000Y-111825000D02*
X295325000Y-111825000D01*
X258500000Y-76550000D02*
X258500000Y-75000000D01*
X206575000Y-60825000D02*
X205325000Y-60825000D01*
X278575000Y-94825000D02*
X277775000Y-94825000D01*
X182955000Y-55500000D02*
X181355000Y-57100000D01*
X205325000Y-94825000D02*
X204000000Y-93500000D01*
X260575000Y-60825000D02*
X259775000Y-60825000D01*
X299775000Y-98000000D02*
X299000000Y-97225000D01*
X180471547Y-123971547D02*
X180000000Y-123500000D01*
X224575000Y-77825000D02*
X223775000Y-77825000D01*
X294500000Y-76450000D02*
X294500000Y-75000000D01*
X260575000Y-94825000D02*
X259775000Y-94825000D01*
X222500000Y-93450000D02*
X222500000Y-92000000D01*
X276500000Y-59550000D02*
X276500000Y-58000000D01*
X197202646Y-136868140D02*
X194368140Y-136868140D01*
X296575000Y-95575000D02*
X296575000Y-94825000D01*
X295500000Y-106500000D02*
X295500000Y-104500000D01*
X297000000Y-103000000D02*
X299500000Y-103000000D01*
X296900000Y-95900000D02*
X296575000Y-95575000D01*
X206575000Y-77825000D02*
X205325000Y-77825000D01*
X277775000Y-77825000D02*
X276500000Y-76550000D01*
X223775000Y-77825000D02*
X222500000Y-76550000D01*
X277775000Y-60825000D02*
X276500000Y-59550000D01*
X197315185Y-117815185D02*
X197000000Y-117500000D01*
X196000000Y-121000000D02*
X196000000Y-118500000D01*
X205325000Y-60825000D02*
X204000000Y-59500000D01*
X294000000Y-108000000D02*
X295500000Y-106500000D01*
X295500000Y-104500000D02*
X297000000Y-103000000D01*
X301000000Y-101500000D02*
X301000000Y-99000000D01*
X294000000Y-93050000D02*
X294000000Y-92000000D01*
X295325000Y-111825000D02*
X294000000Y-110500000D01*
X184000000Y-55500000D02*
X182955000Y-55500000D01*
X300000000Y-98000000D02*
X299775000Y-98000000D01*
X241775000Y-60825000D02*
X240500000Y-59550000D01*
%TO.N,GND*%
X210975000Y-59075000D02*
X211750000Y-59075000D01*
X179450000Y-53925000D02*
X181355000Y-52020000D01*
X203029143Y-113781240D02*
X203381649Y-114133746D01*
X264975000Y-93075000D02*
X265750000Y-93075000D01*
X191515000Y-80425000D02*
X192393299Y-80425000D01*
X179450000Y-88450000D02*
X179450000Y-53925000D01*
X174325000Y-112538604D02*
X174325000Y-121000000D01*
X180562398Y-119937602D02*
X186114676Y-119937602D01*
X300975000Y-93075000D02*
X302075000Y-93075000D01*
X228975000Y-76075000D02*
X229750000Y-76075000D01*
X180225000Y-89725000D02*
X180000000Y-89500000D01*
X302075000Y-76075000D02*
X303500000Y-77500000D01*
X267500000Y-77800000D02*
X267500000Y-77825000D01*
X300975000Y-59075000D02*
X302075000Y-59075000D01*
X178000000Y-122500000D02*
X180562398Y-119937602D01*
X247750000Y-93075000D02*
X249500000Y-94825000D01*
X300975000Y-76075000D02*
X302075000Y-76075000D01*
X194000000Y-118500000D02*
X198718760Y-113781240D01*
X211750000Y-76075000D02*
X213500000Y-77825000D01*
X247750000Y-59075000D02*
X249500000Y-60825000D01*
X200738758Y-133718790D02*
X202488178Y-133718790D01*
X192393299Y-80425000D02*
X193568299Y-81600000D01*
X246975000Y-59075000D02*
X247750000Y-59075000D01*
X197100581Y-122736977D02*
X194000000Y-119636396D01*
X180000000Y-89500000D02*
X180000000Y-89000000D01*
X203381649Y-114133746D02*
X203381649Y-114665835D01*
X182215000Y-89725000D02*
X180225000Y-89725000D01*
X211750000Y-59075000D02*
X213500000Y-60825000D01*
X197100581Y-125600581D02*
X197100581Y-122736977D01*
X247750000Y-76075000D02*
X249500000Y-77825000D01*
X229750000Y-93075000D02*
X231500000Y-94825000D01*
X194541701Y-81600000D02*
X195393700Y-80748001D01*
X186467182Y-120290108D02*
X186467182Y-120822197D01*
X302075000Y-110075000D02*
X303000000Y-111000000D01*
X186114676Y-119937602D02*
X186467182Y-120290108D01*
X211750000Y-93075000D02*
X213500000Y-94825000D01*
X194000000Y-119636396D02*
X194000000Y-118500000D01*
X202715521Y-133946133D02*
X203000000Y-133661654D01*
X195393700Y-58301300D02*
X196595000Y-57100000D01*
X283750000Y-76075000D02*
X285500000Y-77825000D01*
X186467182Y-120822197D02*
X188322197Y-120822197D01*
X300975000Y-110075000D02*
X302075000Y-110075000D01*
X210975000Y-76075000D02*
X211750000Y-76075000D01*
X246975000Y-93075000D02*
X247750000Y-93075000D01*
X196595000Y-57100000D02*
X196595000Y-54560000D01*
X188322197Y-120822197D02*
X188500000Y-121000000D01*
X283750000Y-59075000D02*
X285500000Y-60825000D01*
X302075000Y-59075000D02*
X303500000Y-60500000D01*
X203381649Y-114665835D02*
X205165835Y-114665835D01*
X282975000Y-93075000D02*
X283750000Y-93075000D01*
X265750000Y-93075000D02*
X267500000Y-94825000D01*
X229750000Y-59075000D02*
X231500000Y-60825000D01*
X198718760Y-113781240D02*
X203029143Y-113781240D01*
X229750000Y-76075000D02*
X231500000Y-77825000D01*
X181500000Y-105363604D02*
X174325000Y-112538604D01*
X282975000Y-76075000D02*
X283750000Y-76075000D01*
X203000000Y-131500000D02*
X197100581Y-125600581D01*
X246975000Y-76075000D02*
X247750000Y-76075000D01*
X228975000Y-93075000D02*
X229750000Y-93075000D01*
X180000000Y-89000000D02*
X179450000Y-88450000D01*
X202488178Y-133718790D02*
X202715521Y-133946133D01*
X283750000Y-93075000D02*
X285500000Y-94825000D01*
X193568299Y-81600000D02*
X194541701Y-81600000D01*
X210975000Y-93075000D02*
X211750000Y-93075000D01*
X205165835Y-114665835D02*
X205500000Y-115000000D01*
X191515000Y-80425000D02*
X182215000Y-89725000D01*
X195393700Y-80748001D02*
X195393700Y-58301300D01*
X282975000Y-59075000D02*
X283750000Y-59075000D01*
X265750000Y-59075000D02*
X267500000Y-60825000D01*
X228975000Y-59075000D02*
X229750000Y-59075000D01*
X265775000Y-76075000D02*
X267500000Y-77800000D01*
X264975000Y-76075000D02*
X265775000Y-76075000D01*
X181500000Y-100000000D02*
X181500000Y-105363604D01*
X264975000Y-59075000D02*
X265750000Y-59075000D01*
X302075000Y-93075000D02*
X303500000Y-94500000D01*
X203000000Y-133661654D02*
X203000000Y-131500000D01*
%TO.N,P010*%
X188500000Y-103000000D02*
X190000000Y-103000000D01*
X182883721Y-125780283D02*
X182144957Y-126519047D01*
X182144957Y-126519047D02*
X179519047Y-126519047D01*
X184174693Y-125780283D02*
X182883721Y-125780283D01*
X179212893Y-116500000D02*
X181212893Y-114500000D01*
X183500000Y-113000000D02*
X183500000Y-108000000D01*
X183500000Y-108000000D02*
X188500000Y-103000000D01*
X294965000Y-113950000D02*
X297125000Y-113950000D01*
X199798188Y-119623920D02*
X199059424Y-120362684D01*
X201089160Y-119623920D02*
X199798188Y-119623920D01*
X176000000Y-116500000D02*
X179212893Y-116500000D01*
X182000000Y-114500000D02*
X183500000Y-113000000D01*
X176000000Y-123000000D02*
X176000000Y-116500000D01*
X181212893Y-114500000D02*
X182000000Y-114500000D01*
X179000000Y-126000000D02*
X176000000Y-123000000D01*
X179519047Y-126519047D02*
X179000000Y-126000000D01*
%TO.N,P011*%
X196416533Y-139415640D02*
X190779244Y-139415640D01*
X175050000Y-112450000D02*
X186000000Y-101500000D01*
X175050000Y-123686396D02*
X175050000Y-112450000D01*
X198446269Y-138676876D02*
X197155297Y-138676876D01*
X197155297Y-138676876D02*
X196416533Y-139415640D01*
X190779244Y-139415640D02*
X175050000Y-123686396D01*
%TO.N,P009*%
X188000000Y-101500000D02*
X200415000Y-101500000D01*
X184000000Y-97500000D02*
X188000000Y-101500000D01*
X243125000Y-96950000D02*
X240965000Y-96950000D01*
X279125000Y-96950000D02*
X276965000Y-96950000D01*
X207125000Y-96950000D02*
X204965000Y-96950000D01*
X181355000Y-86829694D02*
X182512653Y-87987347D01*
X297125000Y-96950000D02*
X294965000Y-96950000D01*
X184000000Y-89500000D02*
X184000000Y-97500000D01*
X181355000Y-77420000D02*
X181355000Y-86829694D01*
X261125000Y-96950000D02*
X258965000Y-96950000D01*
X225125000Y-96950000D02*
X222965000Y-96950000D01*
X200415000Y-101500000D02*
X204965000Y-96950000D01*
%TO.N,P106*%
X204965000Y-79950000D02*
X207125000Y-79950000D01*
X203050000Y-79950000D02*
X203000000Y-80000000D01*
X294965000Y-79950000D02*
X297125000Y-79950000D01*
X225125000Y-79950000D02*
X222965000Y-79950000D01*
X261125000Y-79950000D02*
X258965000Y-79950000D01*
X240965000Y-79950000D02*
X243125000Y-79950000D01*
X276965000Y-79950000D02*
X279125000Y-79950000D01*
X204965000Y-79950000D02*
X203050000Y-79950000D01*
%TO.N,P104*%
X202550000Y-62950000D02*
X202500000Y-63000000D01*
X297125000Y-62950000D02*
X294965000Y-62950000D01*
X243125000Y-62950000D02*
X240965000Y-62950000D01*
X225125000Y-62950000D02*
X222965000Y-62950000D01*
X276965000Y-62950000D02*
X279125000Y-62950000D01*
X204965000Y-62950000D02*
X202550000Y-62950000D01*
X258965000Y-62950000D02*
X261125000Y-62950000D01*
X207125000Y-62950000D02*
X204965000Y-62950000D01*
%TO.N,RAW*%
X180150000Y-94150000D02*
X179000000Y-93000000D01*
X179000000Y-100500000D02*
X179000000Y-97000000D01*
X178000000Y-104500000D02*
X177000000Y-103500000D01*
X179000000Y-51835000D02*
X181355000Y-49480000D01*
X179000000Y-97000000D02*
X180150000Y-95850000D01*
X179000000Y-93000000D02*
X179000000Y-51835000D01*
X180150000Y-95850000D02*
X180150000Y-94150000D01*
X177000000Y-102500000D02*
X179000000Y-100500000D01*
X177000000Y-103500000D02*
X177000000Y-102500000D01*
%TO.N,RST*%
X179900000Y-56015000D02*
X181355000Y-54560000D01*
X181000000Y-89000000D02*
X179900000Y-87900000D01*
X179900000Y-87900000D02*
X179900000Y-56015000D01*
%TO.N,P006*%
X194943700Y-51131300D02*
X196595000Y-49480000D01*
X194943700Y-79536300D02*
X194943700Y-51131300D01*
X194055000Y-80425000D02*
X194943700Y-79536300D01*
%TD*%
M02*
