M48
; DRILL file {KiCad 8.0.5} date 2024-09-15T18:22:02-0400
; FORMAT={-:-/ absolute / inch / decimal}
; #@! TF.CreationDate,2024-09-15T18:22:02-04:00
; #@! TF.GenerationSoftware,Kicad,Pcbnew,8.0.5
; #@! TF.FileFunction,Plated,1,2,PTH
FMAT,2
INCH
; #@! TA.AperFunction,Plated,PTH,ViaDrill
T1C0.0157
; #@! TA.AperFunction,Plated,PTH,ComponentDrill
T2C0.0295
; #@! TA.AperFunction,Plated,PTH,ComponentDrill
T3C0.0390
; #@! TA.AperFunction,Plated,PTH,ComponentDrill
T4C0.0394
; #@! TA.AperFunction,Plated,PTH,ComponentDrill
T5C0.0430
%
G90
G05
T1
X6.8632Y-4.7638
X7.0079Y-4.1142
X7.0079Y-4.8228
X7.0866Y-3.5236
X7.0866Y-4.8622
X7.126Y-3.5039
X7.1457Y-3.937
X7.1855Y-3.4641
X7.2441Y-2.185
X7.2441Y-3.5236
X7.3228Y-3.9961
X7.4213Y-4.7638
X7.4803Y-4.0551
X7.6378Y-4.6654
X7.6378Y-5.374
X7.7559Y-4.626
X7.9528Y-1.8898
X7.9724Y-2.4803
X7.9809Y-5.2735
X7.9921Y-3.1496
X8.0118Y-4.7441
X8.0315Y-2.3425
X8.0315Y-3.0118
X8.0315Y-3.6811
X8.0906Y-4.5276
X8.4055Y-2.3947
X8.4055Y-3.064
X8.4055Y-3.7333
X8.6614Y-1.8898
X8.7598Y-2.2835
X8.7598Y-2.9528
X8.7598Y-3.622
X9.1142Y-2.3947
X9.1142Y-3.064
X9.1142Y-3.7333
X9.4488Y-2.9528
X9.4488Y-3.622
X9.4685Y-2.2835
X9.8228Y-2.3947
X9.8228Y-3.064
X9.8228Y-3.7333
X10.1772Y-2.2835
X10.1772Y-2.9528
X10.1772Y-3.622
X10.5315Y-2.3947
X10.5315Y-3.064
X10.5315Y-3.7333
X10.8858Y-2.2835
X10.8858Y-2.9528
X10.8858Y-3.622
X11.2402Y-2.3947
X11.2402Y-3.064
X11.2402Y-3.7333
X11.5748Y-3.622
X11.5748Y-4.3504
X11.5945Y-2.2835
X11.5945Y-2.9528
X11.9291Y-4.3701
X11.9488Y-2.3819
X11.9488Y-3.0512
X11.9488Y-3.7205
T2
X11.0541Y-4.1319
X11.0541Y-4.2106
T3
X7.1711Y-4.9811
X7.453Y-4.8785
X7.7329Y-5.4888
X7.837Y-4.7387
X8.0148Y-5.3862
X8.0695Y-2.4783
X8.0695Y-3.1476
X8.0695Y-3.8169
X8.1189Y-4.6361
X8.3695Y-2.4783
X8.3695Y-3.1476
X8.3695Y-3.8169
X8.7781Y-2.4783
X8.7781Y-3.1476
X8.7781Y-3.8169
X9.0781Y-2.4783
X9.0781Y-3.1476
X9.0781Y-3.8169
X9.4868Y-2.4783
X9.4868Y-3.1476
X9.4868Y-3.8169
X9.7868Y-2.4783
X9.7868Y-3.1476
X9.7868Y-3.8169
X10.1955Y-2.4783
X10.1955Y-3.1476
X10.1955Y-3.8169
X10.4955Y-2.4783
X10.4955Y-3.1476
X10.4955Y-3.8169
X10.9041Y-2.4783
X10.9041Y-3.1476
X10.9041Y-3.8169
X11.2041Y-2.4783
X11.2041Y-3.1476
X11.2041Y-3.8169
X11.6128Y-2.4783
X11.6128Y-3.1476
X11.6128Y-3.8169
X11.6128Y-4.4862
X11.9128Y-2.4783
X11.9128Y-3.1476
X11.9128Y-3.8169
X11.9128Y-4.4862
T4
X7.24Y-3.1663
X7.34Y-3.1663
X7.44Y-3.1663
X7.54Y-3.1663
X7.64Y-3.1663
T5
X7.14Y-1.948
X7.14Y-2.048
X7.14Y-2.148
X7.14Y-2.248
X7.14Y-2.348
X7.14Y-2.448
X7.14Y-2.548
X7.14Y-2.648
X7.14Y-2.748
X7.14Y-2.848
X7.14Y-2.948
X7.14Y-3.048
X7.24Y-2.848
X7.34Y-2.848
X7.44Y-2.848
X7.74Y-1.948
X7.74Y-2.048
X7.74Y-2.148
X7.74Y-2.248
X7.74Y-2.348
X7.74Y-2.448
X7.74Y-2.548
X7.74Y-2.648
X7.74Y-2.748
X7.74Y-2.848
X7.74Y-2.948
X7.74Y-3.048
M30
