%TF.GenerationSoftware,KiCad,Pcbnew,8.0.5*%
%TF.CreationDate,2024-09-15T18:22:07-04:00*%
%TF.ProjectId,theguy2,74686567-7579-4322-9e6b-696361645f70,v1.0.0*%
%TF.SameCoordinates,Original*%
%TF.FileFunction,Paste,Top*%
%TF.FilePolarity,Positive*%
%FSLAX46Y46*%
G04 Gerber Fmt 4.6, Leading zero omitted, Abs format (unit mm)*
G04 Created by KiCad (PCBNEW 8.0.5) date 2024-09-15 18:22:07*
%MOMM*%
%LPD*%
G01*
G04 APERTURE LIST*
G04 Aperture macros list*
%AMRotRect*
0 Rectangle, with rotation*
0 The origin of the aperture is its center*
0 $1 length*
0 $2 width*
0 $3 Rotation angle, in degrees counterclockwise*
0 Add horizontal line*
21,1,$1,$2,0,0,$3*%
G04 Aperture macros list end*
%ADD10RotRect,0.900000X0.900000X60.000000*%
%ADD11RotRect,0.900000X1.250000X60.000000*%
%ADD12R,2.600000X1.000000*%
%ADD13R,0.900000X1.200000*%
%ADD14RotRect,0.900000X1.200000X20.000000*%
%ADD15R,1.000000X1.550000*%
%ADD16RotRect,2.600000X1.000000X20.000000*%
G04 APERTURE END LIST*
D10*
%TO.C,T1*%
X174972372Y-106804294D03*
X176877628Y-107904294D03*
X178672372Y-100395706D03*
X180577628Y-101495706D03*
D11*
X180697003Y-103238943D03*
X179197003Y-105837019D03*
X178447003Y-107136057D03*
%TD*%
D12*
%TO.C,LED4*%
X296575000Y-110075000D03*
X296575000Y-111825000D03*
X300975000Y-111825000D03*
X300975000Y-110075000D03*
%TD*%
%TO.C,LED8*%
X278575000Y-93075000D03*
X278575000Y-94825000D03*
X282975000Y-94825000D03*
X282975000Y-93075000D03*
%TD*%
%TO.C,LED17*%
X224575000Y-93075000D03*
X224575000Y-94825000D03*
X228975000Y-94825000D03*
X228975000Y-93075000D03*
%TD*%
D13*
%TO.C,D6*%
X297125000Y-79950000D03*
X300425000Y-79950000D03*
%TD*%
D12*
%TO.C,LED6*%
X296575000Y-76075000D03*
X296575000Y-77825000D03*
X300975000Y-77825000D03*
X300975000Y-76075000D03*
%TD*%
%TO.C,LED10*%
X278575000Y-59075000D03*
X278575000Y-60825000D03*
X282975000Y-60825000D03*
X282975000Y-59075000D03*
%TD*%
%TO.C,LED5*%
X296575000Y-93075000D03*
X296575000Y-94825000D03*
X300975000Y-94825000D03*
X300975000Y-93075000D03*
%TD*%
D13*
%TO.C,D11*%
X261125000Y-96950000D03*
X264425000Y-96950000D03*
%TD*%
D12*
%TO.C,LED15*%
X242575000Y-76075000D03*
X242575000Y-77825000D03*
X246975000Y-77825000D03*
X246975000Y-76075000D03*
%TD*%
D13*
%TO.C,D7*%
X297125000Y-62950000D03*
X300425000Y-62950000D03*
%TD*%
%TO.C,D12*%
X261125000Y-79950000D03*
X264425000Y-79950000D03*
%TD*%
D12*
%TO.C,LED14*%
X242575000Y-93075000D03*
X242575000Y-94825000D03*
X246975000Y-94825000D03*
X246975000Y-93075000D03*
%TD*%
D13*
%TO.C,D8*%
X279125000Y-96950000D03*
X282425000Y-96950000D03*
%TD*%
%TO.C,D13*%
X261125000Y-62950000D03*
X264425000Y-62950000D03*
%TD*%
%TO.C,D19*%
X225125000Y-62950000D03*
X228425000Y-62950000D03*
%TD*%
D12*
%TO.C,LED18*%
X224575000Y-76075000D03*
X224575000Y-77825000D03*
X228975000Y-77825000D03*
X228975000Y-76075000D03*
%TD*%
D13*
%TO.C,D17*%
X225125000Y-96950000D03*
X228425000Y-96950000D03*
%TD*%
D12*
%TO.C,LED21*%
X206575000Y-76075000D03*
X206575000Y-77825000D03*
X210975000Y-77825000D03*
X210975000Y-76075000D03*
%TD*%
D13*
%TO.C,D5*%
X297125000Y-96950000D03*
X300425000Y-96950000D03*
%TD*%
%TO.C,D20*%
X207125000Y-96950000D03*
X210425000Y-96950000D03*
%TD*%
D12*
%TO.C,LED19*%
X224575000Y-59075000D03*
X224575000Y-60825000D03*
X228975000Y-60825000D03*
X228975000Y-59075000D03*
%TD*%
D13*
%TO.C,D10*%
X279125000Y-62950000D03*
X282425000Y-62950000D03*
%TD*%
D14*
%TO.C,D25*%
X198446269Y-138676876D03*
X201547255Y-137548210D03*
%TD*%
D12*
%TO.C,LED9*%
X278575000Y-76075000D03*
X278575000Y-77825000D03*
X282975000Y-77825000D03*
X282975000Y-76075000D03*
%TD*%
%TO.C,LED22*%
X206575000Y-59075000D03*
X206575000Y-60825000D03*
X210975000Y-60825000D03*
X210975000Y-59075000D03*
%TD*%
D13*
%TO.C,D4*%
X297125000Y-113950000D03*
X300425000Y-113950000D03*
%TD*%
%TO.C,D15*%
X243125000Y-79950000D03*
X246425000Y-79950000D03*
%TD*%
%TO.C,D18*%
X225125000Y-79950000D03*
X228425000Y-79950000D03*
%TD*%
D15*
%TO.C,B1*%
X179925000Y-97275000D03*
X179925000Y-92025000D03*
X181625000Y-97275000D03*
X181625000Y-92025000D03*
%TD*%
D13*
%TO.C,D21*%
X207125000Y-79950000D03*
X210425000Y-79950000D03*
%TD*%
D14*
%TO.C,D23*%
X201089160Y-119623920D03*
X204190146Y-118495254D03*
%TD*%
D12*
%TO.C,LED13*%
X260575000Y-59075000D03*
X260575000Y-60825000D03*
X264975000Y-60825000D03*
X264975000Y-59075000D03*
%TD*%
D13*
%TO.C,D14*%
X243125000Y-96950000D03*
X246425000Y-96950000D03*
%TD*%
%TO.C,D16*%
X243125000Y-62950000D03*
X246425000Y-62950000D03*
%TD*%
D12*
%TO.C,LED11*%
X260575000Y-93075000D03*
X260575000Y-94825000D03*
X264975000Y-94825000D03*
X264975000Y-93075000D03*
%TD*%
D16*
%TO.C,LED24*%
X182332535Y-122327085D03*
X182931070Y-123971547D03*
X187065717Y-122466659D03*
X186467182Y-120822197D03*
%TD*%
%TO.C,LED23*%
X199247002Y-116170723D03*
X199845537Y-117815185D03*
X203980184Y-116310297D03*
X203381649Y-114665835D03*
%TD*%
D12*
%TO.C,LED12*%
X260575000Y-76075000D03*
X260575000Y-77825000D03*
X264975000Y-77825000D03*
X264975000Y-76075000D03*
%TD*%
%TO.C,LED20*%
X206575000Y-93075000D03*
X206575000Y-94825000D03*
X210975000Y-94825000D03*
X210975000Y-93075000D03*
%TD*%
D13*
%TO.C,D22*%
X207125000Y-62950000D03*
X210425000Y-62950000D03*
%TD*%
D16*
%TO.C,LED25*%
X196604111Y-135223678D03*
X197202646Y-136868140D03*
X201337293Y-135363252D03*
X200738758Y-133718790D03*
%TD*%
D14*
%TO.C,D24*%
X184174693Y-125780283D03*
X187275679Y-124651617D03*
%TD*%
D12*
%TO.C,LED7*%
X296575000Y-59075000D03*
X296575000Y-60825000D03*
X300975000Y-60825000D03*
X300975000Y-59075000D03*
%TD*%
D13*
%TO.C,D9*%
X279125000Y-79950000D03*
X282425000Y-79950000D03*
%TD*%
D12*
%TO.C,LED16*%
X242575000Y-59075000D03*
X242575000Y-60825000D03*
X246975000Y-60825000D03*
X246975000Y-59075000D03*
%TD*%
M02*
