%TF.GenerationSoftware,KiCad,Pcbnew,8.0.5*%
%TF.CreationDate,2024-09-15T18:22:07-04:00*%
%TF.ProjectId,theguy2,74686567-7579-4322-9e6b-696361645f70,v1.0.0*%
%TF.SameCoordinates,Original*%
%TF.FileFunction,Profile,NP*%
%FSLAX46Y46*%
G04 Gerber Fmt 4.6, Leading zero omitted, Abs format (unit mm)*
G04 Created by KiCad (PCBNEW 8.0.5) date 2024-09-15 18:22:07*
%MOMM*%
%LPD*%
G01*
G04 APERTURE LIST*
%TA.AperFunction,Profile*%
%ADD10C,0.150000*%
%TD*%
G04 APERTURE END LIST*
D10*
X178775000Y-47450000D02*
G75*
G02*
X180775000Y-45450000I2000000J0D01*
G01*
X183504946Y-145927234D02*
X307247793Y-115821558D01*
X306775000Y-45450000D02*
X180775000Y-45450000D01*
X170637041Y-113075273D02*
X181134499Y-144615512D01*
X308775001Y-113878244D02*
G75*
G02*
X307247801Y-115821591I-2000101J44D01*
G01*
X183504946Y-145927233D02*
G75*
G02*
X181134477Y-144615519I-472746J1943433D01*
G01*
X178775000Y-97885299D02*
G75*
G02*
X178479658Y-98931312I-2000000J-1D01*
G01*
X308775000Y-113878244D02*
X308775000Y-47450000D01*
X306775000Y-45450000D02*
G75*
G02*
X308775000Y-47450000I0J-2000000D01*
G01*
X178479657Y-98931312D02*
X170830038Y-111397668D01*
X178775000Y-47450000D02*
X178775000Y-97885298D01*
X170637041Y-113075273D02*
G75*
G02*
X170830043Y-111397671I1897759J631573D01*
G01*
%TO.C,LED4*%
X297025000Y-109200000D02*
X297025000Y-112700000D01*
X297025000Y-112700000D02*
X300525000Y-112700000D01*
X300525000Y-109200000D02*
X297025000Y-109200000D01*
X300525000Y-112700000D02*
X300525000Y-109200000D01*
%TO.C,LED8*%
X279025000Y-92200000D02*
X279025000Y-95700000D01*
X279025000Y-95700000D02*
X282525000Y-95700000D01*
X282525000Y-92200000D02*
X279025000Y-92200000D01*
X282525000Y-95700000D02*
X282525000Y-92200000D01*
%TO.C,LED17*%
X225025000Y-92200000D02*
X225025000Y-95700000D01*
X225025000Y-95700000D02*
X228525000Y-95700000D01*
X228525000Y-92200000D02*
X225025000Y-92200000D01*
X228525000Y-95700000D02*
X228525000Y-92200000D01*
%TO.C,LED6*%
X297025000Y-75200000D02*
X297025000Y-78700000D01*
X297025000Y-78700000D02*
X300525000Y-78700000D01*
X300525000Y-75200000D02*
X297025000Y-75200000D01*
X300525000Y-78700000D02*
X300525000Y-75200000D01*
%TO.C,LED10*%
X279025000Y-58200000D02*
X279025000Y-61700000D01*
X279025000Y-61700000D02*
X282525000Y-61700000D01*
X282525000Y-58200000D02*
X279025000Y-58200000D01*
X282525000Y-61700000D02*
X282525000Y-58200000D01*
%TO.C,LED5*%
X297025000Y-92200000D02*
X297025000Y-95700000D01*
X297025000Y-95700000D02*
X300525000Y-95700000D01*
X300525000Y-92200000D02*
X297025000Y-92200000D01*
X300525000Y-95700000D02*
X300525000Y-92200000D01*
%TO.C,LED15*%
X243025000Y-75200000D02*
X243025000Y-78700000D01*
X243025000Y-78700000D02*
X246525000Y-78700000D01*
X246525000Y-75200000D02*
X243025000Y-75200000D01*
X246525000Y-78700000D02*
X246525000Y-75200000D01*
%TO.C,LED14*%
X243025000Y-92200000D02*
X243025000Y-95700000D01*
X243025000Y-95700000D02*
X246525000Y-95700000D01*
X246525000Y-92200000D02*
X243025000Y-92200000D01*
X246525000Y-95700000D02*
X246525000Y-92200000D01*
%TO.C,LED18*%
X225025000Y-75200000D02*
X225025000Y-78700000D01*
X225025000Y-78700000D02*
X228525000Y-78700000D01*
X228525000Y-75200000D02*
X225025000Y-75200000D01*
X228525000Y-78700000D02*
X228525000Y-75200000D01*
%TO.C,LED21*%
X207025000Y-75200000D02*
X207025000Y-78700000D01*
X207025000Y-78700000D02*
X210525000Y-78700000D01*
X210525000Y-75200000D02*
X207025000Y-75200000D01*
X210525000Y-78700000D02*
X210525000Y-75200000D01*
%TO.C,LED19*%
X225025000Y-58200000D02*
X225025000Y-61700000D01*
X225025000Y-61700000D02*
X228525000Y-61700000D01*
X228525000Y-58200000D02*
X225025000Y-58200000D01*
X228525000Y-61700000D02*
X228525000Y-58200000D01*
%TO.C,LED9*%
X279025000Y-75200000D02*
X279025000Y-78700000D01*
X279025000Y-78700000D02*
X282525000Y-78700000D01*
X282525000Y-75200000D02*
X279025000Y-75200000D01*
X282525000Y-78700000D02*
X282525000Y-75200000D01*
%TO.C,LED22*%
X207025000Y-58200000D02*
X207025000Y-61700000D01*
X207025000Y-61700000D02*
X210525000Y-61700000D01*
X210525000Y-58200000D02*
X207025000Y-58200000D01*
X210525000Y-61700000D02*
X210525000Y-58200000D01*
%TO.C,LED13*%
X261025000Y-58200000D02*
X261025000Y-61700000D01*
X261025000Y-61700000D02*
X264525000Y-61700000D01*
X264525000Y-58200000D02*
X261025000Y-58200000D01*
X264525000Y-61700000D02*
X264525000Y-58200000D01*
%TO.C,LED11*%
X261025000Y-92200000D02*
X261025000Y-95700000D01*
X261025000Y-95700000D02*
X264525000Y-95700000D01*
X264525000Y-92200000D02*
X261025000Y-92200000D01*
X264525000Y-95700000D02*
X264525000Y-92200000D01*
%TO.C,LED24*%
X182456129Y-121350945D02*
X183653199Y-124639869D01*
X183653199Y-124639869D02*
X186942123Y-123442799D01*
X185745053Y-120153875D02*
X182456129Y-121350945D01*
X186942123Y-123442799D02*
X185745053Y-120153875D01*
%TO.C,LED23*%
X199370596Y-115194583D02*
X200567666Y-118483507D01*
X200567666Y-118483507D02*
X203856590Y-117286437D01*
X202659520Y-113997513D02*
X199370596Y-115194583D01*
X203856590Y-117286437D02*
X202659520Y-113997513D01*
%TO.C,LED12*%
X261025000Y-75200000D02*
X261025000Y-78700000D01*
X261025000Y-78700000D02*
X264525000Y-78700000D01*
X264525000Y-75200000D02*
X261025000Y-75200000D01*
X264525000Y-78700000D02*
X264525000Y-75200000D01*
%TO.C,LED20*%
X207025000Y-92200000D02*
X207025000Y-95700000D01*
X207025000Y-95700000D02*
X210525000Y-95700000D01*
X210525000Y-92200000D02*
X207025000Y-92200000D01*
X210525000Y-95700000D02*
X210525000Y-92200000D01*
%TO.C,LED25*%
X196727705Y-134247538D02*
X197924775Y-137536462D01*
X197924775Y-137536462D02*
X201213699Y-136339392D01*
X200016629Y-133050468D02*
X196727705Y-134247538D01*
X201213699Y-136339392D02*
X200016629Y-133050468D01*
%TO.C,LED7*%
X297025000Y-58200000D02*
X297025000Y-61700000D01*
X297025000Y-61700000D02*
X300525000Y-61700000D01*
X300525000Y-58200000D02*
X297025000Y-58200000D01*
X300525000Y-61700000D02*
X300525000Y-58200000D01*
%TO.C,LED16*%
X243025000Y-58200000D02*
X243025000Y-61700000D01*
X243025000Y-61700000D02*
X246525000Y-61700000D01*
X246525000Y-58200000D02*
X243025000Y-58200000D01*
X246525000Y-61700000D02*
X246525000Y-58200000D01*
%TD*%
M02*
