M48
; DRILL file {KiCad 8.0.5} date 2024-09-15T18:20:36-0400
; FORMAT={-:-/ absolute / inch / decimal}
; #@! TF.CreationDate,2024-09-15T18:20:36-04:00
; #@! TF.GenerationSoftware,Kicad,Pcbnew,8.0.5
; #@! TF.FileFunction,NonPlated,1,2,NPTH
FMAT,2
INCH
; #@! TA.AperFunction,NonPlated,NPTH,ComponentDrill
T1C0.0295
; #@! TA.AperFunction,NonPlated,NPTH,ComponentDrill
T2C0.0354
; #@! TA.AperFunction,NonPlated,NPTH,ComponentDrill
T3C0.0670
; #@! TA.AperFunction,NonPlated,NPTH,ComponentDrill
T4C0.1181
; #@! TA.AperFunction,NonPlated,NPTH,ComponentDrill
T5C0.1350
; #@! TA.AperFunction,NonPlated,NPTH,ComponentDrill
T6C0.1575
%
G90
G05
T1
X7.3474Y-3.4921
X7.4557Y-3.4921
T2
X7.4902Y-3.815
X7.5492Y-3.9173
T3
X2.5394Y-1.9291
X2.5394Y-2.5984
X2.5394Y-3.2677
X2.5394Y-3.937
X2.9724Y-1.9291
X2.9724Y-2.5984
X2.9724Y-3.2677
X2.9724Y-3.937
X3.248Y-1.9291
X3.248Y-2.5984
X3.248Y-3.2677
X3.6811Y-1.9291
X3.6811Y-2.5984
X3.6811Y-3.2677
X3.9567Y-1.9291
X3.9567Y-2.5984
X3.9567Y-3.2677
X4.3898Y-1.9291
X4.3898Y-2.5984
X4.3898Y-3.2677
X4.6654Y-1.9291
X4.6654Y-2.5984
X4.6654Y-3.2677
X5.0984Y-1.9291
X5.0984Y-2.5984
X5.0984Y-3.2677
X5.374Y-1.9291
X5.374Y-2.5984
X5.374Y-3.2677
X5.8071Y-1.9291
X5.8071Y-2.5984
X5.8071Y-3.2677
X6.0827Y-1.9291
X6.0827Y-2.5984
X6.0827Y-3.2677
X6.445Y-4.0831
X6.5157Y-1.9291
X6.5157Y-2.5984
X6.5157Y-3.2677
X6.5491Y-4.8332
X6.852Y-4.2312
X6.956Y-4.9813
X7.1109Y-4.3255
X7.5179Y-4.4736
T4
X2.7559Y-1.6949
X2.7559Y-2.3642
X2.7559Y-3.0335
X2.7559Y-3.7028
X2.9528Y-1.7815
X2.9528Y-2.4508
X2.9528Y-3.1201
X2.9528Y-3.7894
X3.4646Y-1.6949
X3.4646Y-2.3642
X3.4646Y-3.0335
X3.6614Y-1.7815
X3.6614Y-2.4508
X3.6614Y-3.1201
X4.1732Y-1.6949
X4.1732Y-2.3642
X4.1732Y-3.0335
X4.3701Y-1.7815
X4.3701Y-2.4508
X4.3701Y-3.1201
X4.8819Y-1.6949
X4.8819Y-2.3642
X4.8819Y-3.0335
X5.0787Y-1.7815
X5.0787Y-2.4508
X5.0787Y-3.1201
X5.5906Y-1.6949
X5.5906Y-2.3642
X5.5906Y-3.0335
X5.7874Y-1.7815
X5.7874Y-2.4508
X5.7874Y-3.1201
X6.2992Y-1.6949
X6.2992Y-2.3642
X6.2992Y-3.0335
X6.4961Y-1.7815
X6.4961Y-2.4508
X6.4961Y-3.1201
X6.7286Y-3.937
X6.8327Y-4.6872
X6.884Y-4.0858
X6.988Y-4.8359
X7.3945Y-4.1794
X7.5499Y-4.3281
T5
X2.7559Y-1.9291
X2.7559Y-2.5984
X2.7559Y-3.2677
X2.7559Y-3.937
X3.4646Y-1.9291
X3.4646Y-2.5984
X3.4646Y-3.2677
X4.1732Y-1.9291
X4.1732Y-2.5984
X4.1732Y-3.2677
X4.8819Y-1.9291
X4.8819Y-2.5984
X4.8819Y-3.2677
X5.5906Y-1.9291
X5.5906Y-2.5984
X5.5906Y-3.2677
X6.2992Y-1.9291
X6.2992Y-2.5984
X6.2992Y-3.2677
X6.6485Y-4.1572
X6.7525Y-4.9073
X7.3144Y-4.3995
T6
X2.4803Y-4.1339
X3.1496Y-2.2657
X4.5276Y-2.935
X4.5276Y-4.5768
X7.0079Y-3.5827
X7.0866Y-1.752
X7.2267Y-5.3312
M30
