%TF.GenerationSoftware,KiCad,Pcbnew,8.0.5*%
%TF.CreationDate,2024-09-15T18:20:55-04:00*%
%TF.ProjectId,theguy,74686567-7579-42e6-9b69-6361645f7063,v1.0.0*%
%TF.SameCoordinates,Original*%
%TF.FileFunction,Legend,Bot*%
%TF.FilePolarity,Positive*%
%FSLAX46Y46*%
G04 Gerber Fmt 4.6, Leading zero omitted, Abs format (unit mm)*
G04 Created by KiCad (PCBNEW 8.0.5) date 2024-09-15 18:20:55*
%MOMM*%
%LPD*%
G01*
G04 APERTURE LIST*
%ADD10C,0.150000*%
%ADD11C,0.100000*%
%ADD12C,0.381000*%
%ADD13C,1.752600*%
G04 APERTURE END LIST*
D10*
X175044200Y-71303571D02*
X175082295Y-71417857D01*
X175082295Y-71417857D02*
X175082295Y-71608333D01*
X175082295Y-71608333D02*
X175044200Y-71684524D01*
X175044200Y-71684524D02*
X175006104Y-71722619D01*
X175006104Y-71722619D02*
X174929914Y-71760714D01*
X174929914Y-71760714D02*
X174853723Y-71760714D01*
X174853723Y-71760714D02*
X174777533Y-71722619D01*
X174777533Y-71722619D02*
X174739438Y-71684524D01*
X174739438Y-71684524D02*
X174701342Y-71608333D01*
X174701342Y-71608333D02*
X174663247Y-71455952D01*
X174663247Y-71455952D02*
X174625152Y-71379762D01*
X174625152Y-71379762D02*
X174587057Y-71341667D01*
X174587057Y-71341667D02*
X174510866Y-71303571D01*
X174510866Y-71303571D02*
X174434676Y-71303571D01*
X174434676Y-71303571D02*
X174358485Y-71341667D01*
X174358485Y-71341667D02*
X174320390Y-71379762D01*
X174320390Y-71379762D02*
X174282295Y-71455952D01*
X174282295Y-71455952D02*
X174282295Y-71646429D01*
X174282295Y-71646429D02*
X174320390Y-71760714D01*
X175082295Y-72103572D02*
X174282295Y-72103572D01*
X174282295Y-72103572D02*
X174282295Y-72294048D01*
X174282295Y-72294048D02*
X174320390Y-72408334D01*
X174320390Y-72408334D02*
X174396580Y-72484524D01*
X174396580Y-72484524D02*
X174472771Y-72522619D01*
X174472771Y-72522619D02*
X174625152Y-72560715D01*
X174625152Y-72560715D02*
X174739438Y-72560715D01*
X174739438Y-72560715D02*
X174891819Y-72522619D01*
X174891819Y-72522619D02*
X174968009Y-72484524D01*
X174968009Y-72484524D02*
X175044200Y-72408334D01*
X175044200Y-72408334D02*
X175082295Y-72294048D01*
X175082295Y-72294048D02*
X175082295Y-72103572D01*
X174853723Y-72865476D02*
X174853723Y-73246429D01*
X175082295Y-72789286D02*
X174282295Y-73055953D01*
X174282295Y-73055953D02*
X175082295Y-73322619D01*
X179362295Y-71208333D02*
X180162295Y-71475000D01*
X180162295Y-71475000D02*
X179362295Y-71741666D01*
X180086104Y-72465476D02*
X180124200Y-72427380D01*
X180124200Y-72427380D02*
X180162295Y-72313095D01*
X180162295Y-72313095D02*
X180162295Y-72236904D01*
X180162295Y-72236904D02*
X180124200Y-72122618D01*
X180124200Y-72122618D02*
X180048009Y-72046428D01*
X180048009Y-72046428D02*
X179971819Y-72008333D01*
X179971819Y-72008333D02*
X179819438Y-71970237D01*
X179819438Y-71970237D02*
X179705152Y-71970237D01*
X179705152Y-71970237D02*
X179552771Y-72008333D01*
X179552771Y-72008333D02*
X179476580Y-72046428D01*
X179476580Y-72046428D02*
X179400390Y-72122618D01*
X179400390Y-72122618D02*
X179362295Y-72236904D01*
X179362295Y-72236904D02*
X179362295Y-72313095D01*
X179362295Y-72313095D02*
X179400390Y-72427380D01*
X179400390Y-72427380D02*
X179438485Y-72465476D01*
X180086104Y-73265476D02*
X180124200Y-73227380D01*
X180124200Y-73227380D02*
X180162295Y-73113095D01*
X180162295Y-73113095D02*
X180162295Y-73036904D01*
X180162295Y-73036904D02*
X180124200Y-72922618D01*
X180124200Y-72922618D02*
X180048009Y-72846428D01*
X180048009Y-72846428D02*
X179971819Y-72808333D01*
X179971819Y-72808333D02*
X179819438Y-72770237D01*
X179819438Y-72770237D02*
X179705152Y-72770237D01*
X179705152Y-72770237D02*
X179552771Y-72808333D01*
X179552771Y-72808333D02*
X179476580Y-72846428D01*
X179476580Y-72846428D02*
X179400390Y-72922618D01*
X179400390Y-72922618D02*
X179362295Y-73036904D01*
X179362295Y-73036904D02*
X179362295Y-73113095D01*
X179362295Y-73113095D02*
X179400390Y-73227380D01*
X179400390Y-73227380D02*
X179438485Y-73265476D01*
X185166104Y-72141667D02*
X185204200Y-72103571D01*
X185204200Y-72103571D02*
X185242295Y-71989286D01*
X185242295Y-71989286D02*
X185242295Y-71913095D01*
X185242295Y-71913095D02*
X185204200Y-71798809D01*
X185204200Y-71798809D02*
X185128009Y-71722619D01*
X185128009Y-71722619D02*
X185051819Y-71684524D01*
X185051819Y-71684524D02*
X184899438Y-71646428D01*
X184899438Y-71646428D02*
X184785152Y-71646428D01*
X184785152Y-71646428D02*
X184632771Y-71684524D01*
X184632771Y-71684524D02*
X184556580Y-71722619D01*
X184556580Y-71722619D02*
X184480390Y-71798809D01*
X184480390Y-71798809D02*
X184442295Y-71913095D01*
X184442295Y-71913095D02*
X184442295Y-71989286D01*
X184442295Y-71989286D02*
X184480390Y-72103571D01*
X184480390Y-72103571D02*
X184518485Y-72141667D01*
X185204200Y-72446428D02*
X185242295Y-72560714D01*
X185242295Y-72560714D02*
X185242295Y-72751190D01*
X185242295Y-72751190D02*
X185204200Y-72827381D01*
X185204200Y-72827381D02*
X185166104Y-72865476D01*
X185166104Y-72865476D02*
X185089914Y-72903571D01*
X185089914Y-72903571D02*
X185013723Y-72903571D01*
X185013723Y-72903571D02*
X184937533Y-72865476D01*
X184937533Y-72865476D02*
X184899438Y-72827381D01*
X184899438Y-72827381D02*
X184861342Y-72751190D01*
X184861342Y-72751190D02*
X184823247Y-72598809D01*
X184823247Y-72598809D02*
X184785152Y-72522619D01*
X184785152Y-72522619D02*
X184747057Y-72484524D01*
X184747057Y-72484524D02*
X184670866Y-72446428D01*
X184670866Y-72446428D02*
X184594676Y-72446428D01*
X184594676Y-72446428D02*
X184518485Y-72484524D01*
X184518485Y-72484524D02*
X184480390Y-72522619D01*
X184480390Y-72522619D02*
X184442295Y-72598809D01*
X184442295Y-72598809D02*
X184442295Y-72789286D01*
X184442295Y-72789286D02*
X184480390Y-72903571D01*
X181940390Y-71665476D02*
X181902295Y-71589286D01*
X181902295Y-71589286D02*
X181902295Y-71475000D01*
X181902295Y-71475000D02*
X181940390Y-71360714D01*
X181940390Y-71360714D02*
X182016580Y-71284524D01*
X182016580Y-71284524D02*
X182092771Y-71246429D01*
X182092771Y-71246429D02*
X182245152Y-71208333D01*
X182245152Y-71208333D02*
X182359438Y-71208333D01*
X182359438Y-71208333D02*
X182511819Y-71246429D01*
X182511819Y-71246429D02*
X182588009Y-71284524D01*
X182588009Y-71284524D02*
X182664200Y-71360714D01*
X182664200Y-71360714D02*
X182702295Y-71475000D01*
X182702295Y-71475000D02*
X182702295Y-71551191D01*
X182702295Y-71551191D02*
X182664200Y-71665476D01*
X182664200Y-71665476D02*
X182626104Y-71703572D01*
X182626104Y-71703572D02*
X182359438Y-71703572D01*
X182359438Y-71703572D02*
X182359438Y-71551191D01*
X182702295Y-72046429D02*
X181902295Y-72046429D01*
X181902295Y-72046429D02*
X182702295Y-72503572D01*
X182702295Y-72503572D02*
X181902295Y-72503572D01*
X182702295Y-72884524D02*
X181902295Y-72884524D01*
X181902295Y-72884524D02*
X181902295Y-73075000D01*
X181902295Y-73075000D02*
X181940390Y-73189286D01*
X181940390Y-73189286D02*
X182016580Y-73265476D01*
X182016580Y-73265476D02*
X182092771Y-73303571D01*
X182092771Y-73303571D02*
X182245152Y-73341667D01*
X182245152Y-73341667D02*
X182359438Y-73341667D01*
X182359438Y-73341667D02*
X182511819Y-73303571D01*
X182511819Y-73303571D02*
X182588009Y-73265476D01*
X182588009Y-73265476D02*
X182664200Y-73189286D01*
X182664200Y-73189286D02*
X182702295Y-73075000D01*
X182702295Y-73075000D02*
X182702295Y-72884524D01*
X177584200Y-71322618D02*
X177622295Y-71436904D01*
X177622295Y-71436904D02*
X177622295Y-71627380D01*
X177622295Y-71627380D02*
X177584200Y-71703571D01*
X177584200Y-71703571D02*
X177546104Y-71741666D01*
X177546104Y-71741666D02*
X177469914Y-71779761D01*
X177469914Y-71779761D02*
X177393723Y-71779761D01*
X177393723Y-71779761D02*
X177317533Y-71741666D01*
X177317533Y-71741666D02*
X177279438Y-71703571D01*
X177279438Y-71703571D02*
X177241342Y-71627380D01*
X177241342Y-71627380D02*
X177203247Y-71474999D01*
X177203247Y-71474999D02*
X177165152Y-71398809D01*
X177165152Y-71398809D02*
X177127057Y-71360714D01*
X177127057Y-71360714D02*
X177050866Y-71322618D01*
X177050866Y-71322618D02*
X176974676Y-71322618D01*
X176974676Y-71322618D02*
X176898485Y-71360714D01*
X176898485Y-71360714D02*
X176860390Y-71398809D01*
X176860390Y-71398809D02*
X176822295Y-71474999D01*
X176822295Y-71474999D02*
X176822295Y-71665476D01*
X176822295Y-71665476D02*
X176860390Y-71779761D01*
X177546104Y-72579762D02*
X177584200Y-72541666D01*
X177584200Y-72541666D02*
X177622295Y-72427381D01*
X177622295Y-72427381D02*
X177622295Y-72351190D01*
X177622295Y-72351190D02*
X177584200Y-72236904D01*
X177584200Y-72236904D02*
X177508009Y-72160714D01*
X177508009Y-72160714D02*
X177431819Y-72122619D01*
X177431819Y-72122619D02*
X177279438Y-72084523D01*
X177279438Y-72084523D02*
X177165152Y-72084523D01*
X177165152Y-72084523D02*
X177012771Y-72122619D01*
X177012771Y-72122619D02*
X176936580Y-72160714D01*
X176936580Y-72160714D02*
X176860390Y-72236904D01*
X176860390Y-72236904D02*
X176822295Y-72351190D01*
X176822295Y-72351190D02*
X176822295Y-72427381D01*
X176822295Y-72427381D02*
X176860390Y-72541666D01*
X176860390Y-72541666D02*
X176898485Y-72579762D01*
X177622295Y-73303571D02*
X177622295Y-72922619D01*
X177622295Y-72922619D02*
X176822295Y-72922619D01*
X174796142Y-66752295D02*
X175253285Y-66752295D01*
X175024713Y-66752295D02*
X175024713Y-65952295D01*
X175024713Y-65952295D02*
X175100904Y-66066580D01*
X175100904Y-66066580D02*
X175177094Y-66142771D01*
X175177094Y-66142771D02*
X175253285Y-66180866D01*
X174034237Y-66752295D02*
X174491380Y-66752295D01*
X174262808Y-66752295D02*
X174262808Y-65952295D01*
X174262808Y-65952295D02*
X174338999Y-66066580D01*
X174338999Y-66066580D02*
X174415189Y-66142771D01*
X174415189Y-66142771D02*
X174491380Y-66180866D01*
X173272332Y-66752295D02*
X173729475Y-66752295D01*
X173500903Y-66752295D02*
X173500903Y-65952295D01*
X173500903Y-65952295D02*
X173577094Y-66066580D01*
X173577094Y-66066580D02*
X173653284Y-66142771D01*
X173653284Y-66142771D02*
X173729475Y-66180866D01*
X175062808Y-68492295D02*
X174986618Y-68492295D01*
X174986618Y-68492295D02*
X174910427Y-68530390D01*
X174910427Y-68530390D02*
X174872332Y-68568485D01*
X174872332Y-68568485D02*
X174834237Y-68644676D01*
X174834237Y-68644676D02*
X174796142Y-68797057D01*
X174796142Y-68797057D02*
X174796142Y-68987533D01*
X174796142Y-68987533D02*
X174834237Y-69139914D01*
X174834237Y-69139914D02*
X174872332Y-69216104D01*
X174872332Y-69216104D02*
X174910427Y-69254200D01*
X174910427Y-69254200D02*
X174986618Y-69292295D01*
X174986618Y-69292295D02*
X175062808Y-69292295D01*
X175062808Y-69292295D02*
X175138999Y-69254200D01*
X175138999Y-69254200D02*
X175177094Y-69216104D01*
X175177094Y-69216104D02*
X175215189Y-69139914D01*
X175215189Y-69139914D02*
X175253285Y-68987533D01*
X175253285Y-68987533D02*
X175253285Y-68797057D01*
X175253285Y-68797057D02*
X175215189Y-68644676D01*
X175215189Y-68644676D02*
X175177094Y-68568485D01*
X175177094Y-68568485D02*
X175138999Y-68530390D01*
X175138999Y-68530390D02*
X175062808Y-68492295D01*
X174034237Y-69292295D02*
X174491380Y-69292295D01*
X174262808Y-69292295D02*
X174262808Y-68492295D01*
X174262808Y-68492295D02*
X174338999Y-68606580D01*
X174338999Y-68606580D02*
X174415189Y-68682771D01*
X174415189Y-68682771D02*
X174491380Y-68720866D01*
X173538998Y-68492295D02*
X173462808Y-68492295D01*
X173462808Y-68492295D02*
X173386617Y-68530390D01*
X173386617Y-68530390D02*
X173348522Y-68568485D01*
X173348522Y-68568485D02*
X173310427Y-68644676D01*
X173310427Y-68644676D02*
X173272332Y-68797057D01*
X173272332Y-68797057D02*
X173272332Y-68987533D01*
X173272332Y-68987533D02*
X173310427Y-69139914D01*
X173310427Y-69139914D02*
X173348522Y-69216104D01*
X173348522Y-69216104D02*
X173386617Y-69254200D01*
X173386617Y-69254200D02*
X173462808Y-69292295D01*
X173462808Y-69292295D02*
X173538998Y-69292295D01*
X173538998Y-69292295D02*
X173615189Y-69254200D01*
X173615189Y-69254200D02*
X173653284Y-69216104D01*
X173653284Y-69216104D02*
X173691379Y-69139914D01*
X173691379Y-69139914D02*
X173729475Y-68987533D01*
X173729475Y-68987533D02*
X173729475Y-68797057D01*
X173729475Y-68797057D02*
X173691379Y-68644676D01*
X173691379Y-68644676D02*
X173653284Y-68568485D01*
X173653284Y-68568485D02*
X173615189Y-68530390D01*
X173615189Y-68530390D02*
X173538998Y-68492295D01*
X186137189Y-58362295D02*
X186060999Y-58362295D01*
X186060999Y-58362295D02*
X185984808Y-58400390D01*
X185984808Y-58400390D02*
X185946713Y-58438485D01*
X185946713Y-58438485D02*
X185908618Y-58514676D01*
X185908618Y-58514676D02*
X185870523Y-58667057D01*
X185870523Y-58667057D02*
X185870523Y-58857533D01*
X185870523Y-58857533D02*
X185908618Y-59009914D01*
X185908618Y-59009914D02*
X185946713Y-59086104D01*
X185946713Y-59086104D02*
X185984808Y-59124200D01*
X185984808Y-59124200D02*
X186060999Y-59162295D01*
X186060999Y-59162295D02*
X186137189Y-59162295D01*
X186137189Y-59162295D02*
X186213380Y-59124200D01*
X186213380Y-59124200D02*
X186251475Y-59086104D01*
X186251475Y-59086104D02*
X186289570Y-59009914D01*
X186289570Y-59009914D02*
X186327666Y-58857533D01*
X186327666Y-58857533D02*
X186327666Y-58667057D01*
X186327666Y-58667057D02*
X186289570Y-58514676D01*
X186289570Y-58514676D02*
X186251475Y-58438485D01*
X186251475Y-58438485D02*
X186213380Y-58400390D01*
X186213380Y-58400390D02*
X186137189Y-58362295D01*
X185565761Y-58438485D02*
X185527665Y-58400390D01*
X185527665Y-58400390D02*
X185451475Y-58362295D01*
X185451475Y-58362295D02*
X185260999Y-58362295D01*
X185260999Y-58362295D02*
X185184808Y-58400390D01*
X185184808Y-58400390D02*
X185146713Y-58438485D01*
X185146713Y-58438485D02*
X185108618Y-58514676D01*
X185108618Y-58514676D02*
X185108618Y-58590866D01*
X185108618Y-58590866D02*
X185146713Y-58705152D01*
X185146713Y-58705152D02*
X185603856Y-59162295D01*
X185603856Y-59162295D02*
X185108618Y-59162295D01*
X184803856Y-58438485D02*
X184765760Y-58400390D01*
X184765760Y-58400390D02*
X184689570Y-58362295D01*
X184689570Y-58362295D02*
X184499094Y-58362295D01*
X184499094Y-58362295D02*
X184422903Y-58400390D01*
X184422903Y-58400390D02*
X184384808Y-58438485D01*
X184384808Y-58438485D02*
X184346713Y-58514676D01*
X184346713Y-58514676D02*
X184346713Y-58590866D01*
X184346713Y-58590866D02*
X184384808Y-58705152D01*
X184384808Y-58705152D02*
X184841951Y-59162295D01*
X184841951Y-59162295D02*
X184346713Y-59162295D01*
X175329475Y-50712295D02*
X175062808Y-51512295D01*
X175062808Y-51512295D02*
X174796142Y-50712295D01*
X174072332Y-51436104D02*
X174110428Y-51474200D01*
X174110428Y-51474200D02*
X174224713Y-51512295D01*
X174224713Y-51512295D02*
X174300904Y-51512295D01*
X174300904Y-51512295D02*
X174415190Y-51474200D01*
X174415190Y-51474200D02*
X174491380Y-51398009D01*
X174491380Y-51398009D02*
X174529475Y-51321819D01*
X174529475Y-51321819D02*
X174567571Y-51169438D01*
X174567571Y-51169438D02*
X174567571Y-51055152D01*
X174567571Y-51055152D02*
X174529475Y-50902771D01*
X174529475Y-50902771D02*
X174491380Y-50826580D01*
X174491380Y-50826580D02*
X174415190Y-50750390D01*
X174415190Y-50750390D02*
X174300904Y-50712295D01*
X174300904Y-50712295D02*
X174224713Y-50712295D01*
X174224713Y-50712295D02*
X174110428Y-50750390D01*
X174110428Y-50750390D02*
X174072332Y-50788485D01*
X173272332Y-51436104D02*
X173310428Y-51474200D01*
X173310428Y-51474200D02*
X173424713Y-51512295D01*
X173424713Y-51512295D02*
X173500904Y-51512295D01*
X173500904Y-51512295D02*
X173615190Y-51474200D01*
X173615190Y-51474200D02*
X173691380Y-51398009D01*
X173691380Y-51398009D02*
X173729475Y-51321819D01*
X173729475Y-51321819D02*
X173767571Y-51169438D01*
X173767571Y-51169438D02*
X173767571Y-51055152D01*
X173767571Y-51055152D02*
X173729475Y-50902771D01*
X173729475Y-50902771D02*
X173691380Y-50826580D01*
X173691380Y-50826580D02*
X173615190Y-50750390D01*
X173615190Y-50750390D02*
X173500904Y-50712295D01*
X173500904Y-50712295D02*
X173424713Y-50712295D01*
X173424713Y-50712295D02*
X173310428Y-50750390D01*
X173310428Y-50750390D02*
X173272332Y-50788485D01*
X185870523Y-69292295D02*
X186327666Y-69292295D01*
X186099094Y-69292295D02*
X186099094Y-68492295D01*
X186099094Y-68492295D02*
X186175285Y-68606580D01*
X186175285Y-68606580D02*
X186251475Y-68682771D01*
X186251475Y-68682771D02*
X186327666Y-68720866D01*
X185375284Y-68492295D02*
X185299094Y-68492295D01*
X185299094Y-68492295D02*
X185222903Y-68530390D01*
X185222903Y-68530390D02*
X185184808Y-68568485D01*
X185184808Y-68568485D02*
X185146713Y-68644676D01*
X185146713Y-68644676D02*
X185108618Y-68797057D01*
X185108618Y-68797057D02*
X185108618Y-68987533D01*
X185108618Y-68987533D02*
X185146713Y-69139914D01*
X185146713Y-69139914D02*
X185184808Y-69216104D01*
X185184808Y-69216104D02*
X185222903Y-69254200D01*
X185222903Y-69254200D02*
X185299094Y-69292295D01*
X185299094Y-69292295D02*
X185375284Y-69292295D01*
X185375284Y-69292295D02*
X185451475Y-69254200D01*
X185451475Y-69254200D02*
X185489570Y-69216104D01*
X185489570Y-69216104D02*
X185527665Y-69139914D01*
X185527665Y-69139914D02*
X185565761Y-68987533D01*
X185565761Y-68987533D02*
X185565761Y-68797057D01*
X185565761Y-68797057D02*
X185527665Y-68644676D01*
X185527665Y-68644676D02*
X185489570Y-68568485D01*
X185489570Y-68568485D02*
X185451475Y-68530390D01*
X185451475Y-68530390D02*
X185375284Y-68492295D01*
X184422903Y-68758961D02*
X184422903Y-69292295D01*
X184613379Y-68454200D02*
X184803856Y-69025628D01*
X184803856Y-69025628D02*
X184308617Y-69025628D01*
X185870523Y-50750390D02*
X185946713Y-50712295D01*
X185946713Y-50712295D02*
X186060999Y-50712295D01*
X186060999Y-50712295D02*
X186175285Y-50750390D01*
X186175285Y-50750390D02*
X186251475Y-50826580D01*
X186251475Y-50826580D02*
X186289570Y-50902771D01*
X186289570Y-50902771D02*
X186327666Y-51055152D01*
X186327666Y-51055152D02*
X186327666Y-51169438D01*
X186327666Y-51169438D02*
X186289570Y-51321819D01*
X186289570Y-51321819D02*
X186251475Y-51398009D01*
X186251475Y-51398009D02*
X186175285Y-51474200D01*
X186175285Y-51474200D02*
X186060999Y-51512295D01*
X186060999Y-51512295D02*
X185984808Y-51512295D01*
X185984808Y-51512295D02*
X185870523Y-51474200D01*
X185870523Y-51474200D02*
X185832427Y-51436104D01*
X185832427Y-51436104D02*
X185832427Y-51169438D01*
X185832427Y-51169438D02*
X185984808Y-51169438D01*
X185489570Y-51512295D02*
X185489570Y-50712295D01*
X185489570Y-50712295D02*
X185032427Y-51512295D01*
X185032427Y-51512295D02*
X185032427Y-50712295D01*
X184651475Y-51512295D02*
X184651475Y-50712295D01*
X184651475Y-50712295D02*
X184460999Y-50712295D01*
X184460999Y-50712295D02*
X184346713Y-50750390D01*
X184346713Y-50750390D02*
X184270523Y-50826580D01*
X184270523Y-50826580D02*
X184232428Y-50902771D01*
X184232428Y-50902771D02*
X184194332Y-51055152D01*
X184194332Y-51055152D02*
X184194332Y-51169438D01*
X184194332Y-51169438D02*
X184232428Y-51321819D01*
X184232428Y-51321819D02*
X184270523Y-51398009D01*
X184270523Y-51398009D02*
X184346713Y-51474200D01*
X184346713Y-51474200D02*
X184460999Y-51512295D01*
X184460999Y-51512295D02*
X184651475Y-51512295D01*
X175062808Y-58332295D02*
X174986618Y-58332295D01*
X174986618Y-58332295D02*
X174910427Y-58370390D01*
X174910427Y-58370390D02*
X174872332Y-58408485D01*
X174872332Y-58408485D02*
X174834237Y-58484676D01*
X174834237Y-58484676D02*
X174796142Y-58637057D01*
X174796142Y-58637057D02*
X174796142Y-58827533D01*
X174796142Y-58827533D02*
X174834237Y-58979914D01*
X174834237Y-58979914D02*
X174872332Y-59056104D01*
X174872332Y-59056104D02*
X174910427Y-59094200D01*
X174910427Y-59094200D02*
X174986618Y-59132295D01*
X174986618Y-59132295D02*
X175062808Y-59132295D01*
X175062808Y-59132295D02*
X175138999Y-59094200D01*
X175138999Y-59094200D02*
X175177094Y-59056104D01*
X175177094Y-59056104D02*
X175215189Y-58979914D01*
X175215189Y-58979914D02*
X175253285Y-58827533D01*
X175253285Y-58827533D02*
X175253285Y-58637057D01*
X175253285Y-58637057D02*
X175215189Y-58484676D01*
X175215189Y-58484676D02*
X175177094Y-58408485D01*
X175177094Y-58408485D02*
X175138999Y-58370390D01*
X175138999Y-58370390D02*
X175062808Y-58332295D01*
X174300903Y-58332295D02*
X174224713Y-58332295D01*
X174224713Y-58332295D02*
X174148522Y-58370390D01*
X174148522Y-58370390D02*
X174110427Y-58408485D01*
X174110427Y-58408485D02*
X174072332Y-58484676D01*
X174072332Y-58484676D02*
X174034237Y-58637057D01*
X174034237Y-58637057D02*
X174034237Y-58827533D01*
X174034237Y-58827533D02*
X174072332Y-58979914D01*
X174072332Y-58979914D02*
X174110427Y-59056104D01*
X174110427Y-59056104D02*
X174148522Y-59094200D01*
X174148522Y-59094200D02*
X174224713Y-59132295D01*
X174224713Y-59132295D02*
X174300903Y-59132295D01*
X174300903Y-59132295D02*
X174377094Y-59094200D01*
X174377094Y-59094200D02*
X174415189Y-59056104D01*
X174415189Y-59056104D02*
X174453284Y-58979914D01*
X174453284Y-58979914D02*
X174491380Y-58827533D01*
X174491380Y-58827533D02*
X174491380Y-58637057D01*
X174491380Y-58637057D02*
X174453284Y-58484676D01*
X174453284Y-58484676D02*
X174415189Y-58408485D01*
X174415189Y-58408485D02*
X174377094Y-58370390D01*
X174377094Y-58370390D02*
X174300903Y-58332295D01*
X173729475Y-58408485D02*
X173691379Y-58370390D01*
X173691379Y-58370390D02*
X173615189Y-58332295D01*
X173615189Y-58332295D02*
X173424713Y-58332295D01*
X173424713Y-58332295D02*
X173348522Y-58370390D01*
X173348522Y-58370390D02*
X173310427Y-58408485D01*
X173310427Y-58408485D02*
X173272332Y-58484676D01*
X173272332Y-58484676D02*
X173272332Y-58560866D01*
X173272332Y-58560866D02*
X173310427Y-58675152D01*
X173310427Y-58675152D02*
X173767570Y-59132295D01*
X173767570Y-59132295D02*
X173272332Y-59132295D01*
X174650094Y-48972295D02*
X174916761Y-48591342D01*
X175107237Y-48972295D02*
X175107237Y-48172295D01*
X175107237Y-48172295D02*
X174802475Y-48172295D01*
X174802475Y-48172295D02*
X174726285Y-48210390D01*
X174726285Y-48210390D02*
X174688190Y-48248485D01*
X174688190Y-48248485D02*
X174650094Y-48324676D01*
X174650094Y-48324676D02*
X174650094Y-48438961D01*
X174650094Y-48438961D02*
X174688190Y-48515152D01*
X174688190Y-48515152D02*
X174726285Y-48553247D01*
X174726285Y-48553247D02*
X174802475Y-48591342D01*
X174802475Y-48591342D02*
X175107237Y-48591342D01*
X174345333Y-48934200D02*
X174231047Y-48972295D01*
X174231047Y-48972295D02*
X174040571Y-48972295D01*
X174040571Y-48972295D02*
X173964380Y-48934200D01*
X173964380Y-48934200D02*
X173926285Y-48896104D01*
X173926285Y-48896104D02*
X173888190Y-48819914D01*
X173888190Y-48819914D02*
X173888190Y-48743723D01*
X173888190Y-48743723D02*
X173926285Y-48667533D01*
X173926285Y-48667533D02*
X173964380Y-48629438D01*
X173964380Y-48629438D02*
X174040571Y-48591342D01*
X174040571Y-48591342D02*
X174192952Y-48553247D01*
X174192952Y-48553247D02*
X174269142Y-48515152D01*
X174269142Y-48515152D02*
X174307237Y-48477057D01*
X174307237Y-48477057D02*
X174345333Y-48400866D01*
X174345333Y-48400866D02*
X174345333Y-48324676D01*
X174345333Y-48324676D02*
X174307237Y-48248485D01*
X174307237Y-48248485D02*
X174269142Y-48210390D01*
X174269142Y-48210390D02*
X174192952Y-48172295D01*
X174192952Y-48172295D02*
X174002475Y-48172295D01*
X174002475Y-48172295D02*
X173888190Y-48210390D01*
X173659618Y-48172295D02*
X173202475Y-48172295D01*
X173431047Y-48972295D02*
X173431047Y-48172295D01*
X175062808Y-55792295D02*
X174986618Y-55792295D01*
X174986618Y-55792295D02*
X174910427Y-55830390D01*
X174910427Y-55830390D02*
X174872332Y-55868485D01*
X174872332Y-55868485D02*
X174834237Y-55944676D01*
X174834237Y-55944676D02*
X174796142Y-56097057D01*
X174796142Y-56097057D02*
X174796142Y-56287533D01*
X174796142Y-56287533D02*
X174834237Y-56439914D01*
X174834237Y-56439914D02*
X174872332Y-56516104D01*
X174872332Y-56516104D02*
X174910427Y-56554200D01*
X174910427Y-56554200D02*
X174986618Y-56592295D01*
X174986618Y-56592295D02*
X175062808Y-56592295D01*
X175062808Y-56592295D02*
X175138999Y-56554200D01*
X175138999Y-56554200D02*
X175177094Y-56516104D01*
X175177094Y-56516104D02*
X175215189Y-56439914D01*
X175215189Y-56439914D02*
X175253285Y-56287533D01*
X175253285Y-56287533D02*
X175253285Y-56097057D01*
X175253285Y-56097057D02*
X175215189Y-55944676D01*
X175215189Y-55944676D02*
X175177094Y-55868485D01*
X175177094Y-55868485D02*
X175138999Y-55830390D01*
X175138999Y-55830390D02*
X175062808Y-55792295D01*
X174491380Y-55868485D02*
X174453284Y-55830390D01*
X174453284Y-55830390D02*
X174377094Y-55792295D01*
X174377094Y-55792295D02*
X174186618Y-55792295D01*
X174186618Y-55792295D02*
X174110427Y-55830390D01*
X174110427Y-55830390D02*
X174072332Y-55868485D01*
X174072332Y-55868485D02*
X174034237Y-55944676D01*
X174034237Y-55944676D02*
X174034237Y-56020866D01*
X174034237Y-56020866D02*
X174072332Y-56135152D01*
X174072332Y-56135152D02*
X174529475Y-56592295D01*
X174529475Y-56592295D02*
X174034237Y-56592295D01*
X173653284Y-56592295D02*
X173500903Y-56592295D01*
X173500903Y-56592295D02*
X173424713Y-56554200D01*
X173424713Y-56554200D02*
X173386617Y-56516104D01*
X173386617Y-56516104D02*
X173310427Y-56401819D01*
X173310427Y-56401819D02*
X173272332Y-56249438D01*
X173272332Y-56249438D02*
X173272332Y-55944676D01*
X173272332Y-55944676D02*
X173310427Y-55868485D01*
X173310427Y-55868485D02*
X173348522Y-55830390D01*
X173348522Y-55830390D02*
X173424713Y-55792295D01*
X173424713Y-55792295D02*
X173577094Y-55792295D01*
X173577094Y-55792295D02*
X173653284Y-55830390D01*
X173653284Y-55830390D02*
X173691379Y-55868485D01*
X173691379Y-55868485D02*
X173729475Y-55944676D01*
X173729475Y-55944676D02*
X173729475Y-56135152D01*
X173729475Y-56135152D02*
X173691379Y-56211342D01*
X173691379Y-56211342D02*
X173653284Y-56249438D01*
X173653284Y-56249438D02*
X173577094Y-56287533D01*
X173577094Y-56287533D02*
X173424713Y-56287533D01*
X173424713Y-56287533D02*
X173348522Y-56249438D01*
X173348522Y-56249438D02*
X173310427Y-56211342D01*
X173310427Y-56211342D02*
X173272332Y-56135152D01*
X186137189Y-55862295D02*
X186060999Y-55862295D01*
X186060999Y-55862295D02*
X185984808Y-55900390D01*
X185984808Y-55900390D02*
X185946713Y-55938485D01*
X185946713Y-55938485D02*
X185908618Y-56014676D01*
X185908618Y-56014676D02*
X185870523Y-56167057D01*
X185870523Y-56167057D02*
X185870523Y-56357533D01*
X185870523Y-56357533D02*
X185908618Y-56509914D01*
X185908618Y-56509914D02*
X185946713Y-56586104D01*
X185946713Y-56586104D02*
X185984808Y-56624200D01*
X185984808Y-56624200D02*
X186060999Y-56662295D01*
X186060999Y-56662295D02*
X186137189Y-56662295D01*
X186137189Y-56662295D02*
X186213380Y-56624200D01*
X186213380Y-56624200D02*
X186251475Y-56586104D01*
X186251475Y-56586104D02*
X186289570Y-56509914D01*
X186289570Y-56509914D02*
X186327666Y-56357533D01*
X186327666Y-56357533D02*
X186327666Y-56167057D01*
X186327666Y-56167057D02*
X186289570Y-56014676D01*
X186289570Y-56014676D02*
X186251475Y-55938485D01*
X186251475Y-55938485D02*
X186213380Y-55900390D01*
X186213380Y-55900390D02*
X186137189Y-55862295D01*
X185565761Y-55938485D02*
X185527665Y-55900390D01*
X185527665Y-55900390D02*
X185451475Y-55862295D01*
X185451475Y-55862295D02*
X185260999Y-55862295D01*
X185260999Y-55862295D02*
X185184808Y-55900390D01*
X185184808Y-55900390D02*
X185146713Y-55938485D01*
X185146713Y-55938485D02*
X185108618Y-56014676D01*
X185108618Y-56014676D02*
X185108618Y-56090866D01*
X185108618Y-56090866D02*
X185146713Y-56205152D01*
X185146713Y-56205152D02*
X185603856Y-56662295D01*
X185603856Y-56662295D02*
X185108618Y-56662295D01*
X184613379Y-55862295D02*
X184537189Y-55862295D01*
X184537189Y-55862295D02*
X184460998Y-55900390D01*
X184460998Y-55900390D02*
X184422903Y-55938485D01*
X184422903Y-55938485D02*
X184384808Y-56014676D01*
X184384808Y-56014676D02*
X184346713Y-56167057D01*
X184346713Y-56167057D02*
X184346713Y-56357533D01*
X184346713Y-56357533D02*
X184384808Y-56509914D01*
X184384808Y-56509914D02*
X184422903Y-56586104D01*
X184422903Y-56586104D02*
X184460998Y-56624200D01*
X184460998Y-56624200D02*
X184537189Y-56662295D01*
X184537189Y-56662295D02*
X184613379Y-56662295D01*
X184613379Y-56662295D02*
X184689570Y-56624200D01*
X184689570Y-56624200D02*
X184727665Y-56586104D01*
X184727665Y-56586104D02*
X184765760Y-56509914D01*
X184765760Y-56509914D02*
X184803856Y-56357533D01*
X184803856Y-56357533D02*
X184803856Y-56167057D01*
X184803856Y-56167057D02*
X184765760Y-56014676D01*
X184765760Y-56014676D02*
X184727665Y-55938485D01*
X184727665Y-55938485D02*
X184689570Y-55900390D01*
X184689570Y-55900390D02*
X184613379Y-55862295D01*
X185870523Y-64212295D02*
X186327666Y-64212295D01*
X186099094Y-64212295D02*
X186099094Y-63412295D01*
X186099094Y-63412295D02*
X186175285Y-63526580D01*
X186175285Y-63526580D02*
X186251475Y-63602771D01*
X186251475Y-63602771D02*
X186327666Y-63640866D01*
X185375284Y-63412295D02*
X185299094Y-63412295D01*
X185299094Y-63412295D02*
X185222903Y-63450390D01*
X185222903Y-63450390D02*
X185184808Y-63488485D01*
X185184808Y-63488485D02*
X185146713Y-63564676D01*
X185146713Y-63564676D02*
X185108618Y-63717057D01*
X185108618Y-63717057D02*
X185108618Y-63907533D01*
X185108618Y-63907533D02*
X185146713Y-64059914D01*
X185146713Y-64059914D02*
X185184808Y-64136104D01*
X185184808Y-64136104D02*
X185222903Y-64174200D01*
X185222903Y-64174200D02*
X185299094Y-64212295D01*
X185299094Y-64212295D02*
X185375284Y-64212295D01*
X185375284Y-64212295D02*
X185451475Y-64174200D01*
X185451475Y-64174200D02*
X185489570Y-64136104D01*
X185489570Y-64136104D02*
X185527665Y-64059914D01*
X185527665Y-64059914D02*
X185565761Y-63907533D01*
X185565761Y-63907533D02*
X185565761Y-63717057D01*
X185565761Y-63717057D02*
X185527665Y-63564676D01*
X185527665Y-63564676D02*
X185489570Y-63488485D01*
X185489570Y-63488485D02*
X185451475Y-63450390D01*
X185451475Y-63450390D02*
X185375284Y-63412295D01*
X184613379Y-63412295D02*
X184537189Y-63412295D01*
X184537189Y-63412295D02*
X184460998Y-63450390D01*
X184460998Y-63450390D02*
X184422903Y-63488485D01*
X184422903Y-63488485D02*
X184384808Y-63564676D01*
X184384808Y-63564676D02*
X184346713Y-63717057D01*
X184346713Y-63717057D02*
X184346713Y-63907533D01*
X184346713Y-63907533D02*
X184384808Y-64059914D01*
X184384808Y-64059914D02*
X184422903Y-64136104D01*
X184422903Y-64136104D02*
X184460998Y-64174200D01*
X184460998Y-64174200D02*
X184537189Y-64212295D01*
X184537189Y-64212295D02*
X184613379Y-64212295D01*
X184613379Y-64212295D02*
X184689570Y-64174200D01*
X184689570Y-64174200D02*
X184727665Y-64136104D01*
X184727665Y-64136104D02*
X184765760Y-64059914D01*
X184765760Y-64059914D02*
X184803856Y-63907533D01*
X184803856Y-63907533D02*
X184803856Y-63717057D01*
X184803856Y-63717057D02*
X184765760Y-63564676D01*
X184765760Y-63564676D02*
X184727665Y-63488485D01*
X184727665Y-63488485D02*
X184689570Y-63450390D01*
X184689570Y-63450390D02*
X184613379Y-63412295D01*
X186137189Y-53262295D02*
X186060999Y-53262295D01*
X186060999Y-53262295D02*
X185984808Y-53300390D01*
X185984808Y-53300390D02*
X185946713Y-53338485D01*
X185946713Y-53338485D02*
X185908618Y-53414676D01*
X185908618Y-53414676D02*
X185870523Y-53567057D01*
X185870523Y-53567057D02*
X185870523Y-53757533D01*
X185870523Y-53757533D02*
X185908618Y-53909914D01*
X185908618Y-53909914D02*
X185946713Y-53986104D01*
X185946713Y-53986104D02*
X185984808Y-54024200D01*
X185984808Y-54024200D02*
X186060999Y-54062295D01*
X186060999Y-54062295D02*
X186137189Y-54062295D01*
X186137189Y-54062295D02*
X186213380Y-54024200D01*
X186213380Y-54024200D02*
X186251475Y-53986104D01*
X186251475Y-53986104D02*
X186289570Y-53909914D01*
X186289570Y-53909914D02*
X186327666Y-53757533D01*
X186327666Y-53757533D02*
X186327666Y-53567057D01*
X186327666Y-53567057D02*
X186289570Y-53414676D01*
X186289570Y-53414676D02*
X186251475Y-53338485D01*
X186251475Y-53338485D02*
X186213380Y-53300390D01*
X186213380Y-53300390D02*
X186137189Y-53262295D01*
X185108618Y-54062295D02*
X185565761Y-54062295D01*
X185337189Y-54062295D02*
X185337189Y-53262295D01*
X185337189Y-53262295D02*
X185413380Y-53376580D01*
X185413380Y-53376580D02*
X185489570Y-53452771D01*
X185489570Y-53452771D02*
X185565761Y-53490866D01*
X184841951Y-53262295D02*
X184308617Y-53262295D01*
X184308617Y-53262295D02*
X184651475Y-54062295D01*
X175062808Y-53252295D02*
X174986618Y-53252295D01*
X174986618Y-53252295D02*
X174910427Y-53290390D01*
X174910427Y-53290390D02*
X174872332Y-53328485D01*
X174872332Y-53328485D02*
X174834237Y-53404676D01*
X174834237Y-53404676D02*
X174796142Y-53557057D01*
X174796142Y-53557057D02*
X174796142Y-53747533D01*
X174796142Y-53747533D02*
X174834237Y-53899914D01*
X174834237Y-53899914D02*
X174872332Y-53976104D01*
X174872332Y-53976104D02*
X174910427Y-54014200D01*
X174910427Y-54014200D02*
X174986618Y-54052295D01*
X174986618Y-54052295D02*
X175062808Y-54052295D01*
X175062808Y-54052295D02*
X175138999Y-54014200D01*
X175138999Y-54014200D02*
X175177094Y-53976104D01*
X175177094Y-53976104D02*
X175215189Y-53899914D01*
X175215189Y-53899914D02*
X175253285Y-53747533D01*
X175253285Y-53747533D02*
X175253285Y-53557057D01*
X175253285Y-53557057D02*
X175215189Y-53404676D01*
X175215189Y-53404676D02*
X175177094Y-53328485D01*
X175177094Y-53328485D02*
X175138999Y-53290390D01*
X175138999Y-53290390D02*
X175062808Y-53252295D01*
X174529475Y-53252295D02*
X174034237Y-53252295D01*
X174034237Y-53252295D02*
X174300903Y-53557057D01*
X174300903Y-53557057D02*
X174186618Y-53557057D01*
X174186618Y-53557057D02*
X174110427Y-53595152D01*
X174110427Y-53595152D02*
X174072332Y-53633247D01*
X174072332Y-53633247D02*
X174034237Y-53709438D01*
X174034237Y-53709438D02*
X174034237Y-53899914D01*
X174034237Y-53899914D02*
X174072332Y-53976104D01*
X174072332Y-53976104D02*
X174110427Y-54014200D01*
X174110427Y-54014200D02*
X174186618Y-54052295D01*
X174186618Y-54052295D02*
X174415189Y-54052295D01*
X174415189Y-54052295D02*
X174491380Y-54014200D01*
X174491380Y-54014200D02*
X174529475Y-53976104D01*
X173272332Y-54052295D02*
X173729475Y-54052295D01*
X173500903Y-54052295D02*
X173500903Y-53252295D01*
X173500903Y-53252295D02*
X173577094Y-53366580D01*
X173577094Y-53366580D02*
X173653284Y-53442771D01*
X173653284Y-53442771D02*
X173729475Y-53480866D01*
X186137189Y-60872295D02*
X186060999Y-60872295D01*
X186060999Y-60872295D02*
X185984808Y-60910390D01*
X185984808Y-60910390D02*
X185946713Y-60948485D01*
X185946713Y-60948485D02*
X185908618Y-61024676D01*
X185908618Y-61024676D02*
X185870523Y-61177057D01*
X185870523Y-61177057D02*
X185870523Y-61367533D01*
X185870523Y-61367533D02*
X185908618Y-61519914D01*
X185908618Y-61519914D02*
X185946713Y-61596104D01*
X185946713Y-61596104D02*
X185984808Y-61634200D01*
X185984808Y-61634200D02*
X186060999Y-61672295D01*
X186060999Y-61672295D02*
X186137189Y-61672295D01*
X186137189Y-61672295D02*
X186213380Y-61634200D01*
X186213380Y-61634200D02*
X186251475Y-61596104D01*
X186251475Y-61596104D02*
X186289570Y-61519914D01*
X186289570Y-61519914D02*
X186327666Y-61367533D01*
X186327666Y-61367533D02*
X186327666Y-61177057D01*
X186327666Y-61177057D02*
X186289570Y-61024676D01*
X186289570Y-61024676D02*
X186251475Y-60948485D01*
X186251475Y-60948485D02*
X186213380Y-60910390D01*
X186213380Y-60910390D02*
X186137189Y-60872295D01*
X185565761Y-60948485D02*
X185527665Y-60910390D01*
X185527665Y-60910390D02*
X185451475Y-60872295D01*
X185451475Y-60872295D02*
X185260999Y-60872295D01*
X185260999Y-60872295D02*
X185184808Y-60910390D01*
X185184808Y-60910390D02*
X185146713Y-60948485D01*
X185146713Y-60948485D02*
X185108618Y-61024676D01*
X185108618Y-61024676D02*
X185108618Y-61100866D01*
X185108618Y-61100866D02*
X185146713Y-61215152D01*
X185146713Y-61215152D02*
X185603856Y-61672295D01*
X185603856Y-61672295D02*
X185108618Y-61672295D01*
X184422903Y-61138961D02*
X184422903Y-61672295D01*
X184613379Y-60834200D02*
X184803856Y-61405628D01*
X184803856Y-61405628D02*
X184308617Y-61405628D01*
X174796142Y-61672295D02*
X175253285Y-61672295D01*
X175024713Y-61672295D02*
X175024713Y-60872295D01*
X175024713Y-60872295D02*
X175100904Y-60986580D01*
X175100904Y-60986580D02*
X175177094Y-61062771D01*
X175177094Y-61062771D02*
X175253285Y-61100866D01*
X174034237Y-61672295D02*
X174491380Y-61672295D01*
X174262808Y-61672295D02*
X174262808Y-60872295D01*
X174262808Y-60872295D02*
X174338999Y-60986580D01*
X174338999Y-60986580D02*
X174415189Y-61062771D01*
X174415189Y-61062771D02*
X174491380Y-61100866D01*
X173310427Y-60872295D02*
X173691379Y-60872295D01*
X173691379Y-60872295D02*
X173729475Y-61253247D01*
X173729475Y-61253247D02*
X173691379Y-61215152D01*
X173691379Y-61215152D02*
X173615189Y-61177057D01*
X173615189Y-61177057D02*
X173424713Y-61177057D01*
X173424713Y-61177057D02*
X173348522Y-61215152D01*
X173348522Y-61215152D02*
X173310427Y-61253247D01*
X173310427Y-61253247D02*
X173272332Y-61329438D01*
X173272332Y-61329438D02*
X173272332Y-61519914D01*
X173272332Y-61519914D02*
X173310427Y-61596104D01*
X173310427Y-61596104D02*
X173348522Y-61634200D01*
X173348522Y-61634200D02*
X173424713Y-61672295D01*
X173424713Y-61672295D02*
X173615189Y-61672295D01*
X173615189Y-61672295D02*
X173691379Y-61634200D01*
X173691379Y-61634200D02*
X173729475Y-61596104D01*
X186137189Y-45562295D02*
X186060999Y-45562295D01*
X186060999Y-45562295D02*
X185984808Y-45600390D01*
X185984808Y-45600390D02*
X185946713Y-45638485D01*
X185946713Y-45638485D02*
X185908618Y-45714676D01*
X185908618Y-45714676D02*
X185870523Y-45867057D01*
X185870523Y-45867057D02*
X185870523Y-46057533D01*
X185870523Y-46057533D02*
X185908618Y-46209914D01*
X185908618Y-46209914D02*
X185946713Y-46286104D01*
X185946713Y-46286104D02*
X185984808Y-46324200D01*
X185984808Y-46324200D02*
X186060999Y-46362295D01*
X186060999Y-46362295D02*
X186137189Y-46362295D01*
X186137189Y-46362295D02*
X186213380Y-46324200D01*
X186213380Y-46324200D02*
X186251475Y-46286104D01*
X186251475Y-46286104D02*
X186289570Y-46209914D01*
X186289570Y-46209914D02*
X186327666Y-46057533D01*
X186327666Y-46057533D02*
X186327666Y-45867057D01*
X186327666Y-45867057D02*
X186289570Y-45714676D01*
X186289570Y-45714676D02*
X186251475Y-45638485D01*
X186251475Y-45638485D02*
X186213380Y-45600390D01*
X186213380Y-45600390D02*
X186137189Y-45562295D01*
X185375284Y-45562295D02*
X185299094Y-45562295D01*
X185299094Y-45562295D02*
X185222903Y-45600390D01*
X185222903Y-45600390D02*
X185184808Y-45638485D01*
X185184808Y-45638485D02*
X185146713Y-45714676D01*
X185146713Y-45714676D02*
X185108618Y-45867057D01*
X185108618Y-45867057D02*
X185108618Y-46057533D01*
X185108618Y-46057533D02*
X185146713Y-46209914D01*
X185146713Y-46209914D02*
X185184808Y-46286104D01*
X185184808Y-46286104D02*
X185222903Y-46324200D01*
X185222903Y-46324200D02*
X185299094Y-46362295D01*
X185299094Y-46362295D02*
X185375284Y-46362295D01*
X185375284Y-46362295D02*
X185451475Y-46324200D01*
X185451475Y-46324200D02*
X185489570Y-46286104D01*
X185489570Y-46286104D02*
X185527665Y-46209914D01*
X185527665Y-46209914D02*
X185565761Y-46057533D01*
X185565761Y-46057533D02*
X185565761Y-45867057D01*
X185565761Y-45867057D02*
X185527665Y-45714676D01*
X185527665Y-45714676D02*
X185489570Y-45638485D01*
X185489570Y-45638485D02*
X185451475Y-45600390D01*
X185451475Y-45600390D02*
X185375284Y-45562295D01*
X184651475Y-45905152D02*
X184727665Y-45867057D01*
X184727665Y-45867057D02*
X184765760Y-45828961D01*
X184765760Y-45828961D02*
X184803856Y-45752771D01*
X184803856Y-45752771D02*
X184803856Y-45714676D01*
X184803856Y-45714676D02*
X184765760Y-45638485D01*
X184765760Y-45638485D02*
X184727665Y-45600390D01*
X184727665Y-45600390D02*
X184651475Y-45562295D01*
X184651475Y-45562295D02*
X184499094Y-45562295D01*
X184499094Y-45562295D02*
X184422903Y-45600390D01*
X184422903Y-45600390D02*
X184384808Y-45638485D01*
X184384808Y-45638485D02*
X184346713Y-45714676D01*
X184346713Y-45714676D02*
X184346713Y-45752771D01*
X184346713Y-45752771D02*
X184384808Y-45828961D01*
X184384808Y-45828961D02*
X184422903Y-45867057D01*
X184422903Y-45867057D02*
X184499094Y-45905152D01*
X184499094Y-45905152D02*
X184651475Y-45905152D01*
X184651475Y-45905152D02*
X184727665Y-45943247D01*
X184727665Y-45943247D02*
X184765760Y-45981342D01*
X184765760Y-45981342D02*
X184803856Y-46057533D01*
X184803856Y-46057533D02*
X184803856Y-46209914D01*
X184803856Y-46209914D02*
X184765760Y-46286104D01*
X184765760Y-46286104D02*
X184727665Y-46324200D01*
X184727665Y-46324200D02*
X184651475Y-46362295D01*
X184651475Y-46362295D02*
X184499094Y-46362295D01*
X184499094Y-46362295D02*
X184422903Y-46324200D01*
X184422903Y-46324200D02*
X184384808Y-46286104D01*
X184384808Y-46286104D02*
X184346713Y-46209914D01*
X184346713Y-46209914D02*
X184346713Y-46057533D01*
X184346713Y-46057533D02*
X184384808Y-45981342D01*
X184384808Y-45981342D02*
X184422903Y-45943247D01*
X184422903Y-45943247D02*
X184499094Y-45905152D01*
X174796142Y-64212295D02*
X175253285Y-64212295D01*
X175024713Y-64212295D02*
X175024713Y-63412295D01*
X175024713Y-63412295D02*
X175100904Y-63526580D01*
X175100904Y-63526580D02*
X175177094Y-63602771D01*
X175177094Y-63602771D02*
X175253285Y-63640866D01*
X174034237Y-64212295D02*
X174491380Y-64212295D01*
X174262808Y-64212295D02*
X174262808Y-63412295D01*
X174262808Y-63412295D02*
X174338999Y-63526580D01*
X174338999Y-63526580D02*
X174415189Y-63602771D01*
X174415189Y-63602771D02*
X174491380Y-63640866D01*
X173767570Y-63412295D02*
X173272332Y-63412295D01*
X173272332Y-63412295D02*
X173538998Y-63717057D01*
X173538998Y-63717057D02*
X173424713Y-63717057D01*
X173424713Y-63717057D02*
X173348522Y-63755152D01*
X173348522Y-63755152D02*
X173310427Y-63793247D01*
X173310427Y-63793247D02*
X173272332Y-63869438D01*
X173272332Y-63869438D02*
X173272332Y-64059914D01*
X173272332Y-64059914D02*
X173310427Y-64136104D01*
X173310427Y-64136104D02*
X173348522Y-64174200D01*
X173348522Y-64174200D02*
X173424713Y-64212295D01*
X173424713Y-64212295D02*
X173653284Y-64212295D01*
X173653284Y-64212295D02*
X173729475Y-64174200D01*
X173729475Y-64174200D02*
X173767570Y-64136104D01*
X185870523Y-48210390D02*
X185946713Y-48172295D01*
X185946713Y-48172295D02*
X186060999Y-48172295D01*
X186060999Y-48172295D02*
X186175285Y-48210390D01*
X186175285Y-48210390D02*
X186251475Y-48286580D01*
X186251475Y-48286580D02*
X186289570Y-48362771D01*
X186289570Y-48362771D02*
X186327666Y-48515152D01*
X186327666Y-48515152D02*
X186327666Y-48629438D01*
X186327666Y-48629438D02*
X186289570Y-48781819D01*
X186289570Y-48781819D02*
X186251475Y-48858009D01*
X186251475Y-48858009D02*
X186175285Y-48934200D01*
X186175285Y-48934200D02*
X186060999Y-48972295D01*
X186060999Y-48972295D02*
X185984808Y-48972295D01*
X185984808Y-48972295D02*
X185870523Y-48934200D01*
X185870523Y-48934200D02*
X185832427Y-48896104D01*
X185832427Y-48896104D02*
X185832427Y-48629438D01*
X185832427Y-48629438D02*
X185984808Y-48629438D01*
X185489570Y-48972295D02*
X185489570Y-48172295D01*
X185489570Y-48172295D02*
X185032427Y-48972295D01*
X185032427Y-48972295D02*
X185032427Y-48172295D01*
X184651475Y-48972295D02*
X184651475Y-48172295D01*
X184651475Y-48172295D02*
X184460999Y-48172295D01*
X184460999Y-48172295D02*
X184346713Y-48210390D01*
X184346713Y-48210390D02*
X184270523Y-48286580D01*
X184270523Y-48286580D02*
X184232428Y-48362771D01*
X184232428Y-48362771D02*
X184194332Y-48515152D01*
X184194332Y-48515152D02*
X184194332Y-48629438D01*
X184194332Y-48629438D02*
X184232428Y-48781819D01*
X184232428Y-48781819D02*
X184270523Y-48858009D01*
X184270523Y-48858009D02*
X184346713Y-48934200D01*
X184346713Y-48934200D02*
X184460999Y-48972295D01*
X184460999Y-48972295D02*
X184651475Y-48972295D01*
X174954856Y-45670390D02*
X175031046Y-45632295D01*
X175031046Y-45632295D02*
X175145332Y-45632295D01*
X175145332Y-45632295D02*
X175259618Y-45670390D01*
X175259618Y-45670390D02*
X175335808Y-45746580D01*
X175335808Y-45746580D02*
X175373903Y-45822771D01*
X175373903Y-45822771D02*
X175411999Y-45975152D01*
X175411999Y-45975152D02*
X175411999Y-46089438D01*
X175411999Y-46089438D02*
X175373903Y-46241819D01*
X175373903Y-46241819D02*
X175335808Y-46318009D01*
X175335808Y-46318009D02*
X175259618Y-46394200D01*
X175259618Y-46394200D02*
X175145332Y-46432295D01*
X175145332Y-46432295D02*
X175069141Y-46432295D01*
X175069141Y-46432295D02*
X174954856Y-46394200D01*
X174954856Y-46394200D02*
X174916760Y-46356104D01*
X174916760Y-46356104D02*
X174916760Y-46089438D01*
X174916760Y-46089438D02*
X175069141Y-46089438D01*
X174573903Y-46432295D02*
X174573903Y-45632295D01*
X174573903Y-45632295D02*
X174116760Y-46432295D01*
X174116760Y-46432295D02*
X174116760Y-45632295D01*
X173735808Y-46432295D02*
X173735808Y-45632295D01*
X173735808Y-45632295D02*
X173545332Y-45632295D01*
X173545332Y-45632295D02*
X173431046Y-45670390D01*
X173431046Y-45670390D02*
X173354856Y-45746580D01*
X173354856Y-45746580D02*
X173316761Y-45822771D01*
X173316761Y-45822771D02*
X173278665Y-45975152D01*
X173278665Y-45975152D02*
X173278665Y-46089438D01*
X173278665Y-46089438D02*
X173316761Y-46241819D01*
X173316761Y-46241819D02*
X173354856Y-46318009D01*
X173354856Y-46318009D02*
X173431046Y-46394200D01*
X173431046Y-46394200D02*
X173545332Y-46432295D01*
X173545332Y-46432295D02*
X173735808Y-46432295D01*
X186137189Y-43092295D02*
X186060999Y-43092295D01*
X186060999Y-43092295D02*
X185984808Y-43130390D01*
X185984808Y-43130390D02*
X185946713Y-43168485D01*
X185946713Y-43168485D02*
X185908618Y-43244676D01*
X185908618Y-43244676D02*
X185870523Y-43397057D01*
X185870523Y-43397057D02*
X185870523Y-43587533D01*
X185870523Y-43587533D02*
X185908618Y-43739914D01*
X185908618Y-43739914D02*
X185946713Y-43816104D01*
X185946713Y-43816104D02*
X185984808Y-43854200D01*
X185984808Y-43854200D02*
X186060999Y-43892295D01*
X186060999Y-43892295D02*
X186137189Y-43892295D01*
X186137189Y-43892295D02*
X186213380Y-43854200D01*
X186213380Y-43854200D02*
X186251475Y-43816104D01*
X186251475Y-43816104D02*
X186289570Y-43739914D01*
X186289570Y-43739914D02*
X186327666Y-43587533D01*
X186327666Y-43587533D02*
X186327666Y-43397057D01*
X186327666Y-43397057D02*
X186289570Y-43244676D01*
X186289570Y-43244676D02*
X186251475Y-43168485D01*
X186251475Y-43168485D02*
X186213380Y-43130390D01*
X186213380Y-43130390D02*
X186137189Y-43092295D01*
X185375284Y-43092295D02*
X185299094Y-43092295D01*
X185299094Y-43092295D02*
X185222903Y-43130390D01*
X185222903Y-43130390D02*
X185184808Y-43168485D01*
X185184808Y-43168485D02*
X185146713Y-43244676D01*
X185146713Y-43244676D02*
X185108618Y-43397057D01*
X185108618Y-43397057D02*
X185108618Y-43587533D01*
X185108618Y-43587533D02*
X185146713Y-43739914D01*
X185146713Y-43739914D02*
X185184808Y-43816104D01*
X185184808Y-43816104D02*
X185222903Y-43854200D01*
X185222903Y-43854200D02*
X185299094Y-43892295D01*
X185299094Y-43892295D02*
X185375284Y-43892295D01*
X185375284Y-43892295D02*
X185451475Y-43854200D01*
X185451475Y-43854200D02*
X185489570Y-43816104D01*
X185489570Y-43816104D02*
X185527665Y-43739914D01*
X185527665Y-43739914D02*
X185565761Y-43587533D01*
X185565761Y-43587533D02*
X185565761Y-43397057D01*
X185565761Y-43397057D02*
X185527665Y-43244676D01*
X185527665Y-43244676D02*
X185489570Y-43168485D01*
X185489570Y-43168485D02*
X185451475Y-43130390D01*
X185451475Y-43130390D02*
X185375284Y-43092295D01*
X184422903Y-43092295D02*
X184575284Y-43092295D01*
X184575284Y-43092295D02*
X184651475Y-43130390D01*
X184651475Y-43130390D02*
X184689570Y-43168485D01*
X184689570Y-43168485D02*
X184765760Y-43282771D01*
X184765760Y-43282771D02*
X184803856Y-43435152D01*
X184803856Y-43435152D02*
X184803856Y-43739914D01*
X184803856Y-43739914D02*
X184765760Y-43816104D01*
X184765760Y-43816104D02*
X184727665Y-43854200D01*
X184727665Y-43854200D02*
X184651475Y-43892295D01*
X184651475Y-43892295D02*
X184499094Y-43892295D01*
X184499094Y-43892295D02*
X184422903Y-43854200D01*
X184422903Y-43854200D02*
X184384808Y-43816104D01*
X184384808Y-43816104D02*
X184346713Y-43739914D01*
X184346713Y-43739914D02*
X184346713Y-43549438D01*
X184346713Y-43549438D02*
X184384808Y-43473247D01*
X184384808Y-43473247D02*
X184422903Y-43435152D01*
X184422903Y-43435152D02*
X184499094Y-43397057D01*
X184499094Y-43397057D02*
X184651475Y-43397057D01*
X184651475Y-43397057D02*
X184727665Y-43435152D01*
X184727665Y-43435152D02*
X184765760Y-43473247D01*
X184765760Y-43473247D02*
X184803856Y-43549438D01*
X174878665Y-43892295D02*
X175145332Y-43511342D01*
X175335808Y-43892295D02*
X175335808Y-43092295D01*
X175335808Y-43092295D02*
X175031046Y-43092295D01*
X175031046Y-43092295D02*
X174954856Y-43130390D01*
X174954856Y-43130390D02*
X174916761Y-43168485D01*
X174916761Y-43168485D02*
X174878665Y-43244676D01*
X174878665Y-43244676D02*
X174878665Y-43358961D01*
X174878665Y-43358961D02*
X174916761Y-43435152D01*
X174916761Y-43435152D02*
X174954856Y-43473247D01*
X174954856Y-43473247D02*
X175031046Y-43511342D01*
X175031046Y-43511342D02*
X175335808Y-43511342D01*
X174573904Y-43663723D02*
X174192951Y-43663723D01*
X174650094Y-43892295D02*
X174383427Y-43092295D01*
X174383427Y-43092295D02*
X174116761Y-43892295D01*
X173926285Y-43092295D02*
X173735809Y-43892295D01*
X173735809Y-43892295D02*
X173583428Y-43320866D01*
X173583428Y-43320866D02*
X173431047Y-43892295D01*
X173431047Y-43892295D02*
X173240571Y-43092295D01*
D11*
%TO.C,D20*%
X165430578Y-112853072D02*
X165806455Y-112989880D01*
X165806455Y-112989880D02*
X165618344Y-113506711D01*
X165806455Y-112989880D02*
X165994566Y-112473049D01*
X165806455Y-112989880D02*
X166507078Y-112819215D01*
X166233462Y-113570969D02*
X165806455Y-112989880D01*
X166370270Y-113195092D02*
X166840116Y-113366102D01*
X166507078Y-112819215D02*
X166233462Y-113570969D01*
%TO.C,D3*%
X69250000Y-74000000D02*
X69650000Y-74000000D01*
X69650000Y-74000000D02*
X69650000Y-73450000D01*
X69650000Y-74000000D02*
X69650000Y-74550000D01*
X69650000Y-74000000D02*
X70250000Y-73600000D01*
X70250000Y-73600000D02*
X70250000Y-74400000D01*
X70250000Y-74000000D02*
X70750000Y-74000000D01*
X70250000Y-74400000D02*
X69650000Y-74000000D01*
%TO.C,D14*%
X141250000Y-91000000D02*
X141650000Y-91000000D01*
X141650000Y-91000000D02*
X141650000Y-90450000D01*
X141650000Y-91000000D02*
X141650000Y-91550000D01*
X141650000Y-91000000D02*
X142250000Y-90600000D01*
X142250000Y-90600000D02*
X142250000Y-91400000D01*
X142250000Y-91000000D02*
X142750000Y-91000000D01*
X142250000Y-91400000D02*
X141650000Y-91000000D01*
%TO.C,LED3*%
X74500000Y-70125000D02*
X74000000Y-70625000D01*
X74000000Y-69625000D01*
X74500000Y-70125000D01*
G36*
X74500000Y-70125000D02*
G01*
X74000000Y-70625000D01*
X74000000Y-69625000D01*
X74500000Y-70125000D01*
G37*
%TO.C,LED17*%
X164500000Y-87125000D02*
X164000000Y-87625000D01*
X164000000Y-86625000D01*
X164500000Y-87125000D01*
G36*
X164500000Y-87125000D02*
G01*
X164000000Y-87625000D01*
X164000000Y-86625000D01*
X164500000Y-87125000D01*
G37*
%TO.C,LED1*%
X74500000Y-104125000D02*
X74000000Y-104625000D01*
X74000000Y-103625000D01*
X74500000Y-104125000D01*
G36*
X74500000Y-104125000D02*
G01*
X74000000Y-104625000D01*
X74000000Y-103625000D01*
X74500000Y-104125000D01*
G37*
%TO.C,LED14*%
X146500000Y-87125000D02*
X146000000Y-87625000D01*
X146000000Y-86625000D01*
X146500000Y-87125000D01*
G36*
X146500000Y-87125000D02*
G01*
X146000000Y-87625000D01*
X146000000Y-86625000D01*
X146500000Y-87125000D01*
G37*
%TO.C,LED16*%
X146500000Y-53125000D02*
X146000000Y-53625000D01*
X146000000Y-52625000D01*
X146500000Y-53125000D01*
G36*
X146500000Y-53125000D02*
G01*
X146000000Y-53625000D01*
X146000000Y-52625000D01*
X146500000Y-53125000D01*
G37*
%TO.C,LED2*%
X74500000Y-87125000D02*
X74000000Y-87625000D01*
X74000000Y-86625000D01*
X74500000Y-87125000D01*
G36*
X74500000Y-87125000D02*
G01*
X74000000Y-87625000D01*
X74000000Y-86625000D01*
X74500000Y-87125000D01*
G37*
%TO.C,D6*%
X87250000Y-74000000D02*
X87650000Y-74000000D01*
X87650000Y-74000000D02*
X87650000Y-73450000D01*
X87650000Y-74000000D02*
X87650000Y-74550000D01*
X87650000Y-74000000D02*
X88250000Y-73600000D01*
X88250000Y-73600000D02*
X88250000Y-74400000D01*
X88250000Y-74000000D02*
X88750000Y-74000000D01*
X88250000Y-74400000D02*
X87650000Y-74000000D01*
%TO.C,D1*%
X69250000Y-108000000D02*
X69650000Y-108000000D01*
X69650000Y-108000000D02*
X69650000Y-107450000D01*
X69650000Y-108000000D02*
X69650000Y-108550000D01*
X69650000Y-108000000D02*
X70250000Y-107600000D01*
X70250000Y-107600000D02*
X70250000Y-108400000D01*
X70250000Y-108000000D02*
X70750000Y-108000000D01*
X70250000Y-108400000D02*
X69650000Y-108000000D01*
%TO.C,LED19*%
X164500000Y-53125000D02*
X164000000Y-53625000D01*
X164000000Y-52625000D01*
X164500000Y-53125000D01*
G36*
X164500000Y-53125000D02*
G01*
X164000000Y-53625000D01*
X164000000Y-52625000D01*
X164500000Y-53125000D01*
G37*
%TO.C,D16*%
X141250000Y-57000000D02*
X141650000Y-57000000D01*
X141650000Y-57000000D02*
X141650000Y-56450000D01*
X141650000Y-57000000D02*
X141650000Y-57550000D01*
X141650000Y-57000000D02*
X142250000Y-56600000D01*
X142250000Y-56600000D02*
X142250000Y-57400000D01*
X142250000Y-57000000D02*
X142750000Y-57000000D01*
X142250000Y-57400000D02*
X141650000Y-57000000D01*
%TO.C,LED9*%
X110500000Y-70125000D02*
X110000000Y-70625000D01*
X110000000Y-69625000D01*
X110500000Y-70125000D01*
G36*
X110500000Y-70125000D02*
G01*
X110000000Y-70625000D01*
X110000000Y-69625000D01*
X110500000Y-70125000D01*
G37*
%TO.C,LED21*%
X188603758Y-117163733D02*
X187962902Y-117462568D01*
X188304922Y-116522875D01*
X188603758Y-117163733D01*
G36*
X188603758Y-117163733D02*
G01*
X187962902Y-117462568D01*
X188304922Y-116522875D01*
X188603758Y-117163733D01*
G37*
%TO.C,LED7*%
X92500000Y-53125000D02*
X92000000Y-53625000D01*
X92000000Y-52625000D01*
X92500000Y-53125000D01*
G36*
X92500000Y-53125000D02*
G01*
X92000000Y-53625000D01*
X92000000Y-52625000D01*
X92500000Y-53125000D01*
G37*
%TO.C,D12*%
X123250000Y-74000000D02*
X123650000Y-74000000D01*
X123650000Y-74000000D02*
X123650000Y-73450000D01*
X123650000Y-74000000D02*
X123650000Y-74550000D01*
X123650000Y-74000000D02*
X124250000Y-73600000D01*
X124250000Y-73600000D02*
X124250000Y-74400000D01*
X124250000Y-74000000D02*
X124750000Y-74000000D01*
X124250000Y-74400000D02*
X123650000Y-74000000D01*
%TO.C,D15*%
X141250000Y-74000000D02*
X141650000Y-74000000D01*
X141650000Y-74000000D02*
X141650000Y-73450000D01*
X141650000Y-74000000D02*
X141650000Y-74550000D01*
X141650000Y-74000000D02*
X142250000Y-73600000D01*
X142250000Y-73600000D02*
X142250000Y-74400000D01*
X142250000Y-74000000D02*
X142750000Y-74000000D01*
X142250000Y-74400000D02*
X141650000Y-74000000D01*
%TO.C,D17*%
X159250000Y-91000000D02*
X159650000Y-91000000D01*
X159650000Y-91000000D02*
X159650000Y-90450000D01*
X159650000Y-91000000D02*
X159650000Y-91550000D01*
X159650000Y-91000000D02*
X160250000Y-90600000D01*
X160250000Y-90600000D02*
X160250000Y-91400000D01*
X160250000Y-91000000D02*
X160750000Y-91000000D01*
X160250000Y-91400000D02*
X159650000Y-91000000D01*
%TO.C,LED5*%
X92500000Y-87125000D02*
X92000000Y-87625000D01*
X92000000Y-86625000D01*
X92500000Y-87125000D01*
G36*
X92500000Y-87125000D02*
G01*
X92000000Y-87625000D01*
X92000000Y-86625000D01*
X92500000Y-87125000D01*
G37*
%TO.C,D10*%
X105250000Y-57000000D02*
X105650000Y-57000000D01*
X105650000Y-57000000D02*
X105650000Y-56450000D01*
X105650000Y-57000000D02*
X105650000Y-57550000D01*
X105650000Y-57000000D02*
X106250000Y-56600000D01*
X106250000Y-56600000D02*
X106250000Y-57400000D01*
X106250000Y-57000000D02*
X106750000Y-57000000D01*
X106250000Y-57400000D02*
X105650000Y-57000000D01*
%TO.C,D7*%
X87250000Y-57000000D02*
X87650000Y-57000000D01*
X87650000Y-57000000D02*
X87650000Y-56450000D01*
X87650000Y-57000000D02*
X87650000Y-57550000D01*
X87650000Y-57000000D02*
X88250000Y-56600000D01*
X88250000Y-56600000D02*
X88250000Y-57400000D01*
X88250000Y-57000000D02*
X88750000Y-57000000D01*
X88250000Y-57400000D02*
X87650000Y-57000000D01*
%TO.C,D19*%
X159250000Y-57000000D02*
X159650000Y-57000000D01*
X159650000Y-57000000D02*
X159650000Y-56450000D01*
X159650000Y-57000000D02*
X159650000Y-57550000D01*
X159650000Y-57000000D02*
X160250000Y-56600000D01*
X160250000Y-56600000D02*
X160250000Y-57400000D01*
X160250000Y-57000000D02*
X160750000Y-57000000D01*
X160250000Y-57400000D02*
X159650000Y-57000000D01*
%TO.C,LED18*%
X164500000Y-70125000D02*
X164000000Y-70625000D01*
X164000000Y-69625000D01*
X164500000Y-70125000D01*
G36*
X164500000Y-70125000D02*
G01*
X164000000Y-70625000D01*
X164000000Y-69625000D01*
X164500000Y-70125000D01*
G37*
%TO.C,D13*%
X123250000Y-57000000D02*
X123650000Y-57000000D01*
X123650000Y-57000000D02*
X123650000Y-56450000D01*
X123650000Y-57000000D02*
X123650000Y-57550000D01*
X123650000Y-57000000D02*
X124250000Y-56600000D01*
X124250000Y-56600000D02*
X124250000Y-57400000D01*
X124250000Y-57000000D02*
X124750000Y-57000000D01*
X124250000Y-57400000D02*
X123650000Y-57000000D01*
%TO.C,D11*%
X123250000Y-91000000D02*
X123650000Y-91000000D01*
X123650000Y-91000000D02*
X123650000Y-90450000D01*
X123650000Y-91000000D02*
X123650000Y-91550000D01*
X123650000Y-91000000D02*
X124250000Y-90600000D01*
X124250000Y-90600000D02*
X124250000Y-91400000D01*
X124250000Y-91000000D02*
X124750000Y-91000000D01*
X124250000Y-91400000D02*
X123650000Y-91000000D01*
%TO.C,LED10*%
X110500000Y-53125000D02*
X110000000Y-53625000D01*
X110000000Y-52625000D01*
X110500000Y-53125000D01*
G36*
X110500000Y-53125000D02*
G01*
X110000000Y-53625000D01*
X110000000Y-52625000D01*
X110500000Y-53125000D01*
G37*
%TO.C,D22*%
X168073469Y-131906028D02*
X168449346Y-132042836D01*
X168449346Y-132042836D02*
X168261235Y-132559667D01*
X168449346Y-132042836D02*
X168637457Y-131526005D01*
X168449346Y-132042836D02*
X169149969Y-131872171D01*
X168876353Y-132623925D02*
X168449346Y-132042836D01*
X169013161Y-132248048D02*
X169483007Y-132419058D01*
X169149969Y-131872171D02*
X168876353Y-132623925D01*
%TO.C,LED20*%
X171689291Y-111007371D02*
X171048435Y-111306206D01*
X171390455Y-110366513D01*
X171689291Y-111007371D01*
G36*
X171689291Y-111007371D02*
G01*
X171048435Y-111306206D01*
X171390455Y-110366513D01*
X171689291Y-111007371D01*
G37*
%TO.C,D5*%
X87250000Y-91000000D02*
X87650000Y-91000000D01*
X87650000Y-91000000D02*
X87650000Y-90450000D01*
X87650000Y-91000000D02*
X87650000Y-91550000D01*
X87650000Y-91000000D02*
X88250000Y-90600000D01*
X88250000Y-90600000D02*
X88250000Y-91400000D01*
X88250000Y-91000000D02*
X88750000Y-91000000D01*
X88250000Y-91400000D02*
X87650000Y-91000000D01*
D12*
%TO.C,MCU1*%
X170910000Y-39720000D02*
X170910000Y-72740000D01*
X170910000Y-72740000D02*
X188690000Y-72740000D01*
X188690000Y-39720000D02*
X170910000Y-39720000D01*
X188690000Y-72740000D02*
X188690000Y-39720000D01*
D11*
%TO.C,D8*%
X105250000Y-91000000D02*
X105650000Y-91000000D01*
X105650000Y-91000000D02*
X105650000Y-90450000D01*
X105650000Y-91000000D02*
X105650000Y-91550000D01*
X105650000Y-91000000D02*
X106250000Y-90600000D01*
X106250000Y-90600000D02*
X106250000Y-91400000D01*
X106250000Y-91000000D02*
X106750000Y-91000000D01*
X106250000Y-91400000D02*
X105650000Y-91000000D01*
%TO.C,D21*%
X182345045Y-119009435D02*
X182720922Y-119146243D01*
X182720922Y-119146243D02*
X182532811Y-119663074D01*
X182720922Y-119146243D02*
X182909033Y-118629412D01*
X182720922Y-119146243D02*
X183421545Y-118975578D01*
X183147929Y-119727332D02*
X182720922Y-119146243D01*
X183284737Y-119351455D02*
X183754583Y-119522465D01*
X183421545Y-118975578D02*
X183147929Y-119727332D01*
%TO.C,LED22*%
X174332182Y-130060326D02*
X173691326Y-130359161D01*
X174033346Y-129419468D01*
X174332182Y-130060326D01*
G36*
X174332182Y-130060326D02*
G01*
X173691326Y-130359161D01*
X174033346Y-129419468D01*
X174332182Y-130060326D01*
G37*
%TO.C,LED15*%
X146500000Y-70125000D02*
X146000000Y-70625000D01*
X146000000Y-69625000D01*
X146500000Y-70125000D01*
G36*
X146500000Y-70125000D02*
G01*
X146000000Y-70625000D01*
X146000000Y-69625000D01*
X146500000Y-70125000D01*
G37*
%TO.C,LED6*%
X92500000Y-70125000D02*
X92000000Y-70625000D01*
X92000000Y-69625000D01*
X92500000Y-70125000D01*
G36*
X92500000Y-70125000D02*
G01*
X92000000Y-70625000D01*
X92000000Y-69625000D01*
X92500000Y-70125000D01*
G37*
%TO.C,D4*%
X69250000Y-57000000D02*
X69650000Y-57000000D01*
X69650000Y-57000000D02*
X69650000Y-56450000D01*
X69650000Y-57000000D02*
X69650000Y-57550000D01*
X69650000Y-57000000D02*
X70250000Y-56600000D01*
X70250000Y-56600000D02*
X70250000Y-57400000D01*
X70250000Y-57000000D02*
X70750000Y-57000000D01*
X70250000Y-57400000D02*
X69650000Y-57000000D01*
%TO.C,LED12*%
X128500000Y-70125000D02*
X128000000Y-70625000D01*
X128000000Y-69625000D01*
X128500000Y-70125000D01*
G36*
X128500000Y-70125000D02*
G01*
X128000000Y-70625000D01*
X128000000Y-69625000D01*
X128500000Y-70125000D01*
G37*
%TO.C,D2*%
X69250000Y-91000000D02*
X69650000Y-91000000D01*
X69650000Y-91000000D02*
X69650000Y-90450000D01*
X69650000Y-91000000D02*
X69650000Y-91550000D01*
X69650000Y-91000000D02*
X70250000Y-90600000D01*
X70250000Y-90600000D02*
X70250000Y-91400000D01*
X70250000Y-91000000D02*
X70750000Y-91000000D01*
X70250000Y-91400000D02*
X69650000Y-91000000D01*
%TO.C,LED11*%
X128500000Y-87125000D02*
X128000000Y-87625000D01*
X128000000Y-86625000D01*
X128500000Y-87125000D01*
G36*
X128500000Y-87125000D02*
G01*
X128000000Y-87625000D01*
X128000000Y-86625000D01*
X128500000Y-87125000D01*
G37*
%TO.C,LED13*%
X128500000Y-53125000D02*
X128000000Y-53625000D01*
X128000000Y-52625000D01*
X128500000Y-53125000D01*
G36*
X128500000Y-53125000D02*
G01*
X128000000Y-53625000D01*
X128000000Y-52625000D01*
X128500000Y-53125000D01*
G37*
%TO.C,D9*%
X105250000Y-74000000D02*
X105650000Y-74000000D01*
X105650000Y-74000000D02*
X105650000Y-73450000D01*
X105650000Y-74000000D02*
X105650000Y-74550000D01*
X105650000Y-74000000D02*
X106250000Y-73600000D01*
X106250000Y-73600000D02*
X106250000Y-74400000D01*
X106250000Y-74000000D02*
X106750000Y-74000000D01*
X106250000Y-74400000D02*
X105650000Y-74000000D01*
%TO.C,LED4*%
X74500000Y-53125000D02*
X74000000Y-53625000D01*
X74000000Y-52625000D01*
X74500000Y-53125000D01*
G36*
X74500000Y-53125000D02*
G01*
X74000000Y-53625000D01*
X74000000Y-52625000D01*
X74500000Y-53125000D01*
G37*
%TO.C,LED8*%
X110500000Y-87125000D02*
X110000000Y-87625000D01*
X110000000Y-86625000D01*
X110500000Y-87125000D01*
G36*
X110500000Y-87125000D02*
G01*
X110000000Y-87625000D01*
X110000000Y-86625000D01*
X110500000Y-87125000D01*
G37*
%TO.C,D18*%
X159250000Y-74000000D02*
X159650000Y-74000000D01*
X159650000Y-74000000D02*
X159650000Y-73450000D01*
X159650000Y-74000000D02*
X159650000Y-74550000D01*
X159650000Y-74000000D02*
X160250000Y-73600000D01*
X160250000Y-73600000D02*
X160250000Y-74400000D01*
X160250000Y-74000000D02*
X160750000Y-74000000D01*
X160250000Y-74400000D02*
X159650000Y-74000000D01*
%TD*%
D13*
%TO.C,MCU1*%
X187420000Y-43530000D03*
X187420000Y-46070000D03*
X187420000Y-48610000D03*
X187420000Y-51150000D03*
X187420000Y-53690000D03*
X187420000Y-56230000D03*
X187420000Y-58770000D03*
X187420000Y-61310000D03*
X187420000Y-63850000D03*
X187420000Y-66390000D03*
X187420000Y-68930000D03*
X187420000Y-71470000D03*
X172180000Y-71470000D03*
X172180000Y-68930000D03*
X172180000Y-66390000D03*
X172180000Y-63850000D03*
X172180000Y-61310000D03*
X172180000Y-58770000D03*
X172180000Y-56230000D03*
X172180000Y-53690000D03*
X172180000Y-51150000D03*
X172180000Y-48610000D03*
X172180000Y-46070000D03*
X172180000Y-43530000D03*
X174720000Y-66390000D03*
X177260000Y-66390000D03*
X179800000Y-66390000D03*
%TD*%
M02*
