%TF.GenerationSoftware,KiCad,Pcbnew,8.0.5*%
%TF.CreationDate,2024-09-15T18:20:55-04:00*%
%TF.ProjectId,theguy,74686567-7579-42e6-9b69-6361645f7063,v1.0.0*%
%TF.SameCoordinates,Original*%
%TF.FileFunction,Legend,Top*%
%TF.FilePolarity,Positive*%
%FSLAX46Y46*%
G04 Gerber Fmt 4.6, Leading zero omitted, Abs format (unit mm)*
G04 Created by KiCad (PCBNEW 8.0.5) date 2024-09-15 18:20:55*
%MOMM*%
%LPD*%
G01*
G04 APERTURE LIST*
%ADD10C,0.400000*%
%ADD11C,0.300000*%
%ADD12C,0.150000*%
%ADD13C,0.100000*%
%ADD14C,0.120000*%
%ADD15C,0.381000*%
%ADD16C,4.000000*%
%ADD17C,1.752600*%
G04 APERTURE END LIST*
D10*
X88453633Y-93904438D02*
X89596490Y-93904438D01*
X89025061Y-95904438D02*
X89025061Y-93904438D01*
X90263157Y-95904438D02*
X90263157Y-93904438D01*
X91120300Y-95904438D02*
X91120300Y-94856819D01*
X91120300Y-94856819D02*
X91025062Y-94666342D01*
X91025062Y-94666342D02*
X90834586Y-94571104D01*
X90834586Y-94571104D02*
X90548871Y-94571104D01*
X90548871Y-94571104D02*
X90358395Y-94666342D01*
X90358395Y-94666342D02*
X90263157Y-94761580D01*
X92834586Y-95809200D02*
X92644110Y-95904438D01*
X92644110Y-95904438D02*
X92263157Y-95904438D01*
X92263157Y-95904438D02*
X92072681Y-95809200D01*
X92072681Y-95809200D02*
X91977443Y-95618723D01*
X91977443Y-95618723D02*
X91977443Y-94856819D01*
X91977443Y-94856819D02*
X92072681Y-94666342D01*
X92072681Y-94666342D02*
X92263157Y-94571104D01*
X92263157Y-94571104D02*
X92644110Y-94571104D01*
X92644110Y-94571104D02*
X92834586Y-94666342D01*
X92834586Y-94666342D02*
X92929824Y-94856819D01*
X92929824Y-94856819D02*
X92929824Y-95047295D01*
X92929824Y-95047295D02*
X91977443Y-95237771D01*
X95215539Y-95333009D02*
X96167920Y-95333009D01*
X95025063Y-95904438D02*
X95691729Y-93904438D01*
X95691729Y-93904438D02*
X96358396Y-95904438D01*
X97025063Y-95904438D02*
X97025063Y-93904438D01*
X97025063Y-94666342D02*
X97215539Y-94571104D01*
X97215539Y-94571104D02*
X97596492Y-94571104D01*
X97596492Y-94571104D02*
X97786968Y-94666342D01*
X97786968Y-94666342D02*
X97882206Y-94761580D01*
X97882206Y-94761580D02*
X97977444Y-94952057D01*
X97977444Y-94952057D02*
X97977444Y-95523485D01*
X97977444Y-95523485D02*
X97882206Y-95713961D01*
X97882206Y-95713961D02*
X97786968Y-95809200D01*
X97786968Y-95809200D02*
X97596492Y-95904438D01*
X97596492Y-95904438D02*
X97215539Y-95904438D01*
X97215539Y-95904438D02*
X97025063Y-95809200D01*
X98739349Y-95809200D02*
X98929825Y-95904438D01*
X98929825Y-95904438D02*
X99310777Y-95904438D01*
X99310777Y-95904438D02*
X99501254Y-95809200D01*
X99501254Y-95809200D02*
X99596492Y-95618723D01*
X99596492Y-95618723D02*
X99596492Y-95523485D01*
X99596492Y-95523485D02*
X99501254Y-95333009D01*
X99501254Y-95333009D02*
X99310777Y-95237771D01*
X99310777Y-95237771D02*
X99025063Y-95237771D01*
X99025063Y-95237771D02*
X98834587Y-95142533D01*
X98834587Y-95142533D02*
X98739349Y-94952057D01*
X98739349Y-94952057D02*
X98739349Y-94856819D01*
X98739349Y-94856819D02*
X98834587Y-94666342D01*
X98834587Y-94666342D02*
X99025063Y-94571104D01*
X99025063Y-94571104D02*
X99310777Y-94571104D01*
X99310777Y-94571104D02*
X99501254Y-94666342D01*
X101215540Y-95809200D02*
X101025064Y-95904438D01*
X101025064Y-95904438D02*
X100644111Y-95904438D01*
X100644111Y-95904438D02*
X100453635Y-95809200D01*
X100453635Y-95809200D02*
X100358397Y-95618723D01*
X100358397Y-95618723D02*
X100358397Y-94856819D01*
X100358397Y-94856819D02*
X100453635Y-94666342D01*
X100453635Y-94666342D02*
X100644111Y-94571104D01*
X100644111Y-94571104D02*
X101025064Y-94571104D01*
X101025064Y-94571104D02*
X101215540Y-94666342D01*
X101215540Y-94666342D02*
X101310778Y-94856819D01*
X101310778Y-94856819D02*
X101310778Y-95047295D01*
X101310778Y-95047295D02*
X100358397Y-95237771D01*
X102167921Y-94571104D02*
X102167921Y-95904438D01*
X102167921Y-94761580D02*
X102263159Y-94666342D01*
X102263159Y-94666342D02*
X102453635Y-94571104D01*
X102453635Y-94571104D02*
X102739350Y-94571104D01*
X102739350Y-94571104D02*
X102929826Y-94666342D01*
X102929826Y-94666342D02*
X103025064Y-94856819D01*
X103025064Y-94856819D02*
X103025064Y-95904438D01*
X103882207Y-95809200D02*
X104072683Y-95904438D01*
X104072683Y-95904438D02*
X104453635Y-95904438D01*
X104453635Y-95904438D02*
X104644112Y-95809200D01*
X104644112Y-95809200D02*
X104739350Y-95618723D01*
X104739350Y-95618723D02*
X104739350Y-95523485D01*
X104739350Y-95523485D02*
X104644112Y-95333009D01*
X104644112Y-95333009D02*
X104453635Y-95237771D01*
X104453635Y-95237771D02*
X104167921Y-95237771D01*
X104167921Y-95237771D02*
X103977445Y-95142533D01*
X103977445Y-95142533D02*
X103882207Y-94952057D01*
X103882207Y-94952057D02*
X103882207Y-94856819D01*
X103882207Y-94856819D02*
X103977445Y-94666342D01*
X103977445Y-94666342D02*
X104167921Y-94571104D01*
X104167921Y-94571104D02*
X104453635Y-94571104D01*
X104453635Y-94571104D02*
X104644112Y-94666342D01*
X106358398Y-95809200D02*
X106167922Y-95904438D01*
X106167922Y-95904438D02*
X105786969Y-95904438D01*
X105786969Y-95904438D02*
X105596493Y-95809200D01*
X105596493Y-95809200D02*
X105501255Y-95618723D01*
X105501255Y-95618723D02*
X105501255Y-94856819D01*
X105501255Y-94856819D02*
X105596493Y-94666342D01*
X105596493Y-94666342D02*
X105786969Y-94571104D01*
X105786969Y-94571104D02*
X106167922Y-94571104D01*
X106167922Y-94571104D02*
X106358398Y-94666342D01*
X106358398Y-94666342D02*
X106453636Y-94856819D01*
X106453636Y-94856819D02*
X106453636Y-95047295D01*
X106453636Y-95047295D02*
X105501255Y-95237771D01*
X109120303Y-95904438D02*
X108929827Y-95809200D01*
X108929827Y-95809200D02*
X108834589Y-95713961D01*
X108834589Y-95713961D02*
X108739351Y-95523485D01*
X108739351Y-95523485D02*
X108739351Y-94952057D01*
X108739351Y-94952057D02*
X108834589Y-94761580D01*
X108834589Y-94761580D02*
X108929827Y-94666342D01*
X108929827Y-94666342D02*
X109120303Y-94571104D01*
X109120303Y-94571104D02*
X109406018Y-94571104D01*
X109406018Y-94571104D02*
X109596494Y-94666342D01*
X109596494Y-94666342D02*
X109691732Y-94761580D01*
X109691732Y-94761580D02*
X109786970Y-94952057D01*
X109786970Y-94952057D02*
X109786970Y-95523485D01*
X109786970Y-95523485D02*
X109691732Y-95713961D01*
X109691732Y-95713961D02*
X109596494Y-95809200D01*
X109596494Y-95809200D02*
X109406018Y-95904438D01*
X109406018Y-95904438D02*
X109120303Y-95904438D01*
X110358399Y-94571104D02*
X111120303Y-94571104D01*
X110644113Y-95904438D02*
X110644113Y-94190152D01*
X110644113Y-94190152D02*
X110739351Y-93999676D01*
X110739351Y-93999676D02*
X110929827Y-93904438D01*
X110929827Y-93904438D02*
X111120303Y-93904438D01*
X113310780Y-94856819D02*
X113977447Y-94856819D01*
X114263161Y-95904438D02*
X113310780Y-95904438D01*
X113310780Y-95904438D02*
X113310780Y-93904438D01*
X113310780Y-93904438D02*
X114263161Y-93904438D01*
X114929828Y-95904438D02*
X115977447Y-94571104D01*
X114929828Y-94571104D02*
X115977447Y-95904438D01*
X116739352Y-95904438D02*
X116739352Y-94571104D01*
X116739352Y-93904438D02*
X116644114Y-93999676D01*
X116644114Y-93999676D02*
X116739352Y-94094914D01*
X116739352Y-94094914D02*
X116834590Y-93999676D01*
X116834590Y-93999676D02*
X116739352Y-93904438D01*
X116739352Y-93904438D02*
X116739352Y-94094914D01*
X117596495Y-95809200D02*
X117786971Y-95904438D01*
X117786971Y-95904438D02*
X118167923Y-95904438D01*
X118167923Y-95904438D02*
X118358400Y-95809200D01*
X118358400Y-95809200D02*
X118453638Y-95618723D01*
X118453638Y-95618723D02*
X118453638Y-95523485D01*
X118453638Y-95523485D02*
X118358400Y-95333009D01*
X118358400Y-95333009D02*
X118167923Y-95237771D01*
X118167923Y-95237771D02*
X117882209Y-95237771D01*
X117882209Y-95237771D02*
X117691733Y-95142533D01*
X117691733Y-95142533D02*
X117596495Y-94952057D01*
X117596495Y-94952057D02*
X117596495Y-94856819D01*
X117596495Y-94856819D02*
X117691733Y-94666342D01*
X117691733Y-94666342D02*
X117882209Y-94571104D01*
X117882209Y-94571104D02*
X118167923Y-94571104D01*
X118167923Y-94571104D02*
X118358400Y-94666342D01*
X119025067Y-94571104D02*
X119786971Y-94571104D01*
X119310781Y-93904438D02*
X119310781Y-95618723D01*
X119310781Y-95618723D02*
X119406019Y-95809200D01*
X119406019Y-95809200D02*
X119596495Y-95904438D01*
X119596495Y-95904438D02*
X119786971Y-95904438D01*
X121215543Y-95809200D02*
X121025067Y-95904438D01*
X121025067Y-95904438D02*
X120644114Y-95904438D01*
X120644114Y-95904438D02*
X120453638Y-95809200D01*
X120453638Y-95809200D02*
X120358400Y-95618723D01*
X120358400Y-95618723D02*
X120358400Y-94856819D01*
X120358400Y-94856819D02*
X120453638Y-94666342D01*
X120453638Y-94666342D02*
X120644114Y-94571104D01*
X120644114Y-94571104D02*
X121025067Y-94571104D01*
X121025067Y-94571104D02*
X121215543Y-94666342D01*
X121215543Y-94666342D02*
X121310781Y-94856819D01*
X121310781Y-94856819D02*
X121310781Y-95047295D01*
X121310781Y-95047295D02*
X120358400Y-95237771D01*
X122167924Y-94571104D02*
X122167924Y-95904438D01*
X122167924Y-94761580D02*
X122263162Y-94666342D01*
X122263162Y-94666342D02*
X122453638Y-94571104D01*
X122453638Y-94571104D02*
X122739353Y-94571104D01*
X122739353Y-94571104D02*
X122929829Y-94666342D01*
X122929829Y-94666342D02*
X123025067Y-94856819D01*
X123025067Y-94856819D02*
X123025067Y-95904438D01*
X124834591Y-95809200D02*
X124644115Y-95904438D01*
X124644115Y-95904438D02*
X124263162Y-95904438D01*
X124263162Y-95904438D02*
X124072686Y-95809200D01*
X124072686Y-95809200D02*
X123977448Y-95713961D01*
X123977448Y-95713961D02*
X123882210Y-95523485D01*
X123882210Y-95523485D02*
X123882210Y-94952057D01*
X123882210Y-94952057D02*
X123977448Y-94761580D01*
X123977448Y-94761580D02*
X124072686Y-94666342D01*
X124072686Y-94666342D02*
X124263162Y-94571104D01*
X124263162Y-94571104D02*
X124644115Y-94571104D01*
X124644115Y-94571104D02*
X124834591Y-94666342D01*
X126453639Y-95809200D02*
X126263163Y-95904438D01*
X126263163Y-95904438D02*
X125882210Y-95904438D01*
X125882210Y-95904438D02*
X125691734Y-95809200D01*
X125691734Y-95809200D02*
X125596496Y-95618723D01*
X125596496Y-95618723D02*
X125596496Y-94856819D01*
X125596496Y-94856819D02*
X125691734Y-94666342D01*
X125691734Y-94666342D02*
X125882210Y-94571104D01*
X125882210Y-94571104D02*
X126263163Y-94571104D01*
X126263163Y-94571104D02*
X126453639Y-94666342D01*
X126453639Y-94666342D02*
X126548877Y-94856819D01*
X126548877Y-94856819D02*
X126548877Y-95047295D01*
X126548877Y-95047295D02*
X125596496Y-95237771D01*
D11*
X175121428Y-68453328D02*
X175121428Y-69453328D01*
X175121428Y-68596185D02*
X175192857Y-68524757D01*
X175192857Y-68524757D02*
X175335714Y-68453328D01*
X175335714Y-68453328D02*
X175550000Y-68453328D01*
X175550000Y-68453328D02*
X175692857Y-68524757D01*
X175692857Y-68524757D02*
X175764286Y-68667614D01*
X175764286Y-68667614D02*
X175764286Y-69453328D01*
X176478571Y-69453328D02*
X176478571Y-68453328D01*
X176478571Y-67953328D02*
X176407143Y-68024757D01*
X176407143Y-68024757D02*
X176478571Y-68096185D01*
X176478571Y-68096185D02*
X176550000Y-68024757D01*
X176550000Y-68024757D02*
X176478571Y-67953328D01*
X176478571Y-67953328D02*
X176478571Y-68096185D01*
X177835715Y-69381900D02*
X177692857Y-69453328D01*
X177692857Y-69453328D02*
X177407143Y-69453328D01*
X177407143Y-69453328D02*
X177264286Y-69381900D01*
X177264286Y-69381900D02*
X177192857Y-69310471D01*
X177192857Y-69310471D02*
X177121429Y-69167614D01*
X177121429Y-69167614D02*
X177121429Y-68739042D01*
X177121429Y-68739042D02*
X177192857Y-68596185D01*
X177192857Y-68596185D02*
X177264286Y-68524757D01*
X177264286Y-68524757D02*
X177407143Y-68453328D01*
X177407143Y-68453328D02*
X177692857Y-68453328D01*
X177692857Y-68453328D02*
X177835715Y-68524757D01*
X179050000Y-69381900D02*
X178907143Y-69453328D01*
X178907143Y-69453328D02*
X178621429Y-69453328D01*
X178621429Y-69453328D02*
X178478571Y-69381900D01*
X178478571Y-69381900D02*
X178407143Y-69239042D01*
X178407143Y-69239042D02*
X178407143Y-68667614D01*
X178407143Y-68667614D02*
X178478571Y-68524757D01*
X178478571Y-68524757D02*
X178621429Y-68453328D01*
X178621429Y-68453328D02*
X178907143Y-68453328D01*
X178907143Y-68453328D02*
X179050000Y-68524757D01*
X179050000Y-68524757D02*
X179121429Y-68667614D01*
X179121429Y-68667614D02*
X179121429Y-68810471D01*
X179121429Y-68810471D02*
X178407143Y-68953328D01*
X179764285Y-69310471D02*
X179835714Y-69381900D01*
X179835714Y-69381900D02*
X179764285Y-69453328D01*
X179764285Y-69453328D02*
X179692857Y-69381900D01*
X179692857Y-69381900D02*
X179764285Y-69310471D01*
X179764285Y-69310471D02*
X179764285Y-69453328D01*
X179764285Y-68881900D02*
X179692857Y-68024757D01*
X179692857Y-68024757D02*
X179764285Y-67953328D01*
X179764285Y-67953328D02*
X179835714Y-68024757D01*
X179835714Y-68024757D02*
X179764285Y-68881900D01*
X179764285Y-68881900D02*
X179764285Y-67953328D01*
X180335714Y-68453328D02*
X180692857Y-69453328D01*
X180692857Y-69453328D02*
X181050000Y-68453328D01*
X181621428Y-69453328D02*
X181621428Y-68453328D01*
X181621428Y-67953328D02*
X181550000Y-68024757D01*
X181550000Y-68024757D02*
X181621428Y-68096185D01*
X181621428Y-68096185D02*
X181692857Y-68024757D01*
X181692857Y-68024757D02*
X181621428Y-67953328D01*
X181621428Y-67953328D02*
X181621428Y-68096185D01*
X182907143Y-69381900D02*
X182764286Y-69453328D01*
X182764286Y-69453328D02*
X182478572Y-69453328D01*
X182478572Y-69453328D02*
X182335714Y-69381900D01*
X182335714Y-69381900D02*
X182264286Y-69239042D01*
X182264286Y-69239042D02*
X182264286Y-68667614D01*
X182264286Y-68667614D02*
X182335714Y-68524757D01*
X182335714Y-68524757D02*
X182478572Y-68453328D01*
X182478572Y-68453328D02*
X182764286Y-68453328D01*
X182764286Y-68453328D02*
X182907143Y-68524757D01*
X182907143Y-68524757D02*
X182978572Y-68667614D01*
X182978572Y-68667614D02*
X182978572Y-68810471D01*
X182978572Y-68810471D02*
X182264286Y-68953328D01*
X183478571Y-68453328D02*
X183764286Y-69453328D01*
X183764286Y-69453328D02*
X184050000Y-68739042D01*
X184050000Y-68739042D02*
X184335714Y-69453328D01*
X184335714Y-69453328D02*
X184621428Y-68453328D01*
D12*
X177584200Y-73227381D02*
X177622295Y-73113095D01*
X177622295Y-73113095D02*
X177622295Y-72922619D01*
X177622295Y-72922619D02*
X177584200Y-72846428D01*
X177584200Y-72846428D02*
X177546104Y-72808333D01*
X177546104Y-72808333D02*
X177469914Y-72770238D01*
X177469914Y-72770238D02*
X177393723Y-72770238D01*
X177393723Y-72770238D02*
X177317533Y-72808333D01*
X177317533Y-72808333D02*
X177279438Y-72846428D01*
X177279438Y-72846428D02*
X177241342Y-72922619D01*
X177241342Y-72922619D02*
X177203247Y-73075000D01*
X177203247Y-73075000D02*
X177165152Y-73151190D01*
X177165152Y-73151190D02*
X177127057Y-73189285D01*
X177127057Y-73189285D02*
X177050866Y-73227381D01*
X177050866Y-73227381D02*
X176974676Y-73227381D01*
X176974676Y-73227381D02*
X176898485Y-73189285D01*
X176898485Y-73189285D02*
X176860390Y-73151190D01*
X176860390Y-73151190D02*
X176822295Y-73075000D01*
X176822295Y-73075000D02*
X176822295Y-72884523D01*
X176822295Y-72884523D02*
X176860390Y-72770238D01*
X177546104Y-71970237D02*
X177584200Y-72008333D01*
X177584200Y-72008333D02*
X177622295Y-72122618D01*
X177622295Y-72122618D02*
X177622295Y-72198809D01*
X177622295Y-72198809D02*
X177584200Y-72313095D01*
X177584200Y-72313095D02*
X177508009Y-72389285D01*
X177508009Y-72389285D02*
X177431819Y-72427380D01*
X177431819Y-72427380D02*
X177279438Y-72465476D01*
X177279438Y-72465476D02*
X177165152Y-72465476D01*
X177165152Y-72465476D02*
X177012771Y-72427380D01*
X177012771Y-72427380D02*
X176936580Y-72389285D01*
X176936580Y-72389285D02*
X176860390Y-72313095D01*
X176860390Y-72313095D02*
X176822295Y-72198809D01*
X176822295Y-72198809D02*
X176822295Y-72122618D01*
X176822295Y-72122618D02*
X176860390Y-72008333D01*
X176860390Y-72008333D02*
X176898485Y-71970237D01*
X177622295Y-71246428D02*
X177622295Y-71627380D01*
X177622295Y-71627380D02*
X176822295Y-71627380D01*
X185166104Y-72408332D02*
X185204200Y-72446428D01*
X185204200Y-72446428D02*
X185242295Y-72560713D01*
X185242295Y-72560713D02*
X185242295Y-72636904D01*
X185242295Y-72636904D02*
X185204200Y-72751190D01*
X185204200Y-72751190D02*
X185128009Y-72827380D01*
X185128009Y-72827380D02*
X185051819Y-72865475D01*
X185051819Y-72865475D02*
X184899438Y-72903571D01*
X184899438Y-72903571D02*
X184785152Y-72903571D01*
X184785152Y-72903571D02*
X184632771Y-72865475D01*
X184632771Y-72865475D02*
X184556580Y-72827380D01*
X184556580Y-72827380D02*
X184480390Y-72751190D01*
X184480390Y-72751190D02*
X184442295Y-72636904D01*
X184442295Y-72636904D02*
X184442295Y-72560713D01*
X184442295Y-72560713D02*
X184480390Y-72446428D01*
X184480390Y-72446428D02*
X184518485Y-72408332D01*
X185204200Y-72103571D02*
X185242295Y-71989285D01*
X185242295Y-71989285D02*
X185242295Y-71798809D01*
X185242295Y-71798809D02*
X185204200Y-71722618D01*
X185204200Y-71722618D02*
X185166104Y-71684523D01*
X185166104Y-71684523D02*
X185089914Y-71646428D01*
X185089914Y-71646428D02*
X185013723Y-71646428D01*
X185013723Y-71646428D02*
X184937533Y-71684523D01*
X184937533Y-71684523D02*
X184899438Y-71722618D01*
X184899438Y-71722618D02*
X184861342Y-71798809D01*
X184861342Y-71798809D02*
X184823247Y-71951190D01*
X184823247Y-71951190D02*
X184785152Y-72027380D01*
X184785152Y-72027380D02*
X184747057Y-72065475D01*
X184747057Y-72065475D02*
X184670866Y-72103571D01*
X184670866Y-72103571D02*
X184594676Y-72103571D01*
X184594676Y-72103571D02*
X184518485Y-72065475D01*
X184518485Y-72065475D02*
X184480390Y-72027380D01*
X184480390Y-72027380D02*
X184442295Y-71951190D01*
X184442295Y-71951190D02*
X184442295Y-71760713D01*
X184442295Y-71760713D02*
X184480390Y-71646428D01*
X179362295Y-73341666D02*
X180162295Y-73074999D01*
X180162295Y-73074999D02*
X179362295Y-72808333D01*
X180086104Y-72084523D02*
X180124200Y-72122619D01*
X180124200Y-72122619D02*
X180162295Y-72236904D01*
X180162295Y-72236904D02*
X180162295Y-72313095D01*
X180162295Y-72313095D02*
X180124200Y-72427381D01*
X180124200Y-72427381D02*
X180048009Y-72503571D01*
X180048009Y-72503571D02*
X179971819Y-72541666D01*
X179971819Y-72541666D02*
X179819438Y-72579762D01*
X179819438Y-72579762D02*
X179705152Y-72579762D01*
X179705152Y-72579762D02*
X179552771Y-72541666D01*
X179552771Y-72541666D02*
X179476580Y-72503571D01*
X179476580Y-72503571D02*
X179400390Y-72427381D01*
X179400390Y-72427381D02*
X179362295Y-72313095D01*
X179362295Y-72313095D02*
X179362295Y-72236904D01*
X179362295Y-72236904D02*
X179400390Y-72122619D01*
X179400390Y-72122619D02*
X179438485Y-72084523D01*
X180086104Y-71284523D02*
X180124200Y-71322619D01*
X180124200Y-71322619D02*
X180162295Y-71436904D01*
X180162295Y-71436904D02*
X180162295Y-71513095D01*
X180162295Y-71513095D02*
X180124200Y-71627381D01*
X180124200Y-71627381D02*
X180048009Y-71703571D01*
X180048009Y-71703571D02*
X179971819Y-71741666D01*
X179971819Y-71741666D02*
X179819438Y-71779762D01*
X179819438Y-71779762D02*
X179705152Y-71779762D01*
X179705152Y-71779762D02*
X179552771Y-71741666D01*
X179552771Y-71741666D02*
X179476580Y-71703571D01*
X179476580Y-71703571D02*
X179400390Y-71627381D01*
X179400390Y-71627381D02*
X179362295Y-71513095D01*
X179362295Y-71513095D02*
X179362295Y-71436904D01*
X179362295Y-71436904D02*
X179400390Y-71322619D01*
X179400390Y-71322619D02*
X179438485Y-71284523D01*
X181940390Y-72884523D02*
X181902295Y-72960713D01*
X181902295Y-72960713D02*
X181902295Y-73074999D01*
X181902295Y-73074999D02*
X181940390Y-73189285D01*
X181940390Y-73189285D02*
X182016580Y-73265475D01*
X182016580Y-73265475D02*
X182092771Y-73303570D01*
X182092771Y-73303570D02*
X182245152Y-73341666D01*
X182245152Y-73341666D02*
X182359438Y-73341666D01*
X182359438Y-73341666D02*
X182511819Y-73303570D01*
X182511819Y-73303570D02*
X182588009Y-73265475D01*
X182588009Y-73265475D02*
X182664200Y-73189285D01*
X182664200Y-73189285D02*
X182702295Y-73074999D01*
X182702295Y-73074999D02*
X182702295Y-72998808D01*
X182702295Y-72998808D02*
X182664200Y-72884523D01*
X182664200Y-72884523D02*
X182626104Y-72846427D01*
X182626104Y-72846427D02*
X182359438Y-72846427D01*
X182359438Y-72846427D02*
X182359438Y-72998808D01*
X182702295Y-72503570D02*
X181902295Y-72503570D01*
X181902295Y-72503570D02*
X182702295Y-72046427D01*
X182702295Y-72046427D02*
X181902295Y-72046427D01*
X182702295Y-71665475D02*
X181902295Y-71665475D01*
X181902295Y-71665475D02*
X181902295Y-71474999D01*
X181902295Y-71474999D02*
X181940390Y-71360713D01*
X181940390Y-71360713D02*
X182016580Y-71284523D01*
X182016580Y-71284523D02*
X182092771Y-71246428D01*
X182092771Y-71246428D02*
X182245152Y-71208332D01*
X182245152Y-71208332D02*
X182359438Y-71208332D01*
X182359438Y-71208332D02*
X182511819Y-71246428D01*
X182511819Y-71246428D02*
X182588009Y-71284523D01*
X182588009Y-71284523D02*
X182664200Y-71360713D01*
X182664200Y-71360713D02*
X182702295Y-71474999D01*
X182702295Y-71474999D02*
X182702295Y-71665475D01*
X175044200Y-73246428D02*
X175082295Y-73132142D01*
X175082295Y-73132142D02*
X175082295Y-72941666D01*
X175082295Y-72941666D02*
X175044200Y-72865475D01*
X175044200Y-72865475D02*
X175006104Y-72827380D01*
X175006104Y-72827380D02*
X174929914Y-72789285D01*
X174929914Y-72789285D02*
X174853723Y-72789285D01*
X174853723Y-72789285D02*
X174777533Y-72827380D01*
X174777533Y-72827380D02*
X174739438Y-72865475D01*
X174739438Y-72865475D02*
X174701342Y-72941666D01*
X174701342Y-72941666D02*
X174663247Y-73094047D01*
X174663247Y-73094047D02*
X174625152Y-73170237D01*
X174625152Y-73170237D02*
X174587057Y-73208332D01*
X174587057Y-73208332D02*
X174510866Y-73246428D01*
X174510866Y-73246428D02*
X174434676Y-73246428D01*
X174434676Y-73246428D02*
X174358485Y-73208332D01*
X174358485Y-73208332D02*
X174320390Y-73170237D01*
X174320390Y-73170237D02*
X174282295Y-73094047D01*
X174282295Y-73094047D02*
X174282295Y-72903570D01*
X174282295Y-72903570D02*
X174320390Y-72789285D01*
X175082295Y-72446427D02*
X174282295Y-72446427D01*
X174282295Y-72446427D02*
X174282295Y-72255951D01*
X174282295Y-72255951D02*
X174320390Y-72141665D01*
X174320390Y-72141665D02*
X174396580Y-72065475D01*
X174396580Y-72065475D02*
X174472771Y-72027380D01*
X174472771Y-72027380D02*
X174625152Y-71989284D01*
X174625152Y-71989284D02*
X174739438Y-71989284D01*
X174739438Y-71989284D02*
X174891819Y-72027380D01*
X174891819Y-72027380D02*
X174968009Y-72065475D01*
X174968009Y-72065475D02*
X175044200Y-72141665D01*
X175044200Y-72141665D02*
X175082295Y-72255951D01*
X175082295Y-72255951D02*
X175082295Y-72446427D01*
X174853723Y-71684523D02*
X174853723Y-71303570D01*
X175082295Y-71760713D02*
X174282295Y-71494046D01*
X174282295Y-71494046D02*
X175082295Y-71227380D01*
X184537190Y-55862295D02*
X184613380Y-55862295D01*
X184613380Y-55862295D02*
X184689571Y-55900390D01*
X184689571Y-55900390D02*
X184727666Y-55938485D01*
X184727666Y-55938485D02*
X184765761Y-56014676D01*
X184765761Y-56014676D02*
X184803856Y-56167057D01*
X184803856Y-56167057D02*
X184803856Y-56357533D01*
X184803856Y-56357533D02*
X184765761Y-56509914D01*
X184765761Y-56509914D02*
X184727666Y-56586104D01*
X184727666Y-56586104D02*
X184689571Y-56624200D01*
X184689571Y-56624200D02*
X184613380Y-56662295D01*
X184613380Y-56662295D02*
X184537190Y-56662295D01*
X184537190Y-56662295D02*
X184460999Y-56624200D01*
X184460999Y-56624200D02*
X184422904Y-56586104D01*
X184422904Y-56586104D02*
X184384809Y-56509914D01*
X184384809Y-56509914D02*
X184346713Y-56357533D01*
X184346713Y-56357533D02*
X184346713Y-56167057D01*
X184346713Y-56167057D02*
X184384809Y-56014676D01*
X184384809Y-56014676D02*
X184422904Y-55938485D01*
X184422904Y-55938485D02*
X184460999Y-55900390D01*
X184460999Y-55900390D02*
X184537190Y-55862295D01*
X185108618Y-55938485D02*
X185146714Y-55900390D01*
X185146714Y-55900390D02*
X185222904Y-55862295D01*
X185222904Y-55862295D02*
X185413380Y-55862295D01*
X185413380Y-55862295D02*
X185489571Y-55900390D01*
X185489571Y-55900390D02*
X185527666Y-55938485D01*
X185527666Y-55938485D02*
X185565761Y-56014676D01*
X185565761Y-56014676D02*
X185565761Y-56090866D01*
X185565761Y-56090866D02*
X185527666Y-56205152D01*
X185527666Y-56205152D02*
X185070523Y-56662295D01*
X185070523Y-56662295D02*
X185565761Y-56662295D01*
X186061000Y-55862295D02*
X186137190Y-55862295D01*
X186137190Y-55862295D02*
X186213381Y-55900390D01*
X186213381Y-55900390D02*
X186251476Y-55938485D01*
X186251476Y-55938485D02*
X186289571Y-56014676D01*
X186289571Y-56014676D02*
X186327666Y-56167057D01*
X186327666Y-56167057D02*
X186327666Y-56357533D01*
X186327666Y-56357533D02*
X186289571Y-56509914D01*
X186289571Y-56509914D02*
X186251476Y-56586104D01*
X186251476Y-56586104D02*
X186213381Y-56624200D01*
X186213381Y-56624200D02*
X186137190Y-56662295D01*
X186137190Y-56662295D02*
X186061000Y-56662295D01*
X186061000Y-56662295D02*
X185984809Y-56624200D01*
X185984809Y-56624200D02*
X185946714Y-56586104D01*
X185946714Y-56586104D02*
X185908619Y-56509914D01*
X185908619Y-56509914D02*
X185870523Y-56357533D01*
X185870523Y-56357533D02*
X185870523Y-56167057D01*
X185870523Y-56167057D02*
X185908619Y-56014676D01*
X185908619Y-56014676D02*
X185946714Y-55938485D01*
X185946714Y-55938485D02*
X185984809Y-55900390D01*
X185984809Y-55900390D02*
X186061000Y-55862295D01*
X184537190Y-60872295D02*
X184613380Y-60872295D01*
X184613380Y-60872295D02*
X184689571Y-60910390D01*
X184689571Y-60910390D02*
X184727666Y-60948485D01*
X184727666Y-60948485D02*
X184765761Y-61024676D01*
X184765761Y-61024676D02*
X184803856Y-61177057D01*
X184803856Y-61177057D02*
X184803856Y-61367533D01*
X184803856Y-61367533D02*
X184765761Y-61519914D01*
X184765761Y-61519914D02*
X184727666Y-61596104D01*
X184727666Y-61596104D02*
X184689571Y-61634200D01*
X184689571Y-61634200D02*
X184613380Y-61672295D01*
X184613380Y-61672295D02*
X184537190Y-61672295D01*
X184537190Y-61672295D02*
X184460999Y-61634200D01*
X184460999Y-61634200D02*
X184422904Y-61596104D01*
X184422904Y-61596104D02*
X184384809Y-61519914D01*
X184384809Y-61519914D02*
X184346713Y-61367533D01*
X184346713Y-61367533D02*
X184346713Y-61177057D01*
X184346713Y-61177057D02*
X184384809Y-61024676D01*
X184384809Y-61024676D02*
X184422904Y-60948485D01*
X184422904Y-60948485D02*
X184460999Y-60910390D01*
X184460999Y-60910390D02*
X184537190Y-60872295D01*
X185108618Y-60948485D02*
X185146714Y-60910390D01*
X185146714Y-60910390D02*
X185222904Y-60872295D01*
X185222904Y-60872295D02*
X185413380Y-60872295D01*
X185413380Y-60872295D02*
X185489571Y-60910390D01*
X185489571Y-60910390D02*
X185527666Y-60948485D01*
X185527666Y-60948485D02*
X185565761Y-61024676D01*
X185565761Y-61024676D02*
X185565761Y-61100866D01*
X185565761Y-61100866D02*
X185527666Y-61215152D01*
X185527666Y-61215152D02*
X185070523Y-61672295D01*
X185070523Y-61672295D02*
X185565761Y-61672295D01*
X186251476Y-61138961D02*
X186251476Y-61672295D01*
X186061000Y-60834200D02*
X185870523Y-61405628D01*
X185870523Y-61405628D02*
X186365762Y-61405628D01*
X173462809Y-53252295D02*
X173538999Y-53252295D01*
X173538999Y-53252295D02*
X173615190Y-53290390D01*
X173615190Y-53290390D02*
X173653285Y-53328485D01*
X173653285Y-53328485D02*
X173691380Y-53404676D01*
X173691380Y-53404676D02*
X173729475Y-53557057D01*
X173729475Y-53557057D02*
X173729475Y-53747533D01*
X173729475Y-53747533D02*
X173691380Y-53899914D01*
X173691380Y-53899914D02*
X173653285Y-53976104D01*
X173653285Y-53976104D02*
X173615190Y-54014200D01*
X173615190Y-54014200D02*
X173538999Y-54052295D01*
X173538999Y-54052295D02*
X173462809Y-54052295D01*
X173462809Y-54052295D02*
X173386618Y-54014200D01*
X173386618Y-54014200D02*
X173348523Y-53976104D01*
X173348523Y-53976104D02*
X173310428Y-53899914D01*
X173310428Y-53899914D02*
X173272332Y-53747533D01*
X173272332Y-53747533D02*
X173272332Y-53557057D01*
X173272332Y-53557057D02*
X173310428Y-53404676D01*
X173310428Y-53404676D02*
X173348523Y-53328485D01*
X173348523Y-53328485D02*
X173386618Y-53290390D01*
X173386618Y-53290390D02*
X173462809Y-53252295D01*
X173996142Y-53252295D02*
X174491380Y-53252295D01*
X174491380Y-53252295D02*
X174224714Y-53557057D01*
X174224714Y-53557057D02*
X174338999Y-53557057D01*
X174338999Y-53557057D02*
X174415190Y-53595152D01*
X174415190Y-53595152D02*
X174453285Y-53633247D01*
X174453285Y-53633247D02*
X174491380Y-53709438D01*
X174491380Y-53709438D02*
X174491380Y-53899914D01*
X174491380Y-53899914D02*
X174453285Y-53976104D01*
X174453285Y-53976104D02*
X174415190Y-54014200D01*
X174415190Y-54014200D02*
X174338999Y-54052295D01*
X174338999Y-54052295D02*
X174110428Y-54052295D01*
X174110428Y-54052295D02*
X174034237Y-54014200D01*
X174034237Y-54014200D02*
X173996142Y-53976104D01*
X175253285Y-54052295D02*
X174796142Y-54052295D01*
X175024714Y-54052295D02*
X175024714Y-53252295D01*
X175024714Y-53252295D02*
X174948523Y-53366580D01*
X174948523Y-53366580D02*
X174872333Y-53442771D01*
X174872333Y-53442771D02*
X174796142Y-53480866D01*
X184537190Y-53262295D02*
X184613380Y-53262295D01*
X184613380Y-53262295D02*
X184689571Y-53300390D01*
X184689571Y-53300390D02*
X184727666Y-53338485D01*
X184727666Y-53338485D02*
X184765761Y-53414676D01*
X184765761Y-53414676D02*
X184803856Y-53567057D01*
X184803856Y-53567057D02*
X184803856Y-53757533D01*
X184803856Y-53757533D02*
X184765761Y-53909914D01*
X184765761Y-53909914D02*
X184727666Y-53986104D01*
X184727666Y-53986104D02*
X184689571Y-54024200D01*
X184689571Y-54024200D02*
X184613380Y-54062295D01*
X184613380Y-54062295D02*
X184537190Y-54062295D01*
X184537190Y-54062295D02*
X184460999Y-54024200D01*
X184460999Y-54024200D02*
X184422904Y-53986104D01*
X184422904Y-53986104D02*
X184384809Y-53909914D01*
X184384809Y-53909914D02*
X184346713Y-53757533D01*
X184346713Y-53757533D02*
X184346713Y-53567057D01*
X184346713Y-53567057D02*
X184384809Y-53414676D01*
X184384809Y-53414676D02*
X184422904Y-53338485D01*
X184422904Y-53338485D02*
X184460999Y-53300390D01*
X184460999Y-53300390D02*
X184537190Y-53262295D01*
X185565761Y-54062295D02*
X185108618Y-54062295D01*
X185337190Y-54062295D02*
X185337190Y-53262295D01*
X185337190Y-53262295D02*
X185260999Y-53376580D01*
X185260999Y-53376580D02*
X185184809Y-53452771D01*
X185184809Y-53452771D02*
X185108618Y-53490866D01*
X185832428Y-53262295D02*
X186365762Y-53262295D01*
X186365762Y-53262295D02*
X186022904Y-54062295D01*
X173735809Y-45670390D02*
X173659619Y-45632295D01*
X173659619Y-45632295D02*
X173545333Y-45632295D01*
X173545333Y-45632295D02*
X173431047Y-45670390D01*
X173431047Y-45670390D02*
X173354857Y-45746580D01*
X173354857Y-45746580D02*
X173316762Y-45822771D01*
X173316762Y-45822771D02*
X173278666Y-45975152D01*
X173278666Y-45975152D02*
X173278666Y-46089438D01*
X173278666Y-46089438D02*
X173316762Y-46241819D01*
X173316762Y-46241819D02*
X173354857Y-46318009D01*
X173354857Y-46318009D02*
X173431047Y-46394200D01*
X173431047Y-46394200D02*
X173545333Y-46432295D01*
X173545333Y-46432295D02*
X173621524Y-46432295D01*
X173621524Y-46432295D02*
X173735809Y-46394200D01*
X173735809Y-46394200D02*
X173773905Y-46356104D01*
X173773905Y-46356104D02*
X173773905Y-46089438D01*
X173773905Y-46089438D02*
X173621524Y-46089438D01*
X174116762Y-46432295D02*
X174116762Y-45632295D01*
X174116762Y-45632295D02*
X174573905Y-46432295D01*
X174573905Y-46432295D02*
X174573905Y-45632295D01*
X174954857Y-46432295D02*
X174954857Y-45632295D01*
X174954857Y-45632295D02*
X175145333Y-45632295D01*
X175145333Y-45632295D02*
X175259619Y-45670390D01*
X175259619Y-45670390D02*
X175335809Y-45746580D01*
X175335809Y-45746580D02*
X175373904Y-45822771D01*
X175373904Y-45822771D02*
X175412000Y-45975152D01*
X175412000Y-45975152D02*
X175412000Y-46089438D01*
X175412000Y-46089438D02*
X175373904Y-46241819D01*
X175373904Y-46241819D02*
X175335809Y-46318009D01*
X175335809Y-46318009D02*
X175259619Y-46394200D01*
X175259619Y-46394200D02*
X175145333Y-46432295D01*
X175145333Y-46432295D02*
X174954857Y-46432295D01*
X173196142Y-50712295D02*
X173462809Y-51512295D01*
X173462809Y-51512295D02*
X173729475Y-50712295D01*
X174453285Y-51436104D02*
X174415189Y-51474200D01*
X174415189Y-51474200D02*
X174300904Y-51512295D01*
X174300904Y-51512295D02*
X174224713Y-51512295D01*
X174224713Y-51512295D02*
X174110427Y-51474200D01*
X174110427Y-51474200D02*
X174034237Y-51398009D01*
X174034237Y-51398009D02*
X173996142Y-51321819D01*
X173996142Y-51321819D02*
X173958046Y-51169438D01*
X173958046Y-51169438D02*
X173958046Y-51055152D01*
X173958046Y-51055152D02*
X173996142Y-50902771D01*
X173996142Y-50902771D02*
X174034237Y-50826580D01*
X174034237Y-50826580D02*
X174110427Y-50750390D01*
X174110427Y-50750390D02*
X174224713Y-50712295D01*
X174224713Y-50712295D02*
X174300904Y-50712295D01*
X174300904Y-50712295D02*
X174415189Y-50750390D01*
X174415189Y-50750390D02*
X174453285Y-50788485D01*
X175253285Y-51436104D02*
X175215189Y-51474200D01*
X175215189Y-51474200D02*
X175100904Y-51512295D01*
X175100904Y-51512295D02*
X175024713Y-51512295D01*
X175024713Y-51512295D02*
X174910427Y-51474200D01*
X174910427Y-51474200D02*
X174834237Y-51398009D01*
X174834237Y-51398009D02*
X174796142Y-51321819D01*
X174796142Y-51321819D02*
X174758046Y-51169438D01*
X174758046Y-51169438D02*
X174758046Y-51055152D01*
X174758046Y-51055152D02*
X174796142Y-50902771D01*
X174796142Y-50902771D02*
X174834237Y-50826580D01*
X174834237Y-50826580D02*
X174910427Y-50750390D01*
X174910427Y-50750390D02*
X175024713Y-50712295D01*
X175024713Y-50712295D02*
X175100904Y-50712295D01*
X175100904Y-50712295D02*
X175215189Y-50750390D01*
X175215189Y-50750390D02*
X175253285Y-50788485D01*
X184537190Y-58362295D02*
X184613380Y-58362295D01*
X184613380Y-58362295D02*
X184689571Y-58400390D01*
X184689571Y-58400390D02*
X184727666Y-58438485D01*
X184727666Y-58438485D02*
X184765761Y-58514676D01*
X184765761Y-58514676D02*
X184803856Y-58667057D01*
X184803856Y-58667057D02*
X184803856Y-58857533D01*
X184803856Y-58857533D02*
X184765761Y-59009914D01*
X184765761Y-59009914D02*
X184727666Y-59086104D01*
X184727666Y-59086104D02*
X184689571Y-59124200D01*
X184689571Y-59124200D02*
X184613380Y-59162295D01*
X184613380Y-59162295D02*
X184537190Y-59162295D01*
X184537190Y-59162295D02*
X184460999Y-59124200D01*
X184460999Y-59124200D02*
X184422904Y-59086104D01*
X184422904Y-59086104D02*
X184384809Y-59009914D01*
X184384809Y-59009914D02*
X184346713Y-58857533D01*
X184346713Y-58857533D02*
X184346713Y-58667057D01*
X184346713Y-58667057D02*
X184384809Y-58514676D01*
X184384809Y-58514676D02*
X184422904Y-58438485D01*
X184422904Y-58438485D02*
X184460999Y-58400390D01*
X184460999Y-58400390D02*
X184537190Y-58362295D01*
X185108618Y-58438485D02*
X185146714Y-58400390D01*
X185146714Y-58400390D02*
X185222904Y-58362295D01*
X185222904Y-58362295D02*
X185413380Y-58362295D01*
X185413380Y-58362295D02*
X185489571Y-58400390D01*
X185489571Y-58400390D02*
X185527666Y-58438485D01*
X185527666Y-58438485D02*
X185565761Y-58514676D01*
X185565761Y-58514676D02*
X185565761Y-58590866D01*
X185565761Y-58590866D02*
X185527666Y-58705152D01*
X185527666Y-58705152D02*
X185070523Y-59162295D01*
X185070523Y-59162295D02*
X185565761Y-59162295D01*
X185870523Y-58438485D02*
X185908619Y-58400390D01*
X185908619Y-58400390D02*
X185984809Y-58362295D01*
X185984809Y-58362295D02*
X186175285Y-58362295D01*
X186175285Y-58362295D02*
X186251476Y-58400390D01*
X186251476Y-58400390D02*
X186289571Y-58438485D01*
X186289571Y-58438485D02*
X186327666Y-58514676D01*
X186327666Y-58514676D02*
X186327666Y-58590866D01*
X186327666Y-58590866D02*
X186289571Y-58705152D01*
X186289571Y-58705152D02*
X185832428Y-59162295D01*
X185832428Y-59162295D02*
X186327666Y-59162295D01*
X173773905Y-48972295D02*
X173507238Y-48591342D01*
X173316762Y-48972295D02*
X173316762Y-48172295D01*
X173316762Y-48172295D02*
X173621524Y-48172295D01*
X173621524Y-48172295D02*
X173697714Y-48210390D01*
X173697714Y-48210390D02*
X173735809Y-48248485D01*
X173735809Y-48248485D02*
X173773905Y-48324676D01*
X173773905Y-48324676D02*
X173773905Y-48438961D01*
X173773905Y-48438961D02*
X173735809Y-48515152D01*
X173735809Y-48515152D02*
X173697714Y-48553247D01*
X173697714Y-48553247D02*
X173621524Y-48591342D01*
X173621524Y-48591342D02*
X173316762Y-48591342D01*
X174078666Y-48934200D02*
X174192952Y-48972295D01*
X174192952Y-48972295D02*
X174383428Y-48972295D01*
X174383428Y-48972295D02*
X174459619Y-48934200D01*
X174459619Y-48934200D02*
X174497714Y-48896104D01*
X174497714Y-48896104D02*
X174535809Y-48819914D01*
X174535809Y-48819914D02*
X174535809Y-48743723D01*
X174535809Y-48743723D02*
X174497714Y-48667533D01*
X174497714Y-48667533D02*
X174459619Y-48629438D01*
X174459619Y-48629438D02*
X174383428Y-48591342D01*
X174383428Y-48591342D02*
X174231047Y-48553247D01*
X174231047Y-48553247D02*
X174154857Y-48515152D01*
X174154857Y-48515152D02*
X174116762Y-48477057D01*
X174116762Y-48477057D02*
X174078666Y-48400866D01*
X174078666Y-48400866D02*
X174078666Y-48324676D01*
X174078666Y-48324676D02*
X174116762Y-48248485D01*
X174116762Y-48248485D02*
X174154857Y-48210390D01*
X174154857Y-48210390D02*
X174231047Y-48172295D01*
X174231047Y-48172295D02*
X174421524Y-48172295D01*
X174421524Y-48172295D02*
X174535809Y-48210390D01*
X174764381Y-48172295D02*
X175221524Y-48172295D01*
X174992952Y-48972295D02*
X174992952Y-48172295D01*
X173729475Y-61672295D02*
X173272332Y-61672295D01*
X173500904Y-61672295D02*
X173500904Y-60872295D01*
X173500904Y-60872295D02*
X173424713Y-60986580D01*
X173424713Y-60986580D02*
X173348523Y-61062771D01*
X173348523Y-61062771D02*
X173272332Y-61100866D01*
X174491380Y-61672295D02*
X174034237Y-61672295D01*
X174262809Y-61672295D02*
X174262809Y-60872295D01*
X174262809Y-60872295D02*
X174186618Y-60986580D01*
X174186618Y-60986580D02*
X174110428Y-61062771D01*
X174110428Y-61062771D02*
X174034237Y-61100866D01*
X175215190Y-60872295D02*
X174834238Y-60872295D01*
X174834238Y-60872295D02*
X174796142Y-61253247D01*
X174796142Y-61253247D02*
X174834238Y-61215152D01*
X174834238Y-61215152D02*
X174910428Y-61177057D01*
X174910428Y-61177057D02*
X175100904Y-61177057D01*
X175100904Y-61177057D02*
X175177095Y-61215152D01*
X175177095Y-61215152D02*
X175215190Y-61253247D01*
X175215190Y-61253247D02*
X175253285Y-61329438D01*
X175253285Y-61329438D02*
X175253285Y-61519914D01*
X175253285Y-61519914D02*
X175215190Y-61596104D01*
X175215190Y-61596104D02*
X175177095Y-61634200D01*
X175177095Y-61634200D02*
X175100904Y-61672295D01*
X175100904Y-61672295D02*
X174910428Y-61672295D01*
X174910428Y-61672295D02*
X174834238Y-61634200D01*
X174834238Y-61634200D02*
X174796142Y-61596104D01*
D11*
X174510285Y-70640328D02*
X174510285Y-71640328D01*
X174510285Y-70783185D02*
X174581714Y-70711757D01*
X174581714Y-70711757D02*
X174724571Y-70640328D01*
X174724571Y-70640328D02*
X174938857Y-70640328D01*
X174938857Y-70640328D02*
X175081714Y-70711757D01*
X175081714Y-70711757D02*
X175153143Y-70854614D01*
X175153143Y-70854614D02*
X175153143Y-71640328D01*
X175867428Y-71640328D02*
X175867428Y-70640328D01*
X175867428Y-70140328D02*
X175796000Y-70211757D01*
X175796000Y-70211757D02*
X175867428Y-70283185D01*
X175867428Y-70283185D02*
X175938857Y-70211757D01*
X175938857Y-70211757D02*
X175867428Y-70140328D01*
X175867428Y-70140328D02*
X175867428Y-70283185D01*
X177224572Y-71568900D02*
X177081714Y-71640328D01*
X177081714Y-71640328D02*
X176796000Y-71640328D01*
X176796000Y-71640328D02*
X176653143Y-71568900D01*
X176653143Y-71568900D02*
X176581714Y-71497471D01*
X176581714Y-71497471D02*
X176510286Y-71354614D01*
X176510286Y-71354614D02*
X176510286Y-70926042D01*
X176510286Y-70926042D02*
X176581714Y-70783185D01*
X176581714Y-70783185D02*
X176653143Y-70711757D01*
X176653143Y-70711757D02*
X176796000Y-70640328D01*
X176796000Y-70640328D02*
X177081714Y-70640328D01*
X177081714Y-70640328D02*
X177224572Y-70711757D01*
X178438857Y-71568900D02*
X178296000Y-71640328D01*
X178296000Y-71640328D02*
X178010286Y-71640328D01*
X178010286Y-71640328D02*
X177867428Y-71568900D01*
X177867428Y-71568900D02*
X177796000Y-71426042D01*
X177796000Y-71426042D02*
X177796000Y-70854614D01*
X177796000Y-70854614D02*
X177867428Y-70711757D01*
X177867428Y-70711757D02*
X178010286Y-70640328D01*
X178010286Y-70640328D02*
X178296000Y-70640328D01*
X178296000Y-70640328D02*
X178438857Y-70711757D01*
X178438857Y-70711757D02*
X178510286Y-70854614D01*
X178510286Y-70854614D02*
X178510286Y-70997471D01*
X178510286Y-70997471D02*
X177796000Y-71140328D01*
X179153142Y-71497471D02*
X179224571Y-71568900D01*
X179224571Y-71568900D02*
X179153142Y-71640328D01*
X179153142Y-71640328D02*
X179081714Y-71568900D01*
X179081714Y-71568900D02*
X179153142Y-71497471D01*
X179153142Y-71497471D02*
X179153142Y-71640328D01*
X179153142Y-71068900D02*
X179081714Y-70211757D01*
X179081714Y-70211757D02*
X179153142Y-70140328D01*
X179153142Y-70140328D02*
X179224571Y-70211757D01*
X179224571Y-70211757D02*
X179153142Y-71068900D01*
X179153142Y-71068900D02*
X179153142Y-70140328D01*
X179867428Y-70640328D02*
X179867428Y-71640328D01*
X179867428Y-70783185D02*
X179938857Y-70711757D01*
X179938857Y-70711757D02*
X180081714Y-70640328D01*
X180081714Y-70640328D02*
X180296000Y-70640328D01*
X180296000Y-70640328D02*
X180438857Y-70711757D01*
X180438857Y-70711757D02*
X180510286Y-70854614D01*
X180510286Y-70854614D02*
X180510286Y-71640328D01*
X181867429Y-71640328D02*
X181867429Y-70854614D01*
X181867429Y-70854614D02*
X181796000Y-70711757D01*
X181796000Y-70711757D02*
X181653143Y-70640328D01*
X181653143Y-70640328D02*
X181367429Y-70640328D01*
X181367429Y-70640328D02*
X181224571Y-70711757D01*
X181867429Y-71568900D02*
X181724571Y-71640328D01*
X181724571Y-71640328D02*
X181367429Y-71640328D01*
X181367429Y-71640328D02*
X181224571Y-71568900D01*
X181224571Y-71568900D02*
X181153143Y-71426042D01*
X181153143Y-71426042D02*
X181153143Y-71283185D01*
X181153143Y-71283185D02*
X181224571Y-71140328D01*
X181224571Y-71140328D02*
X181367429Y-71068900D01*
X181367429Y-71068900D02*
X181724571Y-71068900D01*
X181724571Y-71068900D02*
X181867429Y-70997471D01*
X182581714Y-70640328D02*
X182581714Y-71640328D01*
X182581714Y-70783185D02*
X182653143Y-70711757D01*
X182653143Y-70711757D02*
X182796000Y-70640328D01*
X182796000Y-70640328D02*
X183010286Y-70640328D01*
X183010286Y-70640328D02*
X183153143Y-70711757D01*
X183153143Y-70711757D02*
X183224572Y-70854614D01*
X183224572Y-70854614D02*
X183224572Y-71640328D01*
X184153143Y-71640328D02*
X184010286Y-71568900D01*
X184010286Y-71568900D02*
X183938857Y-71497471D01*
X183938857Y-71497471D02*
X183867429Y-71354614D01*
X183867429Y-71354614D02*
X183867429Y-70926042D01*
X183867429Y-70926042D02*
X183938857Y-70783185D01*
X183938857Y-70783185D02*
X184010286Y-70711757D01*
X184010286Y-70711757D02*
X184153143Y-70640328D01*
X184153143Y-70640328D02*
X184367429Y-70640328D01*
X184367429Y-70640328D02*
X184510286Y-70711757D01*
X184510286Y-70711757D02*
X184581715Y-70783185D01*
X184581715Y-70783185D02*
X184653143Y-70926042D01*
X184653143Y-70926042D02*
X184653143Y-71354614D01*
X184653143Y-71354614D02*
X184581715Y-71497471D01*
X184581715Y-71497471D02*
X184510286Y-71568900D01*
X184510286Y-71568900D02*
X184367429Y-71640328D01*
X184367429Y-71640328D02*
X184153143Y-71640328D01*
D12*
X173462809Y-68492295D02*
X173538999Y-68492295D01*
X173538999Y-68492295D02*
X173615190Y-68530390D01*
X173615190Y-68530390D02*
X173653285Y-68568485D01*
X173653285Y-68568485D02*
X173691380Y-68644676D01*
X173691380Y-68644676D02*
X173729475Y-68797057D01*
X173729475Y-68797057D02*
X173729475Y-68987533D01*
X173729475Y-68987533D02*
X173691380Y-69139914D01*
X173691380Y-69139914D02*
X173653285Y-69216104D01*
X173653285Y-69216104D02*
X173615190Y-69254200D01*
X173615190Y-69254200D02*
X173538999Y-69292295D01*
X173538999Y-69292295D02*
X173462809Y-69292295D01*
X173462809Y-69292295D02*
X173386618Y-69254200D01*
X173386618Y-69254200D02*
X173348523Y-69216104D01*
X173348523Y-69216104D02*
X173310428Y-69139914D01*
X173310428Y-69139914D02*
X173272332Y-68987533D01*
X173272332Y-68987533D02*
X173272332Y-68797057D01*
X173272332Y-68797057D02*
X173310428Y-68644676D01*
X173310428Y-68644676D02*
X173348523Y-68568485D01*
X173348523Y-68568485D02*
X173386618Y-68530390D01*
X173386618Y-68530390D02*
X173462809Y-68492295D01*
X174491380Y-69292295D02*
X174034237Y-69292295D01*
X174262809Y-69292295D02*
X174262809Y-68492295D01*
X174262809Y-68492295D02*
X174186618Y-68606580D01*
X174186618Y-68606580D02*
X174110428Y-68682771D01*
X174110428Y-68682771D02*
X174034237Y-68720866D01*
X174986619Y-68492295D02*
X175062809Y-68492295D01*
X175062809Y-68492295D02*
X175139000Y-68530390D01*
X175139000Y-68530390D02*
X175177095Y-68568485D01*
X175177095Y-68568485D02*
X175215190Y-68644676D01*
X175215190Y-68644676D02*
X175253285Y-68797057D01*
X175253285Y-68797057D02*
X175253285Y-68987533D01*
X175253285Y-68987533D02*
X175215190Y-69139914D01*
X175215190Y-69139914D02*
X175177095Y-69216104D01*
X175177095Y-69216104D02*
X175139000Y-69254200D01*
X175139000Y-69254200D02*
X175062809Y-69292295D01*
X175062809Y-69292295D02*
X174986619Y-69292295D01*
X174986619Y-69292295D02*
X174910428Y-69254200D01*
X174910428Y-69254200D02*
X174872333Y-69216104D01*
X174872333Y-69216104D02*
X174834238Y-69139914D01*
X174834238Y-69139914D02*
X174796142Y-68987533D01*
X174796142Y-68987533D02*
X174796142Y-68797057D01*
X174796142Y-68797057D02*
X174834238Y-68644676D01*
X174834238Y-68644676D02*
X174872333Y-68568485D01*
X174872333Y-68568485D02*
X174910428Y-68530390D01*
X174910428Y-68530390D02*
X174986619Y-68492295D01*
X184651476Y-48210390D02*
X184575286Y-48172295D01*
X184575286Y-48172295D02*
X184461000Y-48172295D01*
X184461000Y-48172295D02*
X184346714Y-48210390D01*
X184346714Y-48210390D02*
X184270524Y-48286580D01*
X184270524Y-48286580D02*
X184232429Y-48362771D01*
X184232429Y-48362771D02*
X184194333Y-48515152D01*
X184194333Y-48515152D02*
X184194333Y-48629438D01*
X184194333Y-48629438D02*
X184232429Y-48781819D01*
X184232429Y-48781819D02*
X184270524Y-48858009D01*
X184270524Y-48858009D02*
X184346714Y-48934200D01*
X184346714Y-48934200D02*
X184461000Y-48972295D01*
X184461000Y-48972295D02*
X184537191Y-48972295D01*
X184537191Y-48972295D02*
X184651476Y-48934200D01*
X184651476Y-48934200D02*
X184689572Y-48896104D01*
X184689572Y-48896104D02*
X184689572Y-48629438D01*
X184689572Y-48629438D02*
X184537191Y-48629438D01*
X185032429Y-48972295D02*
X185032429Y-48172295D01*
X185032429Y-48172295D02*
X185489572Y-48972295D01*
X185489572Y-48972295D02*
X185489572Y-48172295D01*
X185870524Y-48972295D02*
X185870524Y-48172295D01*
X185870524Y-48172295D02*
X186061000Y-48172295D01*
X186061000Y-48172295D02*
X186175286Y-48210390D01*
X186175286Y-48210390D02*
X186251476Y-48286580D01*
X186251476Y-48286580D02*
X186289571Y-48362771D01*
X186289571Y-48362771D02*
X186327667Y-48515152D01*
X186327667Y-48515152D02*
X186327667Y-48629438D01*
X186327667Y-48629438D02*
X186289571Y-48781819D01*
X186289571Y-48781819D02*
X186251476Y-48858009D01*
X186251476Y-48858009D02*
X186175286Y-48934200D01*
X186175286Y-48934200D02*
X186061000Y-48972295D01*
X186061000Y-48972295D02*
X185870524Y-48972295D01*
X184651476Y-50750390D02*
X184575286Y-50712295D01*
X184575286Y-50712295D02*
X184461000Y-50712295D01*
X184461000Y-50712295D02*
X184346714Y-50750390D01*
X184346714Y-50750390D02*
X184270524Y-50826580D01*
X184270524Y-50826580D02*
X184232429Y-50902771D01*
X184232429Y-50902771D02*
X184194333Y-51055152D01*
X184194333Y-51055152D02*
X184194333Y-51169438D01*
X184194333Y-51169438D02*
X184232429Y-51321819D01*
X184232429Y-51321819D02*
X184270524Y-51398009D01*
X184270524Y-51398009D02*
X184346714Y-51474200D01*
X184346714Y-51474200D02*
X184461000Y-51512295D01*
X184461000Y-51512295D02*
X184537191Y-51512295D01*
X184537191Y-51512295D02*
X184651476Y-51474200D01*
X184651476Y-51474200D02*
X184689572Y-51436104D01*
X184689572Y-51436104D02*
X184689572Y-51169438D01*
X184689572Y-51169438D02*
X184537191Y-51169438D01*
X185032429Y-51512295D02*
X185032429Y-50712295D01*
X185032429Y-50712295D02*
X185489572Y-51512295D01*
X185489572Y-51512295D02*
X185489572Y-50712295D01*
X185870524Y-51512295D02*
X185870524Y-50712295D01*
X185870524Y-50712295D02*
X186061000Y-50712295D01*
X186061000Y-50712295D02*
X186175286Y-50750390D01*
X186175286Y-50750390D02*
X186251476Y-50826580D01*
X186251476Y-50826580D02*
X186289571Y-50902771D01*
X186289571Y-50902771D02*
X186327667Y-51055152D01*
X186327667Y-51055152D02*
X186327667Y-51169438D01*
X186327667Y-51169438D02*
X186289571Y-51321819D01*
X186289571Y-51321819D02*
X186251476Y-51398009D01*
X186251476Y-51398009D02*
X186175286Y-51474200D01*
X186175286Y-51474200D02*
X186061000Y-51512295D01*
X186061000Y-51512295D02*
X185870524Y-51512295D01*
X184803856Y-64212295D02*
X184346713Y-64212295D01*
X184575285Y-64212295D02*
X184575285Y-63412295D01*
X184575285Y-63412295D02*
X184499094Y-63526580D01*
X184499094Y-63526580D02*
X184422904Y-63602771D01*
X184422904Y-63602771D02*
X184346713Y-63640866D01*
X185299095Y-63412295D02*
X185375285Y-63412295D01*
X185375285Y-63412295D02*
X185451476Y-63450390D01*
X185451476Y-63450390D02*
X185489571Y-63488485D01*
X185489571Y-63488485D02*
X185527666Y-63564676D01*
X185527666Y-63564676D02*
X185565761Y-63717057D01*
X185565761Y-63717057D02*
X185565761Y-63907533D01*
X185565761Y-63907533D02*
X185527666Y-64059914D01*
X185527666Y-64059914D02*
X185489571Y-64136104D01*
X185489571Y-64136104D02*
X185451476Y-64174200D01*
X185451476Y-64174200D02*
X185375285Y-64212295D01*
X185375285Y-64212295D02*
X185299095Y-64212295D01*
X185299095Y-64212295D02*
X185222904Y-64174200D01*
X185222904Y-64174200D02*
X185184809Y-64136104D01*
X185184809Y-64136104D02*
X185146714Y-64059914D01*
X185146714Y-64059914D02*
X185108618Y-63907533D01*
X185108618Y-63907533D02*
X185108618Y-63717057D01*
X185108618Y-63717057D02*
X185146714Y-63564676D01*
X185146714Y-63564676D02*
X185184809Y-63488485D01*
X185184809Y-63488485D02*
X185222904Y-63450390D01*
X185222904Y-63450390D02*
X185299095Y-63412295D01*
X186061000Y-63412295D02*
X186137190Y-63412295D01*
X186137190Y-63412295D02*
X186213381Y-63450390D01*
X186213381Y-63450390D02*
X186251476Y-63488485D01*
X186251476Y-63488485D02*
X186289571Y-63564676D01*
X186289571Y-63564676D02*
X186327666Y-63717057D01*
X186327666Y-63717057D02*
X186327666Y-63907533D01*
X186327666Y-63907533D02*
X186289571Y-64059914D01*
X186289571Y-64059914D02*
X186251476Y-64136104D01*
X186251476Y-64136104D02*
X186213381Y-64174200D01*
X186213381Y-64174200D02*
X186137190Y-64212295D01*
X186137190Y-64212295D02*
X186061000Y-64212295D01*
X186061000Y-64212295D02*
X185984809Y-64174200D01*
X185984809Y-64174200D02*
X185946714Y-64136104D01*
X185946714Y-64136104D02*
X185908619Y-64059914D01*
X185908619Y-64059914D02*
X185870523Y-63907533D01*
X185870523Y-63907533D02*
X185870523Y-63717057D01*
X185870523Y-63717057D02*
X185908619Y-63564676D01*
X185908619Y-63564676D02*
X185946714Y-63488485D01*
X185946714Y-63488485D02*
X185984809Y-63450390D01*
X185984809Y-63450390D02*
X186061000Y-63412295D01*
X173729475Y-66752295D02*
X173272332Y-66752295D01*
X173500904Y-66752295D02*
X173500904Y-65952295D01*
X173500904Y-65952295D02*
X173424713Y-66066580D01*
X173424713Y-66066580D02*
X173348523Y-66142771D01*
X173348523Y-66142771D02*
X173272332Y-66180866D01*
X174491380Y-66752295D02*
X174034237Y-66752295D01*
X174262809Y-66752295D02*
X174262809Y-65952295D01*
X174262809Y-65952295D02*
X174186618Y-66066580D01*
X174186618Y-66066580D02*
X174110428Y-66142771D01*
X174110428Y-66142771D02*
X174034237Y-66180866D01*
X175253285Y-66752295D02*
X174796142Y-66752295D01*
X175024714Y-66752295D02*
X175024714Y-65952295D01*
X175024714Y-65952295D02*
X174948523Y-66066580D01*
X174948523Y-66066580D02*
X174872333Y-66142771D01*
X174872333Y-66142771D02*
X174796142Y-66180866D01*
X184537190Y-43092295D02*
X184613380Y-43092295D01*
X184613380Y-43092295D02*
X184689571Y-43130390D01*
X184689571Y-43130390D02*
X184727666Y-43168485D01*
X184727666Y-43168485D02*
X184765761Y-43244676D01*
X184765761Y-43244676D02*
X184803856Y-43397057D01*
X184803856Y-43397057D02*
X184803856Y-43587533D01*
X184803856Y-43587533D02*
X184765761Y-43739914D01*
X184765761Y-43739914D02*
X184727666Y-43816104D01*
X184727666Y-43816104D02*
X184689571Y-43854200D01*
X184689571Y-43854200D02*
X184613380Y-43892295D01*
X184613380Y-43892295D02*
X184537190Y-43892295D01*
X184537190Y-43892295D02*
X184460999Y-43854200D01*
X184460999Y-43854200D02*
X184422904Y-43816104D01*
X184422904Y-43816104D02*
X184384809Y-43739914D01*
X184384809Y-43739914D02*
X184346713Y-43587533D01*
X184346713Y-43587533D02*
X184346713Y-43397057D01*
X184346713Y-43397057D02*
X184384809Y-43244676D01*
X184384809Y-43244676D02*
X184422904Y-43168485D01*
X184422904Y-43168485D02*
X184460999Y-43130390D01*
X184460999Y-43130390D02*
X184537190Y-43092295D01*
X185299095Y-43092295D02*
X185375285Y-43092295D01*
X185375285Y-43092295D02*
X185451476Y-43130390D01*
X185451476Y-43130390D02*
X185489571Y-43168485D01*
X185489571Y-43168485D02*
X185527666Y-43244676D01*
X185527666Y-43244676D02*
X185565761Y-43397057D01*
X185565761Y-43397057D02*
X185565761Y-43587533D01*
X185565761Y-43587533D02*
X185527666Y-43739914D01*
X185527666Y-43739914D02*
X185489571Y-43816104D01*
X185489571Y-43816104D02*
X185451476Y-43854200D01*
X185451476Y-43854200D02*
X185375285Y-43892295D01*
X185375285Y-43892295D02*
X185299095Y-43892295D01*
X185299095Y-43892295D02*
X185222904Y-43854200D01*
X185222904Y-43854200D02*
X185184809Y-43816104D01*
X185184809Y-43816104D02*
X185146714Y-43739914D01*
X185146714Y-43739914D02*
X185108618Y-43587533D01*
X185108618Y-43587533D02*
X185108618Y-43397057D01*
X185108618Y-43397057D02*
X185146714Y-43244676D01*
X185146714Y-43244676D02*
X185184809Y-43168485D01*
X185184809Y-43168485D02*
X185222904Y-43130390D01*
X185222904Y-43130390D02*
X185299095Y-43092295D01*
X186251476Y-43092295D02*
X186099095Y-43092295D01*
X186099095Y-43092295D02*
X186022904Y-43130390D01*
X186022904Y-43130390D02*
X185984809Y-43168485D01*
X185984809Y-43168485D02*
X185908619Y-43282771D01*
X185908619Y-43282771D02*
X185870523Y-43435152D01*
X185870523Y-43435152D02*
X185870523Y-43739914D01*
X185870523Y-43739914D02*
X185908619Y-43816104D01*
X185908619Y-43816104D02*
X185946714Y-43854200D01*
X185946714Y-43854200D02*
X186022904Y-43892295D01*
X186022904Y-43892295D02*
X186175285Y-43892295D01*
X186175285Y-43892295D02*
X186251476Y-43854200D01*
X186251476Y-43854200D02*
X186289571Y-43816104D01*
X186289571Y-43816104D02*
X186327666Y-43739914D01*
X186327666Y-43739914D02*
X186327666Y-43549438D01*
X186327666Y-43549438D02*
X186289571Y-43473247D01*
X186289571Y-43473247D02*
X186251476Y-43435152D01*
X186251476Y-43435152D02*
X186175285Y-43397057D01*
X186175285Y-43397057D02*
X186022904Y-43397057D01*
X186022904Y-43397057D02*
X185946714Y-43435152D01*
X185946714Y-43435152D02*
X185908619Y-43473247D01*
X185908619Y-43473247D02*
X185870523Y-43549438D01*
X173729475Y-64212295D02*
X173272332Y-64212295D01*
X173500904Y-64212295D02*
X173500904Y-63412295D01*
X173500904Y-63412295D02*
X173424713Y-63526580D01*
X173424713Y-63526580D02*
X173348523Y-63602771D01*
X173348523Y-63602771D02*
X173272332Y-63640866D01*
X174491380Y-64212295D02*
X174034237Y-64212295D01*
X174262809Y-64212295D02*
X174262809Y-63412295D01*
X174262809Y-63412295D02*
X174186618Y-63526580D01*
X174186618Y-63526580D02*
X174110428Y-63602771D01*
X174110428Y-63602771D02*
X174034237Y-63640866D01*
X174758047Y-63412295D02*
X175253285Y-63412295D01*
X175253285Y-63412295D02*
X174986619Y-63717057D01*
X174986619Y-63717057D02*
X175100904Y-63717057D01*
X175100904Y-63717057D02*
X175177095Y-63755152D01*
X175177095Y-63755152D02*
X175215190Y-63793247D01*
X175215190Y-63793247D02*
X175253285Y-63869438D01*
X175253285Y-63869438D02*
X175253285Y-64059914D01*
X175253285Y-64059914D02*
X175215190Y-64136104D01*
X175215190Y-64136104D02*
X175177095Y-64174200D01*
X175177095Y-64174200D02*
X175100904Y-64212295D01*
X175100904Y-64212295D02*
X174872333Y-64212295D01*
X174872333Y-64212295D02*
X174796142Y-64174200D01*
X174796142Y-64174200D02*
X174758047Y-64136104D01*
X173773904Y-43892295D02*
X173507237Y-43511342D01*
X173316761Y-43892295D02*
X173316761Y-43092295D01*
X173316761Y-43092295D02*
X173621523Y-43092295D01*
X173621523Y-43092295D02*
X173697713Y-43130390D01*
X173697713Y-43130390D02*
X173735808Y-43168485D01*
X173735808Y-43168485D02*
X173773904Y-43244676D01*
X173773904Y-43244676D02*
X173773904Y-43358961D01*
X173773904Y-43358961D02*
X173735808Y-43435152D01*
X173735808Y-43435152D02*
X173697713Y-43473247D01*
X173697713Y-43473247D02*
X173621523Y-43511342D01*
X173621523Y-43511342D02*
X173316761Y-43511342D01*
X174078665Y-43663723D02*
X174459618Y-43663723D01*
X174002475Y-43892295D02*
X174269142Y-43092295D01*
X174269142Y-43092295D02*
X174535808Y-43892295D01*
X174726284Y-43092295D02*
X174916760Y-43892295D01*
X174916760Y-43892295D02*
X175069141Y-43320866D01*
X175069141Y-43320866D02*
X175221522Y-43892295D01*
X175221522Y-43892295D02*
X175411999Y-43092295D01*
X173462809Y-55792295D02*
X173538999Y-55792295D01*
X173538999Y-55792295D02*
X173615190Y-55830390D01*
X173615190Y-55830390D02*
X173653285Y-55868485D01*
X173653285Y-55868485D02*
X173691380Y-55944676D01*
X173691380Y-55944676D02*
X173729475Y-56097057D01*
X173729475Y-56097057D02*
X173729475Y-56287533D01*
X173729475Y-56287533D02*
X173691380Y-56439914D01*
X173691380Y-56439914D02*
X173653285Y-56516104D01*
X173653285Y-56516104D02*
X173615190Y-56554200D01*
X173615190Y-56554200D02*
X173538999Y-56592295D01*
X173538999Y-56592295D02*
X173462809Y-56592295D01*
X173462809Y-56592295D02*
X173386618Y-56554200D01*
X173386618Y-56554200D02*
X173348523Y-56516104D01*
X173348523Y-56516104D02*
X173310428Y-56439914D01*
X173310428Y-56439914D02*
X173272332Y-56287533D01*
X173272332Y-56287533D02*
X173272332Y-56097057D01*
X173272332Y-56097057D02*
X173310428Y-55944676D01*
X173310428Y-55944676D02*
X173348523Y-55868485D01*
X173348523Y-55868485D02*
X173386618Y-55830390D01*
X173386618Y-55830390D02*
X173462809Y-55792295D01*
X174034237Y-55868485D02*
X174072333Y-55830390D01*
X174072333Y-55830390D02*
X174148523Y-55792295D01*
X174148523Y-55792295D02*
X174338999Y-55792295D01*
X174338999Y-55792295D02*
X174415190Y-55830390D01*
X174415190Y-55830390D02*
X174453285Y-55868485D01*
X174453285Y-55868485D02*
X174491380Y-55944676D01*
X174491380Y-55944676D02*
X174491380Y-56020866D01*
X174491380Y-56020866D02*
X174453285Y-56135152D01*
X174453285Y-56135152D02*
X173996142Y-56592295D01*
X173996142Y-56592295D02*
X174491380Y-56592295D01*
X174872333Y-56592295D02*
X175024714Y-56592295D01*
X175024714Y-56592295D02*
X175100904Y-56554200D01*
X175100904Y-56554200D02*
X175139000Y-56516104D01*
X175139000Y-56516104D02*
X175215190Y-56401819D01*
X175215190Y-56401819D02*
X175253285Y-56249438D01*
X175253285Y-56249438D02*
X175253285Y-55944676D01*
X175253285Y-55944676D02*
X175215190Y-55868485D01*
X175215190Y-55868485D02*
X175177095Y-55830390D01*
X175177095Y-55830390D02*
X175100904Y-55792295D01*
X175100904Y-55792295D02*
X174948523Y-55792295D01*
X174948523Y-55792295D02*
X174872333Y-55830390D01*
X174872333Y-55830390D02*
X174834238Y-55868485D01*
X174834238Y-55868485D02*
X174796142Y-55944676D01*
X174796142Y-55944676D02*
X174796142Y-56135152D01*
X174796142Y-56135152D02*
X174834238Y-56211342D01*
X174834238Y-56211342D02*
X174872333Y-56249438D01*
X174872333Y-56249438D02*
X174948523Y-56287533D01*
X174948523Y-56287533D02*
X175100904Y-56287533D01*
X175100904Y-56287533D02*
X175177095Y-56249438D01*
X175177095Y-56249438D02*
X175215190Y-56211342D01*
X175215190Y-56211342D02*
X175253285Y-56135152D01*
X184537190Y-45562295D02*
X184613380Y-45562295D01*
X184613380Y-45562295D02*
X184689571Y-45600390D01*
X184689571Y-45600390D02*
X184727666Y-45638485D01*
X184727666Y-45638485D02*
X184765761Y-45714676D01*
X184765761Y-45714676D02*
X184803856Y-45867057D01*
X184803856Y-45867057D02*
X184803856Y-46057533D01*
X184803856Y-46057533D02*
X184765761Y-46209914D01*
X184765761Y-46209914D02*
X184727666Y-46286104D01*
X184727666Y-46286104D02*
X184689571Y-46324200D01*
X184689571Y-46324200D02*
X184613380Y-46362295D01*
X184613380Y-46362295D02*
X184537190Y-46362295D01*
X184537190Y-46362295D02*
X184460999Y-46324200D01*
X184460999Y-46324200D02*
X184422904Y-46286104D01*
X184422904Y-46286104D02*
X184384809Y-46209914D01*
X184384809Y-46209914D02*
X184346713Y-46057533D01*
X184346713Y-46057533D02*
X184346713Y-45867057D01*
X184346713Y-45867057D02*
X184384809Y-45714676D01*
X184384809Y-45714676D02*
X184422904Y-45638485D01*
X184422904Y-45638485D02*
X184460999Y-45600390D01*
X184460999Y-45600390D02*
X184537190Y-45562295D01*
X185299095Y-45562295D02*
X185375285Y-45562295D01*
X185375285Y-45562295D02*
X185451476Y-45600390D01*
X185451476Y-45600390D02*
X185489571Y-45638485D01*
X185489571Y-45638485D02*
X185527666Y-45714676D01*
X185527666Y-45714676D02*
X185565761Y-45867057D01*
X185565761Y-45867057D02*
X185565761Y-46057533D01*
X185565761Y-46057533D02*
X185527666Y-46209914D01*
X185527666Y-46209914D02*
X185489571Y-46286104D01*
X185489571Y-46286104D02*
X185451476Y-46324200D01*
X185451476Y-46324200D02*
X185375285Y-46362295D01*
X185375285Y-46362295D02*
X185299095Y-46362295D01*
X185299095Y-46362295D02*
X185222904Y-46324200D01*
X185222904Y-46324200D02*
X185184809Y-46286104D01*
X185184809Y-46286104D02*
X185146714Y-46209914D01*
X185146714Y-46209914D02*
X185108618Y-46057533D01*
X185108618Y-46057533D02*
X185108618Y-45867057D01*
X185108618Y-45867057D02*
X185146714Y-45714676D01*
X185146714Y-45714676D02*
X185184809Y-45638485D01*
X185184809Y-45638485D02*
X185222904Y-45600390D01*
X185222904Y-45600390D02*
X185299095Y-45562295D01*
X186022904Y-45905152D02*
X185946714Y-45867057D01*
X185946714Y-45867057D02*
X185908619Y-45828961D01*
X185908619Y-45828961D02*
X185870523Y-45752771D01*
X185870523Y-45752771D02*
X185870523Y-45714676D01*
X185870523Y-45714676D02*
X185908619Y-45638485D01*
X185908619Y-45638485D02*
X185946714Y-45600390D01*
X185946714Y-45600390D02*
X186022904Y-45562295D01*
X186022904Y-45562295D02*
X186175285Y-45562295D01*
X186175285Y-45562295D02*
X186251476Y-45600390D01*
X186251476Y-45600390D02*
X186289571Y-45638485D01*
X186289571Y-45638485D02*
X186327666Y-45714676D01*
X186327666Y-45714676D02*
X186327666Y-45752771D01*
X186327666Y-45752771D02*
X186289571Y-45828961D01*
X186289571Y-45828961D02*
X186251476Y-45867057D01*
X186251476Y-45867057D02*
X186175285Y-45905152D01*
X186175285Y-45905152D02*
X186022904Y-45905152D01*
X186022904Y-45905152D02*
X185946714Y-45943247D01*
X185946714Y-45943247D02*
X185908619Y-45981342D01*
X185908619Y-45981342D02*
X185870523Y-46057533D01*
X185870523Y-46057533D02*
X185870523Y-46209914D01*
X185870523Y-46209914D02*
X185908619Y-46286104D01*
X185908619Y-46286104D02*
X185946714Y-46324200D01*
X185946714Y-46324200D02*
X186022904Y-46362295D01*
X186022904Y-46362295D02*
X186175285Y-46362295D01*
X186175285Y-46362295D02*
X186251476Y-46324200D01*
X186251476Y-46324200D02*
X186289571Y-46286104D01*
X186289571Y-46286104D02*
X186327666Y-46209914D01*
X186327666Y-46209914D02*
X186327666Y-46057533D01*
X186327666Y-46057533D02*
X186289571Y-45981342D01*
X186289571Y-45981342D02*
X186251476Y-45943247D01*
X186251476Y-45943247D02*
X186175285Y-45905152D01*
X173462809Y-58332295D02*
X173538999Y-58332295D01*
X173538999Y-58332295D02*
X173615190Y-58370390D01*
X173615190Y-58370390D02*
X173653285Y-58408485D01*
X173653285Y-58408485D02*
X173691380Y-58484676D01*
X173691380Y-58484676D02*
X173729475Y-58637057D01*
X173729475Y-58637057D02*
X173729475Y-58827533D01*
X173729475Y-58827533D02*
X173691380Y-58979914D01*
X173691380Y-58979914D02*
X173653285Y-59056104D01*
X173653285Y-59056104D02*
X173615190Y-59094200D01*
X173615190Y-59094200D02*
X173538999Y-59132295D01*
X173538999Y-59132295D02*
X173462809Y-59132295D01*
X173462809Y-59132295D02*
X173386618Y-59094200D01*
X173386618Y-59094200D02*
X173348523Y-59056104D01*
X173348523Y-59056104D02*
X173310428Y-58979914D01*
X173310428Y-58979914D02*
X173272332Y-58827533D01*
X173272332Y-58827533D02*
X173272332Y-58637057D01*
X173272332Y-58637057D02*
X173310428Y-58484676D01*
X173310428Y-58484676D02*
X173348523Y-58408485D01*
X173348523Y-58408485D02*
X173386618Y-58370390D01*
X173386618Y-58370390D02*
X173462809Y-58332295D01*
X174224714Y-58332295D02*
X174300904Y-58332295D01*
X174300904Y-58332295D02*
X174377095Y-58370390D01*
X174377095Y-58370390D02*
X174415190Y-58408485D01*
X174415190Y-58408485D02*
X174453285Y-58484676D01*
X174453285Y-58484676D02*
X174491380Y-58637057D01*
X174491380Y-58637057D02*
X174491380Y-58827533D01*
X174491380Y-58827533D02*
X174453285Y-58979914D01*
X174453285Y-58979914D02*
X174415190Y-59056104D01*
X174415190Y-59056104D02*
X174377095Y-59094200D01*
X174377095Y-59094200D02*
X174300904Y-59132295D01*
X174300904Y-59132295D02*
X174224714Y-59132295D01*
X174224714Y-59132295D02*
X174148523Y-59094200D01*
X174148523Y-59094200D02*
X174110428Y-59056104D01*
X174110428Y-59056104D02*
X174072333Y-58979914D01*
X174072333Y-58979914D02*
X174034237Y-58827533D01*
X174034237Y-58827533D02*
X174034237Y-58637057D01*
X174034237Y-58637057D02*
X174072333Y-58484676D01*
X174072333Y-58484676D02*
X174110428Y-58408485D01*
X174110428Y-58408485D02*
X174148523Y-58370390D01*
X174148523Y-58370390D02*
X174224714Y-58332295D01*
X174796142Y-58408485D02*
X174834238Y-58370390D01*
X174834238Y-58370390D02*
X174910428Y-58332295D01*
X174910428Y-58332295D02*
X175100904Y-58332295D01*
X175100904Y-58332295D02*
X175177095Y-58370390D01*
X175177095Y-58370390D02*
X175215190Y-58408485D01*
X175215190Y-58408485D02*
X175253285Y-58484676D01*
X175253285Y-58484676D02*
X175253285Y-58560866D01*
X175253285Y-58560866D02*
X175215190Y-58675152D01*
X175215190Y-58675152D02*
X174758047Y-59132295D01*
X174758047Y-59132295D02*
X175253285Y-59132295D01*
X184803856Y-69292295D02*
X184346713Y-69292295D01*
X184575285Y-69292295D02*
X184575285Y-68492295D01*
X184575285Y-68492295D02*
X184499094Y-68606580D01*
X184499094Y-68606580D02*
X184422904Y-68682771D01*
X184422904Y-68682771D02*
X184346713Y-68720866D01*
X185299095Y-68492295D02*
X185375285Y-68492295D01*
X185375285Y-68492295D02*
X185451476Y-68530390D01*
X185451476Y-68530390D02*
X185489571Y-68568485D01*
X185489571Y-68568485D02*
X185527666Y-68644676D01*
X185527666Y-68644676D02*
X185565761Y-68797057D01*
X185565761Y-68797057D02*
X185565761Y-68987533D01*
X185565761Y-68987533D02*
X185527666Y-69139914D01*
X185527666Y-69139914D02*
X185489571Y-69216104D01*
X185489571Y-69216104D02*
X185451476Y-69254200D01*
X185451476Y-69254200D02*
X185375285Y-69292295D01*
X185375285Y-69292295D02*
X185299095Y-69292295D01*
X185299095Y-69292295D02*
X185222904Y-69254200D01*
X185222904Y-69254200D02*
X185184809Y-69216104D01*
X185184809Y-69216104D02*
X185146714Y-69139914D01*
X185146714Y-69139914D02*
X185108618Y-68987533D01*
X185108618Y-68987533D02*
X185108618Y-68797057D01*
X185108618Y-68797057D02*
X185146714Y-68644676D01*
X185146714Y-68644676D02*
X185184809Y-68568485D01*
X185184809Y-68568485D02*
X185222904Y-68530390D01*
X185222904Y-68530390D02*
X185299095Y-68492295D01*
X186251476Y-68758961D02*
X186251476Y-69292295D01*
X186061000Y-68454200D02*
X185870523Y-69025628D01*
X185870523Y-69025628D02*
X186365762Y-69025628D01*
%TO.C,T1*%
X188050962Y-96092116D02*
X191350962Y-101807884D01*
X190519134Y-94667116D02*
X188050962Y-96092116D01*
X191350962Y-101807884D02*
X193819134Y-100382884D01*
X192169134Y-97525000D02*
X190519134Y-94667116D01*
X192169134Y-97525000D02*
X193819134Y-100382884D01*
X193144134Y-99213750D02*
X191194134Y-95836250D01*
D13*
%TO.C,D20*%
X165430578Y-112853072D02*
X165806455Y-112989880D01*
X165806455Y-112989880D02*
X165618344Y-113506711D01*
X165806455Y-112989880D02*
X165994566Y-112473049D01*
X165806455Y-112989880D02*
X166507078Y-112819215D01*
X166233462Y-113570969D02*
X165806455Y-112989880D01*
X166370270Y-113195092D02*
X166840116Y-113366102D01*
X166507078Y-112819215D02*
X166233462Y-113570969D01*
%TO.C,D3*%
X69250000Y-74000000D02*
X69650000Y-74000000D01*
X69650000Y-74000000D02*
X69650000Y-73450000D01*
X69650000Y-74000000D02*
X69650000Y-74550000D01*
X69650000Y-74000000D02*
X70250000Y-73600000D01*
X70250000Y-73600000D02*
X70250000Y-74400000D01*
X70250000Y-74000000D02*
X70750000Y-74000000D01*
X70250000Y-74400000D02*
X69650000Y-74000000D01*
%TO.C,D14*%
X141250000Y-91000000D02*
X141650000Y-91000000D01*
X141650000Y-91000000D02*
X141650000Y-90450000D01*
X141650000Y-91000000D02*
X141650000Y-91550000D01*
X141650000Y-91000000D02*
X142250000Y-90600000D01*
X142250000Y-90600000D02*
X142250000Y-91400000D01*
X142250000Y-91000000D02*
X142750000Y-91000000D01*
X142250000Y-91400000D02*
X141650000Y-91000000D01*
%TO.C,LED3*%
X74500000Y-71875000D02*
X74000000Y-72375000D01*
X74000000Y-71375000D01*
X74500000Y-71875000D01*
G36*
X74500000Y-71875000D02*
G01*
X74000000Y-72375000D01*
X74000000Y-71375000D01*
X74500000Y-71875000D01*
G37*
%TO.C,LED17*%
X164500000Y-88875000D02*
X164000000Y-89375000D01*
X164000000Y-88375000D01*
X164500000Y-88875000D01*
G36*
X164500000Y-88875000D02*
G01*
X164000000Y-89375000D01*
X164000000Y-88375000D01*
X164500000Y-88875000D01*
G37*
%TO.C,LED1*%
X74500000Y-105875000D02*
X74000000Y-106375000D01*
X74000000Y-105375000D01*
X74500000Y-105875000D01*
G36*
X74500000Y-105875000D02*
G01*
X74000000Y-106375000D01*
X74000000Y-105375000D01*
X74500000Y-105875000D01*
G37*
%TO.C,LED14*%
X146500000Y-88875000D02*
X146000000Y-89375000D01*
X146000000Y-88375000D01*
X146500000Y-88875000D01*
G36*
X146500000Y-88875000D02*
G01*
X146000000Y-89375000D01*
X146000000Y-88375000D01*
X146500000Y-88875000D01*
G37*
D12*
%TO.C,JST1*%
X86650000Y-97050000D02*
X86650000Y-97750000D01*
X86650000Y-97750000D02*
X88250000Y-97750000D01*
X86650000Y-102250000D02*
X86650000Y-102950000D01*
X86650000Y-102950000D02*
X94250000Y-102950000D01*
X88250000Y-97750000D02*
X88250000Y-102250000D01*
X88250000Y-102250000D02*
X86650000Y-102250000D01*
X89500000Y-101000000D02*
X90000000Y-101000000D01*
X89750000Y-101250000D02*
X89750000Y-100750000D01*
X94250000Y-97050000D02*
X86650000Y-97050000D01*
X94250000Y-102950000D02*
X94250000Y-97050000D01*
D14*
%TO.C,B1*%
X186150000Y-91050000D02*
X186150000Y-86350000D01*
X187725000Y-86250000D02*
X188275000Y-86250000D01*
X187725000Y-91150000D02*
X188275000Y-91150000D01*
X189850000Y-87275000D02*
X189850000Y-86350000D01*
X189850000Y-91050000D02*
X189850000Y-90125000D01*
D13*
%TO.C,LED16*%
X146500000Y-54875000D02*
X146000000Y-55375000D01*
X146000000Y-54375000D01*
X146500000Y-54875000D01*
G36*
X146500000Y-54875000D02*
G01*
X146000000Y-55375000D01*
X146000000Y-54375000D01*
X146500000Y-54875000D01*
G37*
%TO.C,LED2*%
X74500000Y-88875000D02*
X74000000Y-89375000D01*
X74000000Y-88375000D01*
X74500000Y-88875000D01*
G36*
X74500000Y-88875000D02*
G01*
X74000000Y-89375000D01*
X74000000Y-88375000D01*
X74500000Y-88875000D01*
G37*
%TO.C,D6*%
X87250000Y-74000000D02*
X87650000Y-74000000D01*
X87650000Y-74000000D02*
X87650000Y-73450000D01*
X87650000Y-74000000D02*
X87650000Y-74550000D01*
X87650000Y-74000000D02*
X88250000Y-73600000D01*
X88250000Y-73600000D02*
X88250000Y-74400000D01*
X88250000Y-74000000D02*
X88750000Y-74000000D01*
X88250000Y-74400000D02*
X87650000Y-74000000D01*
%TO.C,D1*%
X69250000Y-108000000D02*
X69650000Y-108000000D01*
X69650000Y-108000000D02*
X69650000Y-107450000D01*
X69650000Y-108000000D02*
X69650000Y-108550000D01*
X69650000Y-108000000D02*
X70250000Y-107600000D01*
X70250000Y-107600000D02*
X70250000Y-108400000D01*
X70250000Y-108000000D02*
X70750000Y-108000000D01*
X70250000Y-108400000D02*
X69650000Y-108000000D01*
%TO.C,LED19*%
X164500000Y-54875000D02*
X164000000Y-55375000D01*
X164000000Y-54375000D01*
X164500000Y-54875000D01*
G36*
X164500000Y-54875000D02*
G01*
X164000000Y-55375000D01*
X164000000Y-54375000D01*
X164500000Y-54875000D01*
G37*
%TO.C,D16*%
X141250000Y-57000000D02*
X141650000Y-57000000D01*
X141650000Y-57000000D02*
X141650000Y-56450000D01*
X141650000Y-57000000D02*
X141650000Y-57550000D01*
X141650000Y-57000000D02*
X142250000Y-56600000D01*
X142250000Y-56600000D02*
X142250000Y-57400000D01*
X142250000Y-57000000D02*
X142750000Y-57000000D01*
X142250000Y-57400000D02*
X141650000Y-57000000D01*
%TO.C,LED9*%
X110500000Y-71875000D02*
X110000000Y-72375000D01*
X110000000Y-71375000D01*
X110500000Y-71875000D01*
G36*
X110500000Y-71875000D02*
G01*
X110000000Y-72375000D01*
X110000000Y-71375000D01*
X110500000Y-71875000D01*
G37*
%TO.C,LED21*%
X188005223Y-118808194D02*
X187364367Y-119107030D01*
X187706387Y-118167337D01*
X188005223Y-118808194D01*
G36*
X188005223Y-118808194D02*
G01*
X187364367Y-119107030D01*
X187706387Y-118167337D01*
X188005223Y-118808194D01*
G37*
%TO.C,LED7*%
X92500000Y-54875000D02*
X92000000Y-55375000D01*
X92000000Y-54375000D01*
X92500000Y-54875000D01*
G36*
X92500000Y-54875000D02*
G01*
X92000000Y-55375000D01*
X92000000Y-54375000D01*
X92500000Y-54875000D01*
G37*
%TO.C,D12*%
X123250000Y-74000000D02*
X123650000Y-74000000D01*
X123650000Y-74000000D02*
X123650000Y-73450000D01*
X123650000Y-74000000D02*
X123650000Y-74550000D01*
X123650000Y-74000000D02*
X124250000Y-73600000D01*
X124250000Y-73600000D02*
X124250000Y-74400000D01*
X124250000Y-74000000D02*
X124750000Y-74000000D01*
X124250000Y-74400000D02*
X123650000Y-74000000D01*
%TO.C,D15*%
X141250000Y-74000000D02*
X141650000Y-74000000D01*
X141650000Y-74000000D02*
X141650000Y-73450000D01*
X141650000Y-74000000D02*
X141650000Y-74550000D01*
X141650000Y-74000000D02*
X142250000Y-73600000D01*
X142250000Y-73600000D02*
X142250000Y-74400000D01*
X142250000Y-74000000D02*
X142750000Y-74000000D01*
X142250000Y-74400000D02*
X141650000Y-74000000D01*
D15*
%TO.C,niceView1*%
X172800000Y-39775000D02*
X186800000Y-39775000D01*
X172800000Y-75775000D02*
X172800000Y-39775000D01*
X186800000Y-39775000D02*
X186800000Y-75775000D01*
X186800000Y-75775000D02*
X172800000Y-75775000D01*
D13*
%TO.C,D17*%
X159250000Y-91000000D02*
X159650000Y-91000000D01*
X159650000Y-91000000D02*
X159650000Y-90450000D01*
X159650000Y-91000000D02*
X159650000Y-91550000D01*
X159650000Y-91000000D02*
X160250000Y-90600000D01*
X160250000Y-90600000D02*
X160250000Y-91400000D01*
X160250000Y-91000000D02*
X160750000Y-91000000D01*
X160250000Y-91400000D02*
X159650000Y-91000000D01*
%TO.C,LED5*%
X92500000Y-88875000D02*
X92000000Y-89375000D01*
X92000000Y-88375000D01*
X92500000Y-88875000D01*
G36*
X92500000Y-88875000D02*
G01*
X92000000Y-89375000D01*
X92000000Y-88375000D01*
X92500000Y-88875000D01*
G37*
%TO.C,D10*%
X105250000Y-57000000D02*
X105650000Y-57000000D01*
X105650000Y-57000000D02*
X105650000Y-56450000D01*
X105650000Y-57000000D02*
X105650000Y-57550000D01*
X105650000Y-57000000D02*
X106250000Y-56600000D01*
X106250000Y-56600000D02*
X106250000Y-57400000D01*
X106250000Y-57000000D02*
X106750000Y-57000000D01*
X106250000Y-57400000D02*
X105650000Y-57000000D01*
%TO.C,D7*%
X87250000Y-57000000D02*
X87650000Y-57000000D01*
X87650000Y-57000000D02*
X87650000Y-56450000D01*
X87650000Y-57000000D02*
X87650000Y-57550000D01*
X87650000Y-57000000D02*
X88250000Y-56600000D01*
X88250000Y-56600000D02*
X88250000Y-57400000D01*
X88250000Y-57000000D02*
X88750000Y-57000000D01*
X88250000Y-57400000D02*
X87650000Y-57000000D01*
%TO.C,D19*%
X159250000Y-57000000D02*
X159650000Y-57000000D01*
X159650000Y-57000000D02*
X159650000Y-56450000D01*
X159650000Y-57000000D02*
X159650000Y-57550000D01*
X159650000Y-57000000D02*
X160250000Y-56600000D01*
X160250000Y-56600000D02*
X160250000Y-57400000D01*
X160250000Y-57000000D02*
X160750000Y-57000000D01*
X160250000Y-57400000D02*
X159650000Y-57000000D01*
%TO.C,LED18*%
X164500000Y-71875000D02*
X164000000Y-72375000D01*
X164000000Y-71375000D01*
X164500000Y-71875000D01*
G36*
X164500000Y-71875000D02*
G01*
X164000000Y-72375000D01*
X164000000Y-71375000D01*
X164500000Y-71875000D01*
G37*
%TO.C,D13*%
X123250000Y-57000000D02*
X123650000Y-57000000D01*
X123650000Y-57000000D02*
X123650000Y-56450000D01*
X123650000Y-57000000D02*
X123650000Y-57550000D01*
X123650000Y-57000000D02*
X124250000Y-56600000D01*
X124250000Y-56600000D02*
X124250000Y-57400000D01*
X124250000Y-57000000D02*
X124750000Y-57000000D01*
X124250000Y-57400000D02*
X123650000Y-57000000D01*
%TO.C,D11*%
X123250000Y-91000000D02*
X123650000Y-91000000D01*
X123650000Y-91000000D02*
X123650000Y-90450000D01*
X123650000Y-91000000D02*
X123650000Y-91550000D01*
X123650000Y-91000000D02*
X124250000Y-90600000D01*
X124250000Y-90600000D02*
X124250000Y-91400000D01*
X124250000Y-91000000D02*
X124750000Y-91000000D01*
X124250000Y-91400000D02*
X123650000Y-91000000D01*
%TO.C,LED10*%
X110500000Y-54875000D02*
X110000000Y-55375000D01*
X110000000Y-54375000D01*
X110500000Y-54875000D01*
G36*
X110500000Y-54875000D02*
G01*
X110000000Y-55375000D01*
X110000000Y-54375000D01*
X110500000Y-54875000D01*
G37*
%TO.C,D22*%
X168073469Y-131906028D02*
X168449346Y-132042836D01*
X168449346Y-132042836D02*
X168261235Y-132559667D01*
X168449346Y-132042836D02*
X168637457Y-131526005D01*
X168449346Y-132042836D02*
X169149969Y-131872171D01*
X168876353Y-132623925D02*
X168449346Y-132042836D01*
X169013161Y-132248048D02*
X169483007Y-132419058D01*
X169149969Y-131872171D02*
X168876353Y-132623925D01*
%TO.C,LED20*%
X171090756Y-112651832D02*
X170449900Y-112950668D01*
X170791920Y-112010975D01*
X171090756Y-112651832D01*
G36*
X171090756Y-112651832D02*
G01*
X170449900Y-112950668D01*
X170791920Y-112010975D01*
X171090756Y-112651832D01*
G37*
%TO.C,D5*%
X87250000Y-91000000D02*
X87650000Y-91000000D01*
X87650000Y-91000000D02*
X87650000Y-90450000D01*
X87650000Y-91000000D02*
X87650000Y-91550000D01*
X87650000Y-91000000D02*
X88250000Y-90600000D01*
X88250000Y-90600000D02*
X88250000Y-91400000D01*
X88250000Y-91000000D02*
X88750000Y-91000000D01*
X88250000Y-91400000D02*
X87650000Y-91000000D01*
D15*
%TO.C,MCU1*%
X170910000Y-39720000D02*
X170910000Y-72740000D01*
X170910000Y-72740000D02*
X188690000Y-72740000D01*
X188690000Y-39720000D02*
X170910000Y-39720000D01*
X188690000Y-72740000D02*
X188690000Y-39720000D01*
D13*
%TO.C,D8*%
X105250000Y-91000000D02*
X105650000Y-91000000D01*
X105650000Y-91000000D02*
X105650000Y-90450000D01*
X105650000Y-91000000D02*
X105650000Y-91550000D01*
X105650000Y-91000000D02*
X106250000Y-90600000D01*
X106250000Y-90600000D02*
X106250000Y-91400000D01*
X106250000Y-91000000D02*
X106750000Y-91000000D01*
X106250000Y-91400000D02*
X105650000Y-91000000D01*
%TO.C,D21*%
X182345045Y-119009435D02*
X182720922Y-119146243D01*
X182720922Y-119146243D02*
X182532811Y-119663074D01*
X182720922Y-119146243D02*
X182909033Y-118629412D01*
X182720922Y-119146243D02*
X183421545Y-118975578D01*
X183147929Y-119727332D02*
X182720922Y-119146243D01*
X183284737Y-119351455D02*
X183754583Y-119522465D01*
X183421545Y-118975578D02*
X183147929Y-119727332D01*
%TO.C,LED22*%
X173733647Y-131704787D02*
X173092791Y-132003623D01*
X173434811Y-131063930D01*
X173733647Y-131704787D01*
G36*
X173733647Y-131704787D02*
G01*
X173092791Y-132003623D01*
X173434811Y-131063930D01*
X173733647Y-131704787D01*
G37*
%TO.C,LED15*%
X146500000Y-71875000D02*
X146000000Y-72375000D01*
X146000000Y-71375000D01*
X146500000Y-71875000D01*
G36*
X146500000Y-71875000D02*
G01*
X146000000Y-72375000D01*
X146000000Y-71375000D01*
X146500000Y-71875000D01*
G37*
%TO.C,LED6*%
X92500000Y-71875000D02*
X92000000Y-72375000D01*
X92000000Y-71375000D01*
X92500000Y-71875000D01*
G36*
X92500000Y-71875000D02*
G01*
X92000000Y-72375000D01*
X92000000Y-71375000D01*
X92500000Y-71875000D01*
G37*
%TO.C,D4*%
X69250000Y-57000000D02*
X69650000Y-57000000D01*
X69650000Y-57000000D02*
X69650000Y-56450000D01*
X69650000Y-57000000D02*
X69650000Y-57550000D01*
X69650000Y-57000000D02*
X70250000Y-56600000D01*
X70250000Y-56600000D02*
X70250000Y-57400000D01*
X70250000Y-57000000D02*
X70750000Y-57000000D01*
X70250000Y-57400000D02*
X69650000Y-57000000D01*
%TO.C,LED12*%
X128500000Y-71875000D02*
X128000000Y-72375000D01*
X128000000Y-71375000D01*
X128500000Y-71875000D01*
G36*
X128500000Y-71875000D02*
G01*
X128000000Y-72375000D01*
X128000000Y-71375000D01*
X128500000Y-71875000D01*
G37*
%TO.C,D2*%
X69250000Y-91000000D02*
X69650000Y-91000000D01*
X69650000Y-91000000D02*
X69650000Y-90450000D01*
X69650000Y-91000000D02*
X69650000Y-91550000D01*
X69650000Y-91000000D02*
X70250000Y-90600000D01*
X70250000Y-90600000D02*
X70250000Y-91400000D01*
X70250000Y-91000000D02*
X70750000Y-91000000D01*
X70250000Y-91400000D02*
X69650000Y-91000000D01*
%TO.C,LED11*%
X128500000Y-88875000D02*
X128000000Y-89375000D01*
X128000000Y-88375000D01*
X128500000Y-88875000D01*
G36*
X128500000Y-88875000D02*
G01*
X128000000Y-89375000D01*
X128000000Y-88375000D01*
X128500000Y-88875000D01*
G37*
%TO.C,LED13*%
X128500000Y-54875000D02*
X128000000Y-55375000D01*
X128000000Y-54375000D01*
X128500000Y-54875000D01*
G36*
X128500000Y-54875000D02*
G01*
X128000000Y-55375000D01*
X128000000Y-54375000D01*
X128500000Y-54875000D01*
G37*
%TO.C,D9*%
X105250000Y-74000000D02*
X105650000Y-74000000D01*
X105650000Y-74000000D02*
X105650000Y-73450000D01*
X105650000Y-74000000D02*
X105650000Y-74550000D01*
X105650000Y-74000000D02*
X106250000Y-73600000D01*
X106250000Y-73600000D02*
X106250000Y-74400000D01*
X106250000Y-74000000D02*
X106750000Y-74000000D01*
X106250000Y-74400000D02*
X105650000Y-74000000D01*
%TO.C,LED4*%
X74500000Y-54875000D02*
X74000000Y-55375000D01*
X74000000Y-54375000D01*
X74500000Y-54875000D01*
G36*
X74500000Y-54875000D02*
G01*
X74000000Y-55375000D01*
X74000000Y-54375000D01*
X74500000Y-54875000D01*
G37*
%TO.C,LED8*%
X110500000Y-88875000D02*
X110000000Y-89375000D01*
X110000000Y-88375000D01*
X110500000Y-88875000D01*
G36*
X110500000Y-88875000D02*
G01*
X110000000Y-89375000D01*
X110000000Y-88375000D01*
X110500000Y-88875000D01*
G37*
%TO.C,D18*%
X159250000Y-74000000D02*
X159650000Y-74000000D01*
X159650000Y-74000000D02*
X159650000Y-73450000D01*
X159650000Y-74000000D02*
X159650000Y-74550000D01*
X159650000Y-74000000D02*
X160250000Y-73600000D01*
X160250000Y-73600000D02*
X160250000Y-74400000D01*
X160250000Y-74000000D02*
X160750000Y-74000000D01*
X160250000Y-74400000D02*
X159650000Y-74000000D01*
%TD*%
D16*
%TO.C,*%
X80000000Y-57550000D03*
%TD*%
%TO.C,*%
X63000000Y-105000000D03*
%TD*%
%TO.C,*%
X183557668Y-135413460D03*
%TD*%
%TO.C,*%
X115000000Y-74550000D03*
%TD*%
%TO.C,*%
X180000000Y-44500000D03*
%TD*%
%TO.C,*%
X178000000Y-91000000D03*
%TD*%
D17*
%TO.C,MCU1*%
X187420000Y-43530000D03*
X187420000Y-46070000D03*
X187420000Y-48610000D03*
X187420000Y-51150000D03*
X187420000Y-53690000D03*
X187420000Y-56230000D03*
X187420000Y-58770000D03*
X187420000Y-61310000D03*
X187420000Y-63850000D03*
X187420000Y-66390000D03*
X187420000Y-68930000D03*
X187420000Y-71470000D03*
X172180000Y-71470000D03*
X172180000Y-68930000D03*
X172180000Y-66390000D03*
X172180000Y-63850000D03*
X172180000Y-61310000D03*
X172180000Y-58770000D03*
X172180000Y-56230000D03*
X172180000Y-53690000D03*
X172180000Y-51150000D03*
X172180000Y-48610000D03*
X172180000Y-46070000D03*
X172180000Y-43530000D03*
X174720000Y-66390000D03*
X177260000Y-66390000D03*
X179800000Y-66390000D03*
%TD*%
D16*
%TO.C,*%
X115000000Y-116250000D03*
%TD*%
M02*
