%TF.GenerationSoftware,KiCad,Pcbnew,8.0.5*%
%TF.CreationDate,2024-09-15T18:20:55-04:00*%
%TF.ProjectId,theguy,74686567-7579-42e6-9b69-6361645f7063,v1.0.0*%
%TF.SameCoordinates,Original*%
%TF.FileFunction,Soldermask,Top*%
%TF.FilePolarity,Negative*%
%FSLAX46Y46*%
G04 Gerber Fmt 4.6, Leading zero omitted, Abs format (unit mm)*
G04 Created by KiCad (PCBNEW 8.0.5) date 2024-09-15 18:20:55*
%MOMM*%
%LPD*%
G01*
G04 APERTURE LIST*
G04 Aperture macros list*
%AMRoundRect*
0 Rectangle with rounded corners*
0 $1 Rounding radius*
0 $2 $3 $4 $5 $6 $7 $8 $9 X,Y pos of 4 corners*
0 Add a 4 corners polygon primitive as box body*
4,1,4,$2,$3,$4,$5,$6,$7,$8,$9,$2,$3,0*
0 Add four circle primitives for the rounded corners*
1,1,$1+$1,$2,$3*
1,1,$1+$1,$4,$5*
1,1,$1+$1,$6,$7*
1,1,$1+$1,$8,$9*
0 Add four rect primitives between the rounded corners*
20,1,$1+$1,$2,$3,$4,$5,0*
20,1,$1+$1,$4,$5,$6,$7,0*
20,1,$1+$1,$6,$7,$8,$9,0*
20,1,$1+$1,$8,$9,$2,$3,0*%
G04 Aperture macros list end*
%ADD10RoundRect,0.050000X-0.614711X0.164711X-0.164711X-0.614711X0.614711X-0.164711X0.164711X0.614711X0*%
%ADD11C,1.100000*%
%ADD12RoundRect,0.050000X-0.766266X0.077211X-0.316266X-0.702211X0.766266X-0.077211X0.316266X0.702211X0*%
%ADD13RoundRect,0.050000X-1.139443X-0.531331X0.531331X-1.139443X1.139443X0.531331X-0.531331X1.139443X0*%
%ADD14RoundRect,0.050000X-0.628074X-0.409907X0.217650X-0.717725X0.628074X0.409907X-0.217650X0.717725X0*%
%ADD15C,2.005000*%
%ADD16RoundRect,0.050000X-0.889000X-0.889000X0.889000X-0.889000X0.889000X0.889000X-0.889000X0.889000X0*%
%ADD17RoundRect,0.050000X-0.450000X-0.600000X0.450000X-0.600000X0.450000X0.600000X-0.450000X0.600000X0*%
%ADD18RoundRect,0.050000X-1.300000X-0.500000X1.300000X-0.500000X1.300000X0.500000X-1.300000X0.500000X0*%
%ADD19C,1.801800*%
%ADD20C,3.100000*%
%ADD21C,3.529000*%
%ADD22C,4.100000*%
%ADD23RoundRect,0.050000X0.850000X-0.600000X0.850000X0.600000X-0.850000X0.600000X-0.850000X-0.600000X0*%
%ADD24O,1.800000X1.300000*%
%ADD25C,0.850000*%
%ADD26RoundRect,0.050000X-0.500000X0.775000X-0.500000X-0.775000X0.500000X-0.775000X0.500000X0.775000X0*%
%ADD27RoundRect,0.050000X-1.392610X-0.025220X1.050590X-0.914472X1.392610X0.025220X-1.050590X0.914472X0*%
%ADD28O,1.800000X1.800000*%
%ADD29RoundRect,0.050000X-0.850000X-0.850000X0.850000X-0.850000X0.850000X0.850000X-0.850000X0.850000X0*%
%ADD30C,1.852600*%
G04 APERTURE END LIST*
D10*
%TO.C,T1*%
X190102628Y-94445706D03*
X188197372Y-95545706D03*
D11*
X190250000Y-96900962D03*
X191750000Y-99499038D03*
D10*
X193802628Y-100854294D03*
X191897372Y-101954294D03*
D12*
X190327997Y-101186057D03*
X188827997Y-98587981D03*
X188077997Y-97288943D03*
%TD*%
D13*
%TO.C,D20*%
X162555118Y-111806490D03*
D14*
X164584854Y-112545254D03*
X167685840Y-113673920D03*
D15*
X169715576Y-114412684D03*
%TD*%
D16*
%TO.C,D3*%
X66190000Y-74000000D03*
D17*
X68350000Y-74000000D03*
X71650000Y-74000000D03*
D15*
X73810000Y-74000000D03*
%TD*%
D16*
%TO.C,D14*%
X138190000Y-91000000D03*
D17*
X140350000Y-91000000D03*
X143650000Y-91000000D03*
D15*
X145810000Y-91000000D03*
%TD*%
D18*
%TO.C,LED3*%
X67800000Y-70125000D03*
X67800000Y-71875000D03*
X72200000Y-71875000D03*
X72200000Y-70125000D03*
%TD*%
%TO.C,LED17*%
X157800000Y-87125000D03*
X157800000Y-88875000D03*
X162200000Y-88875000D03*
X162200000Y-87125000D03*
%TD*%
D19*
%TO.C,S10*%
X100500000Y-49000000D03*
D20*
X106000000Y-43050000D03*
D21*
X106000000Y-49000000D03*
D20*
X111000000Y-45250000D03*
D19*
X111500000Y-49000000D03*
%TD*%
D22*
%TO.C,*%
X80000000Y-57550000D03*
%TD*%
D18*
%TO.C,LED1*%
X67800000Y-104125000D03*
X67800000Y-105875000D03*
X72200000Y-105875000D03*
X72200000Y-104125000D03*
%TD*%
%TO.C,LED14*%
X139800000Y-87125000D03*
X139800000Y-88875000D03*
X144200000Y-88875000D03*
X144200000Y-87125000D03*
%TD*%
D19*
%TO.C,S13*%
X118500000Y-49000000D03*
D20*
X124000000Y-43050000D03*
D21*
X124000000Y-49000000D03*
D20*
X129000000Y-45250000D03*
D19*
X129500000Y-49000000D03*
%TD*%
%TO.C,S3*%
X64500000Y-66000000D03*
D20*
X70000000Y-60050000D03*
D21*
X70000000Y-66000000D03*
D20*
X75000000Y-62250000D03*
D19*
X75500000Y-66000000D03*
%TD*%
%TO.C,S22*%
X166346090Y-122763891D03*
D20*
X173549419Y-119053831D03*
D21*
X171514399Y-124645002D03*
D20*
X177495438Y-122831255D03*
D19*
X176682708Y-126526113D03*
%TD*%
D23*
%TO.C,JST1*%
X88000000Y-101000000D03*
D24*
X88000000Y-99000000D03*
%TD*%
D19*
%TO.C,S21*%
X180617666Y-109867298D03*
D20*
X187820995Y-106157238D03*
D21*
X185785975Y-111748409D03*
D20*
X191767014Y-109934662D03*
D19*
X190954284Y-113629520D03*
%TD*%
D25*
%TO.C,B1*%
X189375000Y-88700000D03*
X186625000Y-88700000D03*
D26*
X188850000Y-86075000D03*
X188850000Y-91325000D03*
X187150000Y-86075000D03*
X187150000Y-91325000D03*
%TD*%
D18*
%TO.C,LED16*%
X139800000Y-53125000D03*
X139800000Y-54875000D03*
X144200000Y-54875000D03*
X144200000Y-53125000D03*
%TD*%
%TO.C,LED2*%
X67800000Y-87125000D03*
X67800000Y-88875000D03*
X72200000Y-88875000D03*
X72200000Y-87125000D03*
%TD*%
D16*
%TO.C,D6*%
X84190000Y-74000000D03*
D17*
X86350000Y-74000000D03*
X89650000Y-74000000D03*
D15*
X91810000Y-74000000D03*
%TD*%
D19*
%TO.C,S1*%
X64500000Y-100000000D03*
D20*
X70000000Y-94050000D03*
D21*
X70000000Y-100000000D03*
D20*
X75000000Y-96250000D03*
D19*
X75500000Y-100000000D03*
%TD*%
%TO.C,S14*%
X136500000Y-83000000D03*
D20*
X142000000Y-77050000D03*
D21*
X142000000Y-83000000D03*
D20*
X147000000Y-79250000D03*
D19*
X147500000Y-83000000D03*
%TD*%
D16*
%TO.C,D1*%
X66190000Y-108000000D03*
D17*
X68350000Y-108000000D03*
X71650000Y-108000000D03*
D15*
X73810000Y-108000000D03*
%TD*%
D18*
%TO.C,LED19*%
X157800000Y-53125000D03*
X157800000Y-54875000D03*
X162200000Y-54875000D03*
X162200000Y-53125000D03*
%TD*%
D22*
%TO.C,*%
X63000000Y-105000000D03*
%TD*%
%TO.C,*%
X183557668Y-135413460D03*
%TD*%
D16*
%TO.C,D16*%
X138190000Y-57000000D03*
D17*
X140350000Y-57000000D03*
X143650000Y-57000000D03*
D15*
X145810000Y-57000000D03*
%TD*%
D19*
%TO.C,S7*%
X82500000Y-49000000D03*
D20*
X88000000Y-43050000D03*
D21*
X88000000Y-49000000D03*
D20*
X93000000Y-45250000D03*
D19*
X93500000Y-49000000D03*
%TD*%
%TO.C,S15*%
X136500000Y-66000000D03*
D20*
X142000000Y-60050000D03*
D21*
X142000000Y-66000000D03*
D20*
X147000000Y-62250000D03*
D19*
X147500000Y-66000000D03*
%TD*%
%TO.C,S5*%
X82500000Y-83000000D03*
D20*
X88000000Y-77050000D03*
D21*
X88000000Y-83000000D03*
D20*
X93000000Y-79250000D03*
D19*
X93500000Y-83000000D03*
%TD*%
%TO.C,S11*%
X118500000Y-83000000D03*
D20*
X124000000Y-77050000D03*
D21*
X124000000Y-83000000D03*
D20*
X129000000Y-79250000D03*
D19*
X129500000Y-83000000D03*
%TD*%
D18*
%TO.C,LED9*%
X103800000Y-70125000D03*
X103800000Y-71875000D03*
X108200000Y-71875000D03*
X108200000Y-70125000D03*
%TD*%
D27*
%TO.C,LED21*%
X182307818Y-114872197D03*
X181709283Y-116516659D03*
X185843930Y-118021547D03*
X186442465Y-116377085D03*
%TD*%
D22*
%TO.C,*%
X115000000Y-74550000D03*
%TD*%
D18*
%TO.C,LED7*%
X85800000Y-53125000D03*
X85800000Y-54875000D03*
X90200000Y-54875000D03*
X90200000Y-53125000D03*
%TD*%
D16*
%TO.C,D12*%
X120190000Y-74000000D03*
D17*
X122350000Y-74000000D03*
X125650000Y-74000000D03*
D15*
X127810000Y-74000000D03*
%TD*%
D19*
%TO.C,S17*%
X154500000Y-83000000D03*
D20*
X160000000Y-77050000D03*
D21*
X160000000Y-83000000D03*
D20*
X165000000Y-79250000D03*
D19*
X165500000Y-83000000D03*
%TD*%
D16*
%TO.C,D15*%
X138190000Y-74000000D03*
D17*
X140350000Y-74000000D03*
X143650000Y-74000000D03*
D15*
X145810000Y-74000000D03*
%TD*%
D22*
%TO.C,*%
X180000000Y-44500000D03*
%TD*%
D28*
%TO.C,niceView1*%
X184880000Y-74475000D03*
D29*
X182340000Y-74475000D03*
D28*
X179800000Y-74475000D03*
X177260000Y-74475000D03*
X174720000Y-74475000D03*
%TD*%
D19*
%TO.C,S6*%
X82500000Y-66000000D03*
D20*
X88000000Y-60050000D03*
D21*
X88000000Y-66000000D03*
D20*
X93000000Y-62250000D03*
D19*
X93500000Y-66000000D03*
%TD*%
D16*
%TO.C,D17*%
X156190000Y-91000000D03*
D17*
X158350000Y-91000000D03*
X161650000Y-91000000D03*
D15*
X163810000Y-91000000D03*
%TD*%
D22*
%TO.C,*%
X178000000Y-91000000D03*
%TD*%
D18*
%TO.C,LED5*%
X85800000Y-87125000D03*
X85800000Y-88875000D03*
X90200000Y-88875000D03*
X90200000Y-87125000D03*
%TD*%
D16*
%TO.C,D10*%
X102190000Y-57000000D03*
D17*
X104350000Y-57000000D03*
X107650000Y-57000000D03*
D15*
X109810000Y-57000000D03*
%TD*%
D16*
%TO.C,D7*%
X84190000Y-57000000D03*
D17*
X86350000Y-57000000D03*
X89650000Y-57000000D03*
D15*
X91810000Y-57000000D03*
%TD*%
D16*
%TO.C,D19*%
X156190000Y-57000000D03*
D17*
X158350000Y-57000000D03*
X161650000Y-57000000D03*
D15*
X163810000Y-57000000D03*
%TD*%
D18*
%TO.C,LED18*%
X157800000Y-70125000D03*
X157800000Y-71875000D03*
X162200000Y-71875000D03*
X162200000Y-70125000D03*
%TD*%
D19*
%TO.C,S9*%
X100500000Y-66000000D03*
D20*
X106000000Y-60050000D03*
D21*
X106000000Y-66000000D03*
D20*
X111000000Y-62250000D03*
D19*
X111500000Y-66000000D03*
%TD*%
D16*
%TO.C,D13*%
X120190000Y-57000000D03*
D17*
X122350000Y-57000000D03*
X125650000Y-57000000D03*
D15*
X127810000Y-57000000D03*
%TD*%
D19*
%TO.C,S8*%
X100500000Y-83000000D03*
D20*
X106000000Y-77050000D03*
D21*
X106000000Y-83000000D03*
D20*
X111000000Y-79250000D03*
D19*
X111500000Y-83000000D03*
%TD*%
D16*
%TO.C,D11*%
X120190000Y-91000000D03*
D17*
X122350000Y-91000000D03*
X125650000Y-91000000D03*
D15*
X127810000Y-91000000D03*
%TD*%
D18*
%TO.C,LED10*%
X103800000Y-53125000D03*
X103800000Y-54875000D03*
X108200000Y-54875000D03*
X108200000Y-53125000D03*
%TD*%
D13*
%TO.C,D22*%
X165198009Y-130859446D03*
D14*
X167227745Y-131598210D03*
X170328731Y-132726876D03*
D15*
X172358467Y-133465640D03*
%TD*%
D27*
%TO.C,LED20*%
X165393351Y-108715835D03*
X164794816Y-110360297D03*
X168929463Y-111865185D03*
X169527998Y-110220723D03*
%TD*%
D16*
%TO.C,D5*%
X84190000Y-91000000D03*
D17*
X86350000Y-91000000D03*
X89650000Y-91000000D03*
D15*
X91810000Y-91000000D03*
%TD*%
D19*
%TO.C,S12*%
X118500000Y-66000000D03*
D20*
X124000000Y-60050000D03*
D21*
X124000000Y-66000000D03*
D20*
X129000000Y-62250000D03*
D19*
X129500000Y-66000000D03*
%TD*%
D30*
%TO.C,MCU1*%
X187420000Y-43530000D03*
X187420000Y-46070000D03*
X187420000Y-48610000D03*
X187420000Y-51150000D03*
X187420000Y-53690000D03*
X187420000Y-56230000D03*
X187420000Y-58770000D03*
X187420000Y-61310000D03*
X187420000Y-63850000D03*
X187420000Y-66390000D03*
X187420000Y-68930000D03*
X187420000Y-71470000D03*
X172180000Y-71470000D03*
X172180000Y-68930000D03*
X172180000Y-66390000D03*
X172180000Y-63850000D03*
X172180000Y-61310000D03*
X172180000Y-58770000D03*
X172180000Y-56230000D03*
X172180000Y-53690000D03*
X172180000Y-51150000D03*
X172180000Y-48610000D03*
X172180000Y-46070000D03*
X172180000Y-43530000D03*
X174720000Y-66390000D03*
X177260000Y-66390000D03*
X179800000Y-66390000D03*
%TD*%
D16*
%TO.C,D8*%
X102190000Y-91000000D03*
D17*
X104350000Y-91000000D03*
X107650000Y-91000000D03*
D15*
X109810000Y-91000000D03*
%TD*%
D19*
%TO.C,S19*%
X154500000Y-49000000D03*
D20*
X160000000Y-43050000D03*
D21*
X160000000Y-49000000D03*
D20*
X165000000Y-45250000D03*
D19*
X165500000Y-49000000D03*
%TD*%
D13*
%TO.C,D21*%
X179469585Y-117962853D03*
D14*
X181499321Y-118701617D03*
X184600307Y-119830283D03*
D15*
X186630043Y-120569047D03*
%TD*%
D27*
%TO.C,LED22*%
X168036242Y-127768790D03*
X167437707Y-129413252D03*
X171572354Y-130918140D03*
X172170889Y-129273678D03*
%TD*%
D18*
%TO.C,LED15*%
X139800000Y-70125000D03*
X139800000Y-71875000D03*
X144200000Y-71875000D03*
X144200000Y-70125000D03*
%TD*%
%TO.C,LED6*%
X85800000Y-70125000D03*
X85800000Y-71875000D03*
X90200000Y-71875000D03*
X90200000Y-70125000D03*
%TD*%
D19*
%TO.C,S20*%
X163703199Y-103710936D03*
D20*
X170906528Y-100000876D03*
D21*
X168871508Y-105592047D03*
D20*
X174852547Y-103778300D03*
D19*
X174039817Y-107473158D03*
%TD*%
D16*
%TO.C,D4*%
X66190000Y-57000000D03*
D17*
X68350000Y-57000000D03*
X71650000Y-57000000D03*
D15*
X73810000Y-57000000D03*
%TD*%
D19*
%TO.C,S4*%
X64500000Y-49000000D03*
D20*
X70000000Y-43050000D03*
D21*
X70000000Y-49000000D03*
D20*
X75000000Y-45250000D03*
D19*
X75500000Y-49000000D03*
%TD*%
D18*
%TO.C,LED12*%
X121800000Y-70125000D03*
X121800000Y-71875000D03*
X126200000Y-71875000D03*
X126200000Y-70125000D03*
%TD*%
D19*
%TO.C,S16*%
X136500000Y-49000000D03*
D20*
X142000000Y-43050000D03*
D21*
X142000000Y-49000000D03*
D20*
X147000000Y-45250000D03*
D19*
X147500000Y-49000000D03*
%TD*%
D16*
%TO.C,D2*%
X66190000Y-91000000D03*
D17*
X68350000Y-91000000D03*
X71650000Y-91000000D03*
D15*
X73810000Y-91000000D03*
%TD*%
D18*
%TO.C,LED11*%
X121800000Y-87125000D03*
X121800000Y-88875000D03*
X126200000Y-88875000D03*
X126200000Y-87125000D03*
%TD*%
%TO.C,LED13*%
X121800000Y-53125000D03*
X121800000Y-54875000D03*
X126200000Y-54875000D03*
X126200000Y-53125000D03*
%TD*%
D16*
%TO.C,D9*%
X102190000Y-74000000D03*
D17*
X104350000Y-74000000D03*
X107650000Y-74000000D03*
D15*
X109810000Y-74000000D03*
%TD*%
D18*
%TO.C,LED4*%
X67800000Y-53125000D03*
X67800000Y-54875000D03*
X72200000Y-54875000D03*
X72200000Y-53125000D03*
%TD*%
%TO.C,LED8*%
X103800000Y-87125000D03*
X103800000Y-88875000D03*
X108200000Y-88875000D03*
X108200000Y-87125000D03*
%TD*%
D22*
%TO.C,*%
X115000000Y-116250000D03*
%TD*%
D16*
%TO.C,D18*%
X156190000Y-74000000D03*
D17*
X158350000Y-74000000D03*
X161650000Y-74000000D03*
D15*
X163810000Y-74000000D03*
%TD*%
D19*
%TO.C,S2*%
X64500000Y-83000000D03*
D20*
X70000000Y-77050000D03*
D21*
X70000000Y-83000000D03*
D20*
X75000000Y-79250000D03*
D19*
X75500000Y-83000000D03*
%TD*%
%TO.C,S18*%
X154500000Y-66000000D03*
D20*
X160000000Y-60050000D03*
D21*
X160000000Y-66000000D03*
D20*
X165000000Y-62250000D03*
D19*
X165500000Y-66000000D03*
%TD*%
M02*
