M48
; DRILL file {KiCad 8.0.5} date 2024-09-15T18:20:36-0400
; FORMAT={-:-/ absolute / inch / decimal}
; #@! TF.CreationDate,2024-09-15T18:20:36-04:00
; #@! TF.GenerationSoftware,Kicad,Pcbnew,8.0.5
; #@! TF.FileFunction,Plated,1,2,PTH
FMAT,2
INCH
; #@! TA.AperFunction,Plated,PTH,ViaDrill
T1C0.0157
; #@! TA.AperFunction,Plated,PTH,ComponentDrill
T2C0.0295
; #@! TA.AperFunction,Plated,PTH,ComponentDrill
T3C0.0390
; #@! TA.AperFunction,Plated,PTH,ComponentDrill
T4C0.0394
; #@! TA.AperFunction,Plated,PTH,ComponentDrill
T5C0.0430
%
G90
G05
T1
X2.5787Y-2.0866
X2.5787Y-2.7559
X2.5787Y-3.4301
X2.591Y-4.0822
X2.9331Y-2.1604
X2.9331Y-2.8297
X2.9331Y-3.499
X2.9331Y-4.1535
X3.0709Y-3.499
X3.2677Y-3.3878
X3.2874Y-2.0492
X3.2874Y-2.7165
X3.6417Y-2.1604
X3.6417Y-2.8297
X3.6417Y-3.499
X3.9764Y-3.3878
X3.9961Y-2.0492
X3.9961Y-2.7165
X4.3504Y-2.1604
X4.3504Y-2.8297
X4.3504Y-3.499
X4.6063Y-1.6535
X4.685Y-3.3878
X4.7047Y-2.0492
X4.7047Y-2.7185
X5.0591Y-2.1604
X5.0591Y-2.8297
X5.0591Y-3.499
X5.315Y-1.6535
X5.3937Y-3.3878
X5.4134Y-2.0472
X5.4134Y-2.7185
X5.7677Y-2.1604
X5.7677Y-2.8297
X5.7677Y-3.499
X6.0236Y-1.6535
X6.1024Y-3.3878
X6.122Y-2.0492
X6.122Y-2.7165
X6.4173Y-4.252
X6.4764Y-2.815
X6.4764Y-3.4843
X6.4961Y-2.1063
X6.5261Y-5.029
X6.5354Y-3.4055
X6.5551Y-2.9134
X6.5551Y-3.0118
X6.5748Y-3.3071
X6.5945Y-2.5394
X6.7323Y-4.4041
X6.7717Y-3.6024
X6.8504Y-5.1543
X6.9882Y-4.5472
X7.0079Y-4.4488
X7.0866Y-4.5225
X7.1063Y-3.9764
X7.126Y-4.0945
X7.3819Y-4.0551
X7.4213Y-3.1496
X7.4213Y-3.6811
X7.4213Y-4.626
X7.6575Y-4.4882
T2
X3.4646Y-3.8976
X3.4646Y-3.9764
T3
X2.6059Y-2.2441
X2.6059Y-2.9134
X2.6059Y-3.5827
X2.6059Y-4.252
X2.9059Y-2.2441
X2.9059Y-2.9134
X2.9059Y-3.5827
X2.9059Y-4.252
X3.3146Y-2.2441
X3.3146Y-2.9134
X3.3146Y-3.5827
X3.6146Y-2.2441
X3.6146Y-2.9134
X3.6146Y-3.5827
X4.0232Y-2.2441
X4.0232Y-2.9134
X4.0232Y-3.5827
X4.3232Y-2.2441
X4.3232Y-2.9134
X4.3232Y-3.5827
X4.7319Y-2.2441
X4.7319Y-2.9134
X4.7319Y-3.5827
X5.0319Y-2.2441
X5.0319Y-2.9134
X5.0319Y-3.5827
X5.4406Y-2.2441
X5.4406Y-2.9134
X5.4406Y-3.5827
X5.7406Y-2.2441
X5.7406Y-2.9134
X5.7406Y-3.5827
X6.1492Y-2.2441
X6.1492Y-2.9134
X6.1492Y-3.5827
X6.3998Y-4.4018
X6.4492Y-2.2441
X6.4492Y-2.9134
X6.4492Y-3.5827
X6.5039Y-5.1519
X6.6817Y-4.5044
X6.7858Y-5.2546
X7.0657Y-4.6442
X7.3476Y-4.7468
T4
X6.8787Y-2.9321
X6.9787Y-2.9321
X7.0787Y-2.9321
X7.1787Y-2.9321
X7.2787Y-2.9321
T5
X6.7787Y-1.7138
X6.7787Y-1.8138
X6.7787Y-1.9138
X6.7787Y-2.0138
X6.7787Y-2.1138
X6.7787Y-2.2138
X6.7787Y-2.3138
X6.7787Y-2.4138
X6.7787Y-2.5138
X6.7787Y-2.6138
X6.7787Y-2.7138
X6.7787Y-2.8138
X6.8787Y-2.6138
X6.9787Y-2.6138
X7.0787Y-2.6138
X7.3787Y-1.7138
X7.3787Y-1.8138
X7.3787Y-1.9138
X7.3787Y-2.0138
X7.3787Y-2.1138
X7.3787Y-2.2138
X7.3787Y-2.3138
X7.3787Y-2.4138
X7.3787Y-2.5138
X7.3787Y-2.6138
X7.3787Y-2.7138
X7.3787Y-2.8138
M30
